999
CadZinho - Minimalist CAD by Zecruel
0
SECTION
2
HEADER
9
$ACADVER
1
AC1021
9
$HANDSEED
5
188
9
$INSUNITS
70
4
9
$LWDISPLAY
290
1
9
$TDUCREATE
40
2460697.011875
9
$TDUUPDATE
40
2460702.238322
9
$FINGERPRINTGUID
2
{88657B42-9D91-4C9A-86C9-73D3426E2F39}
9
$VERSIONGUID
2
{1E76BEE1-20EC-4D21-B9D0-E132F542CB1B}
0
ENDSEC
0
SECTION
2
CLASSES
0
ENDSEC
0
SECTION
2
TABLES
0
TABLE
2
VPORT
5
1
100
AcDbSymbolTable
70
1000
0
VPORT
5
25
100
AcDbSymbolTableRecord
100
AcDbViewportTableRecord
2
*ACTIVE
70
0
10
0.000000
20
0.000000
11
1.000000
21
1.000000
12
0.500000
22
0.500000
13
0.000000
23
0.000000
14
100.000000
24
100.000000
15
100.000000
25
100.000000
16
0.000000
26
0.000000
36
1.000000
17
48.191208
27
18.594638
37
0.962596
40
113.787405
41
0.990000
42
50.000000
43
0.000000
44
0.000000
50
0.000000
51
0.000000
0
ENDTAB
0
TABLE
2
LTYPE
5
4
100
AcDbSymbolTable
70
1000
0
LTYPE
5
5
100
AcDbSymbolTableRecord
100
AcDbLinetypeTableRecord
2
ByBlock
70
0
3

72
65
73
0
40
0.000000
0
LTYPE
5
6
100
AcDbSymbolTableRecord
100
AcDbLinetypeTableRecord
2
ByLayer
70
0
3

72
65
73
0
40
0.000000
0
LTYPE
5
7
100
AcDbSymbolTableRecord
100
AcDbLinetypeTableRecord
2
Continuous
70
0
3
___________________________________
72
65
73
0
40
0.000000
0
LTYPE
5
8
100
AcDbSymbolTableRecord
100
AcDbLinetypeTableRecord
2
Border
70
0
3
____ . ____ ____ . ____ ____ . ____
72
65
73
6
40
1.750000
49
0.500000
74
0
49
-0.250000
74
0
49
0.500000
74
0
49
-0.250000
74
0
49
0.000000
74
0
49
-0.250000
74
0
0
LTYPE
5
9
100
AcDbSymbolTableRecord
100
AcDbLinetypeTableRecord
2
Center
70
0
3
____ _ ____ _ ____ _ ____ _ ____ _
72
65
73
4
40
2.000000
49
1.250000
74
0
49
-0.250000
74
0
49
0.250000
74
0
49
-0.250000
74
0
0
LTYPE
5
A
100
AcDbSymbolTableRecord
100
AcDbLinetypeTableRecord
2
Dashdot
70
0
3
____ . ____ . ____ . ____ . ____ .
72
65
73
4
40
1.000000
49
0.500000
74
0
49
-0.250000
74
0
49
0.000000
74
0
49
-0.250000
74
0
0
LTYPE
5
B
100
AcDbSymbolTableRecord
100
AcDbLinetypeTableRecord
2
Dashed
70
0
3
____ ____ ____ ____ ____ ____ ____
72
65
73
2
40
0.750000
49
0.500000
74
0
49
-0.250000
74
0
0
LTYPE
5
C
100
AcDbSymbolTableRecord
100
AcDbLinetypeTableRecord
2
Divide
70
0
3
____ . . ____ . . ____ . . ____ . .
72
65
73
6
40
1.250000
49
0.500000
74
0
49
-0.250000
74
0
49
0.000000
74
0
49
-0.250000
74
0
49
0.000000
74
0
49
-0.250000
74
0
0
LTYPE
5
D
100
AcDbSymbolTableRecord
100
AcDbLinetypeTableRecord
2
Dot
70
0
3
. . . . . . . . . . . . . . . . . .
72
65
73
2
40
0.250000
49
0.000000
74
0
49
-0.250000
74
0
0
LTYPE
5
E
100
AcDbSymbolTableRecord
100
AcDbLinetypeTableRecord
2
Hidden
70
0
3
__ __ __ __ __ __ __ __ __ __ __ __
72
65
73
2
40
0.375000
49
0.250000
74
0
49
-0.125000
74
0
0
LTYPE
5
F
100
AcDbSymbolTableRecord
100
AcDbLinetypeTableRecord
2
Phantom
70
0
3
_____ _ _ _____ _ _ _____ _ _ _____
72
65
73
6
40
2.500000
49
1.250000
74
0
49
-0.250000
74
0
49
0.250000
74
0
49
-0.250000
74
0
49
0.250000
74
0
49
-0.250000
74
0
0
ENDTAB
0
TABLE
2
LAYER
5
10
100
AcDbSymbolTable
70
1000
0
LAYER
5
11
100
AcDbSymbolTableRecord
100
AcDbLayerTableRecord
2
0
70
0
62
7
6
Continuous
370
0
390
2B
0
ENDTAB
0
TABLE
2
STYLE
5
12
100
AcDbSymbolTable
70
1000
0
STYLE
5
13
100
AcDbSymbolTableRecord
100
AcDbTextStyleTableRecord
2
Standard
70
0
40
0.000000
41
1.000000
50
0.000000
71
0
42
1.000000
3
TXT.SHX
4

0
STYLE
5
24
100
AcDbSymbolTableRecord
100
AcDbTextStyleTableRecord
2

70
1
40
0.000000
41
1.000000
50
0.000000
71
0
42
1.000000
3
LTYPESHP.SHX
4

0
ENDTAB
0
TABLE
2
VIEW
5
14
100
AcDbSymbolTable
70
0
0
ENDTAB
0
TABLE
2
UCS
5
15
100
AcDbSymbolTable
70
0
0
ENDTAB
0
TABLE
2
APPID
5
16
100
AcDbSymbolTable
70
10
0
APPID
5
17
100
AcDbSymbolTableRecord
100
AcDbRegAppTableRecord
2
ACAD
70
0
0
APPID
5
18
100
AcDbSymbolTableRecord
100
AcDbRegAppTableRecord
2
CADZINHO
70
0
0
ENDTAB
0
TABLE
2
DIMSTYLE
5
19
100
AcDbSymbolTable
70
1
100
AcDbDimStyleTable
71
1
0
DIMSTYLE
105
1A
100
AcDbSymbolTableRecord
100
AcDbDimStyleTableRecord
2
Standard
70
0
3
<>
5
OPEN30
40
1.000000
41
1.000000
42
0.500000
44
1.000000
140
1.000000
144
1.000000
147
0.500000
77
1
271
2
340
13
0
ENDTAB
0
TABLE
2
BLOCK_RECORD
5
1B
100
AcDbSymbolTable
70
9999
0
BLOCK_RECORD
5
1C
100
AcDbSymbolTableRecord
100
AcDbBlockTableRecord
2
*Model_Space
70
0
0
BLOCK_RECORD
5
1D
100
AcDbSymbolTableRecord
100
AcDbBlockTableRecord
2
*Paper_Space
70
0
0
ENDTAB
0
ENDSEC
0
SECTION
2
BLOCKS
0
BLOCK
5
1E
100
AcDbEntity
8
0
100
AcDbBlockBegin
2
*Model_Space
70
0
10
0.000000
20
0.000000
30
0.000000
3
*Model_Space
1

0
ENDBLK
5
1F
100
AcDbEntity
8
0
100
AcDbBlockEnd
0
BLOCK
5
20
100
AcDbEntity
8
0
100
AcDbBlockBegin
2
*Paper_Space
70
0
10
0.000000
20
0.000000
30
0.000000
3
*Paper_Space
1

0
ENDBLK
5
21
100
AcDbEntity
8
0
100
AcDbBlockEnd
0
ENDSEC
0
SECTION
2
ENTITIES
0
LWPOLYLINE
5
3C
100
AcDbEntity
67
0
8
0
6
ByLayer
62
256
370
0
100
AcDbPolyline
90
4
70
1
10
0.000000
20
0.000000
30
0.000000
42
0.000000
10
8.000000
20
0.000000
30
0.000000
42
0.000000
10
8.000000
20
8.000000
30
0.000000
42
0.000000
10
0.000000
20
8.000000
30
0.000000
0
LWPOLYLINE
5
3D
100
AcDbEntity
67
0
8
0
6
ByLayer
62
256
370
100
100
AcDbPolyline
90
4
70
1
10
0.500000
20
0.500000
30
0.000000
42
0.000000
10
5.500000
20
0.500000
30
0.000000
42
0.000000
10
5.500000
20
5.500000
30
0.000000
42
0.000000
10
0.500000
20
5.500000
30
0.000000
0
LINE
5
3F
100
AcDbEntity
67
0
8
0
6
ByLayer
62
256
370
100
100
AcDbLine
10
0.500000
20
5.500000
30
0.000000
11
2.500000
21
7.500000
31
0.000000
0
LINE
5
40
100
AcDbEntity
67
0
8
0
6
ByLayer
62
256
370
100
100
AcDbLine
10
2.500000
20
7.500000
30
0.000000
11
7.500000
21
7.500000
31
0.000000
0
LINE
5
41
100
AcDbEntity
67
0
8
0
6
ByLayer
62
256
370
100
100
AcDbLine
10
7.500000
20
7.500000
30
0.000000
11
7.500000
21
2.500000
31
0.000000
0
LINE
5
42
100
AcDbEntity
67
0
8
0
6
ByLayer
62
256
370
100
100
AcDbLine
10
7.500000
20
2.500000
30
0.000000
11
5.500000
21
0.500000
31
0.000000
0
LINE
5
43
100
AcDbEntity
67
0
8
0
6
ByLayer
62
256
370
100
100
AcDbLine
10
5.500000
20
5.500000
30
0.000000
11
7.500000
21
7.500000
31
0.000000
0
LWPOLYLINE
5
44
100
AcDbEntity
67
0
8
0
6
ByLayer
62
256
370
0
100
AcDbPolyline
90
4
70
1
10
8.000000
20
0.000000
30
0.000000
42
0.000000
10
16.000000
20
0.000000
30
0.000000
42
0.000000
10
16.000000
20
8.000000
30
0.000000
42
0.000000
10
8.000000
20
8.000000
30
0.000000
0
LWPOLYLINE
5
45
100
AcDbEntity
67
0
8
0
6
ByLayer
62
256
370
100
100
AcDbPolyline
90
4
70
1
10
8.500000
20
0.500000
30
0.000000
42
0.000000
10
13.500000
20
0.500000
30
0.000000
42
0.000000
10
13.500000
20
5.500000
30
0.000000
42
0.000000
10
8.500000
20
5.500000
30
0.000000
0
LINE
5
46
100
AcDbEntity
67
0
8
0
6
ByLayer
62
256
370
100
100
AcDbLine
10
8.500000
20
5.500000
30
0.000000
11
10.500000
21
7.500000
31
0.000000
0
LINE
5
47
100
AcDbEntity
67
0
8
0
6
ByLayer
62
256
370
100
100
AcDbLine
10
10.500000
20
7.500000
30
0.000000
11
15.500000
21
7.500000
31
0.000000
0
LINE
5
48
100
AcDbEntity
67
0
8
0
6
ByLayer
62
256
370
100
100
AcDbLine
10
15.500000
20
7.500000
30
0.000000
11
15.500000
21
2.500000
31
0.000000
0
LINE
5
49
100
AcDbEntity
67
0
8
0
6
ByLayer
62
256
370
100
100
AcDbLine
10
15.500000
20
2.500000
30
0.000000
11
13.500000
21
0.500000
31
0.000000
0
LINE
5
4A
100
AcDbEntity
67
0
8
0
6
ByLayer
62
256
370
100
100
AcDbLine
10
13.500000
20
5.500000
30
0.000000
11
15.500000
21
7.500000
31
0.000000
0
LWPOLYLINE
5
4B
100
AcDbEntity
67
0
8
0
6
ByLayer
62
256
370
0
100
AcDbPolyline
90
4
70
1
10
16.000000
20
0.000000
30
0.000000
42
0.000000
10
24.000000
20
0.000000
30
0.000000
42
0.000000
10
24.000000
20
8.000000
30
0.000000
42
0.000000
10
16.000000
20
8.000000
30
0.000000
0
LWPOLYLINE
5
4C
100
AcDbEntity
67
0
8
0
6
ByLayer
62
256
370
100
100
AcDbPolyline
90
4
70
1
10
16.500000
20
0.500000
30
0.000000
42
0.000000
10
21.500000
20
0.500000
30
0.000000
42
0.000000
10
21.500000
20
5.500000
30
0.000000
42
0.000000
10
16.500000
20
5.500000
30
0.000000
0
LINE
5
4D
100
AcDbEntity
67
0
8
0
6
ByLayer
62
256
370
100
100
AcDbLine
10
16.500000
20
5.500000
30
0.000000
11
18.500000
21
7.500000
31
0.000000
0
LINE
5
4E
100
AcDbEntity
67
0
8
0
6
ByLayer
62
256
370
100
100
AcDbLine
10
18.500000
20
7.500000
30
0.000000
11
23.500000
21
7.500000
31
0.000000
0
LINE
5
4F
100
AcDbEntity
67
0
8
0
6
ByLayer
62
256
370
100
100
AcDbLine
10
23.500000
20
7.500000
30
0.000000
11
23.500000
21
2.500000
31
0.000000
0
LINE
5
50
100
AcDbEntity
67
0
8
0
6
ByLayer
62
256
370
100
100
AcDbLine
10
23.500000
20
2.500000
30
0.000000
11
21.500000
21
0.500000
31
0.000000
0
LINE
5
51
100
AcDbEntity
67
0
8
0
6
ByLayer
62
256
370
100
100
AcDbLine
10
21.500000
20
5.500000
30
0.000000
11
23.500000
21
7.500000
31
0.000000
0
LWPOLYLINE
5
52
100
AcDbEntity
67
0
8
0
6
ByLayer
62
256
370
0
100
AcDbPolyline
90
4
70
1
10
24.000000
20
0.000000
30
0.000000
42
0.000000
10
32.000000
20
0.000000
30
0.000000
42
0.000000
10
32.000000
20
8.000000
30
0.000000
42
0.000000
10
24.000000
20
8.000000
30
0.000000
0
LWPOLYLINE
5
53
100
AcDbEntity
67
0
8
0
6
ByLayer
62
256
370
100
100
AcDbPolyline
90
4
70
1
10
27.501306
20
0.425680
30
0.000000
42
0.000000
10
30.571328
20
1.960691
30
0.000000
42
0.000000
10
29.036317
20
5.030713
30
0.000000
42
0.000000
10
25.966295
20
3.495702
30
0.000000
0
LINE
5
54
100
AcDbEntity
67
0
8
0
6
ByLayer
62
256
370
100
100
AcDbLine
10
25.966295
20
3.495702
30
0.000000
11
26.580299
21
5.337716
31
0.000000
0
LINE
5
55
100
AcDbEntity
67
0
8
0
6
ByLayer
62
256
370
100
100
AcDbLine
10
26.580299
20
5.337716
30
0.000000
11
29.650322
21
6.872727
31
0.000000
0
LINE
5
56
100
AcDbEntity
67
0
8
0
6
ByLayer
62
256
370
100
100
AcDbLine
10
29.650322
20
6.872727
30
0.000000
11
31.185333
21
3.802704
31
0.000000
0
LINE
5
57
100
AcDbEntity
67
0
8
0
6
ByLayer
62
256
370
100
100
AcDbLine
10
31.185333
20
3.802704
30
0.000000
11
30.571328
21
1.960691
31
0.000000
0
LINE
5
58
100
AcDbEntity
67
0
8
0
6
ByLayer
62
256
370
100
100
AcDbLine
10
29.036317
20
5.030713
30
0.000000
11
29.650322
21
6.872727
31
0.000000
0
LWPOLYLINE
5
59
100
AcDbEntity
67
0
8
0
6
ByLayer
62
256
370
0
100
AcDbPolyline
90
4
70
1
10
32.000000
20
0.000000
30
0.000000
42
0.000000
10
40.000000
20
0.000000
30
0.000000
42
0.000000
10
40.000000
20
8.000000
30
0.000000
42
0.000000
10
32.000000
20
8.000000
30
0.000000
0
HATCH
5
6E
100
AcDbEntity
67
0
8
0
6
ByLayer
62
256
370
50
100
AcDbHatch
10
0.000000
20
0.000000
30
0.000000
210
0.000000
220
0.000000
230
1.000000
2
USER_DEF
70
0
71
0
91
1
92
0
93
4
72
1
10
0.500000
20
5.500000
11
2.500000
21
7.500000
72
1
10
2.500000
20
7.500000
11
7.500000
21
7.500000
72
1
10
7.500000
20
7.500000
11
5.500000
21
5.500000
72
1
10
5.500000
20
5.500000
11
0.500000
21
5.500000
97
0
75
0
76
0
52
0.000000
41
1.000000
77
0
78
1
53
120.000000
43
0.000000
44
0.000000
45
-0.866025
46
-0.500000
79
0
98
0
0
HATCH
5
6F
100
AcDbEntity
67
0
8
0
6
ByLayer
62
256
370
50
100
AcDbHatch
10
0.000000
20
0.000000
30
0.000000
210
0.000000
220
0.000000
230
1.000000
2
USER_DEF
70
0
71
0
91
1
92
0
93
4
72
1
10
8.500000
20
5.500000
11
8.500000
21
0.500000
72
1
10
8.500000
20
0.500000
11
13.500000
21
0.500000
72
1
10
13.500000
20
0.500000
11
13.500000
21
5.500000
72
1
10
13.500000
20
5.500000
11
8.500000
21
5.500000
97
0
75
0
76
0
52
0.000000
41
1.000000
77
0
78
1
53
120.000000
43
0.000000
44
0.000000
45
-0.866025
46
-0.500000
79
0
98
0
0
HATCH
5
70
100
AcDbEntity
67
0
8
0
6
ByLayer
62
256
370
50
100
AcDbHatch
10
0.000000
20
0.000000
30
0.000000
210
0.000000
220
0.000000
230
1.000000
2
USER_DEF
70
0
71
0
91
1
92
0
93
4
72
1
10
21.500000
20
5.500000
11
21.500000
21
0.500000
72
1
10
21.500000
20
0.500000
11
23.500000
21
2.500000
72
1
10
23.500000
20
2.500000
11
23.500000
21
7.500000
72
1
10
23.500000
20
7.500000
11
21.500000
21
5.500000
97
0
75
0
76
0
52
0.000000
41
1.000000
77
0
78
1
53
120.000000
43
0.000000
44
0.000000
45
-0.866025
46
-0.500000
79
0
98
0
0
LWPOLYLINE
5
71
100
AcDbEntity
67
0
8
0
6
ByLayer
62
256
370
50
100
AcDbPolyline
90
3
70
0
10
24.993990
20
2.207275
30
0.000000
42
-0.500000
10
26.874829
20
6.967243
30
0.000000
42
0.000000
10
25.731858
20
6.967243
30
0.000000
0
CIRCLE
5
72
100
AcDbEntity
67
0
8
0
6
ByLayer
62
256
370
100
100
AcDbCircle
10
36.032224
20
3.982282
30
0.000000
40
3.326799
0
ELLIPSE
5
75
100
AcDbEntity
67
0
8
0
6
ByLayer
62
256
370
50
100
AcDbEllipse
10
36.032224
20
3.982282
30
0.000000
11
-3.326799
21
0.000000
31
0.000000
40
0.372033
41
0.000000
42
3.141593
0
ELLIPSE
5
76
100
AcDbEntity
67
0
8
0
6
Dashed
62
256
370
50
100
AcDbEllipse
10
36.032224
20
3.982282
30
0.000000
11
3.326799
21
-0.000000
31
0.000000
40
0.372033
41
0.000000
42
3.141593
0
ELLIPSE
5
77
100
AcDbEntity
67
0
8
0
6
ByLayer
62
256
370
50
100
AcDbEllipse
10
36.032224
20
3.982282
30
0.000000
11
-0.000000
21
-3.326799
31
0.000000
40
0.372033
41
0.000000
42
3.141593
0
ELLIPSE
5
78
100
AcDbEntity
67
0
8
0
6
Dashed
62
256
370
50
100
AcDbEllipse
10
36.032224
20
3.982282
30
0.000000
11
0.000000
21
3.326799
31
0.000000
40
0.372033
41
0.000000
42
3.141593
0
LWPOLYLINE
5
79
100
AcDbEntity
67
0
8
0
6
ByLayer
62
256
370
0
100
AcDbPolyline
90
4
70
1
10
40.000000
20
0.000000
30
0.000000
42
0.000000
10
48.000000
20
0.000000
30
0.000000
42
0.000000
10
48.000000
20
8.000000
30
0.000000
42
0.000000
10
40.000000
20
8.000000
30
0.000000
0
ELLIPSE
5
7A
100
AcDbEntity
67
0
8
0
6
ByLayer
62
256
370
100
100
AcDbEllipse
10
44.046996
20
6.113947
30
0.000000
11
3.326799
21
0.000000
31
0.000000
40
0.372033
41
0.000000
42
6.283185
0
ELLIPSE
5
7B
100
AcDbEntity
67
0
8
0
6
ByLayer
62
256
370
100
100
AcDbEllipse
10
44.046996
20
1.916049
30
0.000000
11
-3.326799
21
0.000000
31
0.000000
40
0.372033
41
0.000000
42
3.141593
0
ELLIPSE
5
7C
100
AcDbEntity
67
0
8
0
6
Dashed
62
256
370
50
100
AcDbEllipse
10
44.046996
20
1.916049
30
0.000000
11
3.326799
21
-0.000000
31
0.000000
40
0.372033
41
0.000000
42
3.141593
0
LINE
5
7D
100
AcDbEntity
67
0
8
0
6
Continuous
62
256
370
100
100
AcDbLine
10
40.720197
20
1.916049
30
0.000000
11
40.720197
21
6.113947
31
0.000000
0
LINE
5
7E
100
AcDbEntity
67
0
8
0
6
Continuous
62
256
370
100
100
AcDbLine
10
47.373795
20
1.916049
30
0.000000
11
47.373795
21
6.113947
31
0.000000
0
LWPOLYLINE
5
7F
100
AcDbEntity
67
0
8
0
6
ByLayer
62
256
370
0
100
AcDbPolyline
90
4
70
1
10
48.000000
20
0.000000
30
0.000000
42
0.000000
10
56.000000
20
0.000000
30
0.000000
42
0.000000
10
56.000000
20
8.000000
30
0.000000
42
0.000000
10
48.000000
20
8.000000
30
0.000000
0
LWPOLYLINE
5
87
100
AcDbEntity
67
0
8
0
6
ByLayer
62
256
370
0
100
AcDbPolyline
90
4
70
1
10
56.000000
20
0.000000
30
0.000000
42
0.000000
10
64.000000
20
0.000000
30
0.000000
42
0.000000
10
64.000000
20
8.000000
30
0.000000
42
0.000000
10
56.000000
20
8.000000
30
0.000000
0
LINE
5
89
100
AcDbEntity
67
0
8
0
6
Continuous
62
256
370
100
100
AcDbLine
10
60.438081
20
0.384941
30
0.000000
11
56.545775
21
1.504894
31
0.000000
0
LINE
5
8A
100
AcDbEntity
67
0
8
0
6
Continuous
62
256
370
100
100
AcDbLine
10
60.438081
20
0.384941
30
0.000000
11
63.066926
21
1.181531
31
0.000000
0
LINE
5
8B
100
AcDbEntity
67
0
8
0
6
Dashed
62
256
370
50
100
AcDbLine
10
59.174621
20
2.301483
30
0.000000
11
63.066926
21
1.181531
31
0.000000
0
LINE
5
8C
100
AcDbEntity
67
0
8
0
6
Dashed
62
256
370
50
100
AcDbLine
10
59.174621
20
2.301483
30
0.000000
11
56.545775
21
1.504894
31
0.000000
0
LINE
5
8F
100
AcDbEntity
67
0
8
0
6
Continuous
62
256
370
100
100
AcDbLine
10
56.545775
20
1.504894
30
0.000000
11
60.090023
21
7.682219
31
0.000000
0
LINE
5
90
100
AcDbEntity
67
0
8
0
6
Continuous
62
256
370
100
100
AcDbLine
10
60.090023
20
7.682219
30
0.000000
11
60.438081
21
0.384941
31
0.000000
0
LINE
5
91
100
AcDbEntity
67
0
8
0
6
Continuous
62
256
370
100
100
AcDbLine
10
63.066926
20
1.181531
30
0.000000
11
60.090023
21
7.682219
31
0.000000
0
LINE
5
92
100
AcDbEntity
67
0
8
0
6
Dashed
62
256
370
50
100
AcDbLine
10
60.090023
20
7.682219
30
0.000000
11
59.174621
21
2.301483
31
0.000000
0
LINE
5
93
100
AcDbEntity
67
0
8
0
6
Continuous
62
256
370
100
100
AcDbLine
10
52.438081
20
0.384941
30
0.000000
11
48.545775
21
1.504894
31
0.000000
0
LINE
5
94
100
AcDbEntity
67
0
8
0
6
Continuous
62
256
370
100
100
AcDbLine
10
52.438081
20
0.384941
30
0.000000
11
55.066926
21
1.181531
31
0.000000
0
LINE
5
95
100
AcDbEntity
67
0
8
0
6
Dashed
62
256
370
50
100
AcDbLine
10
51.174621
20
2.301483
30
0.000000
11
55.066926
21
1.181531
31
0.000000
0
LINE
5
96
100
AcDbEntity
67
0
8
0
6
Dashed
62
256
370
50
100
AcDbLine
10
51.174621
20
2.301483
30
0.000000
11
48.545775
21
1.504894
31
0.000000
0
LINE
5
9B
100
AcDbEntity
67
0
8
0
6
Continuous
62
256
370
100
100
AcDbLine
10
52.438081
20
5.559934
30
0.000000
11
48.545775
21
6.679886
31
0.000000
0
LINE
5
9C
100
AcDbEntity
67
0
8
0
6
Continuous
62
256
370
100
100
AcDbLine
10
52.438081
20
5.559934
30
0.000000
11
55.066926
21
6.356523
31
0.000000
0
LINE
5
9F
100
AcDbEntity
67
0
8
0
6
Dashed
62
256
370
50
100
AcDbLine
10
51.174621
20
7.476476
30
0.000000
11
51.174621
21
2.301483
31
0.000000
0
LINE
5
A0
100
AcDbEntity
67
0
8
0
6
Continuous
62
256
370
100
100
AcDbLine
10
48.545775
20
6.679886
30
0.000000
11
48.545775
21
1.504894
31
0.000000
0
LINE
5
A1
100
AcDbEntity
67
0
8
0
6
Continuous
62
256
370
100
100
AcDbLine
10
52.438081
20
5.559934
30
0.000000
11
52.438081
21
0.384941
31
0.000000
0
LINE
5
A2
100
AcDbEntity
67
0
8
0
6
Continuous
62
256
370
100
100
AcDbLine
10
55.066926
20
6.356523
30
0.000000
11
55.066926
21
1.181531
31
0.000000
0
LINE
5
A3
100
AcDbEntity
67
0
8
0
6
Continuous
62
256
370
100
100
AcDbLine
10
48.545775
20
6.679886
30
0.000000
11
51.174621
21
7.476476
31
0.000000
0
LINE
5
A4
100
AcDbEntity
67
0
8
0
6
Continuous
62
256
370
100
100
AcDbLine
10
51.174621
20
7.476476
30
0.000000
11
55.066926
21
6.356523
31
0.000000
0
LWPOLYLINE
5
A5
100
AcDbEntity
67
0
8
0
6
ByLayer
62
256
370
0
100
AcDbPolyline
90
4
70
1
10
64.000000
20
0.000000
30
0.000000
42
0.000000
10
72.000000
20
0.000000
30
0.000000
42
0.000000
10
72.000000
20
8.000000
30
0.000000
42
0.000000
10
64.000000
20
8.000000
30
0.000000
0
LWPOLYLINE
5
A6
100
AcDbEntity
67
0
8
0
6
ByLayer
62
256
370
0
100
AcDbPolyline
90
4
70
1
10
72.000000
20
0.000000
30
0.000000
42
0.000000
10
80.000000
20
0.000000
30
0.000000
42
0.000000
10
80.000000
20
8.000000
30
0.000000
42
0.000000
10
72.000000
20
8.000000
30
0.000000
0
LWPOLYLINE
5
A7
100
AcDbEntity
67
0
8
0
6
ByLayer
62
256
370
0
100
AcDbPolyline
90
4
70
1
10
80.000000
20
0.000000
30
0.000000
42
0.000000
10
88.000000
20
0.000000
30
0.000000
42
0.000000
10
88.000000
20
8.000000
30
0.000000
42
0.000000
10
80.000000
20
8.000000
30
0.000000
0
LINE
5
AA
100
AcDbEntity
67
0
8
0
6
Continuous
62
256
370
100
100
AcDbLine
10
66.845198
20
1.630880
30
0.000000
11
69.959042
21
0.734918
31
0.000000
0
LINE
5
AB
100
AcDbEntity
67
0
8
0
6
Continuous
62
256
370
100
100
AcDbLine
10
66.845198
20
1.630880
30
0.000000
11
64.742121
21
0.993609
31
0.000000
0
LINE
5
AE
100
AcDbEntity
67
0
8
0
6
Dashed
62
256
370
50
100
AcDbLine
10
66.845198
20
7.444466
30
0.000000
11
66.845198
21
3.304472
31
0.000000
0
LINE
5
AF
100
AcDbEntity
67
0
8
0
6
Dashed
62
256
370
50
100
AcDbLine
10
64.742121
20
6.807194
30
0.000000
11
64.742121
21
2.667201
31
0.000000
0
LINE
5
B1
100
AcDbEntity
67
0
8
0
6
Dashed
62
256
370
50
100
AcDbLine
10
69.959042
20
6.548504
30
0.000000
11
69.959042
21
2.408510
31
0.000000
0
LINE
5
B2
100
AcDbEntity
67
0
8
0
6
Continuous
62
256
370
100
100
AcDbLine
10
64.742121
20
6.807194
30
0.000000
11
66.845198
21
7.444466
31
0.000000
0
LINE
5
B3
100
AcDbEntity
67
0
8
0
6
Continuous
62
256
370
100
100
AcDbLine
10
66.845198
20
7.444466
30
0.000000
11
69.959042
21
6.548504
31
0.000000
0
LINE
5
B4
100
AcDbEntity
67
0
8
0
6
ByLayer
62
256
370
100
100
AcDbLine
10
64.742121
20
0.993609
30
0.000000
11
65.633292
21
0.737187
31
0.000000
0
LINE
5
B5
100
AcDbEntity
67
0
8
0
6
ByLayer
62
256
370
100
100
AcDbLine
10
65.633292
20
0.737187
30
0.000000
11
67.098967
21
1.188033
31
0.000000
0
LINE
5
B6
100
AcDbEntity
67
0
8
0
6
ByLayer
62
256
370
100
100
AcDbLine
10
67.098967
20
1.188033
30
0.000000
11
69.341841
21
0.547895
31
0.000000
0
LINE
5
B7
100
AcDbEntity
67
0
8
0
6
ByLayer
62
256
370
100
100
AcDbLine
10
69.341841
20
0.547895
30
0.000000
11
69.959042
21
0.734918
31
0.000000
0
LINE
5
B8
100
AcDbEntity
67
0
8
0
6
ByLayer
62
256
370
100
100
AcDbLine
10
64.742121
20
6.807194
30
0.000000
11
65.633292
21
6.550773
31
0.000000
0
LINE
5
B9
100
AcDbEntity
67
0
8
0
6
ByLayer
62
256
370
100
100
AcDbLine
10
65.633292
20
6.550773
30
0.000000
11
67.098967
21
7.001619
31
0.000000
0
LINE
5
BA
100
AcDbEntity
67
0
8
0
6
ByLayer
62
256
370
100
100
AcDbLine
10
67.098967
20
7.001619
30
0.000000
11
69.341841
21
6.361480
31
0.000000
0
LINE
5
BB
100
AcDbEntity
67
0
8
0
6
ByLayer
62
256
370
100
100
AcDbLine
10
69.341841
20
6.361480
30
0.000000
11
69.959042
21
6.548504
31
0.000000
0
LINE
5
BC
100
AcDbEntity
67
0
8
0
6
Dashed
62
256
370
50
100
AcDbLine
10
67.098967
20
7.001619
30
0.000000
11
67.098967
21
2.861625
31
0.000000
0
LINE
5
BD
100
AcDbEntity
67
0
8
0
6
Dashed
62
256
370
50
100
AcDbLine
10
65.633292
20
6.550773
30
0.000000
11
65.633292
21
2.410780
31
0.000000
0
LINE
5
BE
100
AcDbEntity
67
0
8
0
6
Dashed
62
256
370
50
100
AcDbLine
10
69.341841
20
6.361480
30
0.000000
11
69.341841
21
2.221487
31
0.000000
0
LINE
5
BF
100
AcDbEntity
67
0
8
0
6
Continuous
62
256
370
50
100
AcDbLine
10
64.742121
20
0.993609
30
0.000000
11
64.742121
21
2.667201
31
0.000000
0
LINE
5
C0
100
AcDbEntity
67
0
8
0
6
Continuous
62
256
370
50
100
AcDbLine
10
65.633292
20
0.737187
30
0.000000
11
65.633292
21
2.410780
31
0.000000
0
LINE
5
C1
100
AcDbEntity
67
0
8
0
6
Continuous
62
256
370
50
100
AcDbLine
10
66.845198
20
1.630880
30
0.000000
11
66.845198
21
3.304472
31
0.000000
0
LINE
5
C2
100
AcDbEntity
67
0
8
0
6
Continuous
62
256
370
50
100
AcDbLine
10
67.098967
20
1.188033
30
0.000000
11
67.098967
21
2.861625
31
0.000000
0
LINE
5
C3
100
AcDbEntity
67
0
8
0
6
Continuous
62
256
370
50
100
AcDbLine
10
69.341841
20
0.547895
30
0.000000
11
69.341841
21
2.221487
31
0.000000
0
LINE
5
C4
100
AcDbEntity
67
0
8
0
6
Continuous
62
256
370
50
100
AcDbLine
10
69.959042
20
0.734918
30
0.000000
11
69.959042
21
2.408510
31
0.000000
0
LINE
5
C5
100
AcDbEntity
67
0
8
0
6
Continuous
62
256
370
50
100
AcDbLine
10
71.111364
20
1.128969
30
0.000000
11
71.111364
21
5.831440
31
0.000000
0
LINE
5
C6
100
AcDbEntity
67
0
8
0
6
Continuous
62
256
370
50
100
AcDbLine
10
71.111364
20
5.831440
30
0.000000
11
70.667242
21
4.890946
31
0.000000
0
LINE
5
C7
100
AcDbEntity
67
0
8
0
6
Continuous
62
256
370
50
100
AcDbLine
10
71.111364
20
5.831440
30
0.000000
11
71.555486
21
4.890946
31
0.000000
0
LINE
5
C8
100
AcDbEntity
67
0
8
0
6
Continuous
62
256
370
100
100
AcDbLine
10
74.845198
20
1.630880
30
0.000000
11
76.837605
21
1.054987
31
0.000000
0
LINE
5
C9
100
AcDbEntity
67
0
8
0
6
Continuous
62
256
370
100
100
AcDbLine
10
74.845198
20
1.630880
30
0.000000
11
72.742121
21
0.993609
31
0.000000
0
LINE
5
CD
100
AcDbEntity
67
0
8
0
6
Continuous
62
256
370
100
100
AcDbLine
10
72.742121
20
6.807194
30
0.000000
11
74.845198
21
7.444466
31
0.000000
0
LINE
5
CE
100
AcDbEntity
67
0
8
0
6
Continuous
62
256
370
100
100
AcDbLine
10
74.845198
20
7.444466
30
0.000000
11
76.837605
21
6.868573
31
0.000000
0
LINE
5
CF
100
AcDbEntity
67
0
8
0
6
ByLayer
62
256
370
100
100
AcDbLine
10
72.742121
20
0.993609
30
0.000000
11
73.633292
21
0.737187
31
0.000000
0
LINE
5
D0
100
AcDbEntity
67
0
8
0
6
ByLayer
62
256
370
100
100
AcDbLine
10
73.633292
20
0.737187
30
0.000000
11
75.098967
21
1.188033
31
0.000000
0
LINE
5
D1
100
AcDbEntity
67
0
8
0
6
ByLayer
62
256
370
100
100
AcDbLine
10
75.098967
20
1.188033
30
0.000000
11
76.220404
21
0.867964
31
0.000000
0
LINE
5
D2
100
AcDbEntity
67
0
8
0
6
ByLayer
62
256
370
100
100
AcDbLine
10
76.220404
20
0.867964
30
0.000000
11
76.837605
21
1.054987
31
0.000000
0
LINE
5
D3
100
AcDbEntity
67
0
8
0
6
ByLayer
62
256
370
100
100
AcDbLine
10
72.742121
20
6.807194
30
0.000000
11
73.633292
21
6.550773
31
0.000000
0
LINE
5
D4
100
AcDbEntity
67
0
8
0
6
ByLayer
62
256
370
100
100
AcDbLine
10
73.633292
20
6.550773
30
0.000000
11
75.098967
21
7.001619
31
0.000000
0
LINE
5
D5
100
AcDbEntity
67
0
8
0
6
ByLayer
62
256
370
100
100
AcDbLine
10
75.098967
20
7.001619
30
0.000000
11
76.220404
21
6.681549
31
0.000000
0
LINE
5
D6
100
AcDbEntity
67
0
8
0
6
ByLayer
62
256
370
100
100
AcDbLine
10
76.220404
20
6.681549
30
0.000000
11
76.837605
21
6.868573
31
0.000000
0
LINE
5
E1
100
AcDbEntity
67
0
8
0
6
Continuous
62
256
370
50
100
AcDbLine
10
78.444765
20
6.506410
30
0.000000
11
78.286062
21
5.478505
31
0.000000
0
LINE
5
E2
100
AcDbEntity
67
0
8
0
6
Continuous
62
256
370
50
100
AcDbLine
10
78.444765
20
6.506410
30
0.000000
11
79.137724
21
5.730793
31
0.000000
0
LINE
5
E3
100
AcDbEntity
67
0
8
0
6
Continuous
62
256
370
50
100
AcDbLine
10
76.167889
20
4.341896
30
0.000000
11
78.160296
21
3.766003
31
0.000000
0
LINE
5
E4
100
AcDbEntity
67
0
8
0
6
Continuous
62
256
370
50
100
AcDbLine
10
76.167889
20
4.341896
30
0.000000
11
74.064812
21
3.704624
31
0.000000
0
LINE
5
E5
100
AcDbEntity
67
0
8
0
6
ByLayer
62
256
370
50
100
AcDbLine
10
74.064812
20
3.704624
30
0.000000
11
74.955984
21
3.448203
31
0.000000
0
LINE
5
E6
100
AcDbEntity
67
0
8
0
6
ByLayer
62
256
370
50
100
AcDbLine
10
74.955984
20
3.448203
30
0.000000
11
76.421659
21
3.899048
31
0.000000
0
LINE
5
E7
100
AcDbEntity
67
0
8
0
6
ByLayer
62
256
370
50
100
AcDbLine
10
76.421659
20
3.899048
30
0.000000
11
77.543095
21
3.578979
31
0.000000
0
LINE
5
E8
100
AcDbEntity
67
0
8
0
6
ByLayer
62
256
370
50
100
AcDbLine
10
77.543095
20
3.578979
30
0.000000
11
78.160296
21
3.766003
31
0.000000
0
LINE
5
EE
100
AcDbEntity
67
0
8
0
6
Dashed
62
256
370
50
100
AcDbLine
10
74.064812
20
3.704624
30
0.000000
11
72.742121
21
6.807194
31
0.000000
0
LINE
5
EF
100
AcDbEntity
67
0
8
0
6
Dashed
62
256
370
50
100
AcDbLine
10
74.955984
20
3.448203
30
0.000000
11
73.633292
21
6.550773
31
0.000000
0
LINE
5
F0
100
AcDbEntity
67
0
8
0
6
Dashed
62
256
370
50
100
AcDbLine
10
76.167889
20
4.341896
30
0.000000
11
74.845198
21
7.444466
31
0.000000
0
LINE
5
F1
100
AcDbEntity
67
0
8
0
6
Dashed
62
256
370
50
100
AcDbLine
10
76.421659
20
3.899048
30
0.000000
11
75.098967
21
7.001619
31
0.000000
0
LINE
5
F2
100
AcDbEntity
67
0
8
0
6
Dashed
62
256
370
50
100
AcDbLine
10
78.160296
20
3.766003
30
0.000000
11
76.837605
21
6.868573
31
0.000000
0
LINE
5
F3
100
AcDbEntity
67
0
8
0
6
Dashed
62
256
370
50
100
AcDbLine
10
77.543095
20
3.578979
30
0.000000
11
76.220404
21
6.681549
31
0.000000
0
LINE
5
F8
100
AcDbEntity
67
0
8
0
6
Dashed
62
256
370
50
100
AcDbLine
10
76.167889
20
4.341896
30
0.000000
11
75.506543
21
2.986388
31
0.000000
0
LINE
5
F9
100
AcDbEntity
67
0
8
0
6
Dashed
62
256
370
50
100
AcDbLine
10
74.955984
20
3.448203
30
0.000000
11
74.294638
21
2.092695
31
0.000000
0
LINE
5
FA
100
AcDbEntity
67
0
8
0
6
Dashed
62
256
370
50
100
AcDbLine
10
74.064812
20
3.704624
30
0.000000
11
73.403467
21
2.349116
31
0.000000
0
LINE
5
FB
100
AcDbEntity
67
0
8
0
6
Dashed
62
256
370
50
100
AcDbLine
10
76.421659
20
3.899048
30
0.000000
11
75.760313
21
2.543541
31
0.000000
0
LINE
5
FC
100
AcDbEntity
67
0
8
0
6
Dashed
62
256
370
50
100
AcDbLine
10
77.543095
20
3.578979
30
0.000000
11
76.881750
21
2.223472
31
0.000000
0
LINE
5
FD
100
AcDbEntity
67
0
8
0
6
Dashed
62
256
370
50
100
AcDbLine
10
78.160296
20
3.766003
30
0.000000
11
77.498951
21
2.410495
31
0.000000
0
LINE
5
FE
100
AcDbEntity
67
0
8
0
6
Continuous
62
256
370
50
100
AcDbLine
10
72.742121
20
0.993609
30
0.000000
11
73.403467
21
2.349116
31
0.000000
0
LINE
5
FF
100
AcDbEntity
67
0
8
0
6
Continuous
62
256
370
50
100
AcDbLine
10
73.633292
20
0.737187
30
0.000000
11
74.294638
21
2.092695
31
0.000000
0
LINE
5
100
100
AcDbEntity
67
0
8
0
6
Continuous
62
256
370
50
100
AcDbLine
10
75.098967
20
1.188033
30
0.000000
11
75.760313
21
2.543541
31
0.000000
0
LINE
5
101
100
AcDbEntity
67
0
8
0
6
Continuous
62
256
370
50
100
AcDbLine
10
74.845198
20
1.630880
30
0.000000
11
75.506543
21
2.986388
31
0.000000
0
LINE
5
102
100
AcDbEntity
67
0
8
0
6
Continuous
62
256
370
50
100
AcDbLine
10
76.837605
20
1.054987
30
0.000000
11
77.498951
21
2.410495
31
0.000000
0
LINE
5
103
100
AcDbEntity
67
0
8
0
6
Continuous
62
256
370
50
100
AcDbLine
10
76.220404
20
0.867964
30
0.000000
11
76.881750
21
2.223472
31
0.000000
0
LINE
5
107
100
AcDbEntity
67
0
8
0
6
Continuous
62
256
370
50
100
AcDbLine
10
78.205473
20
0.855444
30
0.000000
11
79.335735
21
3.498711
31
0.000000
0
LINE
5
108
100
AcDbEntity
67
0
8
0
6
Continuous
62
256
370
50
100
AcDbLine
10
79.335735
20
3.498711
30
0.000000
11
78.444765
21
6.506410
31
0.000000
0
CIRCLE
5
109
100
AcDbEntity
67
0
8
0
6
Continuous
62
256
370
50
100
AcDbCircle
10
81.366808
20
2.841062
30
0.000000
40
1.112533
0
ELLIPSE
5
10A
100
AcDbEntity
67
0
8
0
6
Continuous
62
256
370
50
100
AcDbEllipse
10
84.028675
20
3.953595
30
0.000000
11
2.661867
21
0.000000
31
0.000000
40
0.291110
41
0.000000
42
6.283185
0
ELLIPSE
5
119
100
AcDbEntity
67
0
8
0
6
ByLayer
62
256
370
50
100
AcDbEllipse
10
85.325310
20
3.528597
30
0.000000
11
0.000000
21
1.148821
31
0.000000
40
0.350937
41
0.000000
42
1.838103
0
ELLIPSE
5
11E
100
AcDbEntity
67
0
8
0
6
ByLayer
62
256
370
50
100
AcDbEllipse
10
84.028675
20
2.841062
30
0.000000
11
-3.774400
21
0.000000
31
0.000000
40
0.518097
41
0.000000
42
6.283185
0
ELLIPSE
5
120
100
AcDbEntity
67
0
8
0
6
ByLayer
62
256
370
50
100
AcDbEllipse
10
82.744122
20
2.139492
30
0.000000
11
0.000000
21
-1.136586
31
0.000000
40
0.350937
41
0.000000
42
3.141593
0
ELLIPSE
5
121
100
AcDbEntity
67
0
8
0
6
ByLayer
62
256
370
50
100
AcDbEllipse
10
85.313227
20
2.139492
30
0.000000
11
0.000000
21
-1.136586
31
0.000000
40
0.350937
41
0.000000
42
3.141593
0
LWPOLYLINE
5
122
100
AcDbEntity
67
0
8
0
6
ByLayer
62
256
370
50
100
AcDbPolyline
90
2
70
0
10
86.690542
20
3.953595
30
0.000000
42
0.300000
10
85.701698
20
3.350883
30
0.000000
0
ELLIPSE
5
123
100
AcDbEntity
67
0
8
0
6
ByLayer
62
256
370
50
100
AcDbEllipse
10
83.101505
20
3.587828
30
0.000000
11
0.000000
21
1.148821
31
0.000000
40
0.350937
41
0.000000
42
1.838103
0
HATCH
5
125
100
AcDbEntity
67
0
8
0
6
Continuous
62
256
370
50
100
AcDbHatch
10
0.000000
20
0.000000
30
0.000000
210
0.000000
220
0.000000
230
1.000000
2
USER_DEF
70
0
71
0
91
1
92
1
93
1
72
2
10
81.366808
20
2.841062
40
1.112533
50
0.000000
51
360.000000
73
0
97
0
75
0
76
0
52
0.000000
41
1.000000
77
0
78
1
53
45.000000
43
0.000000
44
0.000000
45
-0.353553
46
0.353553
79
0
98
0
0
ELLIPSE
5
128
100
AcDbEntity
67
0
8
0
6
Continuous
62
256
370
50
100
AcDbEllipse
10
84.015053
20
6.149576
30
0.000000
11
2.661867
21
0.000000
31
0.000000
40
0.291110
41
1.174777
42
5.243107
0
LINE
5
129
100
AcDbEntity
67
0
8
0
6
Continuous
62
256
370
50
100
AcDbLine
10
85.362363
20
5.481271
30
0.000000
11
84.440906
21
5.790275
31
0.000000
0
LINE
5
12A
100
AcDbEntity
67
0
8
0
6
Continuous
62
256
370
50
100
AcDbLine
10
85.362363
20
5.481271
30
0.000000
11
84.465753
21
5.020032
31
0.000000
0
LWPOLYLINE
5
12B
100
AcDbEntity
67
0
8
0
6
ByLayer
62
256
370
0
100
AcDbPolyline
90
4
70
1
10
88.000000
20
0.000000
30
0.000000
42
0.000000
10
96.000000
20
0.000000
30
0.000000
42
0.000000
10
96.000000
20
8.000000
30
0.000000
42
0.000000
10
88.000000
20
8.000000
30
0.000000
0
CIRCLE
5
12C
100
AcDbEntity
67
0
8
0
6
Continuous
62
256
370
50
100
AcDbCircle
10
90.777543
20
4.861577
30
0.000000
40
2.461437
0
LWPOLYLINE
5
12D
100
AcDbEntity
67
0
8
0
6
Continuous
62
256
370
50
100
AcDbPolyline
90
4
70
1
10
90.339621
20
5.080538
30
0.000000
42
0.000000
10
95.134867
20
5.080538
30
0.000000
42
0.000000
10
95.134867
20
0.569941
30
0.000000
42
0.000000
10
90.339621
20
0.569941
30
0.000000
0
LWPOLYLINE
5
12E
100
AcDbEntity
67
0
8
0
6
Continuous
62
256
370
50
100
AcDbPolyline
90
5
70
1
10
95.134867
20
0.569941
30
0.000000
42
0.000000
10
90.339621
20
0.569941
30
0.000000
42
0.000000
10
90.339621
20
2.439409
30
0.000000
42
-2.020000
10
93.229222
20
5.080538
30
0.000000
42
0.000000
10
95.134867
20
5.080538
30
0.000000
42
0.000000
0
LWPOLYLINE
5
130
100
AcDbEntity
67
0
8
0
6
Continuous
62
256
370
50
100
AcDbPolyline
90
3
70
1
10
90.339621
20
2.439409
30
0.000000
42
0.500000
10
93.229222
20
5.080538
30
0.000000
42
0.000000
10
90.339621
20
5.080538
30
0.000000
42
0.000000
0
LWPOLYLINE
5
131
100
AcDbEntity
67
0
8
0
6
Continuous
62
256
370
50
100
AcDbPolyline
90
5
70
1
10
90.339621
20
2.439409
30
0.000000
42
0.500000
10
93.229222
20
5.080538
30
0.000000
42
0.000000
10
95.134867
20
5.080538
30
0.000000
42
0.000000
10
95.134867
20
0.569941
30
0.000000
42
0.000000
10
90.339621
20
0.569941
30
0.000000
42
0.000000
0
LWPOLYLINE
5
132
100
AcDbEntity
67
0
8
0
6
ByLayer
62
256
370
0
100
AcDbPolyline
90
4
70
1
10
96.000000
20
0.000000
30
0.000000
42
0.000000
10
104.000000
20
0.000000
30
0.000000
42
0.000000
10
104.000000
20
8.000000
30
0.000000
42
0.000000
10
96.000000
20
8.000000
30
0.000000
0
LWPOLYLINE
5
135
100
AcDbEntity
67
0
8
0
6
Continuous
62
256
370
100
100
AcDbPolyline
90
5
70
1
10
103.134867
20
0.569941
30
0.000000
42
0.000000
10
98.339621
20
0.569941
30
0.000000
42
0.000000
10
98.339621
20
2.439409
30
0.000000
42
-2.020000
10
101.229222
20
5.080538
30
0.000000
42
0.000000
10
103.134867
20
5.080538
30
0.000000
42
0.000000
0
LWPOLYLINE
5
136
100
AcDbEntity
67
0
8
0
6
Dashed
62
256
370
50
100
AcDbPolyline
90
3
70
1
10
98.339621
20
2.439409
30
0.000000
42
0.500000
10
101.229222
20
5.080538
30
0.000000
42
0.000000
10
98.339621
20
5.080538
30
0.000000
42
0.000000
0
LWPOLYLINE
5
138
100
AcDbEntity
67
0
8
0
6
ByLayer
62
256
370
0
100
AcDbPolyline
90
4
70
1
10
104.000000
20
0.000000
30
0.000000
42
0.000000
10
112.000000
20
0.000000
30
0.000000
42
0.000000
10
112.000000
20
8.000000
30
0.000000
42
0.000000
10
104.000000
20
8.000000
30
0.000000
0
CIRCLE
5
139
100
AcDbEntity
67
0
8
0
6
Dashed
62
256
370
50
100
AcDbCircle
10
106.777543
20
4.861577
30
0.000000
40
2.461437
0
LWPOLYLINE
5
13D
100
AcDbEntity
67
0
8
0
6
Continuous
62
256
370
100
100
AcDbPolyline
90
5
70
1
10
106.339621
20
2.439409
30
0.000000
42
0.500000
10
109.229222
20
5.080538
30
0.000000
42
0.000000
10
111.134867
20
5.080538
30
0.000000
42
0.000000
10
111.134867
20
0.569941
30
0.000000
42
0.000000
10
106.339621
20
0.569941
30
0.000000
42
0.000000
0
LWPOLYLINE
5
13E
100
AcDbEntity
67
0
8
0
6
ByLayer
62
256
370
0
100
AcDbPolyline
90
4
70
1
10
112.000000
20
0.000000
30
0.000000
42
0.000000
10
120.000000
20
0.000000
30
0.000000
42
0.000000
10
120.000000
20
8.000000
30
0.000000
42
0.000000
10
112.000000
20
8.000000
30
0.000000
0
LWPOLYLINE
5
141
100
AcDbEntity
67
0
8
0
6
Dashed
62
256
370
50
100
AcDbPolyline
90
5
70
1
10
119.134867
20
0.569941
30
0.000000
42
0.000000
10
114.339621
20
0.569941
30
0.000000
42
0.000000
10
114.339621
20
2.439409
30
0.000000
42
-2.020000
10
117.229222
20
5.080538
30
0.000000
42
0.000000
10
119.134867
20
5.080538
30
0.000000
42
0.000000
0
LWPOLYLINE
5
142
100
AcDbEntity
67
0
8
0
6
Continuous
62
256
370
100
100
AcDbPolyline
90
3
70
1
10
114.339621
20
2.439409
30
0.000000
42
0.500000
10
117.229222
20
5.080538
30
0.000000
42
0.000000
10
114.339621
20
5.080538
30
0.000000
42
0.000000
0
HATCH
5
145
100
AcDbEntity
67
0
8
0
6
Dashed
62
256
370
50
100
AcDbHatch
10
0.000000
20
0.000000
30
0.000000
210
0.000000
220
0.000000
230
1.000000
2
USER_DEF
70
0
71
0
91
1
92
2
72
1
73
1
93
5
10
106.339621
20
2.439409
42
0.500000
10
109.229222
20
5.080538
42
0.000000
10
111.134867
20
5.080538
42
0.000000
10
111.134867
20
0.569941
42
0.000000
10
106.339621
20
0.569941
42
0.000000
97
0
75
0
76
0
52
0.000000
41
1.000000
77
0
78
1
53
45.000000
43
0.000000
44
0.000000
45
-0.353553
46
0.353553
79
0
98
0
0
HATCH
5
146
100
AcDbEntity
67
0
8
0
6
Dashed
62
256
370
50
100
AcDbHatch
10
0.000000
20
0.000000
30
0.000000
210
0.000000
220
0.000000
230
1.000000
2
USER_DEF
70
0
71
0
91
1
92
2
72
1
73
1
93
5
10
103.134867
20
0.569941
42
0.000000
10
98.339621
20
0.569941
42
0.000000
10
98.339621
20
2.439409
42
-2.020000
10
101.229222
20
5.080538
42
0.000000
10
103.134867
20
5.080538
42
0.000000
97
0
75
0
76
0
52
0.000000
41
1.000000
77
0
78
1
53
45.000000
43
0.000000
44
0.000000
45
-0.353553
46
0.353553
79
0
98
0
0
HATCH
5
147
100
AcDbEntity
67
0
8
0
6
Dashed
62
256
370
50
100
AcDbHatch
10
0.000000
20
0.000000
30
0.000000
210
0.000000
220
0.000000
230
1.000000
2
USER_DEF
70
0
71
0
91
1
92
2
72
1
73
1
93
3
10
114.339621
20
2.439409
42
0.500000
10
117.229222
20
5.080538
42
0.000000
10
114.339621
20
5.080538
42
0.000000
97
0
75
0
76
0
52
0.000000
41
1.000000
77
0
78
1
53
45.000000
43
0.000000
44
0.000000
45
-0.353553
46
0.353553
79
0
98
0
0
LWPOLYLINE
5
14A
100
AcDbEntity
67
0
8
0
6
ByLayer
62
256
370
0
100
AcDbPolyline
90
4
70
1
10
120.000000
20
0.000000
30
0.000000
42
0.000000
10
128.000000
20
0.000000
30
0.000000
42
0.000000
10
128.000000
20
8.000000
30
0.000000
42
0.000000
10
120.000000
20
8.000000
30
0.000000
0
ARC
5
150
100
AcDbEntity
67
0
8
0
6
ByLayer
62
256
370
50
100
AcDbCircle
10
125.165056
20
3.283391
30
0.000000
40
2.938242
100
AcDbArc
50
90.000000
51
-90.000000
0
ELLIPSE
5
152
100
AcDbEntity
67
0
8
0
6
Dashed
62
256
370
50
100
AcDbEllipse
10
125.165056
20
3.283391
30
0.000000
11
-2.938242
21
0.000000
31
0.000000
40
0.372033
41
5.068556
42
6.283185
0
ELLIPSE
5
153
100
AcDbEntity
67
0
8
0
6
ByLayer
62
256
370
50
100
AcDbEllipse
10
125.165056
20
3.283391
30
0.000000
11
-2.938242
21
0.000000
31
0.000000
40
0.372033
41
0.000000
42
1.214629
0
ELLIPSE
5
154
100
AcDbEntity
67
0
8
0
6
ByLayer
62
256
370
100
100
AcDbEllipse
10
125.165056
20
3.283391
30
0.000000
11
0.000000
21
-2.938242
31
0.000000
40
0.372033
41
0.000000
42
6.283185
0
HATCH
5
158
100
AcDbEntity
67
0
8
0
6
Continuous
62
256
370
50
100
AcDbHatch
10
0.000000
20
0.000000
30
0.000000
210
0.000000
220
0.000000
230
1.000000
2
USER_DEF
70
0
71
0
91
1
92
1
93
1
72
3
10
125.165056
20
3.283391
11
0.000000
21
-2.938242
40
0.372033
50
0.000000
51
360.000000
73
0
97
0
75
0
76
0
52
0.000000
41
1.000000
77
0
78
1
53
120.000000
43
0.000000
44
0.000000
45
-0.692820
46
-0.400000
79
0
98
0
0
LWPOLYLINE
5
15C
100
AcDbEntity
67
0
8
0
6
Continuous
62
256
370
50
100
AcDbPolyline
90
3
70
0
10
125.934935
20
7.429297
30
0.000000
42
-0.300000
10
126.986738
20
3.868045
30
0.000000
42
0.000000
10
127.441434
20
4.604990
30
0.000000
0
LINE
5
15D
100
AcDbEntity
67
0
8
0
6
Continuous
62
256
370
50
100
AcDbLine
10
126.986738
20
3.868045
30
0.000000
11
126.907396
21
4.681509
31
0.000000
0
LINE
5
162
100
AcDbEntity
67
0
8
0
6
Continuous
62
256
370
50
100
AcDbLine
10
124.076694
20
6.532603
30
0.000000
11
120.409949
21
5.111268
31
0.000000
0
LINE
5
163
100
AcDbEntity
67
0
8
0
6
Continuous
62
256
370
50
100
AcDbLine
10
120.409949
20
5.111268
30
0.000000
11
120.384261
21
6.010368
31
0.000000
0
LINE
5
164
100
AcDbEntity
67
0
8
0
6
Continuous
62
256
370
50
100
AcDbLine
10
120.384261
20
6.010368
30
0.000000
11
125.115531
21
7.536584
31
0.000000
0
LINE
5
165
100
AcDbEntity
67
0
8
0
6
Continuous
62
256
370
50
100
AcDbLine
10
125.115531
20
7.536584
30
0.000000
11
124.076694
21
6.532603
31
0.000000
0
LINE
5
167
100
AcDbEntity
67
0
8
0
6
Continuous
62
256
370
50
100
AcDbLine
10
122.081728
20
6.557938
30
0.000000
11
122.111429
21
5.770810
31
0.000000
0
LINE
5
168
100
AcDbEntity
67
0
8
0
6
Continuous
62
256
370
50
100
AcDbLine
10
122.393488
20
6.658506
30
0.000000
11
122.425526
21
5.892563
31
0.000000
0
LINE
5
169
100
AcDbEntity
67
0
8
0
6
Continuous
62
256
370
50
100
AcDbLine
10
122.099075
20
6.098216
30
0.000000
11
120.397889
21
5.533383
31
0.000000
0
LWPOLYLINE
5
16B
100
AcDbEntity
67
0
8
0
6
ByLayer
62
256
370
0
100
AcDbPolyline
90
4
70
1
10
128.000000
20
0.000000
30
0.000000
42
0.000000
10
136.000000
20
0.000000
30
0.000000
42
0.000000
10
136.000000
20
8.000000
30
0.000000
42
0.000000
10
128.000000
20
8.000000
30
0.000000
0
ELLIPSE
5
178
100
AcDbEntity
67
0
8
0
6
Continuous
62
256
370
50
100
AcDbEllipse
10
131.942795
20
6.895477
30
0.000000
11
2.838634
21
0.000000
31
0.000000
40
0.291110
41
1.174777
42
5.243107
0
LINE
5
179
100
AcDbEntity
67
0
8
0
6
Continuous
62
256
370
50
100
AcDbLine
10
133.379576
20
6.182792
30
0.000000
11
132.396928
21
6.512316
31
0.000000
0
LINE
5
17A
100
AcDbEntity
67
0
8
0
6
Continuous
62
256
370
50
100
AcDbLine
10
133.379576
20
6.182792
30
0.000000
11
132.423425
21
5.690923
31
0.000000
0
ELLIPSE
5
17B
100
AcDbEntity
67
0
8
0
6
Continuous
62
256
370
50
100
AcDbEllipse
10
134.530318
20
4.197719
30
0.000000
11
0.000000
21
2.838634
31
0.000000
40
0.291110
41
1.174777
42
5.243107
0
LINE
5
17C
100
AcDbEntity
67
0
8
0
6
Continuous
62
256
370
50
100
AcDbLine
10
135.243004
20
5.634500
30
0.000000
11
134.913480
21
4.651851
31
0.000000
0
LINE
5
17D
100
AcDbEntity
67
0
8
0
6
Continuous
62
256
370
50
100
AcDbLine
10
135.243004
20
5.634500
30
0.000000
11
135.734872
21
4.678348
31
0.000000
0
LINE
5
17E
100
AcDbEntity
67
0
8
0
6
Continuous
62
256
370
50
100
AcDbLine
10
130.611698
20
5.826427
30
0.000000
11
133.189200
21
5.084789
31
0.000000
0
LINE
5
17F
100
AcDbEntity
67
0
8
0
6
Continuous
62
256
370
50
100
AcDbLine
10
130.611698
20
5.826427
30
0.000000
11
128.870865
21
5.298921
31
0.000000
0
LINE
5
180
100
AcDbEntity
67
0
8
0
6
Continuous
62
256
370
50
100
AcDbLine
10
131.448367
20
4.557284
30
0.000000
11
128.870865
21
5.298921
31
0.000000
0
LINE
5
181
100
AcDbEntity
67
0
8
0
6
Continuous
62
256
370
50
100
AcDbLine
10
131.448367
20
4.557284
30
0.000000
11
133.189200
21
5.084789
31
0.000000
0
LINE
5
182
100
AcDbEntity
67
0
8
0
6
Continuous
62
256
370
50
100
AcDbLine
10
133.189200
20
5.084789
30
0.000000
11
130.842183
21
0.994137
31
0.000000
0
LINE
5
184
100
AcDbEntity
67
0
8
0
6
Continuous
62
256
370
50
100
AcDbLine
10
128.870865
20
5.298921
30
0.000000
11
130.842183
21
0.994137
31
0.000000
0
LINE
5
185
100
AcDbEntity
67
0
8
0
6
Continuous
62
256
370
50
100
AcDbLine
10
130.842183
20
0.994137
30
0.000000
11
131.448367
21
4.557284
31
0.000000
0
LINE
5
186
100
AcDbEntity
67
0
8
0
6
Dashed
62
256
370
50
100
AcDbLine
10
134.526898
20
3.695884
30
0.000000
11
128.857522
21
3.680177
31
0.000000
0
LINE
5
187
100
AcDbEntity
67
0
8
0
6
Dashed
62
256
370
50
100
AcDbLine
10
130.879525
20
0.212807
30
0.000000
11
130.879525
21
6.751790
31
0.000000
0
ENDSEC
0
SECTION
2
OBJECTS
0
DICTIONARY
5
22
100
AcDbDictionary
281
1
3
ACAD_COLOR
350
23
3
ACAD_GROUP
350
26
3
ACAD_LAYOUT
350
27
3
ACAD_MATERIAL
350
28
3
ACAD_MLINESTYLE
350
29
3
ACAD_PLOTSETTINGS
350
2A
3
ACAD_PLOTSTYLENAME
350
2B
3
ACAD_TABLESTYLE
350
2C
3
AcadDim
350
2D
0
DICTIONARY
5
23
100
AcDbDictionary
0
DICTIONARY
5
26
100
AcDbDictionary
0
DICTIONARY
5
27
100
AcDbDictionary
0
DICTIONARY
5
28
100
AcDbDictionary
0
DICTIONARY
5
29
100
AcDbDictionary
0
DICTIONARY
5
2A
100
AcDbDictionary
0
DICTIONARY
5
2B
100
AcDbDictionary
0
DICTIONARY
5
2C
100
AcDbDictionary
0
DICTIONARY
5
2D
100
AcDbDictionary
0
ENDSEC
0
EOF
