999
CadZinho - Minimalist CAD by Zecruel
0
SECTION
2
HEADER
9
$ACADVER
1
AC1021
9
$HANDSEED
5
25E
9
$INSUNITS
70
4
9
$LWDISPLAY
290
1
9
$LTSCALE
40
5
0
ENDSEC
0
SECTION
2
CLASSES
0
ENDSEC
0
SECTION
2
TABLES
0
TABLE
2
VPORT
5
1
100
AcDbSymbolTable
70
1000
0
VPORT
5
25
100
AcDbSymbolTableRecord
100
AcDbViewportTableRecord
2
*ACTIVE
70
0
10
0
20
0
11
1
21
1
12
20
22
320
13
0
23
0
14
100
24
100
15
100
25
100
16
0
26
0
36
1
17
0
27
0
37
0
40
25
41
1.8
42
50
43
0
44
0
50
0
51
0
0
ENDTAB
0
TABLE
2
LTYPE
5
4
100
AcDbSymbolTable
70
1000
0
LTYPE
5
5
100
AcDbSymbolTableRecord
100
AcDbLinetypeTableRecord
2
ByBlock
70
0
3

72
65
73
0
40
0
0
LTYPE
5
6
100
AcDbSymbolTableRecord
100
AcDbLinetypeTableRecord
2
ByLayer
70
0
3

72
65
73
0
40
0
0
LTYPE
5
7
100
AcDbSymbolTableRecord
100
AcDbLinetypeTableRecord
2
Continuous
70
0
3
___________________________________
72
65
73
0
40
0
0
LTYPE
5
8
100
AcDbSymbolTableRecord
100
AcDbLinetypeTableRecord
2
Border
70
0
3
____ . ____ ____ . ____ ____ . ____
72
65
73
6
40
1.75
49
0.5
74
0
49
-0.25
74
0
49
0.5
74
0
49
-0.25
74
0
49
0
74
0
49
-0.25
74
0
0
LTYPE
5
9
100
AcDbSymbolTableRecord
100
AcDbLinetypeTableRecord
2
Center
70
0
3
____ _ ____ _ ____ _ ____ _ ____ _
72
65
73
4
40
2
49
1.25
74
0
49
-0.25
74
0
49
0.25
74
0
49
-0.25
74
0
0
LTYPE
5
A
100
AcDbSymbolTableRecord
100
AcDbLinetypeTableRecord
2
Dashdot
70
0
3
____ . ____ . ____ . ____ . ____ .
72
65
73
4
40
1
49
0.5
74
0
49
-0.25
74
0
49
0
74
0
49
-0.25
74
0
0
LTYPE
5
B
100
AcDbSymbolTableRecord
100
AcDbLinetypeTableRecord
2
Dashed
70
0
3
____ ____ ____ ____ ____ ____ ____
72
65
73
2
40
0.75
49
0.5
74
0
49
-0.25
74
0
0
LTYPE
5
C
100
AcDbSymbolTableRecord
100
AcDbLinetypeTableRecord
2
Divide
70
0
3
____ . . ____ . . ____ . . ____ . .
72
65
73
6
40
1.25
49
0.5
74
0
49
-0.25
74
0
49
0
74
0
49
-0.25
74
0
49
0
74
0
49
-0.25
74
0
0
LTYPE
5
D
100
AcDbSymbolTableRecord
100
AcDbLinetypeTableRecord
2
Dot
70
0
3
. . . . . . . . . . . . . . . . . .
72
65
73
2
40
0.25
49
0
74
0
49
-0.25
74
0
0
LTYPE
5
E
100
AcDbSymbolTableRecord
100
AcDbLinetypeTableRecord
2
Hidden
70
0
3
__ __ __ __ __ __ __ __ __ __ __ __
72
65
73
2
40
0.375
49
0.25
74
0
49
-0.125
74
0
0
LTYPE
5
F
100
AcDbSymbolTableRecord
100
AcDbLinetypeTableRecord
2
Phantom
70
0
3
_____ _ _ _____ _ _ _____ _ _ _____
72
65
73
6
40
2.5
49
1.25
74
0
49
-0.25
74
0
49
0.25
74
0
49
-0.25
74
0
49
0.25
74
0
49
-0.25
74
0
0
ENDTAB
0
TABLE
2
LAYER
5
10
100
AcDbSymbolTable
70
1000
0
LAYER
5
11
100
AcDbSymbolTableRecord
100
AcDbLayerTableRecord
2
0
70
0
62
7
6
Continuous
370
0
390
2B
0
LAYER
5
2E
100
AcDbSymbolTableRecord
100
AcDbLayerTableRecord
2
center
70
0
62
1
6
Center
370
0
390
2B
0
LAYER
5
2F
100
AcDbSymbolTableRecord
100
AcDbLayerTableRecord
2
hidden
70
0
62
3
6
Dashed
370
0
390
2B
0
LAYER
5
30
100
AcDbSymbolTableRecord
100
AcDbLayerTableRecord
2
annotation
70
0
62
2
6
Continuous
370
0
390
2B
0
LAYER
5
31
100
AcDbSymbolTableRecord
100
AcDbLayerTableRecord
2
dim
70
0
62
5
6
Continuous
370
0
390
2B
0
LAYER
5
32
100
AcDbSymbolTableRecord
100
AcDbLayerTableRecord
2
title
70
0
62
4
6
Continuous
370
0
390
2B
0
ENDTAB
0
TABLE
2
STYLE
5
12
100
AcDbSymbolTable
70
1000
0
STYLE
5
13
100
AcDbSymbolTableRecord
100
AcDbTextStyleTableRecord
2
Standard
70
0
40
0
41
1
50
0
71
0
42
1
3
TXT.SHX
4

0
STYLE
5
24
100
AcDbSymbolTableRecord
100
AcDbTextStyleTableRecord
2

70
1
40
0
41
1
50
0
71
0
42
1
3
LTYPESHP.SHX
4

0
ENDTAB
0
TABLE
2
VIEW
5
14
100
AcDbSymbolTable
70
0
0
ENDTAB
0
TABLE
2
UCS
5
15
100
AcDbSymbolTable
70
0
0
ENDTAB
0
TABLE
2
APPID
5
16
100
AcDbSymbolTable
70
10
0
APPID
5
17
100
AcDbSymbolTableRecord
100
AcDbRegAppTableRecord
2
ACAD
70
0
0
APPID
5
18
100
AcDbSymbolTableRecord
100
AcDbRegAppTableRecord
2
CADZINHO
70
0
0
ENDTAB
0
TABLE
2
DIMSTYLE
5
19
100
AcDbSymbolTable
70
1
100
AcDbDimStyleTable
71
1
0
DIMSTYLE
105
1A
100
AcDbSymbolTableRecord
100
AcDbDimStyleTableRecord
2
Standard
70
0
3
<>
5
OPEN30
40
3
41
1
42
0.5
44
1
140
1
144
1
147
0.5
77
1
271
1
340
13
0
ENDTAB
0
TABLE
2
BLOCK_RECORD
5
1B
100
AcDbSymbolTable
70
9999
0
BLOCK_RECORD
5
1C
100
AcDbSymbolTableRecord
100
AcDbBlockTableRecord
2
*Model_Space
70
0
0
BLOCK_RECORD
5
1D
100
AcDbSymbolTableRecord
100
AcDbBlockTableRecord
2
*Paper_Space
70
0
0
BLOCK_RECORD
5
1B1
100
AcDbSymbolTableRecord
100
AcDbBlockTableRecord
2
logo1
70
0
0
BLOCK_RECORD
5
18C
100
AcDbSymbolTableRecord
100
AcDbBlockTableRecord
2
Title
70
0
0
BLOCK_RECORD
5
1FC
100
AcDbSymbolTableRecord
100
AcDbBlockTableRecord
2
*D11
70
0
0
BLOCK_RECORD
5
207
100
AcDbSymbolTableRecord
100
AcDbBlockTableRecord
2
*D12
70
0
0
BLOCK_RECORD
5
212
100
AcDbSymbolTableRecord
100
AcDbBlockTableRecord
2
*D13
70
0
0
BLOCK_RECORD
5
21D
100
AcDbSymbolTableRecord
100
AcDbBlockTableRecord
2
*D14
70
0
0
BLOCK_RECORD
5
228
100
AcDbSymbolTableRecord
100
AcDbBlockTableRecord
2
*D15
70
0
0
BLOCK_RECORD
5
233
100
AcDbSymbolTableRecord
100
AcDbBlockTableRecord
2
*D16
70
0
0
BLOCK_RECORD
5
23E
100
AcDbSymbolTableRecord
100
AcDbBlockTableRecord
2
*D17
70
0
0
BLOCK_RECORD
5
245
100
AcDbSymbolTableRecord
100
AcDbBlockTableRecord
2
*D18
70
0
0
BLOCK_RECORD
5
24C
100
AcDbSymbolTableRecord
100
AcDbBlockTableRecord
2
*D19
70
0
0
BLOCK_RECORD
5
253
100
AcDbSymbolTableRecord
100
AcDbBlockTableRecord
2
*D20
70
0
0
ENDTAB
0
ENDSEC
0
SECTION
2
BLOCKS
0
BLOCK
5
1E
100
AcDbEntity
8
0
100
AcDbBlockBegin
2
*Model_Space
70
0
10
0
20
0
30
0
3
*Model_Space
1

0
ENDBLK
5
1F
100
AcDbEntity
8
0
100
AcDbBlockEnd
0
BLOCK
5
20
100
AcDbEntity
8
0
100
AcDbBlockBegin
2
*Paper_Space
70
0
10
0
20
0
30
0
3
*Paper_Space
1

0
ENDBLK
5
21
100
AcDbEntity
8
0
100
AcDbBlockEnd
0
BLOCK
5
1B2
330
1B1
100
AcDbEntity
8
0
100
AcDbBlockBegin
2
logo1
70
0
10
0
20
0
30
0
3
logo1
1

4

0
TEXT
5
1B3
100
AcDbEntity
67
0
8
cz_logo
6
ByLayer
62
256
370
25
100
AcDbText
10
16.0714
20
5
30
0
40
5
1
CadZinho
50
0
7
Standard
72
1
11
16.0714
21
5
31
0
100
AcDbText
73
3
0
LWPOLYLINE
5
1B4
100
AcDbEntity
67
0
8
cz_logo
6
ByLayer
62
254
370
-1
100
AcDbPolyline
90
10
70
1
10
17.0714
20
24.1036
30
0
42
0
10
27.0714
20
24.1036
30
0
42
0
10
27.0714
20
20.1036
30
0
42
0
10
19.8214
20
11.75
30
0
42
0
10
27.0714
20
11.75
30
0
42
0
10
27.0714
20
9
30
0
42
0
10
17.0714
20
9
30
0
42
0
10
17.0714
20
13
30
0
42
0
10
24.3214
20
21.3536
30
0
42
0
10
17.0714
20
21.3536
30
0
0
LWPOLYLINE
5
1B5
100
AcDbEntity
67
0
8
cz_logo
6
ByLayer
62
254
370
-1
100
AcDbPolyline
90
8
70
1
10
15.9714
20
29.0518
30
0
42
0.4
10
9.27143
20
31.0518
30
0
42
0.6
10
9.27143
20
17.0518
30
0
42
0.4
10
15.9714
20
19.0518
30
0
42
0
10
14.3714
20
21.0518
30
0
42
-0.4
10
10.3514
20
19.8518
30
0
42
-0.6
10
10.3514
20
28.2518
30
0
42
-0.4
10
14.3714
20
27.0518
30
0
0
LWPOLYLINE
5
1B6
100
AcDbEntity
67
0
8
cz_logo
6
ByLayer
62
108
370
-1
100
AcDbPolyline
90
8
70
1
10
3.07143
20
11
30
0
42
0.414214
10
7.07143
20
7
30
0
42
0
10
25.0714
20
7
30
0
42
0.414214
10
29.0714
20
11
30
0
42
0
10
29.0714
20
29.6036
30
0
42
0.414214
10
25.0714
20
33.6036
30
0
42
0
10
7.07143
20
33.6036
30
0
42
0.414214
10
3.07143
20
29.6036
30
0
0
HATCH
5
1B7
100
AcDbEntity
67
0
8
cz_logo
6
ByLayer
62
108
370
-1
100
AcDbHatch
10
0
20
0
30
0
210
0
220
0
230
1
2
SOLID
70
1
71
0
91
3
92
2
72
1
73
1
93
8
10
3.07143
20
11
42
0.414214
10
7.07143
20
7
42
0
10
25.0714
20
7
42
0.414214
10
29.0714
20
11
42
0
10
29.0714
20
29.6036
42
0.414214
10
25.0714
20
33.6036
42
0
10
7.07143
20
33.6036
42
0.414214
10
3.07143
20
29.6036
42
0
97
0
92
2
72
1
73
1
93
8
10
15.9714
20
29.0518
42
0.4
10
9.27143
20
31.0518
42
0.6
10
9.27143
20
17.0518
42
0.4
10
15.9714
20
19.0518
42
0
10
14.3714
20
21.0518
42
-0.4
10
10.3514
20
19.8518
42
-0.6
10
10.3514
20
28.2518
42
-0.4
10
14.3714
20
27.0518
42
0
97
0
92
2
72
1
73
1
93
10
10
17.0714
20
24.1036
42
0
10
27.0714
20
24.1036
42
0
10
27.0714
20
20.1036
42
0
10
19.8214
20
11.75
42
0
10
27.0714
20
11.75
42
0
10
27.0714
20
9
42
0
10
17.0714
20
9
42
0
10
17.0714
20
13
42
0
10
24.3214
20
21.3536
42
0
10
17.0714
20
21.3536
42
0
97
0
75
0
76
0
98
0
0
HATCH
5
1B8
100
AcDbEntity
67
0
8
cz_logo
6
ByLayer
62
254
370
-1
100
AcDbHatch
10
0
20
0
30
0
210
0
220
0
230
1
2
SOLID
70
1
71
0
91
1
92
2
72
1
73
1
93
8
10
15.9714
20
29.0518
42
0.4
10
9.27143
20
31.0518
42
0.6
10
9.27143
20
17.0518
42
0.4
10
15.9714
20
19.0518
42
0
10
14.3714
20
21.0518
42
-0.4
10
10.3514
20
19.8518
42
-0.6
10
10.3514
20
28.2518
42
-0.4
10
14.3714
20
27.0518
42
0
97
0
75
0
76
0
98
0
0
HATCH
5
1B9
100
AcDbEntity
67
0
8
cz_logo
6
ByLayer
62
254
370
-1
100
AcDbHatch
10
0
20
0
30
0
210
0
220
0
230
1
2
SOLID
70
1
71
0
91
1
92
2
72
1
73
1
93
10
10
17.0714
20
24.1036
42
0
10
27.0714
20
24.1036
42
0
10
27.0714
20
20.1036
42
0
10
19.8214
20
11.75
42
0
10
27.0714
20
11.75
42
0
10
27.0714
20
9
42
0
10
17.0714
20
9
42
0
10
17.0714
20
13
42
0
10
24.3214
20
21.3536
42
0
10
17.0714
20
21.3536
42
0
97
0
75
0
76
0
98
0
0
ENDBLK
5
1BA
330
1B2
100
AcDbEntity
8
0
100
AcDbBlockEnd
0
BLOCK
5
18D
330
18C
100
AcDbEntity
8
0
100
AcDbBlockBegin
2
Title
70
0
10
0
20
0
30
0
3
Title
1

4

0
LWPOLYLINE
5
18E
100
AcDbEntity
67
0
8
0
6
ByLayer
62
0
370
-1
100
AcDbPolyline
90
4
70
1
10
1.4286
20
0
30
0
42
0
10
842.429
20
0
30
0
42
0
10
842.429
20
594
30
0
42
0
10
1.4286
20
594
30
0
0
LWPOLYLINE
5
18F
100
AcDbEntity
67
0
8
0
6
ByLayer
62
0
370
-1
100
AcDbPolyline
90
8
70
1
10
31.4286
20
25
30
0
42
0.414214
10
41.4286
20
15
30
0
42
0
10
146.429
20
15
30
0
42
0.414214
10
156.429
20
25
30
0
42
0
10
156.429
20
50
30
0
42
0.414214
10
146.429
20
60
30
0
42
0
10
41.4286
20
60
30
0
42
0.414214
10
31.4286
20
50
30
0
0
LWPOLYLINE
5
190
100
AcDbEntity
67
0
8
0
6
ByLayer
62
0
370
-1
100
AcDbPolyline
90
8
70
1
10
767.429
20
25
30
0
42
0.414214
10
777.429
20
15
30
0
42
0
10
817.429
20
15
30
0
42
0.414214
10
827.429
20
25
30
0
42
0
10
827.429
20
50
30
0
42
0.414214
10
817.429
20
60
30
0
42
0
10
777.429
20
60
30
0
42
0.414214
10
767.429
20
50
30
0
0
LWPOLYLINE
5
191
100
AcDbEntity
67
0
8
0
6
ByLayer
62
0
370
-1
100
AcDbPolyline
90
8
70
1
10
662.429
20
25
30
0
42
0.414214
10
672.429
20
15
30
0
42
0
10
752.429
20
15
30
0
42
0.414214
10
762.429
20
25
30
0
42
0
10
762.429
20
50
30
0
42
0.414214
10
752.429
20
60
30
0
42
0
10
672.429
20
60
30
0
42
0.414214
10
662.429
20
50
30
0
0
LWPOLYLINE
5
192
100
AcDbEntity
67
0
8
0
6
ByLayer
62
0
370
-1
100
AcDbPolyline
90
8
70
1
10
31.4286
20
75
30
0
42
0.414214
10
41.4286
20
65
30
0
42
0
10
817.429
20
65
30
0
42
0.414214
10
827.429
20
75
30
0
42
0
10
827.429
20
569
30
0
42
0.414214
10
817.429
20
579
30
0
42
0
10
41.4286
20
579
30
0
42
0.414214
10
31.4286
20
569
30
0
0
LWPOLYLINE
5
193
100
AcDbEntity
67
0
8
0
6
ByLayer
62
0
370
-1
100
AcDbPolyline
90
8
70
1
10
26.4286
20
25
30
0
42
0.414214
10
41.4286
20
10
30
0
42
0
10
817.429
20
10
30
0
42
0.414214
10
832.429
20
25
30
0
42
0
10
832.429
20
569
30
0
42
0.414214
10
817.429
20
584
30
0
42
0
10
41.4286
20
584
30
0
42
0.414214
10
26.4286
20
569
30
0
0
LINE
5
194
100
AcDbEntity
67
0
8
0
6
ByLayer
62
0
370
-1
100
AcDbLine
10
657.429
20
0
30
0
11
657.429
21
10
31
0
0
LINE
5
195
100
AcDbEntity
67
0
8
0
6
ByLayer
62
0
370
-1
100
AcDbLine
10
472.429
20
0
30
0
11
472.429
21
10
31
0
0
LINE
5
196
100
AcDbEntity
67
0
8
0
6
ByLayer
62
0
370
-1
100
AcDbLine
10
342.429
20
0
30
0
11
342.429
21
10
31
0
0
LINE
5
197
100
AcDbEntity
67
0
8
0
6
ByLayer
62
0
370
-1
100
AcDbLine
10
202.429
20
0
30
0
11
202.429
21
10
31
0
0
LWPOLYLINE
5
198
100
AcDbEntity
67
0
8
0
6
ByLayer
62
0
370
-1
100
AcDbPolyline
90
8
70
1
10
557.429
20
25
30
0
42
0.414214
10
567.429
20
15
30
0
42
0
10
647.429
20
15
30
0
42
0.414214
10
657.429
20
25
30
0
42
0
10
657.429
20
50
30
0
42
0.414214
10
647.429
20
60
30
0
42
0
10
567.429
20
60
30
0
42
0.414214
10
557.429
20
50
30
0
0
LWPOLYLINE
5
199
100
AcDbEntity
67
0
8
0
6
ByLayer
62
0
370
-1
100
AcDbPolyline
90
8
70
1
10
452.429
20
25
30
0
42
0.414214
10
462.429
20
15
30
0
42
0
10
542.429
20
15
30
0
42
0.414214
10
552.429
20
25
30
0
42
0
10
552.429
20
50
30
0
42
0.414214
10
542.429
20
60
30
0
42
0
10
462.429
20
60
30
0
42
0.414214
10
452.429
20
50
30
0
0
LWPOLYLINE
5
19A
100
AcDbEntity
67
0
8
0
6
ByLayer
62
0
370
-1
100
AcDbPolyline
90
8
70
1
10
161.429
20
25
30
0
42
0.414214
10
171.429
20
15
30
0
42
0
10
437.429
20
15
30
0
42
0.414214
10
447.429
20
25
30
0
42
0
10
447.429
20
50
30
0
42
0.414214
10
437.429
20
60
30
0
42
0
10
171.429
20
60
30
0
42
0.414214
10
161.429
20
50
30
0
0
LINE
5
19B
100
AcDbEntity
67
0
8
0
6
ByLayer
62
0
370
-1
100
AcDbLine
10
827.429
20
30
30
0
11
767.429
21
30
31
0
0
LINE
5
19C
100
AcDbEntity
67
0
8
0
6
ByLayer
62
0
370
-1
100
AcDbLine
10
762.429
20
45
30
0
11
662.429
21
45
31
0
0
LINE
5
19D
100
AcDbEntity
67
0
8
0
6
ByLayer
62
0
370
-1
100
AcDbLine
10
557.507
20
26.25
30
0
11
657.351
21
26.25
31
0
0
LINE
5
19E
100
AcDbEntity
67
0
8
0
6
ByLayer
62
0
370
-1
100
AcDbLine
10
607.429
20
60
30
0
11
607.429
21
15
31
0
0
LINE
5
19F
100
AcDbEntity
67
0
8
0
6
ByLayer
62
0
370
-1
100
AcDbLine
10
552.351
20
26.25
30
0
11
452.429
21
26.25
31
0
0
LINE
5
1A0
100
AcDbEntity
67
0
8
0
6
ByLayer
62
0
370
-1
100
AcDbLine
10
502.429
20
15
30
0
11
502.429
21
60
31
0
0
LINE
5
1A1
100
AcDbEntity
67
0
8
0
6
ByLayer
62
0
370
-1
100
AcDbLine
10
502.429
20
37.5
30
0
11
552.429
21
37.5
31
0
0
LINE
5
1A2
100
AcDbEntity
67
0
8
0
6
ByLayer
62
0
370
-1
100
AcDbLine
10
502.429
20
48.75
30
0
11
552.351
21
48.75
31
0
0
LINE
5
1A3
100
AcDbEntity
67
0
8
0
6
ByLayer
62
0
370
-1
100
AcDbLine
10
31.507
20
26.25
30
0
11
156.351
21
26.25
31
0
0
LINE
5
1A4
100
AcDbEntity
67
0
8
0
6
ByLayer
62
0
370
-1
100
AcDbLine
10
31.4286
20
37.5
30
0
11
156.429
21
37.5
31
0
0
LINE
5
1A5
100
AcDbEntity
67
0
8
0
6
ByLayer
62
0
370
-1
100
AcDbLine
10
31.507
20
48.75
30
0
11
156.429
21
48.75
31
0
0
LINE
5
1A6
100
AcDbEntity
67
0
8
0
6
ByLayer
62
0
370
-1
100
AcDbLine
10
607.429
20
37.5
30
0
11
657.429
21
37.5
31
0
0
LINE
5
1A7
100
AcDbEntity
67
0
8
0
6
ByLayer
62
0
370
-1
100
AcDbLine
10
607.429
20
48.75
30
0
11
657.351
21
48.75
31
0
0
LINE
5
1A8
100
AcDbEntity
67
0
8
0
6
ByLayer
62
0
370
-1
100
AcDbLine
10
41.4286
20
15
30
0
11
41.4286
21
60
31
0
0
LINE
5
1A9
100
AcDbEntity
67
0
8
0
6
ByLayer
62
0
370
-1
100
AcDbLine
10
101.429
20
15
30
0
11
101.429
21
60
31
0
0
LINE
5
1AA
100
AcDbEntity
67
0
8
0
6
ByLayer
62
0
370
-1
100
AcDbLine
10
126.429
20
15
30
0
11
126.429
21
60
31
0
0
LINE
5
1AB
100
AcDbEntity
67
0
8
0
6
ByLayer
62
0
370
-1
100
AcDbLine
10
657.429
20
594
30
0
11
657.429
21
584
31
0
0
LINE
5
1AC
100
AcDbEntity
67
0
8
0
6
ByLayer
62
0
370
-1
100
AcDbLine
10
472.429
20
594
30
0
11
472.429
21
584
31
0
0
LINE
5
1AD
100
AcDbEntity
67
0
8
0
6
ByLayer
62
0
370
-1
100
AcDbLine
10
342.429
20
594
30
0
11
342.429
21
584
31
0
0
LINE
5
1AE
100
AcDbEntity
67
0
8
0
6
ByLayer
62
0
370
-1
100
AcDbLine
10
202.429
20
594
30
0
11
202.429
21
584
31
0
0
LINE
5
1AF
100
AcDbEntity
67
0
8
0
6
ByLayer
62
0
370
-1
100
AcDbLine
10
1.4286
20
297
30
0
11
26.4286
21
297
31
0
0
LINE
5
1B0
100
AcDbEntity
67
0
8
0
6
ByLayer
62
0
370
-1
100
AcDbLine
10
842.429
20
297
30
0
11
832.429
21
297
31
0
0
INSERT
5
1BB
100
AcDbEntity
67
0
8
cz_logo
6
ByLayer
62
0
370
-1
100
AcDbBlockReference
66
0
2
logo1
10
462.225
20
20.1013
30
0
41
1
42
1
43
1
50
0
0
TEXT
5
1BC
100
AcDbEntity
67
0
8
0
6
ByLayer
62
0
370
-1
100
AcDbText
10
787.429
20
37
30
0
40
3
1
Rev.
50
0
7
Standard
72
2
11
787.429
21
37
31
0
100
AcDbText
73
2
0
TEXT
5
1BD
100
AcDbEntity
67
0
8
0
6
ByLayer
62
0
370
-1
100
AcDbText
10
777.429
20
22
30
0
40
3
1
Sheet
50
0
7
Standard
72
1
11
777.429
21
22
31
0
100
AcDbText
73
2
0
TEXT
5
1BE
100
AcDbEntity
67
0
8
0
6
ByLayer
62
0
370
-1
100
AcDbText
10
807.429
20
22
30
0
40
3
1
of
50
0
7
Standard
72
1
11
807.429
21
22
31
0
100
AcDbText
73
2
0
TEXT
5
1BF
100
AcDbEntity
67
0
8
0
6
ByLayer
62
0
370
-1
100
AcDbText
10
611.429
20
31.5
30
0
40
3
1
Aprov:
50
0
7
Standard
72
0
11
611.429
21
31.5
31
0
100
AcDbText
73
2
0
TEXT
5
1C0
100
AcDbEntity
67
0
8
0
6
ByLayer
62
0
370
-1
100
AcDbText
10
611.429
20
42.75
30
0
40
3
1
Check:
50
0
7
Standard
72
0
11
611.429
21
42.75
31
0
100
AcDbText
73
2
0
TEXT
5
1C1
100
AcDbEntity
67
0
8
0
6
ByLayer
62
0
370
-1
100
AcDbText
10
611.429
20
54
30
0
40
3
1
View:
50
0
7
Standard
72
0
11
611.429
21
54
31
0
100
AcDbText
73
2
0
TEXT
5
1C2
100
AcDbEntity
67
0
8
0
6
ByLayer
62
0
370
-1
100
AcDbText
10
506.429
20
31.5
30
0
40
3
1
Quality:
50
0
7
Standard
72
0
11
506.429
21
31.5
31
0
100
AcDbText
73
2
0
TEXT
5
1C3
100
AcDbEntity
67
0
8
0
6
ByLayer
62
0
370
-1
100
AcDbText
10
506.429
20
42.75
30
0
40
3
1
Drawn:
50
0
7
Standard
72
0
11
506.429
21
42.75
31
0
100
AcDbText
73
2
0
TEXT
5
1C4
100
AcDbEntity
67
0
8
0
6
ByLayer
62
0
370
-1
100
AcDbText
10
506.429
20
54
30
0
40
3
1
Design:
50
0
7
Standard
72
0
11
506.429
21
54
31
0
100
AcDbText
73
2
0
ATTDEF
5
1C5
100
AcDbEntity
67
0
8
0
6
ByLayer
62
0
370
-1
100
AcDbText
10
712.429
20
40
30
0
40
3
1

50
0
7
Standard
72
1
11
712.429
21
40
31
0
100
AcDbAttributeDefinition
3
value:
2
discipline
70
0
74
2
0
ATTDEF
5
1C6
100
AcDbEntity
67
0
8
0
6
ByLayer
62
0
370
-1
100
AcDbText
10
712.429
20
31
30
0
40
5
1
-
50
0
7
Standard
72
1
11
712.429
21
31
31
0
100
AcDbAttributeDefinition
3
value:
2
title
70
0
74
2
0
ATTDEF
5
1C7
100
AcDbEntity
67
0
8
0
6
ByLayer
62
0
370
-1
100
AcDbText
10
712.429
20
22
30
0
40
3
1

50
0
7
Standard
72
1
11
712.429
21
22
31
0
100
AcDbAttributeDefinition
3
value:
2
type
70
0
74
2
0
ATTDEF
5
1C8
100
AcDbEntity
67
0
8
0
6
ByLayer
62
0
370
-1
100
AcDbText
10
712.429
20
52
30
0
40
3
1
-
50
0
7
Standard
72
1
11
712.429
21
52
31
0
100
AcDbAttributeDefinition
3
value:
2
project
70
0
74
2
0
ATTDEF
5
1C9
100
AcDbEntity
67
0
8
0
6
ByLayer
62
0
370
-1
100
AcDbText
10
797.429
20
48
30
0
40
5
1
?
50
0
7
Standard
72
1
11
797.429
21
48
31
0
100
AcDbAttributeDefinition
3
value:
2
id
70
0
74
2
0
ATTDEF
5
1CA
100
AcDbEntity
67
0
8
0
6
ByLayer
62
0
370
-1
100
AcDbText
10
789.429
20
37
30
0
40
3
1
0
50
0
7
Standard
72
0
11
789.429
21
37
31
0
100
AcDbAttributeDefinition
3
value:
2
rev
70
0
74
2
0
ATTDEF
5
1CB
100
AcDbEntity
67
0
8
0
6
ByLayer
62
0
370
-1
100
AcDbText
10
797.429
20
22
30
0
40
3
1
1
50
0
7
Standard
72
1
11
797.429
21
22
31
0
100
AcDbAttributeDefinition
3
value:
2
sheet
70
0
74
2
0
ATTDEF
5
1CC
100
AcDbEntity
67
0
8
0
6
ByLayer
62
0
370
-1
100
AcDbText
10
817.429
20
22
30
0
40
3
1
1
50
0
7
Standard
72
1
11
817.429
21
22
31
0
100
AcDbAttributeDefinition
3
value:
2
sheets
70
0
74
2
0
ATTDEF
5
1CD
100
AcDbEntity
67
0
8
0
6
ByLayer
62
0
370
-1
100
AcDbText
10
632.429
20
20.25
30
0
40
3
1
-
50
0
7
Standard
72
1
11
632.429
21
20.25
31
0
100
AcDbAttributeDefinition
3
value:
2
aprov_date
70
0
74
2
0
ATTDEF
5
1CE
100
AcDbEntity
67
0
8
0
6
ByLayer
62
0
370
-1
100
AcDbText
10
630.429
20
31.5
30
0
40
3
1

50
0
7
Standard
72
0
11
630.429
21
31.5
31
0
100
AcDbAttributeDefinition
3
value:
2
aprov
70
0
74
2
0
ATTDEF
5
1CF
100
AcDbEntity
67
0
8
0
6
ByLayer
62
0
370
-1
100
AcDbText
10
630.429
20
42.75
30
0
40
3
1

50
0
7
Standard
72
0
11
630.429
21
42.75
31
0
100
AcDbAttributeDefinition
3
value:
2
check
70
0
74
2
0
ATTDEF
5
1D0
100
AcDbEntity
67
0
8
0
6
ByLayer
62
0
370
-1
100
AcDbText
10
630.429
20
54
30
0
40
3
1

50
0
7
Standard
72
0
11
630.429
21
54
31
0
100
AcDbAttributeDefinition
3
value:
2
view
70
0
74
2
0
ATTDEF
5
1D1
100
AcDbEntity
67
0
8
0
6
ByLayer
62
0
370
-1
100
AcDbText
10
582.429
20
20.25
30
0
40
3
1
-
50
0
7
Standard
72
1
11
582.429
21
20.25
31
0
100
AcDbAttributeDefinition
3
value:
2
client
70
0
74
2
0
ATTDEF
5
1D2
100
AcDbEntity
67
0
8
0
6
ByLayer
62
0
370
-1
100
AcDbText
10
527.429
20
20.25
30
0
40
3
1
-
50
0
7
Standard
72
1
11
527.429
21
20.25
31
0
100
AcDbAttributeDefinition
3
value:
2
design_date
70
0
74
2
0
ATTDEF
5
1D3
100
AcDbEntity
67
0
8
0
6
ByLayer
62
0
370
-1
100
AcDbText
10
525.429
20
31.5
30
0
40
3
1

50
0
7
Standard
72
0
11
525.429
21
31.5
31
0
100
AcDbAttributeDefinition
3
value:
2
quality
70
0
74
2
0
ATTDEF
5
1D4
100
AcDbEntity
67
0
8
0
6
ByLayer
62
0
370
-1
100
AcDbText
10
525.429
20
42.75
30
0
40
3
1

50
0
7
Standard
72
0
11
525.429
21
42.75
31
0
100
AcDbAttributeDefinition
3
value:
2
drawn
70
0
74
2
0
ATTDEF
5
1D5
100
AcDbEntity
67
0
8
0
6
ByLayer
62
0
370
-1
100
AcDbText
10
525.429
20
54
30
0
40
3
1
-
50
0
7
Standard
72
0
11
525.429
21
54
31
0
100
AcDbAttributeDefinition
3
value:
2
design
70
0
74
2
0
ENDBLK
5
1D6
330
18D
100
AcDbEntity
8
0
100
AcDbBlockEnd
0
BLOCK
5
1FD
330
1FC
100
AcDbEntity
8
0
100
AcDbBlockBegin
2
*D11
70
1
10
0
20
0
30
0
3
*D11
1

4

0
LINE
5
1FE
100
AcDbEntity
67
0
8
0
6
BYBLOCK
62
0
370
-2
100
AcDbLine
10
469.543
20
-4.91786
30
0
11
433.543
21
-4.91786
31
0
0
LINE
5
1FF
100
AcDbEntity
67
0
8
0
6
BYBLOCK
62
0
370
-2
100
AcDbLine
10
469.543
20
-4.91786
30
0
11
466.543
21
-4.14146
31
0
0
LINE
5
200
100
AcDbEntity
67
0
8
0
6
BYBLOCK
62
0
370
-2
100
AcDbLine
10
469.543
20
-4.91786
30
0
11
466.543
21
-5.69426
31
0
0
LINE
5
201
100
AcDbEntity
67
0
8
0
6
BYBLOCK
62
0
370
-2
100
AcDbLine
10
433.543
20
-4.91786
30
0
11
436.543
21
-4.14146
31
0
0
LINE
5
202
100
AcDbEntity
67
0
8
0
6
BYBLOCK
62
0
370
-2
100
AcDbLine
10
433.543
20
-4.91786
30
0
11
436.543
21
-5.69426
31
0
0
MTEXT
5
203
100
AcDbEntity
67
0
8
0
6
BYBLOCK
62
0
370
-2
100
AcDbMText
10
451.543
20
-7.91786
30
0
40
3
41
0
71
5
72
1
1
36.0
7
Standard
11
1
21
0
31
0
0
LINE
5
204
100
AcDbEntity
67
0
8
0
6
BYBLOCK
62
0
370
-2
100
AcDbLine
10
469.543
20
-7.91786
30
0
11
469.543
21
0.582141
31
0
0
LINE
5
205
100
AcDbEntity
67
0
8
0
6
BYBLOCK
62
0
370
-2
100
AcDbLine
10
433.543
20
-7.91786
30
0
11
433.543
21
0.582141
31
0
0
ENDBLK
5
206
330
1FD
100
AcDbEntity
8
0
100
AcDbBlockEnd
0
BLOCK
5
208
330
207
100
AcDbEntity
8
0
100
AcDbBlockBegin
2
*D12
70
1
10
0
20
0
30
0
3
*D12
1

4

0
LINE
5
209
100
AcDbEntity
67
0
8
0
6
BYBLOCK
62
0
370
-2
100
AcDbLine
10
501.543
20
-4.91786
30
0
11
469.543
21
-4.91786
31
0
0
LINE
5
20A
100
AcDbEntity
67
0
8
0
6
BYBLOCK
62
0
370
-2
100
AcDbLine
10
501.543
20
-4.91786
30
0
11
498.543
21
-4.14146
31
0
0
LINE
5
20B
100
AcDbEntity
67
0
8
0
6
BYBLOCK
62
0
370
-2
100
AcDbLine
10
501.543
20
-4.91786
30
0
11
498.543
21
-5.69426
31
0
0
LINE
5
20C
100
AcDbEntity
67
0
8
0
6
BYBLOCK
62
0
370
-2
100
AcDbLine
10
469.543
20
-4.91786
30
0
11
472.543
21
-4.14146
31
0
0
LINE
5
20D
100
AcDbEntity
67
0
8
0
6
BYBLOCK
62
0
370
-2
100
AcDbLine
10
469.543
20
-4.91786
30
0
11
472.543
21
-5.69426
31
0
0
MTEXT
5
20E
100
AcDbEntity
67
0
8
0
6
BYBLOCK
62
0
370
-2
100
AcDbMText
10
485.543
20
-7.91786
30
0
40
3
41
0
71
5
72
1
1
32.0
7
Standard
11
1
21
0
31
0
0
LINE
5
20F
100
AcDbEntity
67
0
8
0
6
BYBLOCK
62
0
370
-2
100
AcDbLine
10
501.543
20
-7.91786
30
0
11
501.543
21
11.5821
31
0
0
LINE
5
210
100
AcDbEntity
67
0
8
0
6
BYBLOCK
62
0
370
-2
100
AcDbLine
10
469.543
20
-7.91786
30
0
11
469.543
21
11.5821
31
0
0
ENDBLK
5
211
330
208
100
AcDbEntity
8
0
100
AcDbBlockEnd
0
BLOCK
5
213
330
212
100
AcDbEntity
8
0
100
AcDbBlockBegin
2
*D13
70
1
10
0
20
0
30
0
3
*D13
1

4

0
LINE
5
214
100
AcDbEntity
67
0
8
0
6
BYBLOCK
62
0
370
-2
100
AcDbLine
10
410.543
20
13.0821
30
0
11
410.543
21
2.08214
31
0
0
LINE
5
215
100
AcDbEntity
67
0
8
0
6
BYBLOCK
62
0
370
-2
100
AcDbLine
10
410.543
20
13.0821
30
0
11
409.766
21
10.0821
31
0
0
LINE
5
216
100
AcDbEntity
67
0
8
0
6
BYBLOCK
62
0
370
-2
100
AcDbLine
10
410.543
20
13.0821
30
0
11
411.319
21
10.0821
31
0
0
LINE
5
217
100
AcDbEntity
67
0
8
0
6
BYBLOCK
62
0
370
-2
100
AcDbLine
10
410.543
20
2.08214
30
0
11
409.766
21
5.08214
31
0
0
LINE
5
218
100
AcDbEntity
67
0
8
0
6
BYBLOCK
62
0
370
-2
100
AcDbLine
10
410.543
20
2.08214
30
0
11
411.319
21
5.08214
31
0
0
MTEXT
5
219
100
AcDbEntity
67
0
8
0
6
BYBLOCK
62
0
370
-2
100
AcDbMText
10
407.543
20
7.58214
30
0
40
3
41
0
71
5
72
1
1
11.0
7
Standard
11
6.12303e-017
21
1
31
0
0
LINE
5
21A
100
AcDbEntity
67
0
8
0
6
BYBLOCK
62
0
370
-2
100
AcDbLine
10
407.543
20
13.0821
30
0
11
416.043
21
13.0821
31
0
0
LINE
5
21B
100
AcDbEntity
67
0
8
0
6
BYBLOCK
62
0
370
-2
100
AcDbLine
10
407.543
20
2.08214
30
0
11
416.043
21
2.08214
31
0
0
ENDBLK
5
21C
330
213
100
AcDbEntity
8
0
100
AcDbBlockEnd
0
BLOCK
5
21E
330
21D
100
AcDbEntity
8
0
100
AcDbBlockBegin
2
*D14
70
1
10
0
20
0
30
0
3
*D14
1

4

0
LINE
5
21F
100
AcDbEntity
67
0
8
0
6
BYBLOCK
62
0
370
-2
100
AcDbLine
10
410.543
20
31.0821
30
0
11
410.543
21
13.0821
31
0
0
LINE
5
220
100
AcDbEntity
67
0
8
0
6
BYBLOCK
62
0
370
-2
100
AcDbLine
10
410.543
20
31.0821
30
0
11
409.766
21
28.0821
31
0
0
LINE
5
221
100
AcDbEntity
67
0
8
0
6
BYBLOCK
62
0
370
-2
100
AcDbLine
10
410.543
20
31.0821
30
0
11
411.319
21
28.0821
31
0
0
LINE
5
222
100
AcDbEntity
67
0
8
0
6
BYBLOCK
62
0
370
-2
100
AcDbLine
10
410.543
20
13.0821
30
0
11
409.766
21
16.0821
31
0
0
LINE
5
223
100
AcDbEntity
67
0
8
0
6
BYBLOCK
62
0
370
-2
100
AcDbLine
10
410.543
20
13.0821
30
0
11
411.319
21
16.0821
31
0
0
MTEXT
5
224
100
AcDbEntity
67
0
8
0
6
BYBLOCK
62
0
370
-2
100
AcDbMText
10
407.543
20
22.0821
30
0
40
3
41
0
71
5
72
1
1
18.0
7
Standard
11
6.12303e-017
21
1
31
0
0
LINE
5
225
100
AcDbEntity
67
0
8
0
6
BYBLOCK
62
0
370
-2
100
AcDbLine
10
407.543
20
31.0821
30
0
11
416.043
21
31.0821
31
0
0
LINE
5
226
100
AcDbEntity
67
0
8
0
6
BYBLOCK
62
0
370
-2
100
AcDbLine
10
407.543
20
13.0821
30
0
11
416.043
21
13.0821
31
0
0
ENDBLK
5
227
330
21E
100
AcDbEntity
8
0
100
AcDbBlockEnd
0
BLOCK
5
229
330
228
100
AcDbEntity
8
0
100
AcDbBlockBegin
2
*D15
70
1
10
0
20
0
30
0
3
*D15
1

4

0
LINE
5
22A
100
AcDbEntity
67
0
8
0
6
BYBLOCK
62
0
370
-2
100
AcDbLine
10
410.543
20
42.0821
30
0
11
410.543
21
31.0821
31
0
0
LINE
5
22B
100
AcDbEntity
67
0
8
0
6
BYBLOCK
62
0
370
-2
100
AcDbLine
10
410.543
20
42.0821
30
0
11
409.766
21
39.0821
31
0
0
LINE
5
22C
100
AcDbEntity
67
0
8
0
6
BYBLOCK
62
0
370
-2
100
AcDbLine
10
410.543
20
42.0821
30
0
11
411.319
21
39.0821
31
0
0
LINE
5
22D
100
AcDbEntity
67
0
8
0
6
BYBLOCK
62
0
370
-2
100
AcDbLine
10
410.543
20
31.0821
30
0
11
409.766
21
34.0821
31
0
0
LINE
5
22E
100
AcDbEntity
67
0
8
0
6
BYBLOCK
62
0
370
-2
100
AcDbLine
10
410.543
20
31.0821
30
0
11
411.319
21
34.0821
31
0
0
MTEXT
5
22F
100
AcDbEntity
67
0
8
0
6
BYBLOCK
62
0
370
-2
100
AcDbMText
10
407.543
20
36.5821
30
0
40
3
41
0
71
5
72
1
1
11.0
7
Standard
11
6.12303e-017
21
1
31
0
0
LINE
5
230
100
AcDbEntity
67
0
8
0
6
BYBLOCK
62
0
370
-2
100
AcDbLine
10
407.543
20
42.0821
30
0
11
416.043
21
42.0821
31
0
0
LINE
5
231
100
AcDbEntity
67
0
8
0
6
BYBLOCK
62
0
370
-2
100
AcDbLine
10
407.543
20
31.0821
30
0
11
416.043
21
31.0821
31
0
0
ENDBLK
5
232
330
229
100
AcDbEntity
8
0
100
AcDbBlockEnd
0
BLOCK
5
234
330
233
100
AcDbEntity
8
0
100
AcDbBlockBegin
2
*D16
70
1
10
0
20
0
30
0
3
*D16
1

4

0
LINE
5
235
100
AcDbEntity
67
0
8
0
6
BYBLOCK
62
0
370
-2
100
AcDbLine
10
469.543
20
-92.9341
30
0
11
458.543
21
-92.9341
31
0
0
LINE
5
236
100
AcDbEntity
67
0
8
0
6
BYBLOCK
62
0
370
-2
100
AcDbLine
10
469.543
20
-92.9341
30
0
11
466.543
21
-92.1577
31
0
0
LINE
5
237
100
AcDbEntity
67
0
8
0
6
BYBLOCK
62
0
370
-2
100
AcDbLine
10
469.543
20
-92.9341
30
0
11
466.543
21
-93.7105
31
0
0
LINE
5
238
100
AcDbEntity
67
0
8
0
6
BYBLOCK
62
0
370
-2
100
AcDbLine
10
458.543
20
-92.9341
30
0
11
461.543
21
-92.1577
31
0
0
LINE
5
239
100
AcDbEntity
67
0
8
0
6
BYBLOCK
62
0
370
-2
100
AcDbLine
10
458.543
20
-92.9341
30
0
11
461.543
21
-93.7105
31
0
0
MTEXT
5
23A
100
AcDbEntity
67
0
8
0
6
BYBLOCK
62
0
370
-2
100
AcDbMText
10
464.043
20
-95.9341
30
0
40
3
41
0
71
5
72
1
1
11.0
7
Standard
11
1
21
0
31
0
0
LINE
5
23B
100
AcDbEntity
67
0
8
0
6
BYBLOCK
62
0
370
-2
100
AcDbLine
10
469.543
20
-95.9341
30
0
11
469.543
21
-87.4341
31
0
0
LINE
5
23C
100
AcDbEntity
67
0
8
0
6
BYBLOCK
62
0
370
-2
100
AcDbLine
10
458.543
20
-95.9341
30
0
11
458.543
21
-87.4341
31
0
0
ENDBLK
5
23D
330
234
100
AcDbEntity
8
0
100
AcDbBlockEnd
0
BLOCK
5
23F
330
23E
100
AcDbEntity
8
0
100
AcDbBlockBegin
2
*D17
70
1
10
0
20
0
30
0
3
*D17
1

4

0
LINE
5
240
100
AcDbEntity
67
0
8
0
6
BYBLOCK
62
0
370
-2
100
AcDbLine
10
416.809
20
-88.1263
30
0
11
426.995
21
-74.53
31
0
0
LINE
5
241
100
AcDbEntity
67
0
8
0
6
BYBLOCK
62
0
370
-2
100
AcDbLine
10
426.995
20
-74.53
30
0
11
425.817
21
-77.3964
31
0
0
LINE
5
242
100
AcDbEntity
67
0
8
0
6
BYBLOCK
62
0
370
-2
100
AcDbLine
10
426.995
20
-74.53
30
0
11
424.575
21
-76.4654
31
0
0
MTEXT
5
243
100
AcDbEntity
67
0
8
0
6
BYBLOCK
62
0
370
-2
100
AcDbMText
10
415.909
20
-89.3268
30
0
40
3
41
0
71
6
72
1
1
R8.0
7
Standard
11
1
21
0
31
0
0
ENDBLK
5
244
330
23F
100
AcDbEntity
8
0
100
AcDbBlockEnd
0
BLOCK
5
246
330
245
100
AcDbEntity
8
0
100
AcDbBlockBegin
2
*D18
70
1
10
0
20
0
30
0
3
*D18
1

4

0
LINE
5
247
100
AcDbEntity
67
0
8
0
6
BYBLOCK
62
0
370
-2
100
AcDbLine
10
413.464
20
-79.7917
30
0
11
419.043
21
-76.6986
31
0
0
LINE
5
248
100
AcDbEntity
67
0
8
0
6
BYBLOCK
62
0
370
-2
100
AcDbLine
10
419.043
20
-76.6986
30
0
11
416.796
21
-78.8322
31
0
0
LINE
5
249
100
AcDbEntity
67
0
8
0
6
BYBLOCK
62
0
370
-2
100
AcDbLine
10
419.043
20
-76.6986
30
0
11
416.043
21
-77.4742
31
0
0
MTEXT
5
24A
100
AcDbEntity
67
0
8
0
6
BYBLOCK
62
0
370
-2
100
AcDbMText
10
412.152
20
-80.5191
30
0
40
3
41
0
71
6
72
1
1
R16.0
7
Standard
11
1
21
0
31
0
0
ENDBLK
5
24B
330
246
100
AcDbEntity
8
0
100
AcDbBlockEnd
0
BLOCK
5
24D
330
24C
100
AcDbEntity
8
0
100
AcDbBlockBegin
2
*D19
70
1
10
0
20
0
30
0
3
*D19
1

4

0
LINE
5
24E
100
AcDbEntity
67
0
8
0
6
BYBLOCK
62
0
370
-2
100
AcDbLine
10
569.413
20
-93.2758
30
0
11
576.295
21
-77.2346
31
0
0
LINE
5
24F
100
AcDbEntity
67
0
8
0
6
BYBLOCK
62
0
370
-2
100
AcDbLine
10
576.295
20
-77.2346
30
0
11
575.826
21
-80.2977
31
0
0
LINE
5
250
100
AcDbEntity
67
0
8
0
6
BYBLOCK
62
0
370
-2
100
AcDbLine
10
576.295
20
-77.2346
30
0
11
574.399
21
-79.6855
31
0
0
MTEXT
5
251
100
AcDbEntity
67
0
8
0
6
BYBLOCK
62
0
370
-2
100
AcDbMText
10
568.822
20
-94.6543
30
0
40
3
41
0
71
6
72
1
1
R9.0
7
Standard
11
1
21
0
31
0
0
ENDBLK
5
252
330
24D
100
AcDbEntity
8
0
100
AcDbBlockEnd
0
BLOCK
5
254
330
253
100
AcDbEntity
8
0
100
AcDbBlockBegin
2
*D20
70
1
10
0
20
0
30
0
3
*D20
1

4

0
LINE
5
255
100
AcDbEntity
67
0
8
0
6
BYBLOCK
62
0
370
-2
100
AcDbLine
10
601.558
20
-46.9341
30
0
11
561.558
21
-46.9341
31
0
0
LINE
5
256
100
AcDbEntity
67
0
8
0
6
BYBLOCK
62
0
370
-2
100
AcDbLine
10
601.558
20
-46.9341
30
0
11
598.558
21
-46.1577
31
0
0
LINE
5
257
100
AcDbEntity
67
0
8
0
6
BYBLOCK
62
0
370
-2
100
AcDbLine
10
601.558
20
-46.9341
30
0
11
598.558
21
-47.7105
31
0
0
LINE
5
258
100
AcDbEntity
67
0
8
0
6
BYBLOCK
62
0
370
-2
100
AcDbLine
10
561.558
20
-46.9341
30
0
11
564.558
21
-46.1577
31
0
0
LINE
5
259
100
AcDbEntity
67
0
8
0
6
BYBLOCK
62
0
370
-2
100
AcDbLine
10
561.558
20
-46.9341
30
0
11
564.558
21
-47.7105
31
0
0
MTEXT
5
25A
100
AcDbEntity
67
0
8
0
6
BYBLOCK
62
0
370
-2
100
AcDbMText
10
581.558
20
-43.9341
30
0
40
3
41
0
71
5
72
1
1
40.0
7
Standard
11
1
21
0
31
0
0
LINE
5
25B
100
AcDbEntity
67
0
8
0
6
BYBLOCK
62
0
370
-2
100
AcDbLine
10
601.558
20
-43.9341
30
0
11
601.558
21
-52.4341
31
0
0
LINE
5
25C
100
AcDbEntity
67
0
8
0
6
BYBLOCK
62
0
370
-2
100
AcDbLine
10
561.558
20
-43.9341
30
0
11
561.558
21
-52.4341
31
0
0
ENDBLK
5
25D
330
254
100
AcDbEntity
8
0
100
AcDbBlockEnd
0
ENDSEC
0
SECTION
2
ENTITIES
0
LINE
5
33
100
AcDbEntity
67
0
8
0
6
ByLayer
62
256
370
-1
100
AcDbLine
10
417.543
20
2.08214
30
0
11
469.543
21
2.08214
31
0
0
LINE
5
34
100
AcDbEntity
67
0
8
0
6
ByLayer
62
256
370
-1
100
AcDbLine
10
469.543
20
2.08214
30
0
11
469.543
21
42.0821
31
0
0
LINE
5
35
100
AcDbEntity
67
0
8
0
6
ByLayer
62
256
370
-1
100
AcDbLine
10
469.543
20
42.0821
30
0
11
417.543
21
42.0821
31
0
0
LINE
5
36
100
AcDbEntity
67
0
8
0
6
ByLayer
62
256
370
-1
100
AcDbLine
10
417.543
20
42.0821
30
0
11
417.543
21
31.0821
31
0
0
TEXT
5
3B
100
AcDbEntity
67
0
8
annotation
6
ByLayer
62
256
370
-1
100
AcDbText
10
413.517
20
59.9542
30
0
40
8
1
Top View
50
0
7
Standard
72
0
11
413.517
21
59.9542
31
0
100
AcDbText
73
0
0
LINE
5
3C
100
AcDbEntity
67
0
8
0
6
ByLayer
62
256
370
-1
100
AcDbLine
10
469.543
20
13.0821
30
0
11
501.543
21
13.0821
31
0
0
LINE
5
3D
100
AcDbEntity
67
0
8
0
6
ByLayer
62
256
370
-1
100
AcDbLine
10
501.543
20
13.0821
30
0
11
501.543
21
31.0821
31
0
0
LINE
5
3E
100
AcDbEntity
67
0
8
0
6
ByLayer
62
256
370
-1
100
AcDbLine
10
501.543
20
31.0821
30
0
11
469.543
21
31.0821
31
0
0
LINE
5
3F
100
AcDbEntity
67
0
8
center
6
ByLayer
62
256
370
-1
100
AcDbLine
10
506.557
20
22.0821
30
0
11
453.457
21
22.0821
31
0
0
LINE
5
40
100
AcDbEntity
67
0
8
0
6
ByLayer
62
256
370
-1
100
AcDbLine
10
417.543
20
31.0821
30
0
11
458.543
21
31.0821
31
0
0
LINE
5
41
100
AcDbEntity
67
0
8
0
6
ByLayer
62
256
370
-1
100
AcDbLine
10
458.543
20
31.0821
30
0
11
458.543
21
13.0821
31
0
0
LINE
5
42
100
AcDbEntity
67
0
8
0
6
ByLayer
62
256
370
-1
100
AcDbLine
10
458.543
20
13.0821
30
0
11
417.543
21
13.0821
31
0
0
LINE
5
43
100
AcDbEntity
67
0
8
0
6
ByLayer
62
256
370
-1
100
AcDbLine
10
417.543
20
13.0821
30
0
11
417.543
21
2.08214
31
0
0
LINE
5
44
100
AcDbEntity
67
0
8
0
6
ByLayer
62
256
370
-1
100
AcDbLine
10
433.543
20
-85.9341
30
0
11
469.543
21
-85.9341
31
0
0
LINE
5
45
100
AcDbEntity
67
0
8
0
6
ByLayer
62
256
370
-1
100
AcDbLine
10
469.543
20
-85.9341
30
0
11
469.543
21
-53.9341
31
0
0
LINE
5
46
100
AcDbEntity
67
0
8
0
6
ByLayer
62
256
370
-1
100
AcDbLine
10
469.543
20
-53.9341
30
0
11
433.543
21
-53.9341
31
0
0
LINE
5
47
100
AcDbEntity
67
0
8
0
6
ByLayer
62
256
370
-1
100
AcDbLine
10
469.543
20
-78.9341
30
0
11
501.543
21
-78.9341
31
0
0
LINE
5
48
100
AcDbEntity
67
0
8
0
6
ByLayer
62
256
370
-1
100
AcDbLine
10
501.543
20
-78.9341
30
0
11
501.543
21
-60.9341
31
0
0
LINE
5
49
100
AcDbEntity
67
0
8
0
6
ByLayer
62
256
370
-1
100
AcDbLine
10
501.543
20
-60.9341
30
0
11
469.543
21
-60.9341
31
0
0
TEXT
5
4B
100
AcDbEntity
67
0
8
annotation
6
ByLayer
62
256
370
-1
100
AcDbText
10
413.517
20
-39.2149
30
0
40
8
1
Left View
50
0
7
Standard
72
0
11
413.517
21
-39.2149
31
0
100
AcDbText
73
0
0
CIRCLE
5
4F
100
AcDbEntity
67
0
8
0
6
ByLayer
62
256
370
-1
100
AcDbCircle
10
433.543
20
-69.9341
30
0
40
8
0
ARC
5
50
100
AcDbEntity
67
0
8
0
6
ByLayer
62
256
370
-1
100
AcDbCircle
10
433.543
20
-69.9341
30
0
40
16
100
AcDbArc
50
90
51
-90
0
LINE
5
51
100
AcDbEntity
67
0
8
center
6
ByLayer
62
256
370
-1
100
AcDbLine
10
433.543
20
-91.9253
30
0
11
433.543
21
46.8123
31
0
0
LINE
5
53
100
AcDbEntity
67
0
8
hidden
6
ByLayer
62
256
370
-1
100
AcDbLine
10
425.543
20
42.0821
30
0
11
425.543
21
31.0821
31
0
0
LINE
5
55
100
AcDbEntity
67
0
8
hidden
6
ByLayer
62
256
370
-1
100
AcDbLine
10
441.543
20
42.0821
30
0
11
441.543
21
31.0821
31
0
0
LINE
5
56
100
AcDbEntity
67
0
8
hidden
6
ByLayer
62
256
370
-1
100
AcDbLine
10
425.543
20
2.08214
30
0
11
425.543
21
13.0821
31
0
0
LINE
5
57
100
AcDbEntity
67
0
8
hidden
6
ByLayer
62
256
370
-1
100
AcDbLine
10
441.543
20
2.08214
30
0
11
441.543
21
13.0821
31
0
0
LINE
5
59
100
AcDbEntity
67
0
8
hidden
6
ByLayer
62
256
370
-1
100
AcDbLine
10
458.543
20
-53.9341
30
0
11
458.543
21
-85.9341
31
0
0
LINE
5
5A
100
AcDbEntity
67
0
8
center
6
ByLayer
62
256
370
-1
100
AcDbLine
10
506.557
20
-69.9341
30
0
11
407.574
21
-69.9341
31
0
0
LINE
5
5B
100
AcDbEntity
67
0
8
0
6
ByLayer
62
256
370
-1
100
AcDbLine
10
561.558
20
-85.9341
30
0
11
601.558
21
-85.9341
31
0
0
LINE
5
5C
100
AcDbEntity
67
0
8
0
6
ByLayer
62
256
370
-1
100
AcDbLine
10
601.558
20
-85.9341
30
0
11
601.558
21
-53.9341
31
0
0
LINE
5
5D
100
AcDbEntity
67
0
8
0
6
ByLayer
62
256
370
-1
100
AcDbLine
10
601.558
20
-53.9341
30
0
11
561.558
21
-53.9341
31
0
0
LINE
5
5E
100
AcDbEntity
67
0
8
0
6
ByLayer
62
256
370
-1
100
AcDbLine
10
561.558
20
-53.9341
30
0
11
561.558
21
-85.9341
31
0
0
TEXT
5
5F
100
AcDbEntity
67
0
8
annotation
6
ByLayer
62
256
370
-1
100
AcDbText
10
543.532
20
-39.2149
30
0
40
8
1
Front View
50
0
7
Standard
72
0
11
543.532
21
-39.2149
31
0
100
AcDbText
73
0
0
LINE
5
60
100
AcDbEntity
67
0
8
0
6
ByLayer
62
256
370
-1
100
AcDbLine
10
572.558
20
-53.9341
30
0
11
572.558
21
-85.9341
31
0
0
LINE
5
62
100
AcDbEntity
67
0
8
hidden
6
ByLayer
62
256
370
-1
100
AcDbLine
10
561.558
20
-61.9341
30
0
11
572.558
21
-61.9341
31
0
0
LINE
5
64
100
AcDbEntity
67
0
8
hidden
6
ByLayer
62
256
370
-1
100
AcDbLine
10
561.558
20
-77.9341
30
0
11
572.558
21
-77.9341
31
0
0
LINE
5
65
100
AcDbEntity
67
0
8
0
6
ByLayer
62
256
370
-1
100
AcDbLine
10
590.558
20
-53.9341
30
0
11
590.558
21
-85.9341
31
0
0
LINE
5
66
100
AcDbEntity
67
0
8
hidden
6
ByLayer
62
256
370
-1
100
AcDbLine
10
601.558
20
-61.9341
30
0
11
590.558
21
-61.9341
31
0
0
LINE
5
67
100
AcDbEntity
67
0
8
hidden
6
ByLayer
62
256
370
-1
100
AcDbLine
10
601.558
20
-77.9341
30
0
11
590.558
21
-77.9341
31
0
0
LINE
5
68
100
AcDbEntity
67
0
8
center
6
ByLayer
62
256
370
-1
100
AcDbLine
10
581.558
20
-45.9838
30
0
11
581.558
21
-94.4359
31
0
0
LINE
5
69
100
AcDbEntity
67
0
8
center
6
ByLayer
62
256
370
-1
100
AcDbLine
10
610.345
20
-69.9341
30
0
11
552.771
21
-69.9341
31
0
0
CIRCLE
5
6A
100
AcDbEntity
67
0
8
hidden
6
ByLayer
62
256
370
-1
100
AcDbCircle
10
581.558
20
-69.9341
30
0
40
9
0
DIMENSION
5
A0
100
AcDbEntity
67
0
8
dim
6
ByLayer
62
256
370
-1
100
AcDbDimension
2
*D11
10
469.543
20
-4.91786
30
0
11
451.543
21
-7.91786
31
0
70
32
71
5
42
36
1
<>
73
0
74
0
75
0
3
STANDARD
100
AcDbAlignedDimension
13
433.543
23
2.08214
33
0
14
469.543
24
2.08214
34
0
50
0
100
AcDbRotatedDimension
0
DIMENSION
5
AC
100
AcDbEntity
67
0
8
dim
6
ByLayer
62
256
370
-1
100
AcDbDimension
2
*D12
10
501.543
20
-4.91786
30
0
11
485.543
21
-7.91786
31
0
70
32
71
5
42
32
1
<>
73
0
74
0
75
0
3
STANDARD
100
AcDbAlignedDimension
13
469.543
23
13.0821
33
0
14
501.543
24
13.0821
34
0
50
0
100
AcDbRotatedDimension
0
DIMENSION
5
B8
100
AcDbEntity
67
0
8
dim
6
ByLayer
62
256
370
-1
100
AcDbDimension
2
*D13
10
410.543
20
13.0821
30
0
11
407.543
21
7.58214
31
0
70
32
71
5
42
11
1
<>
73
0
74
0
75
0
3
STANDARD
100
AcDbAlignedDimension
13
417.543
23
2.08214
33
0
14
417.543
24
13.0821
34
0
50
90
100
AcDbRotatedDimension
0
DIMENSION
5
C4
100
AcDbEntity
67
0
8
dim
6
ByLayer
62
256
370
-1
100
AcDbDimension
2
*D14
10
410.543
20
31.0821
30
0
11
407.543
21
22.0821
31
0
70
32
71
5
42
18
1
<>
73
0
74
0
75
0
3
STANDARD
100
AcDbAlignedDimension
13
417.543
23
13.0821
33
0
14
417.543
24
31.0821
34
0
50
90
100
AcDbRotatedDimension
0
DIMENSION
5
D0
100
AcDbEntity
67
0
8
dim
6
ByLayer
62
256
370
-1
100
AcDbDimension
2
*D15
10
410.543
20
42.0821
30
0
11
407.543
21
36.5821
31
0
70
32
71
5
42
11
1
<>
73
0
74
0
75
0
3
STANDARD
100
AcDbAlignedDimension
13
417.543
23
31.0821
33
0
14
417.543
24
42.0821
34
0
50
90
100
AcDbRotatedDimension
0
DIMENSION
5
DC
100
AcDbEntity
67
0
8
dim
6
ByLayer
62
256
370
-1
100
AcDbDimension
2
*D16
10
469.543
20
-92.9341
30
0
11
464.043
21
-95.9341
31
0
70
32
71
5
42
11
1
<>
73
0
74
0
75
0
3
STANDARD
100
AcDbAlignedDimension
13
458.543
23
-85.9341
33
0
14
469.543
24
-85.9341
34
0
50
0
100
AcDbRotatedDimension
0
DIMENSION
5
E4
100
AcDbEntity
67
0
8
dim
6
ByLayer
62
256
370
-1
100
AcDbDimension
2
*D17
10
433.543
20
-69.9341
30
0
11
415.909
21
-89.3268
31
0
70
36
71
6
42
8
1
<>
73
0
74
0
75
0
3
STANDARD
100
AcDbRadialDimension
15
426.995
25
-74.53
35
0
40
0
0
DIMENSION
5
EC
100
AcDbEntity
67
0
8
dim
6
ByLayer
62
256
370
-1
100
AcDbDimension
2
*D18
10
433.543
20
-69.9341
30
0
11
412.152
21
-80.5191
31
0
70
36
71
6
42
16
1
<>
73
0
74
0
75
0
3
STANDARD
100
AcDbRadialDimension
15
419.043
25
-76.6986
35
0
40
0
0
DIMENSION
5
F4
100
AcDbEntity
67
0
8
dim
6
ByLayer
62
256
370
-1
100
AcDbDimension
2
*D19
10
581.558
20
-69.9341
30
0
11
568.822
21
-94.6543
31
0
70
36
71
6
42
9
1
<>
73
0
74
0
75
0
3
STANDARD
100
AcDbRadialDimension
15
576.295
25
-77.2346
35
0
40
0
0
DIMENSION
5
100
100
AcDbEntity
67
0
8
dim
6
ByLayer
62
256
370
-1
100
AcDbDimension
2
*D20
10
601.558
20
-46.9341
30
0
11
581.558
21
-43.9341
31
0
70
32
71
5
42
40
1
<>
73
0
74
0
75
0
3
STANDARD
100
AcDbAlignedDimension
13
561.558
23
-53.9341
33
0
14
601.558
24
-53.9341
34
0
50
0
100
AcDbRotatedDimension
0
LINE
5
101
100
AcDbEntity
67
0
8
annotation
6
ByLayer
62
256
370
-1
100
AcDbLine
10
407.574
20
-69.9341
30
0
11
398.143
21
-69.9341
31
0
0
LINE
5
102
100
AcDbEntity
67
0
8
annotation
6
ByLayer
62
256
370
-1
100
AcDbLine
10
398.143
20
-69.9341
30
0
11
398.143
21
-57.2278
31
0
0
LINE
5
103
100
AcDbEntity
67
0
8
annotation
6
ByLayer
62
256
370
-1
100
AcDbLine
10
398.143
20
-57.2278
30
0
11
401.879
21
-63.6998
31
0
0
LINE
5
104
100
AcDbEntity
67
0
8
annotation
6
ByLayer
62
256
370
-1
100
AcDbLine
10
398.143
20
-57.2278
30
0
11
394.406
21
-63.6998
31
0
0
LINE
5
105
100
AcDbEntity
67
0
8
annotation
6
ByLayer
62
256
370
-1
100
AcDbLine
10
507.645
20
-69.9341
30
0
11
517.076
21
-69.9341
31
0
0
LINE
5
106
100
AcDbEntity
67
0
8
annotation
6
ByLayer
62
256
370
-1
100
AcDbLine
10
517.076
20
-69.9341
30
0
11
517.076
21
-57.2278
31
0
0
LINE
5
107
100
AcDbEntity
67
0
8
annotation
6
ByLayer
62
256
370
-1
100
AcDbLine
10
517.076
20
-57.2278
30
0
11
513.339
21
-63.6998
31
0
0
LINE
5
108
100
AcDbEntity
67
0
8
annotation
6
ByLayer
62
256
370
-1
100
AcDbLine
10
517.076
20
-57.2278
30
0
11
520.813
21
-63.6998
31
0
0
TEXT
5
109
100
AcDbEntity
67
0
8
annotation
6
ByLayer
62
256
370
-1
100
AcDbText
10
397.13
20
-52.4969
30
0
40
5
1
A
50
0
7
Standard
72
0
11
397.13
21
-52.4969
31
0
100
AcDbText
73
0
0
TEXT
5
10A
100
AcDbEntity
67
0
8
annotation
6
ByLayer
62
256
370
-1
100
AcDbText
10
515.272
20
-52.4969
30
0
40
5
1
A
50
0
7
Standard
72
0
11
515.272
21
-52.4969
31
0
100
AcDbText
73
0
0
TEXT
5
10F
100
AcDbEntity
67
0
8
annotation
6
ByLayer
62
256
370
-1
100
AcDbText
10
278.553
20
-32.0611
30
0
40
8
1
Cut View A-A
50
0
7
Standard
72
0
11
278.553
21
-32.0611
31
0
100
AcDbText
73
0
0
LINE
5
113
100
AcDbEntity
67
0
8
center
6
ByLayer
62
256
370
-1
100
AcDbLine
10
371.593
20
-69.9341
30
0
11
318.493
21
-69.9341
31
0
0
LWPOLYLINE
5
158
100
AcDbEntity
67
0
8
0
6
ByLayer
62
256
370
-1
100
AcDbPolyline
90
12
70
1
10
306.579
20
-49.9341
30
0
42
0
10
306.579
20
-60.9341
30
0
42
0
10
323.579
20
-60.9341
30
0
42
0
10
323.579
20
-78.9341
30
0
42
0
10
306.579
20
-78.9341
30
0
42
0
10
306.579
20
-89.9341
30
0
42
0
10
334.579
20
-89.9341
30
0
42
0
10
334.579
20
-78.9341
30
0
42
0
10
366.579
20
-78.9341
30
0
42
0
10
366.579
20
-60.9341
30
0
42
0
10
334.579
20
-60.9341
30
0
42
0
10
334.579
20
-49.9341
30
0
42
0
0
LWPOLYLINE
5
159
100
AcDbEntity
67
0
8
0
6
ByLayer
62
256
370
-1
100
AcDbPolyline
90
4
70
1
10
282.579
20
-49.9341
30
0
42
0
10
282.579
20
-60.9341
30
0
42
0
10
290.579
20
-60.9341
30
0
42
0
10
290.579
20
-49.9341
30
0
42
0
0
LWPOLYLINE
5
15A
100
AcDbEntity
67
0
8
0
6
ByLayer
62
256
370
-1
100
AcDbPolyline
90
4
70
1
10
282.579
20
-78.9341
30
0
42
0
10
282.579
20
-89.9341
30
0
42
0
10
290.579
20
-89.9341
30
0
42
0
10
290.579
20
-78.9341
30
0
42
0
0
HATCH
5
15C
100
AcDbEntity
67
0
8
0
6
ByLayer
62
256
370
-1
100
AcDbHatch
10
0
20
0
30
0
210
0
220
0
230
1
2
USER_DEF
70
0
71
0
91
3
92
2
72
1
73
1
93
12
10
306.579
20
-49.9341
42
0
10
306.579
20
-60.9341
42
0
10
323.579
20
-60.9341
42
0
10
323.579
20
-78.9341
42
0
10
306.579
20
-78.9341
42
0
10
306.579
20
-89.9341
42
0
10
334.579
20
-89.9341
42
0
10
334.579
20
-78.9341
42
0
10
366.579
20
-78.9341
42
0
10
366.579
20
-60.9341
42
0
10
334.579
20
-60.9341
42
0
10
334.579
20
-49.9341
42
0
97
0
92
2
72
1
73
1
93
4
10
282.579
20
-49.9341
42
0
10
282.579
20
-60.9341
42
0
10
290.579
20
-60.9341
42
0
10
290.579
20
-49.9341
42
0
97
0
92
2
72
1
73
1
93
4
10
282.579
20
-78.9341
42
0
10
282.579
20
-89.9341
42
0
10
290.579
20
-89.9341
42
0
10
290.579
20
-78.9341
42
0
97
0
75
0
76
0
52
0
41
1
77
0
78
1
53
45
43
0
44
0
45
-1.41421
46
1.41421
79
0
98
0
0
LINE
5
15D
100
AcDbEntity
67
0
8
0
6
ByLayer
62
256
370
-1
100
AcDbLine
10
290.579
20
-49.9341
30
0
11
306.579
21
-49.9341
31
0
0
LINE
5
15E
100
AcDbEntity
67
0
8
0
6
ByLayer
62
256
370
-1
100
AcDbLine
10
290.579
20
-60.9341
30
0
11
306.579
21
-60.9341
31
0
0
LINE
5
15F
100
AcDbEntity
67
0
8
0
6
ByLayer
62
256
370
-1
100
AcDbLine
10
290.579
20
-78.9341
30
0
11
306.579
21
-78.9341
31
0
0
LINE
5
160
100
AcDbEntity
67
0
8
0
6
ByLayer
62
256
370
-1
100
AcDbLine
10
290.579
20
-89.9341
30
0
11
306.579
21
-89.9341
31
0
0
LINE
5
161
100
AcDbEntity
67
0
8
center
6
ByLayer
62
256
370
-1
100
AcDbLine
10
298.579
20
-44.7561
30
0
11
298.579
21
-96.0921
31
0
0
TEXT
5
162
100
AcDbEntity
67
0
8
annotation
6
ByLayer
62
256
370
-1
100
AcDbText
10
536.447
20
78.3722
30
0
40
8
1
Isometric View
50
0
7
Standard
72
0
11
536.447
21
78.3722
31
0
100
AcDbText
73
0
0
LINE
5
163
100
AcDbEntity
67
0
8
0
6
ByLayer
62
256
370
-1
100
AcDbLine
10
592.884
20
-18.8992
30
0
11
624.061
21
-0.899119
31
0
0
LINE
5
164
100
AcDbEntity
67
0
8
0
6
ByLayer
62
256
370
-1
100
AcDbLine
10
624.061
20
-0.899119
30
0
11
624.061
21
31.1008
31
0
0
LINE
5
165
100
AcDbEntity
67
0
8
0
6
ByLayer
62
256
370
-1
100
AcDbLine
10
624.061
20
31.1008
30
0
11
592.884
21
13.1008
31
0
0
LINE
5
16A
100
AcDbEntity
67
0
8
0
6
ByLayer
62
256
370
-1
100
AcDbLine
10
583.358
20
18.6008
30
0
11
605.009
21
31.1008
31
0
0
LINE
5
16B
100
AcDbEntity
67
0
8
0
6
ByLayer
62
256
370
-1
100
AcDbLine
10
605.009
20
31.1008
30
0
11
589.42
21
40.1008
31
0
0
LINE
5
16C
100
AcDbEntity
67
0
8
0
6
ByLayer
62
256
370
-1
100
AcDbLine
10
589.42
20
40.1008
30
0
11
567.77
21
27.6008
31
0
0
LINE
5
16E
100
AcDbEntity
67
0
8
0
6
ByLayer
62
256
370
-1
100
AcDbLine
10
558.243
20
33.1008
30
0
11
589.42
21
51.1008
31
0
0
LINE
5
16F
100
AcDbEntity
67
0
8
0
6
ByLayer
62
256
370
-1
100
AcDbLine
10
589.42
20
51.1008
30
0
11
624.061
21
31.1008
31
0
0
LINE
5
17B
100
AcDbEntity
67
0
8
0
6
ByLayer
62
256
370
-1
100
AcDbLine
10
628.942
20
50.6468
30
0
11
609.575
21
39.4648
31
0
0
LINE
5
17C
100
AcDbEntity
67
0
8
0
6
ByLayer
62
256
370
-1
100
AcDbLine
10
639.965
20
31.5549
30
0
11
624.061
21
22.3729
31
0
0
ELLIPSE
5
17D
100
AcDbEntity
67
0
8
0
6
ByLayer
62
256
370
-1
100
AcDbEllipse
10
634.454
20
41.1008
30
0
11
5.51135
21
-9.54594
31
0
40
0.57735
41
0
42
3.14159
0
ELLIPSE
5
17E
100
AcDbEntity
67
0
8
0
6
ByLayer
62
256
370
-1
100
AcDbEllipse
10
592.884
20
-2.89912
30
0
11
9.79796
21
16.9706
31
0
40
0.57735
41
0.785398
42
3.92699
0
ELLIPSE
5
17F
100
AcDbEntity
67
0
8
0
6
ByLayer
62
256
370
-1
100
AcDbEllipse
10
592.884
20
-2.89912
30
0
11
4.89898
21
8.48528
31
0
40
0.57735
41
0
42
6.28319
0
ELLIPSE
5
182
100
AcDbEntity
67
0
8
0
6
ByLayer
62
256
370
-1
100
AcDbEllipse
10
567.77
20
11.6008
30
0
11
4.89898
21
8.48528
31
0
40
0.57735
41
0
42
6.28319
0
ELLIPSE
5
183
100
AcDbEntity
67
0
8
0
6
ByLayer
62
256
370
-1
100
AcDbEllipse
10
567.77
20
11.6008
30
0
11
9.79796
21
16.9706
31
0
40
0.57735
41
0.785398
42
3.92699
0
LINE
5
186
100
AcDbEntity
67
0
8
0
6
ByLayer
62
256
370
-1
100
AcDbLine
10
548.445
20
0.130322
30
0
11
557.972
21
-5.36968
31
0
0
LINE
5
187
100
AcDbEntity
67
0
8
0
6
ByLayer
62
256
370
-1
100
AcDbLine
10
573.56
20
-14.3697
30
0
11
583.086
21
-19.8697
31
0
0
LINE
5
188
100
AcDbEntity
67
0
8
0
6
ByLayer
62
256
370
-1
100
AcDbLine
10
567.77
20
-4.39912
30
0
11
569.61
21
-3.33637
31
0
0
LINE
5
189
100
AcDbEntity
67
0
8
0
6
ByLayer
62
256
370
-1
100
AcDbLine
10
589.42
20
40.1008
30
0
11
589.42
21
22.1008
31
0
0
ELLIPSE
5
18A
100
AcDbEntity
67
0
8
0
6
ByLayer
62
256
370
-1
100
AcDbEllipse
10
583.358
20
2.60088
30
0
11
9.79796
21
16.9706
31
0
40
0.57735
41
0.785398
42
3.14159
0
ELLIPSE
5
18B
100
AcDbEntity
67
0
8
0
6
ByLayer
62
256
370
-1
100
AcDbEllipse
10
558.243
20
17.1008
30
0
11
9.79796
21
16.9706
31
0
40
0.57735
41
0.785398
42
3.14159
0
INSERT
5
1E9
100
AcDbEntity
67
0
8
title
6
ByLayer
62
256
370
-1
100
AcDbBlockReference
66
1
2
Title
10
243.655
20
-165.931
30
0
41
0.5
42
0.5
43
0.5
50
0
0
ATTRIB
5
1EA
100
AcDbEntity
67
0
8
0
6
ByLayer
62
0
370
-1
100
AcDbText
10
599.869
20
-145.931
30
0
40
1.5
1

50
360
7
Standard
72
1
11
599.869
21
-145.931
31
0
100
AcDbAttribute
2
discipline
70
0
74
2
0
ATTRIB
5
1EB
100
AcDbEntity
67
0
8
0
6
ByLayer
62
0
370
-1
100
AcDbText
10
599.869
20
-150.431
30
0
40
2.5
1
Quick Start
50
360
7
Standard
72
1
11
599.869
21
-150.431
31
0
100
AcDbAttribute
2
title
70
0
74
2
0
ATTRIB
5
1EC
100
AcDbEntity
67
0
8
0
6
ByLayer
62
0
370
-1
100
AcDbText
10
599.869
20
-154.931
30
0
40
1.5
1

50
360
7
Standard
72
1
11
599.869
21
-154.931
31
0
100
AcDbAttribute
2
type
70
0
74
2
0
ATTRIB
5
1ED
100
AcDbEntity
67
0
8
0
6
ByLayer
62
0
370
-1
100
AcDbText
10
599.869
20
-139.931
30
0
40
1.5
1
Cadzinho Tutorial
50
360
7
Standard
72
1
11
599.869
21
-139.931
31
0
100
AcDbAttribute
2
project
70
0
74
2
0
ATTRIB
5
1EE
100
AcDbEntity
67
0
8
0
6
ByLayer
62
0
370
-1
100
AcDbText
10
642.369
20
-141.931
30
0
40
2.5
1
12345
50
360
7
Standard
72
1
11
642.369
21
-141.931
31
0
100
AcDbAttribute
2
id
70
0
74
2
0
ATTRIB
5
1EF
100
AcDbEntity
67
0
8
0
6
ByLayer
62
0
370
-1
100
AcDbText
10
638.369
20
-147.431
30
0
40
1.5
1
0
50
360
7
Standard
72
0
11
638.369
21
-147.431
31
0
100
AcDbAttribute
2
rev
70
0
74
2
0
ATTRIB
5
1F0
100
AcDbEntity
67
0
8
0
6
ByLayer
62
0
370
-1
100
AcDbText
10
642.369
20
-154.931
30
0
40
1.5
1
1
50
360
7
Standard
72
1
11
642.369
21
-154.931
31
0
100
AcDbAttribute
2
sheet
70
0
74
2
0
ATTRIB
5
1F1
100
AcDbEntity
67
0
8
0
6
ByLayer
62
0
370
-1
100
AcDbText
10
652.369
20
-154.931
30
0
40
1.5
1
1
50
360
7
Standard
72
1
11
652.369
21
-154.931
31
0
100
AcDbAttribute
2
sheets
70
0
74
2
0
ATTRIB
5
1F2
100
AcDbEntity
67
0
8
0
6
ByLayer
62
0
370
-1
100
AcDbText
10
559.869
20
-155.806
30
0
40
1.5
1
19/04/2022
50
360
7
Standard
72
1
11
559.869
21
-155.806
31
0
100
AcDbAttribute
2
aprov_date
70
0
74
2
0
ATTRIB
5
1F3
100
AcDbEntity
67
0
8
0
6
ByLayer
62
0
370
-1
100
AcDbText
10
558.869
20
-150.181
30
0
40
1.5
1

50
360
7
Standard
72
0
11
558.869
21
-150.181
31
0
100
AcDbAttribute
2
aprov
70
0
74
2
0
ATTRIB
5
1F4
100
AcDbEntity
67
0
8
0
6
ByLayer
62
0
370
-1
100
AcDbText
10
558.869
20
-144.556
30
0
40
1.5
1

50
360
7
Standard
72
0
11
558.869
21
-144.556
31
0
100
AcDbAttribute
2
check
70
0
74
2
0
ATTRIB
5
1F5
100
AcDbEntity
67
0
8
0
6
ByLayer
62
0
370
-1
100
AcDbText
10
558.869
20
-138.931
30
0
40
1.5
1

50
360
7
Standard
72
0
11
558.869
21
-138.931
31
0
100
AcDbAttribute
2
view
70
0
74
2
0
ATTRIB
5
1F6
100
AcDbEntity
67
0
8
0
6
ByLayer
62
0
370
-1
100
AcDbText
10
534.869
20
-155.806
30
0
40
1.5
1
-
50
360
7
Standard
72
1
11
534.869
21
-155.806
31
0
100
AcDbAttribute
2
client
70
0
74
2
0
ATTRIB
5
1F7
100
AcDbEntity
67
0
8
0
6
ByLayer
62
0
370
-1
100
AcDbText
10
507.369
20
-155.806
30
0
40
1.5
1
-
50
360
7
Standard
72
1
11
507.369
21
-155.806
31
0
100
AcDbAttribute
2
design_date
70
0
74
2
0
ATTRIB
5
1F8
100
AcDbEntity
67
0
8
0
6
ByLayer
62
0
370
-1
100
AcDbText
10
506.369
20
-150.181
30
0
40
1.5
1

50
360
7
Standard
72
0
11
506.369
21
-150.181
31
0
100
AcDbAttribute
2
quality
70
0
74
2
0
ATTRIB
5
1F9
100
AcDbEntity
67
0
8
0
6
ByLayer
62
0
370
-1
100
AcDbText
10
506.369
20
-144.556
30
0
40
1.5
1

50
360
7
Standard
72
0
11
506.369
21
-144.556
31
0
100
AcDbAttribute
2
drawn
70
0
74
2
0
ATTRIB
5
1FA
100
AcDbEntity
67
0
8
0
6
ByLayer
62
0
370
-1
100
AcDbText
10
506.369
20
-138.931
30
0
40
1.5
1
-
50
360
7
Standard
72
0
11
506.369
21
-138.931
31
0
100
AcDbAttribute
2
design
70
0
74
2
0
SEQEND
5
1FB
100
AcDbEntity
8
0
0
ENDSEC
0
SECTION
2
OBJECTS
0
DICTIONARY
5
22
100
AcDbDictionary
281
1
3
ACAD_COLOR
350
23
3
ACAD_GROUP
350
26
3
ACAD_LAYOUT
350
27
3
ACAD_MATERIAL
350
28
3
ACAD_MLINESTYLE
350
29
3
ACAD_PLOTSETTINGS
350
2A
3
ACAD_PLOTSTYLENAME
350
2B
3
ACAD_TABLESTYLE
350
2C
3
AcadDim
350
2D
0
DICTIONARY
5
23
100
AcDbDictionary
0
DICTIONARY
5
26
100
AcDbDictionary
0
DICTIONARY
5
27
100
AcDbDictionary
0
DICTIONARY
5
28
100
AcDbDictionary
0
DICTIONARY
5
29
100
AcDbDictionary
0
DICTIONARY
5
2A
100
AcDbDictionary
0
DICTIONARY
5
2B
100
AcDbDictionary
0
DICTIONARY
5
2C
100
AcDbDictionary
0
DICTIONARY
5
2D
100
AcDbDictionary
0
ENDSEC
0
EOF
