<svg width="800.0000" height="800.0000" version="1.1" xmlns="http://www.w3.org/2000/svg" xmlns:xlink="http://www.w3.org/1999/xlink">
<path stroke="rgb(214, 214, 214)" fill="none" d="M429.6 287.5 L725.6 287.5 L725.6 405.9 L511 653.1 L725.6 653.1 L725.6 734.5 L429.6 734.5 L429.6 616.1 L644.2 368.9 L429.6 368.9 L429.6 287.5 "/>
<path stroke="rgb(214, 214, 214)" fill="none" d="M397 141 L393.3 134.9 L389.4 129 L385.1 123.2 L380.6 117.7 L375.8 112.4 L370.8 107.3 L365.5 102.5 L360 97.96 L354.4 93.66 L348.5 89.63 L342.4 85.89 L336.1 82.45 L329.7 79.3 L323.2 76.46 L316.5 73.94 L309.7 71.74 L302.8 69.86 L295.9 68.31 L288.8 67.09 L281.8 66.21 L274.6 65.67 L267.5 65.47 L260.4 65.6 L253.3 66.08 L246.2 66.89 L239.1 68.04 L232.1 69.53 L225.2 71.34 L218.4 73.48 L211.7 75.94 L205.2 78.71 L198.7 81.8 L185 89.73 L171.8 98.57 L159.3 108.3 L147.4 118.8 L136.3 130.1 L126 142.2 L116.5 154.9 L107.9 168.2 L100.2 182.1 L93.43 196.4 L87.67 211.2 L82.92 226.3 L79.21 241.7 L76.54 257.4 L74.94 273.1 L74.4 289 L74.94 304.9 L76.54 320.6 L79.21 336.3 L82.92 351.7 L87.67 366.8 L93.43 381.6 L100.2 395.9 L107.9 409.8 L116.5 423.1 L126 435.8 L136.3 447.9 L147.4 459.2 L159.3 469.7 L171.8 479.4 L185 488.3 L198.7 496.2 L205.2 499.3 L211.7 502.1 L218.4 504.5 L225.2 506.7 L232.1 508.5 L239.1 510 L246.2 511.1 L253.3 511.9 L260.4 512.4 L267.5 512.5 L274.6 512.3 L281.8 511.8 L288.8 510.9 L295.9 509.7 L302.8 508.1 L309.7 506.3 L316.5 504.1 L323.2 501.5 L329.7 498.7 L336.1 495.6 L342.4 492.1 L348.5 488.4 L354.4 484.3 L360 480 L365.5 475.5 L370.8 470.7 L375.8 465.6 L380.6 460.3 L385.1 454.8 L389.4 449 L393.3 443.1 L397 437 L349.7 377.8 L347.5 381.5 L345.1 385 L342.5 388.5 L339.8 391.8 L336.9 395 L333.9 398 L330.8 400.9 L327.5 403.6 L324.1 406.2 L320.5 408.6 L316.9 410.9 L313.1 412.9 L309.3 414.8 L305.4 416.5 L301.4 418 L297.3 419.4 L293.2 420.5 L289 421.4 L284.8 422.1 L280.5 422.7 L276.2 423 L272 423.1 L267.7 423 L263.4 422.8 L259.2 422.3 L254.9 421.6 L250.7 420.7 L246.6 419.6 L242.5 418.3 L238.5 416.8 L234.5 415.2 L230.7 413.3 L222.4 408.6 L214.5 403.3 L207 397.4 L199.9 391.1 L193.2 384.3 L187 377.1 L181.3 369.5 L176.2 361.5 L171.6 353.2 L167.5 344.6 L164.1 335.7 L161.2 326.6 L159 317.4 L157.4 308 L156.4 298.5 L156.1 289 L156.4 279.5 L157.4 270 L159 260.6 L161.2 251.4 L164.1 242.3 L167.5 233.4 L171.6 224.8 L176.2 216.5 L181.3 208.5 L187 200.9 L193.2 193.7 L199.9 186.9 L207 180.6 L214.5 174.7 L222.4 169.4 L230.7 164.7 L234.5 162.8 L238.5 161.2 L242.5 159.7 L246.6 158.4 L250.7 157.3 L254.9 156.4 L259.2 155.7 L263.4 155.2 L267.7 155 L272 154.9 L276.2 155 L280.5 155.3 L284.8 155.9 L289 156.6 L293.2 157.5 L297.3 158.6 L301.4 160 L305.4 161.5 L309.3 163.2 L313.1 165.1 L316.9 167.1 L320.5 169.4 L324.1 171.8 L327.5 174.4 L330.8 177.1 L333.9 180 L336.9 183 L339.8 186.2 L342.5 189.5 L345.1 193 L347.5 196.5 L349.7 200.2 L397 141 "/>
<path stroke="rgb(0, 114, 29)" fill="none" d="M15.2 675.3 L15.34 681.1 L15.77 686.9 L16.48 692.7 L17.48 698.4 L18.75 704.1 L20.3 709.7 L22.12 715.2 L24.21 720.6 L26.57 726 L29.18 731.1 L32.04 736.2 L35.15 741.1 L38.5 745.9 L42.08 750.4 L45.87 754.8 L49.88 759.1 L54.09 763.1 L58.49 766.9 L63.07 770.4 L67.82 773.8 L72.73 776.9 L77.79 779.8 L82.98 782.4 L88.29 784.7 L93.71 786.8 L99.23 788.6 L104.8 790.2 L110.5 791.5 L116.2 792.5 L122 793.2 L127.8 793.6 L133.6 793.7 L666.4 793.7 L672.2 793.6 L678 793.2 L683.8 792.5 L689.5 791.5 L695.2 790.2 L700.8 788.6 L706.3 786.8 L711.7 784.7 L717 782.4 L722.2 779.8 L727.3 776.9 L732.2 773.8 L736.9 770.4 L741.5 766.9 L745.9 763.1 L750.1 759.1 L754.1 754.8 L757.9 750.4 L761.5 745.9 L764.8 741.1 L768 736.2 L770.8 731.1 L773.4 726 L775.8 720.6 L777.9 715.2 L779.7 709.7 L781.3 704.1 L782.5 698.4 L783.5 692.7 L784.2 686.9 L784.7 681.1 L784.8 675.3 L784.8 124.7 L784.7 118.9 L784.2 113.1 L783.5 107.3 L782.5 101.6 L781.3 95.9 L779.7 90.3 L777.9 84.78 L775.8 79.36 L773.4 74.04 L770.8 68.85 L768 63.8 L764.8 58.89 L761.5 54.14 L757.9 49.55 L754.1 45.15 L750.1 40.95 L745.9 36.94 L741.5 33.14 L736.9 29.57 L732.2 26.22 L727.3 23.11 L722.2 20.25 L717 17.63 L711.7 15.28 L706.3 13.19 L700.8 11.36 L695.2 9.815 L689.5 8.542 L683.8 7.548 L678 6.837 L672.2 6.409 L666.4 6.267 L133.6 6.267 L127.8 6.409 L122 6.837 L116.2 7.548 L110.5 8.542 L104.8 9.815 L99.23 11.36 L93.71 13.19 L88.29 15.28 L82.98 17.63 L77.79 20.25 L72.73 23.11 L67.82 26.22 L63.07 29.57 L58.49 33.14 L54.09 36.94 L49.88 40.95 L45.87 45.15 L42.08 49.55 L38.5 54.14 L35.15 58.89 L32.04 63.8 L29.18 68.85 L26.57 74.04 L24.21 79.36 L22.12 84.78 L20.3 90.3 L18.75 95.9 L17.48 101.6 L16.48 107.3 L15.77 113.1 L15.34 118.9 L15.2 124.7 L15.2 675.3 "/>
<path fill="rgb(0, 114, 29)" stroke="none" d="M15.2 675.3 L15.34 681.1 L15.77 686.9 L16.48 692.7 L17.48 698.4 L18.75 704.1 L20.3 709.7 L22.12 715.2 L24.21 720.6 L26.57 726 L29.18 731.1 L32.04 736.2 L35.15 741.1 L38.5 745.9 L42.08 750.4 L45.87 754.8 L49.88 759.1 L54.09 763.1 L58.49 766.9 L63.07 770.4 L67.82 773.8 L72.73 776.9 L77.79 779.8 L82.98 782.4 L88.29 784.7 L93.71 786.8 L99.23 788.6 L104.8 790.2 L110.5 791.5 L116.2 792.5 L122 793.2 L127.8 793.6 L133.6 793.7 L666.4 793.7 L672.2 793.6 L678 793.2 L683.8 792.5 L689.5 791.5 L695.2 790.2 L700.8 788.6 L706.3 786.8 L711.7 784.7 L717 782.4 L722.2 779.8 L727.3 776.9 L732.2 773.8 L736.9 770.4 L741.5 766.9 L745.9 763.1 L750.1 759.1 L754.1 754.8 L757.9 750.4 L761.5 745.9 L764.8 741.1 L768 736.2 L770.8 731.1 L773.4 726 L775.8 720.6 L777.9 715.2 L779.7 709.7 L781.3 704.1 L782.5 698.4 L783.5 692.7 L784.2 686.9 L784.7 681.1 L784.8 675.3 L784.8 124.7 L784.7 118.9 L784.2 113.1 L783.5 107.3 L782.5 101.6 L781.3 95.9 L779.7 90.3 L777.9 84.78 L775.8 79.36 L773.4 74.04 L770.8 68.85 L768 63.8 L764.8 58.89 L761.5 54.14 L757.9 49.55 L754.1 45.15 L750.1 40.95 L745.9 36.94 L741.5 33.14 L736.9 29.57 L732.2 26.22 L727.3 23.11 L722.2 20.25 L717 17.63 L711.7 15.28 L706.3 13.19 L700.8 11.36 L695.2 9.815 L689.5 8.542 L683.8 7.548 L678 6.837 L672.2 6.409 L666.4 6.267 L133.6 6.267 L127.8 6.409 L122 6.837 L116.2 7.548 L110.5 8.542 L104.8 9.815 L99.23 11.36 L93.71 13.19 L88.29 15.28 L82.98 17.63 L77.79 20.25 L72.73 23.11 L67.82 26.22 L63.07 29.57 L58.49 33.14 L54.09 36.94 L49.88 40.95 L45.87 45.15 L42.08 49.55 L38.5 54.14 L35.15 58.89 L32.04 63.8 L29.18 68.85 L26.57 74.04 L24.21 79.36 L22.12 84.78 L20.3 90.3 L18.75 95.9 L17.48 101.6 L16.48 107.3 L15.77 113.1 L15.34 118.9 L15.2 124.7 L15.2 675.3 M397 141 L393.3 134.9 L389.4 129 L385.1 123.2 L380.6 117.7 L375.8 112.4 L370.8 107.3 L365.5 102.5 L360 97.96 L354.4 93.66 L348.5 89.63 L342.4 85.89 L336.1 82.45 L329.7 79.3 L323.2 76.46 L316.5 73.94 L309.7 71.74 L302.8 69.86 L295.9 68.31 L288.8 67.09 L281.8 66.21 L274.6 65.67 L267.5 65.47 L260.4 65.6 L253.3 66.08 L246.2 66.89 L239.1 68.04 L232.1 69.53 L225.2 71.34 L218.4 73.48 L211.7 75.94 L205.2 78.71 L198.7 81.8 L185 89.73 L171.8 98.57 L159.3 108.3 L147.4 118.8 L136.3 130.1 L126 142.2 L116.5 154.9 L107.9 168.2 L100.2 182.1 L93.43 196.4 L87.67 211.2 L82.92 226.3 L79.21 241.7 L76.54 257.4 L74.94 273.1 L74.4 289 L74.94 304.9 L76.54 320.6 L79.21 336.3 L82.92 351.7 L87.67 366.8 L93.43 381.6 L100.2 395.9 L107.9 409.8 L116.5 423.1 L126 435.8 L136.3 447.9 L147.4 459.2 L159.3 469.7 L171.8 479.4 L185 488.3 L198.7 496.2 L205.2 499.3 L211.7 502.1 L218.4 504.5 L225.2 506.7 L232.1 508.5 L239.1 510 L246.2 511.1 L253.3 511.9 L260.4 512.4 L267.5 512.5 L274.6 512.3 L281.8 511.8 L288.8 510.9 L295.9 509.7 L302.8 508.1 L309.7 506.3 L316.5 504.1 L323.2 501.5 L329.7 498.7 L336.1 495.6 L342.4 492.1 L348.5 488.4 L354.4 484.3 L360 480 L365.5 475.5 L370.8 470.7 L375.8 465.6 L380.6 460.3 L385.1 454.8 L389.4 449 L393.3 443.1 L397 437 L349.7 377.8 L347.5 381.5 L345.1 385 L342.5 388.5 L339.8 391.8 L336.9 395 L333.9 398 L330.8 400.9 L327.5 403.6 L324.1 406.2 L320.5 408.6 L316.9 410.9 L313.1 412.9 L309.3 414.8 L305.4 416.5 L301.4 418 L297.3 419.4 L293.2 420.5 L289 421.4 L284.8 422.1 L280.5 422.7 L276.2 423 L272 423.1 L267.7 423 L263.4 422.8 L259.2 422.3 L254.9 421.6 L250.7 420.7 L246.6 419.6 L242.5 418.3 L238.5 416.8 L234.5 415.2 L230.7 413.3 L222.4 408.6 L214.5 403.3 L207 397.4 L199.9 391.1 L193.2 384.3 L187 377.1 L181.3 369.5 L176.2 361.5 L171.6 353.2 L167.5 344.6 L164.1 335.7 L161.2 326.6 L159 317.4 L157.4 308 L156.4 298.5 L156.1 289 L156.4 279.5 L157.4 270 L159 260.6 L161.2 251.4 L164.1 242.3 L167.5 233.4 L171.6 224.8 L176.2 216.5 L181.3 208.5 L187 200.9 L193.2 193.7 L199.9 186.9 L207 180.6 L214.5 174.7 L222.4 169.4 L230.7 164.7 L234.5 162.8 L238.5 161.2 L242.5 159.7 L246.6 158.4 L250.7 157.3 L254.9 156.4 L259.2 155.7 L263.4 155.2 L267.7 155 L272 154.9 L276.2 155 L280.5 155.3 L284.8 155.9 L289 156.6 L293.2 157.5 L297.3 158.6 L301.4 160 L305.4 161.5 L309.3 163.2 L313.1 165.1 L316.9 167.1 L320.5 169.4 L324.1 171.8 L327.5 174.4 L330.8 177.1 L333.9 180 L336.9 183 L339.8 186.2 L342.5 189.5 L345.1 193 L347.5 196.5 L349.7 200.2 L397 141 M429.6 287.5 L725.6 287.5 L725.6 405.9 L511 653.1 L725.6 653.1 L725.6 734.5 L429.6 734.5 L429.6 616.1 L644.2 368.9 L429.6 368.9 L429.6 287.5 "/>
<path fill="rgb(214, 214, 214)" stroke="none" d="M397 141 L393.3 134.9 L389.4 129 L385.1 123.2 L380.6 117.7 L375.8 112.4 L370.8 107.3 L365.5 102.5 L360 97.96 L354.4 93.66 L348.5 89.63 L342.4 85.89 L336.1 82.45 L329.7 79.3 L323.2 76.46 L316.5 73.94 L309.7 71.74 L302.8 69.86 L295.9 68.31 L288.8 67.09 L281.8 66.21 L274.6 65.67 L267.5 65.47 L260.4 65.6 L253.3 66.08 L246.2 66.89 L239.1 68.04 L232.1 69.53 L225.2 71.34 L218.4 73.48 L211.7 75.94 L205.2 78.71 L198.7 81.8 L185 89.73 L171.8 98.57 L159.3 108.3 L147.4 118.8 L136.3 130.1 L126 142.2 L116.5 154.9 L107.9 168.2 L100.2 182.1 L93.43 196.4 L87.67 211.2 L82.92 226.3 L79.21 241.7 L76.54 257.4 L74.94 273.1 L74.4 289 L74.94 304.9 L76.54 320.6 L79.21 336.3 L82.92 351.7 L87.67 366.8 L93.43 381.6 L100.2 395.9 L107.9 409.8 L116.5 423.1 L126 435.8 L136.3 447.9 L147.4 459.2 L159.3 469.7 L171.8 479.4 L185 488.3 L198.7 496.2 L205.2 499.3 L211.7 502.1 L218.4 504.5 L225.2 506.7 L232.1 508.5 L239.1 510 L246.2 511.1 L253.3 511.9 L260.4 512.4 L267.5 512.5 L274.6 512.3 L281.8 511.8 L288.8 510.9 L295.9 509.7 L302.8 508.1 L309.7 506.3 L316.5 504.1 L323.2 501.5 L329.7 498.7 L336.1 495.6 L342.4 492.1 L348.5 488.4 L354.4 484.3 L360 480 L365.5 475.5 L370.8 470.7 L375.8 465.6 L380.6 460.3 L385.1 454.8 L389.4 449 L393.3 443.1 L397 437 L349.7 377.8 L347.5 381.5 L345.1 385 L342.5 388.5 L339.8 391.8 L336.9 395 L333.9 398 L330.8 400.9 L327.5 403.6 L324.1 406.2 L320.5 408.6 L316.9 410.9 L313.1 412.9 L309.3 414.8 L305.4 416.5 L301.4 418 L297.3 419.4 L293.2 420.5 L289 421.4 L284.8 422.1 L280.5 422.7 L276.2 423 L272 423.1 L267.7 423 L263.4 422.8 L259.2 422.3 L254.9 421.6 L250.7 420.7 L246.6 419.6 L242.5 418.3 L238.5 416.8 L234.5 415.2 L230.7 413.3 L222.4 408.6 L214.5 403.3 L207 397.4 L199.9 391.1 L193.2 384.3 L187 377.1 L181.3 369.5 L176.2 361.5 L171.6 353.2 L167.5 344.6 L164.1 335.7 L161.2 326.6 L159 317.4 L157.4 308 L156.4 298.5 L156.1 289 L156.4 279.5 L157.4 270 L159 260.6 L161.2 251.4 L164.1 242.3 L167.5 233.4 L171.6 224.8 L176.2 216.5 L181.3 208.5 L187 200.9 L193.2 193.7 L199.9 186.9 L207 180.6 L214.5 174.7 L222.4 169.4 L230.7 164.7 L234.5 162.8 L238.5 161.2 L242.5 159.7 L246.6 158.4 L250.7 157.3 L254.9 156.4 L259.2 155.7 L263.4 155.2 L267.7 155 L272 154.9 L276.2 155 L280.5 155.3 L284.8 155.9 L289 156.6 L293.2 157.5 L297.3 158.6 L301.4 160 L305.4 161.5 L309.3 163.2 L313.1 165.1 L316.9 167.1 L320.5 169.4 L324.1 171.8 L327.5 174.4 L330.8 177.1 L333.9 180 L336.9 183 L339.8 186.2 L342.5 189.5 L345.1 193 L347.5 196.5 L349.7 200.2 L397 141 "/>
<path fill="rgb(214, 214, 214)" stroke="none" d="M429.6 287.5 L725.6 287.5 L725.6 405.9 L511 653.1 L725.6 653.1 L725.6 734.5 L429.6 734.5 L429.6 616.1 L644.2 368.9 L429.6 368.9 L429.6 287.5 "/>
</svg>