<svg width="4000.0000" height="2828.0000" version="1.1" xmlns="http://www.w3.org/2000/svg" xmlns:xlink="http://www.w3.org/1999/xlink">
<path stroke="rgb(0, 114, 0)" fill="none" d="M480 2508 L3680 2508 L3680 268 L480 268 L480 2508 "/>
<path stroke="rgb(221, 221, 0)" fill="none" d="M752 1388 L2080 540 L3408 1388 L2080 2236 L752 1388 "/>
<path stroke="rgb(128, 128, 128)" fill="none" d="M2214 1156 L2220 1172 L2237 1173 L2223 1183 L2228 1199 L2214 1190 L2200 1199 L2205 1183 L2191 1173 L2208 1172 L2214 1156 "/>
<path stroke="rgb(128, 128, 128)" fill="none" d="M2194 1317 L2198 1328 L2209 1328 L2200 1335 L2204 1346 L2194 1339 L2185 1346 L2188 1335 L2179 1328 L2190 1328 L2194 1317 "/>
<path stroke="rgb(128, 128, 128)" fill="none" d="M1628 1259 L1634 1275 L1651 1276 L1637 1286 L1642 1303 L1628 1293 L1614 1303 L1619 1286 L1605 1276 L1622 1275 L1628 1259 "/>
<path stroke="rgb(128, 128, 128)" fill="none" d="M1864 1366 L1869 1379 L1883 1379 L1872 1388 L1876 1402 L1864 1394 L1853 1402 L1857 1388 L1845 1379 L1860 1379 L1864 1366 "/>
<path stroke="rgb(128, 128, 128)" fill="none" d="M2052 1423 L2057 1437 L2071 1437 L2060 1446 L2064 1459 L2052 1451 L2040 1459 L2044 1446 L2033 1437 L2047 1437 L2052 1423 "/>
<path stroke="rgb(128, 128, 128)" fill="none" d="M2001 1473 L2005 1484 L2016 1484 L2007 1491 L2010 1502 L2001 1496 L1991 1502 L1995 1491 L1986 1484 L1997 1484 L2001 1473 "/>
<path stroke="rgb(128, 128, 128)" fill="none" d="M2038 1518 L2040 1526 L2048 1526 L2042 1531 L2044 1538 L2038 1534 L2031 1538 L2034 1531 L2027 1526 L2035 1526 L2038 1518 "/>
<path stroke="rgb(128, 128, 128)" fill="none" d="M2107 1476 L2112 1489 L2126 1489 L2115 1498 L2119 1512 L2107 1504 L2095 1512 L2099 1498 L2088 1489 L2102 1489 L2107 1476 "/>
<path stroke="rgb(128, 128, 128)" fill="none" d="M2055 1579 L2060 1596 L2077 1596 L2064 1606 L2069 1623 L2055 1613 L2040 1623 L2045 1606 L2032 1596 L2049 1596 L2055 1579 "/>
<path stroke="rgb(128, 128, 128)" fill="none" d="M1720 1445 L1723 1452 L1731 1453 L1724 1457 L1727 1465 L1720 1461 L1714 1465 L1716 1457 L1710 1453 L1718 1452 L1720 1445 "/>
<path stroke="rgb(128, 128, 128)" fill="none" d="M1666 1465 L1671 1481 L1688 1481 L1675 1492 L1680 1508 L1666 1498 L1652 1508 L1656 1492 L1643 1481 L1660 1481 L1666 1465 "/>
<path stroke="rgb(128, 128, 128)" fill="none" d="M1600 1529 L1605 1543 L1619 1543 L1608 1552 L1612 1565 L1600 1557 L1589 1565 L1593 1552 L1581 1543 L1596 1543 L1600 1529 "/>
<path stroke="rgb(128, 128, 128)" fill="none" d="M1773 1517 L1778 1531 L1792 1531 L1781 1540 L1785 1554 L1773 1546 L1761 1554 L1765 1540 L1754 1531 L1768 1531 L1773 1517 "/>
<path stroke="rgb(128, 128, 128)" fill="none" d="M1761 1585 L1765 1596 L1776 1596 L1767 1603 L1770 1614 L1761 1607 L1752 1614 L1755 1603 L1746 1596 L1757 1596 L1761 1585 "/>
<path stroke="rgb(128, 128, 128)" fill="none" d="M1841 1634 L1846 1650 L1864 1651 L1850 1661 L1855 1677 L1841 1668 L1827 1677 L1832 1661 L1818 1651 L1835 1650 L1841 1634 "/>
<path stroke="rgb(128, 128, 128)" fill="none" d="M2053 1772 L2055 1777 L2061 1777 L2057 1781 L2058 1786 L2053 1783 L2049 1786 L2050 1781 L2046 1777 L2052 1777 L2053 1772 "/>
<path stroke="rgb(128, 128, 128)" fill="none" d="M2175 1646 L2179 1657 L2190 1657 L2181 1664 L2184 1675 L2175 1669 L2165 1675 L2169 1664 L2160 1657 L2171 1657 L2175 1646 "/>
<path stroke="rgb(128, 128, 128)" fill="none" d="M2252 1652 L2256 1663 L2267 1663 L2258 1670 L2262 1681 L2252 1675 L2243 1681 L2246 1670 L2237 1663 L2248 1663 L2252 1652 "/>
<path stroke="rgb(128, 128, 128)" fill="none" d="M2320 1641 L2324 1651 L2336 1652 L2326 1659 L2330 1670 L2320 1663 L2311 1670 L2314 1659 L2305 1652 L2317 1651 L2320 1641 "/>
<path stroke="rgb(128, 128, 128)" fill="none" d="M2373 1653 L2377 1664 L2388 1664 L2379 1671 L2382 1682 L2373 1676 L2364 1682 L2367 1671 L2358 1664 L2369 1664 L2373 1653 "/>
<path stroke="rgb(128, 128, 128)" fill="none" d="M2323 1758 L2326 1768 L2338 1769 L2329 1776 L2332 1787 L2323 1780 L2313 1787 L2316 1776 L2307 1769 L2319 1768 L2323 1758 "/>
<path stroke="rgb(128, 128, 128)" fill="none" d="M2498 1540 L2502 1551 L2514 1551 L2505 1558 L2508 1569 L2498 1563 L2489 1569 L2492 1558 L2483 1551 L2495 1551 L2498 1540 "/>
<path stroke="rgb(128, 128, 128)" fill="none" d="M2213 1703 L2218 1716 L2232 1717 L2221 1725 L2225 1739 L2213 1731 L2201 1739 L2206 1725 L2194 1717 L2208 1716 L2213 1703 "/>
<path stroke="rgb(128, 128, 128)" fill="none" d="M2319 1698 L2323 1712 L2338 1712 L2326 1721 L2330 1734 L2319 1726 L2307 1734 L2311 1721 L2300 1712 L2314 1712 L2319 1698 "/>
<path stroke="rgb(128, 128, 128)" fill="none" d="M2416 1622 L2421 1636 L2435 1636 L2424 1645 L2428 1658 L2416 1650 L2404 1658 L2408 1645 L2397 1636 L2411 1636 L2416 1622 "/>
<path stroke="rgb(128, 128, 128)" fill="none" d="M2447 1589 L2451 1602 L2466 1603 L2454 1611 L2458 1625 L2447 1617 L2435 1625 L2439 1611 L2428 1603 L2442 1602 L2447 1589 "/>
<path stroke="rgb(128, 128, 128)" fill="none" d="M2427 1522 L2433 1538 L2450 1538 L2436 1549 L2441 1565 L2427 1555 L2413 1565 L2418 1549 L2404 1538 L2421 1538 L2427 1522 "/>
<path stroke="rgb(0, 0, 255)" fill="none" d="M1520 1388 L1520 1402 L1521 1415 L1522 1429 L1523 1443 L1524 1457 L1526 1470 L1528 1484 L1531 1497 L1534 1511 L1537 1524 L1540 1537 L1544 1551 L1548 1564 L1553 1577 L1558 1590 L1563 1602 L1568 1615 L1574 1627 L1580 1640 L1586 1652 L1593 1664 L1600 1676 L1607 1688 L1614 1699 L1622 1710 L1630 1722 L1639 1733 L1647 1743 L1656 1754 L1665 1764 L1674 1774 L1684 1784 L1694 1794 L1704 1803 L1714 1812 L1725 1821 L1735 1829 L1746 1838 L1758 1846 L1769 1854 L1780 1861 L1792 1868 L1804 1875 L1816 1882 L1828 1888 L1841 1894 L1853 1900 L1866 1905 L1878 1910 L1891 1915 L1904 1920 L1917 1924 L1931 1928 L1944 1931 L1957 1934 L1971 1937 L1984 1940 L1998 1942 L2011 1944 L2025 1945 L2039 1946 L2053 1947 L2066 1948 L2080 1948 L2094 1948 L2107 1947 L2121 1946 L2135 1945 L2149 1944 L2162 1942 L2176 1940 L2189 1937 L2203 1934 L2216 1931 L2229 1928 L2243 1924 L2256 1920 L2269 1915 L2282 1910 L2294 1905 L2307 1900 L2319 1894 L2332 1888 L2344 1882 L2356 1875 L2368 1868 L2380 1861 L2391 1854 L2402 1846 L2414 1838 L2425 1829 L2435 1821 L2446 1812 L2456 1803 L2466 1794 L2476 1784 L2486 1774 L2495 1764 L2504 1754 L2513 1743 L2521 1733 L2530 1722 L2538 1710 L2546 1699 L2553 1688 L2560 1676 L2567 1664 L2574 1652 L2580 1640 L2586 1627 L2592 1615 L2597 1602 L2602 1590 L2607 1577 L2612 1564 L2616 1551 L2620 1537 L2623 1524 L2626 1511 L2629 1497 L2632 1484 L2634 1470 L2636 1457 L2637 1443 L2638 1429 L2639 1415 L2640 1402 L2640 1388 L2640 1374 L2639 1361 L2638 1347 L2637 1333 L2636 1319 L2634 1306 L2632 1292 L2629 1279 L2626 1265 L2623 1252 L2620 1239 L2616 1225 L2612 1212 L2607 1199 L2602 1186 L2597 1174 L2592 1161 L2586 1149 L2580 1136 L2574 1124 L2567 1112 L2560 1100 L2553 1088 L2546 1077 L2538 1066 L2530 1054 L2521 1043 L2513 1033 L2504 1022 L2495 1012 L2486 1002 L2476 992 L2466 982.4 L2456 973.1 L2446 964 L2435 955.1 L2425 946.5 L2414 938.2 L2402 930.2 L2391 922.4 L2380 914.9 L2368 907.7 L2356 900.8 L2344 894.1 L2332 887.8 L2319 881.8 L2307 876 L2294 870.6 L2282 865.5 L2269 860.7 L2256 856.3 L2243 852.1 L2229 848.3 L2216 844.8 L2203 841.6 L2189 838.8 L2176 836.2 L2162 834.1 L2149 832.2 L2135 830.7 L2121 829.5 L2107 828.7 L2094 828.2 L2080 828 L2066 828.2 L2053 828.7 L2039 829.5 L2025 830.7 L2011 832.2 L1998 834.1 L1984 836.2 L1971 838.8 L1957 841.6 L1944 844.8 L1931 848.3 L1917 852.1 L1904 856.3 L1891 860.7 L1878 865.5 L1866 870.6 L1853 876 L1841 881.8 L1828 887.8 L1816 894.1 L1804 900.8 L1792 907.7 L1780 914.9 L1769 922.4 L1758 930.2 L1746 938.2 L1735 946.5 L1725 955.1 L1714 964 L1704 973.1 L1694 982.4 L1684 992 L1674 1002 L1665 1012 L1656 1022 L1647 1033 L1639 1043 L1630 1054 L1622 1066 L1614 1077 L1607 1088 L1600 1100 L1593 1112 L1586 1124 L1580 1136 L1574 1149 L1568 1161 L1563 1174 L1558 1186 L1553 1199 L1548 1212 L1544 1225 L1540 1239 L1537 1252 L1534 1265 L1531 1279 L1528 1292 L1526 1306 L1524 1319 L1523 1333 L1522 1347 L1521 1361 L1520 1374 L1520 1388 "/>
<path stroke="rgb(0, 0, 255)" fill="none" d="M1538 1247 L1535 1261 L1532 1274 L1529 1288 L1527 1301 L1525 1315 L1523 1328 L1522 1342 L1521 1356 L1520 1370 L1520 1383 L1520 1397 L1521 1411 L1521 1425 L1522 1438 L1524 1452 L1525 1466 L1528 1479 L1530 1493 L1533 1506 L1536 1520 L1539 1533 L1543 1546 L1547 1559 L1551 1572 L1556 1585 L1561 1598 L1566 1611 L1572 1623 L1578 1636 L1584 1648 L1591 1660 L1597 1672 L1605 1684 L1612 1695 L1620 1707 L1628 1718 L1636 1729 L1644 1740 L1653 1750 L1662 1761 L1671 1771 L1681 1781 L1691 1790 L1701 1800 L1711 1809 L1721 1818 L1732 1827 L1743 1835 L1754 1843 L1765 1851 L1777 1859 L1788 1866 L1800 1873 L1812 1880 L1824 1886 L1837 1892 L1849 1898 L1862 1903 L1874 1909 L1887 1914 L1900 1918 L1913 1922 L1926 1926 L1940 1930 L1953 1933 L1966 1936 L1980 1939 L1993 1941 L2007 1943 L2021 1945 L2034 1946 L2048 1947 L2062 1948 L2076 1948 L2089 1948 L2103 1947 L2117 1947 L2130 1946 L2144 1944 L2158 1942 L2171 1940 L2185 1938 L2198 1935 L2212 1932 L2225 1929 L2238 1925 L2251 1921 L2264 1917 L2277 1912 L2290 1907 L2303 1902 L2315 1896 L2328 1890 L2340 1884 L2352 1877 L2364 1870 L2376 1863 L2387 1856 L2399 1848 L2410 1840 L2421 1832 L2432 1824 L2442 1815 L2453 1806 L2463 1797 L2473 1787 L2482 1777 L2492 1767 L2501 1757 L2510 1747 L2519 1736 L2527 1725 L2535 1714 L2543 1703 L2551 1691 L2558 1680 L2565 1668 L2572 1656 L2578 1644 L2584 1631 L2590 1619 L2596 1606 L2601 1594 L2606 1581 L2615 1555 L2591 1534 L2567 1514 L2542 1495 L2517 1476 L2491 1458 L2465 1440 L2439 1423 L2412 1407 L2385 1391 L2357 1376 L2329 1362 L2301 1348 L2272 1335 L2243 1323 L2214 1311 L2184 1300 L2154 1290 L2124 1281 L2094 1273 L2064 1265 L2033 1258 L2002 1251 L1971 1246 L1940 1241 L1909 1237 L1878 1234 L1846 1231 L1815 1229 L1783 1228 L1752 1228 L1721 1229 L1689 1230 L1658 1232 L1626 1235 L1595 1239 L1538 1247 "/>
<path stroke="rgb(0, 0, 255)" fill="none" d="M2634 1466 L2636 1453 L2638 1439 L2639 1425 L2640 1412 L2640 1398 L2640 1384 L2640 1370 L2639 1357 L2638 1343 L2637 1329 L2635 1316 L2633 1302 L2631 1289 L2629 1275 L2626 1262 L2622 1248 L2619 1235 L2615 1222 L2611 1209 L2606 1196 L2601 1183 L2596 1170 L2590 1158 L2585 1145 L2579 1133 L2572 1121 L2565 1109 L2558 1097 L2551 1085 L2544 1074 L2536 1062 L2528 1051 L2519 1040 L2511 1030 L2502 1019 L2492 1009 L2483 999.1 L2473 989.3 L2463 979.8 L2453 970.5 L2443 961.5 L2432 952.7 L2422 944.2 L2411 935.9 L2399 928 L2388 920.3 L2376 912.8 L2365 905.7 L2353 898.9 L2341 892.3 L2328 886.1 L2316 880.1 L2304 874.5 L2291 869.2 L2278 864.1 L2265 859.4 L2252 855.1 L2239 851 L2226 847.2 L2212 843.8 L2199 840.7 L2186 838 L2172 835.6 L2159 833.5 L2145 831.7 L2131 830.3 L2118 829.2 L2104 828.4 L2090 828 L2076 828 L2063 828.2 L2049 828.8 L2035 829.7 L2021 831 L2008 832.6 L1994 834.6 L1981 836.8 L1967 839.4 L1954 842.4 L1940 845.6 L1927 849.2 L1914 853.1 L1901 857.4 L1888 861.9 L1875 866.8 L1862 872 L1850 877.5 L1837 883.3 L1825 889.4 L1813 895.8 L1801 902.5 L1789 909.5 L1777 916.8 L1766 924.4 L1755 932.2 L1743 940.4 L1733 948.8 L1722 957.4 L1711 966.3 L1701 975.5 L1691 984.9 L1681 994.6 L1672 1004 L1663 1015 L1654 1025 L1645 1036 L1636 1046 L1628 1057 L1620 1069 L1612 1080 L1605 1091 L1598 1103 L1591 1115 L1584 1127 L1578 1139 L1568 1162 L1601 1157 L1634 1154 L1667 1151 L1700 1149 L1733 1148 L1767 1148 L1800 1148 L1833 1150 L1866 1152 L1900 1155 L1933 1159 L1966 1163 L1998 1169 L2031 1175 L2064 1182 L2096 1190 L2128 1198 L2160 1208 L2192 1218 L2223 1229 L2254 1240 L2285 1253 L2315 1266 L2346 1280 L2376 1295 L2405 1310 L2434 1326 L2463 1343 L2491 1361 L2519 1379 L2546 1398 L2573 1418 L2599 1438 L2634 1466 "/>
<path stroke="rgb(128, 128, 128)" fill="none" d="M1568 1162 L1601 1157 L1634 1154 L1667 1151 L1700 1149 L1733 1148 L1767 1148 L1800 1148 L1833 1150 L1866 1152 L1900 1155 L1933 1159 L1966 1163 L1998 1169 L2031 1175 L2064 1182 L2096 1190 L2128 1198 L2160 1208 L2192 1218 L2223 1229 L2254 1240 L2285 1253 L2315 1266 L2346 1280 L2376 1295 L2405 1310 L2434 1326 L2463 1343 L2491 1361 L2519 1379 L2546 1398 L2573 1418 L2599 1438 L2634 1466 L2633 1479 L2631 1491 L2628 1503 L2626 1515 L2623 1527 L2619 1539 L2615 1555 L2591 1534 L2567 1514 L2542 1495 L2517 1476 L2491 1458 L2465 1440 L2439 1423 L2412 1407 L2385 1391 L2357 1376 L2329 1362 L2301 1348 L2272 1335 L2243 1323 L2214 1311 L2184 1300 L2154 1290 L2124 1281 L2094 1273 L2064 1265 L2033 1258 L2002 1251 L1971 1246 L1940 1241 L1909 1237 L1878 1234 L1846 1231 L1815 1229 L1783 1228 L1752 1228 L1721 1229 L1689 1230 L1658 1232 L1626 1235 L1595 1239 L1538 1247 L1541 1235 L1545 1222 L1549 1209 L1554 1197 L1558 1184 L1568 1162 "/>
<path fill="rgb(0, 114, 0)" stroke="none" d="M480 2508 L3680 2508 L3680 268 L480 268 L480 2508 M752 1388 L2080 540 L3408 1388 L2080 2236 L752 1388 "/>
<path fill="rgb(221, 221, 0)" stroke="none" d="M752 1388 L2080 540 L3408 1388 L2080 2236 L752 1388 M1520 1388 L1520 1402 L1521 1415 L1522 1429 L1523 1443 L1524 1457 L1526 1470 L1528 1484 L1531 1497 L1534 1511 L1537 1524 L1540 1537 L1544 1551 L1548 1564 L1553 1577 L1558 1590 L1563 1602 L1568 1615 L1574 1627 L1580 1640 L1586 1652 L1593 1664 L1600 1676 L1607 1688 L1614 1699 L1622 1710 L1630 1722 L1639 1733 L1647 1743 L1656 1754 L1665 1764 L1674 1774 L1684 1784 L1694 1794 L1704 1803 L1714 1812 L1725 1821 L1735 1829 L1746 1838 L1758 1846 L1769 1854 L1780 1861 L1792 1868 L1804 1875 L1816 1882 L1828 1888 L1841 1894 L1853 1900 L1866 1905 L1878 1910 L1891 1915 L1904 1920 L1917 1924 L1931 1928 L1944 1931 L1957 1934 L1971 1937 L1984 1940 L1998 1942 L2011 1944 L2025 1945 L2039 1946 L2053 1947 L2066 1948 L2080 1948 L2094 1948 L2107 1947 L2121 1946 L2135 1945 L2149 1944 L2162 1942 L2176 1940 L2189 1937 L2203 1934 L2216 1931 L2229 1928 L2243 1924 L2256 1920 L2269 1915 L2282 1910 L2294 1905 L2307 1900 L2319 1894 L2332 1888 L2344 1882 L2356 1875 L2368 1868 L2380 1861 L2391 1854 L2402 1846 L2414 1838 L2425 1829 L2435 1821 L2446 1812 L2456 1803 L2466 1794 L2476 1784 L2486 1774 L2495 1764 L2504 1754 L2513 1743 L2521 1733 L2530 1722 L2538 1710 L2546 1699 L2553 1688 L2560 1676 L2567 1664 L2574 1652 L2580 1640 L2586 1627 L2592 1615 L2597 1602 L2602 1590 L2607 1577 L2612 1564 L2616 1551 L2620 1537 L2623 1524 L2626 1511 L2629 1497 L2632 1484 L2634 1470 L2636 1457 L2637 1443 L2638 1429 L2639 1415 L2640 1402 L2640 1388 L2640 1374 L2639 1361 L2638 1347 L2637 1333 L2636 1319 L2634 1306 L2632 1292 L2629 1279 L2626 1265 L2623 1252 L2620 1239 L2616 1225 L2612 1212 L2607 1199 L2602 1186 L2597 1174 L2592 1161 L2586 1149 L2580 1136 L2574 1124 L2567 1112 L2560 1100 L2553 1088 L2546 1077 L2538 1066 L2530 1054 L2521 1043 L2513 1033 L2504 1022 L2495 1012 L2486 1002 L2476 992 L2466 982.4 L2456 973.1 L2446 964 L2435 955.1 L2425 946.5 L2414 938.2 L2402 930.2 L2391 922.4 L2380 914.9 L2368 907.7 L2356 900.8 L2344 894.1 L2332 887.8 L2319 881.8 L2307 876 L2294 870.6 L2282 865.5 L2269 860.7 L2256 856.3 L2243 852.1 L2229 848.3 L2216 844.8 L2203 841.6 L2189 838.8 L2176 836.2 L2162 834.1 L2149 832.2 L2135 830.7 L2121 829.5 L2107 828.7 L2094 828.2 L2080 828 L2066 828.2 L2053 828.7 L2039 829.5 L2025 830.7 L2011 832.2 L1998 834.1 L1984 836.2 L1971 838.8 L1957 841.6 L1944 844.8 L1931 848.3 L1917 852.1 L1904 856.3 L1891 860.7 L1878 865.5 L1866 870.6 L1853 876 L1841 881.8 L1828 887.8 L1816 894.1 L1804 900.8 L1792 907.7 L1780 914.9 L1769 922.4 L1758 930.2 L1746 938.2 L1735 946.5 L1725 955.1 L1714 964 L1704 973.1 L1694 982.4 L1684 992 L1674 1002 L1665 1012 L1656 1022 L1647 1033 L1639 1043 L1630 1054 L1622 1066 L1614 1077 L1607 1088 L1600 1100 L1593 1112 L1586 1124 L1580 1136 L1574 1149 L1568 1161 L1563 1174 L1558 1186 L1553 1199 L1548 1212 L1544 1225 L1540 1239 L1537 1252 L1534 1265 L1531 1279 L1528 1292 L1526 1306 L1524 1319 L1523 1333 L1522 1347 L1521 1361 L1520 1374 L1520 1388 "/>
<path fill="rgb(0, 0, 255)" stroke="none" d="M2634 1466 L2636 1453 L2638 1439 L2639 1425 L2640 1412 L2640 1398 L2640 1384 L2640 1370 L2639 1357 L2638 1343 L2637 1329 L2635 1316 L2633 1302 L2631 1289 L2629 1275 L2626 1262 L2622 1248 L2619 1235 L2615 1222 L2611 1209 L2606 1196 L2601 1183 L2596 1170 L2590 1158 L2585 1145 L2579 1133 L2572 1121 L2565 1109 L2558 1097 L2551 1085 L2544 1074 L2536 1062 L2528 1051 L2519 1040 L2511 1030 L2502 1019 L2492 1009 L2483 999.1 L2473 989.3 L2463 979.8 L2453 970.5 L2443 961.5 L2432 952.7 L2422 944.2 L2411 935.9 L2399 928 L2388 920.3 L2376 912.8 L2365 905.7 L2353 898.9 L2341 892.3 L2328 886.1 L2316 880.1 L2304 874.5 L2291 869.2 L2278 864.1 L2265 859.4 L2252 855.1 L2239 851 L2226 847.2 L2212 843.8 L2199 840.7 L2186 838 L2172 835.6 L2159 833.5 L2145 831.7 L2131 830.3 L2118 829.2 L2104 828.4 L2090 828 L2076 828 L2063 828.2 L2049 828.8 L2035 829.7 L2021 831 L2008 832.6 L1994 834.6 L1981 836.8 L1967 839.4 L1954 842.4 L1940 845.6 L1927 849.2 L1914 853.1 L1901 857.4 L1888 861.9 L1875 866.8 L1862 872 L1850 877.5 L1837 883.3 L1825 889.4 L1813 895.8 L1801 902.5 L1789 909.5 L1777 916.8 L1766 924.4 L1755 932.2 L1743 940.4 L1733 948.8 L1722 957.4 L1711 966.3 L1701 975.5 L1691 984.9 L1681 994.6 L1672 1004 L1663 1015 L1654 1025 L1645 1036 L1636 1046 L1628 1057 L1620 1069 L1612 1080 L1605 1091 L1598 1103 L1591 1115 L1584 1127 L1578 1139 L1568 1162 L1601 1157 L1634 1154 L1667 1151 L1700 1149 L1733 1148 L1767 1148 L1800 1148 L1833 1150 L1866 1152 L1900 1155 L1933 1159 L1966 1163 L1998 1169 L2031 1175 L2064 1182 L2096 1190 L2128 1198 L2160 1208 L2192 1218 L2223 1229 L2254 1240 L2285 1253 L2315 1266 L2346 1280 L2376 1295 L2405 1310 L2434 1326 L2463 1343 L2491 1361 L2519 1379 L2546 1398 L2573 1418 L2599 1438 L2634 1466 M2214 1156 L2220 1172 L2237 1173 L2223 1183 L2228 1199 L2214 1190 L2200 1199 L2205 1183 L2191 1173 L2208 1172 L2214 1156 "/>
<path fill="rgb(0, 0, 255)" stroke="none" d="M2634 1466 L2636 1453 L2638 1439 L2639 1425 L2640 1412 L2640 1398 L2640 1384 L2640 1370 L2639 1357 L2638 1343 L2637 1329 L2635 1316 L2633 1302 L2631 1289 L2629 1275 L2626 1262 L2622 1248 L2619 1235 L2615 1222 L2611 1209 L2606 1196 L2601 1183 L2596 1170 L2590 1158 L2585 1145 L2579 1133 L2572 1121 L2565 1109 L2558 1097 L2551 1085 L2544 1074 L2536 1062 L2528 1051 L2519 1040 L2511 1030 L2502 1019 L2492 1009 L2483 999.1 L2473 989.3 L2463 979.8 L2453 970.5 L2443 961.5 L2432 952.7 L2422 944.2 L2411 935.9 L2399 928 L2388 920.3 L2376 912.8 L2365 905.7 L2353 898.9 L2341 892.3 L2328 886.1 L2316 880.1 L2304 874.5 L2291 869.2 L2278 864.1 L2265 859.4 L2252 855.1 L2239 851 L2226 847.2 L2212 843.8 L2199 840.7 L2186 838 L2172 835.6 L2159 833.5 L2145 831.7 L2131 830.3 L2118 829.2 L2104 828.4 L2090 828 L2076 828 L2063 828.2 L2049 828.8 L2035 829.7 L2021 831 L2008 832.6 L1994 834.6 L1981 836.8 L1967 839.4 L1954 842.4 L1940 845.6 L1927 849.2 L1914 853.1 L1901 857.4 L1888 861.9 L1875 866.8 L1862 872 L1850 877.5 L1837 883.3 L1825 889.4 L1813 895.8 L1801 902.5 L1789 909.5 L1777 916.8 L1766 924.4 L1755 932.2 L1743 940.4 L1733 948.8 L1722 957.4 L1711 966.3 L1701 975.5 L1691 984.9 L1681 994.6 L1672 1004 L1663 1015 L1654 1025 L1645 1036 L1636 1046 L1628 1057 L1620 1069 L1612 1080 L1605 1091 L1598 1103 L1591 1115 L1584 1127 L1578 1139 L1568 1162 L1601 1157 L1634 1154 L1667 1151 L1700 1149 L1733 1148 L1767 1148 L1800 1148 L1833 1150 L1866 1152 L1900 1155 L1933 1159 L1966 1163 L1998 1169 L2031 1175 L2064 1182 L2096 1190 L2128 1198 L2160 1208 L2192 1218 L2223 1229 L2254 1240 L2285 1253 L2315 1266 L2346 1280 L2376 1295 L2405 1310 L2434 1326 L2463 1343 L2491 1361 L2519 1379 L2546 1398 L2573 1418 L2599 1438 L2634 1466 M2214 1156 L2220 1172 L2237 1173 L2223 1183 L2228 1199 L2214 1190 L2200 1199 L2205 1183 L2191 1173 L2208 1172 L2214 1156 "/>
<path fill="rgb(0, 0, 255)" stroke="none" d="M2194 1317 L2198 1328 L2209 1328 L2200 1335 L2204 1346 L2194 1339 L2185 1346 L2188 1335 L2179 1328 L2190 1328 L2194 1317 M1628 1259 L1634 1275 L1651 1276 L1637 1286 L1642 1303 L1628 1293 L1614 1303 L1619 1286 L1605 1276 L1622 1275 L1628 1259 M1864 1366 L1869 1379 L1883 1379 L1872 1388 L1876 1402 L1864 1394 L1853 1402 L1857 1388 L1845 1379 L1860 1379 L1864 1366 M2052 1423 L2057 1437 L2071 1437 L2060 1446 L2064 1459 L2052 1451 L2040 1459 L2044 1446 L2033 1437 L2047 1437 L2052 1423 M2001 1473 L2005 1484 L2016 1484 L2007 1491 L2010 1502 L2001 1496 L1991 1502 L1995 1491 L1986 1484 L1997 1484 L2001 1473 M2038 1518 L2040 1526 L2048 1526 L2042 1531 L2044 1538 L2038 1534 L2031 1538 L2034 1531 L2027 1526 L2035 1526 L2038 1518 M2107 1476 L2112 1489 L2126 1489 L2115 1498 L2119 1512 L2107 1504 L2095 1512 L2099 1498 L2088 1489 L2102 1489 L2107 1476 M2055 1579 L2060 1596 L2077 1596 L2064 1606 L2069 1623 L2055 1613 L2040 1623 L2045 1606 L2032 1596 L2049 1596 L2055 1579 M1720 1445 L1723 1452 L1731 1453 L1724 1457 L1727 1465 L1720 1461 L1714 1465 L1716 1457 L1710 1453 L1718 1452 L1720 1445 M1666 1465 L1671 1481 L1688 1481 L1675 1492 L1680 1508 L1666 1498 L1652 1508 L1656 1492 L1643 1481 L1660 1481 L1666 1465 M1600 1529 L1605 1543 L1619 1543 L1608 1552 L1612 1565 L1600 1557 L1589 1565 L1593 1552 L1581 1543 L1596 1543 L1600 1529 M1773 1517 L1778 1531 L1792 1531 L1781 1540 L1785 1554 L1773 1546 L1761 1554 L1765 1540 L1754 1531 L1768 1531 L1773 1517 M1761 1585 L1765 1596 L1776 1596 L1767 1603 L1770 1614 L1761 1607 L1752 1614 L1755 1603 L1746 1596 L1757 1596 L1761 1585 M1841 1634 L1846 1650 L1864 1651 L1850 1661 L1855 1677 L1841 1668 L1827 1677 L1832 1661 L1818 1651 L1835 1650 L1841 1634 M2053 1772 L2055 1777 L2061 1777 L2057 1781 L2058 1786 L2053 1783 L2049 1786 L2050 1781 L2046 1777 L2052 1777 L2053 1772 M2175 1646 L2179 1657 L2190 1657 L2181 1664 L2184 1675 L2175 1669 L2165 1675 L2169 1664 L2160 1657 L2171 1657 L2175 1646 M2252 1652 L2256 1663 L2267 1663 L2258 1670 L2262 1681 L2252 1675 L2243 1681 L2246 1670 L2237 1663 L2248 1663 L2252 1652 M2320 1641 L2324 1651 L2336 1652 L2326 1659 L2330 1670 L2320 1663 L2311 1670 L2314 1659 L2305 1652 L2317 1651 L2320 1641 M2373 1653 L2377 1664 L2388 1664 L2379 1671 L2382 1682 L2373 1676 L2364 1682 L2367 1671 L2358 1664 L2369 1664 L2373 1653 M2323 1758 L2326 1768 L2338 1769 L2329 1776 L2332 1787 L2323 1780 L2313 1787 L2316 1776 L2307 1769 L2319 1768 L2323 1758 M2498 1540 L2502 1551 L2514 1551 L2505 1558 L2508 1569 L2498 1563 L2489 1569 L2492 1558 L2483 1551 L2495 1551 L2498 1540 M2213 1703 L2218 1716 L2232 1717 L2221 1725 L2225 1739 L2213 1731 L2201 1739 L2206 1725 L2194 1717 L2208 1716 L2213 1703 M2319 1698 L2323 1712 L2338 1712 L2326 1721 L2330 1734 L2319 1726 L2307 1734 L2311 1721 L2300 1712 L2314 1712 L2319 1698 M2416 1622 L2421 1636 L2435 1636 L2424 1645 L2428 1658 L2416 1650 L2404 1658 L2408 1645 L2397 1636 L2411 1636 L2416 1622 M2447 1589 L2451 1602 L2466 1603 L2454 1611 L2458 1625 L2447 1617 L2435 1625 L2439 1611 L2428 1603 L2442 1602 L2447 1589 M2427 1522 L2433 1538 L2450 1538 L2436 1549 L2441 1565 L2427 1555 L2413 1565 L2418 1549 L2404 1538 L2421 1538 L2427 1522 M1538 1247 L1535 1261 L1532 1274 L1529 1288 L1527 1301 L1525 1315 L1523 1328 L1522 1342 L1521 1356 L1520 1370 L1520 1383 L1520 1397 L1521 1411 L1521 1425 L1522 1438 L1524 1452 L1525 1466 L1528 1479 L1530 1493 L1533 1506 L1536 1520 L1539 1533 L1543 1546 L1547 1559 L1551 1572 L1556 1585 L1561 1598 L1566 1611 L1572 1623 L1578 1636 L1584 1648 L1591 1660 L1597 1672 L1605 1684 L1612 1695 L1620 1707 L1628 1718 L1636 1729 L1644 1740 L1653 1750 L1662 1761 L1671 1771 L1681 1781 L1691 1790 L1701 1800 L1711 1809 L1721 1818 L1732 1827 L1743 1835 L1754 1843 L1765 1851 L1777 1859 L1788 1866 L1800 1873 L1812 1880 L1824 1886 L1837 1892 L1849 1898 L1862 1903 L1874 1909 L1887 1914 L1900 1918 L1913 1922 L1926 1926 L1940 1930 L1953 1933 L1966 1936 L1980 1939 L1993 1941 L2007 1943 L2021 1945 L2034 1946 L2048 1947 L2062 1948 L2076 1948 L2089 1948 L2103 1947 L2117 1947 L2130 1946 L2144 1944 L2158 1942 L2171 1940 L2185 1938 L2198 1935 L2212 1932 L2225 1929 L2238 1925 L2251 1921 L2264 1917 L2277 1912 L2290 1907 L2303 1902 L2315 1896 L2328 1890 L2340 1884 L2352 1877 L2364 1870 L2376 1863 L2387 1856 L2399 1848 L2410 1840 L2421 1832 L2432 1824 L2442 1815 L2453 1806 L2463 1797 L2473 1787 L2482 1777 L2492 1767 L2501 1757 L2510 1747 L2519 1736 L2527 1725 L2535 1714 L2543 1703 L2551 1691 L2558 1680 L2565 1668 L2572 1656 L2578 1644 L2584 1631 L2590 1619 L2596 1606 L2601 1594 L2606 1581 L2615 1555 L2591 1534 L2567 1514 L2542 1495 L2517 1476 L2491 1458 L2465 1440 L2439 1423 L2412 1407 L2385 1391 L2357 1376 L2329 1362 L2301 1348 L2272 1335 L2243 1323 L2214 1311 L2184 1300 L2154 1290 L2124 1281 L2094 1273 L2064 1265 L2033 1258 L2002 1251 L1971 1246 L1940 1241 L1909 1237 L1878 1234 L1846 1231 L1815 1229 L1783 1228 L1752 1228 L1721 1229 L1689 1230 L1658 1232 L1626 1235 L1595 1239 L1538 1247 "/>
<path stroke-width="2.8" stroke="rgb(0, 0, 0)" fill="none" d="M1600 1174 L1594 1177 L1589 1182 L1586 1187 L1584 1194 L1585 1205 L1589 1212 L1593 1216 L1599 1220 L1605 1221 L1617 1220 L1623 1217 L1628 1212 L1630 1207 L1633 1200 L1631 1188 L1628 1182 L1624 1178 L1618 1174 L1611 1172 L1600 1174 "/>
<path stroke-width="2.8" stroke="rgb(0, 0, 0)" fill="none" d="M1652 1168 L1655 1216 M1652 1168 L1678 1166 L1687 1168 L1691 1170 L1694 1175 L1694 1179 L1691 1184 L1689 1186 L1680 1189 L1653 1191 M1674 1190 L1696 1213 "/>
<path stroke-width="2.8" stroke="rgb(0, 0, 0)" fill="none" d="M1716 1164 L1717 1212 M1716 1164 L1737 1164 L1746 1166 L1752 1170 L1755 1175 L1758 1181 L1758 1193 L1755 1200 L1752 1204 L1746 1209 L1737 1212 L1717 1212 "/>
<path stroke-width="2.8" stroke="rgb(0, 0, 0)" fill="none" d="M1786 1164 L1784 1212 M1786 1164 L1824 1165 M1785 1187 L1809 1188 M1784 1212 L1823 1213 "/>
<path stroke-width="2.8" stroke="rgb(0, 0, 0)" fill="none" d="M1982 1184 L1973 1231 M1982 1184 L2020 1191 M1978 1206 L2001 1211 M1973 1231 L2011 1238 "/>
<path stroke-width="2.8" stroke="rgb(0, 0, 0)" fill="none" d="M2414 1336 L2390 1378 M2414 1336 L2448 1355 M2403 1356 L2423 1368 M2390 1378 L2424 1397 "/>
<path stroke-width="2.8" stroke="rgb(0, 0, 0)" fill="none" d="M1844 1166 L1840 1214 M1844 1166 L1864 1216 M1891 1170 L1864 1216 M1891 1170 L1888 1218 "/>
<path stroke-width="2.8" stroke="rgb(0, 0, 0)" fill="none" d="M2107 1210 L2094 1256 M2107 1210 L2133 1217 L2141 1221 L2143 1224 L2145 1230 L2143 1236 L2139 1240 L2135 1241 L2126 1241 L2101 1234 "/>
<path stroke-width="2.8" stroke="rgb(0, 0, 0)" fill="none" d="M2170 1228 L2155 1274 M2170 1228 L2196 1237 L2203 1242 L2206 1245 L2207 1250 L2205 1254 L2201 1258 L2198 1259 L2188 1258 L2163 1250 M2183 1256 L2194 1287 "/>
<path stroke-width="2.8" stroke="rgb(0, 0, 0)" fill="none" d="M2353 1302 L2331 1344 M2353 1302 L2377 1314 L2384 1320 L2385 1323 L2386 1329 L2384 1333 L2379 1336 L2375 1336 L2366 1334 L2343 1322 M2361 1332 L2368 1363 "/>
<path stroke-width="2.8" stroke="rgb(0, 0, 0)" fill="none" d="M2245 1254 L2238 1254 L2231 1257 L2227 1260 L2222 1265 L2217 1276 L2218 1283 L2219 1288 L2223 1295 L2227 1299 L2238 1304 L2245 1304 L2252 1301 L2256 1298 L2262 1293 L2266 1282 L2266 1275 L2264 1270 L2261 1263 L2256 1259 L2245 1254 "/>
<path stroke-width="2.8" stroke="rgb(0, 0, 0)" fill="none" d="M2586 1448 L2580 1446 L2573 1446 L2568 1448 L2561 1451 L2554 1460 L2552 1468 L2552 1473 L2554 1480 L2557 1486 L2566 1493 L2572 1495 L2580 1495 L2585 1493 L2591 1490 L2599 1481 L2600 1474 L2601 1468 L2599 1461 L2596 1455 L2586 1448 "/>
<path stroke-width="2.8" stroke="rgb(0, 0, 0)" fill="none" d="M2327 1302 L2326 1296 L2322 1290 L2318 1285 L2307 1280 L2301 1280 L2293 1282 L2289 1285 L2283 1290 L2278 1300 L2278 1308 L2279 1313 L2283 1320 L2287 1324 L2298 1329 L2304 1329 L2312 1328 L2316 1325 L2319 1318 M2306 1312 L2319 1318 "/>
<path stroke-width="2.8" stroke="rgb(0, 0, 0)" fill="none" d="M2498 1393 L2495 1386 L2489 1379 L2479 1373 L2470 1370 L2463 1370 L2460 1374 L2460 1380 L2462 1383 L2466 1388 L2478 1402 L2482 1407 L2483 1410 L2483 1416 L2479 1422 L2472 1422 L2463 1419 L2453 1413 L2447 1406 L2444 1399 "/>
<path stroke-width="2.8" stroke="rgb(0, 0, 0)" fill="none" d="M2552 1430 L2549 1423 L2543 1416 L2534 1409 L2525 1406 L2518 1406 L2515 1410 L2515 1415 L2516 1419 L2519 1424 L2531 1438 L2535 1443 L2536 1447 L2536 1452 L2532 1458 L2524 1458 L2516 1455 L2506 1448 L2500 1441 L2498 1434 "/>
</svg>