999
CadZinho - Minimalist CAD by Zecruel
0
SECTION
2
HEADER
9
$ACADVER
1
AC1021
9
$HANDSEED
5
C8
9
$INSUNITS
70
4
9
$LWDISPLAY
290
1
0
ENDSEC
0
SECTION
2
CLASSES
0
ENDSEC
0
SECTION
2
TABLES
0
TABLE
2
VPORT
5
1
100
AcDbSymbolTable
70
1000
0
VPORT
5
25
100
AcDbSymbolTableRecord
100
AcDbViewportTableRecord
2
*ACTIVE
70
0
10
0.000000
20
0.000000
11
1.000000
21
1.000000
12
25.000000
22
0.000000
13
0.000000
23
0.000000
14
100.000000
24
100.000000
15
100.000000
25
100.000000
16
0.000000
26
0.000000
36
1.000000
17
0.000000
27
0.000000
37
0.000000
40
35.000000
41
1.800000
42
50.000000
43
0.000000
44
0.000000
50
0.000000
51
0.000000
0
ENDTAB
0
TABLE
2
LTYPE
5
4
100
AcDbSymbolTable
70
1000
0
LTYPE
5
5
100
AcDbSymbolTableRecord
100
AcDbLinetypeTableRecord
2
ByBlock
70
0
3

72
65
73
0
40
0.000000
0
LTYPE
5
6
100
AcDbSymbolTableRecord
100
AcDbLinetypeTableRecord
2
ByLayer
70
0
3

72
65
73
0
40
0.000000
0
LTYPE
5
7
100
AcDbSymbolTableRecord
100
AcDbLinetypeTableRecord
2
Continuous
70
0
3
___________________________________
72
65
73
0
40
0.000000
0
LTYPE
5
8
100
AcDbSymbolTableRecord
100
AcDbLinetypeTableRecord
2
Border
70
0
3
____ . ____ ____ . ____ ____ . ____
72
65
73
6
40
1.750000
49
0.500000
74
0
49
-0.250000
74
0
49
0.500000
74
0
49
-0.250000
74
0
49
0.000000
74
0
49
-0.250000
74
0
0
LTYPE
5
9
100
AcDbSymbolTableRecord
100
AcDbLinetypeTableRecord
2
Center
70
0
3
____ _ ____ _ ____ _ ____ _ ____ _
72
65
73
4
40
2.000000
49
1.250000
74
0
49
-0.250000
74
0
49
0.250000
74
0
49
-0.250000
74
0
0
LTYPE
5
A
100
AcDbSymbolTableRecord
100
AcDbLinetypeTableRecord
2
Dashdot
70
0
3
____ . ____ . ____ . ____ . ____ .
72
65
73
4
40
1.000000
49
0.500000
74
0
49
-0.250000
74
0
49
0.000000
74
0
49
-0.250000
74
0
0
LTYPE
5
B
100
AcDbSymbolTableRecord
100
AcDbLinetypeTableRecord
2
Dashed
70
0
3
____ ____ ____ ____ ____ ____ ____
72
65
73
2
40
0.750000
49
0.500000
74
0
49
-0.250000
74
0
0
LTYPE
5
C
100
AcDbSymbolTableRecord
100
AcDbLinetypeTableRecord
2
Divide
70
0
3
____ . . ____ . . ____ . . ____ . .
72
65
73
6
40
1.250000
49
0.500000
74
0
49
-0.250000
74
0
49
0.000000
74
0
49
-0.250000
74
0
49
0.000000
74
0
49
-0.250000
74
0
0
LTYPE
5
D
100
AcDbSymbolTableRecord
100
AcDbLinetypeTableRecord
2
Dot
70
0
3
. . . . . . . . . . . . . . . . . .
72
65
73
2
40
0.250000
49
0.000000
74
0
49
-0.250000
74
0
0
LTYPE
5
E
100
AcDbSymbolTableRecord
100
AcDbLinetypeTableRecord
2
Hidden
70
0
3
__ __ __ __ __ __ __ __ __ __ __ __
72
65
73
2
40
0.375000
49
0.250000
74
0
49
-0.125000
74
0
0
LTYPE
5
F
100
AcDbSymbolTableRecord
100
AcDbLinetypeTableRecord
2
Phantom
70
0
3
_____ _ _ _____ _ _ _____ _ _ _____
72
65
73
6
40
2.500000
49
1.250000
74
0
49
-0.250000
74
0
49
0.250000
74
0
49
-0.250000
74
0
49
0.250000
74
0
49
-0.250000
74
0
0
ENDTAB
0
TABLE
2
LAYER
5
10
100
AcDbSymbolTable
70
1000
0
LAYER
5
11
100
AcDbSymbolTableRecord
100
AcDbLayerTableRecord
2
0
70
0
62
7
6
Continuous
370
0
390
2B
0
ENDTAB
0
TABLE
2
STYLE
5
12
100
AcDbSymbolTable
70
1000
0
STYLE
5
13
100
AcDbSymbolTableRecord
100
AcDbTextStyleTableRecord
2
Standard
70
0
40
0.000000
41
1.000000
50
0.000000
71
0
42
1.000000
3
TXT.SHX
4

0
STYLE
5
24
100
AcDbSymbolTableRecord
100
AcDbTextStyleTableRecord
2

70
1
40
0.000000
41
1.000000
50
0.000000
71
0
42
1.000000
3
LTYPESHP.SHX
4

0
STYLE
5
C7
100
AcDbSymbolTableRecord
100
AcDbTextStyleTableRecord
2
texto
70
0
40
0.000000
41
1.300000
50
0.000000
71
0
42
1.000000
3
ROMANS.SHX
4

0
ENDTAB
0
TABLE
2
VIEW
5
14
100
AcDbSymbolTable
70
0
0
ENDTAB
0
TABLE
2
UCS
5
15
100
AcDbSymbolTable
70
0
0
ENDTAB
0
TABLE
2
APPID
5
16
100
AcDbSymbolTable
70
10
0
APPID
5
17
100
AcDbSymbolTableRecord
100
AcDbRegAppTableRecord
2
ACAD
70
0
0
APPID
5
18
100
AcDbSymbolTableRecord
100
AcDbRegAppTableRecord
2
CADZINHO
70
0
0
ENDTAB
0
TABLE
2
DIMSTYLE
5
19
100
AcDbSymbolTable
70
1
100
AcDbDimStyleTable
71
1
0
DIMSTYLE
105
1A
100
AcDbSymbolTableRecord
100
AcDbDimStyleTableRecord
2
Standard
70
0
340
C
0
ENDTAB
0
TABLE
2
BLOCK_RECORD
5
1B
100
AcDbSymbolTable
70
9999
0
BLOCK_RECORD
5
1C
100
AcDbSymbolTableRecord
100
AcDbBlockTableRecord
2
*Model_Space
70
0
0
BLOCK_RECORD
5
1D
100
AcDbSymbolTableRecord
100
AcDbBlockTableRecord
2
*Paper_Space
70
0
0
ENDTAB
0
ENDSEC
0
SECTION
2
BLOCKS
0
BLOCK
5
1E
100
AcDbEntity
8
0
100
AcDbBlockBegin
2
*Model_Space
70
0
10
0.000000
20
0.000000
30
0.000000
3
*Model_Space
1

0
ENDBLK
5
1F
100
AcDbEntity
8
0
100
AcDbBlockEnd
0
BLOCK
5
20
100
AcDbEntity
8
0
100
AcDbBlockBegin
2
*Paper_Space
70
0
10
0.000000
20
0.000000
30
0.000000
3
*Paper_Space
1

0
ENDBLK
5
21
100
AcDbEntity
8
0
100
AcDbBlockEnd
0
ENDSEC
0
SECTION
2
ENTITIES
0
LWPOLYLINE
5
2E
100
AcDbEntity
67
0
8
0
6
ByLayer
62
98
370
-1
100
AcDbPolyline
90
4
70
1
10
-10.000000
20
-7.000000
30
0.000000
42
0.000000
10
10.000000
20
-7.000000
30
0.000000
42
0.000000
10
10.000000
20
7.000000
30
0.000000
42
0.000000
10
-10.000000
20
7.000000
30
0.000000
0
LWPOLYLINE
5
2F
100
AcDbEntity
67
0
8
0
6
ByLayer
62
52
370
-1
100
AcDbPolyline
90
4
70
1
10
-8.300000
20
-0.000000
30
0.000000
42
0.000000
10
-0.000000
20
5.300000
30
0.000000
42
0.000000
10
8.300000
20
-0.000000
30
0.000000
42
0.000000
10
-0.000000
20
-5.300000
30
0.000000
0
LWPOLYLINE
5
30
100
AcDbEntity
67
0
8
0
6
ByLayer
62
8
370
-1
100
AcDbPolyline
90
10
70
1
10
0.836231
20
1.449535
30
0.000000
42
0.000000
10
0.871896
20
1.348623
30
0.000000
42
0.000000
10
0.978890
20
1.345887
30
0.000000
42
0.000000
10
0.893938
20
1.280785
30
0.000000
42
0.000000
10
0.924399
20
1.178182
30
0.000000
42
0.000000
10
0.836231
20
1.238859
30
0.000000
42
0.000000
10
0.748063
20
1.178182
30
0.000000
42
0.000000
10
0.778525
20
1.280785
30
0.000000
42
0.000000
10
0.693573
20
1.345887
30
0.000000
42
0.000000
10
0.800567
20
1.348623
30
0.000000
0
LWPOLYLINE
5
31
100
AcDbEntity
67
0
8
0
6
ByLayer
62
8
370
-1
100
AcDbPolyline
90
10
70
1
10
0.713336
20
0.444364
30
0.000000
42
0.000000
10
0.737113
20
0.377089
30
0.000000
42
0.000000
10
0.808442
20
0.375265
30
0.000000
42
0.000000
10
0.751807
20
0.331864
30
0.000000
42
0.000000
10
0.772115
20
0.263462
30
0.000000
42
0.000000
10
0.713336
20
0.303913
30
0.000000
42
0.000000
10
0.654558
20
0.263462
30
0.000000
42
0.000000
10
0.674865
20
0.331864
30
0.000000
42
0.000000
10
0.618231
20
0.375265
30
0.000000
42
0.000000
10
0.689560
20
0.377089
30
0.000000
0
LWPOLYLINE
5
32
100
AcDbEntity
67
0
8
0
6
ByLayer
62
8
370
-1
100
AcDbPolyline
90
10
70
1
10
-2.825068
20
0.805282
30
0.000000
42
0.000000
10
-2.789403
20
0.704370
30
0.000000
42
0.000000
10
-2.682409
20
0.701635
30
0.000000
42
0.000000
10
-2.767361
20
0.636532
30
0.000000
42
0.000000
10
-2.736900
20
0.533930
30
0.000000
42
0.000000
10
-2.825068
20
0.594606
30
0.000000
42
0.000000
10
-2.913235
20
0.533930
30
0.000000
42
0.000000
10
-2.882774
20
0.636532
30
0.000000
42
0.000000
10
-2.967726
20
0.701635
30
0.000000
42
0.000000
10
-2.860732
20
0.704370
30
0.000000
0
LWPOLYLINE
5
33
100
AcDbEntity
67
0
8
0
6
ByLayer
62
8
370
-1
100
AcDbPolyline
90
10
70
1
10
-1.348148
20
0.139995
30
0.000000
42
0.000000
10
-1.318427
20
0.055902
30
0.000000
42
0.000000
10
-1.229265
20
0.053622
30
0.000000
42
0.000000
10
-1.300059
20
-0.000630
30
0.000000
42
0.000000
10
-1.274674
20
-0.086132
30
0.000000
42
0.000000
10
-1.348148
20
-0.035569
30
0.000000
42
0.000000
10
-1.421621
20
-0.086132
30
0.000000
42
0.000000
10
-1.396236
20
-0.000630
30
0.000000
42
0.000000
10
-1.467030
20
0.053622
30
0.000000
42
0.000000
10
-1.377868
20
0.055902
30
0.000000
0
LWPOLYLINE
5
34
100
AcDbEntity
67
0
8
0
6
ByLayer
62
8
370
-1
100
AcDbPolyline
90
10
70
1
10
-0.175280
20
-0.220446
30
0.000000
42
0.000000
10
-0.145560
20
-0.304539
30
0.000000
42
0.000000
10
-0.056398
20
-0.306819
30
0.000000
42
0.000000
10
-0.127191
20
-0.361071
30
0.000000
42
0.000000
10
-0.101807
20
-0.446573
30
0.000000
42
0.000000
10
-0.175280
20
-0.396010
30
0.000000
42
0.000000
10
-0.248753
20
-0.446573
30
0.000000
42
0.000000
10
-0.223369
20
-0.361071
30
0.000000
42
0.000000
10
-0.294162
20
-0.306819
30
0.000000
42
0.000000
10
-0.205001
20
-0.304539
30
0.000000
0
LWPOLYLINE
5
35
100
AcDbEntity
67
0
8
0
6
ByLayer
62
8
370
-1
100
AcDbPolyline
90
10
70
1
10
-0.495385
20
-0.533392
30
0.000000
42
0.000000
10
-0.471609
20
-0.600666
30
0.000000
42
0.000000
10
-0.400280
20
-0.602490
30
0.000000
42
0.000000
10
-0.456914
20
-0.645892
30
0.000000
42
0.000000
10
-0.436607
20
-0.714293
30
0.000000
42
0.000000
10
-0.495385
20
-0.673843
30
0.000000
42
0.000000
10
-0.554164
20
-0.714293
30
0.000000
42
0.000000
10
-0.533856
20
-0.645892
30
0.000000
42
0.000000
10
-0.590491
20
-0.602490
30
0.000000
42
0.000000
10
-0.519162
20
-0.600666
30
0.000000
0
LWPOLYLINE
5
36
100
AcDbEntity
67
0
8
0
6
ByLayer
62
8
370
-1
100
AcDbPolyline
90
10
70
1
10
-0.263567
20
-0.812574
30
0.000000
42
0.000000
10
-0.246923
20
-0.859667
30
0.000000
42
0.000000
10
-0.196993
20
-0.860943
30
0.000000
42
0.000000
10
-0.236637
20
-0.891324
30
0.000000
42
0.000000
10
-0.222422
20
-0.939206
30
0.000000
42
0.000000
10
-0.263567
20
-0.910890
30
0.000000
42
0.000000
10
-0.304712
20
-0.939206
30
0.000000
42
0.000000
10
-0.290497
20
-0.891324
30
0.000000
42
0.000000
10
-0.330141
20
-0.860943
30
0.000000
42
0.000000
10
-0.280210
20
-0.859667
30
0.000000
0
LWPOLYLINE
5
37
100
AcDbEntity
67
0
8
0
6
ByLayer
62
8
370
-1
100
AcDbPolyline
90
10
70
1
10
0.169205
20
-0.547294
30
0.000000
42
0.000000
10
0.198925
20
-0.631387
30
0.000000
42
0.000000
10
0.288087
20
-0.633667
30
0.000000
42
0.000000
10
0.217294
20
-0.687919
30
0.000000
42
0.000000
10
0.242678
20
-0.773421
30
0.000000
42
0.000000
10
0.169205
20
-0.722857
30
0.000000
42
0.000000
10
0.095732
20
-0.773421
30
0.000000
42
0.000000
10
0.121116
20
-0.687919
30
0.000000
42
0.000000
10
0.050323
20
-0.633667
30
0.000000
42
0.000000
10
0.139484
20
-0.631387
30
0.000000
0
LWPOLYLINE
5
38
100
AcDbEntity
67
0
8
0
6
ByLayer
62
8
370
-1
100
AcDbPolyline
90
10
70
1
10
-0.159049
20
-1.195969
30
0.000000
42
0.000000
10
-0.123384
20
-1.296881
30
0.000000
42
0.000000
10
-0.016391
20
-1.299617
30
0.000000
42
0.000000
10
-0.101342
20
-1.364719
30
0.000000
42
0.000000
10
-0.070881
20
-1.467322
30
0.000000
42
0.000000
10
-0.159049
20
-1.406645
30
0.000000
42
0.000000
10
-0.247217
20
-1.467322
30
0.000000
42
0.000000
10
-0.216756
20
-1.364719
30
0.000000
42
0.000000
10
-0.301707
20
-1.299617
30
0.000000
42
0.000000
10
-0.194714
20
-1.296881
30
0.000000
0
LWPOLYLINE
5
39
100
AcDbEntity
67
0
8
0
6
ByLayer
62
8
370
-1
100
AcDbPolyline
90
10
70
1
10
-2.248817
20
-0.354996
30
0.000000
42
0.000000
10
-2.232174
20
-0.402089
30
0.000000
42
0.000000
10
-2.182243
20
-0.403365
30
0.000000
42
0.000000
10
-2.221888
20
-0.433746
30
0.000000
42
0.000000
10
-2.207672
20
-0.481628
30
0.000000
42
0.000000
10
-2.248817
20
-0.453312
30
0.000000
42
0.000000
10
-2.289962
20
-0.481628
30
0.000000
42
0.000000
10
-2.275747
20
-0.433746
30
0.000000
42
0.000000
10
-2.315391
20
-0.403365
30
0.000000
42
0.000000
10
-2.265461
20
-0.402089
30
0.000000
0
LWPOLYLINE
5
3A
100
AcDbEntity
67
0
8
0
6
ByLayer
62
8
370
-1
100
AcDbPolyline
90
10
70
1
10
-2.589669
20
-0.478631
30
0.000000
42
0.000000
10
-2.554004
20
-0.579543
30
0.000000
42
0.000000
10
-2.447010
20
-0.582278
30
0.000000
42
0.000000
10
-2.531962
20
-0.647381
30
0.000000
42
0.000000
10
-2.501501
20
-0.749983
30
0.000000
42
0.000000
10
-2.589669
20
-0.689307
30
0.000000
42
0.000000
10
-2.677837
20
-0.749983
30
0.000000
42
0.000000
10
-2.647375
20
-0.647381
30
0.000000
42
0.000000
10
-2.732327
20
-0.582278
30
0.000000
42
0.000000
10
-2.625333
20
-0.579543
30
0.000000
0
LWPOLYLINE
5
3B
100
AcDbEntity
67
0
8
0
6
ByLayer
62
8
370
-1
100
AcDbPolyline
90
10
70
1
10
-2.997337
20
-0.881655
30
0.000000
42
0.000000
10
-2.967616
20
-0.965748
30
0.000000
42
0.000000
10
-2.878455
20
-0.968028
30
0.000000
42
0.000000
10
-2.949248
20
-1.022280
30
0.000000
42
0.000000
10
-2.923864
20
-1.107782
30
0.000000
42
0.000000
10
-2.997337
20
-1.057218
30
0.000000
42
0.000000
10
-3.070810
20
-1.107782
30
0.000000
42
0.000000
10
-3.045426
20
-1.022280
30
0.000000
42
0.000000
10
-3.116219
20
-0.968028
30
0.000000
42
0.000000
10
-3.027057
20
-0.965748
30
0.000000
0
LWPOLYLINE
5
3C
100
AcDbEntity
67
0
8
0
6
ByLayer
62
8
370
-1
100
AcDbPolyline
90
10
70
1
10
-1.917648
20
-0.809215
30
0.000000
42
0.000000
10
-1.887927
20
-0.893309
30
0.000000
42
0.000000
10
-1.798766
20
-0.895588
30
0.000000
42
0.000000
10
-1.869559
20
-0.949840
30
0.000000
42
0.000000
10
-1.844175
20
-1.035343
30
0.000000
42
0.000000
10
-1.917648
20
-0.984779
30
0.000000
42
0.000000
10
-1.991121
20
-1.035343
30
0.000000
42
0.000000
10
-1.965737
20
-0.949840
30
0.000000
42
0.000000
10
-2.036530
20
-0.895588
30
0.000000
42
0.000000
10
-1.947368
20
-0.893309
30
0.000000
0
LWPOLYLINE
5
3D
100
AcDbEntity
67
0
8
0
6
ByLayer
62
8
370
-1
100
AcDbPolyline
90
10
70
1
10
-1.993752
20
-1.229625
30
0.000000
42
0.000000
10
-1.969976
20
-1.296899
30
0.000000
42
0.000000
10
-1.898647
20
-1.298723
30
0.000000
42
0.000000
10
-1.955281
20
-1.342125
30
0.000000
42
0.000000
10
-1.934974
20
-1.410527
30
0.000000
42
0.000000
10
-1.993752
20
-1.370076
30
0.000000
42
0.000000
10
-2.052531
20
-1.410527
30
0.000000
42
0.000000
10
-2.032223
20
-1.342125
30
0.000000
42
0.000000
10
-2.088858
20
-1.298723
30
0.000000
42
0.000000
10
-2.017529
20
-1.296899
30
0.000000
0
LWPOLYLINE
5
3E
100
AcDbEntity
67
0
8
0
6
ByLayer
62
8
370
-1
100
AcDbPolyline
90
10
70
1
10
-1.495119
20
-1.537214
30
0.000000
42
0.000000
10
-1.459455
20
-1.638126
30
0.000000
42
0.000000
10
-1.352461
20
-1.640861
30
0.000000
42
0.000000
10
-1.437413
20
-1.705964
30
0.000000
42
0.000000
10
-1.406951
20
-1.808566
30
0.000000
42
0.000000
10
-1.495119
20
-1.747890
30
0.000000
42
0.000000
10
-1.583287
20
-1.808566
30
0.000000
42
0.000000
10
-1.552826
20
-1.705964
30
0.000000
42
0.000000
10
-1.637778
20
-1.640861
30
0.000000
42
0.000000
10
-1.530784
20
-1.638126
30
0.000000
0
LWPOLYLINE
5
3F
100
AcDbEntity
67
0
8
0
6
ByLayer
62
8
370
-1
100
AcDbPolyline
90
10
70
1
10
-0.165628
20
-2.397931
30
0.000000
42
0.000000
10
-0.153740
20
-2.431569
30
0.000000
42
0.000000
10
-0.118076
20
-2.432481
30
0.000000
42
0.000000
10
-0.146393
20
-2.454181
30
0.000000
42
0.000000
10
-0.136239
20
-2.488382
30
0.000000
42
0.000000
10
-0.165628
20
-2.468157
30
0.000000
42
0.000000
10
-0.195018
20
-2.488382
30
0.000000
42
0.000000
10
-0.184864
20
-2.454181
30
0.000000
42
0.000000
10
-0.213181
20
-2.432481
30
0.000000
42
0.000000
10
-0.177517
20
-2.431569
30
0.000000
0
LWPOLYLINE
5
40
100
AcDbEntity
67
0
8
0
6
ByLayer
62
8
370
-1
100
AcDbPolyline
90
10
70
1
10
0.592038
20
-1.614990
30
0.000000
42
0.000000
10
0.615814
20
-1.682264
30
0.000000
42
0.000000
10
0.687143
20
-1.684088
30
0.000000
42
0.000000
10
0.630509
20
-1.727490
30
0.000000
42
0.000000
10
0.650816
20
-1.795891
30
0.000000
42
0.000000
10
0.592038
20
-1.755440
30
0.000000
42
0.000000
10
0.533259
20
-1.795891
30
0.000000
42
0.000000
10
0.553566
20
-1.727490
30
0.000000
42
0.000000
10
0.496932
20
-1.684088
30
0.000000
42
0.000000
10
0.568261
20
-1.682264
30
0.000000
0
LWPOLYLINE
5
41
100
AcDbEntity
67
0
8
0
6
ByLayer
62
8
370
-1
100
AcDbPolyline
90
10
70
1
10
1.076194
20
-1.651852
30
0.000000
42
0.000000
10
1.099970
20
-1.719126
30
0.000000
42
0.000000
10
1.171299
20
-1.720950
30
0.000000
42
0.000000
10
1.114665
20
-1.764352
30
0.000000
42
0.000000
10
1.134972
20
-1.832754
30
0.000000
42
0.000000
10
1.076194
20
-1.792303
30
0.000000
42
0.000000
10
1.017415
20
-1.832754
30
0.000000
42
0.000000
10
1.037723
20
-1.764352
30
0.000000
42
0.000000
10
0.981088
20
-1.720950
30
0.000000
42
0.000000
10
1.052417
20
-1.719126
30
0.000000
0
LWPOLYLINE
5
42
100
AcDbEntity
67
0
8
0
6
ByLayer
62
8
370
-1
100
AcDbPolyline
90
10
70
1
10
1.501962
20
-1.578710
30
0.000000
42
0.000000
10
1.525739
20
-1.645985
30
0.000000
42
0.000000
10
1.597068
20
-1.647808
30
0.000000
42
0.000000
10
1.540433
20
-1.691210
30
0.000000
42
0.000000
10
1.560741
20
-1.759612
30
0.000000
42
0.000000
10
1.501962
20
-1.719161
30
0.000000
42
0.000000
10
1.443184
20
-1.759612
30
0.000000
42
0.000000
10
1.463491
20
-1.691210
30
0.000000
42
0.000000
10
1.406857
20
-1.647808
30
0.000000
42
0.000000
10
1.478186
20
-1.645985
30
0.000000
0
LWPOLYLINE
5
43
100
AcDbEntity
67
0
8
0
6
ByLayer
62
8
370
-1
100
AcDbPolyline
90
10
70
1
10
1.831590
20
-1.658679
30
0.000000
42
0.000000
10
1.855366
20
-1.725954
30
0.000000
42
0.000000
10
1.926695
20
-1.727777
30
0.000000
42
0.000000
10
1.870061
20
-1.771179
30
0.000000
42
0.000000
10
1.890368
20
-1.839581
30
0.000000
42
0.000000
10
1.831590
20
-1.799130
30
0.000000
42
0.000000
10
1.772811
20
-1.839581
30
0.000000
42
0.000000
10
1.793119
20
-1.771179
30
0.000000
42
0.000000
10
1.736484
20
-1.727777
30
0.000000
42
0.000000
10
1.807813
20
-1.725954
30
0.000000
0
LWPOLYLINE
5
44
100
AcDbEntity
67
0
8
0
6
ByLayer
62
8
370
-1
100
AcDbPolyline
90
10
70
1
10
1.515984
20
-2.310731
30
0.000000
42
0.000000
10
1.539760
20
-2.378006
30
0.000000
42
0.000000
10
1.611089
20
-2.379829
30
0.000000
42
0.000000
10
1.554455
20
-2.423231
30
0.000000
42
0.000000
10
1.574762
20
-2.491633
30
0.000000
42
0.000000
10
1.515984
20
-2.451182
30
0.000000
42
0.000000
10
1.457205
20
-2.491633
30
0.000000
42
0.000000
10
1.477513
20
-2.423231
30
0.000000
42
0.000000
10
1.420878
20
-2.379829
30
0.000000
42
0.000000
10
1.492207
20
-2.378006
30
0.000000
0
LWPOLYLINE
5
45
100
AcDbEntity
67
0
8
0
6
ByLayer
62
8
370
-1
100
AcDbPolyline
90
10
70
1
10
2.615613
20
-0.951265
30
0.000000
42
0.000000
10
2.639389
20
-1.018540
30
0.000000
42
0.000000
10
2.710719
20
-1.020363
30
0.000000
42
0.000000
10
2.654084
20
-1.063765
30
0.000000
42
0.000000
10
2.674392
20
-1.132167
30
0.000000
42
0.000000
10
2.615613
20
-1.091716
30
0.000000
42
0.000000
10
2.556835
20
-1.132167
30
0.000000
42
0.000000
10
2.577142
20
-1.063765
30
0.000000
42
0.000000
10
2.520507
20
-1.020363
30
0.000000
42
0.000000
10
2.591837
20
-1.018540
30
0.000000
0
LWPOLYLINE
5
46
100
AcDbEntity
67
0
8
0
6
ByLayer
62
8
370
-1
100
AcDbPolyline
90
10
70
1
10
0.832803
20
-1.966893
30
0.000000
42
0.000000
10
0.862523
20
-2.050986
30
0.000000
42
0.000000
10
0.951685
20
-2.053266
30
0.000000
42
0.000000
10
0.880892
20
-2.107518
30
0.000000
42
0.000000
10
0.906276
20
-2.193020
30
0.000000
42
0.000000
10
0.832803
20
-2.142456
30
0.000000
42
0.000000
10
0.759330
20
-2.193020
30
0.000000
42
0.000000
10
0.784714
20
-2.107518
30
0.000000
42
0.000000
10
0.713921
20
-2.053266
30
0.000000
42
0.000000
10
0.803082
20
-2.050986
30
0.000000
0
LWPOLYLINE
5
47
100
AcDbEntity
67
0
8
0
6
ByLayer
62
8
370
-1
100
AcDbPolyline
90
10
70
1
10
1.490821
20
-1.938082
30
0.000000
42
0.000000
10
1.520542
20
-2.022175
30
0.000000
42
0.000000
10
1.609703
20
-2.024455
30
0.000000
42
0.000000
10
1.538910
20
-2.078707
30
0.000000
42
0.000000
10
1.564294
20
-2.164209
30
0.000000
42
0.000000
10
1.490821
20
-2.113646
30
0.000000
42
0.000000
10
1.417348
20
-2.164209
30
0.000000
42
0.000000
10
1.442732
20
-2.078707
30
0.000000
42
0.000000
10
1.371939
20
-2.024455
30
0.000000
42
0.000000
10
1.461101
20
-2.022175
30
0.000000
0
LWPOLYLINE
5
48
100
AcDbEntity
67
0
8
0
6
ByLayer
62
8
370
-1
100
AcDbPolyline
90
10
70
1
10
2.098831
20
-1.463306
30
0.000000
42
0.000000
10
2.128552
20
-1.547400
30
0.000000
42
0.000000
10
2.217713
20
-1.549679
30
0.000000
42
0.000000
10
2.146920
20
-1.603931
30
0.000000
42
0.000000
10
2.172304
20
-1.689434
30
0.000000
42
0.000000
10
2.098831
20
-1.638870
30
0.000000
42
0.000000
10
2.025358
20
-1.689434
30
0.000000
42
0.000000
10
2.050742
20
-1.603931
30
0.000000
42
0.000000
10
1.979949
20
-1.549679
30
0.000000
42
0.000000
10
2.069110
20
-1.547400
30
0.000000
0
LWPOLYLINE
5
49
100
AcDbEntity
67
0
8
0
6
ByLayer
62
8
370
-1
100
AcDbPolyline
90
10
70
1
10
2.290791
20
-1.256192
30
0.000000
42
0.000000
10
2.320511
20
-1.340285
30
0.000000
42
0.000000
10
2.409673
20
-1.342565
30
0.000000
42
0.000000
10
2.338880
20
-1.396817
30
0.000000
42
0.000000
10
2.364264
20
-1.482319
30
0.000000
42
0.000000
10
2.290791
20
-1.431756
30
0.000000
42
0.000000
10
2.217318
20
-1.482319
30
0.000000
42
0.000000
10
2.242702
20
-1.396817
30
0.000000
42
0.000000
10
2.171909
20
-1.342565
30
0.000000
42
0.000000
10
2.261070
20
-1.340285
30
0.000000
0
LWPOLYLINE
5
4A
100
AcDbEntity
67
0
8
0
6
ByLayer
62
8
370
-1
100
AcDbPolyline
90
10
70
1
10
2.169099
20
-0.834939
30
0.000000
42
0.000000
10
2.204764
20
-0.935851
30
0.000000
42
0.000000
10
2.311758
20
-0.938587
30
0.000000
42
0.000000
10
2.226806
20
-1.003689
30
0.000000
42
0.000000
10
2.257267
20
-1.106292
30
0.000000
42
0.000000
10
2.169099
20
-1.045616
30
0.000000
42
0.000000
10
2.080932
20
-1.106292
30
0.000000
42
0.000000
10
2.111393
20
-1.003689
30
0.000000
42
0.000000
10
2.026441
20
-0.938587
30
0.000000
42
0.000000
10
2.133435
20
-0.935851
30
0.000000
0
LWPOLYLINE
5
4B
100
AcDbEntity
67
0
8
0
6
ByLayer
62
5
370
-1
100
AcDbPolyline
90
3
70
0
10
-3.500000
20
-0.000000
30
0.000000
42
1.000000
10
3.500000
20
-0.000000
30
0.000000
42
1.000000
10
-3.500000
20
-0.000000
30
0.000000
0
LWPOLYLINE
5
4C
100
AcDbEntity
67
0
8
0
6
ByLayer
62
5
370
-1
100
AcDbPolyline
90
2
70
1
10
-3.387906
20
0.878686
30
0.000000
42
0.975500
10
3.340736
20
-1.043783
30
0.000000
42
0.230000
0
LWPOLYLINE
5
4D
100
AcDbEntity
67
0
8
0
6
ByLayer
62
5
370
-1
100
AcDbPolyline
90
2
70
1
10
3.465510
20
-0.490147
30
0.000000
42
0.871000
10
-3.201359
20
1.414673
30
0.000000
42
-0.214000
0
LWPOLYLINE
5
4E
100
AcDbEntity
67
0
8
0
6
ByLayer
62
8
370
-1
100
AcDbPolyline
90
4
70
1
10
-3.201359
20
1.414674
30
0.000000
42
-0.214000
10
3.465510
20
-0.490146
30
0.000000
42
-0.045000
10
3.340736
20
-1.043782
30
0.000000
42
0.230000
10
-3.387906
20
0.878687
30
0.000000
42
-0.042000
0
LWPOLYLINE
5
4F
100
AcDbEntity
67
0
8
0
6
ByLayer
62
98
370
-1
100
AcDbPolyline
90
4
70
1
10
15.000000
20
-7.000000
30
0.000000
42
0.000000
10
35.000000
20
-7.000000
30
0.000000
42
0.000000
10
35.000000
20
7.000000
30
0.000000
42
0.000000
10
15.000000
20
7.000000
30
0.000000
0
LWPOLYLINE
5
50
100
AcDbEntity
67
0
8
0
6
ByLayer
62
52
370
-1
100
AcDbPolyline
90
4
70
1
10
16.700000
20
0.000000
30
0.000000
42
0.000000
10
25.000000
20
5.300000
30
0.000000
42
0.000000
10
33.300000
20
0.000000
30
0.000000
42
0.000000
10
25.000000
20
-5.300000
30
0.000000
0
LWPOLYLINE
5
51
100
AcDbEntity
67
0
8
0
6
ByLayer
62
8
370
-1
100
AcDbPolyline
90
10
70
1
10
25.836231
20
1.449535
30
0.000000
42
0.000000
10
25.871896
20
1.348623
30
0.000000
42
0.000000
10
25.978890
20
1.345887
30
0.000000
42
0.000000
10
25.893938
20
1.280785
30
0.000000
42
0.000000
10
25.924399
20
1.178182
30
0.000000
42
0.000000
10
25.836231
20
1.238859
30
0.000000
42
0.000000
10
25.748063
20
1.178182
30
0.000000
42
0.000000
10
25.778525
20
1.280785
30
0.000000
42
0.000000
10
25.693573
20
1.345887
30
0.000000
42
0.000000
10
25.800567
20
1.348623
30
0.000000
0
LWPOLYLINE
5
52
100
AcDbEntity
67
0
8
0
6
ByLayer
62
8
370
-1
100
AcDbPolyline
90
10
70
1
10
25.713336
20
0.444364
30
0.000000
42
0.000000
10
25.737113
20
0.377089
30
0.000000
42
0.000000
10
25.808442
20
0.375265
30
0.000000
42
0.000000
10
25.751807
20
0.331864
30
0.000000
42
0.000000
10
25.772115
20
0.263462
30
0.000000
42
0.000000
10
25.713336
20
0.303913
30
0.000000
42
0.000000
10
25.654558
20
0.263462
30
0.000000
42
0.000000
10
25.674865
20
0.331864
30
0.000000
42
0.000000
10
25.618231
20
0.375265
30
0.000000
42
0.000000
10
25.689560
20
0.377089
30
0.000000
0
LWPOLYLINE
5
53
100
AcDbEntity
67
0
8
0
6
ByLayer
62
8
370
-1
100
AcDbPolyline
90
10
70
1
10
22.174932
20
0.805282
30
0.000000
42
0.000000
10
22.210597
20
0.704370
30
0.000000
42
0.000000
10
22.317591
20
0.701635
30
0.000000
42
0.000000
10
22.232639
20
0.636532
30
0.000000
42
0.000000
10
22.263100
20
0.533930
30
0.000000
42
0.000000
10
22.174932
20
0.594606
30
0.000000
42
0.000000
10
22.086765
20
0.533930
30
0.000000
42
0.000000
10
22.117226
20
0.636532
30
0.000000
42
0.000000
10
22.032274
20
0.701635
30
0.000000
42
0.000000
10
22.139268
20
0.704370
30
0.000000
0
LWPOLYLINE
5
54
100
AcDbEntity
67
0
8
0
6
ByLayer
62
8
370
-1
100
AcDbPolyline
90
10
70
1
10
23.651852
20
0.139995
30
0.000000
42
0.000000
10
23.681573
20
0.055902
30
0.000000
42
0.000000
10
23.770735
20
0.053622
30
0.000000
42
0.000000
10
23.699941
20
-0.000630
30
0.000000
42
0.000000
10
23.725326
20
-0.086132
30
0.000000
42
0.000000
10
23.651852
20
-0.035569
30
0.000000
42
0.000000
10
23.578379
20
-0.086132
30
0.000000
42
0.000000
10
23.603764
20
-0.000630
30
0.000000
42
0.000000
10
23.532970
20
0.053622
30
0.000000
42
0.000000
10
23.622132
20
0.055902
30
0.000000
0
LWPOLYLINE
5
55
100
AcDbEntity
67
0
8
0
6
ByLayer
62
8
370
-1
100
AcDbPolyline
90
10
70
1
10
24.824720
20
-0.220446
30
0.000000
42
0.000000
10
24.854440
20
-0.304539
30
0.000000
42
0.000000
10
24.943602
20
-0.306819
30
0.000000
42
0.000000
10
24.872809
20
-0.361071
30
0.000000
42
0.000000
10
24.898193
20
-0.446573
30
0.000000
42
0.000000
10
24.824720
20
-0.396010
30
0.000000
42
0.000000
10
24.751247
20
-0.446573
30
0.000000
42
0.000000
10
24.776631
20
-0.361071
30
0.000000
42
0.000000
10
24.705838
20
-0.306819
30
0.000000
42
0.000000
10
24.794999
20
-0.304539
30
0.000000
0
LWPOLYLINE
5
56
100
AcDbEntity
67
0
8
0
6
ByLayer
62
8
370
-1
100
AcDbPolyline
90
10
70
1
10
24.504615
20
-0.533392
30
0.000000
42
0.000000
10
24.528391
20
-0.600666
30
0.000000
42
0.000000
10
24.599720
20
-0.602490
30
0.000000
42
0.000000
10
24.543086
20
-0.645892
30
0.000000
42
0.000000
10
24.563393
20
-0.714293
30
0.000000
42
0.000000
10
24.504615
20
-0.673843
30
0.000000
42
0.000000
10
24.445836
20
-0.714293
30
0.000000
42
0.000000
10
24.466144
20
-0.645892
30
0.000000
42
0.000000
10
24.409509
20
-0.602490
30
0.000000
42
0.000000
10
24.480838
20
-0.600666
30
0.000000
0
LWPOLYLINE
5
57
100
AcDbEntity
67
0
8
0
6
ByLayer
62
8
370
-1
100
AcDbPolyline
90
10
70
1
10
24.736433
20
-0.812574
30
0.000000
42
0.000000
10
24.753077
20
-0.859667
30
0.000000
42
0.000000
10
24.803007
20
-0.860943
30
0.000000
42
0.000000
10
24.763363
20
-0.891324
30
0.000000
42
0.000000
10
24.777578
20
-0.939206
30
0.000000
42
0.000000
10
24.736433
20
-0.910890
30
0.000000
42
0.000000
10
24.695288
20
-0.939206
30
0.000000
42
0.000000
10
24.709503
20
-0.891324
30
0.000000
42
0.000000
10
24.669859
20
-0.860943
30
0.000000
42
0.000000
10
24.719790
20
-0.859667
30
0.000000
0
LWPOLYLINE
5
58
100
AcDbEntity
67
0
8
0
6
ByLayer
62
8
370
-1
100
AcDbPolyline
90
10
70
1
10
25.169205
20
-0.547294
30
0.000000
42
0.000000
10
25.198925
20
-0.631387
30
0.000000
42
0.000000
10
25.288087
20
-0.633667
30
0.000000
42
0.000000
10
25.217294
20
-0.687919
30
0.000000
42
0.000000
10
25.242678
20
-0.773421
30
0.000000
42
0.000000
10
25.169205
20
-0.722857
30
0.000000
42
0.000000
10
25.095732
20
-0.773421
30
0.000000
42
0.000000
10
25.121116
20
-0.687919
30
0.000000
42
0.000000
10
25.050323
20
-0.633667
30
0.000000
42
0.000000
10
25.139484
20
-0.631387
30
0.000000
0
LWPOLYLINE
5
59
100
AcDbEntity
67
0
8
0
6
ByLayer
62
8
370
-1
100
AcDbPolyline
90
10
70
1
10
24.840951
20
-1.195969
30
0.000000
42
0.000000
10
24.876616
20
-1.296881
30
0.000000
42
0.000000
10
24.983609
20
-1.299617
30
0.000000
42
0.000000
10
24.898658
20
-1.364719
30
0.000000
42
0.000000
10
24.929119
20
-1.467322
30
0.000000
42
0.000000
10
24.840951
20
-1.406645
30
0.000000
42
0.000000
10
24.752783
20
-1.467322
30
0.000000
42
0.000000
10
24.783244
20
-1.364719
30
0.000000
42
0.000000
10
24.698293
20
-1.299617
30
0.000000
42
0.000000
10
24.805286
20
-1.296881
30
0.000000
0
LWPOLYLINE
5
5A
100
AcDbEntity
67
0
8
0
6
ByLayer
62
8
370
-1
100
AcDbPolyline
90
10
70
1
10
22.751183
20
-0.354996
30
0.000000
42
0.000000
10
22.767826
20
-0.402089
30
0.000000
42
0.000000
10
22.817757
20
-0.403365
30
0.000000
42
0.000000
10
22.778112
20
-0.433746
30
0.000000
42
0.000000
10
22.792328
20
-0.481628
30
0.000000
42
0.000000
10
22.751183
20
-0.453312
30
0.000000
42
0.000000
10
22.710038
20
-0.481628
30
0.000000
42
0.000000
10
22.724253
20
-0.433746
30
0.000000
42
0.000000
10
22.684609
20
-0.403365
30
0.000000
42
0.000000
10
22.734539
20
-0.402089
30
0.000000
0
LWPOLYLINE
5
5B
100
AcDbEntity
67
0
8
0
6
ByLayer
62
8
370
-1
100
AcDbPolyline
90
10
70
1
10
22.410331
20
-0.478631
30
0.000000
42
0.000000
10
22.445996
20
-0.579543
30
0.000000
42
0.000000
10
22.552990
20
-0.582278
30
0.000000
42
0.000000
10
22.468038
20
-0.647381
30
0.000000
42
0.000000
10
22.498499
20
-0.749983
30
0.000000
42
0.000000
10
22.410331
20
-0.689307
30
0.000000
42
0.000000
10
22.322163
20
-0.749983
30
0.000000
42
0.000000
10
22.352625
20
-0.647381
30
0.000000
42
0.000000
10
22.267673
20
-0.582278
30
0.000000
42
0.000000
10
22.374667
20
-0.579543
30
0.000000
0
LWPOLYLINE
5
5C
100
AcDbEntity
67
0
8
0
6
ByLayer
62
8
370
-1
100
AcDbPolyline
90
10
70
1
10
22.002663
20
-0.881655
30
0.000000
42
0.000000
10
22.032384
20
-0.965748
30
0.000000
42
0.000000
10
22.121545
20
-0.968028
30
0.000000
42
0.000000
10
22.050752
20
-1.022280
30
0.000000
42
0.000000
10
22.076136
20
-1.107782
30
0.000000
42
0.000000
10
22.002663
20
-1.057218
30
0.000000
42
0.000000
10
21.929190
20
-1.107782
30
0.000000
42
0.000000
10
21.954574
20
-1.022280
30
0.000000
42
0.000000
10
21.883781
20
-0.968028
30
0.000000
42
0.000000
10
21.972943
20
-0.965748
30
0.000000
0
LWPOLYLINE
5
5D
100
AcDbEntity
67
0
8
0
6
ByLayer
62
8
370
-1
100
AcDbPolyline
90
10
70
1
10
23.082352
20
-0.809215
30
0.000000
42
0.000000
10
23.112073
20
-0.893309
30
0.000000
42
0.000000
10
23.201234
20
-0.895588
30
0.000000
42
0.000000
10
23.130441
20
-0.949840
30
0.000000
42
0.000000
10
23.155825
20
-1.035343
30
0.000000
42
0.000000
10
23.082352
20
-0.984779
30
0.000000
42
0.000000
10
23.008879
20
-1.035343
30
0.000000
42
0.000000
10
23.034263
20
-0.949840
30
0.000000
42
0.000000
10
22.963470
20
-0.895588
30
0.000000
42
0.000000
10
23.052632
20
-0.893309
30
0.000000
0
LWPOLYLINE
5
5E
100
AcDbEntity
67
0
8
0
6
ByLayer
62
8
370
-1
100
AcDbPolyline
90
10
70
1
10
23.006248
20
-1.229625
30
0.000000
42
0.000000
10
23.030024
20
-1.296899
30
0.000000
42
0.000000
10
23.101353
20
-1.298723
30
0.000000
42
0.000000
10
23.044719
20
-1.342125
30
0.000000
42
0.000000
10
23.065026
20
-1.410527
30
0.000000
42
0.000000
10
23.006248
20
-1.370076
30
0.000000
42
0.000000
10
22.947469
20
-1.410527
30
0.000000
42
0.000000
10
22.967777
20
-1.342125
30
0.000000
42
0.000000
10
22.911142
20
-1.298723
30
0.000000
42
0.000000
10
22.982471
20
-1.296899
30
0.000000
0
LWPOLYLINE
5
5F
100
AcDbEntity
67
0
8
0
6
ByLayer
62
8
370
-1
100
AcDbPolyline
90
10
70
1
10
23.504881
20
-1.537214
30
0.000000
42
0.000000
10
23.540545
20
-1.638126
30
0.000000
42
0.000000
10
23.647539
20
-1.640861
30
0.000000
42
0.000000
10
23.562587
20
-1.705964
30
0.000000
42
0.000000
10
23.593049
20
-1.808566
30
0.000000
42
0.000000
10
23.504881
20
-1.747890
30
0.000000
42
0.000000
10
23.416713
20
-1.808566
30
0.000000
42
0.000000
10
23.447174
20
-1.705964
30
0.000000
42
0.000000
10
23.362222
20
-1.640861
30
0.000000
42
0.000000
10
23.469216
20
-1.638126
30
0.000000
0
LWPOLYLINE
5
60
100
AcDbEntity
67
0
8
0
6
ByLayer
62
8
370
-1
100
AcDbPolyline
90
10
70
1
10
24.834372
20
-2.397931
30
0.000000
42
0.000000
10
24.846260
20
-2.431569
30
0.000000
42
0.000000
10
24.881924
20
-2.432481
30
0.000000
42
0.000000
10
24.853607
20
-2.454181
30
0.000000
42
0.000000
10
24.863761
20
-2.488382
30
0.000000
42
0.000000
10
24.834372
20
-2.468157
30
0.000000
42
0.000000
10
24.804982
20
-2.488382
30
0.000000
42
0.000000
10
24.815136
20
-2.454181
30
0.000000
42
0.000000
10
24.786819
20
-2.432481
30
0.000000
42
0.000000
10
24.822483
20
-2.431569
30
0.000000
0
LWPOLYLINE
5
61
100
AcDbEntity
67
0
8
0
6
ByLayer
62
8
370
-1
100
AcDbPolyline
90
10
70
1
10
25.592038
20
-1.614990
30
0.000000
42
0.000000
10
25.615814
20
-1.682264
30
0.000000
42
0.000000
10
25.687143
20
-1.684088
30
0.000000
42
0.000000
10
25.630509
20
-1.727490
30
0.000000
42
0.000000
10
25.650816
20
-1.795891
30
0.000000
42
0.000000
10
25.592038
20
-1.755440
30
0.000000
42
0.000000
10
25.533259
20
-1.795891
30
0.000000
42
0.000000
10
25.553566
20
-1.727490
30
0.000000
42
0.000000
10
25.496932
20
-1.684088
30
0.000000
42
0.000000
10
25.568261
20
-1.682264
30
0.000000
0
LWPOLYLINE
5
62
100
AcDbEntity
67
0
8
0
6
ByLayer
62
8
370
-1
100
AcDbPolyline
90
10
70
1
10
26.076194
20
-1.651852
30
0.000000
42
0.000000
10
26.099970
20
-1.719126
30
0.000000
42
0.000000
10
26.171299
20
-1.720950
30
0.000000
42
0.000000
10
26.114665
20
-1.764352
30
0.000000
42
0.000000
10
26.134972
20
-1.832754
30
0.000000
42
0.000000
10
26.076194
20
-1.792303
30
0.000000
42
0.000000
10
26.017415
20
-1.832754
30
0.000000
42
0.000000
10
26.037723
20
-1.764352
30
0.000000
42
0.000000
10
25.981088
20
-1.720950
30
0.000000
42
0.000000
10
26.052417
20
-1.719126
30
0.000000
0
LWPOLYLINE
5
63
100
AcDbEntity
67
0
8
0
6
ByLayer
62
8
370
-1
100
AcDbPolyline
90
10
70
1
10
26.501962
20
-1.578710
30
0.000000
42
0.000000
10
26.525739
20
-1.645985
30
0.000000
42
0.000000
10
26.597068
20
-1.647808
30
0.000000
42
0.000000
10
26.540433
20
-1.691210
30
0.000000
42
0.000000
10
26.560741
20
-1.759612
30
0.000000
42
0.000000
10
26.501962
20
-1.719161
30
0.000000
42
0.000000
10
26.443184
20
-1.759612
30
0.000000
42
0.000000
10
26.463491
20
-1.691210
30
0.000000
42
0.000000
10
26.406857
20
-1.647808
30
0.000000
42
0.000000
10
26.478186
20
-1.645985
30
0.000000
0
LWPOLYLINE
5
64
100
AcDbEntity
67
0
8
0
6
ByLayer
62
8
370
-1
100
AcDbPolyline
90
10
70
1
10
26.831590
20
-1.658679
30
0.000000
42
0.000000
10
26.855366
20
-1.725954
30
0.000000
42
0.000000
10
26.926695
20
-1.727777
30
0.000000
42
0.000000
10
26.870061
20
-1.771179
30
0.000000
42
0.000000
10
26.890368
20
-1.839581
30
0.000000
42
0.000000
10
26.831590
20
-1.799130
30
0.000000
42
0.000000
10
26.772811
20
-1.839581
30
0.000000
42
0.000000
10
26.793119
20
-1.771179
30
0.000000
42
0.000000
10
26.736484
20
-1.727777
30
0.000000
42
0.000000
10
26.807813
20
-1.725954
30
0.000000
0
LWPOLYLINE
5
65
100
AcDbEntity
67
0
8
0
6
ByLayer
62
8
370
-1
100
AcDbPolyline
90
10
70
1
10
26.515984
20
-2.310731
30
0.000000
42
0.000000
10
26.539760
20
-2.378006
30
0.000000
42
0.000000
10
26.611089
20
-2.379829
30
0.000000
42
0.000000
10
26.554455
20
-2.423231
30
0.000000
42
0.000000
10
26.574762
20
-2.491633
30
0.000000
42
0.000000
10
26.515984
20
-2.451182
30
0.000000
42
0.000000
10
26.457205
20
-2.491633
30
0.000000
42
0.000000
10
26.477513
20
-2.423231
30
0.000000
42
0.000000
10
26.420878
20
-2.379829
30
0.000000
42
0.000000
10
26.492207
20
-2.378006
30
0.000000
0
LWPOLYLINE
5
66
100
AcDbEntity
67
0
8
0
6
ByLayer
62
8
370
-1
100
AcDbPolyline
90
10
70
1
10
27.615613
20
-0.951265
30
0.000000
42
0.000000
10
27.639389
20
-1.018540
30
0.000000
42
0.000000
10
27.710719
20
-1.020363
30
0.000000
42
0.000000
10
27.654084
20
-1.063765
30
0.000000
42
0.000000
10
27.674392
20
-1.132167
30
0.000000
42
0.000000
10
27.615613
20
-1.091716
30
0.000000
42
0.000000
10
27.556835
20
-1.132167
30
0.000000
42
0.000000
10
27.577142
20
-1.063765
30
0.000000
42
0.000000
10
27.520507
20
-1.020363
30
0.000000
42
0.000000
10
27.591837
20
-1.018540
30
0.000000
0
LWPOLYLINE
5
67
100
AcDbEntity
67
0
8
0
6
ByLayer
62
8
370
-1
100
AcDbPolyline
90
10
70
1
10
25.832803
20
-1.966893
30
0.000000
42
0.000000
10
25.862523
20
-2.050986
30
0.000000
42
0.000000
10
25.951685
20
-2.053266
30
0.000000
42
0.000000
10
25.880892
20
-2.107518
30
0.000000
42
0.000000
10
25.906276
20
-2.193020
30
0.000000
42
0.000000
10
25.832803
20
-2.142456
30
0.000000
42
0.000000
10
25.759330
20
-2.193020
30
0.000000
42
0.000000
10
25.784714
20
-2.107518
30
0.000000
42
0.000000
10
25.713921
20
-2.053266
30
0.000000
42
0.000000
10
25.803082
20
-2.050986
30
0.000000
0
LWPOLYLINE
5
68
100
AcDbEntity
67
0
8
0
6
ByLayer
62
8
370
-1
100
AcDbPolyline
90
10
70
1
10
26.490821
20
-1.938082
30
0.000000
42
0.000000
10
26.520542
20
-2.022175
30
0.000000
42
0.000000
10
26.609703
20
-2.024455
30
0.000000
42
0.000000
10
26.538910
20
-2.078707
30
0.000000
42
0.000000
10
26.564294
20
-2.164209
30
0.000000
42
0.000000
10
26.490821
20
-2.113646
30
0.000000
42
0.000000
10
26.417348
20
-2.164209
30
0.000000
42
0.000000
10
26.442732
20
-2.078707
30
0.000000
42
0.000000
10
26.371939
20
-2.024455
30
0.000000
42
0.000000
10
26.461101
20
-2.022175
30
0.000000
0
LWPOLYLINE
5
69
100
AcDbEntity
67
0
8
0
6
ByLayer
62
8
370
-1
100
AcDbPolyline
90
10
70
1
10
27.098831
20
-1.463306
30
0.000000
42
0.000000
10
27.128552
20
-1.547400
30
0.000000
42
0.000000
10
27.217713
20
-1.549679
30
0.000000
42
0.000000
10
27.146920
20
-1.603931
30
0.000000
42
0.000000
10
27.172304
20
-1.689434
30
0.000000
42
0.000000
10
27.098831
20
-1.638870
30
0.000000
42
0.000000
10
27.025358
20
-1.689434
30
0.000000
42
0.000000
10
27.050742
20
-1.603931
30
0.000000
42
0.000000
10
26.979949
20
-1.549679
30
0.000000
42
0.000000
10
27.069110
20
-1.547400
30
0.000000
0
LWPOLYLINE
5
6A
100
AcDbEntity
67
0
8
0
6
ByLayer
62
8
370
-1
100
AcDbPolyline
90
10
70
1
10
27.290791
20
-1.256192
30
0.000000
42
0.000000
10
27.320511
20
-1.340285
30
0.000000
42
0.000000
10
27.409673
20
-1.342565
30
0.000000
42
0.000000
10
27.338880
20
-1.396817
30
0.000000
42
0.000000
10
27.364264
20
-1.482319
30
0.000000
42
0.000000
10
27.290791
20
-1.431756
30
0.000000
42
0.000000
10
27.217318
20
-1.482319
30
0.000000
42
0.000000
10
27.242702
20
-1.396817
30
0.000000
42
0.000000
10
27.171909
20
-1.342565
30
0.000000
42
0.000000
10
27.261070
20
-1.340285
30
0.000000
0
LWPOLYLINE
5
6B
100
AcDbEntity
67
0
8
0
6
ByLayer
62
8
370
-1
100
AcDbPolyline
90
10
70
1
10
27.169099
20
-0.834939
30
0.000000
42
0.000000
10
27.204764
20
-0.935851
30
0.000000
42
0.000000
10
27.311758
20
-0.938587
30
0.000000
42
0.000000
10
27.226806
20
-1.003689
30
0.000000
42
0.000000
10
27.257267
20
-1.106292
30
0.000000
42
0.000000
10
27.169099
20
-1.045616
30
0.000000
42
0.000000
10
27.080932
20
-1.106292
30
0.000000
42
0.000000
10
27.111393
20
-1.003689
30
0.000000
42
0.000000
10
27.026441
20
-0.938587
30
0.000000
42
0.000000
10
27.133435
20
-0.935851
30
0.000000
0
LWPOLYLINE
5
6C
100
AcDbEntity
67
0
8
0
6
ByLayer
62
5
370
-1
100
AcDbPolyline
90
3
70
0
10
21.500000
20
0.000000
30
0.000000
42
1.000000
10
28.500000
20
0.000000
30
0.000000
42
1.000000
10
21.500000
20
0.000000
30
0.000000
0
LWPOLYLINE
5
6D
100
AcDbEntity
67
0
8
0
6
ByLayer
62
5
370
-1
100
AcDbPolyline
90
2
70
1
10
21.612094
20
0.878686
30
0.000000
42
0.975500
10
28.340736
20
-1.043783
30
0.000000
42
0.230000
0
LWPOLYLINE
5
6E
100
AcDbEntity
67
0
8
0
6
ByLayer
62
5
370
-1
100
AcDbPolyline
90
2
70
1
10
28.465510
20
-0.490147
30
0.000000
42
0.871000
10
21.798641
20
1.414673
30
0.000000
42
-0.214000
0
LWPOLYLINE
5
6F
100
AcDbEntity
67
0
8
0
6
ByLayer
62
8
370
-1
100
AcDbPolyline
90
4
70
1
10
21.798641
20
1.414674
30
0.000000
42
-0.214000
10
28.465510
20
-0.490146
30
0.000000
42
-0.045000
10
28.340736
20
-1.043782
30
0.000000
42
0.230000
10
21.612094
20
0.878687
30
0.000000
42
-0.042000
0
LWPOLYLINE
5
70
100
AcDbEntity
67
0
8
0
6
ByLayer
62
98
370
-1
100
AcDbPolyline
90
4
70
1
10
40.000000
20
-7.000000
30
0.000000
42
0.000000
10
60.000000
20
-7.000000
30
0.000000
42
0.000000
10
60.000000
20
7.000000
30
0.000000
42
0.000000
10
40.000000
20
7.000000
30
0.000000
0
LWPOLYLINE
5
71
100
AcDbEntity
67
0
8
0
6
ByLayer
62
52
370
-1
100
AcDbPolyline
90
4
70
1
10
41.700000
20
0.000000
30
0.000000
42
0.000000
10
50.000000
20
5.300000
30
0.000000
42
0.000000
10
58.300000
20
0.000000
30
0.000000
42
0.000000
10
50.000000
20
-5.300000
30
0.000000
0
LWPOLYLINE
5
72
100
AcDbEntity
67
0
8
0
6
ByLayer
62
8
370
-1
100
AcDbPolyline
90
10
70
1
10
50.836231
20
1.449535
30
0.000000
42
0.000000
10
50.871896
20
1.348623
30
0.000000
42
0.000000
10
50.978890
20
1.345887
30
0.000000
42
0.000000
10
50.893938
20
1.280785
30
0.000000
42
0.000000
10
50.924399
20
1.178182
30
0.000000
42
0.000000
10
50.836231
20
1.238859
30
0.000000
42
0.000000
10
50.748063
20
1.178182
30
0.000000
42
0.000000
10
50.778525
20
1.280785
30
0.000000
42
0.000000
10
50.693573
20
1.345887
30
0.000000
42
0.000000
10
50.800567
20
1.348623
30
0.000000
0
LWPOLYLINE
5
73
100
AcDbEntity
67
0
8
0
6
ByLayer
62
8
370
-1
100
AcDbPolyline
90
10
70
1
10
50.713336
20
0.444364
30
0.000000
42
0.000000
10
50.737113
20
0.377089
30
0.000000
42
0.000000
10
50.808442
20
0.375265
30
0.000000
42
0.000000
10
50.751807
20
0.331864
30
0.000000
42
0.000000
10
50.772115
20
0.263462
30
0.000000
42
0.000000
10
50.713336
20
0.303913
30
0.000000
42
0.000000
10
50.654558
20
0.263462
30
0.000000
42
0.000000
10
50.674865
20
0.331864
30
0.000000
42
0.000000
10
50.618231
20
0.375265
30
0.000000
42
0.000000
10
50.689560
20
0.377089
30
0.000000
0
LWPOLYLINE
5
74
100
AcDbEntity
67
0
8
0
6
ByLayer
62
8
370
-1
100
AcDbPolyline
90
10
70
1
10
47.174932
20
0.805282
30
0.000000
42
0.000000
10
47.210597
20
0.704370
30
0.000000
42
0.000000
10
47.317591
20
0.701635
30
0.000000
42
0.000000
10
47.232639
20
0.636532
30
0.000000
42
0.000000
10
47.263100
20
0.533930
30
0.000000
42
0.000000
10
47.174932
20
0.594606
30
0.000000
42
0.000000
10
47.086765
20
0.533930
30
0.000000
42
0.000000
10
47.117226
20
0.636532
30
0.000000
42
0.000000
10
47.032274
20
0.701635
30
0.000000
42
0.000000
10
47.139268
20
0.704370
30
0.000000
0
LWPOLYLINE
5
75
100
AcDbEntity
67
0
8
0
6
ByLayer
62
8
370
-1
100
AcDbPolyline
90
10
70
1
10
48.651852
20
0.139995
30
0.000000
42
0.000000
10
48.681573
20
0.055902
30
0.000000
42
0.000000
10
48.770735
20
0.053622
30
0.000000
42
0.000000
10
48.699941
20
-0.000630
30
0.000000
42
0.000000
10
48.725326
20
-0.086132
30
0.000000
42
0.000000
10
48.651852
20
-0.035569
30
0.000000
42
0.000000
10
48.578379
20
-0.086132
30
0.000000
42
0.000000
10
48.603764
20
-0.000630
30
0.000000
42
0.000000
10
48.532970
20
0.053622
30
0.000000
42
0.000000
10
48.622132
20
0.055902
30
0.000000
0
LWPOLYLINE
5
76
100
AcDbEntity
67
0
8
0
6
ByLayer
62
8
370
-1
100
AcDbPolyline
90
10
70
1
10
49.824720
20
-0.220446
30
0.000000
42
0.000000
10
49.854440
20
-0.304539
30
0.000000
42
0.000000
10
49.943602
20
-0.306819
30
0.000000
42
0.000000
10
49.872809
20
-0.361071
30
0.000000
42
0.000000
10
49.898193
20
-0.446573
30
0.000000
42
0.000000
10
49.824720
20
-0.396010
30
0.000000
42
0.000000
10
49.751247
20
-0.446573
30
0.000000
42
0.000000
10
49.776631
20
-0.361071
30
0.000000
42
0.000000
10
49.705838
20
-0.306819
30
0.000000
42
0.000000
10
49.794999
20
-0.304539
30
0.000000
0
LWPOLYLINE
5
77
100
AcDbEntity
67
0
8
0
6
ByLayer
62
8
370
-1
100
AcDbPolyline
90
10
70
1
10
49.504615
20
-0.533392
30
0.000000
42
0.000000
10
49.528391
20
-0.600666
30
0.000000
42
0.000000
10
49.599720
20
-0.602490
30
0.000000
42
0.000000
10
49.543086
20
-0.645892
30
0.000000
42
0.000000
10
49.563393
20
-0.714293
30
0.000000
42
0.000000
10
49.504615
20
-0.673843
30
0.000000
42
0.000000
10
49.445836
20
-0.714293
30
0.000000
42
0.000000
10
49.466144
20
-0.645892
30
0.000000
42
0.000000
10
49.409509
20
-0.602490
30
0.000000
42
0.000000
10
49.480838
20
-0.600666
30
0.000000
0
LWPOLYLINE
5
78
100
AcDbEntity
67
0
8
0
6
ByLayer
62
8
370
-1
100
AcDbPolyline
90
10
70
1
10
49.736433
20
-0.812574
30
0.000000
42
0.000000
10
49.753077
20
-0.859667
30
0.000000
42
0.000000
10
49.803007
20
-0.860943
30
0.000000
42
0.000000
10
49.763363
20
-0.891324
30
0.000000
42
0.000000
10
49.777578
20
-0.939206
30
0.000000
42
0.000000
10
49.736433
20
-0.910890
30
0.000000
42
0.000000
10
49.695288
20
-0.939206
30
0.000000
42
0.000000
10
49.709503
20
-0.891324
30
0.000000
42
0.000000
10
49.669859
20
-0.860943
30
0.000000
42
0.000000
10
49.719790
20
-0.859667
30
0.000000
0
LWPOLYLINE
5
79
100
AcDbEntity
67
0
8
0
6
ByLayer
62
8
370
-1
100
AcDbPolyline
90
10
70
1
10
50.169205
20
-0.547294
30
0.000000
42
0.000000
10
50.198925
20
-0.631387
30
0.000000
42
0.000000
10
50.288087
20
-0.633667
30
0.000000
42
0.000000
10
50.217294
20
-0.687919
30
0.000000
42
0.000000
10
50.242678
20
-0.773421
30
0.000000
42
0.000000
10
50.169205
20
-0.722857
30
0.000000
42
0.000000
10
50.095732
20
-0.773421
30
0.000000
42
0.000000
10
50.121116
20
-0.687919
30
0.000000
42
0.000000
10
50.050323
20
-0.633667
30
0.000000
42
0.000000
10
50.139484
20
-0.631387
30
0.000000
0
LWPOLYLINE
5
7A
100
AcDbEntity
67
0
8
0
6
ByLayer
62
8
370
-1
100
AcDbPolyline
90
10
70
1
10
49.840951
20
-1.195969
30
0.000000
42
0.000000
10
49.876616
20
-1.296881
30
0.000000
42
0.000000
10
49.983609
20
-1.299617
30
0.000000
42
0.000000
10
49.898658
20
-1.364719
30
0.000000
42
0.000000
10
49.929119
20
-1.467322
30
0.000000
42
0.000000
10
49.840951
20
-1.406645
30
0.000000
42
0.000000
10
49.752783
20
-1.467322
30
0.000000
42
0.000000
10
49.783244
20
-1.364719
30
0.000000
42
0.000000
10
49.698293
20
-1.299617
30
0.000000
42
0.000000
10
49.805286
20
-1.296881
30
0.000000
0
LWPOLYLINE
5
7B
100
AcDbEntity
67
0
8
0
6
ByLayer
62
8
370
-1
100
AcDbPolyline
90
10
70
1
10
47.751183
20
-0.354996
30
0.000000
42
0.000000
10
47.767826
20
-0.402089
30
0.000000
42
0.000000
10
47.817757
20
-0.403365
30
0.000000
42
0.000000
10
47.778112
20
-0.433746
30
0.000000
42
0.000000
10
47.792328
20
-0.481628
30
0.000000
42
0.000000
10
47.751183
20
-0.453312
30
0.000000
42
0.000000
10
47.710038
20
-0.481628
30
0.000000
42
0.000000
10
47.724253
20
-0.433746
30
0.000000
42
0.000000
10
47.684609
20
-0.403365
30
0.000000
42
0.000000
10
47.734539
20
-0.402089
30
0.000000
0
LWPOLYLINE
5
7C
100
AcDbEntity
67
0
8
0
6
ByLayer
62
8
370
-1
100
AcDbPolyline
90
10
70
1
10
47.410331
20
-0.478631
30
0.000000
42
0.000000
10
47.445996
20
-0.579543
30
0.000000
42
0.000000
10
47.552990
20
-0.582278
30
0.000000
42
0.000000
10
47.468038
20
-0.647381
30
0.000000
42
0.000000
10
47.498499
20
-0.749983
30
0.000000
42
0.000000
10
47.410331
20
-0.689307
30
0.000000
42
0.000000
10
47.322163
20
-0.749983
30
0.000000
42
0.000000
10
47.352625
20
-0.647381
30
0.000000
42
0.000000
10
47.267673
20
-0.582278
30
0.000000
42
0.000000
10
47.374667
20
-0.579543
30
0.000000
0
LWPOLYLINE
5
7D
100
AcDbEntity
67
0
8
0
6
ByLayer
62
8
370
-1
100
AcDbPolyline
90
10
70
1
10
47.002663
20
-0.881655
30
0.000000
42
0.000000
10
47.032384
20
-0.965748
30
0.000000
42
0.000000
10
47.121545
20
-0.968028
30
0.000000
42
0.000000
10
47.050752
20
-1.022280
30
0.000000
42
0.000000
10
47.076136
20
-1.107782
30
0.000000
42
0.000000
10
47.002663
20
-1.057218
30
0.000000
42
0.000000
10
46.929190
20
-1.107782
30
0.000000
42
0.000000
10
46.954574
20
-1.022280
30
0.000000
42
0.000000
10
46.883781
20
-0.968028
30
0.000000
42
0.000000
10
46.972943
20
-0.965748
30
0.000000
0
LWPOLYLINE
5
7E
100
AcDbEntity
67
0
8
0
6
ByLayer
62
8
370
-1
100
AcDbPolyline
90
10
70
1
10
48.082352
20
-0.809215
30
0.000000
42
0.000000
10
48.112073
20
-0.893309
30
0.000000
42
0.000000
10
48.201234
20
-0.895588
30
0.000000
42
0.000000
10
48.130441
20
-0.949840
30
0.000000
42
0.000000
10
48.155825
20
-1.035343
30
0.000000
42
0.000000
10
48.082352
20
-0.984779
30
0.000000
42
0.000000
10
48.008879
20
-1.035343
30
0.000000
42
0.000000
10
48.034263
20
-0.949840
30
0.000000
42
0.000000
10
47.963470
20
-0.895588
30
0.000000
42
0.000000
10
48.052632
20
-0.893309
30
0.000000
0
LWPOLYLINE
5
7F
100
AcDbEntity
67
0
8
0
6
ByLayer
62
8
370
-1
100
AcDbPolyline
90
10
70
1
10
48.006248
20
-1.229625
30
0.000000
42
0.000000
10
48.030024
20
-1.296899
30
0.000000
42
0.000000
10
48.101353
20
-1.298723
30
0.000000
42
0.000000
10
48.044719
20
-1.342125
30
0.000000
42
0.000000
10
48.065026
20
-1.410527
30
0.000000
42
0.000000
10
48.006248
20
-1.370076
30
0.000000
42
0.000000
10
47.947469
20
-1.410527
30
0.000000
42
0.000000
10
47.967777
20
-1.342125
30
0.000000
42
0.000000
10
47.911142
20
-1.298723
30
0.000000
42
0.000000
10
47.982471
20
-1.296899
30
0.000000
0
LWPOLYLINE
5
80
100
AcDbEntity
67
0
8
0
6
ByLayer
62
8
370
-1
100
AcDbPolyline
90
10
70
1
10
48.504881
20
-1.537214
30
0.000000
42
0.000000
10
48.540545
20
-1.638126
30
0.000000
42
0.000000
10
48.647539
20
-1.640861
30
0.000000
42
0.000000
10
48.562587
20
-1.705964
30
0.000000
42
0.000000
10
48.593049
20
-1.808566
30
0.000000
42
0.000000
10
48.504881
20
-1.747890
30
0.000000
42
0.000000
10
48.416713
20
-1.808566
30
0.000000
42
0.000000
10
48.447174
20
-1.705964
30
0.000000
42
0.000000
10
48.362222
20
-1.640861
30
0.000000
42
0.000000
10
48.469216
20
-1.638126
30
0.000000
0
LWPOLYLINE
5
81
100
AcDbEntity
67
0
8
0
6
ByLayer
62
8
370
-1
100
AcDbPolyline
90
10
70
1
10
49.834372
20
-2.397931
30
0.000000
42
0.000000
10
49.846260
20
-2.431569
30
0.000000
42
0.000000
10
49.881924
20
-2.432481
30
0.000000
42
0.000000
10
49.853607
20
-2.454181
30
0.000000
42
0.000000
10
49.863761
20
-2.488382
30
0.000000
42
0.000000
10
49.834372
20
-2.468157
30
0.000000
42
0.000000
10
49.804982
20
-2.488382
30
0.000000
42
0.000000
10
49.815136
20
-2.454181
30
0.000000
42
0.000000
10
49.786819
20
-2.432481
30
0.000000
42
0.000000
10
49.822483
20
-2.431569
30
0.000000
0
LWPOLYLINE
5
82
100
AcDbEntity
67
0
8
0
6
ByLayer
62
8
370
-1
100
AcDbPolyline
90
10
70
1
10
50.592038
20
-1.614990
30
0.000000
42
0.000000
10
50.615814
20
-1.682264
30
0.000000
42
0.000000
10
50.687143
20
-1.684088
30
0.000000
42
0.000000
10
50.630509
20
-1.727490
30
0.000000
42
0.000000
10
50.650816
20
-1.795891
30
0.000000
42
0.000000
10
50.592038
20
-1.755440
30
0.000000
42
0.000000
10
50.533259
20
-1.795891
30
0.000000
42
0.000000
10
50.553566
20
-1.727490
30
0.000000
42
0.000000
10
50.496932
20
-1.684088
30
0.000000
42
0.000000
10
50.568261
20
-1.682264
30
0.000000
0
LWPOLYLINE
5
83
100
AcDbEntity
67
0
8
0
6
ByLayer
62
8
370
-1
100
AcDbPolyline
90
10
70
1
10
51.076194
20
-1.651852
30
0.000000
42
0.000000
10
51.099970
20
-1.719126
30
0.000000
42
0.000000
10
51.171299
20
-1.720950
30
0.000000
42
0.000000
10
51.114665
20
-1.764352
30
0.000000
42
0.000000
10
51.134972
20
-1.832754
30
0.000000
42
0.000000
10
51.076194
20
-1.792303
30
0.000000
42
0.000000
10
51.017415
20
-1.832754
30
0.000000
42
0.000000
10
51.037723
20
-1.764352
30
0.000000
42
0.000000
10
50.981088
20
-1.720950
30
0.000000
42
0.000000
10
51.052417
20
-1.719126
30
0.000000
0
LWPOLYLINE
5
84
100
AcDbEntity
67
0
8
0
6
ByLayer
62
8
370
-1
100
AcDbPolyline
90
10
70
1
10
51.501962
20
-1.578710
30
0.000000
42
0.000000
10
51.525739
20
-1.645985
30
0.000000
42
0.000000
10
51.597068
20
-1.647808
30
0.000000
42
0.000000
10
51.540433
20
-1.691210
30
0.000000
42
0.000000
10
51.560741
20
-1.759612
30
0.000000
42
0.000000
10
51.501962
20
-1.719161
30
0.000000
42
0.000000
10
51.443184
20
-1.759612
30
0.000000
42
0.000000
10
51.463491
20
-1.691210
30
0.000000
42
0.000000
10
51.406857
20
-1.647808
30
0.000000
42
0.000000
10
51.478186
20
-1.645985
30
0.000000
0
LWPOLYLINE
5
85
100
AcDbEntity
67
0
8
0
6
ByLayer
62
8
370
-1
100
AcDbPolyline
90
10
70
1
10
51.831590
20
-1.658679
30
0.000000
42
0.000000
10
51.855366
20
-1.725954
30
0.000000
42
0.000000
10
51.926695
20
-1.727777
30
0.000000
42
0.000000
10
51.870061
20
-1.771179
30
0.000000
42
0.000000
10
51.890368
20
-1.839581
30
0.000000
42
0.000000
10
51.831590
20
-1.799130
30
0.000000
42
0.000000
10
51.772811
20
-1.839581
30
0.000000
42
0.000000
10
51.793119
20
-1.771179
30
0.000000
42
0.000000
10
51.736484
20
-1.727777
30
0.000000
42
0.000000
10
51.807813
20
-1.725954
30
0.000000
0
LWPOLYLINE
5
86
100
AcDbEntity
67
0
8
0
6
ByLayer
62
8
370
-1
100
AcDbPolyline
90
10
70
1
10
51.515984
20
-2.310731
30
0.000000
42
0.000000
10
51.539760
20
-2.378006
30
0.000000
42
0.000000
10
51.611089
20
-2.379829
30
0.000000
42
0.000000
10
51.554455
20
-2.423231
30
0.000000
42
0.000000
10
51.574762
20
-2.491633
30
0.000000
42
0.000000
10
51.515984
20
-2.451182
30
0.000000
42
0.000000
10
51.457205
20
-2.491633
30
0.000000
42
0.000000
10
51.477513
20
-2.423231
30
0.000000
42
0.000000
10
51.420878
20
-2.379829
30
0.000000
42
0.000000
10
51.492207
20
-2.378006
30
0.000000
0
LWPOLYLINE
5
87
100
AcDbEntity
67
0
8
0
6
ByLayer
62
8
370
-1
100
AcDbPolyline
90
10
70
1
10
52.615613
20
-0.951265
30
0.000000
42
0.000000
10
52.639389
20
-1.018540
30
0.000000
42
0.000000
10
52.710719
20
-1.020363
30
0.000000
42
0.000000
10
52.654084
20
-1.063765
30
0.000000
42
0.000000
10
52.674392
20
-1.132167
30
0.000000
42
0.000000
10
52.615613
20
-1.091716
30
0.000000
42
0.000000
10
52.556835
20
-1.132167
30
0.000000
42
0.000000
10
52.577142
20
-1.063765
30
0.000000
42
0.000000
10
52.520507
20
-1.020363
30
0.000000
42
0.000000
10
52.591837
20
-1.018540
30
0.000000
0
LWPOLYLINE
5
88
100
AcDbEntity
67
0
8
0
6
ByLayer
62
8
370
-1
100
AcDbPolyline
90
10
70
1
10
50.832803
20
-1.966893
30
0.000000
42
0.000000
10
50.862523
20
-2.050986
30
0.000000
42
0.000000
10
50.951685
20
-2.053266
30
0.000000
42
0.000000
10
50.880892
20
-2.107518
30
0.000000
42
0.000000
10
50.906276
20
-2.193020
30
0.000000
42
0.000000
10
50.832803
20
-2.142456
30
0.000000
42
0.000000
10
50.759330
20
-2.193020
30
0.000000
42
0.000000
10
50.784714
20
-2.107518
30
0.000000
42
0.000000
10
50.713921
20
-2.053266
30
0.000000
42
0.000000
10
50.803082
20
-2.050986
30
0.000000
0
LWPOLYLINE
5
89
100
AcDbEntity
67
0
8
0
6
ByLayer
62
8
370
-1
100
AcDbPolyline
90
10
70
1
10
51.490821
20
-1.938082
30
0.000000
42
0.000000
10
51.520542
20
-2.022175
30
0.000000
42
0.000000
10
51.609703
20
-2.024455
30
0.000000
42
0.000000
10
51.538910
20
-2.078707
30
0.000000
42
0.000000
10
51.564294
20
-2.164209
30
0.000000
42
0.000000
10
51.490821
20
-2.113646
30
0.000000
42
0.000000
10
51.417348
20
-2.164209
30
0.000000
42
0.000000
10
51.442732
20
-2.078707
30
0.000000
42
0.000000
10
51.371939
20
-2.024455
30
0.000000
42
0.000000
10
51.461101
20
-2.022175
30
0.000000
0
LWPOLYLINE
5
8A
100
AcDbEntity
67
0
8
0
6
ByLayer
62
8
370
-1
100
AcDbPolyline
90
10
70
1
10
52.098831
20
-1.463306
30
0.000000
42
0.000000
10
52.128552
20
-1.547400
30
0.000000
42
0.000000
10
52.217713
20
-1.549679
30
0.000000
42
0.000000
10
52.146920
20
-1.603931
30
0.000000
42
0.000000
10
52.172304
20
-1.689434
30
0.000000
42
0.000000
10
52.098831
20
-1.638870
30
0.000000
42
0.000000
10
52.025358
20
-1.689434
30
0.000000
42
0.000000
10
52.050742
20
-1.603931
30
0.000000
42
0.000000
10
51.979949
20
-1.549679
30
0.000000
42
0.000000
10
52.069110
20
-1.547400
30
0.000000
0
LWPOLYLINE
5
8B
100
AcDbEntity
67
0
8
0
6
ByLayer
62
8
370
-1
100
AcDbPolyline
90
10
70
1
10
52.290791
20
-1.256192
30
0.000000
42
0.000000
10
52.320511
20
-1.340285
30
0.000000
42
0.000000
10
52.409673
20
-1.342565
30
0.000000
42
0.000000
10
52.338880
20
-1.396817
30
0.000000
42
0.000000
10
52.364264
20
-1.482319
30
0.000000
42
0.000000
10
52.290791
20
-1.431756
30
0.000000
42
0.000000
10
52.217318
20
-1.482319
30
0.000000
42
0.000000
10
52.242702
20
-1.396817
30
0.000000
42
0.000000
10
52.171909
20
-1.342565
30
0.000000
42
0.000000
10
52.261070
20
-1.340285
30
0.000000
0
LWPOLYLINE
5
8C
100
AcDbEntity
67
0
8
0
6
ByLayer
62
8
370
-1
100
AcDbPolyline
90
10
70
1
10
52.169099
20
-0.834939
30
0.000000
42
0.000000
10
52.204764
20
-0.935851
30
0.000000
42
0.000000
10
52.311758
20
-0.938587
30
0.000000
42
0.000000
10
52.226806
20
-1.003689
30
0.000000
42
0.000000
10
52.257267
20
-1.106292
30
0.000000
42
0.000000
10
52.169099
20
-1.045616
30
0.000000
42
0.000000
10
52.080932
20
-1.106292
30
0.000000
42
0.000000
10
52.111393
20
-1.003689
30
0.000000
42
0.000000
10
52.026441
20
-0.938587
30
0.000000
42
0.000000
10
52.133435
20
-0.935851
30
0.000000
0
LWPOLYLINE
5
8D
100
AcDbEntity
67
0
8
0
6
ByLayer
62
5
370
-1
100
AcDbPolyline
90
3
70
0
10
46.500000
20
0.000000
30
0.000000
42
1.000000
10
53.500000
20
0.000000
30
0.000000
42
1.000000
10
46.500000
20
0.000000
30
0.000000
0
LWPOLYLINE
5
8E
100
AcDbEntity
67
0
8
0
6
ByLayer
62
5
370
-1
100
AcDbPolyline
90
2
70
1
10
46.612094
20
0.878686
30
0.000000
42
0.975500
10
53.340736
20
-1.043783
30
0.000000
42
0.230000
0
LWPOLYLINE
5
8F
100
AcDbEntity
67
0
8
0
6
ByLayer
62
5
370
-1
100
AcDbPolyline
90
2
70
1
10
53.465510
20
-0.490147
30
0.000000
42
0.871000
10
46.798641
20
1.414673
30
0.000000
42
-0.214000
0
LWPOLYLINE
5
90
100
AcDbEntity
67
0
8
0
6
ByLayer
62
8
370
-1
100
AcDbPolyline
90
4
70
1
10
46.798641
20
1.414674
30
0.000000
42
-0.214000
10
53.465510
20
-0.490146
30
0.000000
42
-0.045000
10
53.340736
20
-1.043782
30
0.000000
42
0.230000
10
46.612094
20
0.878687
30
0.000000
42
-0.042000
0
HATCH
5
91
100
AcDbEntity
67
0
8
0
6
ByLayer
62
98
370
-1
100
AcDbHatch
10
0.000000
20
0.000000
30
0.000000
210
0.000000
220
0.000000
230
1.000000
2
SOLID
70
1
71
0
91
2
92
2
72
1
73
1
93
4
10
15.000000
20
-7.000000
42
0.000000
10
35.000000
20
-7.000000
42
0.000000
10
35.000000
20
7.000000
42
0.000000
10
15.000000
20
7.000000
42
0.000000
97
0
92
2
72
1
73
1
93
4
10
16.700000
20
0.000000
42
0.000000
10
25.000000
20
5.300000
42
0.000000
10
33.300000
20
0.000000
42
0.000000
10
25.000000
20
-5.300000
42
0.000000
97
0
75
0
76
0
98
0
0
HATCH
5
92
100
AcDbEntity
67
0
8
0
6
ByLayer
62
52
370
-1
100
AcDbHatch
10
0.000000
20
0.000000
30
0.000000
210
0.000000
220
0.000000
230
1.000000
2
SOLID
70
1
71
0
91
2
92
2
72
1
73
1
93
4
10
16.700000
20
0.000000
42
0.000000
10
25.000000
20
5.300000
42
0.000000
10
33.300000
20
0.000000
42
0.000000
10
25.000000
20
-5.300000
42
0.000000
97
0
92
2
72
1
73
0
93
3
10
21.500000
20
0.000000
42
1.000000
10
28.500000
20
0.000000
42
1.000000
10
21.500000
20
0.000000
42
0.000000
97
0
75
0
76
0
98
0
0
HATCH
5
93
100
AcDbEntity
67
0
8
0
6
ByLayer
62
5
370
-1
100
AcDbHatch
10
0.000000
20
0.000000
30
0.000000
210
0.000000
220
0.000000
230
1.000000
2
SOLID
70
1
71
0
91
2
92
2
72
1
73
1
93
2
10
28.465510
20
-0.490147
42
0.871000
10
21.798641
20
1.414673
42
-0.214000
97
0
92
2
72
1
73
1
93
10
10
25.836231
20
1.449535
42
0.000000
10
25.871896
20
1.348623
42
0.000000
10
25.978890
20
1.345887
42
0.000000
10
25.893938
20
1.280785
42
0.000000
10
25.924399
20
1.178182
42
0.000000
10
25.836231
20
1.238859
42
0.000000
10
25.748063
20
1.178182
42
0.000000
10
25.778525
20
1.280785
42
0.000000
10
25.693573
20
1.345887
42
0.000000
10
25.800567
20
1.348623
42
0.000000
97
0
75
0
76
0
98
0
0
HATCH
5
94
100
AcDbEntity
67
0
8
0
6
ByLayer
62
5
370
-1
100
AcDbHatch
10
0.000000
20
0.000000
30
0.000000
210
0.000000
220
0.000000
230
1.000000
2
SOLID
70
1
71
0
91
2
92
2
72
1
73
1
93
2
10
28.465510
20
-0.490147
42
0.871000
10
21.798641
20
1.414673
42
-0.214000
97
0
92
2
72
1
73
1
93
10
10
25.836231
20
1.449535
42
0.000000
10
25.871896
20
1.348623
42
0.000000
10
25.978890
20
1.345887
42
0.000000
10
25.893938
20
1.280785
42
0.000000
10
25.924399
20
1.178182
42
0.000000
10
25.836231
20
1.238859
42
0.000000
10
25.748063
20
1.178182
42
0.000000
10
25.778525
20
1.280785
42
0.000000
10
25.693573
20
1.345887
42
0.000000
10
25.800567
20
1.348623
42
0.000000
97
0
75
0
76
0
98
0
0
HATCH
5
95
100
AcDbEntity
67
0
8
0
6
ByLayer
62
5
370
-1
100
AcDbHatch
10
0.000000
20
0.000000
30
0.000000
210
0.000000
220
0.000000
230
1.000000
2
SOLID
70
1
71
0
91
27
92
2
72
1
73
1
93
10
10
25.713336
20
0.444364
42
0.000000
10
25.737113
20
0.377089
42
0.000000
10
25.808442
20
0.375265
42
0.000000
10
25.751807
20
0.331864
42
0.000000
10
25.772115
20
0.263462
42
0.000000
10
25.713336
20
0.303913
42
0.000000
10
25.654558
20
0.263462
42
0.000000
10
25.674865
20
0.331864
42
0.000000
10
25.618231
20
0.375265
42
0.000000
10
25.689560
20
0.377089
42
0.000000
97
0
92
2
72
1
73
1
93
10
10
22.174932
20
0.805282
42
0.000000
10
22.210597
20
0.704370
42
0.000000
10
22.317591
20
0.701635
42
0.000000
10
22.232639
20
0.636532
42
0.000000
10
22.263100
20
0.533930
42
0.000000
10
22.174932
20
0.594606
42
0.000000
10
22.086765
20
0.533930
42
0.000000
10
22.117226
20
0.636532
42
0.000000
10
22.032274
20
0.701635
42
0.000000
10
22.139268
20
0.704370
42
0.000000
97
0
92
2
72
1
73
1
93
10
10
23.651852
20
0.139995
42
0.000000
10
23.681573
20
0.055902
42
0.000000
10
23.770735
20
0.053622
42
0.000000
10
23.699941
20
-0.000630
42
0.000000
10
23.725326
20
-0.086132
42
0.000000
10
23.651852
20
-0.035569
42
0.000000
10
23.578379
20
-0.086132
42
0.000000
10
23.603764
20
-0.000630
42
0.000000
10
23.532970
20
0.053622
42
0.000000
10
23.622132
20
0.055902
42
0.000000
97
0
92
2
72
1
73
1
93
10
10
24.824720
20
-0.220446
42
0.000000
10
24.854440
20
-0.304539
42
0.000000
10
24.943602
20
-0.306819
42
0.000000
10
24.872809
20
-0.361071
42
0.000000
10
24.898193
20
-0.446573
42
0.000000
10
24.824720
20
-0.396010
42
0.000000
10
24.751247
20
-0.446573
42
0.000000
10
24.776631
20
-0.361071
42
0.000000
10
24.705838
20
-0.306819
42
0.000000
10
24.794999
20
-0.304539
42
0.000000
97
0
92
2
72
1
73
1
93
10
10
24.504615
20
-0.533392
42
0.000000
10
24.528391
20
-0.600666
42
0.000000
10
24.599720
20
-0.602490
42
0.000000
10
24.543086
20
-0.645892
42
0.000000
10
24.563393
20
-0.714293
42
0.000000
10
24.504615
20
-0.673843
42
0.000000
10
24.445836
20
-0.714293
42
0.000000
10
24.466144
20
-0.645892
42
0.000000
10
24.409509
20
-0.602490
42
0.000000
10
24.480838
20
-0.600666
42
0.000000
97
0
92
2
72
1
73
1
93
10
10
24.736433
20
-0.812574
42
0.000000
10
24.753077
20
-0.859667
42
0.000000
10
24.803007
20
-0.860943
42
0.000000
10
24.763363
20
-0.891324
42
0.000000
10
24.777578
20
-0.939206
42
0.000000
10
24.736433
20
-0.910890
42
0.000000
10
24.695288
20
-0.939206
42
0.000000
10
24.709503
20
-0.891324
42
0.000000
10
24.669859
20
-0.860943
42
0.000000
10
24.719790
20
-0.859667
42
0.000000
97
0
92
2
72
1
73
1
93
10
10
25.169205
20
-0.547294
42
0.000000
10
25.198925
20
-0.631387
42
0.000000
10
25.288087
20
-0.633667
42
0.000000
10
25.217294
20
-0.687919
42
0.000000
10
25.242678
20
-0.773421
42
0.000000
10
25.169205
20
-0.722857
42
0.000000
10
25.095732
20
-0.773421
42
0.000000
10
25.121116
20
-0.687919
42
0.000000
10
25.050323
20
-0.633667
42
0.000000
10
25.139484
20
-0.631387
42
0.000000
97
0
92
2
72
1
73
1
93
10
10
24.840951
20
-1.195969
42
0.000000
10
24.876616
20
-1.296881
42
0.000000
10
24.983609
20
-1.299617
42
0.000000
10
24.898658
20
-1.364719
42
0.000000
10
24.929119
20
-1.467322
42
0.000000
10
24.840951
20
-1.406645
42
0.000000
10
24.752783
20
-1.467322
42
0.000000
10
24.783244
20
-1.364719
42
0.000000
10
24.698293
20
-1.299617
42
0.000000
10
24.805286
20
-1.296881
42
0.000000
97
0
92
2
72
1
73
1
93
10
10
22.751183
20
-0.354996
42
0.000000
10
22.767826
20
-0.402089
42
0.000000
10
22.817757
20
-0.403365
42
0.000000
10
22.778112
20
-0.433746
42
0.000000
10
22.792328
20
-0.481628
42
0.000000
10
22.751183
20
-0.453312
42
0.000000
10
22.710038
20
-0.481628
42
0.000000
10
22.724253
20
-0.433746
42
0.000000
10
22.684609
20
-0.403365
42
0.000000
10
22.734539
20
-0.402089
42
0.000000
97
0
92
2
72
1
73
1
93
10
10
22.410331
20
-0.478631
42
0.000000
10
22.445996
20
-0.579543
42
0.000000
10
22.552990
20
-0.582278
42
0.000000
10
22.468038
20
-0.647381
42
0.000000
10
22.498499
20
-0.749983
42
0.000000
10
22.410331
20
-0.689307
42
0.000000
10
22.322163
20
-0.749983
42
0.000000
10
22.352625
20
-0.647381
42
0.000000
10
22.267673
20
-0.582278
42
0.000000
10
22.374667
20
-0.579543
42
0.000000
97
0
92
2
72
1
73
1
93
10
10
22.002663
20
-0.881655
42
0.000000
10
22.032384
20
-0.965748
42
0.000000
10
22.121545
20
-0.968028
42
0.000000
10
22.050752
20
-1.022280
42
0.000000
10
22.076136
20
-1.107782
42
0.000000
10
22.002663
20
-1.057218
42
0.000000
10
21.929190
20
-1.107782
42
0.000000
10
21.954574
20
-1.022280
42
0.000000
10
21.883781
20
-0.968028
42
0.000000
10
21.972943
20
-0.965748
42
0.000000
97
0
92
2
72
1
73
1
93
10
10
23.082352
20
-0.809215
42
0.000000
10
23.112073
20
-0.893309
42
0.000000
10
23.201234
20
-0.895588
42
0.000000
10
23.130441
20
-0.949840
42
0.000000
10
23.155825
20
-1.035343
42
0.000000
10
23.082352
20
-0.984779
42
0.000000
10
23.008879
20
-1.035343
42
0.000000
10
23.034263
20
-0.949840
42
0.000000
10
22.963470
20
-0.895588
42
0.000000
10
23.052632
20
-0.893309
42
0.000000
97
0
92
2
72
1
73
1
93
10
10
23.006248
20
-1.229625
42
0.000000
10
23.030024
20
-1.296899
42
0.000000
10
23.101353
20
-1.298723
42
0.000000
10
23.044719
20
-1.342125
42
0.000000
10
23.065026
20
-1.410527
42
0.000000
10
23.006248
20
-1.370076
42
0.000000
10
22.947469
20
-1.410527
42
0.000000
10
22.967777
20
-1.342125
42
0.000000
10
22.911142
20
-1.298723
42
0.000000
10
22.982471
20
-1.296899
42
0.000000
97
0
92
2
72
1
73
1
93
10
10
23.504881
20
-1.537214
42
0.000000
10
23.540545
20
-1.638126
42
0.000000
10
23.647539
20
-1.640861
42
0.000000
10
23.562587
20
-1.705964
42
0.000000
10
23.593049
20
-1.808566
42
0.000000
10
23.504881
20
-1.747890
42
0.000000
10
23.416713
20
-1.808566
42
0.000000
10
23.447174
20
-1.705964
42
0.000000
10
23.362222
20
-1.640861
42
0.000000
10
23.469216
20
-1.638126
42
0.000000
97
0
92
2
72
1
73
1
93
10
10
24.834372
20
-2.397931
42
0.000000
10
24.846260
20
-2.431569
42
0.000000
10
24.881924
20
-2.432481
42
0.000000
10
24.853607
20
-2.454181
42
0.000000
10
24.863761
20
-2.488382
42
0.000000
10
24.834372
20
-2.468157
42
0.000000
10
24.804982
20
-2.488382
42
0.000000
10
24.815136
20
-2.454181
42
0.000000
10
24.786819
20
-2.432481
42
0.000000
10
24.822483
20
-2.431569
42
0.000000
97
0
92
2
72
1
73
1
93
10
10
25.592038
20
-1.614990
42
0.000000
10
25.615814
20
-1.682264
42
0.000000
10
25.687143
20
-1.684088
42
0.000000
10
25.630509
20
-1.727490
42
0.000000
10
25.650816
20
-1.795891
42
0.000000
10
25.592038
20
-1.755440
42
0.000000
10
25.533259
20
-1.795891
42
0.000000
10
25.553566
20
-1.727490
42
0.000000
10
25.496932
20
-1.684088
42
0.000000
10
25.568261
20
-1.682264
42
0.000000
97
0
92
2
72
1
73
1
93
10
10
26.076194
20
-1.651852
42
0.000000
10
26.099970
20
-1.719126
42
0.000000
10
26.171299
20
-1.720950
42
0.000000
10
26.114665
20
-1.764352
42
0.000000
10
26.134972
20
-1.832754
42
0.000000
10
26.076194
20
-1.792303
42
0.000000
10
26.017415
20
-1.832754
42
0.000000
10
26.037723
20
-1.764352
42
0.000000
10
25.981088
20
-1.720950
42
0.000000
10
26.052417
20
-1.719126
42
0.000000
97
0
92
2
72
1
73
1
93
10
10
26.501962
20
-1.578710
42
0.000000
10
26.525739
20
-1.645985
42
0.000000
10
26.597068
20
-1.647808
42
0.000000
10
26.540433
20
-1.691210
42
0.000000
10
26.560741
20
-1.759612
42
0.000000
10
26.501962
20
-1.719161
42
0.000000
10
26.443184
20
-1.759612
42
0.000000
10
26.463491
20
-1.691210
42
0.000000
10
26.406857
20
-1.647808
42
0.000000
10
26.478186
20
-1.645985
42
0.000000
97
0
92
2
72
1
73
1
93
10
10
26.831590
20
-1.658679
42
0.000000
10
26.855366
20
-1.725954
42
0.000000
10
26.926695
20
-1.727777
42
0.000000
10
26.870061
20
-1.771179
42
0.000000
10
26.890368
20
-1.839581
42
0.000000
10
26.831590
20
-1.799130
42
0.000000
10
26.772811
20
-1.839581
42
0.000000
10
26.793119
20
-1.771179
42
0.000000
10
26.736484
20
-1.727777
42
0.000000
10
26.807813
20
-1.725954
42
0.000000
97
0
92
2
72
1
73
1
93
10
10
26.515984
20
-2.310731
42
0.000000
10
26.539760
20
-2.378006
42
0.000000
10
26.611089
20
-2.379829
42
0.000000
10
26.554455
20
-2.423231
42
0.000000
10
26.574762
20
-2.491633
42
0.000000
10
26.515984
20
-2.451182
42
0.000000
10
26.457205
20
-2.491633
42
0.000000
10
26.477513
20
-2.423231
42
0.000000
10
26.420878
20
-2.379829
42
0.000000
10
26.492207
20
-2.378006
42
0.000000
97
0
92
2
72
1
73
1
93
10
10
27.615613
20
-0.951265
42
0.000000
10
27.639389
20
-1.018540
42
0.000000
10
27.710719
20
-1.020363
42
0.000000
10
27.654084
20
-1.063765
42
0.000000
10
27.674392
20
-1.132167
42
0.000000
10
27.615613
20
-1.091716
42
0.000000
10
27.556835
20
-1.132167
42
0.000000
10
27.577142
20
-1.063765
42
0.000000
10
27.520507
20
-1.020363
42
0.000000
10
27.591837
20
-1.018540
42
0.000000
97
0
92
2
72
1
73
1
93
10
10
25.832803
20
-1.966893
42
0.000000
10
25.862523
20
-2.050986
42
0.000000
10
25.951685
20
-2.053266
42
0.000000
10
25.880892
20
-2.107518
42
0.000000
10
25.906276
20
-2.193020
42
0.000000
10
25.832803
20
-2.142456
42
0.000000
10
25.759330
20
-2.193020
42
0.000000
10
25.784714
20
-2.107518
42
0.000000
10
25.713921
20
-2.053266
42
0.000000
10
25.803082
20
-2.050986
42
0.000000
97
0
92
2
72
1
73
1
93
10
10
26.490821
20
-1.938082
42
0.000000
10
26.520542
20
-2.022175
42
0.000000
10
26.609703
20
-2.024455
42
0.000000
10
26.538910
20
-2.078707
42
0.000000
10
26.564294
20
-2.164209
42
0.000000
10
26.490821
20
-2.113646
42
0.000000
10
26.417348
20
-2.164209
42
0.000000
10
26.442732
20
-2.078707
42
0.000000
10
26.371939
20
-2.024455
42
0.000000
10
26.461101
20
-2.022175
42
0.000000
97
0
92
2
72
1
73
1
93
10
10
27.098831
20
-1.463306
42
0.000000
10
27.128552
20
-1.547400
42
0.000000
10
27.217713
20
-1.549679
42
0.000000
10
27.146920
20
-1.603931
42
0.000000
10
27.172304
20
-1.689434
42
0.000000
10
27.098831
20
-1.638870
42
0.000000
10
27.025358
20
-1.689434
42
0.000000
10
27.050742
20
-1.603931
42
0.000000
10
26.979949
20
-1.549679
42
0.000000
10
27.069110
20
-1.547400
42
0.000000
97
0
92
2
72
1
73
1
93
10
10
27.290791
20
-1.256192
42
0.000000
10
27.320511
20
-1.340285
42
0.000000
10
27.409673
20
-1.342565
42
0.000000
10
27.338880
20
-1.396817
42
0.000000
10
27.364264
20
-1.482319
42
0.000000
10
27.290791
20
-1.431756
42
0.000000
10
27.217318
20
-1.482319
42
0.000000
10
27.242702
20
-1.396817
42
0.000000
10
27.171909
20
-1.342565
42
0.000000
10
27.261070
20
-1.340285
42
0.000000
97
0
92
2
72
1
73
1
93
10
10
27.169099
20
-0.834939
42
0.000000
10
27.204764
20
-0.935851
42
0.000000
10
27.311758
20
-0.938587
42
0.000000
10
27.226806
20
-1.003689
42
0.000000
10
27.257267
20
-1.106292
42
0.000000
10
27.169099
20
-1.045616
42
0.000000
10
27.080932
20
-1.106292
42
0.000000
10
27.111393
20
-1.003689
42
0.000000
10
27.026441
20
-0.938587
42
0.000000
10
27.133435
20
-0.935851
42
0.000000
97
0
92
2
72
1
73
1
93
2
10
21.612094
20
0.878686
42
0.975500
10
28.340736
20
-1.043783
42
0.230000
97
0
75
0
76
0
98
0
0
MTEXT
5
96
100
AcDbEntity
67
0
8
0
6
ByLayer
62
7
370
40
100
AcDbMText
10
-2.948231
20
1.195325
30
0.000000
40
0.300000
41
0.000000
71
5
72
1
1
O
7
texto
11
0.993373
21
0.114937
31
0.000000
0
MTEXT
5
97
100
AcDbEntity
67
0
8
0
6
ByLayer
62
7
370
40
100
AcDbMText
10
-2.546760
20
1.231862
30
0.000000
40
0.300000
41
0.000000
71
5
72
1
1
R
7
texto
11
0.997801
21
0.066274
31
0.000000
0
MTEXT
5
98
100
AcDbEntity
67
0
8
0
6
ByLayer
62
7
370
40
100
AcDbMText
10
-2.153040
20
1.252913
30
0.000000
40
0.300000
41
0.000000
71
5
72
1
1
D
7
texto
11
0.999848
21
0.017452
31
0.000000
0
MTEXT
5
99
100
AcDbEntity
67
0
8
0
6
ByLayer
62
7
370
40
100
AcDbMText
10
-1.740861
20
1.245929
30
0.000000
40
0.300000
41
0.000000
71
5
72
1
1
E
7
texto
11
0.999507
21
-0.031411
31
0.000000
0
MTEXT
5
9A
100
AcDbEntity
67
0
8
0
6
ByLayer
62
7
370
40
100
AcDbMText
10
-0.539636
20
1.110210
30
0.000000
40
0.300000
41
0.000000
71
5
72
1
1
E
7
texto
11
0.984196
21
-0.177085
31
0.000000
0
MTEXT
5
9B
100
AcDbEntity
67
0
8
0
6
ByLayer
62
7
370
40
100
AcDbMText
10
2.102723
20
0.143564
30
0.000000
40
0.300000
41
0.000000
71
5
72
1
1
E
7
texto
11
0.867765
21
-0.496974
31
0.000000
0
MTEXT
5
9C
100
AcDbEntity
67
0
8
0
6
ByLayer
62
7
370
40
100
AcDbMText
10
-1.338359
20
1.223426
30
0.000000
40
0.300000
41
0.000000
71
5
72
1
1
M
7
texto
11
0.996779
21
-0.080199
31
0.000000
0
MTEXT
5
9D
100
AcDbEntity
67
0
8
0
6
ByLayer
62
7
370
40
100
AcDbMText
10
0.246312
20
0.938298
30
0.000000
40
0.300000
41
0.000000
71
5
72
1
1
P
7
texto
11
0.962218
21
-0.272280
31
0.000000
0
MTEXT
5
9E
100
AcDbEntity
67
0
8
0
6
ByLayer
62
7
370
40
100
AcDbMText
10
0.631414
20
0.819089
30
0.000000
40
0.300000
41
0.000000
71
5
72
1
1
R
7
texto
11
0.947768
21
-0.318959
31
0.000000
0
MTEXT
5
9F
100
AcDbEntity
67
0
8
0
6
ByLayer
62
7
370
40
100
AcDbMText
10
1.745422
20
0.350804
30
0.000000
40
0.300000
41
0.000000
71
5
72
1
1
R
7
texto
11
0.891007
21
-0.453990
31
0.000000
0
MTEXT
5
A0
100
AcDbEntity
67
0
8
0
6
ByLayer
62
7
370
40
100
AcDbMText
10
1.010234
20
0.681210
30
0.000000
40
0.300000
41
0.000000
71
5
72
1
1
O
7
texto
11
0.931056
21
-0.364877
31
0.000000
0
MTEXT
5
A1
100
AcDbEntity
67
0
8
0
6
ByLayer
62
7
370
40
100
AcDbMText
10
3.101869
20
-0.516681
30
0.000000
40
0.300000
41
0.000000
71
5
72
1
1
O
7
texto
11
0.785857
21
-0.618408
31
0.000000
0
MTEXT
5
A2
100
AcDbEntity
67
0
8
0
6
ByLayer
62
7
370
40
100
AcDbMText
10
1.381865
20
0.524991
30
0.000000
40
0.300000
41
0.000000
71
5
72
1
1
G
7
texto
11
0.912120
21
-0.409923
31
0.000000
0
MTEXT
5
A3
100
AcDbEntity
67
0
8
0
6
ByLayer
62
7
370
40
100
AcDbMText
10
2.444859
20
-0.049768
30
0.000000
40
0.300000
41
0.000000
71
5
72
1
1
S
7
texto
11
0.842452
21
-0.538771
31
0.000000
0
MTEXT
5
A4
100
AcDbEntity
67
0
8
0
6
ByLayer
62
7
370
40
100
AcDbMText
10
2.779070
20
-0.275196
30
0.000000
40
0.300000
41
0.000000
71
5
72
1
1
S
7
texto
11
0.815128
21
-0.579281
31
0.000000
0
MTEXT
5
A5
100
AcDbEntity
67
0
8
0
6
ByLayer
62
7
370
40
100
AcDbMText
10
22.051769
20
1.195325
30
0.000000
40
0.300000
41
0.000000
71
5
72
1
1
O
7
texto
11
0.993373
21
0.114937
31
0.000000
0
MTEXT
5
A6
100
AcDbEntity
67
0
8
0
6
ByLayer
62
7
370
40
100
AcDbMText
10
22.453240
20
1.231862
30
0.000000
40
0.300000
41
0.000000
71
5
72
1
1
R
7
texto
11
0.997801
21
0.066274
31
0.000000
0
MTEXT
5
A7
100
AcDbEntity
67
0
8
0
6
ByLayer
62
7
370
40
100
AcDbMText
10
22.846960
20
1.252913
30
0.000000
40
0.300000
41
0.000000
71
5
72
1
1
D
7
texto
11
0.999848
21
0.017452
31
0.000000
0
MTEXT
5
A8
100
AcDbEntity
67
0
8
0
6
ByLayer
62
7
370
40
100
AcDbMText
10
23.259139
20
1.245929
30
0.000000
40
0.300000
41
0.000000
71
5
72
1
1
E
7
texto
11
0.999507
21
-0.031411
31
0.000000
0
MTEXT
5
A9
100
AcDbEntity
67
0
8
0
6
ByLayer
62
7
370
40
100
AcDbMText
10
24.460364
20
1.110210
30
0.000000
40
0.300000
41
0.000000
71
5
72
1
1
E
7
texto
11
0.984196
21
-0.177085
31
0.000000
0
MTEXT
5
AA
100
AcDbEntity
67
0
8
0
6
ByLayer
62
7
370
40
100
AcDbMText
10
27.102723
20
0.143564
30
0.000000
40
0.300000
41
0.000000
71
5
72
1
1
E
7
texto
11
0.867765
21
-0.496974
31
0.000000
0
MTEXT
5
AB
100
AcDbEntity
67
0
8
0
6
ByLayer
62
7
370
40
100
AcDbMText
10
23.661641
20
1.223426
30
0.000000
40
0.300000
41
0.000000
71
5
72
1
1
M
7
texto
11
0.996779
21
-0.080199
31
0.000000
0
MTEXT
5
AC
100
AcDbEntity
67
0
8
0
6
ByLayer
62
7
370
40
100
AcDbMText
10
25.246312
20
0.938298
30
0.000000
40
0.300000
41
0.000000
71
5
72
1
1
P
7
texto
11
0.962218
21
-0.272280
31
0.000000
0
MTEXT
5
AD
100
AcDbEntity
67
0
8
0
6
ByLayer
62
7
370
40
100
AcDbMText
10
25.631414
20
0.819089
30
0.000000
40
0.300000
41
0.000000
71
5
72
1
1
R
7
texto
11
0.947768
21
-0.318959
31
0.000000
0
MTEXT
5
AE
100
AcDbEntity
67
0
8
0
6
ByLayer
62
7
370
40
100
AcDbMText
10
26.745422
20
0.350804
30
0.000000
40
0.300000
41
0.000000
71
5
72
1
1
R
7
texto
11
0.891007
21
-0.453990
31
0.000000
0
MTEXT
5
AF
100
AcDbEntity
67
0
8
0
6
ByLayer
62
7
370
40
100
AcDbMText
10
26.010234
20
0.681210
30
0.000000
40
0.300000
41
0.000000
71
5
72
1
1
O
7
texto
11
0.931056
21
-0.364877
31
0.000000
0
MTEXT
5
B0
100
AcDbEntity
67
0
8
0
6
ByLayer
62
7
370
40
100
AcDbMText
10
28.101869
20
-0.516681
30
0.000000
40
0.300000
41
0.000000
71
5
72
1
1
O
7
texto
11
0.785857
21
-0.618408
31
0.000000
0
MTEXT
5
B1
100
AcDbEntity
67
0
8
0
6
ByLayer
62
7
370
40
100
AcDbMText
10
26.381865
20
0.524991
30
0.000000
40
0.300000
41
0.000000
71
5
72
1
1
G
7
texto
11
0.912120
21
-0.409923
31
0.000000
0
MTEXT
5
B2
100
AcDbEntity
67
0
8
0
6
ByLayer
62
7
370
40
100
AcDbMText
10
27.444859
20
-0.049768
30
0.000000
40
0.300000
41
0.000000
71
5
72
1
1
S
7
texto
11
0.842452
21
-0.538771
31
0.000000
0
MTEXT
5
B3
100
AcDbEntity
67
0
8
0
6
ByLayer
62
7
370
40
100
AcDbMText
10
27.779070
20
-0.275196
30
0.000000
40
0.300000
41
0.000000
71
5
72
1
1
S
7
texto
11
0.815128
21
-0.579281
31
0.000000
0
MTEXT
5
B4
100
AcDbEntity
67
0
8
0
6
ByLayer
62
7
370
40
100
AcDbMText
10
47.051769
20
1.195325
30
0.000000
40
0.300000
41
0.000000
71
5
72
1
1
O
7
texto
11
0.993373
21
0.114937
31
0.000000
0
MTEXT
5
B5
100
AcDbEntity
67
0
8
0
6
ByLayer
62
7
370
40
100
AcDbMText
10
47.453240
20
1.231862
30
0.000000
40
0.300000
41
0.000000
71
5
72
1
1
R
7
texto
11
0.997801
21
0.066274
31
0.000000
0
MTEXT
5
B6
100
AcDbEntity
67
0
8
0
6
ByLayer
62
7
370
40
100
AcDbMText
10
47.846960
20
1.252913
30
0.000000
40
0.300000
41
0.000000
71
5
72
1
1
D
7
texto
11
0.999848
21
0.017452
31
0.000000
0
MTEXT
5
B7
100
AcDbEntity
67
0
8
0
6
ByLayer
62
7
370
40
100
AcDbMText
10
48.259139
20
1.245929
30
0.000000
40
0.300000
41
0.000000
71
5
72
1
1
E
7
texto
11
0.999507
21
-0.031411
31
0.000000
0
MTEXT
5
B8
100
AcDbEntity
67
0
8
0
6
ByLayer
62
7
370
40
100
AcDbMText
10
49.460364
20
1.110210
30
0.000000
40
0.300000
41
0.000000
71
5
72
1
1
E
7
texto
11
0.984196
21
-0.177085
31
0.000000
0
MTEXT
5
B9
100
AcDbEntity
67
0
8
0
6
ByLayer
62
7
370
40
100
AcDbMText
10
52.102723
20
0.143564
30
0.000000
40
0.300000
41
0.000000
71
5
72
1
1
E
7
texto
11
0.867765
21
-0.496974
31
0.000000
0
MTEXT
5
BA
100
AcDbEntity
67
0
8
0
6
ByLayer
62
7
370
40
100
AcDbMText
10
48.661641
20
1.223426
30
0.000000
40
0.300000
41
0.000000
71
5
72
1
1
M
7
texto
11
0.996779
21
-0.080199
31
0.000000
0
MTEXT
5
BB
100
AcDbEntity
67
0
8
0
6
ByLayer
62
7
370
40
100
AcDbMText
10
50.246312
20
0.938298
30
0.000000
40
0.300000
41
0.000000
71
5
72
1
1
P
7
texto
11
0.962218
21
-0.272280
31
0.000000
0
MTEXT
5
BC
100
AcDbEntity
67
0
8
0
6
ByLayer
62
7
370
40
100
AcDbMText
10
50.631414
20
0.819089
30
0.000000
40
0.300000
41
0.000000
71
5
72
1
1
R
7
texto
11
0.947768
21
-0.318959
31
0.000000
0
MTEXT
5
BD
100
AcDbEntity
67
0
8
0
6
ByLayer
62
7
370
40
100
AcDbMText
10
51.745422
20
0.350804
30
0.000000
40
0.300000
41
0.000000
71
5
72
1
1
R
7
texto
11
0.891007
21
-0.453990
31
0.000000
0
MTEXT
5
BE
100
AcDbEntity
67
0
8
0
6
ByLayer
62
7
370
40
100
AcDbMText
10
51.010234
20
0.681210
30
0.000000
40
0.300000
41
0.000000
71
5
72
1
1
O
7
texto
11
0.931056
21
-0.364877
31
0.000000
0
MTEXT
5
BF
100
AcDbEntity
67
0
8
0
6
ByLayer
62
7
370
40
100
AcDbMText
10
53.101869
20
-0.516681
30
0.000000
40
0.300000
41
0.000000
71
5
72
1
1
O
7
texto
11
0.785857
21
-0.618408
31
0.000000
0
MTEXT
5
C0
100
AcDbEntity
67
0
8
0
6
ByLayer
62
7
370
40
100
AcDbMText
10
51.381865
20
0.524991
30
0.000000
40
0.300000
41
0.000000
71
5
72
1
1
G
7
texto
11
0.912120
21
-0.409923
31
0.000000
0
MTEXT
5
C1
100
AcDbEntity
67
0
8
0
6
ByLayer
62
7
370
40
100
AcDbMText
10
52.444859
20
-0.049768
30
0.000000
40
0.300000
41
0.000000
71
5
72
1
1
S
7
texto
11
0.842452
21
-0.538771
31
0.000000
0
MTEXT
5
C2
100
AcDbEntity
67
0
8
0
6
ByLayer
62
7
370
40
100
AcDbMText
10
52.779070
20
-0.275196
30
0.000000
40
0.300000
41
0.000000
71
5
72
1
1
S
7
texto
11
0.815128
21
-0.579281
31
0.000000
0
HATCH
5
C3
100
AcDbEntity
67
0
8
0
6
ByLayer
62
5
370
-1
100
AcDbHatch
10
0.000000
20
0.000000
30
0.000000
210
0.000000
220
0.000000
230
1.000000
2
ripple1
70
0
71
0
91
2
92
2
72
1
73
1
93
10
10
50.836231
20
1.449535
42
0.000000
10
50.871896
20
1.348623
42
0.000000
10
50.978890
20
1.345887
42
0.000000
10
50.893938
20
1.280785
42
0.000000
10
50.924399
20
1.178182
42
0.000000
10
50.836231
20
1.238859
42
0.000000
10
50.748063
20
1.178182
42
0.000000
10
50.778525
20
1.280785
42
0.000000
10
50.693573
20
1.345887
42
0.000000
10
50.800567
20
1.348623
42
0.000000
97
0
92
2
72
1
73
1
93
2
10
53.465510
20
-0.490147
42
0.871000
10
46.798641
20
1.414673
42
-0.214000
97
0
75
0
76
0
52
0.000000
41
0.200000
77
0
78
28
53
170.537700
43
0.200000
44
0.050000
45
-0.200000
46
-0.000000
79
2
49
0.012166
49
-1.204387
53
168.690100
43
0.188000
44
0.052000
45
-0.200000
46
-0.000000
79
2
49
0.010198
49
-1.009606
53
149.036200
43
0.178000
44
0.054000
45
-0.400000
46
0.200000
79
2
49
0.011662
49
-1.154528
53
135.000000
43
0.168000
44
0.060000
45
-0.200000
46
0.000000
79
2
49
0.011314
49
-0.271529
53
120.963800
43
0.160000
44
0.068000
45
-0.400000
46
0.600000
79
2
49
0.011662
49
-1.154528
53
101.309900
43
0.154000
44
0.078000
45
-0.200000
46
0.800000
79
2
49
0.010198
49
-1.009606
53
99.462300
43
0.152000
44
0.088000
45
-0.200000
46
1.000000
79
2
49
0.012166
49
-1.204387
53
99.462300
43
0.150000
44
0.100000
45
-0.200000
46
1.000000
79
2
49
0.012166
49
-1.204387
53
101.309900
43
0.148000
44
0.112000
45
-0.200000
46
0.800000
79
2
49
0.010198
49
-1.009606
53
120.963800
43
0.146000
44
0.122000
45
-0.400000
46
0.600000
79
2
49
0.011662
49
-1.154528
53
135.000000
43
0.140000
44
0.132000
45
-0.200000
46
0.000000
79
2
49
0.011314
49
-0.271529
53
149.036200
43
0.132000
44
0.140000
45
-0.400000
46
0.200000
79
2
49
0.011662
49
-1.154528
53
168.690100
43
0.122000
44
0.146000
45
-0.200000
46
-0.000000
79
2
49
0.010198
49
-1.009606
53
170.537700
43
0.112000
44
0.148000
45
-0.200000
46
-0.000000
79
2
49
0.012166
49
-1.204387
53
9.462300
43
0.088000
44
0.148000
45
1.000000
46
0.200000
79
2
49
0.012166
49
-1.204387
53
11.309900
43
0.078000
44
0.146000
45
0.800000
46
0.200000
79
2
49
0.010198
49
-1.009606
53
30.963800
43
0.068000
44
0.140000
45
0.600000
46
0.400000
79
2
49
0.011662
49
-1.154528
53
45.000000
43
0.060000
44
0.132000
45
0.000000
46
0.200000
79
2
49
0.011314
49
-0.271529
53
59.036200
43
0.054000
44
0.122000
45
0.200000
46
0.400000
79
2
49
0.011662
49
-1.154528
53
78.690100
43
0.052000
44
0.112000
45
-0.000000
46
0.200000
79
2
49
0.010198
49
-1.009606
53
80.537700
43
0.050000
44
0.100000
45
-0.000000
46
0.200000
79
2
49
0.012166
49
-1.204387
53
80.537700
43
0.048000
44
0.088000
45
-0.000000
46
0.200000
79
2
49
0.012166
49
-1.204387
53
78.690100
43
0.046000
44
0.078000
45
-0.000000
46
0.200000
79
2
49
0.010198
49
-1.009606
53
59.036200
43
0.040000
44
0.068000
45
0.200000
46
0.400000
79
2
49
0.011662
49
-1.154528
53
45.000000
43
0.032000
44
0.060000
45
0.000000
46
0.200000
79
2
49
0.011314
49
-0.271529
53
30.963800
43
0.022000
44
0.054000
45
0.600000
46
0.400000
79
2
49
0.011662
49
-1.154528
53
11.309900
43
0.012000
44
0.052000
45
0.800000
46
0.200000
79
2
49
0.010198
49
-1.009606
53
9.462300
43
0.000000
44
0.050000
45
1.000000
46
0.200000
79
2
49
0.012166
49
-1.204387
98
0
0
HATCH
5
C4
100
AcDbEntity
67
0
8
0
6
ByLayer
62
5
370
-1
100
AcDbHatch
10
0.000000
20
0.000000
30
0.000000
210
0.000000
220
0.000000
230
1.000000
2
ripple1
70
0
71
0
91
27
92
2
72
1
73
1
93
10
10
50.713336
20
0.444364
42
0.000000
10
50.737113
20
0.377089
42
0.000000
10
50.808442
20
0.375265
42
0.000000
10
50.751807
20
0.331864
42
0.000000
10
50.772115
20
0.263462
42
0.000000
10
50.713336
20
0.303913
42
0.000000
10
50.654558
20
0.263462
42
0.000000
10
50.674865
20
0.331864
42
0.000000
10
50.618231
20
0.375265
42
0.000000
10
50.689560
20
0.377089
42
0.000000
97
0
92
2
72
1
73
1
93
10
10
47.174932
20
0.805282
42
0.000000
10
47.210597
20
0.704370
42
0.000000
10
47.317591
20
0.701635
42
0.000000
10
47.232639
20
0.636532
42
0.000000
10
47.263100
20
0.533930
42
0.000000
10
47.174932
20
0.594606
42
0.000000
10
47.086765
20
0.533930
42
0.000000
10
47.117226
20
0.636532
42
0.000000
10
47.032274
20
0.701635
42
0.000000
10
47.139268
20
0.704370
42
0.000000
97
0
92
2
72
1
73
1
93
10
10
48.651852
20
0.139995
42
0.000000
10
48.681573
20
0.055902
42
0.000000
10
48.770735
20
0.053622
42
0.000000
10
48.699941
20
-0.000630
42
0.000000
10
48.725326
20
-0.086132
42
0.000000
10
48.651852
20
-0.035569
42
0.000000
10
48.578379
20
-0.086132
42
0.000000
10
48.603764
20
-0.000630
42
0.000000
10
48.532970
20
0.053622
42
0.000000
10
48.622132
20
0.055902
42
0.000000
97
0
92
2
72
1
73
1
93
10
10
49.824720
20
-0.220446
42
0.000000
10
49.854440
20
-0.304539
42
0.000000
10
49.943602
20
-0.306819
42
0.000000
10
49.872809
20
-0.361071
42
0.000000
10
49.898193
20
-0.446573
42
0.000000
10
49.824720
20
-0.396010
42
0.000000
10
49.751247
20
-0.446573
42
0.000000
10
49.776631
20
-0.361071
42
0.000000
10
49.705838
20
-0.306819
42
0.000000
10
49.794999
20
-0.304539
42
0.000000
97
0
92
2
72
1
73
1
93
10
10
49.504615
20
-0.533392
42
0.000000
10
49.528391
20
-0.600666
42
0.000000
10
49.599720
20
-0.602490
42
0.000000
10
49.543086
20
-0.645892
42
0.000000
10
49.563393
20
-0.714293
42
0.000000
10
49.504615
20
-0.673843
42
0.000000
10
49.445836
20
-0.714293
42
0.000000
10
49.466144
20
-0.645892
42
0.000000
10
49.409509
20
-0.602490
42
0.000000
10
49.480838
20
-0.600666
42
0.000000
97
0
92
2
72
1
73
1
93
10
10
49.736433
20
-0.812574
42
0.000000
10
49.753077
20
-0.859667
42
0.000000
10
49.803007
20
-0.860943
42
0.000000
10
49.763363
20
-0.891324
42
0.000000
10
49.777578
20
-0.939206
42
0.000000
10
49.736433
20
-0.910890
42
0.000000
10
49.695288
20
-0.939206
42
0.000000
10
49.709503
20
-0.891324
42
0.000000
10
49.669859
20
-0.860943
42
0.000000
10
49.719790
20
-0.859667
42
0.000000
97
0
92
2
72
1
73
1
93
10
10
50.169205
20
-0.547294
42
0.000000
10
50.198925
20
-0.631387
42
0.000000
10
50.288087
20
-0.633667
42
0.000000
10
50.217294
20
-0.687919
42
0.000000
10
50.242678
20
-0.773421
42
0.000000
10
50.169205
20
-0.722857
42
0.000000
10
50.095732
20
-0.773421
42
0.000000
10
50.121116
20
-0.687919
42
0.000000
10
50.050323
20
-0.633667
42
0.000000
10
50.139484
20
-0.631387
42
0.000000
97
0
92
2
72
1
73
1
93
10
10
49.840951
20
-1.195969
42
0.000000
10
49.876616
20
-1.296881
42
0.000000
10
49.983609
20
-1.299617
42
0.000000
10
49.898658
20
-1.364719
42
0.000000
10
49.929119
20
-1.467322
42
0.000000
10
49.840951
20
-1.406645
42
0.000000
10
49.752783
20
-1.467322
42
0.000000
10
49.783244
20
-1.364719
42
0.000000
10
49.698293
20
-1.299617
42
0.000000
10
49.805286
20
-1.296881
42
0.000000
97
0
92
2
72
1
73
1
93
10
10
47.751183
20
-0.354996
42
0.000000
10
47.767826
20
-0.402089
42
0.000000
10
47.817757
20
-0.403365
42
0.000000
10
47.778112
20
-0.433746
42
0.000000
10
47.792328
20
-0.481628
42
0.000000
10
47.751183
20
-0.453312
42
0.000000
10
47.710038
20
-0.481628
42
0.000000
10
47.724253
20
-0.433746
42
0.000000
10
47.684609
20
-0.403365
42
0.000000
10
47.734539
20
-0.402089
42
0.000000
97
0
92
2
72
1
73
1
93
10
10
47.410331
20
-0.478631
42
0.000000
10
47.445996
20
-0.579543
42
0.000000
10
47.552990
20
-0.582278
42
0.000000
10
47.468038
20
-0.647381
42
0.000000
10
47.498499
20
-0.749983
42
0.000000
10
47.410331
20
-0.689307
42
0.000000
10
47.322163
20
-0.749983
42
0.000000
10
47.352625
20
-0.647381
42
0.000000
10
47.267673
20
-0.582278
42
0.000000
10
47.374667
20
-0.579543
42
0.000000
97
0
92
2
72
1
73
1
93
10
10
47.002663
20
-0.881655
42
0.000000
10
47.032384
20
-0.965748
42
0.000000
10
47.121545
20
-0.968028
42
0.000000
10
47.050752
20
-1.022280
42
0.000000
10
47.076136
20
-1.107782
42
0.000000
10
47.002663
20
-1.057218
42
0.000000
10
46.929190
20
-1.107782
42
0.000000
10
46.954574
20
-1.022280
42
0.000000
10
46.883781
20
-0.968028
42
0.000000
10
46.972943
20
-0.965748
42
0.000000
97
0
92
2
72
1
73
1
93
10
10
48.082352
20
-0.809215
42
0.000000
10
48.112073
20
-0.893309
42
0.000000
10
48.201234
20
-0.895588
42
0.000000
10
48.130441
20
-0.949840
42
0.000000
10
48.155825
20
-1.035343
42
0.000000
10
48.082352
20
-0.984779
42
0.000000
10
48.008879
20
-1.035343
42
0.000000
10
48.034263
20
-0.949840
42
0.000000
10
47.963470
20
-0.895588
42
0.000000
10
48.052632
20
-0.893309
42
0.000000
97
0
92
2
72
1
73
1
93
10
10
48.006248
20
-1.229625
42
0.000000
10
48.030024
20
-1.296899
42
0.000000
10
48.101353
20
-1.298723
42
0.000000
10
48.044719
20
-1.342125
42
0.000000
10
48.065026
20
-1.410527
42
0.000000
10
48.006248
20
-1.370076
42
0.000000
10
47.947469
20
-1.410527
42
0.000000
10
47.967777
20
-1.342125
42
0.000000
10
47.911142
20
-1.298723
42
0.000000
10
47.982471
20
-1.296899
42
0.000000
97
0
92
2
72
1
73
1
93
10
10
48.504881
20
-1.537214
42
0.000000
10
48.540545
20
-1.638126
42
0.000000
10
48.647539
20
-1.640861
42
0.000000
10
48.562587
20
-1.705964
42
0.000000
10
48.593049
20
-1.808566
42
0.000000
10
48.504881
20
-1.747890
42
0.000000
10
48.416713
20
-1.808566
42
0.000000
10
48.447174
20
-1.705964
42
0.000000
10
48.362222
20
-1.640861
42
0.000000
10
48.469216
20
-1.638126
42
0.000000
97
0
92
2
72
1
73
1
93
10
10
49.834372
20
-2.397931
42
0.000000
10
49.846260
20
-2.431569
42
0.000000
10
49.881924
20
-2.432481
42
0.000000
10
49.853607
20
-2.454181
42
0.000000
10
49.863761
20
-2.488382
42
0.000000
10
49.834372
20
-2.468157
42
0.000000
10
49.804982
20
-2.488382
42
0.000000
10
49.815136
20
-2.454181
42
0.000000
10
49.786819
20
-2.432481
42
0.000000
10
49.822483
20
-2.431569
42
0.000000
97
0
92
2
72
1
73
1
93
10
10
50.592038
20
-1.614990
42
0.000000
10
50.615814
20
-1.682264
42
0.000000
10
50.687143
20
-1.684088
42
0.000000
10
50.630509
20
-1.727490
42
0.000000
10
50.650816
20
-1.795891
42
0.000000
10
50.592038
20
-1.755440
42
0.000000
10
50.533259
20
-1.795891
42
0.000000
10
50.553566
20
-1.727490
42
0.000000
10
50.496932
20
-1.684088
42
0.000000
10
50.568261
20
-1.682264
42
0.000000
97
0
92
2
72
1
73
1
93
10
10
51.076194
20
-1.651852
42
0.000000
10
51.099970
20
-1.719126
42
0.000000
10
51.171299
20
-1.720950
42
0.000000
10
51.114665
20
-1.764352
42
0.000000
10
51.134972
20
-1.832754
42
0.000000
10
51.076194
20
-1.792303
42
0.000000
10
51.017415
20
-1.832754
42
0.000000
10
51.037723
20
-1.764352
42
0.000000
10
50.981088
20
-1.720950
42
0.000000
10
51.052417
20
-1.719126
42
0.000000
97
0
92
2
72
1
73
1
93
10
10
51.501962
20
-1.578710
42
0.000000
10
51.525739
20
-1.645985
42
0.000000
10
51.597068
20
-1.647808
42
0.000000
10
51.540433
20
-1.691210
42
0.000000
10
51.560741
20
-1.759612
42
0.000000
10
51.501962
20
-1.719161
42
0.000000
10
51.443184
20
-1.759612
42
0.000000
10
51.463491
20
-1.691210
42
0.000000
10
51.406857
20
-1.647808
42
0.000000
10
51.478186
20
-1.645985
42
0.000000
97
0
92
2
72
1
73
1
93
10
10
51.831590
20
-1.658679
42
0.000000
10
51.855366
20
-1.725954
42
0.000000
10
51.926695
20
-1.727777
42
0.000000
10
51.870061
20
-1.771179
42
0.000000
10
51.890368
20
-1.839581
42
0.000000
10
51.831590
20
-1.799130
42
0.000000
10
51.772811
20
-1.839581
42
0.000000
10
51.793119
20
-1.771179
42
0.000000
10
51.736484
20
-1.727777
42
0.000000
10
51.807813
20
-1.725954
42
0.000000
97
0
92
2
72
1
73
1
93
10
10
51.515984
20
-2.310731
42
0.000000
10
51.539760
20
-2.378006
42
0.000000
10
51.611089
20
-2.379829
42
0.000000
10
51.554455
20
-2.423231
42
0.000000
10
51.574762
20
-2.491633
42
0.000000
10
51.515984
20
-2.451182
42
0.000000
10
51.457205
20
-2.491633
42
0.000000
10
51.477513
20
-2.423231
42
0.000000
10
51.420878
20
-2.379829
42
0.000000
10
51.492207
20
-2.378006
42
0.000000
97
0
92
2
72
1
73
1
93
10
10
52.615613
20
-0.951265
42
0.000000
10
52.639389
20
-1.018540
42
0.000000
10
52.710719
20
-1.020363
42
0.000000
10
52.654084
20
-1.063765
42
0.000000
10
52.674392
20
-1.132167
42
0.000000
10
52.615613
20
-1.091716
42
0.000000
10
52.556835
20
-1.132167
42
0.000000
10
52.577142
20
-1.063765
42
0.000000
10
52.520507
20
-1.020363
42
0.000000
10
52.591837
20
-1.018540
42
0.000000
97
0
92
2
72
1
73
1
93
10
10
50.832803
20
-1.966893
42
0.000000
10
50.862523
20
-2.050986
42
0.000000
10
50.951685
20
-2.053266
42
0.000000
10
50.880892
20
-2.107518
42
0.000000
10
50.906276
20
-2.193020
42
0.000000
10
50.832803
20
-2.142456
42
0.000000
10
50.759330
20
-2.193020
42
0.000000
10
50.784714
20
-2.107518
42
0.000000
10
50.713921
20
-2.053266
42
0.000000
10
50.803082
20
-2.050986
42
0.000000
97
0
92
2
72
1
73
1
93
10
10
51.490821
20
-1.938082
42
0.000000
10
51.520542
20
-2.022175
42
0.000000
10
51.609703
20
-2.024455
42
0.000000
10
51.538910
20
-2.078707
42
0.000000
10
51.564294
20
-2.164209
42
0.000000
10
51.490821
20
-2.113646
42
0.000000
10
51.417348
20
-2.164209
42
0.000000
10
51.442732
20
-2.078707
42
0.000000
10
51.371939
20
-2.024455
42
0.000000
10
51.461101
20
-2.022175
42
0.000000
97
0
92
2
72
1
73
1
93
10
10
52.098831
20
-1.463306
42
0.000000
10
52.128552
20
-1.547400
42
0.000000
10
52.217713
20
-1.549679
42
0.000000
10
52.146920
20
-1.603931
42
0.000000
10
52.172304
20
-1.689434
42
0.000000
10
52.098831
20
-1.638870
42
0.000000
10
52.025358
20
-1.689434
42
0.000000
10
52.050742
20
-1.603931
42
0.000000
10
51.979949
20
-1.549679
42
0.000000
10
52.069110
20
-1.547400
42
0.000000
97
0
92
2
72
1
73
1
93
10
10
52.290791
20
-1.256192
42
0.000000
10
52.320511
20
-1.340285
42
0.000000
10
52.409673
20
-1.342565
42
0.000000
10
52.338880
20
-1.396817
42
0.000000
10
52.364264
20
-1.482319
42
0.000000
10
52.290791
20
-1.431756
42
0.000000
10
52.217318
20
-1.482319
42
0.000000
10
52.242702
20
-1.396817
42
0.000000
10
52.171909
20
-1.342565
42
0.000000
10
52.261070
20
-1.340285
42
0.000000
97
0
92
2
72
1
73
1
93
10
10
52.169099
20
-0.834939
42
0.000000
10
52.204764
20
-0.935851
42
0.000000
10
52.311758
20
-0.938587
42
0.000000
10
52.226806
20
-1.003689
42
0.000000
10
52.257267
20
-1.106292
42
0.000000
10
52.169099
20
-1.045616
42
0.000000
10
52.080932
20
-1.106292
42
0.000000
10
52.111393
20
-1.003689
42
0.000000
10
52.026441
20
-0.938587
42
0.000000
10
52.133435
20
-0.935851
42
0.000000
97
0
92
2
72
1
73
1
93
2
10
46.612094
20
0.878686
42
0.975500
10
53.340736
20
-1.043783
42
0.230000
97
0
75
0
76
0
52
0.000000
41
0.200000
77
0
78
28
53
170.537700
43
0.200000
44
0.050000
45
-0.200000
46
-0.000000
79
2
49
0.012166
49
-1.204387
53
168.690100
43
0.188000
44
0.052000
45
-0.200000
46
-0.000000
79
2
49
0.010198
49
-1.009606
53
149.036200
43
0.178000
44
0.054000
45
-0.400000
46
0.200000
79
2
49
0.011662
49
-1.154528
53
135.000000
43
0.168000
44
0.060000
45
-0.200000
46
0.000000
79
2
49
0.011314
49
-0.271529
53
120.963800
43
0.160000
44
0.068000
45
-0.400000
46
0.600000
79
2
49
0.011662
49
-1.154528
53
101.309900
43
0.154000
44
0.078000
45
-0.200000
46
0.800000
79
2
49
0.010198
49
-1.009606
53
99.462300
43
0.152000
44
0.088000
45
-0.200000
46
1.000000
79
2
49
0.012166
49
-1.204387
53
99.462300
43
0.150000
44
0.100000
45
-0.200000
46
1.000000
79
2
49
0.012166
49
-1.204387
53
101.309900
43
0.148000
44
0.112000
45
-0.200000
46
0.800000
79
2
49
0.010198
49
-1.009606
53
120.963800
43
0.146000
44
0.122000
45
-0.400000
46
0.600000
79
2
49
0.011662
49
-1.154528
53
135.000000
43
0.140000
44
0.132000
45
-0.200000
46
0.000000
79
2
49
0.011314
49
-0.271529
53
149.036200
43
0.132000
44
0.140000
45
-0.400000
46
0.200000
79
2
49
0.011662
49
-1.154528
53
168.690100
43
0.122000
44
0.146000
45
-0.200000
46
-0.000000
79
2
49
0.010198
49
-1.009606
53
170.537700
43
0.112000
44
0.148000
45
-0.200000
46
-0.000000
79
2
49
0.012166
49
-1.204387
53
9.462300
43
0.088000
44
0.148000
45
1.000000
46
0.200000
79
2
49
0.012166
49
-1.204387
53
11.309900
43
0.078000
44
0.146000
45
0.800000
46
0.200000
79
2
49
0.010198
49
-1.009606
53
30.963800
43
0.068000
44
0.140000
45
0.600000
46
0.400000
79
2
49
0.011662
49
-1.154528
53
45.000000
43
0.060000
44
0.132000
45
0.000000
46
0.200000
79
2
49
0.011314
49
-0.271529
53
59.036200
43
0.054000
44
0.122000
45
0.200000
46
0.400000
79
2
49
0.011662
49
-1.154528
53
78.690100
43
0.052000
44
0.112000
45
-0.000000
46
0.200000
79
2
49
0.010198
49
-1.009606
53
80.537700
43
0.050000
44
0.100000
45
-0.000000
46
0.200000
79
2
49
0.012166
49
-1.204387
53
80.537700
43
0.048000
44
0.088000
45
-0.000000
46
0.200000
79
2
49
0.012166
49
-1.204387
53
78.690100
43
0.046000
44
0.078000
45
-0.000000
46
0.200000
79
2
49
0.010198
49
-1.009606
53
59.036200
43
0.040000
44
0.068000
45
0.200000
46
0.400000
79
2
49
0.011662
49
-1.154528
53
45.000000
43
0.032000
44
0.060000
45
0.000000
46
0.200000
79
2
49
0.011314
49
-0.271529
53
30.963800
43
0.022000
44
0.054000
45
0.600000
46
0.400000
79
2
49
0.011662
49
-1.154528
53
11.309900
43
0.012000
44
0.052000
45
0.800000
46
0.200000
79
2
49
0.010198
49
-1.009606
53
9.462300
43
0.000000
44
0.050000
45
1.000000
46
0.200000
79
2
49
0.012166
49
-1.204387
98
0
0
HATCH
5
C5
100
AcDbEntity
67
0
8
0
6
ByLayer
62
52
370
-1
100
AcDbHatch
10
0.000000
20
0.000000
30
0.000000
210
0.000000
220
0.000000
230
1.000000
2
DIATREAD
70
0
71
0
91
2
92
2
72
1
73
1
93
4
10
41.700000
20
0.000000
42
0.000000
10
50.000000
20
5.300000
42
0.000000
10
58.300000
20
0.000000
42
0.000000
10
50.000000
20
-5.300000
42
0.000000
97
0
92
2
72
1
73
0
93
3
10
46.500000
20
0.000000
42
1.000000
10
53.500000
20
0.000000
42
1.000000
10
46.500000
20
0.000000
42
0.000000
97
0
75
0
76
0
52
0.000000
41
0.500000
77
0
78
8
53
18.434949
43
0.450000
44
0.350000
45
0.500000
46
0.500000
79
2
49
0.316228
49
-1.264911
53
71.565051
43
0.250000
44
0.050000
45
-0.500000
46
-0.500000
79
2
49
0.316228
49
-1.264911
53
71.565051
43
0.150000
44
0.350000
45
-0.500000
46
-0.500000
79
2
49
0.316228
49
-1.264911
53
108.434949
43
0.250000
44
0.050000
45
-0.500000
46
0.500000
79
2
49
0.316228
49
-1.264911
53
108.434949
43
0.350000
44
0.350000
45
-0.500000
46
0.500000
79
2
49
0.316228
49
-1.264911
53
161.565051
43
0.050000
44
0.350000
45
0.500000
46
-0.500000
79
2
49
0.316228
49
-1.264911
53
198.434949
43
0.050000
44
0.350000
45
-0.500000
46
-0.500000
79
2
49
0.316228
49
-1.264911
53
341.565051
43
0.450000
44
0.350000
45
-0.500000
46
0.500000
79
2
49
0.316228
49
-1.264911
98
0
0
HATCH
5
C6
100
AcDbEntity
67
0
8
0
6
ByLayer
62
98
370
-1
100
AcDbHatch
10
0.000000
20
0.000000
30
0.000000
210
0.000000
220
0.000000
230
1.000000
2
HVEGE100
70
0
71
0
91
2
92
2
72
1
73
1
93
4
10
40.000000
20
-7.000000
42
0.000000
10
60.000000
20
-7.000000
42
0.000000
10
60.000000
20
7.000000
42
0.000000
10
40.000000
20
7.000000
42
0.000000
97
0
92
2
72
1
73
1
93
4
10
41.700000
20
0.000000
42
0.000000
10
50.000000
20
5.300000
42
0.000000
10
58.300000
20
0.000000
42
0.000000
10
50.000000
20
-5.300000
42
0.000000
97
0
75
0
76
0
52
0.000000
41
0.100000
77
0
78
232
53
63.434952
43
0.600000
44
0.700000
45
0.000000
46
3.000000
79
2
49
0.223607
49
-6.484597
53
45.000000
43
0.700000
44
0.900000
45
0.000000
46
3.000000
79
2
49
0.282843
49
-3.959798
53
26.565050
43
0.900000
44
1.100000
45
0.000000
46
3.000000
79
2
49
0.223607
49
-6.484597
53
26.565050
43
3.900000
44
1.100000
45
0.000000
46
3.000000
79
2
49
0.223607
49
-6.484597
53
0.000000
43
1.100000
44
1.200000
45
0.000000
46
3.000000
79
2
49
0.200000
49
-2.800000
53
-18.434948
43
0.300000
44
0.800000
45
-0.000000
46
3.000000
79
2
49
0.316228
49
-9.170605
53
-18.434948
43
3.300000
44
0.800000
45
-0.000000
46
3.000000
79
2
49
0.316228
49
-9.170605
53
-18.434948
43
6.300000
44
0.800000
45
-0.000000
46
3.000000
79
2
49
0.316228
49
-9.170605
53
-45.000000
43
0.600000
44
0.700000
45
-0.000000
46
3.000000
79
2
49
0.282843
49
-3.959798
53
-63.434952
43
0.800000
44
0.500000
45
-0.000000
46
3.000000
79
2
49
0.223607
49
-6.484597
53
-90.000000
43
0.900000
44
0.300000
45
3.000000
46
0.000000
79
2
49
0.100000
49
-2.900000
53
225.000000
43
0.900000
44
0.200000
45
-0.000000
46
3.000000
79
2
49
0.141421
49
-4.101219
53
180.000000
43
0.800000
44
0.100000
45
-0.000000
46
-3.000000
79
2
49
0.200000
49
-2.800000
53
146.309936
43
0.600000
44
0.100000
45
-0.000000
46
3.000000
79
2
49
0.360555
49
-10.456099
53
146.309936
43
3.600000
44
0.100000
45
-0.000000
46
3.000000
79
2
49
0.360555
49
-10.456099
53
146.309936
43
6.600000
44
0.100000
45
-0.000000
46
3.000000
79
2
49
0.360555
49
-10.456099
53
108.434952
43
0.300000
44
0.300000
45
-0.000000
46
3.000000
79
2
49
0.316228
49
-9.170605
53
-36.869896
43
0.300000
44
0.600000
45
-0.000000
46
3.000000
79
2
49
0.500000
49
-14.500000
53
-36.869896
43
3.300000
44
0.600000
45
-0.000000
46
3.000000
79
2
49
0.500000
49
-14.500000
53
-36.869896
43
6.300000
44
0.600000
45
-0.000000
46
3.000000
79
2
49
0.500000
49
-14.500000
53
-36.869896
43
9.300000
44
0.600000
45
-0.000000
46
3.000000
79
2
49
0.500000
49
-14.500000
53
36.869896
43
0.800000
44
0.700000
45
0.000000
46
3.000000
79
2
49
0.500000
49
-14.500000
53
36.869896
43
3.800000
44
0.700000
45
0.000000
46
3.000000
79
2
49
0.500000
49
-14.500000
53
36.869896
43
6.800000
44
0.700000
45
0.000000
46
3.000000
79
2
49
0.500000
49
-14.500000
53
36.869896
43
9.800000
44
0.700000
45
0.000000
46
3.000000
79
2
49
0.500000
49
-14.500000
53
18.434948
43
0.800000
44
0.500000
45
0.000000
46
3.000000
79
2
49
0.316228
49
-9.170605
53
18.434948
43
3.800000
44
0.500000
45
0.000000
46
3.000000
79
2
49
0.316228
49
-9.170605
53
18.434948
43
6.800000
44
0.500000
45
0.000000
46
3.000000
79
2
49
0.316228
49
-9.170605
53
45.000000
43
1.100000
44
0.600000
45
0.000000
46
3.000000
79
2
49
0.282843
49
-3.959798
53
63.434952
43
1.300000
44
0.800000
45
0.000000
46
3.000000
79
2
49
0.223607
49
-6.484597
53
-63.434952
43
1.200000
44
1.400000
45
-0.000000
46
3.000000
79
2
49
0.223607
49
-6.484597
53
-63.434952
43
1.300000
44
1.200000
45
-0.000000
46
3.000000
79
2
49
0.223607
49
-6.484597
53
-18.434948
43
1.400000
44
1.000000
45
-0.000000
46
3.000000
79
2
49
0.316228
49
-9.170605
53
-18.434948
43
4.400000
44
1.000000
45
-0.000000
46
3.000000
79
2
49
0.316228
49
-9.170605
53
-18.434948
43
7.400000
44
1.000000
45
-0.000000
46
3.000000
79
2
49
0.316228
49
-9.170605
53
0.000000
43
1.700000
44
0.900000
45
0.000000
46
3.000000
79
2
49
0.300000
49
-2.700000
53
45.000000
43
2.000000
44
0.900000
45
0.000000
46
3.000000
79
2
49
0.141421
49
-4.101219
53
108.434952
43
2.100000
44
1.000000
45
-0.000000
46
3.000000
79
2
49
0.316228
49
-9.170605
53
135.000000
43
2.000000
44
1.300000
45
0.000000
46
3.000000
79
2
49
0.282843
49
-3.959798
53
168.690079
43
1.800000
44
1.500000
45
-0.000000
46
3.000000
79
2
49
0.509902
49
-14.787157
53
168.690079
43
4.800000
44
1.500000
45
-0.000000
46
3.000000
79
2
49
0.509902
49
-14.787157
53
168.690079
43
7.800000
44
1.500000
45
-0.000000
46
3.000000
79
2
49
0.509902
49
-14.787157
53
168.690079
43
10.800000
44
1.500000
45
-0.000000
46
3.000000
79
2
49
0.509902
49
-14.787157
53
168.690079
43
13.800000
44
1.500000
45
-0.000000
46
3.000000
79
2
49
0.509902
49
-14.787157
53
-38.659809
43
1.400000
44
1.400000
45
-0.000000
46
3.000000
79
2
49
0.640312
49
-18.569060
53
-38.659809
43
4.400000
44
1.400000
45
-0.000000
46
3.000000
79
2
49
0.640312
49
-18.569060
53
-38.659809
43
7.400000
44
1.400000
45
-0.000000
46
3.000000
79
2
49
0.640312
49
-18.569060
53
-38.659809
43
10.400000
44
1.400000
45
-0.000000
46
3.000000
79
2
49
0.640312
49
-18.569060
53
-38.659809
43
13.400000
44
1.400000
45
-0.000000
46
3.000000
79
2
49
0.640312
49
-18.569060
53
71.565048
43
1.300000
44
0.000000
45
0.000000
46
3.000000
79
2
49
0.316228
49
-9.170605
53
45.000000
43
1.400000
44
0.300000
45
0.000000
46
3.000000
79
2
49
0.282843
49
-3.959798
53
0.000000
43
1.600000
44
0.500000
45
0.000000
46
3.000000
79
2
49
0.100000
49
-2.900000
53
-45.000000
43
1.700000
44
0.500000
45
-0.000000
46
3.000000
79
2
49
0.141421
49
-4.101219
53
-90.000000
43
1.800000
44
0.400000
45
3.000000
46
0.000000
79
2
49
0.400000
49
-2.600000
53
243.434967
43
1.800000
44
3.000000
45
-0.000000
46
3.000000
79
2
49
0.223607
49
-6.484597
53
225.000000
43
1.700000
44
2.800000
45
-0.000000
46
3.000000
79
2
49
0.282843
49
-3.959798
53
-90.000000
43
1.300000
44
3.000000
45
3.000000
46
0.000000
79
2
49
0.200000
49
-2.800000
53
-90.000000
43
1.300000
44
2.800000
45
3.000000
46
0.000000
79
2
49
0.200000
49
-2.800000
53
251.565048
43
1.600000
44
0.300000
45
-0.000000
46
3.000000
79
2
49
0.316228
49
-9.170605
53
243.434967
43
1.500000
44
3.000000
45
-0.000000
46
3.000000
79
2
49
0.223607
49
-6.484597
53
45.000000
43
1.300000
44
2.100000
45
0.000000
46
3.000000
79
2
49
0.424264
49
-3.818377
53
14.036243
43
1.600000
44
2.400000
45
0.000000
46
3.000000
79
2
49
0.412311
49
-11.957006
53
14.036243
43
4.600000
44
2.400000
45
0.000000
46
3.000000
79
2
49
0.412311
49
-11.957006
53
14.036243
43
7.600000
44
2.400000
45
0.000000
46
3.000000
79
2
49
0.412311
49
-11.957006
53
14.036243
43
10.600000
44
2.400000
45
0.000000
46
3.000000
79
2
49
0.412311
49
-11.957006
53
-45.000000
43
2.000000
44
2.500000
45
-0.000000
46
3.000000
79
2
49
0.282843
49
-3.959798
53
243.434967
43
2.200000
44
2.300000
45
-0.000000
46
3.000000
79
2
49
0.223607
49
-6.484597
53
206.565064
43
2.100000
44
2.100000
45
-0.000000
46
3.000000
79
2
49
0.223607
49
-6.484597
53
206.565064
43
5.100000
44
2.100000
45
-0.000000
46
3.000000
79
2
49
0.223607
49
-6.484597
53
201.801407
43
1.900000
44
2.000000
45
0.000000
46
3.000000
79
2
49
0.538516
49
-15.616978
53
201.801407
43
4.900000
44
2.000000
45
0.000000
46
3.000000
79
2
49
0.538516
49
-15.616978
53
201.801407
43
7.900000
44
2.000000
45
0.000000
46
3.000000
79
2
49
0.538516
49
-15.616978
53
201.801407
43
10.900000
44
2.000000
45
0.000000
46
3.000000
79
2
49
0.538516
49
-15.616978
53
201.801407
43
13.900000
44
2.000000
45
0.000000
46
3.000000
79
2
49
0.538516
49
-15.616978
53
36.869896
43
1.500000
44
2.000000
45
0.000000
46
3.000000
79
2
49
0.500000
49
-14.500000
53
36.869896
43
4.500000
44
2.000000
45
0.000000
46
3.000000
79
2
49
0.500000
49
-14.500000
53
36.869896
43
7.500000
44
2.000000
45
0.000000
46
3.000000
79
2
49
0.500000
49
-14.500000
53
36.869896
43
10.500000
44
2.000000
45
0.000000
46
3.000000
79
2
49
0.500000
49
-14.500000
53
-18.434948
43
1.900000
44
2.000000
45
-0.000000
46
3.000000
79
2
49
0.316228
49
-9.170605
53
-18.434948
43
4.900000
44
2.000000
45
-0.000000
46
3.000000
79
2
49
0.316228
49
-9.170605
53
-18.434948
43
7.900000
44
2.000000
45
-0.000000
46
3.000000
79
2
49
0.316228
49
-9.170605
53
-90.000000
43
2.200000
44
1.900000
45
3.000000
46
0.000000
79
2
49
0.300000
49
-2.700000
53
194.036255
43
2.200000
44
1.600000
45
-0.000000
46
3.000000
79
2
49
0.412311
49
-11.957006
53
194.036255
43
5.200000
44
1.600000
45
-0.000000
46
3.000000
79
2
49
0.412311
49
-11.957006
53
194.036255
43
8.200000
44
1.600000
45
-0.000000
46
3.000000
79
2
49
0.412311
49
-11.957006
53
194.036255
43
11.200000
44
1.600000
45
-0.000000
46
3.000000
79
2
49
0.412311
49
-11.957006
53
0.000000
43
1.700000
44
1.700000
45
0.000000
46
3.000000
79
2
49
0.300000
49
-2.700000
53
-71.565048
43
1.300000
44
2.100000
45
-0.000000
46
3.000000
79
2
49
0.316228
49
-9.170605
53
243.434967
43
1.400000
44
1.800000
45
-0.000000
46
3.000000
79
2
49
0.223607
49
-6.484597
53
243.434967
43
1.300000
44
1.600000
45
-0.000000
46
3.000000
79
2
49
0.223607
49
-6.484597
53
180.000000
43
1.200000
44
1.400000
45
-0.000000
46
-3.000000
79
2
49
0.300000
49
-2.700000
53
108.434952
43
0.900000
44
1.400000
45
-0.000000
46
3.000000
79
2
49
0.316228
49
-9.170605
53
90.000000
43
0.800000
44
1.700000
45
-3.000000
46
0.000000
79
2
49
0.400000
49
-2.600000
53
71.565048
43
0.800000
44
2.100000
45
0.000000
46
3.000000
79
2
49
0.316228
49
-9.170605
53
45.000000
43
0.900000
44
2.400000
45
0.000000
46
3.000000
79
2
49
0.141421
49
-4.101219
53
45.000000
43
1.100000
44
2.400000
45
0.000000
46
3.000000
79
2
49
0.282843
49
-3.959798
53
0.000000
43
1.300000
44
2.600000
45
0.000000
46
3.000000
79
2
49
0.200000
49
-2.800000
53
-63.434952
43
1.500000
44
2.600000
45
-0.000000
46
3.000000
79
2
49
0.223607
49
-6.484597
53
116.565048
43
1.300000
44
2.100000
45
-0.000000
46
3.000000
79
2
49
0.223607
49
-6.484597
53
135.000000
43
1.200000
44
2.300000
45
0.000000
46
3.000000
79
2
49
0.141421
49
-4.101219
53
101.309929
43
1.100000
44
1.700000
45
-0.000000
46
3.000000
79
2
49
0.509902
49
-14.787157
53
198.434952
43
0.900000
44
1.400000
45
-0.000000
46
3.000000
79
2
49
0.316228
49
-9.170605
53
198.434952
43
3.900000
44
1.400000
45
-0.000000
46
3.000000
79
2
49
0.316228
49
-9.170605
53
198.434952
43
6.900000
44
1.400000
45
-0.000000
46
3.000000
79
2
49
0.316228
49
-9.170605
53
225.000000
43
0.600000
44
1.300000
45
-0.000000
46
3.000000
79
2
49
0.141421
49
-4.101219
53
243.434967
43
0.500000
44
1.200000
45
-0.000000
46
3.000000
79
2
49
0.447214
49
-6.260990
53
0.000000
43
1.400000
44
0.700000
45
0.000000
46
3.000000
79
2
49
0.500000
49
-2.500000
53
-63.434952
43
1.200000
44
0.700000
45
-0.000000
46
3.000000
79
2
49
0.223607
49
-6.484597
53
-26.565050
43
1.300000
44
0.500000
45
-0.000000
46
3.000000
79
2
49
0.223607
49
-6.484597
53
-26.565050
43
4.300000
44
0.500000
45
-0.000000
46
3.000000
79
2
49
0.223607
49
-6.484597
53
18.434948
43
1.800000
44
0.400000
45
0.000000
46
3.000000
79
2
49
0.316228
49
-9.170605
53
18.434948
43
4.800000
44
0.400000
45
0.000000
46
3.000000
79
2
49
0.316228
49
-9.170605
53
18.434948
43
7.800000
44
0.400000
45
0.000000
46
3.000000
79
2
49
0.316228
49
-9.170605
53
104.036240
43
2.100000
44
0.500000
45
0.000000
46
3.000000
79
2
49
0.412311
49
-11.957006
53
45.000000
43
2.100000
44
1.000000
45
0.000000
46
3.000000
79
2
49
0.141421
49
-4.101219
53
0.000000
43
2.200000
44
1.100000
45
0.000000
46
3.000000
79
2
49
0.200000
49
-2.800000
53
-63.434952
43
2.400000
44
1.100000
45
-0.000000
46
3.000000
79
2
49
0.223607
49
-6.484597
53
-90.000000
43
2.500000
44
0.900000
45
3.000000
46
0.000000
79
2
49
0.400000
49
-2.600000
53
251.565048
43
2.500000
44
0.500000
45
-0.000000
46
3.000000
79
2
49
0.316228
49
-9.170605
53
180.000000
43
2.400000
44
0.200000
45
-0.000000
46
-3.000000
79
2
49
0.200000
49
-2.800000
53
108.434952
43
2.200000
44
0.200000
45
-0.000000
46
3.000000
79
2
49
0.316228
49
-9.170605
53
-90.000000
43
2.300000
44
0.900000
45
3.000000
46
0.000000
79
2
49
0.400000
49
-2.600000
53
180.000000
43
0.600000
44
1.900000
45
-0.000000
46
-3.000000
79
2
49
0.400000
49
-2.600000
53
153.434952
43
0.800000
44
2.100000
45
0.000000
46
3.000000
79
2
49
0.223607
49
-6.484597
53
153.434952
43
3.800000
44
2.100000
45
0.000000
46
3.000000
79
2
49
0.223607
49
-6.484597
53
180.000000
43
0.600000
44
2.200000
45
-0.000000
46
-3.000000
79
2
49
0.300000
49
-2.700000
53
206.565064
43
0.300000
44
2.200000
45
-0.000000
46
3.000000
79
2
49
0.223607
49
-6.484597
53
206.565064
43
3.300000
44
2.200000
45
-0.000000
46
3.000000
79
2
49
0.223607
49
-6.484597
53
-90.000000
43
0.100000
44
2.100000
45
3.000000
46
0.000000
79
2
49
0.300000
49
-2.700000
53
-45.000000
43
0.100000
44
1.800000
45
-0.000000
46
3.000000
79
2
49
0.141421
49
-4.101219
53
0.000000
43
0.200000
44
1.700000
45
0.000000
46
3.000000
79
2
49
0.300000
49
-2.700000
53
26.565050
43
0.500000
44
1.700000
45
0.000000
46
3.000000
79
2
49
0.223607
49
-6.484597
53
26.565050
43
3.500000
44
1.700000
45
0.000000
46
3.000000
79
2
49
0.223607
49
-6.484597
53
45.000000
43
0.700000
44
1.800000
45
0.000000
46
3.000000
79
2
49
0.141421
49
-4.101219
53
213.690064
43
0.700000
44
1.600000
45
0.000000
46
3.000000
79
2
49
0.360555
49
-10.456099
53
213.690064
43
3.700000
44
1.600000
45
0.000000
46
3.000000
79
2
49
0.360555
49
-10.456099
53
213.690064
43
6.700000
44
1.600000
45
0.000000
46
3.000000
79
2
49
0.360555
49
-10.456099
53
180.000000
43
0.200000
44
1.600000
45
-0.000000
46
-3.000000
79
2
49
0.200000
49
-2.800000
53
180.000000
43
3.000000
44
1.600000
45
-0.000000
46
-3.000000
79
2
49
0.300000
49
-2.700000
53
206.565064
43
2.700000
44
1.600000
45
-0.000000
46
3.000000
79
2
49
0.223607
49
-6.484597
53
206.565064
43
5.700000
44
1.600000
45
-0.000000
46
3.000000
79
2
49
0.223607
49
-6.484597
53
-90.000000
43
2.500000
44
1.500000
45
3.000000
46
0.000000
79
2
49
0.200000
49
-2.800000
53
-26.565050
43
2.500000
44
1.300000
45
-0.000000
46
3.000000
79
2
49
0.447214
49
-6.260990
53
-26.565050
43
5.500000
44
1.300000
45
-0.000000
46
3.000000
79
2
49
0.447214
49
-6.260990
53
-18.434948
43
2.700000
44
1.400000
45
-0.000000
46
3.000000
79
2
49
0.316228
49
-9.170605
53
-18.434948
43
5.700000
44
1.400000
45
-0.000000
46
3.000000
79
2
49
0.316228
49
-9.170605
53
-18.434948
43
8.700000
44
1.400000
45
-0.000000
46
3.000000
79
2
49
0.316228
49
-9.170605
53
18.434948
43
1.700000
44
2.600000
45
0.000000
46
3.000000
79
2
49
0.316228
49
-9.170605
53
18.434948
43
4.700000
44
2.600000
45
0.000000
46
3.000000
79
2
49
0.316228
49
-9.170605
53
18.434948
43
7.700000
44
2.600000
45
0.000000
46
3.000000
79
2
49
0.316228
49
-9.170605
53
56.309933
43
2.000000
44
2.500000
45
0.000000
46
3.000000
79
2
49
0.360555
49
-10.456099
53
56.309933
43
5.000000
44
2.500000
45
0.000000
46
3.000000
79
2
49
0.360555
49
-10.456099
53
-45.000000
43
2.300000
44
2.500000
45
-0.000000
46
3.000000
79
2
49
0.424264
49
-3.818377
53
-33.690067
43
2.200000
44
2.300000
45
-0.000000
46
3.000000
79
2
49
0.360555
49
-10.456099
53
-33.690067
43
5.200000
44
2.300000
45
-0.000000
46
3.000000
79
2
49
0.360555
49
-10.456099
53
-33.690067
43
8.200000
44
2.300000
45
-0.000000
46
3.000000
79
2
49
0.360555
49
-10.456099
53
-26.565050
43
2.500000
44
2.100000
45
-0.000000
46
3.000000
79
2
49
0.223607
49
-6.484597
53
-26.565050
43
5.500000
44
2.100000
45
-0.000000
46
3.000000
79
2
49
0.223607
49
-6.484597
53
63.434952
43
2.700000
44
2.000000
45
0.000000
46
3.000000
79
2
49
0.223607
49
-6.484597
53
116.565048
43
2.800000
44
2.200000
45
-0.000000
46
3.000000
79
2
49
0.447214
49
-6.260990
53
135.000000
43
2.600000
44
2.600000
45
0.000000
46
3.000000
79
2
49
0.141421
49
-4.101219
53
161.565048
43
2.500000
44
2.700000
45
0.000000
46
3.000000
79
2
49
0.316228
49
-9.170605
53
161.565048
43
5.500000
44
2.700000
45
0.000000
46
3.000000
79
2
49
0.316228
49
-9.170605
53
161.565048
43
8.500000
44
2.700000
45
0.000000
46
3.000000
79
2
49
0.316228
49
-9.170605
53
-63.434952
43
2.400000
44
1.700000
45
-0.000000
46
3.000000
79
2
49
0.223607
49
-6.484597
53
-26.565050
43
2.300000
44
2.000000
45
-0.000000
46
3.000000
79
2
49
0.223607
49
-6.484597
53
-26.565050
43
5.300000
44
2.000000
45
-0.000000
46
3.000000
79
2
49
0.223607
49
-6.484597
53
243.434967
43
2.500000
44
1.300000
45
-0.000000
46
3.000000
79
2
49
0.223607
49
-6.484597
53
-45.000000
43
2.600000
44
1.100000
45
-0.000000
46
3.000000
79
2
49
0.282843
49
-3.959798
53
-63.434952
43
2.900000
44
1.100000
45
-0.000000
46
3.000000
79
2
49
0.223607
49
-6.484597
53
243.434967
43
3.000000
44
0.900000
45
-0.000000
46
3.000000
79
2
49
0.223607
49
-6.484597
53
180.000000
43
2.900000
44
0.700000
45
-0.000000
46
-3.000000
79
2
49
0.100000
49
-2.900000
53
146.309936
43
2.800000
44
0.700000
45
-0.000000
46
3.000000
79
2
49
0.360555
49
-10.456099
53
146.309936
43
5.800000
44
0.700000
45
-0.000000
46
3.000000
79
2
49
0.360555
49
-10.456099
53
146.309936
43
8.800000
44
0.700000
45
-0.000000
46
3.000000
79
2
49
0.360555
49
-10.456099
53
-90.000000
43
1.100000
44
0.500000
45
3.000000
46
0.000000
79
2
49
0.500000
49
-2.500000
53
63.434952
43
0.300000
44
0.000000
45
0.000000
46
3.000000
79
2
49
0.223607
49
-6.484597
53
180.000000
43
0.300000
44
0.300000
45
-0.000000
46
-3.000000
79
2
49
0.300000
49
-2.700000
53
243.434967
43
2.700000
44
3.000000
45
-0.000000
46
3.000000
79
2
49
0.223607
49
-6.484597
53
-90.000000
43
2.600000
44
2.800000
45
3.000000
46
0.000000
79
2
49
0.200000
49
-2.800000
53
135.000000
43
1.100000
44
2.400000
45
0.000000
46
3.000000
79
2
49
0.282843
49
-3.959798
53
116.565048
43
0.900000
44
2.600000
45
-0.000000
46
3.000000
79
2
49
0.223607
49
-6.484597
53
90.000000
43
0.800000
44
2.800000
45
-3.000000
46
0.000000
79
2
49
0.200000
49
-2.800000
53
45.000000
43
2.600000
44
1.700000
45
0.000000
46
3.000000
79
2
49
0.141421
49
-4.101219
53
90.000000
43
2.700000
44
1.800000
45
-3.000000
46
0.000000
79
2
49
0.200000
49
-2.800000
53
-18.434948
43
2.700000
44
2.000000
45
-0.000000
46
3.000000
79
2
49
0.316228
49
-9.170605
53
-18.434948
43
5.700000
44
2.000000
45
-0.000000
46
3.000000
79
2
49
0.316228
49
-9.170605
53
-18.434948
43
8.700000
44
2.000000
45
-0.000000
46
3.000000
79
2
49
0.316228
49
-9.170605
53
-45.000000
43
0.000000
44
1.900000
45
-0.000000
46
3.000000
79
2
49
0.141421
49
-4.101219
53
0.000000
43
2.500000
44
1.700000
45
0.000000
46
3.000000
79
2
49
0.100000
49
-2.900000
53
135.000000
43
3.000000
44
0.000000
45
0.000000
46
3.000000
79
2
49
0.282843
49
-3.959798
53
-45.000000
43
0.000000
44
3.000000
45
-0.000000
46
3.000000
79
2
49
0.282843
49
-3.959798
53
-26.565050
43
0.000000
44
2.600000
45
-0.000000
46
3.000000
79
2
49
0.223607
49
-6.484597
53
-26.565050
43
3.000000
44
2.600000
45
-0.000000
46
3.000000
79
2
49
0.223607
49
-6.484597
53
45.000000
43
0.200000
44
2.500000
45
0.000000
46
3.000000
79
2
49
0.424264
49
-3.818377
53
135.000000
43
0.500000
44
2.800000
45
0.000000
46
3.000000
79
2
49
0.282843
49
-3.959798
53
135.000000
43
3.000000
44
0.300000
45
0.000000
46
3.000000
79
2
49
0.282843
49
-3.959798
53
116.565048
43
2.700000
44
0.000000
45
-0.000000
46
3.000000
79
2
49
0.223607
49
-6.484597
53
56.309933
43
2.600000
44
0.200000
45
0.000000
46
3.000000
79
2
49
0.360555
49
-10.456099
53
56.309933
43
5.600000
44
0.200000
45
0.000000
46
3.000000
79
2
49
0.360555
49
-10.456099
53
135.000000
43
2.200000
44
2.800000
45
0.000000
46
3.000000
79
2
49
0.141421
49
-4.101219
53
194.036255
43
2.100000
44
2.900000
45
-0.000000
46
3.000000
79
2
49
0.412311
49
-11.957006
53
194.036255
43
5.100000
44
2.900000
45
-0.000000
46
3.000000
79
2
49
0.412311
49
-11.957006
53
194.036255
43
8.100000
44
2.900000
45
-0.000000
46
3.000000
79
2
49
0.412311
49
-11.957006
53
194.036255
43
11.100000
44
2.900000
45
-0.000000
46
3.000000
79
2
49
0.412311
49
-11.957006
53
14.036243
43
0.400000
44
2.400000
45
0.000000
46
3.000000
79
2
49
0.412311
49
-11.957006
53
14.036243
43
3.400000
44
2.400000
45
0.000000
46
3.000000
79
2
49
0.412311
49
-11.957006
53
14.036243
43
6.400000
44
2.400000
45
0.000000
46
3.000000
79
2
49
0.412311
49
-11.957006
53
14.036243
43
9.400000
44
2.400000
45
0.000000
46
3.000000
79
2
49
0.412311
49
-11.957006
53
-71.565048
43
0.200000
44
2.500000
45
-0.000000
46
3.000000
79
2
49
0.316228
49
-9.170605
53
0.000000
43
0.200000
44
1.200000
45
0.000000
46
3.000000
79
2
49
0.300000
49
-2.700000
53
63.434952
43
0.200000
44
0.600000
45
0.000000
46
3.000000
79
2
49
0.223607
49
-6.484597
53
90.000000
43
2.800000
44
0.500000
45
-3.000000
46
0.000000
79
2
49
0.200000
49
-2.800000
53
153.434952
43
0.200000
44
0.600000
45
0.000000
46
3.000000
79
2
49
0.223607
49
-6.484597
53
153.434952
43
3.200000
44
0.600000
45
0.000000
46
3.000000
79
2
49
0.223607
49
-6.484597
53
90.000000
43
0.000000
44
0.700000
45
-3.000000
46
0.000000
79
2
49
0.300000
49
-2.700000
53
45.000000
43
0.000000
44
1.000000
45
0.000000
46
3.000000
79
2
49
0.282843
49
-3.959798
53
71.565048
43
0.200000
44
1.200000
45
0.000000
46
3.000000
79
2
49
0.316228
49
-9.170605
53
116.565048
43
0.300000
44
1.500000
45
-0.000000
46
3.000000
79
2
49
0.223607
49
-6.484597
53
-26.565050
43
2.200000
44
1.800000
45
-0.000000
46
3.000000
79
2
49
0.223607
49
-6.484597
53
-26.565050
43
5.200000
44
1.800000
45
-0.000000
46
3.000000
79
2
49
0.223607
49
-6.484597
53
0.000000
43
2.400000
44
1.700000
45
0.000000
46
3.000000
79
2
49
0.100000
49
-2.900000
53
63.434952
43
2.200000
44
2.800000
45
0.000000
46
3.000000
79
2
49
0.223607
49
-6.484597
53
45.000000
43
2.300000
44
0.000000
45
0.000000
46
3.000000
79
2
49
0.141421
49
-4.101219
53
90.000000
43
2.400000
44
0.100000
45
-3.000000
46
0.000000
79
2
49
0.100000
49
-2.900000
53
-53.130100
43
2.700000
44
3.000000
45
-0.000000
46
3.000000
79
2
49
0.500000
49
-14.500000
53
-53.130100
43
5.700000
44
3.000000
45
-0.000000
46
3.000000
79
2
49
0.500000
49
-14.500000
53
-53.130100
43
8.700000
44
3.000000
45
-0.000000
46
3.000000
79
2
49
0.500000
49
-14.500000
53
90.000000
43
0.800000
44
0.000000
45
-3.000000
46
0.000000
79
2
49
0.100000
49
-2.900000
53
-56.309933
43
2.800000
44
2.600000
45
-0.000000
46
3.000000
79
2
49
0.360555
49
-10.456099
53
-56.309933
43
5.800000
44
2.600000
45
-0.000000
46
3.000000
79
2
49
0.360555
49
-10.456099
53
0.000000
43
0.500000
44
2.800000
45
0.000000
46
3.000000
79
2
49
0.300000
49
-2.700000
98
0
0
ENDSEC
0
SECTION
2
OBJECTS
0
DICTIONARY
5
22
100
AcDbDictionary
281
1
3
ACAD_COLOR
350
23
3
ACAD_GROUP
350
26
3
ACAD_LAYOUT
350
27
3
ACAD_MATERIAL
350
28
3
ACAD_MLINESTYLE
350
29
3
ACAD_PLOTSETTINGS
350
2A
3
ACAD_PLOTSTYLENAME
350
2B
3
ACAD_TABLESTYLE
350
2C
3
AcadDim
350
2D
0
DICTIONARY
5
23
100
AcDbDictionary
0
DICTIONARY
5
26
100
AcDbDictionary
0
DICTIONARY
5
27
100
AcDbDictionary
0
DICTIONARY
5
28
100
AcDbDictionary
0
DICTIONARY
5
29
100
AcDbDictionary
0
DICTIONARY
5
2A
100
AcDbDictionary
0
DICTIONARY
5
2B
100
AcDbDictionary
0
DICTIONARY
5
2C
100
AcDbDictionary
0
DICTIONARY
5
2D
100
AcDbDictionary
0
ENDSEC
0
EOF
