999
CadZinho - Minimalist CAD by Zecruel
0
SECTION
2
HEADER
9
$ACADVER
1
AC1021
9
$HANDSEED
5
65
9
$INSUNITS
70
4
9
$LWDISPLAY
290
1
9
$LTSCALE
40
2.000000
0
ENDSEC
0
SECTION
2
CLASSES
0
ENDSEC
0
SECTION
2
TABLES
0
TABLE
2
VPORT
5
1
100
AcDbSymbolTable
70
1
0
ENDTAB
0
TABLE
2
LTYPE
5
4
100
AcDbSymbolTable
70
1000
0
LTYPE
5
5
100
AcDbSymbolTableRecord
100
AcDbLinetypeTableRecord
2
ByBlock
70
0
3

72
65
73
0
40
0.000000
0
LTYPE
5
6
100
AcDbSymbolTableRecord
100
AcDbLinetypeTableRecord
2
ByLayer
70
0
3

72
65
73
0
40
0.000000
0
LTYPE
5
7
100
AcDbSymbolTableRecord
100
AcDbLinetypeTableRecord
2
Continuous
70
0
3
___________________________________
72
65
73
0
40
0.000000
0
LTYPE
5
8
100
AcDbSymbolTableRecord
100
AcDbLinetypeTableRecord
2
Border
70
0
3
____ . ____ ____ . ____ ____ . ____
72
65
73
6
40
1.750000
49
0.500000
74
0
49
-0.250000
74
0
49
0.500000
74
0
49
-0.250000
74
0
49
0.000000
74
0
49
-0.250000
74
0
0
LTYPE
5
9
100
AcDbSymbolTableRecord
100
AcDbLinetypeTableRecord
2
Center
70
0
3
____ _ ____ _ ____ _ ____ _ ____ _
72
65
73
4
40
2.000000
49
1.250000
74
0
49
-0.250000
74
0
49
0.250000
74
0
49
-0.250000
74
0
0
LTYPE
5
A
100
AcDbSymbolTableRecord
100
AcDbLinetypeTableRecord
2
Dashdot
70
0
3
____ . ____ . ____ . ____ . ____ .
72
65
73
4
40
1.000000
49
0.500000
74
0
49
-0.250000
74
0
49
0.000000
74
0
49
-0.250000
74
0
0
LTYPE
5
B
100
AcDbSymbolTableRecord
100
AcDbLinetypeTableRecord
2
Dashed
70
0
3
____ ____ ____ ____ ____ ____ ____
72
65
73
2
40
0.750000
49
0.500000
74
0
49
-0.250000
74
0
0
LTYPE
5
C
100
AcDbSymbolTableRecord
100
AcDbLinetypeTableRecord
2
Divide
70
0
3
____ . . ____ . . ____ . . ____ . .
72
65
73
6
40
1.250000
49
0.500000
74
0
49
-0.250000
74
0
49
0.000000
74
0
49
-0.250000
74
0
49
0.000000
74
0
49
-0.250000
74
0
0
LTYPE
5
D
100
AcDbSymbolTableRecord
100
AcDbLinetypeTableRecord
2
Dot
70
0
3
. . . . . . . . . . . . . . . . . .
72
65
73
2
40
0.250000
49
0.000000
74
0
49
-0.250000
74
0
0
LTYPE
5
E
100
AcDbSymbolTableRecord
100
AcDbLinetypeTableRecord
2
Hidden
70
0
3
__ __ __ __ __ __ __ __ __ __ __ __
72
65
73
2
40
0.375000
49
0.250000
74
0
49
-0.125000
74
0
0
LTYPE
5
F
100
AcDbSymbolTableRecord
100
AcDbLinetypeTableRecord
2
Phantom
70
0
3
_____ _ _ _____ _ _ _____ _ _ _____
72
65
73
6
40
2.500000
49
1.250000
74
0
49
-0.250000
74
0
49
0.250000
74
0
49
-0.250000
74
0
49
0.250000
74
0
49
-0.250000
74
0
0
LTYPE
5
26
100
AcDbSymbolTableRecord
100
AcDbLinetypeTableRecord
2
Fence_circle
70
0
3
----0-----0----0-----0----0-----0--
72
65
73
4
40
1.450000
49
0.250000
74
0
49
-0.100000
74
4
75
133
340
24
46
0.100000
50
0.000000
44
-0.100000
45
0.000000
49
-0.100000
74
0
49
1.000000
74
0
0
LTYPE
5
27
100
AcDbSymbolTableRecord
100
AcDbLinetypeTableRecord
2
Fence_square
70
0
3
----[]-----[]----[]-----[]----[]---
72
65
73
4
40
1.450000
49
0.250000
74
0
49
-0.100000
74
4
75
132
340
24
46
0.100000
50
0.000000
44
-0.100000
45
0.000000
49
-0.100000
74
0
49
1.000000
74
0
0
LTYPE
5
28
100
AcDbSymbolTableRecord
100
AcDbLinetypeTableRecord
2
Fence_X
70
0
3
----X-----X----X-----X----X-----X--
72
65
73
4
40
1.450000
49
0.250000
74
0
49
-0.100000
74
2
75
0
340
13
46
0.100000
50
0.000000
44
-0.040000
45
-0.050000
9
X
49
-0.100000
74
0
49
1.000000
74
0
0
LTYPE
5
29
100
AcDbSymbolTableRecord
100
AcDbLinetypeTableRecord
2
Tracks
70
0
3
-|-|-|-|-|-|-|-|-|-|-|-|-|-|-|-|-|-
72
65
73
2
40
0.300000
49
0.150000
74
4
75
130
340
24
46
0.250000
50
0.000000
44
0.000000
45
0.000000
49
0.150000
74
0
0
LTYPE
5
2A
100
AcDbSymbolTableRecord
100
AcDbLinetypeTableRecord
2
Batting
70
0
3
SSSSSSSSSSSSSSSSSSSSSS
72
65
73
4
40
0.400100
49
0.000100
74
0
49
-0.100000
74
4
75
134
340
24
46
0.100000
50
0.000000
44
-0.100000
45
0.000000
49
-0.200000
74
4
75
134
340
24
46
0.100000
50
180.000000
44
0.100000
45
0.000000
49
-0.100000
74
0
0
LTYPE
5
2B
100
AcDbSymbolTableRecord
100
AcDbLinetypeTableRecord
2
Hot_water
70
0
3
---- HW ---- HW ---- HW ----
72
65
73
3
40
0.900000
49
0.500000
74
0
49
-0.200000
74
2
75
0
340
13
46
0.100000
50
0.000000
44
-0.100000
45
-0.050000
9
HW
49
-0.200000
74
0
0
LTYPE
5
2C
100
AcDbSymbolTableRecord
100
AcDbLinetypeTableRecord
2
Gas
70
0
3
----GAS----GAS----GAS----GAS--
72
65
73
3
40
0.950000
49
0.500000
74
0
49
-0.200000
74
2
75
0
340
13
46
0.100000
50
0.000000
44
-0.100000
45
-0.050000
9
GAS
49
-0.250000
74
0
0
LTYPE
5
2D
100
AcDbSymbolTableRecord
100
AcDbLinetypeTableRecord
2
Zigzag
70
0
3
/\/\/\/\/\/\/\/\/\/\/\/\/\/\/\
72
65
73
4
40
0.800100
49
0.000100
74
0
49
-0.200000
74
4
75
131
340
24
46
0.200000
50
0.000000
44
-0.200000
45
0.000000
49
-0.400000
74
4
75
131
340
24
46
0.200000
50
180.000000
44
0.200000
45
0.000000
49
-0.200000
74
0
0
ENDTAB
0
TABLE
2
LAYER
5
10
100
AcDbSymbolTable
70
1000
0
LAYER
5
11
100
AcDbSymbolTableRecord
100
AcDbLayerTableRecord
2
0
70
0
62
7
6
Continuous
370
0
390
0
0
LAYER
5
25
100
AcDbSymbolTableRecord
100
AcDbLayerTableRecord
2
fence0
70
0
62
1
6
Fence_circle
370
0
390
0
0
LAYER
5
2E
100
AcDbSymbolTableRecord
100
AcDbLayerTableRecord
2
fence_sq
70
0
62
3
6
Fence_square
370
0
390
0
0
LAYER
5
2F
100
AcDbSymbolTableRecord
100
AcDbLayerTableRecord
2
fence_x
70
0
62
4
6
Fence_X
370
0
390
0
0
LAYER
5
30
100
AcDbSymbolTableRecord
100
AcDbLayerTableRecord
2
tracks
70
0
62
5
6
Tracks
370
0
390
0
0
LAYER
5
31
100
AcDbSymbolTableRecord
100
AcDbLayerTableRecord
2
gas
70
0
62
7
6
Gas
370
0
390
0
0
LAYER
5
32
100
AcDbSymbolTableRecord
100
AcDbLayerTableRecord
2
bat
70
0
62
6
6
Batting
370
0
390
0
0
LAYER
5
33
100
AcDbSymbolTableRecord
100
AcDbLayerTableRecord
2
zigzag
70
0
62
2
6
Zigzag
370
0
390
0
0
ENDTAB
0
TABLE
2
STYLE
5
12
100
AcDbSymbolTable
70
1000
0
STYLE
5
13
100
AcDbSymbolTableRecord
100
AcDbTextStyleTableRecord
2
Standard
70
0
40
0.000000
41
1.000000
50
0.000000
71
0
42
1.000000
3
TXT.SHX
4

0
STYLE
5
24
100
AcDbSymbolTableRecord
100
AcDbTextStyleTableRecord
2

70
1
40
0.000000
41
1.000000
50
0.000000
71
0
42
1.000000
3
LTYPESHP.SHX
4

0
ENDTAB
0
TABLE
2
VIEW
5
14
100
AcDbSymbolTable
70
0
0
ENDTAB
0
TABLE
2
UCS
5
15
100
AcDbSymbolTable
70
0
0
ENDTAB
0
TABLE
2
APPID
5
16
100
AcDbSymbolTable
70
10
0
APPID
5
17
100
AcDbSymbolTableRecord
100
AcDbRegAppTableRecord
2
ACAD
70
0
0
APPID
5
18
100
AcDbSymbolTableRecord
100
AcDbRegAppTableRecord
2
CADZINHO
70
0
0
ENDTAB
0
TABLE
2
DIMSTYLE
5
19
100
AcDbSymbolTable
70
1
100
AcDbDimStyleTable
71
1
0
DIMSTYLE
105
1A
100
AcDbSymbolTableRecord
100
AcDbDimStyleTableRecord
2
Standard
70
0
340
C
0
ENDTAB
0
TABLE
2
BLOCK_RECORD
5
1B
100
AcDbSymbolTable
70
9999
0
BLOCK_RECORD
5
1C
100
AcDbSymbolTableRecord
100
AcDbBlockTableRecord
2
*Model_Space
70
0
0
BLOCK_RECORD
5
1D
100
AcDbSymbolTableRecord
100
AcDbBlockTableRecord
2
*Paper_Space
70
0
0
ENDTAB
0
ENDSEC
0
SECTION
2
BLOCKS
0
BLOCK
5
1E
100
AcDbEntity
8
0
100
AcDbBlockBegin
2
*Model_Space
70
0
10
0.000000
20
0.000000
30
0.000000
3
*Model_Space
1

0
ENDBLK
5
1F
100
AcDbEntity
8
0
100
AcDbBlockEnd
0
BLOCK
5
20
100
AcDbEntity
8
0
100
AcDbBlockBegin
2
*Paper_Space
70
0
10
0.000000
20
0.000000
30
0.000000
3
*Paper_Space
1

0
ENDBLK
5
21
100
AcDbEntity
8
0
100
AcDbBlockEnd
0
ENDSEC
0
SECTION
2
ENTITIES
0
LINE
5
34
100
AcDbEntity
67
0
8
0
6
ByLayer
62
256
370
-1
100
AcDbLine
10
5.000000
20
328.300000
30
0.000000
11
39.700000
21
328.300000
31
0.000000
0
LWPOLYLINE
5
35
100
AcDbEntity
67
0
8
0
6
ByLayer
62
256
370
-1
100
AcDbPolyline
90
3
70
1
10
7.300000
20
325.250000
30
0.000000
42
0.000000
10
34.000000
20
325.250000
30
0.000000
42
-1.000000
10
34.000000
20
315.850000
30
0.000000
42
0.000000
0
ELLIPSE
5
37
100
AcDbEntity
67
0
8
0
6
ByLayer
62
256
370
-1
100
AcDbEllipse
10
9.200000
20
316.850000
30
0.000000
11
3.460040
21
-5.992965
31
0.000000
40
0.577350
41
0.000000
42
6.283185
0
SPLINE
5
38
100
AcDbEntity
67
0
8
0
6
ByLayer
62
256
370
-1
100
AcDbSpline
70
0
71
3
72
9
73
5
74
0
40
0.000000
40
0.000000
40
0.000000
40
0.000000
40
1.000000
40
2.000000
40
2.000000
40
2.000000
40
2.000000
10
15.899451
20
310.634066
30
0.000000
10
18.042308
20
319.370330
30
0.000000
10
26.613736
20
309.260440
30
0.000000
10
30.679670
20
307.776923
30
0.000000
10
40.844505
20
314.809890
30
0.000000
0
LINE
5
39
100
AcDbEntity
67
0
8
fence0
6
ByLayer
62
256
370
-1
100
AcDbLine
10
5.000000
20
305.505113
30
0.000000
11
39.700000
21
305.505113
31
0.000000
0
LWPOLYLINE
5
3A
100
AcDbEntity
67
0
8
fence0
6
ByLayer
62
256
370
-1
100
AcDbPolyline
90
3
70
1
10
7.300000
20
302.455113
30
0.000000
42
0.000000
10
34.000000
20
302.455113
30
0.000000
42
-1.000000
10
34.000000
20
293.055113
30
0.000000
42
0.000000
0
ELLIPSE
5
3B
100
AcDbEntity
67
0
8
fence0
6
ByLayer
62
256
370
-1
100
AcDbEllipse
10
9.200000
20
294.055113
30
0.000000
11
3.460040
21
-5.992965
31
0.000000
40
0.577350
41
0.000000
42
6.283185
0
SPLINE
5
3C
100
AcDbEntity
67
0
8
fence0
6
ByLayer
62
256
370
-1
100
AcDbSpline
70
0
71
3
72
9
73
5
74
0
40
0.000000
40
0.000000
40
0.000000
40
0.000000
40
1.000000
40
2.000000
40
2.000000
40
2.000000
40
2.000000
10
15.899451
20
287.839179
30
0.000000
10
18.042308
20
296.575443
30
0.000000
10
26.613736
20
286.465553
30
0.000000
10
30.679670
20
284.982036
30
0.000000
10
40.844505
20
292.015003
30
0.000000
0
LINE
5
3D
100
AcDbEntity
67
0
8
fence_x
6
ByLayer
62
256
370
-1
100
AcDbLine
10
50.842657
20
328.300000
30
0.000000
11
85.542657
21
328.300000
31
0.000000
0
LWPOLYLINE
5
3E
100
AcDbEntity
67
0
8
fence_x
6
ByLayer
62
256
370
-1
100
AcDbPolyline
90
3
70
1
10
53.142657
20
325.250000
30
0.000000
42
0.000000
10
79.842657
20
325.250000
30
0.000000
42
-1.000000
10
79.842657
20
315.850000
30
0.000000
42
0.000000
0
ELLIPSE
5
3F
100
AcDbEntity
67
0
8
fence_x
6
ByLayer
62
256
370
-1
100
AcDbEllipse
10
55.042657
20
316.850000
30
0.000000
11
3.460040
21
-5.992965
31
0.000000
40
0.577350
41
0.000000
42
6.283185
0
SPLINE
5
40
100
AcDbEntity
67
0
8
fence_x
6
ByLayer
62
256
370
-1
100
AcDbSpline
70
0
71
3
72
9
73
5
74
0
40
0.000000
40
0.000000
40
0.000000
40
0.000000
40
1.000000
40
2.000000
40
2.000000
40
2.000000
40
2.000000
10
61.742108
20
310.634066
30
0.000000
10
63.884965
20
319.370330
30
0.000000
10
72.456394
20
309.260440
30
0.000000
10
76.522328
20
307.776923
30
0.000000
10
86.687163
20
314.809890
30
0.000000
0
LINE
5
41
100
AcDbEntity
67
0
8
fence_sq
6
ByLayer
62
256
370
-1
100
AcDbLine
10
50.842657
20
305.505113
30
0.000000
11
85.542657
21
305.505113
31
0.000000
0
LWPOLYLINE
5
42
100
AcDbEntity
67
0
8
fence_sq
6
ByLayer
62
256
370
-1
100
AcDbPolyline
90
3
70
1
10
53.142657
20
302.455113
30
0.000000
42
0.000000
10
79.842657
20
302.455113
30
0.000000
42
-1.000000
10
79.842657
20
293.055113
30
0.000000
42
0.000000
0
ELLIPSE
5
43
100
AcDbEntity
67
0
8
fence_sq
6
ByLayer
62
256
370
-1
100
AcDbEllipse
10
55.042657
20
294.055113
30
0.000000
11
3.460040
21
-5.992965
31
0.000000
40
0.577350
41
0.000000
42
6.283185
0
SPLINE
5
44
100
AcDbEntity
67
0
8
fence_sq
6
ByLayer
62
256
370
-1
100
AcDbSpline
70
0
71
3
72
9
73
5
74
0
40
0.000000
40
0.000000
40
0.000000
40
0.000000
40
1.000000
40
2.000000
40
2.000000
40
2.000000
40
2.000000
10
61.742108
20
287.839179
30
0.000000
10
63.884965
20
296.575443
30
0.000000
10
72.456394
20
286.465553
30
0.000000
10
76.522328
20
284.982036
30
0.000000
10
86.687163
20
292.015003
30
0.000000
0
LINE
5
55
100
AcDbEntity
67
0
8
bat
6
ByLayer
62
256
370
-1
100
AcDbLine
10
5.000000
20
235.158603
30
0.000000
11
39.700000
21
235.158603
31
0.000000
0
LWPOLYLINE
5
56
100
AcDbEntity
67
0
8
bat
6
ByLayer
62
256
370
-1
100
AcDbPolyline
90
3
70
1
10
7.300000
20
238.208603
30
0.000000
42
-0.000000
10
34.000000
20
238.208603
30
0.000000
42
1.000000
10
34.000000
20
247.608603
30
0.000000
42
-0.000000
0
ELLIPSE
5
57
100
AcDbEntity
67
0
8
bat
6
ByLayer
62
256
370
-1
100
AcDbEllipse
10
9.200000
20
246.608603
30
0.000000
11
3.460040
21
5.992965
31
0.000000
40
0.577350
41
0.000000
42
6.283185
0
SPLINE
5
58
100
AcDbEntity
67
0
8
bat
6
ByLayer
62
256
370
-1
100
AcDbSpline
70
0
71
3
72
9
73
5
74
0
40
0.000000
40
0.000000
40
0.000000
40
0.000000
40
1.000000
40
2.000000
40
2.000000
40
2.000000
40
2.000000
10
15.899451
20
252.824537
30
0.000000
10
18.042308
20
244.088273
30
0.000000
10
26.613736
20
254.198163
30
0.000000
10
30.679670
20
255.681680
30
0.000000
10
40.844505
20
248.648713
30
0.000000
0
LINE
5
59
100
AcDbEntity
67
0
8
tracks
6
ByLayer
62
256
370
-1
100
AcDbLine
10
5.000000
20
257.953490
30
0.000000
11
39.700000
21
257.953490
31
0.000000
0
LWPOLYLINE
5
5A
100
AcDbEntity
67
0
8
tracks
6
ByLayer
62
256
370
-1
100
AcDbPolyline
90
3
70
1
10
7.300000
20
261.003490
30
0.000000
42
-0.000000
10
34.000000
20
261.003490
30
0.000000
42
1.000000
10
34.000000
20
270.403490
30
0.000000
42
-0.000000
0
ELLIPSE
5
5B
100
AcDbEntity
67
0
8
tracks
6
ByLayer
62
256
370
-1
100
AcDbEllipse
10
9.200000
20
269.403490
30
0.000000
11
3.460040
21
5.992965
31
0.000000
40
0.577350
41
0.000000
42
6.283185
0
SPLINE
5
5C
100
AcDbEntity
67
0
8
tracks
6
ByLayer
62
256
370
-1
100
AcDbSpline
70
0
71
3
72
9
73
5
74
0
40
0.000000
40
0.000000
40
0.000000
40
0.000000
40
1.000000
40
2.000000
40
2.000000
40
2.000000
40
2.000000
10
15.899451
20
275.619424
30
0.000000
10
18.042308
20
266.883160
30
0.000000
10
26.613736
20
276.993050
30
0.000000
10
30.679670
20
278.476567
30
0.000000
10
40.844505
20
271.443600
30
0.000000
0
LINE
5
5D
100
AcDbEntity
67
0
8
zigzag
6
ByLayer
62
256
370
-1
100
AcDbLine
10
50.842657
20
235.158603
30
0.000000
11
85.542657
21
235.158603
31
0.000000
0
LWPOLYLINE
5
5E
100
AcDbEntity
67
0
8
zigzag
6
ByLayer
62
256
370
-1
100
AcDbPolyline
90
3
70
1
10
53.142657
20
238.208603
30
0.000000
42
-0.000000
10
79.842657
20
238.208603
30
0.000000
42
1.000000
10
79.842657
20
247.608603
30
0.000000
42
-0.000000
0
ELLIPSE
5
5F
100
AcDbEntity
67
0
8
zigzag
6
ByLayer
62
256
370
-1
100
AcDbEllipse
10
55.042657
20
246.608603
30
0.000000
11
3.460040
21
5.992965
31
0.000000
40
0.577350
41
0.000000
42
6.283185
0
SPLINE
5
60
100
AcDbEntity
67
0
8
zigzag
6
ByLayer
62
256
370
-1
100
AcDbSpline
70
0
71
3
72
9
73
5
74
0
40
0.000000
40
0.000000
40
0.000000
40
0.000000
40
1.000000
40
2.000000
40
2.000000
40
2.000000
40
2.000000
10
61.742108
20
252.824537
30
0.000000
10
63.884965
20
244.088273
30
0.000000
10
72.456394
20
254.198163
30
0.000000
10
76.522328
20
255.681680
30
0.000000
10
86.687163
20
248.648713
30
0.000000
0
LINE
5
61
100
AcDbEntity
67
0
8
gas
6
ByLayer
62
256
370
-1
100
AcDbLine
10
50.842657
20
257.953490
30
0.000000
11
85.542657
21
257.953490
31
0.000000
0
LWPOLYLINE
5
62
100
AcDbEntity
67
0
8
gas
6
ByLayer
62
256
370
-1
100
AcDbPolyline
90
3
70
1
10
53.142657
20
261.003490
30
0.000000
42
-0.000000
10
79.842657
20
261.003490
30
0.000000
42
1.000000
10
79.842657
20
270.403490
30
0.000000
42
-0.000000
0
ELLIPSE
5
63
100
AcDbEntity
67
0
8
gas
6
ByLayer
62
256
370
-1
100
AcDbEllipse
10
55.042657
20
269.403490
30
0.000000
11
3.460040
21
5.992965
31
0.000000
40
0.577350
41
0.000000
42
6.283185
0
SPLINE
5
64
100
AcDbEntity
67
0
8
gas
6
ByLayer
62
256
370
-1
100
AcDbSpline
70
0
71
3
72
9
73
5
74
0
40
0.000000
40
0.000000
40
0.000000
40
0.000000
40
1.000000
40
2.000000
40
2.000000
40
2.000000
40
2.000000
10
61.742108
20
275.619424
30
0.000000
10
63.884965
20
266.883160
30
0.000000
10
72.456394
20
276.993050
30
0.000000
10
76.522328
20
278.476567
30
0.000000
10
86.687163
20
271.443600
30
0.000000
0
ENDSEC
0
SECTION
2
OBJECTS
0
DICTIONARY
5
22
100
AcDbDictionary
3
ACAD_GROUP
350
23
0
DICTIONARY
5
23
100
AcDbDictionary
0
ENDSEC
0
EOF
