999
CadZinho - Minimalist CAD by Zecruel
0
SECTION
2
HEADER
9
$ACADVER
1
AC1021
9
$HANDSEED
5
15E
9
$INSUNITS
70
4
9
$LWDISPLAY
290
1
0
ENDSEC
0
SECTION
2
CLASSES
0
ENDSEC
0
SECTION
2
TABLES
0
TABLE
2
VPORT
5
1
100
AcDbSymbolTable
70
1000
0
VPORT
5
25
100
AcDbSymbolTableRecord
100
AcDbViewportTableRecord
2
*ACTIVE
70
0
10
0.000000
20
0.000000
11
1.000000
21
1.000000
12
140.000000
22
10.000000
13
0.000000
23
0.000000
14
100.000000
24
100.000000
15
100.000000
25
100.000000
16
0.000000
26
0.000000
36
1.000000
17
0.000000
27
0.000000
37
0.000000
40
200.000000
41
1.800000
42
50.000000
43
0.000000
44
0.000000
50
0.000000
51
0.000000
0
ENDTAB
0
TABLE
2
LTYPE
5
4
100
AcDbSymbolTable
70
1000
0
LTYPE
5
5
100
AcDbSymbolTableRecord
100
AcDbLinetypeTableRecord
2
ByBlock
70
0
3

72
65
73
0
40
0.000000
0
LTYPE
5
6
100
AcDbSymbolTableRecord
100
AcDbLinetypeTableRecord
2
ByLayer
70
0
3

72
65
73
0
40
0.000000
0
LTYPE
5
7
100
AcDbSymbolTableRecord
100
AcDbLinetypeTableRecord
2
Continuous
70
0
3
___________________________________
72
65
73
0
40
0.000000
0
LTYPE
5
8
100
AcDbSymbolTableRecord
100
AcDbLinetypeTableRecord
2
Border
70
0
3
____ . ____ ____ . ____ ____ . ____
72
65
73
6
40
1.750000
49
0.500000
74
0
49
-0.250000
74
0
49
0.500000
74
0
49
-0.250000
74
0
49
0.000000
74
0
49
-0.250000
74
0
0
LTYPE
5
9
100
AcDbSymbolTableRecord
100
AcDbLinetypeTableRecord
2
Center
70
0
3
____ _ ____ _ ____ _ ____ _ ____ _
72
65
73
4
40
2.000000
49
1.250000
74
0
49
-0.250000
74
0
49
0.250000
74
0
49
-0.250000
74
0
0
LTYPE
5
A
100
AcDbSymbolTableRecord
100
AcDbLinetypeTableRecord
2
Dashdot
70
0
3
____ . ____ . ____ . ____ . ____ .
72
65
73
4
40
1.000000
49
0.500000
74
0
49
-0.250000
74
0
49
0.000000
74
0
49
-0.250000
74
0
0
LTYPE
5
B
100
AcDbSymbolTableRecord
100
AcDbLinetypeTableRecord
2
Dashed
70
0
3
____ ____ ____ ____ ____ ____ ____
72
65
73
2
40
0.750000
49
0.500000
74
0
49
-0.250000
74
0
0
LTYPE
5
C
100
AcDbSymbolTableRecord
100
AcDbLinetypeTableRecord
2
Divide
70
0
3
____ . . ____ . . ____ . . ____ . .
72
65
73
6
40
1.250000
49
0.500000
74
0
49
-0.250000
74
0
49
0.000000
74
0
49
-0.250000
74
0
49
0.000000
74
0
49
-0.250000
74
0
0
LTYPE
5
D
100
AcDbSymbolTableRecord
100
AcDbLinetypeTableRecord
2
Dot
70
0
3
. . . . . . . . . . . . . . . . . .
72
65
73
2
40
0.250000
49
0.000000
74
0
49
-0.250000
74
0
0
LTYPE
5
E
100
AcDbSymbolTableRecord
100
AcDbLinetypeTableRecord
2
Hidden
70
0
3
__ __ __ __ __ __ __ __ __ __ __ __
72
65
73
2
40
0.375000
49
0.250000
74
0
49
-0.125000
74
0
0
LTYPE
5
F
100
AcDbSymbolTableRecord
100
AcDbLinetypeTableRecord
2
Phantom
70
0
3
_____ _ _ _____ _ _ _____ _ _ _____
72
65
73
6
40
2.500000
49
1.250000
74
0
49
-0.250000
74
0
49
0.250000
74
0
49
-0.250000
74
0
49
0.250000
74
0
49
-0.250000
74
0
0
ENDTAB
0
TABLE
2
LAYER
5
10
100
AcDbSymbolTable
70
1000
0
LAYER
5
11
100
AcDbSymbolTableRecord
100
AcDbLayerTableRecord
2
0
70
0
62
7
6
Continuous
370
0
390
2B
0
ENDTAB
0
TABLE
2
STYLE
5
12
100
AcDbSymbolTable
70
1000
0
STYLE
5
13
100
AcDbSymbolTableRecord
100
AcDbTextStyleTableRecord
2
Standard
70
0
40
0.000000
41
1.000000
50
0.000000
71
0
42
1.000000
3
TXT.SHX
4

0
STYLE
5
24
100
AcDbSymbolTableRecord
100
AcDbTextStyleTableRecord
2

70
1
40
0.000000
41
1.000000
50
0.000000
71
0
42
1.000000
3
LTYPESHP.SHX
4

0
ENDTAB
0
TABLE
2
VIEW
5
14
100
AcDbSymbolTable
70
0
0
ENDTAB
0
TABLE
2
UCS
5
15
100
AcDbSymbolTable
70
0
0
ENDTAB
0
TABLE
2
APPID
5
16
100
AcDbSymbolTable
70
10
0
APPID
5
17
100
AcDbSymbolTableRecord
100
AcDbRegAppTableRecord
2
ACAD
70
0
0
APPID
5
18
100
AcDbSymbolTableRecord
100
AcDbRegAppTableRecord
2
CADZINHO
70
0
0
ENDTAB
0
TABLE
2
DIMSTYLE
5
19
100
AcDbSymbolTable
70
1
100
AcDbDimStyleTable
71
1
0
DIMSTYLE
105
1A
100
AcDbSymbolTableRecord
100
AcDbDimStyleTableRecord
2
Standard
70
0
340
C
0
ENDTAB
0
TABLE
2
BLOCK_RECORD
5
1B
100
AcDbSymbolTable
70
9999
0
BLOCK_RECORD
5
1C
100
AcDbSymbolTableRecord
100
AcDbBlockTableRecord
2
*Model_Space
70
0
0
BLOCK_RECORD
5
1D
100
AcDbSymbolTableRecord
100
AcDbBlockTableRecord
2
*Paper_Space
70
0
0
ENDTAB
0
ENDSEC
0
SECTION
2
BLOCKS
0
BLOCK
5
1E
100
AcDbEntity
8
0
100
AcDbBlockBegin
2
*Model_Space
70
0
10
0.000000
20
0.000000
30
0.000000
3
*Model_Space
1

0
ENDBLK
5
1F
100
AcDbEntity
8
0
100
AcDbBlockEnd
0
BLOCK
5
20
100
AcDbEntity
8
0
100
AcDbBlockBegin
2
*Paper_Space
70
0
10
0.000000
20
0.000000
30
0.000000
3
*Paper_Space
1

0
ENDBLK
5
21
100
AcDbEntity
8
0
100
AcDbBlockEnd
0
ENDSEC
0
SECTION
2
ENTITIES
0
TEXT
5
2E
100
AcDbEntity
67
0
8
0
6
Continuous
62
7
370
0
100
AcDbText
10
20.000000
20
92.000000
30
0.000000
40
2.500000
1
1
50
0.000000
7
Standard
72
1
11
20.000000
21
92.000000
31
0.000000
100
AcDbText
73
1
0
HATCH
5
2F
100
AcDbEntity
67
0
8
0
6
Continuous
62
1
370
0
100
AcDbHatch
10
0.000000
20
0.000000
30
0.000000
210
0.000000
220
0.000000
230
1.000000
2
SOLID
70
1
71
0
91
1
92
0
93
4
72
1
10
15.000000
20
80.000000
11
15.000000
21
90.000000
72
1
10
15.000000
20
90.000000
11
25.000000
21
90.000000
72
1
10
25.000000
20
90.000000
11
25.000000
21
80.000000
72
1
10
25.000000
20
80.000000
11
15.000000
21
80.000000
97
0
75
0
76
0
98
0
0
TEXT
5
30
100
AcDbEntity
67
0
8
0
6
Continuous
62
7
370
0
100
AcDbText
10
35.000000
20
92.000000
30
0.000000
40
2.500000
1
2
50
0.000000
7
Standard
72
1
11
35.000000
21
92.000000
31
0.000000
100
AcDbText
73
1
0
HATCH
5
31
100
AcDbEntity
67
0
8
0
6
Continuous
62
2
370
0
100
AcDbHatch
10
0.000000
20
0.000000
30
0.000000
210
0.000000
220
0.000000
230
1.000000
2
SOLID
70
1
71
0
91
1
92
0
93
4
72
1
10
30.000000
20
80.000000
11
30.000000
21
90.000000
72
1
10
30.000000
20
90.000000
11
40.000000
21
90.000000
72
1
10
40.000000
20
90.000000
11
40.000000
21
80.000000
72
1
10
40.000000
20
80.000000
11
30.000000
21
80.000000
97
0
75
0
76
0
98
0
0
TEXT
5
32
100
AcDbEntity
67
0
8
0
6
Continuous
62
7
370
0
100
AcDbText
10
50.000000
20
92.000000
30
0.000000
40
2.500000
1
3
50
0.000000
7
Standard
72
1
11
50.000000
21
92.000000
31
0.000000
100
AcDbText
73
1
0
HATCH
5
33
100
AcDbEntity
67
0
8
0
6
Continuous
62
3
370
0
100
AcDbHatch
10
0.000000
20
0.000000
30
0.000000
210
0.000000
220
0.000000
230
1.000000
2
SOLID
70
1
71
0
91
1
92
0
93
4
72
1
10
45.000000
20
80.000000
11
45.000000
21
90.000000
72
1
10
45.000000
20
90.000000
11
55.000000
21
90.000000
72
1
10
55.000000
20
90.000000
11
55.000000
21
80.000000
72
1
10
55.000000
20
80.000000
11
45.000000
21
80.000000
97
0
75
0
76
0
98
0
0
TEXT
5
34
100
AcDbEntity
67
0
8
0
6
Continuous
62
7
370
0
100
AcDbText
10
65.000000
20
92.000000
30
0.000000
40
2.500000
1
4
50
0.000000
7
Standard
72
1
11
65.000000
21
92.000000
31
0.000000
100
AcDbText
73
1
0
HATCH
5
35
100
AcDbEntity
67
0
8
0
6
Continuous
62
4
370
0
100
AcDbHatch
10
0.000000
20
0.000000
30
0.000000
210
0.000000
220
0.000000
230
1.000000
2
SOLID
70
1
71
0
91
1
92
0
93
4
72
1
10
60.000000
20
80.000000
11
60.000000
21
90.000000
72
1
10
60.000000
20
90.000000
11
70.000000
21
90.000000
72
1
10
70.000000
20
90.000000
11
70.000000
21
80.000000
72
1
10
70.000000
20
80.000000
11
60.000000
21
80.000000
97
0
75
0
76
0
98
0
0
TEXT
5
36
100
AcDbEntity
67
0
8
0
6
Continuous
62
7
370
0
100
AcDbText
10
80.000000
20
92.000000
30
0.000000
40
2.500000
1
5
50
0.000000
7
Standard
72
1
11
80.000000
21
92.000000
31
0.000000
100
AcDbText
73
1
0
HATCH
5
37
100
AcDbEntity
67
0
8
0
6
Continuous
62
5
370
0
100
AcDbHatch
10
0.000000
20
0.000000
30
0.000000
210
0.000000
220
0.000000
230
1.000000
2
SOLID
70
1
71
0
91
1
92
0
93
4
72
1
10
75.000000
20
80.000000
11
75.000000
21
90.000000
72
1
10
75.000000
20
90.000000
11
85.000000
21
90.000000
72
1
10
85.000000
20
90.000000
11
85.000000
21
80.000000
72
1
10
85.000000
20
80.000000
11
75.000000
21
80.000000
97
0
75
0
76
0
98
0
0
TEXT
5
38
100
AcDbEntity
67
0
8
0
6
Continuous
62
7
370
0
100
AcDbText
10
95.000000
20
92.000000
30
0.000000
40
2.500000
1
6
50
0.000000
7
Standard
72
1
11
95.000000
21
92.000000
31
0.000000
100
AcDbText
73
1
0
HATCH
5
39
100
AcDbEntity
67
0
8
0
6
Continuous
62
6
370
0
100
AcDbHatch
10
0.000000
20
0.000000
30
0.000000
210
0.000000
220
0.000000
230
1.000000
2
SOLID
70
1
71
0
91
1
92
0
93
4
72
1
10
90.000000
20
80.000000
11
90.000000
21
90.000000
72
1
10
90.000000
20
90.000000
11
100.000000
21
90.000000
72
1
10
100.000000
20
90.000000
11
100.000000
21
80.000000
72
1
10
100.000000
20
80.000000
11
90.000000
21
80.000000
97
0
75
0
76
0
98
0
0
TEXT
5
3A
100
AcDbEntity
67
0
8
0
6
Continuous
62
7
370
0
100
AcDbText
10
110.000000
20
92.000000
30
0.000000
40
2.500000
1
7
50
0.000000
7
Standard
72
1
11
110.000000
21
92.000000
31
0.000000
100
AcDbText
73
1
0
HATCH
5
3B
100
AcDbEntity
67
0
8
0
6
Continuous
62
7
370
0
100
AcDbHatch
10
0.000000
20
0.000000
30
0.000000
210
0.000000
220
0.000000
230
1.000000
2
SOLID
70
1
71
0
91
1
92
0
93
4
72
1
10
105.000000
20
80.000000
11
105.000000
21
90.000000
72
1
10
105.000000
20
90.000000
11
115.000000
21
90.000000
72
1
10
115.000000
20
90.000000
11
115.000000
21
80.000000
72
1
10
115.000000
20
80.000000
11
105.000000
21
80.000000
97
0
75
0
76
0
98
0
0
TEXT
5
3C
100
AcDbEntity
67
0
8
0
6
Continuous
62
7
370
0
100
AcDbText
10
125.000000
20
92.000000
30
0.000000
40
2.500000
1
8
50
0.000000
7
Standard
72
1
11
125.000000
21
92.000000
31
0.000000
100
AcDbText
73
1
0
HATCH
5
3D
100
AcDbEntity
67
0
8
0
6
Continuous
62
8
370
0
100
AcDbHatch
10
0.000000
20
0.000000
30
0.000000
210
0.000000
220
0.000000
230
1.000000
2
SOLID
70
1
71
0
91
1
92
0
93
4
72
1
10
120.000000
20
80.000000
11
120.000000
21
90.000000
72
1
10
120.000000
20
90.000000
11
130.000000
21
90.000000
72
1
10
130.000000
20
90.000000
11
130.000000
21
80.000000
72
1
10
130.000000
20
80.000000
11
120.000000
21
80.000000
97
0
75
0
76
0
98
0
0
TEXT
5
3E
100
AcDbEntity
67
0
8
0
6
Continuous
62
7
370
0
100
AcDbText
10
140.000000
20
92.000000
30
0.000000
40
2.500000
1
9
50
0.000000
7
Standard
72
1
11
140.000000
21
92.000000
31
0.000000
100
AcDbText
73
1
0
HATCH
5
3F
100
AcDbEntity
67
0
8
0
6
Continuous
62
9
370
0
100
AcDbHatch
10
0.000000
20
0.000000
30
0.000000
210
0.000000
220
0.000000
230
1.000000
2
SOLID
70
1
71
0
91
1
92
0
93
4
72
1
10
135.000000
20
80.000000
11
135.000000
21
90.000000
72
1
10
135.000000
20
90.000000
11
145.000000
21
90.000000
72
1
10
145.000000
20
90.000000
11
145.000000
21
80.000000
72
1
10
145.000000
20
80.000000
11
135.000000
21
80.000000
97
0
75
0
76
0
98
0
0
TEXT
5
40
100
AcDbEntity
67
0
8
0
6
Continuous
62
7
370
0
100
AcDbText
10
15.000000
20
62.000000
30
0.000000
40
2.500000
1
10
50
0.000000
7
Standard
72
1
11
15.000000
21
62.000000
31
0.000000
100
AcDbText
73
1
0
TEXT
5
41
100
AcDbEntity
67
0
8
0
6
Continuous
62
7
370
0
100
AcDbText
10
25.000000
20
62.000000
30
0.000000
40
2.500000
1
20
50
0.000000
7
Standard
72
1
11
25.000000
21
62.000000
31
0.000000
100
AcDbText
73
1
0
TEXT
5
42
100
AcDbEntity
67
0
8
0
6
Continuous
62
7
370
0
100
AcDbText
10
35.000000
20
62.000000
30
0.000000
40
2.500000
1
30
50
0.000000
7
Standard
72
1
11
35.000000
21
62.000000
31
0.000000
100
AcDbText
73
1
0
TEXT
5
43
100
AcDbEntity
67
0
8
0
6
Continuous
62
7
370
0
100
AcDbText
10
45.000000
20
62.000000
30
0.000000
40
2.500000
1
40
50
0.000000
7
Standard
72
1
11
45.000000
21
62.000000
31
0.000000
100
AcDbText
73
1
0
TEXT
5
44
100
AcDbEntity
67
0
8
0
6
Continuous
62
7
370
0
100
AcDbText
10
55.000000
20
62.000000
30
0.000000
40
2.500000
1
50
50
0.000000
7
Standard
72
1
11
55.000000
21
62.000000
31
0.000000
100
AcDbText
73
1
0
TEXT
5
45
100
AcDbEntity
67
0
8
0
6
Continuous
62
7
370
0
100
AcDbText
10
65.000000
20
62.000000
30
0.000000
40
2.500000
1
60
50
0.000000
7
Standard
72
1
11
65.000000
21
62.000000
31
0.000000
100
AcDbText
73
1
0
TEXT
5
46
100
AcDbEntity
67
0
8
0
6
Continuous
62
7
370
0
100
AcDbText
10
75.000000
20
62.000000
30
0.000000
40
2.500000
1
70
50
0.000000
7
Standard
72
1
11
75.000000
21
62.000000
31
0.000000
100
AcDbText
73
1
0
TEXT
5
47
100
AcDbEntity
67
0
8
0
6
Continuous
62
7
370
0
100
AcDbText
10
85.000000
20
62.000000
30
0.000000
40
2.500000
1
80
50
0.000000
7
Standard
72
1
11
85.000000
21
62.000000
31
0.000000
100
AcDbText
73
1
0
TEXT
5
48
100
AcDbEntity
67
0
8
0
6
Continuous
62
7
370
0
100
AcDbText
10
95.000000
20
62.000000
30
0.000000
40
2.500000
1
90
50
0.000000
7
Standard
72
1
11
95.000000
21
62.000000
31
0.000000
100
AcDbText
73
1
0
TEXT
5
49
100
AcDbEntity
67
0
8
0
6
Continuous
62
7
370
0
100
AcDbText
10
105.000000
20
62.000000
30
0.000000
40
2.500000
1
100
50
0.000000
7
Standard
72
1
11
105.000000
21
62.000000
31
0.000000
100
AcDbText
73
1
0
TEXT
5
4A
100
AcDbEntity
67
0
8
0
6
Continuous
62
7
370
0
100
AcDbText
10
115.000000
20
62.000000
30
0.000000
40
2.500000
1
110
50
0.000000
7
Standard
72
1
11
115.000000
21
62.000000
31
0.000000
100
AcDbText
73
1
0
TEXT
5
4B
100
AcDbEntity
67
0
8
0
6
Continuous
62
7
370
0
100
AcDbText
10
125.000000
20
62.000000
30
0.000000
40
2.500000
1
120
50
0.000000
7
Standard
72
1
11
125.000000
21
62.000000
31
0.000000
100
AcDbText
73
1
0
TEXT
5
4C
100
AcDbEntity
67
0
8
0
6
Continuous
62
7
370
0
100
AcDbText
10
135.000000
20
62.000000
30
0.000000
40
2.500000
1
130
50
0.000000
7
Standard
72
1
11
135.000000
21
62.000000
31
0.000000
100
AcDbText
73
1
0
TEXT
5
4D
100
AcDbEntity
67
0
8
0
6
Continuous
62
7
370
0
100
AcDbText
10
145.000000
20
62.000000
30
0.000000
40
2.500000
1
140
50
0.000000
7
Standard
72
1
11
145.000000
21
62.000000
31
0.000000
100
AcDbText
73
1
0
TEXT
5
4E
100
AcDbEntity
67
0
8
0
6
Continuous
62
7
370
0
100
AcDbText
10
155.000000
20
62.000000
30
0.000000
40
2.500000
1
150
50
0.000000
7
Standard
72
1
11
155.000000
21
62.000000
31
0.000000
100
AcDbText
73
1
0
TEXT
5
4F
100
AcDbEntity
67
0
8
0
6
Continuous
62
7
370
0
100
AcDbText
10
165.000000
20
62.000000
30
0.000000
40
2.500000
1
160
50
0.000000
7
Standard
72
1
11
165.000000
21
62.000000
31
0.000000
100
AcDbText
73
1
0
TEXT
5
50
100
AcDbEntity
67
0
8
0
6
Continuous
62
7
370
0
100
AcDbText
10
175.000000
20
62.000000
30
0.000000
40
2.500000
1
170
50
0.000000
7
Standard
72
1
11
175.000000
21
62.000000
31
0.000000
100
AcDbText
73
1
0
TEXT
5
51
100
AcDbEntity
67
0
8
0
6
Continuous
62
7
370
0
100
AcDbText
10
185.000000
20
62.000000
30
0.000000
40
2.500000
1
180
50
0.000000
7
Standard
72
1
11
185.000000
21
62.000000
31
0.000000
100
AcDbText
73
1
0
TEXT
5
52
100
AcDbEntity
67
0
8
0
6
Continuous
62
7
370
0
100
AcDbText
10
195.000000
20
62.000000
30
0.000000
40
2.500000
1
190
50
0.000000
7
Standard
72
1
11
195.000000
21
62.000000
31
0.000000
100
AcDbText
73
1
0
TEXT
5
53
100
AcDbEntity
67
0
8
0
6
Continuous
62
7
370
0
100
AcDbText
10
205.000000
20
62.000000
30
0.000000
40
2.500000
1
200
50
0.000000
7
Standard
72
1
11
205.000000
21
62.000000
31
0.000000
100
AcDbText
73
1
0
TEXT
5
54
100
AcDbEntity
67
0
8
0
6
Continuous
62
7
370
0
100
AcDbText
10
215.000000
20
62.000000
30
0.000000
40
2.500000
1
210
50
0.000000
7
Standard
72
1
11
215.000000
21
62.000000
31
0.000000
100
AcDbText
73
1
0
TEXT
5
55
100
AcDbEntity
67
0
8
0
6
Continuous
62
7
370
0
100
AcDbText
10
225.000000
20
62.000000
30
0.000000
40
2.500000
1
220
50
0.000000
7
Standard
72
1
11
225.000000
21
62.000000
31
0.000000
100
AcDbText
73
1
0
TEXT
5
56
100
AcDbEntity
67
0
8
0
6
Continuous
62
7
370
0
100
AcDbText
10
235.000000
20
62.000000
30
0.000000
40
2.500000
1
230
50
0.000000
7
Standard
72
1
11
235.000000
21
62.000000
31
0.000000
100
AcDbText
73
1
0
TEXT
5
57
100
AcDbEntity
67
0
8
0
6
Continuous
62
7
370
0
100
AcDbText
10
245.000000
20
62.000000
30
0.000000
40
2.500000
1
240
50
0.000000
7
Standard
72
1
11
245.000000
21
62.000000
31
0.000000
100
AcDbText
73
1
0
TEXT
5
58
100
AcDbEntity
67
0
8
0
6
Continuous
62
7
370
0
100
AcDbText
10
5.000000
20
5.000000
30
0.000000
40
2.500000
1
0
50
0.000000
7
Standard
72
2
11
5.000000
21
5.000000
31
0.000000
100
AcDbText
73
2
0
TEXT
5
59
100
AcDbEntity
67
0
8
0
6
Continuous
62
7
370
0
100
AcDbText
10
5.000000
20
-5.000000
30
0.000000
40
2.500000
1
2
50
0.000000
7
Standard
72
2
11
5.000000
21
-5.000000
31
0.000000
100
AcDbText
73
2
0
TEXT
5
5A
100
AcDbEntity
67
0
8
0
6
Continuous
62
7
370
0
100
AcDbText
10
5.000000
20
-15.000000
30
0.000000
40
2.500000
1
4
50
0.000000
7
Standard
72
2
11
5.000000
21
-15.000000
31
0.000000
100
AcDbText
73
2
0
TEXT
5
5B
100
AcDbEntity
67
0
8
0
6
Continuous
62
7
370
0
100
AcDbText
10
5.000000
20
-25.000000
30
0.000000
40
2.500000
1
6
50
0.000000
7
Standard
72
2
11
5.000000
21
-25.000000
31
0.000000
100
AcDbText
73
2
0
TEXT
5
5C
100
AcDbEntity
67
0
8
0
6
Continuous
62
7
370
0
100
AcDbText
10
5.000000
20
-35.000000
30
0.000000
40
2.500000
1
8
50
0.000000
7
Standard
72
2
11
5.000000
21
-35.000000
31
0.000000
100
AcDbText
73
2
0
TEXT
5
5D
100
AcDbEntity
67
0
8
0
6
Continuous
62
7
370
0
100
AcDbText
10
5.000000
20
15.000000
30
0.000000
40
2.500000
1
1
50
0.000000
7
Standard
72
2
11
5.000000
21
15.000000
31
0.000000
100
AcDbText
73
2
0
TEXT
5
5E
100
AcDbEntity
67
0
8
0
6
Continuous
62
7
370
0
100
AcDbText
10
5.000000
20
25.000000
30
0.000000
40
2.500000
1
3
50
0.000000
7
Standard
72
2
11
5.000000
21
25.000000
31
0.000000
100
AcDbText
73
2
0
TEXT
5
5F
100
AcDbEntity
67
0
8
0
6
Continuous
62
7
370
0
100
AcDbText
10
5.000000
20
35.000000
30
0.000000
40
2.500000
1
5
50
0.000000
7
Standard
72
2
11
5.000000
21
35.000000
31
0.000000
100
AcDbText
73
2
0
TEXT
5
60
100
AcDbEntity
67
0
8
0
6
Continuous
62
7
370
0
100
AcDbText
10
5.000000
20
45.000000
30
0.000000
40
2.500000
1
7
50
0.000000
7
Standard
72
2
11
5.000000
21
45.000000
31
0.000000
100
AcDbText
73
2
0
TEXT
5
61
100
AcDbEntity
67
0
8
0
6
Continuous
62
7
370
0
100
AcDbText
10
5.000000
20
55.000000
30
0.000000
40
2.500000
1
9
50
0.000000
7
Standard
72
2
11
5.000000
21
55.000000
31
0.000000
100
AcDbText
73
2
0
HATCH
5
62
100
AcDbEntity
67
0
8
0
6
Continuous
62
10
370
0
100
AcDbHatch
10
0.000000
20
0.000000
30
0.000000
210
0.000000
220
0.000000
230
1.000000
2
SOLID
70
1
71
0
91
1
92
0
93
4
72
1
10
10.000000
20
0.000000
11
10.000000
21
10.000000
72
1
10
10.000000
20
10.000000
11
20.000000
21
10.000000
72
1
10
20.000000
20
10.000000
11
20.000000
21
0.000000
72
1
10
20.000000
20
0.000000
11
10.000000
21
0.000000
97
0
75
0
76
0
98
0
0
HATCH
5
63
100
AcDbEntity
67
0
8
0
6
Continuous
62
20
370
0
100
AcDbHatch
10
0.000000
20
0.000000
30
0.000000
210
0.000000
220
0.000000
230
1.000000
2
SOLID
70
1
71
0
91
1
92
0
93
4
72
1
10
20.000000
20
0.000000
11
20.000000
21
10.000000
72
1
10
20.000000
20
10.000000
11
30.000000
21
10.000000
72
1
10
30.000000
20
10.000000
11
30.000000
21
0.000000
72
1
10
30.000000
20
0.000000
11
20.000000
21
0.000000
97
0
75
0
76
0
98
0
0
HATCH
5
64
100
AcDbEntity
67
0
8
0
6
Continuous
62
30
370
0
100
AcDbHatch
10
0.000000
20
0.000000
30
0.000000
210
0.000000
220
0.000000
230
1.000000
2
SOLID
70
1
71
0
91
1
92
0
93
4
72
1
10
30.000000
20
0.000000
11
30.000000
21
10.000000
72
1
10
30.000000
20
10.000000
11
40.000000
21
10.000000
72
1
10
40.000000
20
10.000000
11
40.000000
21
0.000000
72
1
10
40.000000
20
0.000000
11
30.000000
21
0.000000
97
0
75
0
76
0
98
0
0
HATCH
5
65
100
AcDbEntity
67
0
8
0
6
Continuous
62
40
370
0
100
AcDbHatch
10
0.000000
20
0.000000
30
0.000000
210
0.000000
220
0.000000
230
1.000000
2
SOLID
70
1
71
0
91
1
92
0
93
4
72
1
10
40.000000
20
0.000000
11
40.000000
21
10.000000
72
1
10
40.000000
20
10.000000
11
50.000000
21
10.000000
72
1
10
50.000000
20
10.000000
11
50.000000
21
0.000000
72
1
10
50.000000
20
0.000000
11
40.000000
21
0.000000
97
0
75
0
76
0
98
0
0
HATCH
5
66
100
AcDbEntity
67
0
8
0
6
Continuous
62
50
370
0
100
AcDbHatch
10
0.000000
20
0.000000
30
0.000000
210
0.000000
220
0.000000
230
1.000000
2
SOLID
70
1
71
0
91
1
92
0
93
4
72
1
10
50.000000
20
0.000000
11
50.000000
21
10.000000
72
1
10
50.000000
20
10.000000
11
60.000000
21
10.000000
72
1
10
60.000000
20
10.000000
11
60.000000
21
0.000000
72
1
10
60.000000
20
0.000000
11
50.000000
21
0.000000
97
0
75
0
76
0
98
0
0
HATCH
5
67
100
AcDbEntity
67
0
8
0
6
Continuous
62
60
370
0
100
AcDbHatch
10
0.000000
20
0.000000
30
0.000000
210
0.000000
220
0.000000
230
1.000000
2
SOLID
70
1
71
0
91
1
92
0
93
4
72
1
10
60.000000
20
0.000000
11
60.000000
21
10.000000
72
1
10
60.000000
20
10.000000
11
70.000000
21
10.000000
72
1
10
70.000000
20
10.000000
11
70.000000
21
0.000000
72
1
10
70.000000
20
0.000000
11
60.000000
21
0.000000
97
0
75
0
76
0
98
0
0
HATCH
5
68
100
AcDbEntity
67
0
8
0
6
Continuous
62
70
370
0
100
AcDbHatch
10
0.000000
20
0.000000
30
0.000000
210
0.000000
220
0.000000
230
1.000000
2
SOLID
70
1
71
0
91
1
92
0
93
4
72
1
10
70.000000
20
0.000000
11
70.000000
21
10.000000
72
1
10
70.000000
20
10.000000
11
80.000000
21
10.000000
72
1
10
80.000000
20
10.000000
11
80.000000
21
0.000000
72
1
10
80.000000
20
0.000000
11
70.000000
21
0.000000
97
0
75
0
76
0
98
0
0
HATCH
5
69
100
AcDbEntity
67
0
8
0
6
Continuous
62
80
370
0
100
AcDbHatch
10
0.000000
20
0.000000
30
0.000000
210
0.000000
220
0.000000
230
1.000000
2
SOLID
70
1
71
0
91
1
92
0
93
4
72
1
10
80.000000
20
0.000000
11
80.000000
21
10.000000
72
1
10
80.000000
20
10.000000
11
90.000000
21
10.000000
72
1
10
90.000000
20
10.000000
11
90.000000
21
0.000000
72
1
10
90.000000
20
0.000000
11
80.000000
21
0.000000
97
0
75
0
76
0
98
0
0
HATCH
5
6A
100
AcDbEntity
67
0
8
0
6
Continuous
62
90
370
0
100
AcDbHatch
10
0.000000
20
0.000000
30
0.000000
210
0.000000
220
0.000000
230
1.000000
2
SOLID
70
1
71
0
91
1
92
0
93
4
72
1
10
90.000000
20
0.000000
11
90.000000
21
10.000000
72
1
10
90.000000
20
10.000000
11
100.000000
21
10.000000
72
1
10
100.000000
20
10.000000
11
100.000000
21
0.000000
72
1
10
100.000000
20
0.000000
11
90.000000
21
0.000000
97
0
75
0
76
0
98
0
0
HATCH
5
6B
100
AcDbEntity
67
0
8
0
6
Continuous
62
100
370
0
100
AcDbHatch
10
0.000000
20
0.000000
30
0.000000
210
0.000000
220
0.000000
230
1.000000
2
SOLID
70
1
71
0
91
1
92
0
93
4
72
1
10
100.000000
20
0.000000
11
100.000000
21
10.000000
72
1
10
100.000000
20
10.000000
11
110.000000
21
10.000000
72
1
10
110.000000
20
10.000000
11
110.000000
21
0.000000
72
1
10
110.000000
20
0.000000
11
100.000000
21
0.000000
97
0
75
0
76
0
98
0
0
HATCH
5
6C
100
AcDbEntity
67
0
8
0
6
Continuous
62
110
370
0
100
AcDbHatch
10
0.000000
20
0.000000
30
0.000000
210
0.000000
220
0.000000
230
1.000000
2
SOLID
70
1
71
0
91
1
92
0
93
4
72
1
10
110.000000
20
0.000000
11
110.000000
21
10.000000
72
1
10
110.000000
20
10.000000
11
120.000000
21
10.000000
72
1
10
120.000000
20
10.000000
11
120.000000
21
0.000000
72
1
10
120.000000
20
0.000000
11
110.000000
21
0.000000
97
0
75
0
76
0
98
0
0
HATCH
5
6D
100
AcDbEntity
67
0
8
0
6
Continuous
62
120
370
0
100
AcDbHatch
10
0.000000
20
0.000000
30
0.000000
210
0.000000
220
0.000000
230
1.000000
2
SOLID
70
1
71
0
91
1
92
0
93
4
72
1
10
120.000000
20
0.000000
11
120.000000
21
10.000000
72
1
10
120.000000
20
10.000000
11
130.000000
21
10.000000
72
1
10
130.000000
20
10.000000
11
130.000000
21
0.000000
72
1
10
130.000000
20
0.000000
11
120.000000
21
0.000000
97
0
75
0
76
0
98
0
0
HATCH
5
6E
100
AcDbEntity
67
0
8
0
6
Continuous
62
130
370
0
100
AcDbHatch
10
0.000000
20
0.000000
30
0.000000
210
0.000000
220
0.000000
230
1.000000
2
SOLID
70
1
71
0
91
1
92
0
93
4
72
1
10
130.000000
20
0.000000
11
130.000000
21
10.000000
72
1
10
130.000000
20
10.000000
11
140.000000
21
10.000000
72
1
10
140.000000
20
10.000000
11
140.000000
21
0.000000
72
1
10
140.000000
20
0.000000
11
130.000000
21
0.000000
97
0
75
0
76
0
98
0
0
HATCH
5
6F
100
AcDbEntity
67
0
8
0
6
Continuous
62
140
370
0
100
AcDbHatch
10
0.000000
20
0.000000
30
0.000000
210
0.000000
220
0.000000
230
1.000000
2
SOLID
70
1
71
0
91
1
92
0
93
4
72
1
10
140.000000
20
0.000000
11
140.000000
21
10.000000
72
1
10
140.000000
20
10.000000
11
150.000000
21
10.000000
72
1
10
150.000000
20
10.000000
11
150.000000
21
0.000000
72
1
10
150.000000
20
0.000000
11
140.000000
21
0.000000
97
0
75
0
76
0
98
0
0
HATCH
5
70
100
AcDbEntity
67
0
8
0
6
Continuous
62
150
370
0
100
AcDbHatch
10
0.000000
20
0.000000
30
0.000000
210
0.000000
220
0.000000
230
1.000000
2
SOLID
70
1
71
0
91
1
92
0
93
4
72
1
10
150.000000
20
0.000000
11
150.000000
21
10.000000
72
1
10
150.000000
20
10.000000
11
160.000000
21
10.000000
72
1
10
160.000000
20
10.000000
11
160.000000
21
0.000000
72
1
10
160.000000
20
0.000000
11
150.000000
21
0.000000
97
0
75
0
76
0
98
0
0
HATCH
5
71
100
AcDbEntity
67
0
8
0
6
Continuous
62
160
370
0
100
AcDbHatch
10
0.000000
20
0.000000
30
0.000000
210
0.000000
220
0.000000
230
1.000000
2
SOLID
70
1
71
0
91
1
92
0
93
4
72
1
10
160.000000
20
0.000000
11
160.000000
21
10.000000
72
1
10
160.000000
20
10.000000
11
170.000000
21
10.000000
72
1
10
170.000000
20
10.000000
11
170.000000
21
0.000000
72
1
10
170.000000
20
0.000000
11
160.000000
21
0.000000
97
0
75
0
76
0
98
0
0
HATCH
5
72
100
AcDbEntity
67
0
8
0
6
Continuous
62
170
370
0
100
AcDbHatch
10
0.000000
20
0.000000
30
0.000000
210
0.000000
220
0.000000
230
1.000000
2
SOLID
70
1
71
0
91
1
92
0
93
4
72
1
10
170.000000
20
0.000000
11
170.000000
21
10.000000
72
1
10
170.000000
20
10.000000
11
180.000000
21
10.000000
72
1
10
180.000000
20
10.000000
11
180.000000
21
0.000000
72
1
10
180.000000
20
0.000000
11
170.000000
21
0.000000
97
0
75
0
76
0
98
0
0
HATCH
5
73
100
AcDbEntity
67
0
8
0
6
Continuous
62
180
370
0
100
AcDbHatch
10
0.000000
20
0.000000
30
0.000000
210
0.000000
220
0.000000
230
1.000000
2
SOLID
70
1
71
0
91
1
92
0
93
4
72
1
10
180.000000
20
0.000000
11
180.000000
21
10.000000
72
1
10
180.000000
20
10.000000
11
190.000000
21
10.000000
72
1
10
190.000000
20
10.000000
11
190.000000
21
0.000000
72
1
10
190.000000
20
0.000000
11
180.000000
21
0.000000
97
0
75
0
76
0
98
0
0
HATCH
5
74
100
AcDbEntity
67
0
8
0
6
Continuous
62
190
370
0
100
AcDbHatch
10
0.000000
20
0.000000
30
0.000000
210
0.000000
220
0.000000
230
1.000000
2
SOLID
70
1
71
0
91
1
92
0
93
4
72
1
10
190.000000
20
0.000000
11
190.000000
21
10.000000
72
1
10
190.000000
20
10.000000
11
200.000000
21
10.000000
72
1
10
200.000000
20
10.000000
11
200.000000
21
0.000000
72
1
10
200.000000
20
0.000000
11
190.000000
21
0.000000
97
0
75
0
76
0
98
0
0
HATCH
5
75
100
AcDbEntity
67
0
8
0
6
Continuous
62
200
370
0
100
AcDbHatch
10
0.000000
20
0.000000
30
0.000000
210
0.000000
220
0.000000
230
1.000000
2
SOLID
70
1
71
0
91
1
92
0
93
4
72
1
10
200.000000
20
0.000000
11
200.000000
21
10.000000
72
1
10
200.000000
20
10.000000
11
210.000000
21
10.000000
72
1
10
210.000000
20
10.000000
11
210.000000
21
0.000000
72
1
10
210.000000
20
0.000000
11
200.000000
21
0.000000
97
0
75
0
76
0
98
0
0
HATCH
5
76
100
AcDbEntity
67
0
8
0
6
Continuous
62
210
370
0
100
AcDbHatch
10
0.000000
20
0.000000
30
0.000000
210
0.000000
220
0.000000
230
1.000000
2
SOLID
70
1
71
0
91
1
92
0
93
4
72
1
10
210.000000
20
0.000000
11
210.000000
21
10.000000
72
1
10
210.000000
20
10.000000
11
220.000000
21
10.000000
72
1
10
220.000000
20
10.000000
11
220.000000
21
0.000000
72
1
10
220.000000
20
0.000000
11
210.000000
21
0.000000
97
0
75
0
76
0
98
0
0
HATCH
5
77
100
AcDbEntity
67
0
8
0
6
Continuous
62
220
370
0
100
AcDbHatch
10
0.000000
20
0.000000
30
0.000000
210
0.000000
220
0.000000
230
1.000000
2
SOLID
70
1
71
0
91
1
92
0
93
4
72
1
10
220.000000
20
0.000000
11
220.000000
21
10.000000
72
1
10
220.000000
20
10.000000
11
230.000000
21
10.000000
72
1
10
230.000000
20
10.000000
11
230.000000
21
0.000000
72
1
10
230.000000
20
0.000000
11
220.000000
21
0.000000
97
0
75
0
76
0
98
0
0
HATCH
5
78
100
AcDbEntity
67
0
8
0
6
Continuous
62
230
370
0
100
AcDbHatch
10
0.000000
20
0.000000
30
0.000000
210
0.000000
220
0.000000
230
1.000000
2
SOLID
70
1
71
0
91
1
92
0
93
4
72
1
10
230.000000
20
0.000000
11
230.000000
21
10.000000
72
1
10
230.000000
20
10.000000
11
240.000000
21
10.000000
72
1
10
240.000000
20
10.000000
11
240.000000
21
0.000000
72
1
10
240.000000
20
0.000000
11
230.000000
21
0.000000
97
0
75
0
76
0
98
0
0
HATCH
5
79
100
AcDbEntity
67
0
8
0
6
Continuous
62
240
370
0
100
AcDbHatch
10
0.000000
20
0.000000
30
0.000000
210
0.000000
220
0.000000
230
1.000000
2
SOLID
70
1
71
0
91
1
92
0
93
4
72
1
10
240.000000
20
0.000000
11
240.000000
21
10.000000
72
1
10
240.000000
20
10.000000
11
250.000000
21
10.000000
72
1
10
250.000000
20
10.000000
11
250.000000
21
0.000000
72
1
10
250.000000
20
0.000000
11
240.000000
21
0.000000
97
0
75
0
76
0
98
0
0
HATCH
5
7A
100
AcDbEntity
67
0
8
0
6
Continuous
62
12
370
0
100
AcDbHatch
10
0.000000
20
0.000000
30
0.000000
210
0.000000
220
0.000000
230
1.000000
2
SOLID
70
1
71
0
91
1
92
0
93
4
72
1
10
10.000000
20
-10.000000
11
10.000000
21
0.000000
72
1
10
10.000000
20
0.000000
11
20.000000
21
0.000000
72
1
10
20.000000
20
0.000000
11
20.000000
21
-10.000000
72
1
10
20.000000
20
-10.000000
11
10.000000
21
-10.000000
97
0
75
0
76
0
98
0
0
HATCH
5
7B
100
AcDbEntity
67
0
8
0
6
Continuous
62
22
370
0
100
AcDbHatch
10
0.000000
20
0.000000
30
0.000000
210
0.000000
220
0.000000
230
1.000000
2
SOLID
70
1
71
0
91
1
92
0
93
4
72
1
10
20.000000
20
-10.000000
11
20.000000
21
0.000000
72
1
10
20.000000
20
0.000000
11
30.000000
21
0.000000
72
1
10
30.000000
20
0.000000
11
30.000000
21
-10.000000
72
1
10
30.000000
20
-10.000000
11
20.000000
21
-10.000000
97
0
75
0
76
0
98
0
0
HATCH
5
7C
100
AcDbEntity
67
0
8
0
6
Continuous
62
32
370
0
100
AcDbHatch
10
0.000000
20
0.000000
30
0.000000
210
0.000000
220
0.000000
230
1.000000
2
SOLID
70
1
71
0
91
1
92
0
93
4
72
1
10
30.000000
20
-10.000000
11
30.000000
21
0.000000
72
1
10
30.000000
20
0.000000
11
40.000000
21
0.000000
72
1
10
40.000000
20
0.000000
11
40.000000
21
-10.000000
72
1
10
40.000000
20
-10.000000
11
30.000000
21
-10.000000
97
0
75
0
76
0
98
0
0
HATCH
5
7D
100
AcDbEntity
67
0
8
0
6
Continuous
62
42
370
0
100
AcDbHatch
10
0.000000
20
0.000000
30
0.000000
210
0.000000
220
0.000000
230
1.000000
2
SOLID
70
1
71
0
91
1
92
0
93
4
72
1
10
40.000000
20
-10.000000
11
40.000000
21
0.000000
72
1
10
40.000000
20
0.000000
11
50.000000
21
0.000000
72
1
10
50.000000
20
0.000000
11
50.000000
21
-10.000000
72
1
10
50.000000
20
-10.000000
11
40.000000
21
-10.000000
97
0
75
0
76
0
98
0
0
HATCH
5
7E
100
AcDbEntity
67
0
8
0
6
Continuous
62
52
370
0
100
AcDbHatch
10
0.000000
20
0.000000
30
0.000000
210
0.000000
220
0.000000
230
1.000000
2
SOLID
70
1
71
0
91
1
92
0
93
4
72
1
10
50.000000
20
-10.000000
11
50.000000
21
0.000000
72
1
10
50.000000
20
0.000000
11
60.000000
21
0.000000
72
1
10
60.000000
20
0.000000
11
60.000000
21
-10.000000
72
1
10
60.000000
20
-10.000000
11
50.000000
21
-10.000000
97
0
75
0
76
0
98
0
0
HATCH
5
7F
100
AcDbEntity
67
0
8
0
6
Continuous
62
62
370
0
100
AcDbHatch
10
0.000000
20
0.000000
30
0.000000
210
0.000000
220
0.000000
230
1.000000
2
SOLID
70
1
71
0
91
1
92
0
93
4
72
1
10
60.000000
20
-10.000000
11
60.000000
21
0.000000
72
1
10
60.000000
20
0.000000
11
70.000000
21
0.000000
72
1
10
70.000000
20
0.000000
11
70.000000
21
-10.000000
72
1
10
70.000000
20
-10.000000
11
60.000000
21
-10.000000
97
0
75
0
76
0
98
0
0
HATCH
5
80
100
AcDbEntity
67
0
8
0
6
Continuous
62
72
370
0
100
AcDbHatch
10
0.000000
20
0.000000
30
0.000000
210
0.000000
220
0.000000
230
1.000000
2
SOLID
70
1
71
0
91
1
92
0
93
4
72
1
10
70.000000
20
-10.000000
11
70.000000
21
0.000000
72
1
10
70.000000
20
0.000000
11
80.000000
21
0.000000
72
1
10
80.000000
20
0.000000
11
80.000000
21
-10.000000
72
1
10
80.000000
20
-10.000000
11
70.000000
21
-10.000000
97
0
75
0
76
0
98
0
0
HATCH
5
81
100
AcDbEntity
67
0
8
0
6
Continuous
62
82
370
0
100
AcDbHatch
10
0.000000
20
0.000000
30
0.000000
210
0.000000
220
0.000000
230
1.000000
2
SOLID
70
1
71
0
91
1
92
0
93
4
72
1
10
80.000000
20
-10.000000
11
80.000000
21
0.000000
72
1
10
80.000000
20
0.000000
11
90.000000
21
0.000000
72
1
10
90.000000
20
0.000000
11
90.000000
21
-10.000000
72
1
10
90.000000
20
-10.000000
11
80.000000
21
-10.000000
97
0
75
0
76
0
98
0
0
HATCH
5
82
100
AcDbEntity
67
0
8
0
6
Continuous
62
92
370
0
100
AcDbHatch
10
0.000000
20
0.000000
30
0.000000
210
0.000000
220
0.000000
230
1.000000
2
SOLID
70
1
71
0
91
1
92
0
93
4
72
1
10
90.000000
20
-10.000000
11
90.000000
21
0.000000
72
1
10
90.000000
20
0.000000
11
100.000000
21
0.000000
72
1
10
100.000000
20
0.000000
11
100.000000
21
-10.000000
72
1
10
100.000000
20
-10.000000
11
90.000000
21
-10.000000
97
0
75
0
76
0
98
0
0
HATCH
5
83
100
AcDbEntity
67
0
8
0
6
Continuous
62
102
370
0
100
AcDbHatch
10
0.000000
20
0.000000
30
0.000000
210
0.000000
220
0.000000
230
1.000000
2
SOLID
70
1
71
0
91
1
92
0
93
4
72
1
10
100.000000
20
-10.000000
11
100.000000
21
0.000000
72
1
10
100.000000
20
0.000000
11
110.000000
21
0.000000
72
1
10
110.000000
20
0.000000
11
110.000000
21
-10.000000
72
1
10
110.000000
20
-10.000000
11
100.000000
21
-10.000000
97
0
75
0
76
0
98
0
0
HATCH
5
84
100
AcDbEntity
67
0
8
0
6
Continuous
62
112
370
0
100
AcDbHatch
10
0.000000
20
0.000000
30
0.000000
210
0.000000
220
0.000000
230
1.000000
2
SOLID
70
1
71
0
91
1
92
0
93
4
72
1
10
110.000000
20
-10.000000
11
110.000000
21
0.000000
72
1
10
110.000000
20
0.000000
11
120.000000
21
0.000000
72
1
10
120.000000
20
0.000000
11
120.000000
21
-10.000000
72
1
10
120.000000
20
-10.000000
11
110.000000
21
-10.000000
97
0
75
0
76
0
98
0
0
HATCH
5
85
100
AcDbEntity
67
0
8
0
6
Continuous
62
122
370
0
100
AcDbHatch
10
0.000000
20
0.000000
30
0.000000
210
0.000000
220
0.000000
230
1.000000
2
SOLID
70
1
71
0
91
1
92
0
93
4
72
1
10
120.000000
20
-10.000000
11
120.000000
21
0.000000
72
1
10
120.000000
20
0.000000
11
130.000000
21
0.000000
72
1
10
130.000000
20
0.000000
11
130.000000
21
-10.000000
72
1
10
130.000000
20
-10.000000
11
120.000000
21
-10.000000
97
0
75
0
76
0
98
0
0
HATCH
5
86
100
AcDbEntity
67
0
8
0
6
Continuous
62
132
370
0
100
AcDbHatch
10
0.000000
20
0.000000
30
0.000000
210
0.000000
220
0.000000
230
1.000000
2
SOLID
70
1
71
0
91
1
92
0
93
4
72
1
10
130.000000
20
-10.000000
11
130.000000
21
0.000000
72
1
10
130.000000
20
0.000000
11
140.000000
21
0.000000
72
1
10
140.000000
20
0.000000
11
140.000000
21
-10.000000
72
1
10
140.000000
20
-10.000000
11
130.000000
21
-10.000000
97
0
75
0
76
0
98
0
0
HATCH
5
87
100
AcDbEntity
67
0
8
0
6
Continuous
62
142
370
0
100
AcDbHatch
10
0.000000
20
0.000000
30
0.000000
210
0.000000
220
0.000000
230
1.000000
2
SOLID
70
1
71
0
91
1
92
0
93
4
72
1
10
140.000000
20
-10.000000
11
140.000000
21
0.000000
72
1
10
140.000000
20
0.000000
11
150.000000
21
0.000000
72
1
10
150.000000
20
0.000000
11
150.000000
21
-10.000000
72
1
10
150.000000
20
-10.000000
11
140.000000
21
-10.000000
97
0
75
0
76
0
98
0
0
HATCH
5
88
100
AcDbEntity
67
0
8
0
6
Continuous
62
152
370
0
100
AcDbHatch
10
0.000000
20
0.000000
30
0.000000
210
0.000000
220
0.000000
230
1.000000
2
SOLID
70
1
71
0
91
1
92
0
93
4
72
1
10
150.000000
20
-10.000000
11
150.000000
21
0.000000
72
1
10
150.000000
20
0.000000
11
160.000000
21
0.000000
72
1
10
160.000000
20
0.000000
11
160.000000
21
-10.000000
72
1
10
160.000000
20
-10.000000
11
150.000000
21
-10.000000
97
0
75
0
76
0
98
0
0
HATCH
5
89
100
AcDbEntity
67
0
8
0
6
Continuous
62
162
370
0
100
AcDbHatch
10
0.000000
20
0.000000
30
0.000000
210
0.000000
220
0.000000
230
1.000000
2
SOLID
70
1
71
0
91
1
92
0
93
4
72
1
10
160.000000
20
-10.000000
11
160.000000
21
0.000000
72
1
10
160.000000
20
0.000000
11
170.000000
21
0.000000
72
1
10
170.000000
20
0.000000
11
170.000000
21
-10.000000
72
1
10
170.000000
20
-10.000000
11
160.000000
21
-10.000000
97
0
75
0
76
0
98
0
0
HATCH
5
8A
100
AcDbEntity
67
0
8
0
6
Continuous
62
172
370
0
100
AcDbHatch
10
0.000000
20
0.000000
30
0.000000
210
0.000000
220
0.000000
230
1.000000
2
SOLID
70
1
71
0
91
1
92
0
93
4
72
1
10
170.000000
20
-10.000000
11
170.000000
21
0.000000
72
1
10
170.000000
20
0.000000
11
180.000000
21
0.000000
72
1
10
180.000000
20
0.000000
11
180.000000
21
-10.000000
72
1
10
180.000000
20
-10.000000
11
170.000000
21
-10.000000
97
0
75
0
76
0
98
0
0
HATCH
5
8B
100
AcDbEntity
67
0
8
0
6
Continuous
62
182
370
0
100
AcDbHatch
10
0.000000
20
0.000000
30
0.000000
210
0.000000
220
0.000000
230
1.000000
2
SOLID
70
1
71
0
91
1
92
0
93
4
72
1
10
180.000000
20
-10.000000
11
180.000000
21
0.000000
72
1
10
180.000000
20
0.000000
11
190.000000
21
0.000000
72
1
10
190.000000
20
0.000000
11
190.000000
21
-10.000000
72
1
10
190.000000
20
-10.000000
11
180.000000
21
-10.000000
97
0
75
0
76
0
98
0
0
HATCH
5
8C
100
AcDbEntity
67
0
8
0
6
Continuous
62
192
370
0
100
AcDbHatch
10
0.000000
20
0.000000
30
0.000000
210
0.000000
220
0.000000
230
1.000000
2
SOLID
70
1
71
0
91
1
92
0
93
4
72
1
10
190.000000
20
-10.000000
11
190.000000
21
0.000000
72
1
10
190.000000
20
0.000000
11
200.000000
21
0.000000
72
1
10
200.000000
20
0.000000
11
200.000000
21
-10.000000
72
1
10
200.000000
20
-10.000000
11
190.000000
21
-10.000000
97
0
75
0
76
0
98
0
0
HATCH
5
8D
100
AcDbEntity
67
0
8
0
6
Continuous
62
202
370
0
100
AcDbHatch
10
0.000000
20
0.000000
30
0.000000
210
0.000000
220
0.000000
230
1.000000
2
SOLID
70
1
71
0
91
1
92
0
93
4
72
1
10
200.000000
20
-10.000000
11
200.000000
21
0.000000
72
1
10
200.000000
20
0.000000
11
210.000000
21
0.000000
72
1
10
210.000000
20
0.000000
11
210.000000
21
-10.000000
72
1
10
210.000000
20
-10.000000
11
200.000000
21
-10.000000
97
0
75
0
76
0
98
0
0
HATCH
5
8E
100
AcDbEntity
67
0
8
0
6
Continuous
62
212
370
0
100
AcDbHatch
10
0.000000
20
0.000000
30
0.000000
210
0.000000
220
0.000000
230
1.000000
2
SOLID
70
1
71
0
91
1
92
0
93
4
72
1
10
210.000000
20
-10.000000
11
210.000000
21
0.000000
72
1
10
210.000000
20
0.000000
11
220.000000
21
0.000000
72
1
10
220.000000
20
0.000000
11
220.000000
21
-10.000000
72
1
10
220.000000
20
-10.000000
11
210.000000
21
-10.000000
97
0
75
0
76
0
98
0
0
HATCH
5
8F
100
AcDbEntity
67
0
8
0
6
Continuous
62
222
370
0
100
AcDbHatch
10
0.000000
20
0.000000
30
0.000000
210
0.000000
220
0.000000
230
1.000000
2
SOLID
70
1
71
0
91
1
92
0
93
4
72
1
10
220.000000
20
-10.000000
11
220.000000
21
0.000000
72
1
10
220.000000
20
0.000000
11
230.000000
21
0.000000
72
1
10
230.000000
20
0.000000
11
230.000000
21
-10.000000
72
1
10
230.000000
20
-10.000000
11
220.000000
21
-10.000000
97
0
75
0
76
0
98
0
0
HATCH
5
90
100
AcDbEntity
67
0
8
0
6
Continuous
62
232
370
0
100
AcDbHatch
10
0.000000
20
0.000000
30
0.000000
210
0.000000
220
0.000000
230
1.000000
2
SOLID
70
1
71
0
91
1
92
0
93
4
72
1
10
230.000000
20
-10.000000
11
230.000000
21
0.000000
72
1
10
230.000000
20
0.000000
11
240.000000
21
0.000000
72
1
10
240.000000
20
0.000000
11
240.000000
21
-10.000000
72
1
10
240.000000
20
-10.000000
11
230.000000
21
-10.000000
97
0
75
0
76
0
98
0
0
HATCH
5
91
100
AcDbEntity
67
0
8
0
6
Continuous
62
242
370
0
100
AcDbHatch
10
0.000000
20
0.000000
30
0.000000
210
0.000000
220
0.000000
230
1.000000
2
SOLID
70
1
71
0
91
1
92
0
93
4
72
1
10
240.000000
20
-10.000000
11
240.000000
21
0.000000
72
1
10
240.000000
20
0.000000
11
250.000000
21
0.000000
72
1
10
250.000000
20
0.000000
11
250.000000
21
-10.000000
72
1
10
250.000000
20
-10.000000
11
240.000000
21
-10.000000
97
0
75
0
76
0
98
0
0
HATCH
5
92
100
AcDbEntity
67
0
8
0
6
Continuous
62
14
370
0
100
AcDbHatch
10
0.000000
20
0.000000
30
0.000000
210
0.000000
220
0.000000
230
1.000000
2
SOLID
70
1
71
0
91
1
92
0
93
4
72
1
10
10.000000
20
-20.000000
11
10.000000
21
-10.000000
72
1
10
10.000000
20
-10.000000
11
20.000000
21
-10.000000
72
1
10
20.000000
20
-10.000000
11
20.000000
21
-20.000000
72
1
10
20.000000
20
-20.000000
11
10.000000
21
-20.000000
97
0
75
0
76
0
98
0
0
HATCH
5
93
100
AcDbEntity
67
0
8
0
6
Continuous
62
24
370
0
100
AcDbHatch
10
0.000000
20
0.000000
30
0.000000
210
0.000000
220
0.000000
230
1.000000
2
SOLID
70
1
71
0
91
1
92
0
93
4
72
1
10
20.000000
20
-20.000000
11
20.000000
21
-10.000000
72
1
10
20.000000
20
-10.000000
11
30.000000
21
-10.000000
72
1
10
30.000000
20
-10.000000
11
30.000000
21
-20.000000
72
1
10
30.000000
20
-20.000000
11
20.000000
21
-20.000000
97
0
75
0
76
0
98
0
0
HATCH
5
94
100
AcDbEntity
67
0
8
0
6
Continuous
62
34
370
0
100
AcDbHatch
10
0.000000
20
0.000000
30
0.000000
210
0.000000
220
0.000000
230
1.000000
2
SOLID
70
1
71
0
91
1
92
0
93
4
72
1
10
30.000000
20
-20.000000
11
30.000000
21
-10.000000
72
1
10
30.000000
20
-10.000000
11
40.000000
21
-10.000000
72
1
10
40.000000
20
-10.000000
11
40.000000
21
-20.000000
72
1
10
40.000000
20
-20.000000
11
30.000000
21
-20.000000
97
0
75
0
76
0
98
0
0
HATCH
5
95
100
AcDbEntity
67
0
8
0
6
Continuous
62
44
370
0
100
AcDbHatch
10
0.000000
20
0.000000
30
0.000000
210
0.000000
220
0.000000
230
1.000000
2
SOLID
70
1
71
0
91
1
92
0
93
4
72
1
10
40.000000
20
-20.000000
11
40.000000
21
-10.000000
72
1
10
40.000000
20
-10.000000
11
50.000000
21
-10.000000
72
1
10
50.000000
20
-10.000000
11
50.000000
21
-20.000000
72
1
10
50.000000
20
-20.000000
11
40.000000
21
-20.000000
97
0
75
0
76
0
98
0
0
HATCH
5
96
100
AcDbEntity
67
0
8
0
6
Continuous
62
54
370
0
100
AcDbHatch
10
0.000000
20
0.000000
30
0.000000
210
0.000000
220
0.000000
230
1.000000
2
SOLID
70
1
71
0
91
1
92
0
93
4
72
1
10
50.000000
20
-20.000000
11
50.000000
21
-10.000000
72
1
10
50.000000
20
-10.000000
11
60.000000
21
-10.000000
72
1
10
60.000000
20
-10.000000
11
60.000000
21
-20.000000
72
1
10
60.000000
20
-20.000000
11
50.000000
21
-20.000000
97
0
75
0
76
0
98
0
0
HATCH
5
97
100
AcDbEntity
67
0
8
0
6
Continuous
62
64
370
0
100
AcDbHatch
10
0.000000
20
0.000000
30
0.000000
210
0.000000
220
0.000000
230
1.000000
2
SOLID
70
1
71
0
91
1
92
0
93
4
72
1
10
60.000000
20
-20.000000
11
60.000000
21
-10.000000
72
1
10
60.000000
20
-10.000000
11
70.000000
21
-10.000000
72
1
10
70.000000
20
-10.000000
11
70.000000
21
-20.000000
72
1
10
70.000000
20
-20.000000
11
60.000000
21
-20.000000
97
0
75
0
76
0
98
0
0
HATCH
5
98
100
AcDbEntity
67
0
8
0
6
Continuous
62
74
370
0
100
AcDbHatch
10
0.000000
20
0.000000
30
0.000000
210
0.000000
220
0.000000
230
1.000000
2
SOLID
70
1
71
0
91
1
92
0
93
4
72
1
10
70.000000
20
-20.000000
11
70.000000
21
-10.000000
72
1
10
70.000000
20
-10.000000
11
80.000000
21
-10.000000
72
1
10
80.000000
20
-10.000000
11
80.000000
21
-20.000000
72
1
10
80.000000
20
-20.000000
11
70.000000
21
-20.000000
97
0
75
0
76
0
98
0
0
HATCH
5
99
100
AcDbEntity
67
0
8
0
6
Continuous
62
84
370
0
100
AcDbHatch
10
0.000000
20
0.000000
30
0.000000
210
0.000000
220
0.000000
230
1.000000
2
SOLID
70
1
71
0
91
1
92
0
93
4
72
1
10
80.000000
20
-20.000000
11
80.000000
21
-10.000000
72
1
10
80.000000
20
-10.000000
11
90.000000
21
-10.000000
72
1
10
90.000000
20
-10.000000
11
90.000000
21
-20.000000
72
1
10
90.000000
20
-20.000000
11
80.000000
21
-20.000000
97
0
75
0
76
0
98
0
0
HATCH
5
9A
100
AcDbEntity
67
0
8
0
6
Continuous
62
94
370
0
100
AcDbHatch
10
0.000000
20
0.000000
30
0.000000
210
0.000000
220
0.000000
230
1.000000
2
SOLID
70
1
71
0
91
1
92
0
93
4
72
1
10
90.000000
20
-20.000000
11
90.000000
21
-10.000000
72
1
10
90.000000
20
-10.000000
11
100.000000
21
-10.000000
72
1
10
100.000000
20
-10.000000
11
100.000000
21
-20.000000
72
1
10
100.000000
20
-20.000000
11
90.000000
21
-20.000000
97
0
75
0
76
0
98
0
0
HATCH
5
9B
100
AcDbEntity
67
0
8
0
6
Continuous
62
104
370
0
100
AcDbHatch
10
0.000000
20
0.000000
30
0.000000
210
0.000000
220
0.000000
230
1.000000
2
SOLID
70
1
71
0
91
1
92
0
93
4
72
1
10
100.000000
20
-20.000000
11
100.000000
21
-10.000000
72
1
10
100.000000
20
-10.000000
11
110.000000
21
-10.000000
72
1
10
110.000000
20
-10.000000
11
110.000000
21
-20.000000
72
1
10
110.000000
20
-20.000000
11
100.000000
21
-20.000000
97
0
75
0
76
0
98
0
0
HATCH
5
9C
100
AcDbEntity
67
0
8
0
6
Continuous
62
114
370
0
100
AcDbHatch
10
0.000000
20
0.000000
30
0.000000
210
0.000000
220
0.000000
230
1.000000
2
SOLID
70
1
71
0
91
1
92
0
93
4
72
1
10
110.000000
20
-20.000000
11
110.000000
21
-10.000000
72
1
10
110.000000
20
-10.000000
11
120.000000
21
-10.000000
72
1
10
120.000000
20
-10.000000
11
120.000000
21
-20.000000
72
1
10
120.000000
20
-20.000000
11
110.000000
21
-20.000000
97
0
75
0
76
0
98
0
0
HATCH
5
9D
100
AcDbEntity
67
0
8
0
6
Continuous
62
124
370
0
100
AcDbHatch
10
0.000000
20
0.000000
30
0.000000
210
0.000000
220
0.000000
230
1.000000
2
SOLID
70
1
71
0
91
1
92
0
93
4
72
1
10
120.000000
20
-20.000000
11
120.000000
21
-10.000000
72
1
10
120.000000
20
-10.000000
11
130.000000
21
-10.000000
72
1
10
130.000000
20
-10.000000
11
130.000000
21
-20.000000
72
1
10
130.000000
20
-20.000000
11
120.000000
21
-20.000000
97
0
75
0
76
0
98
0
0
HATCH
5
9E
100
AcDbEntity
67
0
8
0
6
Continuous
62
134
370
0
100
AcDbHatch
10
0.000000
20
0.000000
30
0.000000
210
0.000000
220
0.000000
230
1.000000
2
SOLID
70
1
71
0
91
1
92
0
93
4
72
1
10
130.000000
20
-20.000000
11
130.000000
21
-10.000000
72
1
10
130.000000
20
-10.000000
11
140.000000
21
-10.000000
72
1
10
140.000000
20
-10.000000
11
140.000000
21
-20.000000
72
1
10
140.000000
20
-20.000000
11
130.000000
21
-20.000000
97
0
75
0
76
0
98
0
0
HATCH
5
9F
100
AcDbEntity
67
0
8
0
6
Continuous
62
144
370
0
100
AcDbHatch
10
0.000000
20
0.000000
30
0.000000
210
0.000000
220
0.000000
230
1.000000
2
SOLID
70
1
71
0
91
1
92
0
93
4
72
1
10
140.000000
20
-20.000000
11
140.000000
21
-10.000000
72
1
10
140.000000
20
-10.000000
11
150.000000
21
-10.000000
72
1
10
150.000000
20
-10.000000
11
150.000000
21
-20.000000
72
1
10
150.000000
20
-20.000000
11
140.000000
21
-20.000000
97
0
75
0
76
0
98
0
0
HATCH
5
A0
100
AcDbEntity
67
0
8
0
6
Continuous
62
154
370
0
100
AcDbHatch
10
0.000000
20
0.000000
30
0.000000
210
0.000000
220
0.000000
230
1.000000
2
SOLID
70
1
71
0
91
1
92
0
93
4
72
1
10
150.000000
20
-20.000000
11
150.000000
21
-10.000000
72
1
10
150.000000
20
-10.000000
11
160.000000
21
-10.000000
72
1
10
160.000000
20
-10.000000
11
160.000000
21
-20.000000
72
1
10
160.000000
20
-20.000000
11
150.000000
21
-20.000000
97
0
75
0
76
0
98
0
0
HATCH
5
A1
100
AcDbEntity
67
0
8
0
6
Continuous
62
164
370
0
100
AcDbHatch
10
0.000000
20
0.000000
30
0.000000
210
0.000000
220
0.000000
230
1.000000
2
SOLID
70
1
71
0
91
1
92
0
93
4
72
1
10
160.000000
20
-20.000000
11
160.000000
21
-10.000000
72
1
10
160.000000
20
-10.000000
11
170.000000
21
-10.000000
72
1
10
170.000000
20
-10.000000
11
170.000000
21
-20.000000
72
1
10
170.000000
20
-20.000000
11
160.000000
21
-20.000000
97
0
75
0
76
0
98
0
0
HATCH
5
A2
100
AcDbEntity
67
0
8
0
6
Continuous
62
174
370
0
100
AcDbHatch
10
0.000000
20
0.000000
30
0.000000
210
0.000000
220
0.000000
230
1.000000
2
SOLID
70
1
71
0
91
1
92
0
93
4
72
1
10
170.000000
20
-20.000000
11
170.000000
21
-10.000000
72
1
10
170.000000
20
-10.000000
11
180.000000
21
-10.000000
72
1
10
180.000000
20
-10.000000
11
180.000000
21
-20.000000
72
1
10
180.000000
20
-20.000000
11
170.000000
21
-20.000000
97
0
75
0
76
0
98
0
0
HATCH
5
A3
100
AcDbEntity
67
0
8
0
6
Continuous
62
184
370
0
100
AcDbHatch
10
0.000000
20
0.000000
30
0.000000
210
0.000000
220
0.000000
230
1.000000
2
SOLID
70
1
71
0
91
1
92
0
93
4
72
1
10
180.000000
20
-20.000000
11
180.000000
21
-10.000000
72
1
10
180.000000
20
-10.000000
11
190.000000
21
-10.000000
72
1
10
190.000000
20
-10.000000
11
190.000000
21
-20.000000
72
1
10
190.000000
20
-20.000000
11
180.000000
21
-20.000000
97
0
75
0
76
0
98
0
0
HATCH
5
A4
100
AcDbEntity
67
0
8
0
6
Continuous
62
194
370
0
100
AcDbHatch
10
0.000000
20
0.000000
30
0.000000
210
0.000000
220
0.000000
230
1.000000
2
SOLID
70
1
71
0
91
1
92
0
93
4
72
1
10
190.000000
20
-20.000000
11
190.000000
21
-10.000000
72
1
10
190.000000
20
-10.000000
11
200.000000
21
-10.000000
72
1
10
200.000000
20
-10.000000
11
200.000000
21
-20.000000
72
1
10
200.000000
20
-20.000000
11
190.000000
21
-20.000000
97
0
75
0
76
0
98
0
0
HATCH
5
A5
100
AcDbEntity
67
0
8
0
6
Continuous
62
204
370
0
100
AcDbHatch
10
0.000000
20
0.000000
30
0.000000
210
0.000000
220
0.000000
230
1.000000
2
SOLID
70
1
71
0
91
1
92
0
93
4
72
1
10
200.000000
20
-20.000000
11
200.000000
21
-10.000000
72
1
10
200.000000
20
-10.000000
11
210.000000
21
-10.000000
72
1
10
210.000000
20
-10.000000
11
210.000000
21
-20.000000
72
1
10
210.000000
20
-20.000000
11
200.000000
21
-20.000000
97
0
75
0
76
0
98
0
0
HATCH
5
A6
100
AcDbEntity
67
0
8
0
6
Continuous
62
214
370
0
100
AcDbHatch
10
0.000000
20
0.000000
30
0.000000
210
0.000000
220
0.000000
230
1.000000
2
SOLID
70
1
71
0
91
1
92
0
93
4
72
1
10
210.000000
20
-20.000000
11
210.000000
21
-10.000000
72
1
10
210.000000
20
-10.000000
11
220.000000
21
-10.000000
72
1
10
220.000000
20
-10.000000
11
220.000000
21
-20.000000
72
1
10
220.000000
20
-20.000000
11
210.000000
21
-20.000000
97
0
75
0
76
0
98
0
0
HATCH
5
A7
100
AcDbEntity
67
0
8
0
6
Continuous
62
224
370
0
100
AcDbHatch
10
0.000000
20
0.000000
30
0.000000
210
0.000000
220
0.000000
230
1.000000
2
SOLID
70
1
71
0
91
1
92
0
93
4
72
1
10
220.000000
20
-20.000000
11
220.000000
21
-10.000000
72
1
10
220.000000
20
-10.000000
11
230.000000
21
-10.000000
72
1
10
230.000000
20
-10.000000
11
230.000000
21
-20.000000
72
1
10
230.000000
20
-20.000000
11
220.000000
21
-20.000000
97
0
75
0
76
0
98
0
0
HATCH
5
A8
100
AcDbEntity
67
0
8
0
6
Continuous
62
234
370
0
100
AcDbHatch
10
0.000000
20
0.000000
30
0.000000
210
0.000000
220
0.000000
230
1.000000
2
SOLID
70
1
71
0
91
1
92
0
93
4
72
1
10
230.000000
20
-20.000000
11
230.000000
21
-10.000000
72
1
10
230.000000
20
-10.000000
11
240.000000
21
-10.000000
72
1
10
240.000000
20
-10.000000
11
240.000000
21
-20.000000
72
1
10
240.000000
20
-20.000000
11
230.000000
21
-20.000000
97
0
75
0
76
0
98
0
0
HATCH
5
A9
100
AcDbEntity
67
0
8
0
6
Continuous
62
244
370
0
100
AcDbHatch
10
0.000000
20
0.000000
30
0.000000
210
0.000000
220
0.000000
230
1.000000
2
SOLID
70
1
71
0
91
1
92
0
93
4
72
1
10
240.000000
20
-20.000000
11
240.000000
21
-10.000000
72
1
10
240.000000
20
-10.000000
11
250.000000
21
-10.000000
72
1
10
250.000000
20
-10.000000
11
250.000000
21
-20.000000
72
1
10
250.000000
20
-20.000000
11
240.000000
21
-20.000000
97
0
75
0
76
0
98
0
0
HATCH
5
AA
100
AcDbEntity
67
0
8
0
6
Continuous
62
16
370
0
100
AcDbHatch
10
0.000000
20
0.000000
30
0.000000
210
0.000000
220
0.000000
230
1.000000
2
SOLID
70
1
71
0
91
1
92
0
93
4
72
1
10
10.000000
20
-30.000000
11
10.000000
21
-20.000000
72
1
10
10.000000
20
-20.000000
11
20.000000
21
-20.000000
72
1
10
20.000000
20
-20.000000
11
20.000000
21
-30.000000
72
1
10
20.000000
20
-30.000000
11
10.000000
21
-30.000000
97
0
75
0
76
0
98
0
0
HATCH
5
AB
100
AcDbEntity
67
0
8
0
6
Continuous
62
26
370
0
100
AcDbHatch
10
0.000000
20
0.000000
30
0.000000
210
0.000000
220
0.000000
230
1.000000
2
SOLID
70
1
71
0
91
1
92
0
93
4
72
1
10
20.000000
20
-30.000000
11
20.000000
21
-20.000000
72
1
10
20.000000
20
-20.000000
11
30.000000
21
-20.000000
72
1
10
30.000000
20
-20.000000
11
30.000000
21
-30.000000
72
1
10
30.000000
20
-30.000000
11
20.000000
21
-30.000000
97
0
75
0
76
0
98
0
0
HATCH
5
AC
100
AcDbEntity
67
0
8
0
6
Continuous
62
36
370
0
100
AcDbHatch
10
0.000000
20
0.000000
30
0.000000
210
0.000000
220
0.000000
230
1.000000
2
SOLID
70
1
71
0
91
1
92
0
93
4
72
1
10
30.000000
20
-30.000000
11
30.000000
21
-20.000000
72
1
10
30.000000
20
-20.000000
11
40.000000
21
-20.000000
72
1
10
40.000000
20
-20.000000
11
40.000000
21
-30.000000
72
1
10
40.000000
20
-30.000000
11
30.000000
21
-30.000000
97
0
75
0
76
0
98
0
0
HATCH
5
AD
100
AcDbEntity
67
0
8
0
6
Continuous
62
46
370
0
100
AcDbHatch
10
0.000000
20
0.000000
30
0.000000
210
0.000000
220
0.000000
230
1.000000
2
SOLID
70
1
71
0
91
1
92
0
93
4
72
1
10
40.000000
20
-30.000000
11
40.000000
21
-20.000000
72
1
10
40.000000
20
-20.000000
11
50.000000
21
-20.000000
72
1
10
50.000000
20
-20.000000
11
50.000000
21
-30.000000
72
1
10
50.000000
20
-30.000000
11
40.000000
21
-30.000000
97
0
75
0
76
0
98
0
0
HATCH
5
AE
100
AcDbEntity
67
0
8
0
6
Continuous
62
56
370
0
100
AcDbHatch
10
0.000000
20
0.000000
30
0.000000
210
0.000000
220
0.000000
230
1.000000
2
SOLID
70
1
71
0
91
1
92
0
93
4
72
1
10
50.000000
20
-30.000000
11
50.000000
21
-20.000000
72
1
10
50.000000
20
-20.000000
11
60.000000
21
-20.000000
72
1
10
60.000000
20
-20.000000
11
60.000000
21
-30.000000
72
1
10
60.000000
20
-30.000000
11
50.000000
21
-30.000000
97
0
75
0
76
0
98
0
0
HATCH
5
AF
100
AcDbEntity
67
0
8
0
6
Continuous
62
66
370
0
100
AcDbHatch
10
0.000000
20
0.000000
30
0.000000
210
0.000000
220
0.000000
230
1.000000
2
SOLID
70
1
71
0
91
1
92
0
93
4
72
1
10
60.000000
20
-30.000000
11
60.000000
21
-20.000000
72
1
10
60.000000
20
-20.000000
11
70.000000
21
-20.000000
72
1
10
70.000000
20
-20.000000
11
70.000000
21
-30.000000
72
1
10
70.000000
20
-30.000000
11
60.000000
21
-30.000000
97
0
75
0
76
0
98
0
0
HATCH
5
B0
100
AcDbEntity
67
0
8
0
6
Continuous
62
76
370
0
100
AcDbHatch
10
0.000000
20
0.000000
30
0.000000
210
0.000000
220
0.000000
230
1.000000
2
SOLID
70
1
71
0
91
1
92
0
93
4
72
1
10
70.000000
20
-30.000000
11
70.000000
21
-20.000000
72
1
10
70.000000
20
-20.000000
11
80.000000
21
-20.000000
72
1
10
80.000000
20
-20.000000
11
80.000000
21
-30.000000
72
1
10
80.000000
20
-30.000000
11
70.000000
21
-30.000000
97
0
75
0
76
0
98
0
0
HATCH
5
B1
100
AcDbEntity
67
0
8
0
6
Continuous
62
86
370
0
100
AcDbHatch
10
0.000000
20
0.000000
30
0.000000
210
0.000000
220
0.000000
230
1.000000
2
SOLID
70
1
71
0
91
1
92
0
93
4
72
1
10
80.000000
20
-30.000000
11
80.000000
21
-20.000000
72
1
10
80.000000
20
-20.000000
11
90.000000
21
-20.000000
72
1
10
90.000000
20
-20.000000
11
90.000000
21
-30.000000
72
1
10
90.000000
20
-30.000000
11
80.000000
21
-30.000000
97
0
75
0
76
0
98
0
0
HATCH
5
B2
100
AcDbEntity
67
0
8
0
6
Continuous
62
96
370
0
100
AcDbHatch
10
0.000000
20
0.000000
30
0.000000
210
0.000000
220
0.000000
230
1.000000
2
SOLID
70
1
71
0
91
1
92
0
93
4
72
1
10
90.000000
20
-30.000000
11
90.000000
21
-20.000000
72
1
10
90.000000
20
-20.000000
11
100.000000
21
-20.000000
72
1
10
100.000000
20
-20.000000
11
100.000000
21
-30.000000
72
1
10
100.000000
20
-30.000000
11
90.000000
21
-30.000000
97
0
75
0
76
0
98
0
0
HATCH
5
B3
100
AcDbEntity
67
0
8
0
6
Continuous
62
106
370
0
100
AcDbHatch
10
0.000000
20
0.000000
30
0.000000
210
0.000000
220
0.000000
230
1.000000
2
SOLID
70
1
71
0
91
1
92
0
93
4
72
1
10
100.000000
20
-30.000000
11
100.000000
21
-20.000000
72
1
10
100.000000
20
-20.000000
11
110.000000
21
-20.000000
72
1
10
110.000000
20
-20.000000
11
110.000000
21
-30.000000
72
1
10
110.000000
20
-30.000000
11
100.000000
21
-30.000000
97
0
75
0
76
0
98
0
0
HATCH
5
B4
100
AcDbEntity
67
0
8
0
6
Continuous
62
116
370
0
100
AcDbHatch
10
0.000000
20
0.000000
30
0.000000
210
0.000000
220
0.000000
230
1.000000
2
SOLID
70
1
71
0
91
1
92
0
93
4
72
1
10
110.000000
20
-30.000000
11
110.000000
21
-20.000000
72
1
10
110.000000
20
-20.000000
11
120.000000
21
-20.000000
72
1
10
120.000000
20
-20.000000
11
120.000000
21
-30.000000
72
1
10
120.000000
20
-30.000000
11
110.000000
21
-30.000000
97
0
75
0
76
0
98
0
0
HATCH
5
B5
100
AcDbEntity
67
0
8
0
6
Continuous
62
126
370
0
100
AcDbHatch
10
0.000000
20
0.000000
30
0.000000
210
0.000000
220
0.000000
230
1.000000
2
SOLID
70
1
71
0
91
1
92
0
93
4
72
1
10
120.000000
20
-30.000000
11
120.000000
21
-20.000000
72
1
10
120.000000
20
-20.000000
11
130.000000
21
-20.000000
72
1
10
130.000000
20
-20.000000
11
130.000000
21
-30.000000
72
1
10
130.000000
20
-30.000000
11
120.000000
21
-30.000000
97
0
75
0
76
0
98
0
0
HATCH
5
B6
100
AcDbEntity
67
0
8
0
6
Continuous
62
136
370
0
100
AcDbHatch
10
0.000000
20
0.000000
30
0.000000
210
0.000000
220
0.000000
230
1.000000
2
SOLID
70
1
71
0
91
1
92
0
93
4
72
1
10
130.000000
20
-30.000000
11
130.000000
21
-20.000000
72
1
10
130.000000
20
-20.000000
11
140.000000
21
-20.000000
72
1
10
140.000000
20
-20.000000
11
140.000000
21
-30.000000
72
1
10
140.000000
20
-30.000000
11
130.000000
21
-30.000000
97
0
75
0
76
0
98
0
0
HATCH
5
B7
100
AcDbEntity
67
0
8
0
6
Continuous
62
146
370
0
100
AcDbHatch
10
0.000000
20
0.000000
30
0.000000
210
0.000000
220
0.000000
230
1.000000
2
SOLID
70
1
71
0
91
1
92
0
93
4
72
1
10
140.000000
20
-30.000000
11
140.000000
21
-20.000000
72
1
10
140.000000
20
-20.000000
11
150.000000
21
-20.000000
72
1
10
150.000000
20
-20.000000
11
150.000000
21
-30.000000
72
1
10
150.000000
20
-30.000000
11
140.000000
21
-30.000000
97
0
75
0
76
0
98
0
0
HATCH
5
B8
100
AcDbEntity
67
0
8
0
6
Continuous
62
156
370
0
100
AcDbHatch
10
0.000000
20
0.000000
30
0.000000
210
0.000000
220
0.000000
230
1.000000
2
SOLID
70
1
71
0
91
1
92
0
93
4
72
1
10
150.000000
20
-30.000000
11
150.000000
21
-20.000000
72
1
10
150.000000
20
-20.000000
11
160.000000
21
-20.000000
72
1
10
160.000000
20
-20.000000
11
160.000000
21
-30.000000
72
1
10
160.000000
20
-30.000000
11
150.000000
21
-30.000000
97
0
75
0
76
0
98
0
0
HATCH
5
B9
100
AcDbEntity
67
0
8
0
6
Continuous
62
166
370
0
100
AcDbHatch
10
0.000000
20
0.000000
30
0.000000
210
0.000000
220
0.000000
230
1.000000
2
SOLID
70
1
71
0
91
1
92
0
93
4
72
1
10
160.000000
20
-30.000000
11
160.000000
21
-20.000000
72
1
10
160.000000
20
-20.000000
11
170.000000
21
-20.000000
72
1
10
170.000000
20
-20.000000
11
170.000000
21
-30.000000
72
1
10
170.000000
20
-30.000000
11
160.000000
21
-30.000000
97
0
75
0
76
0
98
0
0
HATCH
5
BA
100
AcDbEntity
67
0
8
0
6
Continuous
62
176
370
0
100
AcDbHatch
10
0.000000
20
0.000000
30
0.000000
210
0.000000
220
0.000000
230
1.000000
2
SOLID
70
1
71
0
91
1
92
0
93
4
72
1
10
170.000000
20
-30.000000
11
170.000000
21
-20.000000
72
1
10
170.000000
20
-20.000000
11
180.000000
21
-20.000000
72
1
10
180.000000
20
-20.000000
11
180.000000
21
-30.000000
72
1
10
180.000000
20
-30.000000
11
170.000000
21
-30.000000
97
0
75
0
76
0
98
0
0
HATCH
5
BB
100
AcDbEntity
67
0
8
0
6
Continuous
62
186
370
0
100
AcDbHatch
10
0.000000
20
0.000000
30
0.000000
210
0.000000
220
0.000000
230
1.000000
2
SOLID
70
1
71
0
91
1
92
0
93
4
72
1
10
180.000000
20
-30.000000
11
180.000000
21
-20.000000
72
1
10
180.000000
20
-20.000000
11
190.000000
21
-20.000000
72
1
10
190.000000
20
-20.000000
11
190.000000
21
-30.000000
72
1
10
190.000000
20
-30.000000
11
180.000000
21
-30.000000
97
0
75
0
76
0
98
0
0
HATCH
5
BC
100
AcDbEntity
67
0
8
0
6
Continuous
62
196
370
0
100
AcDbHatch
10
0.000000
20
0.000000
30
0.000000
210
0.000000
220
0.000000
230
1.000000
2
SOLID
70
1
71
0
91
1
92
0
93
4
72
1
10
190.000000
20
-30.000000
11
190.000000
21
-20.000000
72
1
10
190.000000
20
-20.000000
11
200.000000
21
-20.000000
72
1
10
200.000000
20
-20.000000
11
200.000000
21
-30.000000
72
1
10
200.000000
20
-30.000000
11
190.000000
21
-30.000000
97
0
75
0
76
0
98
0
0
HATCH
5
BD
100
AcDbEntity
67
0
8
0
6
Continuous
62
206
370
0
100
AcDbHatch
10
0.000000
20
0.000000
30
0.000000
210
0.000000
220
0.000000
230
1.000000
2
SOLID
70
1
71
0
91
1
92
0
93
4
72
1
10
200.000000
20
-30.000000
11
200.000000
21
-20.000000
72
1
10
200.000000
20
-20.000000
11
210.000000
21
-20.000000
72
1
10
210.000000
20
-20.000000
11
210.000000
21
-30.000000
72
1
10
210.000000
20
-30.000000
11
200.000000
21
-30.000000
97
0
75
0
76
0
98
0
0
HATCH
5
BE
100
AcDbEntity
67
0
8
0
6
Continuous
62
216
370
0
100
AcDbHatch
10
0.000000
20
0.000000
30
0.000000
210
0.000000
220
0.000000
230
1.000000
2
SOLID
70
1
71
0
91
1
92
0
93
4
72
1
10
210.000000
20
-30.000000
11
210.000000
21
-20.000000
72
1
10
210.000000
20
-20.000000
11
220.000000
21
-20.000000
72
1
10
220.000000
20
-20.000000
11
220.000000
21
-30.000000
72
1
10
220.000000
20
-30.000000
11
210.000000
21
-30.000000
97
0
75
0
76
0
98
0
0
HATCH
5
BF
100
AcDbEntity
67
0
8
0
6
Continuous
62
226
370
0
100
AcDbHatch
10
0.000000
20
0.000000
30
0.000000
210
0.000000
220
0.000000
230
1.000000
2
SOLID
70
1
71
0
91
1
92
0
93
4
72
1
10
220.000000
20
-30.000000
11
220.000000
21
-20.000000
72
1
10
220.000000
20
-20.000000
11
230.000000
21
-20.000000
72
1
10
230.000000
20
-20.000000
11
230.000000
21
-30.000000
72
1
10
230.000000
20
-30.000000
11
220.000000
21
-30.000000
97
0
75
0
76
0
98
0
0
HATCH
5
C0
100
AcDbEntity
67
0
8
0
6
Continuous
62
236
370
0
100
AcDbHatch
10
0.000000
20
0.000000
30
0.000000
210
0.000000
220
0.000000
230
1.000000
2
SOLID
70
1
71
0
91
1
92
0
93
4
72
1
10
230.000000
20
-30.000000
11
230.000000
21
-20.000000
72
1
10
230.000000
20
-20.000000
11
240.000000
21
-20.000000
72
1
10
240.000000
20
-20.000000
11
240.000000
21
-30.000000
72
1
10
240.000000
20
-30.000000
11
230.000000
21
-30.000000
97
0
75
0
76
0
98
0
0
HATCH
5
C1
100
AcDbEntity
67
0
8
0
6
Continuous
62
246
370
0
100
AcDbHatch
10
0.000000
20
0.000000
30
0.000000
210
0.000000
220
0.000000
230
1.000000
2
SOLID
70
1
71
0
91
1
92
0
93
4
72
1
10
240.000000
20
-30.000000
11
240.000000
21
-20.000000
72
1
10
240.000000
20
-20.000000
11
250.000000
21
-20.000000
72
1
10
250.000000
20
-20.000000
11
250.000000
21
-30.000000
72
1
10
250.000000
20
-30.000000
11
240.000000
21
-30.000000
97
0
75
0
76
0
98
0
0
HATCH
5
C2
100
AcDbEntity
67
0
8
0
6
Continuous
62
18
370
0
100
AcDbHatch
10
0.000000
20
0.000000
30
0.000000
210
0.000000
220
0.000000
230
1.000000
2
SOLID
70
1
71
0
91
1
92
0
93
4
72
1
10
10.000000
20
-40.000000
11
10.000000
21
-30.000000
72
1
10
10.000000
20
-30.000000
11
20.000000
21
-30.000000
72
1
10
20.000000
20
-30.000000
11
20.000000
21
-40.000000
72
1
10
20.000000
20
-40.000000
11
10.000000
21
-40.000000
97
0
75
0
76
0
98
0
0
HATCH
5
C3
100
AcDbEntity
67
0
8
0
6
Continuous
62
28
370
0
100
AcDbHatch
10
0.000000
20
0.000000
30
0.000000
210
0.000000
220
0.000000
230
1.000000
2
SOLID
70
1
71
0
91
1
92
0
93
4
72
1
10
20.000000
20
-40.000000
11
20.000000
21
-30.000000
72
1
10
20.000000
20
-30.000000
11
30.000000
21
-30.000000
72
1
10
30.000000
20
-30.000000
11
30.000000
21
-40.000000
72
1
10
30.000000
20
-40.000000
11
20.000000
21
-40.000000
97
0
75
0
76
0
98
0
0
HATCH
5
C4
100
AcDbEntity
67
0
8
0
6
Continuous
62
38
370
0
100
AcDbHatch
10
0.000000
20
0.000000
30
0.000000
210
0.000000
220
0.000000
230
1.000000
2
SOLID
70
1
71
0
91
1
92
0
93
4
72
1
10
30.000000
20
-40.000000
11
30.000000
21
-30.000000
72
1
10
30.000000
20
-30.000000
11
40.000000
21
-30.000000
72
1
10
40.000000
20
-30.000000
11
40.000000
21
-40.000000
72
1
10
40.000000
20
-40.000000
11
30.000000
21
-40.000000
97
0
75
0
76
0
98
0
0
HATCH
5
C5
100
AcDbEntity
67
0
8
0
6
Continuous
62
48
370
0
100
AcDbHatch
10
0.000000
20
0.000000
30
0.000000
210
0.000000
220
0.000000
230
1.000000
2
SOLID
70
1
71
0
91
1
92
0
93
4
72
1
10
40.000000
20
-40.000000
11
40.000000
21
-30.000000
72
1
10
40.000000
20
-30.000000
11
50.000000
21
-30.000000
72
1
10
50.000000
20
-30.000000
11
50.000000
21
-40.000000
72
1
10
50.000000
20
-40.000000
11
40.000000
21
-40.000000
97
0
75
0
76
0
98
0
0
HATCH
5
C6
100
AcDbEntity
67
0
8
0
6
Continuous
62
58
370
0
100
AcDbHatch
10
0.000000
20
0.000000
30
0.000000
210
0.000000
220
0.000000
230
1.000000
2
SOLID
70
1
71
0
91
1
92
0
93
4
72
1
10
50.000000
20
-40.000000
11
50.000000
21
-30.000000
72
1
10
50.000000
20
-30.000000
11
60.000000
21
-30.000000
72
1
10
60.000000
20
-30.000000
11
60.000000
21
-40.000000
72
1
10
60.000000
20
-40.000000
11
50.000000
21
-40.000000
97
0
75
0
76
0
98
0
0
HATCH
5
C7
100
AcDbEntity
67
0
8
0
6
Continuous
62
68
370
0
100
AcDbHatch
10
0.000000
20
0.000000
30
0.000000
210
0.000000
220
0.000000
230
1.000000
2
SOLID
70
1
71
0
91
1
92
0
93
4
72
1
10
60.000000
20
-40.000000
11
60.000000
21
-30.000000
72
1
10
60.000000
20
-30.000000
11
70.000000
21
-30.000000
72
1
10
70.000000
20
-30.000000
11
70.000000
21
-40.000000
72
1
10
70.000000
20
-40.000000
11
60.000000
21
-40.000000
97
0
75
0
76
0
98
0
0
HATCH
5
C8
100
AcDbEntity
67
0
8
0
6
Continuous
62
78
370
0
100
AcDbHatch
10
0.000000
20
0.000000
30
0.000000
210
0.000000
220
0.000000
230
1.000000
2
SOLID
70
1
71
0
91
1
92
0
93
4
72
1
10
70.000000
20
-40.000000
11
70.000000
21
-30.000000
72
1
10
70.000000
20
-30.000000
11
80.000000
21
-30.000000
72
1
10
80.000000
20
-30.000000
11
80.000000
21
-40.000000
72
1
10
80.000000
20
-40.000000
11
70.000000
21
-40.000000
97
0
75
0
76
0
98
0
0
HATCH
5
C9
100
AcDbEntity
67
0
8
0
6
Continuous
62
88
370
0
100
AcDbHatch
10
0.000000
20
0.000000
30
0.000000
210
0.000000
220
0.000000
230
1.000000
2
SOLID
70
1
71
0
91
1
92
0
93
4
72
1
10
80.000000
20
-40.000000
11
80.000000
21
-30.000000
72
1
10
80.000000
20
-30.000000
11
90.000000
21
-30.000000
72
1
10
90.000000
20
-30.000000
11
90.000000
21
-40.000000
72
1
10
90.000000
20
-40.000000
11
80.000000
21
-40.000000
97
0
75
0
76
0
98
0
0
HATCH
5
CA
100
AcDbEntity
67
0
8
0
6
Continuous
62
98
370
0
100
AcDbHatch
10
0.000000
20
0.000000
30
0.000000
210
0.000000
220
0.000000
230
1.000000
2
SOLID
70
1
71
0
91
1
92
0
93
4
72
1
10
90.000000
20
-40.000000
11
90.000000
21
-30.000000
72
1
10
90.000000
20
-30.000000
11
100.000000
21
-30.000000
72
1
10
100.000000
20
-30.000000
11
100.000000
21
-40.000000
72
1
10
100.000000
20
-40.000000
11
90.000000
21
-40.000000
97
0
75
0
76
0
98
0
0
HATCH
5
CB
100
AcDbEntity
67
0
8
0
6
Continuous
62
108
370
0
100
AcDbHatch
10
0.000000
20
0.000000
30
0.000000
210
0.000000
220
0.000000
230
1.000000
2
SOLID
70
1
71
0
91
1
92
0
93
4
72
1
10
100.000000
20
-40.000000
11
100.000000
21
-30.000000
72
1
10
100.000000
20
-30.000000
11
110.000000
21
-30.000000
72
1
10
110.000000
20
-30.000000
11
110.000000
21
-40.000000
72
1
10
110.000000
20
-40.000000
11
100.000000
21
-40.000000
97
0
75
0
76
0
98
0
0
HATCH
5
CC
100
AcDbEntity
67
0
8
0
6
Continuous
62
118
370
0
100
AcDbHatch
10
0.000000
20
0.000000
30
0.000000
210
0.000000
220
0.000000
230
1.000000
2
SOLID
70
1
71
0
91
1
92
0
93
4
72
1
10
110.000000
20
-40.000000
11
110.000000
21
-30.000000
72
1
10
110.000000
20
-30.000000
11
120.000000
21
-30.000000
72
1
10
120.000000
20
-30.000000
11
120.000000
21
-40.000000
72
1
10
120.000000
20
-40.000000
11
110.000000
21
-40.000000
97
0
75
0
76
0
98
0
0
HATCH
5
CD
100
AcDbEntity
67
0
8
0
6
Continuous
62
128
370
0
100
AcDbHatch
10
0.000000
20
0.000000
30
0.000000
210
0.000000
220
0.000000
230
1.000000
2
SOLID
70
1
71
0
91
1
92
0
93
4
72
1
10
120.000000
20
-40.000000
11
120.000000
21
-30.000000
72
1
10
120.000000
20
-30.000000
11
130.000000
21
-30.000000
72
1
10
130.000000
20
-30.000000
11
130.000000
21
-40.000000
72
1
10
130.000000
20
-40.000000
11
120.000000
21
-40.000000
97
0
75
0
76
0
98
0
0
HATCH
5
CE
100
AcDbEntity
67
0
8
0
6
Continuous
62
138
370
0
100
AcDbHatch
10
0.000000
20
0.000000
30
0.000000
210
0.000000
220
0.000000
230
1.000000
2
SOLID
70
1
71
0
91
1
92
0
93
4
72
1
10
130.000000
20
-40.000000
11
130.000000
21
-30.000000
72
1
10
130.000000
20
-30.000000
11
140.000000
21
-30.000000
72
1
10
140.000000
20
-30.000000
11
140.000000
21
-40.000000
72
1
10
140.000000
20
-40.000000
11
130.000000
21
-40.000000
97
0
75
0
76
0
98
0
0
HATCH
5
CF
100
AcDbEntity
67
0
8
0
6
Continuous
62
148
370
0
100
AcDbHatch
10
0.000000
20
0.000000
30
0.000000
210
0.000000
220
0.000000
230
1.000000
2
SOLID
70
1
71
0
91
1
92
0
93
4
72
1
10
140.000000
20
-40.000000
11
140.000000
21
-30.000000
72
1
10
140.000000
20
-30.000000
11
150.000000
21
-30.000000
72
1
10
150.000000
20
-30.000000
11
150.000000
21
-40.000000
72
1
10
150.000000
20
-40.000000
11
140.000000
21
-40.000000
97
0
75
0
76
0
98
0
0
HATCH
5
D0
100
AcDbEntity
67
0
8
0
6
Continuous
62
158
370
0
100
AcDbHatch
10
0.000000
20
0.000000
30
0.000000
210
0.000000
220
0.000000
230
1.000000
2
SOLID
70
1
71
0
91
1
92
0
93
4
72
1
10
150.000000
20
-40.000000
11
150.000000
21
-30.000000
72
1
10
150.000000
20
-30.000000
11
160.000000
21
-30.000000
72
1
10
160.000000
20
-30.000000
11
160.000000
21
-40.000000
72
1
10
160.000000
20
-40.000000
11
150.000000
21
-40.000000
97
0
75
0
76
0
98
0
0
HATCH
5
D1
100
AcDbEntity
67
0
8
0
6
Continuous
62
168
370
0
100
AcDbHatch
10
0.000000
20
0.000000
30
0.000000
210
0.000000
220
0.000000
230
1.000000
2
SOLID
70
1
71
0
91
1
92
0
93
4
72
1
10
160.000000
20
-40.000000
11
160.000000
21
-30.000000
72
1
10
160.000000
20
-30.000000
11
170.000000
21
-30.000000
72
1
10
170.000000
20
-30.000000
11
170.000000
21
-40.000000
72
1
10
170.000000
20
-40.000000
11
160.000000
21
-40.000000
97
0
75
0
76
0
98
0
0
HATCH
5
D2
100
AcDbEntity
67
0
8
0
6
Continuous
62
178
370
0
100
AcDbHatch
10
0.000000
20
0.000000
30
0.000000
210
0.000000
220
0.000000
230
1.000000
2
SOLID
70
1
71
0
91
1
92
0
93
4
72
1
10
170.000000
20
-40.000000
11
170.000000
21
-30.000000
72
1
10
170.000000
20
-30.000000
11
180.000000
21
-30.000000
72
1
10
180.000000
20
-30.000000
11
180.000000
21
-40.000000
72
1
10
180.000000
20
-40.000000
11
170.000000
21
-40.000000
97
0
75
0
76
0
98
0
0
HATCH
5
D3
100
AcDbEntity
67
0
8
0
6
Continuous
62
188
370
0
100
AcDbHatch
10
0.000000
20
0.000000
30
0.000000
210
0.000000
220
0.000000
230
1.000000
2
SOLID
70
1
71
0
91
1
92
0
93
4
72
1
10
180.000000
20
-40.000000
11
180.000000
21
-30.000000
72
1
10
180.000000
20
-30.000000
11
190.000000
21
-30.000000
72
1
10
190.000000
20
-30.000000
11
190.000000
21
-40.000000
72
1
10
190.000000
20
-40.000000
11
180.000000
21
-40.000000
97
0
75
0
76
0
98
0
0
HATCH
5
D4
100
AcDbEntity
67
0
8
0
6
Continuous
62
198
370
0
100
AcDbHatch
10
0.000000
20
0.000000
30
0.000000
210
0.000000
220
0.000000
230
1.000000
2
SOLID
70
1
71
0
91
1
92
0
93
4
72
1
10
190.000000
20
-40.000000
11
190.000000
21
-30.000000
72
1
10
190.000000
20
-30.000000
11
200.000000
21
-30.000000
72
1
10
200.000000
20
-30.000000
11
200.000000
21
-40.000000
72
1
10
200.000000
20
-40.000000
11
190.000000
21
-40.000000
97
0
75
0
76
0
98
0
0
HATCH
5
D5
100
AcDbEntity
67
0
8
0
6
Continuous
62
208
370
0
100
AcDbHatch
10
0.000000
20
0.000000
30
0.000000
210
0.000000
220
0.000000
230
1.000000
2
SOLID
70
1
71
0
91
1
92
0
93
4
72
1
10
200.000000
20
-40.000000
11
200.000000
21
-30.000000
72
1
10
200.000000
20
-30.000000
11
210.000000
21
-30.000000
72
1
10
210.000000
20
-30.000000
11
210.000000
21
-40.000000
72
1
10
210.000000
20
-40.000000
11
200.000000
21
-40.000000
97
0
75
0
76
0
98
0
0
HATCH
5
D6
100
AcDbEntity
67
0
8
0
6
Continuous
62
218
370
0
100
AcDbHatch
10
0.000000
20
0.000000
30
0.000000
210
0.000000
220
0.000000
230
1.000000
2
SOLID
70
1
71
0
91
1
92
0
93
4
72
1
10
210.000000
20
-40.000000
11
210.000000
21
-30.000000
72
1
10
210.000000
20
-30.000000
11
220.000000
21
-30.000000
72
1
10
220.000000
20
-30.000000
11
220.000000
21
-40.000000
72
1
10
220.000000
20
-40.000000
11
210.000000
21
-40.000000
97
0
75
0
76
0
98
0
0
HATCH
5
D7
100
AcDbEntity
67
0
8
0
6
Continuous
62
228
370
0
100
AcDbHatch
10
0.000000
20
0.000000
30
0.000000
210
0.000000
220
0.000000
230
1.000000
2
SOLID
70
1
71
0
91
1
92
0
93
4
72
1
10
220.000000
20
-40.000000
11
220.000000
21
-30.000000
72
1
10
220.000000
20
-30.000000
11
230.000000
21
-30.000000
72
1
10
230.000000
20
-30.000000
11
230.000000
21
-40.000000
72
1
10
230.000000
20
-40.000000
11
220.000000
21
-40.000000
97
0
75
0
76
0
98
0
0
HATCH
5
D8
100
AcDbEntity
67
0
8
0
6
Continuous
62
238
370
0
100
AcDbHatch
10
0.000000
20
0.000000
30
0.000000
210
0.000000
220
0.000000
230
1.000000
2
SOLID
70
1
71
0
91
1
92
0
93
4
72
1
10
230.000000
20
-40.000000
11
230.000000
21
-30.000000
72
1
10
230.000000
20
-30.000000
11
240.000000
21
-30.000000
72
1
10
240.000000
20
-30.000000
11
240.000000
21
-40.000000
72
1
10
240.000000
20
-40.000000
11
230.000000
21
-40.000000
97
0
75
0
76
0
98
0
0
HATCH
5
D9
100
AcDbEntity
67
0
8
0
6
Continuous
62
248
370
0
100
AcDbHatch
10
0.000000
20
0.000000
30
0.000000
210
0.000000
220
0.000000
230
1.000000
2
SOLID
70
1
71
0
91
1
92
0
93
4
72
1
10
240.000000
20
-40.000000
11
240.000000
21
-30.000000
72
1
10
240.000000
20
-30.000000
11
250.000000
21
-30.000000
72
1
10
250.000000
20
-30.000000
11
250.000000
21
-40.000000
72
1
10
250.000000
20
-40.000000
11
240.000000
21
-40.000000
97
0
75
0
76
0
98
0
0
HATCH
5
DA
100
AcDbEntity
67
0
8
0
6
Continuous
62
11
370
0
100
AcDbHatch
10
0.000000
20
0.000000
30
0.000000
210
0.000000
220
0.000000
230
1.000000
2
SOLID
70
1
71
0
91
1
92
0
93
4
72
1
10
10.000000
20
10.000000
11
10.000000
21
20.000000
72
1
10
10.000000
20
20.000000
11
20.000000
21
20.000000
72
1
10
20.000000
20
20.000000
11
20.000000
21
10.000000
72
1
10
20.000000
20
10.000000
11
10.000000
21
10.000000
97
0
75
0
76
0
98
0
0
HATCH
5
DB
100
AcDbEntity
67
0
8
0
6
Continuous
62
21
370
0
100
AcDbHatch
10
0.000000
20
0.000000
30
0.000000
210
0.000000
220
0.000000
230
1.000000
2
SOLID
70
1
71
0
91
1
92
0
93
4
72
1
10
20.000000
20
10.000000
11
20.000000
21
20.000000
72
1
10
20.000000
20
20.000000
11
30.000000
21
20.000000
72
1
10
30.000000
20
20.000000
11
30.000000
21
10.000000
72
1
10
30.000000
20
10.000000
11
20.000000
21
10.000000
97
0
75
0
76
0
98
0
0
HATCH
5
DC
100
AcDbEntity
67
0
8
0
6
Continuous
62
31
370
0
100
AcDbHatch
10
0.000000
20
0.000000
30
0.000000
210
0.000000
220
0.000000
230
1.000000
2
SOLID
70
1
71
0
91
1
92
0
93
4
72
1
10
30.000000
20
10.000000
11
30.000000
21
20.000000
72
1
10
30.000000
20
20.000000
11
40.000000
21
20.000000
72
1
10
40.000000
20
20.000000
11
40.000000
21
10.000000
72
1
10
40.000000
20
10.000000
11
30.000000
21
10.000000
97
0
75
0
76
0
98
0
0
HATCH
5
DD
100
AcDbEntity
67
0
8
0
6
Continuous
62
41
370
0
100
AcDbHatch
10
0.000000
20
0.000000
30
0.000000
210
0.000000
220
0.000000
230
1.000000
2
SOLID
70
1
71
0
91
1
92
0
93
4
72
1
10
40.000000
20
10.000000
11
40.000000
21
20.000000
72
1
10
40.000000
20
20.000000
11
50.000000
21
20.000000
72
1
10
50.000000
20
20.000000
11
50.000000
21
10.000000
72
1
10
50.000000
20
10.000000
11
40.000000
21
10.000000
97
0
75
0
76
0
98
0
0
HATCH
5
DE
100
AcDbEntity
67
0
8
0
6
Continuous
62
51
370
0
100
AcDbHatch
10
0.000000
20
0.000000
30
0.000000
210
0.000000
220
0.000000
230
1.000000
2
SOLID
70
1
71
0
91
1
92
0
93
4
72
1
10
50.000000
20
10.000000
11
50.000000
21
20.000000
72
1
10
50.000000
20
20.000000
11
60.000000
21
20.000000
72
1
10
60.000000
20
20.000000
11
60.000000
21
10.000000
72
1
10
60.000000
20
10.000000
11
50.000000
21
10.000000
97
0
75
0
76
0
98
0
0
HATCH
5
DF
100
AcDbEntity
67
0
8
0
6
Continuous
62
61
370
0
100
AcDbHatch
10
0.000000
20
0.000000
30
0.000000
210
0.000000
220
0.000000
230
1.000000
2
SOLID
70
1
71
0
91
1
92
0
93
4
72
1
10
60.000000
20
10.000000
11
60.000000
21
20.000000
72
1
10
60.000000
20
20.000000
11
70.000000
21
20.000000
72
1
10
70.000000
20
20.000000
11
70.000000
21
10.000000
72
1
10
70.000000
20
10.000000
11
60.000000
21
10.000000
97
0
75
0
76
0
98
0
0
HATCH
5
E0
100
AcDbEntity
67
0
8
0
6
Continuous
62
71
370
0
100
AcDbHatch
10
0.000000
20
0.000000
30
0.000000
210
0.000000
220
0.000000
230
1.000000
2
SOLID
70
1
71
0
91
1
92
0
93
4
72
1
10
70.000000
20
10.000000
11
70.000000
21
20.000000
72
1
10
70.000000
20
20.000000
11
80.000000
21
20.000000
72
1
10
80.000000
20
20.000000
11
80.000000
21
10.000000
72
1
10
80.000000
20
10.000000
11
70.000000
21
10.000000
97
0
75
0
76
0
98
0
0
HATCH
5
E1
100
AcDbEntity
67
0
8
0
6
Continuous
62
81
370
0
100
AcDbHatch
10
0.000000
20
0.000000
30
0.000000
210
0.000000
220
0.000000
230
1.000000
2
SOLID
70
1
71
0
91
1
92
0
93
4
72
1
10
80.000000
20
10.000000
11
80.000000
21
20.000000
72
1
10
80.000000
20
20.000000
11
90.000000
21
20.000000
72
1
10
90.000000
20
20.000000
11
90.000000
21
10.000000
72
1
10
90.000000
20
10.000000
11
80.000000
21
10.000000
97
0
75
0
76
0
98
0
0
HATCH
5
E2
100
AcDbEntity
67
0
8
0
6
Continuous
62
91
370
0
100
AcDbHatch
10
0.000000
20
0.000000
30
0.000000
210
0.000000
220
0.000000
230
1.000000
2
SOLID
70
1
71
0
91
1
92
0
93
4
72
1
10
90.000000
20
10.000000
11
90.000000
21
20.000000
72
1
10
90.000000
20
20.000000
11
100.000000
21
20.000000
72
1
10
100.000000
20
20.000000
11
100.000000
21
10.000000
72
1
10
100.000000
20
10.000000
11
90.000000
21
10.000000
97
0
75
0
76
0
98
0
0
HATCH
5
E3
100
AcDbEntity
67
0
8
0
6
Continuous
62
101
370
0
100
AcDbHatch
10
0.000000
20
0.000000
30
0.000000
210
0.000000
220
0.000000
230
1.000000
2
SOLID
70
1
71
0
91
1
92
0
93
4
72
1
10
100.000000
20
10.000000
11
100.000000
21
20.000000
72
1
10
100.000000
20
20.000000
11
110.000000
21
20.000000
72
1
10
110.000000
20
20.000000
11
110.000000
21
10.000000
72
1
10
110.000000
20
10.000000
11
100.000000
21
10.000000
97
0
75
0
76
0
98
0
0
HATCH
5
E4
100
AcDbEntity
67
0
8
0
6
Continuous
62
111
370
0
100
AcDbHatch
10
0.000000
20
0.000000
30
0.000000
210
0.000000
220
0.000000
230
1.000000
2
SOLID
70
1
71
0
91
1
92
0
93
4
72
1
10
110.000000
20
10.000000
11
110.000000
21
20.000000
72
1
10
110.000000
20
20.000000
11
120.000000
21
20.000000
72
1
10
120.000000
20
20.000000
11
120.000000
21
10.000000
72
1
10
120.000000
20
10.000000
11
110.000000
21
10.000000
97
0
75
0
76
0
98
0
0
HATCH
5
E5
100
AcDbEntity
67
0
8
0
6
Continuous
62
121
370
0
100
AcDbHatch
10
0.000000
20
0.000000
30
0.000000
210
0.000000
220
0.000000
230
1.000000
2
SOLID
70
1
71
0
91
1
92
0
93
4
72
1
10
120.000000
20
10.000000
11
120.000000
21
20.000000
72
1
10
120.000000
20
20.000000
11
130.000000
21
20.000000
72
1
10
130.000000
20
20.000000
11
130.000000
21
10.000000
72
1
10
130.000000
20
10.000000
11
120.000000
21
10.000000
97
0
75
0
76
0
98
0
0
HATCH
5
E6
100
AcDbEntity
67
0
8
0
6
Continuous
62
131
370
0
100
AcDbHatch
10
0.000000
20
0.000000
30
0.000000
210
0.000000
220
0.000000
230
1.000000
2
SOLID
70
1
71
0
91
1
92
0
93
4
72
1
10
130.000000
20
10.000000
11
130.000000
21
20.000000
72
1
10
130.000000
20
20.000000
11
140.000000
21
20.000000
72
1
10
140.000000
20
20.000000
11
140.000000
21
10.000000
72
1
10
140.000000
20
10.000000
11
130.000000
21
10.000000
97
0
75
0
76
0
98
0
0
HATCH
5
E7
100
AcDbEntity
67
0
8
0
6
Continuous
62
141
370
0
100
AcDbHatch
10
0.000000
20
0.000000
30
0.000000
210
0.000000
220
0.000000
230
1.000000
2
SOLID
70
1
71
0
91
1
92
0
93
4
72
1
10
140.000000
20
10.000000
11
140.000000
21
20.000000
72
1
10
140.000000
20
20.000000
11
150.000000
21
20.000000
72
1
10
150.000000
20
20.000000
11
150.000000
21
10.000000
72
1
10
150.000000
20
10.000000
11
140.000000
21
10.000000
97
0
75
0
76
0
98
0
0
HATCH
5
E8
100
AcDbEntity
67
0
8
0
6
Continuous
62
151
370
0
100
AcDbHatch
10
0.000000
20
0.000000
30
0.000000
210
0.000000
220
0.000000
230
1.000000
2
SOLID
70
1
71
0
91
1
92
0
93
4
72
1
10
150.000000
20
10.000000
11
150.000000
21
20.000000
72
1
10
150.000000
20
20.000000
11
160.000000
21
20.000000
72
1
10
160.000000
20
20.000000
11
160.000000
21
10.000000
72
1
10
160.000000
20
10.000000
11
150.000000
21
10.000000
97
0
75
0
76
0
98
0
0
HATCH
5
E9
100
AcDbEntity
67
0
8
0
6
Continuous
62
161
370
0
100
AcDbHatch
10
0.000000
20
0.000000
30
0.000000
210
0.000000
220
0.000000
230
1.000000
2
SOLID
70
1
71
0
91
1
92
0
93
4
72
1
10
160.000000
20
10.000000
11
160.000000
21
20.000000
72
1
10
160.000000
20
20.000000
11
170.000000
21
20.000000
72
1
10
170.000000
20
20.000000
11
170.000000
21
10.000000
72
1
10
170.000000
20
10.000000
11
160.000000
21
10.000000
97
0
75
0
76
0
98
0
0
HATCH
5
EA
100
AcDbEntity
67
0
8
0
6
Continuous
62
171
370
0
100
AcDbHatch
10
0.000000
20
0.000000
30
0.000000
210
0.000000
220
0.000000
230
1.000000
2
SOLID
70
1
71
0
91
1
92
0
93
4
72
1
10
170.000000
20
10.000000
11
170.000000
21
20.000000
72
1
10
170.000000
20
20.000000
11
180.000000
21
20.000000
72
1
10
180.000000
20
20.000000
11
180.000000
21
10.000000
72
1
10
180.000000
20
10.000000
11
170.000000
21
10.000000
97
0
75
0
76
0
98
0
0
HATCH
5
EB
100
AcDbEntity
67
0
8
0
6
Continuous
62
181
370
0
100
AcDbHatch
10
0.000000
20
0.000000
30
0.000000
210
0.000000
220
0.000000
230
1.000000
2
SOLID
70
1
71
0
91
1
92
0
93
4
72
1
10
180.000000
20
10.000000
11
180.000000
21
20.000000
72
1
10
180.000000
20
20.000000
11
190.000000
21
20.000000
72
1
10
190.000000
20
20.000000
11
190.000000
21
10.000000
72
1
10
190.000000
20
10.000000
11
180.000000
21
10.000000
97
0
75
0
76
0
98
0
0
HATCH
5
EC
100
AcDbEntity
67
0
8
0
6
Continuous
62
191
370
0
100
AcDbHatch
10
0.000000
20
0.000000
30
0.000000
210
0.000000
220
0.000000
230
1.000000
2
SOLID
70
1
71
0
91
1
92
0
93
4
72
1
10
190.000000
20
10.000000
11
190.000000
21
20.000000
72
1
10
190.000000
20
20.000000
11
200.000000
21
20.000000
72
1
10
200.000000
20
20.000000
11
200.000000
21
10.000000
72
1
10
200.000000
20
10.000000
11
190.000000
21
10.000000
97
0
75
0
76
0
98
0
0
HATCH
5
ED
100
AcDbEntity
67
0
8
0
6
Continuous
62
201
370
0
100
AcDbHatch
10
0.000000
20
0.000000
30
0.000000
210
0.000000
220
0.000000
230
1.000000
2
SOLID
70
1
71
0
91
1
92
0
93
4
72
1
10
200.000000
20
10.000000
11
200.000000
21
20.000000
72
1
10
200.000000
20
20.000000
11
210.000000
21
20.000000
72
1
10
210.000000
20
20.000000
11
210.000000
21
10.000000
72
1
10
210.000000
20
10.000000
11
200.000000
21
10.000000
97
0
75
0
76
0
98
0
0
HATCH
5
EE
100
AcDbEntity
67
0
8
0
6
Continuous
62
211
370
0
100
AcDbHatch
10
0.000000
20
0.000000
30
0.000000
210
0.000000
220
0.000000
230
1.000000
2
SOLID
70
1
71
0
91
1
92
0
93
4
72
1
10
210.000000
20
10.000000
11
210.000000
21
20.000000
72
1
10
210.000000
20
20.000000
11
220.000000
21
20.000000
72
1
10
220.000000
20
20.000000
11
220.000000
21
10.000000
72
1
10
220.000000
20
10.000000
11
210.000000
21
10.000000
97
0
75
0
76
0
98
0
0
HATCH
5
EF
100
AcDbEntity
67
0
8
0
6
Continuous
62
221
370
0
100
AcDbHatch
10
0.000000
20
0.000000
30
0.000000
210
0.000000
220
0.000000
230
1.000000
2
SOLID
70
1
71
0
91
1
92
0
93
4
72
1
10
220.000000
20
10.000000
11
220.000000
21
20.000000
72
1
10
220.000000
20
20.000000
11
230.000000
21
20.000000
72
1
10
230.000000
20
20.000000
11
230.000000
21
10.000000
72
1
10
230.000000
20
10.000000
11
220.000000
21
10.000000
97
0
75
0
76
0
98
0
0
HATCH
5
F0
100
AcDbEntity
67
0
8
0
6
Continuous
62
231
370
0
100
AcDbHatch
10
0.000000
20
0.000000
30
0.000000
210
0.000000
220
0.000000
230
1.000000
2
SOLID
70
1
71
0
91
1
92
0
93
4
72
1
10
230.000000
20
10.000000
11
230.000000
21
20.000000
72
1
10
230.000000
20
20.000000
11
240.000000
21
20.000000
72
1
10
240.000000
20
20.000000
11
240.000000
21
10.000000
72
1
10
240.000000
20
10.000000
11
230.000000
21
10.000000
97
0
75
0
76
0
98
0
0
HATCH
5
F1
100
AcDbEntity
67
0
8
0
6
Continuous
62
241
370
0
100
AcDbHatch
10
0.000000
20
0.000000
30
0.000000
210
0.000000
220
0.000000
230
1.000000
2
SOLID
70
1
71
0
91
1
92
0
93
4
72
1
10
240.000000
20
10.000000
11
240.000000
21
20.000000
72
1
10
240.000000
20
20.000000
11
250.000000
21
20.000000
72
1
10
250.000000
20
20.000000
11
250.000000
21
10.000000
72
1
10
250.000000
20
10.000000
11
240.000000
21
10.000000
97
0
75
0
76
0
98
0
0
HATCH
5
F2
100
AcDbEntity
67
0
8
0
6
Continuous
62
13
370
0
100
AcDbHatch
10
0.000000
20
0.000000
30
0.000000
210
0.000000
220
0.000000
230
1.000000
2
SOLID
70
1
71
0
91
1
92
0
93
4
72
1
10
10.000000
20
20.000000
11
10.000000
21
30.000000
72
1
10
10.000000
20
30.000000
11
20.000000
21
30.000000
72
1
10
20.000000
20
30.000000
11
20.000000
21
20.000000
72
1
10
20.000000
20
20.000000
11
10.000000
21
20.000000
97
0
75
0
76
0
98
0
0
HATCH
5
F3
100
AcDbEntity
67
0
8
0
6
Continuous
62
23
370
0
100
AcDbHatch
10
0.000000
20
0.000000
30
0.000000
210
0.000000
220
0.000000
230
1.000000
2
SOLID
70
1
71
0
91
1
92
0
93
4
72
1
10
20.000000
20
20.000000
11
20.000000
21
30.000000
72
1
10
20.000000
20
30.000000
11
30.000000
21
30.000000
72
1
10
30.000000
20
30.000000
11
30.000000
21
20.000000
72
1
10
30.000000
20
20.000000
11
20.000000
21
20.000000
97
0
75
0
76
0
98
0
0
HATCH
5
F4
100
AcDbEntity
67
0
8
0
6
Continuous
62
33
370
0
100
AcDbHatch
10
0.000000
20
0.000000
30
0.000000
210
0.000000
220
0.000000
230
1.000000
2
SOLID
70
1
71
0
91
1
92
0
93
4
72
1
10
30.000000
20
20.000000
11
30.000000
21
30.000000
72
1
10
30.000000
20
30.000000
11
40.000000
21
30.000000
72
1
10
40.000000
20
30.000000
11
40.000000
21
20.000000
72
1
10
40.000000
20
20.000000
11
30.000000
21
20.000000
97
0
75
0
76
0
98
0
0
HATCH
5
F5
100
AcDbEntity
67
0
8
0
6
Continuous
62
43
370
0
100
AcDbHatch
10
0.000000
20
0.000000
30
0.000000
210
0.000000
220
0.000000
230
1.000000
2
SOLID
70
1
71
0
91
1
92
0
93
4
72
1
10
40.000000
20
20.000000
11
40.000000
21
30.000000
72
1
10
40.000000
20
30.000000
11
50.000000
21
30.000000
72
1
10
50.000000
20
30.000000
11
50.000000
21
20.000000
72
1
10
50.000000
20
20.000000
11
40.000000
21
20.000000
97
0
75
0
76
0
98
0
0
HATCH
5
F6
100
AcDbEntity
67
0
8
0
6
Continuous
62
53
370
0
100
AcDbHatch
10
0.000000
20
0.000000
30
0.000000
210
0.000000
220
0.000000
230
1.000000
2
SOLID
70
1
71
0
91
1
92
0
93
4
72
1
10
50.000000
20
20.000000
11
50.000000
21
30.000000
72
1
10
50.000000
20
30.000000
11
60.000000
21
30.000000
72
1
10
60.000000
20
30.000000
11
60.000000
21
20.000000
72
1
10
60.000000
20
20.000000
11
50.000000
21
20.000000
97
0
75
0
76
0
98
0
0
HATCH
5
F7
100
AcDbEntity
67
0
8
0
6
Continuous
62
63
370
0
100
AcDbHatch
10
0.000000
20
0.000000
30
0.000000
210
0.000000
220
0.000000
230
1.000000
2
SOLID
70
1
71
0
91
1
92
0
93
4
72
1
10
60.000000
20
20.000000
11
60.000000
21
30.000000
72
1
10
60.000000
20
30.000000
11
70.000000
21
30.000000
72
1
10
70.000000
20
30.000000
11
70.000000
21
20.000000
72
1
10
70.000000
20
20.000000
11
60.000000
21
20.000000
97
0
75
0
76
0
98
0
0
HATCH
5
F8
100
AcDbEntity
67
0
8
0
6
Continuous
62
73
370
0
100
AcDbHatch
10
0.000000
20
0.000000
30
0.000000
210
0.000000
220
0.000000
230
1.000000
2
SOLID
70
1
71
0
91
1
92
0
93
4
72
1
10
70.000000
20
20.000000
11
70.000000
21
30.000000
72
1
10
70.000000
20
30.000000
11
80.000000
21
30.000000
72
1
10
80.000000
20
30.000000
11
80.000000
21
20.000000
72
1
10
80.000000
20
20.000000
11
70.000000
21
20.000000
97
0
75
0
76
0
98
0
0
HATCH
5
F9
100
AcDbEntity
67
0
8
0
6
Continuous
62
83
370
0
100
AcDbHatch
10
0.000000
20
0.000000
30
0.000000
210
0.000000
220
0.000000
230
1.000000
2
SOLID
70
1
71
0
91
1
92
0
93
4
72
1
10
80.000000
20
20.000000
11
80.000000
21
30.000000
72
1
10
80.000000
20
30.000000
11
90.000000
21
30.000000
72
1
10
90.000000
20
30.000000
11
90.000000
21
20.000000
72
1
10
90.000000
20
20.000000
11
80.000000
21
20.000000
97
0
75
0
76
0
98
0
0
HATCH
5
FA
100
AcDbEntity
67
0
8
0
6
Continuous
62
93
370
0
100
AcDbHatch
10
0.000000
20
0.000000
30
0.000000
210
0.000000
220
0.000000
230
1.000000
2
SOLID
70
1
71
0
91
1
92
0
93
4
72
1
10
90.000000
20
20.000000
11
90.000000
21
30.000000
72
1
10
90.000000
20
30.000000
11
100.000000
21
30.000000
72
1
10
100.000000
20
30.000000
11
100.000000
21
20.000000
72
1
10
100.000000
20
20.000000
11
90.000000
21
20.000000
97
0
75
0
76
0
98
0
0
HATCH
5
FB
100
AcDbEntity
67
0
8
0
6
Continuous
62
103
370
0
100
AcDbHatch
10
0.000000
20
0.000000
30
0.000000
210
0.000000
220
0.000000
230
1.000000
2
SOLID
70
1
71
0
91
1
92
0
93
4
72
1
10
100.000000
20
20.000000
11
100.000000
21
30.000000
72
1
10
100.000000
20
30.000000
11
110.000000
21
30.000000
72
1
10
110.000000
20
30.000000
11
110.000000
21
20.000000
72
1
10
110.000000
20
20.000000
11
100.000000
21
20.000000
97
0
75
0
76
0
98
0
0
HATCH
5
FC
100
AcDbEntity
67
0
8
0
6
Continuous
62
113
370
0
100
AcDbHatch
10
0.000000
20
0.000000
30
0.000000
210
0.000000
220
0.000000
230
1.000000
2
SOLID
70
1
71
0
91
1
92
0
93
4
72
1
10
110.000000
20
20.000000
11
110.000000
21
30.000000
72
1
10
110.000000
20
30.000000
11
120.000000
21
30.000000
72
1
10
120.000000
20
30.000000
11
120.000000
21
20.000000
72
1
10
120.000000
20
20.000000
11
110.000000
21
20.000000
97
0
75
0
76
0
98
0
0
HATCH
5
FD
100
AcDbEntity
67
0
8
0
6
Continuous
62
123
370
0
100
AcDbHatch
10
0.000000
20
0.000000
30
0.000000
210
0.000000
220
0.000000
230
1.000000
2
SOLID
70
1
71
0
91
1
92
0
93
4
72
1
10
120.000000
20
20.000000
11
120.000000
21
30.000000
72
1
10
120.000000
20
30.000000
11
130.000000
21
30.000000
72
1
10
130.000000
20
30.000000
11
130.000000
21
20.000000
72
1
10
130.000000
20
20.000000
11
120.000000
21
20.000000
97
0
75
0
76
0
98
0
0
HATCH
5
FE
100
AcDbEntity
67
0
8
0
6
Continuous
62
133
370
0
100
AcDbHatch
10
0.000000
20
0.000000
30
0.000000
210
0.000000
220
0.000000
230
1.000000
2
SOLID
70
1
71
0
91
1
92
0
93
4
72
1
10
130.000000
20
20.000000
11
130.000000
21
30.000000
72
1
10
130.000000
20
30.000000
11
140.000000
21
30.000000
72
1
10
140.000000
20
30.000000
11
140.000000
21
20.000000
72
1
10
140.000000
20
20.000000
11
130.000000
21
20.000000
97
0
75
0
76
0
98
0
0
HATCH
5
FF
100
AcDbEntity
67
0
8
0
6
Continuous
62
143
370
0
100
AcDbHatch
10
0.000000
20
0.000000
30
0.000000
210
0.000000
220
0.000000
230
1.000000
2
SOLID
70
1
71
0
91
1
92
0
93
4
72
1
10
140.000000
20
20.000000
11
140.000000
21
30.000000
72
1
10
140.000000
20
30.000000
11
150.000000
21
30.000000
72
1
10
150.000000
20
30.000000
11
150.000000
21
20.000000
72
1
10
150.000000
20
20.000000
11
140.000000
21
20.000000
97
0
75
0
76
0
98
0
0
HATCH
5
100
100
AcDbEntity
67
0
8
0
6
Continuous
62
153
370
0
100
AcDbHatch
10
0.000000
20
0.000000
30
0.000000
210
0.000000
220
0.000000
230
1.000000
2
SOLID
70
1
71
0
91
1
92
0
93
4
72
1
10
150.000000
20
20.000000
11
150.000000
21
30.000000
72
1
10
150.000000
20
30.000000
11
160.000000
21
30.000000
72
1
10
160.000000
20
30.000000
11
160.000000
21
20.000000
72
1
10
160.000000
20
20.000000
11
150.000000
21
20.000000
97
0
75
0
76
0
98
0
0
HATCH
5
101
100
AcDbEntity
67
0
8
0
6
Continuous
62
163
370
0
100
AcDbHatch
10
0.000000
20
0.000000
30
0.000000
210
0.000000
220
0.000000
230
1.000000
2
SOLID
70
1
71
0
91
1
92
0
93
4
72
1
10
160.000000
20
20.000000
11
160.000000
21
30.000000
72
1
10
160.000000
20
30.000000
11
170.000000
21
30.000000
72
1
10
170.000000
20
30.000000
11
170.000000
21
20.000000
72
1
10
170.000000
20
20.000000
11
160.000000
21
20.000000
97
0
75
0
76
0
98
0
0
HATCH
5
102
100
AcDbEntity
67
0
8
0
6
Continuous
62
173
370
0
100
AcDbHatch
10
0.000000
20
0.000000
30
0.000000
210
0.000000
220
0.000000
230
1.000000
2
SOLID
70
1
71
0
91
1
92
0
93
4
72
1
10
170.000000
20
20.000000
11
170.000000
21
30.000000
72
1
10
170.000000
20
30.000000
11
180.000000
21
30.000000
72
1
10
180.000000
20
30.000000
11
180.000000
21
20.000000
72
1
10
180.000000
20
20.000000
11
170.000000
21
20.000000
97
0
75
0
76
0
98
0
0
HATCH
5
103
100
AcDbEntity
67
0
8
0
6
Continuous
62
183
370
0
100
AcDbHatch
10
0.000000
20
0.000000
30
0.000000
210
0.000000
220
0.000000
230
1.000000
2
SOLID
70
1
71
0
91
1
92
0
93
4
72
1
10
180.000000
20
20.000000
11
180.000000
21
30.000000
72
1
10
180.000000
20
30.000000
11
190.000000
21
30.000000
72
1
10
190.000000
20
30.000000
11
190.000000
21
20.000000
72
1
10
190.000000
20
20.000000
11
180.000000
21
20.000000
97
0
75
0
76
0
98
0
0
HATCH
5
104
100
AcDbEntity
67
0
8
0
6
Continuous
62
193
370
0
100
AcDbHatch
10
0.000000
20
0.000000
30
0.000000
210
0.000000
220
0.000000
230
1.000000
2
SOLID
70
1
71
0
91
1
92
0
93
4
72
1
10
190.000000
20
20.000000
11
190.000000
21
30.000000
72
1
10
190.000000
20
30.000000
11
200.000000
21
30.000000
72
1
10
200.000000
20
30.000000
11
200.000000
21
20.000000
72
1
10
200.000000
20
20.000000
11
190.000000
21
20.000000
97
0
75
0
76
0
98
0
0
HATCH
5
105
100
AcDbEntity
67
0
8
0
6
Continuous
62
203
370
0
100
AcDbHatch
10
0.000000
20
0.000000
30
0.000000
210
0.000000
220
0.000000
230
1.000000
2
SOLID
70
1
71
0
91
1
92
0
93
4
72
1
10
200.000000
20
20.000000
11
200.000000
21
30.000000
72
1
10
200.000000
20
30.000000
11
210.000000
21
30.000000
72
1
10
210.000000
20
30.000000
11
210.000000
21
20.000000
72
1
10
210.000000
20
20.000000
11
200.000000
21
20.000000
97
0
75
0
76
0
98
0
0
HATCH
5
106
100
AcDbEntity
67
0
8
0
6
Continuous
62
213
370
0
100
AcDbHatch
10
0.000000
20
0.000000
30
0.000000
210
0.000000
220
0.000000
230
1.000000
2
SOLID
70
1
71
0
91
1
92
0
93
4
72
1
10
210.000000
20
20.000000
11
210.000000
21
30.000000
72
1
10
210.000000
20
30.000000
11
220.000000
21
30.000000
72
1
10
220.000000
20
30.000000
11
220.000000
21
20.000000
72
1
10
220.000000
20
20.000000
11
210.000000
21
20.000000
97
0
75
0
76
0
98
0
0
HATCH
5
107
100
AcDbEntity
67
0
8
0
6
Continuous
62
223
370
0
100
AcDbHatch
10
0.000000
20
0.000000
30
0.000000
210
0.000000
220
0.000000
230
1.000000
2
SOLID
70
1
71
0
91
1
92
0
93
4
72
1
10
220.000000
20
20.000000
11
220.000000
21
30.000000
72
1
10
220.000000
20
30.000000
11
230.000000
21
30.000000
72
1
10
230.000000
20
30.000000
11
230.000000
21
20.000000
72
1
10
230.000000
20
20.000000
11
220.000000
21
20.000000
97
0
75
0
76
0
98
0
0
HATCH
5
108
100
AcDbEntity
67
0
8
0
6
Continuous
62
233
370
0
100
AcDbHatch
10
0.000000
20
0.000000
30
0.000000
210
0.000000
220
0.000000
230
1.000000
2
SOLID
70
1
71
0
91
1
92
0
93
4
72
1
10
230.000000
20
20.000000
11
230.000000
21
30.000000
72
1
10
230.000000
20
30.000000
11
240.000000
21
30.000000
72
1
10
240.000000
20
30.000000
11
240.000000
21
20.000000
72
1
10
240.000000
20
20.000000
11
230.000000
21
20.000000
97
0
75
0
76
0
98
0
0
HATCH
5
109
100
AcDbEntity
67
0
8
0
6
Continuous
62
243
370
0
100
AcDbHatch
10
0.000000
20
0.000000
30
0.000000
210
0.000000
220
0.000000
230
1.000000
2
SOLID
70
1
71
0
91
1
92
0
93
4
72
1
10
240.000000
20
20.000000
11
240.000000
21
30.000000
72
1
10
240.000000
20
30.000000
11
250.000000
21
30.000000
72
1
10
250.000000
20
30.000000
11
250.000000
21
20.000000
72
1
10
250.000000
20
20.000000
11
240.000000
21
20.000000
97
0
75
0
76
0
98
0
0
HATCH
5
10A
100
AcDbEntity
67
0
8
0
6
Continuous
62
15
370
0
100
AcDbHatch
10
0.000000
20
0.000000
30
0.000000
210
0.000000
220
0.000000
230
1.000000
2
SOLID
70
1
71
0
91
1
92
0
93
4
72
1
10
10.000000
20
30.000000
11
10.000000
21
40.000000
72
1
10
10.000000
20
40.000000
11
20.000000
21
40.000000
72
1
10
20.000000
20
40.000000
11
20.000000
21
30.000000
72
1
10
20.000000
20
30.000000
11
10.000000
21
30.000000
97
0
75
0
76
0
98
0
0
HATCH
5
10B
100
AcDbEntity
67
0
8
0
6
Continuous
62
25
370
0
100
AcDbHatch
10
0.000000
20
0.000000
30
0.000000
210
0.000000
220
0.000000
230
1.000000
2
SOLID
70
1
71
0
91
1
92
0
93
4
72
1
10
20.000000
20
30.000000
11
20.000000
21
40.000000
72
1
10
20.000000
20
40.000000
11
30.000000
21
40.000000
72
1
10
30.000000
20
40.000000
11
30.000000
21
30.000000
72
1
10
30.000000
20
30.000000
11
20.000000
21
30.000000
97
0
75
0
76
0
98
0
0
HATCH
5
10C
100
AcDbEntity
67
0
8
0
6
Continuous
62
35
370
0
100
AcDbHatch
10
0.000000
20
0.000000
30
0.000000
210
0.000000
220
0.000000
230
1.000000
2
SOLID
70
1
71
0
91
1
92
0
93
4
72
1
10
30.000000
20
30.000000
11
30.000000
21
40.000000
72
1
10
30.000000
20
40.000000
11
40.000000
21
40.000000
72
1
10
40.000000
20
40.000000
11
40.000000
21
30.000000
72
1
10
40.000000
20
30.000000
11
30.000000
21
30.000000
97
0
75
0
76
0
98
0
0
HATCH
5
10D
100
AcDbEntity
67
0
8
0
6
Continuous
62
45
370
0
100
AcDbHatch
10
0.000000
20
0.000000
30
0.000000
210
0.000000
220
0.000000
230
1.000000
2
SOLID
70
1
71
0
91
1
92
0
93
4
72
1
10
40.000000
20
30.000000
11
40.000000
21
40.000000
72
1
10
40.000000
20
40.000000
11
50.000000
21
40.000000
72
1
10
50.000000
20
40.000000
11
50.000000
21
30.000000
72
1
10
50.000000
20
30.000000
11
40.000000
21
30.000000
97
0
75
0
76
0
98
0
0
HATCH
5
10E
100
AcDbEntity
67
0
8
0
6
Continuous
62
55
370
0
100
AcDbHatch
10
0.000000
20
0.000000
30
0.000000
210
0.000000
220
0.000000
230
1.000000
2
SOLID
70
1
71
0
91
1
92
0
93
4
72
1
10
50.000000
20
30.000000
11
50.000000
21
40.000000
72
1
10
50.000000
20
40.000000
11
60.000000
21
40.000000
72
1
10
60.000000
20
40.000000
11
60.000000
21
30.000000
72
1
10
60.000000
20
30.000000
11
50.000000
21
30.000000
97
0
75
0
76
0
98
0
0
HATCH
5
10F
100
AcDbEntity
67
0
8
0
6
Continuous
62
65
370
0
100
AcDbHatch
10
0.000000
20
0.000000
30
0.000000
210
0.000000
220
0.000000
230
1.000000
2
SOLID
70
1
71
0
91
1
92
0
93
4
72
1
10
60.000000
20
30.000000
11
60.000000
21
40.000000
72
1
10
60.000000
20
40.000000
11
70.000000
21
40.000000
72
1
10
70.000000
20
40.000000
11
70.000000
21
30.000000
72
1
10
70.000000
20
30.000000
11
60.000000
21
30.000000
97
0
75
0
76
0
98
0
0
HATCH
5
110
100
AcDbEntity
67
0
8
0
6
Continuous
62
75
370
0
100
AcDbHatch
10
0.000000
20
0.000000
30
0.000000
210
0.000000
220
0.000000
230
1.000000
2
SOLID
70
1
71
0
91
1
92
0
93
4
72
1
10
70.000000
20
30.000000
11
70.000000
21
40.000000
72
1
10
70.000000
20
40.000000
11
80.000000
21
40.000000
72
1
10
80.000000
20
40.000000
11
80.000000
21
30.000000
72
1
10
80.000000
20
30.000000
11
70.000000
21
30.000000
97
0
75
0
76
0
98
0
0
HATCH
5
111
100
AcDbEntity
67
0
8
0
6
Continuous
62
85
370
0
100
AcDbHatch
10
0.000000
20
0.000000
30
0.000000
210
0.000000
220
0.000000
230
1.000000
2
SOLID
70
1
71
0
91
1
92
0
93
4
72
1
10
80.000000
20
30.000000
11
80.000000
21
40.000000
72
1
10
80.000000
20
40.000000
11
90.000000
21
40.000000
72
1
10
90.000000
20
40.000000
11
90.000000
21
30.000000
72
1
10
90.000000
20
30.000000
11
80.000000
21
30.000000
97
0
75
0
76
0
98
0
0
HATCH
5
112
100
AcDbEntity
67
0
8
0
6
Continuous
62
95
370
0
100
AcDbHatch
10
0.000000
20
0.000000
30
0.000000
210
0.000000
220
0.000000
230
1.000000
2
SOLID
70
1
71
0
91
1
92
0
93
4
72
1
10
90.000000
20
30.000000
11
90.000000
21
40.000000
72
1
10
90.000000
20
40.000000
11
100.000000
21
40.000000
72
1
10
100.000000
20
40.000000
11
100.000000
21
30.000000
72
1
10
100.000000
20
30.000000
11
90.000000
21
30.000000
97
0
75
0
76
0
98
0
0
HATCH
5
113
100
AcDbEntity
67
0
8
0
6
Continuous
62
105
370
0
100
AcDbHatch
10
0.000000
20
0.000000
30
0.000000
210
0.000000
220
0.000000
230
1.000000
2
SOLID
70
1
71
0
91
1
92
0
93
4
72
1
10
100.000000
20
30.000000
11
100.000000
21
40.000000
72
1
10
100.000000
20
40.000000
11
110.000000
21
40.000000
72
1
10
110.000000
20
40.000000
11
110.000000
21
30.000000
72
1
10
110.000000
20
30.000000
11
100.000000
21
30.000000
97
0
75
0
76
0
98
0
0
HATCH
5
114
100
AcDbEntity
67
0
8
0
6
Continuous
62
115
370
0
100
AcDbHatch
10
0.000000
20
0.000000
30
0.000000
210
0.000000
220
0.000000
230
1.000000
2
SOLID
70
1
71
0
91
1
92
0
93
4
72
1
10
110.000000
20
30.000000
11
110.000000
21
40.000000
72
1
10
110.000000
20
40.000000
11
120.000000
21
40.000000
72
1
10
120.000000
20
40.000000
11
120.000000
21
30.000000
72
1
10
120.000000
20
30.000000
11
110.000000
21
30.000000
97
0
75
0
76
0
98
0
0
HATCH
5
115
100
AcDbEntity
67
0
8
0
6
Continuous
62
125
370
0
100
AcDbHatch
10
0.000000
20
0.000000
30
0.000000
210
0.000000
220
0.000000
230
1.000000
2
SOLID
70
1
71
0
91
1
92
0
93
4
72
1
10
120.000000
20
30.000000
11
120.000000
21
40.000000
72
1
10
120.000000
20
40.000000
11
130.000000
21
40.000000
72
1
10
130.000000
20
40.000000
11
130.000000
21
30.000000
72
1
10
130.000000
20
30.000000
11
120.000000
21
30.000000
97
0
75
0
76
0
98
0
0
HATCH
5
116
100
AcDbEntity
67
0
8
0
6
Continuous
62
135
370
0
100
AcDbHatch
10
0.000000
20
0.000000
30
0.000000
210
0.000000
220
0.000000
230
1.000000
2
SOLID
70
1
71
0
91
1
92
0
93
4
72
1
10
130.000000
20
30.000000
11
130.000000
21
40.000000
72
1
10
130.000000
20
40.000000
11
140.000000
21
40.000000
72
1
10
140.000000
20
40.000000
11
140.000000
21
30.000000
72
1
10
140.000000
20
30.000000
11
130.000000
21
30.000000
97
0
75
0
76
0
98
0
0
HATCH
5
117
100
AcDbEntity
67
0
8
0
6
Continuous
62
145
370
0
100
AcDbHatch
10
0.000000
20
0.000000
30
0.000000
210
0.000000
220
0.000000
230
1.000000
2
SOLID
70
1
71
0
91
1
92
0
93
4
72
1
10
140.000000
20
30.000000
11
140.000000
21
40.000000
72
1
10
140.000000
20
40.000000
11
150.000000
21
40.000000
72
1
10
150.000000
20
40.000000
11
150.000000
21
30.000000
72
1
10
150.000000
20
30.000000
11
140.000000
21
30.000000
97
0
75
0
76
0
98
0
0
HATCH
5
118
100
AcDbEntity
67
0
8
0
6
Continuous
62
155
370
0
100
AcDbHatch
10
0.000000
20
0.000000
30
0.000000
210
0.000000
220
0.000000
230
1.000000
2
SOLID
70
1
71
0
91
1
92
0
93
4
72
1
10
150.000000
20
30.000000
11
150.000000
21
40.000000
72
1
10
150.000000
20
40.000000
11
160.000000
21
40.000000
72
1
10
160.000000
20
40.000000
11
160.000000
21
30.000000
72
1
10
160.000000
20
30.000000
11
150.000000
21
30.000000
97
0
75
0
76
0
98
0
0
HATCH
5
119
100
AcDbEntity
67
0
8
0
6
Continuous
62
165
370
0
100
AcDbHatch
10
0.000000
20
0.000000
30
0.000000
210
0.000000
220
0.000000
230
1.000000
2
SOLID
70
1
71
0
91
1
92
0
93
4
72
1
10
160.000000
20
30.000000
11
160.000000
21
40.000000
72
1
10
160.000000
20
40.000000
11
170.000000
21
40.000000
72
1
10
170.000000
20
40.000000
11
170.000000
21
30.000000
72
1
10
170.000000
20
30.000000
11
160.000000
21
30.000000
97
0
75
0
76
0
98
0
0
HATCH
5
11A
100
AcDbEntity
67
0
8
0
6
Continuous
62
175
370
0
100
AcDbHatch
10
0.000000
20
0.000000
30
0.000000
210
0.000000
220
0.000000
230
1.000000
2
SOLID
70
1
71
0
91
1
92
0
93
4
72
1
10
170.000000
20
30.000000
11
170.000000
21
40.000000
72
1
10
170.000000
20
40.000000
11
180.000000
21
40.000000
72
1
10
180.000000
20
40.000000
11
180.000000
21
30.000000
72
1
10
180.000000
20
30.000000
11
170.000000
21
30.000000
97
0
75
0
76
0
98
0
0
HATCH
5
11B
100
AcDbEntity
67
0
8
0
6
Continuous
62
185
370
0
100
AcDbHatch
10
0.000000
20
0.000000
30
0.000000
210
0.000000
220
0.000000
230
1.000000
2
SOLID
70
1
71
0
91
1
92
0
93
4
72
1
10
180.000000
20
30.000000
11
180.000000
21
40.000000
72
1
10
180.000000
20
40.000000
11
190.000000
21
40.000000
72
1
10
190.000000
20
40.000000
11
190.000000
21
30.000000
72
1
10
190.000000
20
30.000000
11
180.000000
21
30.000000
97
0
75
0
76
0
98
0
0
HATCH
5
11C
100
AcDbEntity
67
0
8
0
6
Continuous
62
195
370
0
100
AcDbHatch
10
0.000000
20
0.000000
30
0.000000
210
0.000000
220
0.000000
230
1.000000
2
SOLID
70
1
71
0
91
1
92
0
93
4
72
1
10
190.000000
20
30.000000
11
190.000000
21
40.000000
72
1
10
190.000000
20
40.000000
11
200.000000
21
40.000000
72
1
10
200.000000
20
40.000000
11
200.000000
21
30.000000
72
1
10
200.000000
20
30.000000
11
190.000000
21
30.000000
97
0
75
0
76
0
98
0
0
HATCH
5
11D
100
AcDbEntity
67
0
8
0
6
Continuous
62
205
370
0
100
AcDbHatch
10
0.000000
20
0.000000
30
0.000000
210
0.000000
220
0.000000
230
1.000000
2
SOLID
70
1
71
0
91
1
92
0
93
4
72
1
10
200.000000
20
30.000000
11
200.000000
21
40.000000
72
1
10
200.000000
20
40.000000
11
210.000000
21
40.000000
72
1
10
210.000000
20
40.000000
11
210.000000
21
30.000000
72
1
10
210.000000
20
30.000000
11
200.000000
21
30.000000
97
0
75
0
76
0
98
0
0
HATCH
5
11E
100
AcDbEntity
67
0
8
0
6
Continuous
62
215
370
0
100
AcDbHatch
10
0.000000
20
0.000000
30
0.000000
210
0.000000
220
0.000000
230
1.000000
2
SOLID
70
1
71
0
91
1
92
0
93
4
72
1
10
210.000000
20
30.000000
11
210.000000
21
40.000000
72
1
10
210.000000
20
40.000000
11
220.000000
21
40.000000
72
1
10
220.000000
20
40.000000
11
220.000000
21
30.000000
72
1
10
220.000000
20
30.000000
11
210.000000
21
30.000000
97
0
75
0
76
0
98
0
0
HATCH
5
11F
100
AcDbEntity
67
0
8
0
6
Continuous
62
225
370
0
100
AcDbHatch
10
0.000000
20
0.000000
30
0.000000
210
0.000000
220
0.000000
230
1.000000
2
SOLID
70
1
71
0
91
1
92
0
93
4
72
1
10
220.000000
20
30.000000
11
220.000000
21
40.000000
72
1
10
220.000000
20
40.000000
11
230.000000
21
40.000000
72
1
10
230.000000
20
40.000000
11
230.000000
21
30.000000
72
1
10
230.000000
20
30.000000
11
220.000000
21
30.000000
97
0
75
0
76
0
98
0
0
HATCH
5
120
100
AcDbEntity
67
0
8
0
6
Continuous
62
235
370
0
100
AcDbHatch
10
0.000000
20
0.000000
30
0.000000
210
0.000000
220
0.000000
230
1.000000
2
SOLID
70
1
71
0
91
1
92
0
93
4
72
1
10
230.000000
20
30.000000
11
230.000000
21
40.000000
72
1
10
230.000000
20
40.000000
11
240.000000
21
40.000000
72
1
10
240.000000
20
40.000000
11
240.000000
21
30.000000
72
1
10
240.000000
20
30.000000
11
230.000000
21
30.000000
97
0
75
0
76
0
98
0
0
HATCH
5
121
100
AcDbEntity
67
0
8
0
6
Continuous
62
245
370
0
100
AcDbHatch
10
0.000000
20
0.000000
30
0.000000
210
0.000000
220
0.000000
230
1.000000
2
SOLID
70
1
71
0
91
1
92
0
93
4
72
1
10
240.000000
20
30.000000
11
240.000000
21
40.000000
72
1
10
240.000000
20
40.000000
11
250.000000
21
40.000000
72
1
10
250.000000
20
40.000000
11
250.000000
21
30.000000
72
1
10
250.000000
20
30.000000
11
240.000000
21
30.000000
97
0
75
0
76
0
98
0
0
HATCH
5
122
100
AcDbEntity
67
0
8
0
6
Continuous
62
17
370
0
100
AcDbHatch
10
0.000000
20
0.000000
30
0.000000
210
0.000000
220
0.000000
230
1.000000
2
SOLID
70
1
71
0
91
1
92
0
93
4
72
1
10
10.000000
20
40.000000
11
10.000000
21
50.000000
72
1
10
10.000000
20
50.000000
11
20.000000
21
50.000000
72
1
10
20.000000
20
50.000000
11
20.000000
21
40.000000
72
1
10
20.000000
20
40.000000
11
10.000000
21
40.000000
97
0
75
0
76
0
98
0
0
HATCH
5
123
100
AcDbEntity
67
0
8
0
6
Continuous
62
27
370
0
100
AcDbHatch
10
0.000000
20
0.000000
30
0.000000
210
0.000000
220
0.000000
230
1.000000
2
SOLID
70
1
71
0
91
1
92
0
93
4
72
1
10
20.000000
20
40.000000
11
20.000000
21
50.000000
72
1
10
20.000000
20
50.000000
11
30.000000
21
50.000000
72
1
10
30.000000
20
50.000000
11
30.000000
21
40.000000
72
1
10
30.000000
20
40.000000
11
20.000000
21
40.000000
97
0
75
0
76
0
98
0
0
HATCH
5
124
100
AcDbEntity
67
0
8
0
6
Continuous
62
37
370
0
100
AcDbHatch
10
0.000000
20
0.000000
30
0.000000
210
0.000000
220
0.000000
230
1.000000
2
SOLID
70
1
71
0
91
1
92
0
93
4
72
1
10
30.000000
20
40.000000
11
30.000000
21
50.000000
72
1
10
30.000000
20
50.000000
11
40.000000
21
50.000000
72
1
10
40.000000
20
50.000000
11
40.000000
21
40.000000
72
1
10
40.000000
20
40.000000
11
30.000000
21
40.000000
97
0
75
0
76
0
98
0
0
HATCH
5
125
100
AcDbEntity
67
0
8
0
6
Continuous
62
47
370
0
100
AcDbHatch
10
0.000000
20
0.000000
30
0.000000
210
0.000000
220
0.000000
230
1.000000
2
SOLID
70
1
71
0
91
1
92
0
93
4
72
1
10
40.000000
20
40.000000
11
40.000000
21
50.000000
72
1
10
40.000000
20
50.000000
11
50.000000
21
50.000000
72
1
10
50.000000
20
50.000000
11
50.000000
21
40.000000
72
1
10
50.000000
20
40.000000
11
40.000000
21
40.000000
97
0
75
0
76
0
98
0
0
HATCH
5
126
100
AcDbEntity
67
0
8
0
6
Continuous
62
57
370
0
100
AcDbHatch
10
0.000000
20
0.000000
30
0.000000
210
0.000000
220
0.000000
230
1.000000
2
SOLID
70
1
71
0
91
1
92
0
93
4
72
1
10
50.000000
20
40.000000
11
50.000000
21
50.000000
72
1
10
50.000000
20
50.000000
11
60.000000
21
50.000000
72
1
10
60.000000
20
50.000000
11
60.000000
21
40.000000
72
1
10
60.000000
20
40.000000
11
50.000000
21
40.000000
97
0
75
0
76
0
98
0
0
HATCH
5
127
100
AcDbEntity
67
0
8
0
6
Continuous
62
67
370
0
100
AcDbHatch
10
0.000000
20
0.000000
30
0.000000
210
0.000000
220
0.000000
230
1.000000
2
SOLID
70
1
71
0
91
1
92
0
93
4
72
1
10
60.000000
20
40.000000
11
60.000000
21
50.000000
72
1
10
60.000000
20
50.000000
11
70.000000
21
50.000000
72
1
10
70.000000
20
50.000000
11
70.000000
21
40.000000
72
1
10
70.000000
20
40.000000
11
60.000000
21
40.000000
97
0
75
0
76
0
98
0
0
HATCH
5
128
100
AcDbEntity
67
0
8
0
6
Continuous
62
77
370
0
100
AcDbHatch
10
0.000000
20
0.000000
30
0.000000
210
0.000000
220
0.000000
230
1.000000
2
SOLID
70
1
71
0
91
1
92
0
93
4
72
1
10
70.000000
20
40.000000
11
70.000000
21
50.000000
72
1
10
70.000000
20
50.000000
11
80.000000
21
50.000000
72
1
10
80.000000
20
50.000000
11
80.000000
21
40.000000
72
1
10
80.000000
20
40.000000
11
70.000000
21
40.000000
97
0
75
0
76
0
98
0
0
HATCH
5
129
100
AcDbEntity
67
0
8
0
6
Continuous
62
87
370
0
100
AcDbHatch
10
0.000000
20
0.000000
30
0.000000
210
0.000000
220
0.000000
230
1.000000
2
SOLID
70
1
71
0
91
1
92
0
93
4
72
1
10
80.000000
20
40.000000
11
80.000000
21
50.000000
72
1
10
80.000000
20
50.000000
11
90.000000
21
50.000000
72
1
10
90.000000
20
50.000000
11
90.000000
21
40.000000
72
1
10
90.000000
20
40.000000
11
80.000000
21
40.000000
97
0
75
0
76
0
98
0
0
HATCH
5
12A
100
AcDbEntity
67
0
8
0
6
Continuous
62
97
370
0
100
AcDbHatch
10
0.000000
20
0.000000
30
0.000000
210
0.000000
220
0.000000
230
1.000000
2
SOLID
70
1
71
0
91
1
92
0
93
4
72
1
10
90.000000
20
40.000000
11
90.000000
21
50.000000
72
1
10
90.000000
20
50.000000
11
100.000000
21
50.000000
72
1
10
100.000000
20
50.000000
11
100.000000
21
40.000000
72
1
10
100.000000
20
40.000000
11
90.000000
21
40.000000
97
0
75
0
76
0
98
0
0
HATCH
5
12B
100
AcDbEntity
67
0
8
0
6
Continuous
62
107
370
0
100
AcDbHatch
10
0.000000
20
0.000000
30
0.000000
210
0.000000
220
0.000000
230
1.000000
2
SOLID
70
1
71
0
91
1
92
0
93
4
72
1
10
100.000000
20
40.000000
11
100.000000
21
50.000000
72
1
10
100.000000
20
50.000000
11
110.000000
21
50.000000
72
1
10
110.000000
20
50.000000
11
110.000000
21
40.000000
72
1
10
110.000000
20
40.000000
11
100.000000
21
40.000000
97
0
75
0
76
0
98
0
0
HATCH
5
12C
100
AcDbEntity
67
0
8
0
6
Continuous
62
117
370
0
100
AcDbHatch
10
0.000000
20
0.000000
30
0.000000
210
0.000000
220
0.000000
230
1.000000
2
SOLID
70
1
71
0
91
1
92
0
93
4
72
1
10
110.000000
20
40.000000
11
110.000000
21
50.000000
72
1
10
110.000000
20
50.000000
11
120.000000
21
50.000000
72
1
10
120.000000
20
50.000000
11
120.000000
21
40.000000
72
1
10
120.000000
20
40.000000
11
110.000000
21
40.000000
97
0
75
0
76
0
98
0
0
HATCH
5
12D
100
AcDbEntity
67
0
8
0
6
Continuous
62
127
370
0
100
AcDbHatch
10
0.000000
20
0.000000
30
0.000000
210
0.000000
220
0.000000
230
1.000000
2
SOLID
70
1
71
0
91
1
92
0
93
4
72
1
10
120.000000
20
40.000000
11
120.000000
21
50.000000
72
1
10
120.000000
20
50.000000
11
130.000000
21
50.000000
72
1
10
130.000000
20
50.000000
11
130.000000
21
40.000000
72
1
10
130.000000
20
40.000000
11
120.000000
21
40.000000
97
0
75
0
76
0
98
0
0
HATCH
5
12E
100
AcDbEntity
67
0
8
0
6
Continuous
62
137
370
0
100
AcDbHatch
10
0.000000
20
0.000000
30
0.000000
210
0.000000
220
0.000000
230
1.000000
2
SOLID
70
1
71
0
91
1
92
0
93
4
72
1
10
130.000000
20
40.000000
11
130.000000
21
50.000000
72
1
10
130.000000
20
50.000000
11
140.000000
21
50.000000
72
1
10
140.000000
20
50.000000
11
140.000000
21
40.000000
72
1
10
140.000000
20
40.000000
11
130.000000
21
40.000000
97
0
75
0
76
0
98
0
0
HATCH
5
12F
100
AcDbEntity
67
0
8
0
6
Continuous
62
147
370
0
100
AcDbHatch
10
0.000000
20
0.000000
30
0.000000
210
0.000000
220
0.000000
230
1.000000
2
SOLID
70
1
71
0
91
1
92
0
93
4
72
1
10
140.000000
20
40.000000
11
140.000000
21
50.000000
72
1
10
140.000000
20
50.000000
11
150.000000
21
50.000000
72
1
10
150.000000
20
50.000000
11
150.000000
21
40.000000
72
1
10
150.000000
20
40.000000
11
140.000000
21
40.000000
97
0
75
0
76
0
98
0
0
HATCH
5
130
100
AcDbEntity
67
0
8
0
6
Continuous
62
157
370
0
100
AcDbHatch
10
0.000000
20
0.000000
30
0.000000
210
0.000000
220
0.000000
230
1.000000
2
SOLID
70
1
71
0
91
1
92
0
93
4
72
1
10
150.000000
20
40.000000
11
150.000000
21
50.000000
72
1
10
150.000000
20
50.000000
11
160.000000
21
50.000000
72
1
10
160.000000
20
50.000000
11
160.000000
21
40.000000
72
1
10
160.000000
20
40.000000
11
150.000000
21
40.000000
97
0
75
0
76
0
98
0
0
HATCH
5
131
100
AcDbEntity
67
0
8
0
6
Continuous
62
167
370
0
100
AcDbHatch
10
0.000000
20
0.000000
30
0.000000
210
0.000000
220
0.000000
230
1.000000
2
SOLID
70
1
71
0
91
1
92
0
93
4
72
1
10
160.000000
20
40.000000
11
160.000000
21
50.000000
72
1
10
160.000000
20
50.000000
11
170.000000
21
50.000000
72
1
10
170.000000
20
50.000000
11
170.000000
21
40.000000
72
1
10
170.000000
20
40.000000
11
160.000000
21
40.000000
97
0
75
0
76
0
98
0
0
HATCH
5
132
100
AcDbEntity
67
0
8
0
6
Continuous
62
177
370
0
100
AcDbHatch
10
0.000000
20
0.000000
30
0.000000
210
0.000000
220
0.000000
230
1.000000
2
SOLID
70
1
71
0
91
1
92
0
93
4
72
1
10
170.000000
20
40.000000
11
170.000000
21
50.000000
72
1
10
170.000000
20
50.000000
11
180.000000
21
50.000000
72
1
10
180.000000
20
50.000000
11
180.000000
21
40.000000
72
1
10
180.000000
20
40.000000
11
170.000000
21
40.000000
97
0
75
0
76
0
98
0
0
HATCH
5
133
100
AcDbEntity
67
0
8
0
6
Continuous
62
187
370
0
100
AcDbHatch
10
0.000000
20
0.000000
30
0.000000
210
0.000000
220
0.000000
230
1.000000
2
SOLID
70
1
71
0
91
1
92
0
93
4
72
1
10
180.000000
20
40.000000
11
180.000000
21
50.000000
72
1
10
180.000000
20
50.000000
11
190.000000
21
50.000000
72
1
10
190.000000
20
50.000000
11
190.000000
21
40.000000
72
1
10
190.000000
20
40.000000
11
180.000000
21
40.000000
97
0
75
0
76
0
98
0
0
HATCH
5
134
100
AcDbEntity
67
0
8
0
6
Continuous
62
197
370
0
100
AcDbHatch
10
0.000000
20
0.000000
30
0.000000
210
0.000000
220
0.000000
230
1.000000
2
SOLID
70
1
71
0
91
1
92
0
93
4
72
1
10
190.000000
20
40.000000
11
190.000000
21
50.000000
72
1
10
190.000000
20
50.000000
11
200.000000
21
50.000000
72
1
10
200.000000
20
50.000000
11
200.000000
21
40.000000
72
1
10
200.000000
20
40.000000
11
190.000000
21
40.000000
97
0
75
0
76
0
98
0
0
HATCH
5
135
100
AcDbEntity
67
0
8
0
6
Continuous
62
207
370
0
100
AcDbHatch
10
0.000000
20
0.000000
30
0.000000
210
0.000000
220
0.000000
230
1.000000
2
SOLID
70
1
71
0
91
1
92
0
93
4
72
1
10
200.000000
20
40.000000
11
200.000000
21
50.000000
72
1
10
200.000000
20
50.000000
11
210.000000
21
50.000000
72
1
10
210.000000
20
50.000000
11
210.000000
21
40.000000
72
1
10
210.000000
20
40.000000
11
200.000000
21
40.000000
97
0
75
0
76
0
98
0
0
HATCH
5
136
100
AcDbEntity
67
0
8
0
6
Continuous
62
217
370
0
100
AcDbHatch
10
0.000000
20
0.000000
30
0.000000
210
0.000000
220
0.000000
230
1.000000
2
SOLID
70
1
71
0
91
1
92
0
93
4
72
1
10
210.000000
20
40.000000
11
210.000000
21
50.000000
72
1
10
210.000000
20
50.000000
11
220.000000
21
50.000000
72
1
10
220.000000
20
50.000000
11
220.000000
21
40.000000
72
1
10
220.000000
20
40.000000
11
210.000000
21
40.000000
97
0
75
0
76
0
98
0
0
HATCH
5
137
100
AcDbEntity
67
0
8
0
6
Continuous
62
227
370
0
100
AcDbHatch
10
0.000000
20
0.000000
30
0.000000
210
0.000000
220
0.000000
230
1.000000
2
SOLID
70
1
71
0
91
1
92
0
93
4
72
1
10
220.000000
20
40.000000
11
220.000000
21
50.000000
72
1
10
220.000000
20
50.000000
11
230.000000
21
50.000000
72
1
10
230.000000
20
50.000000
11
230.000000
21
40.000000
72
1
10
230.000000
20
40.000000
11
220.000000
21
40.000000
97
0
75
0
76
0
98
0
0
HATCH
5
138
100
AcDbEntity
67
0
8
0
6
Continuous
62
237
370
0
100
AcDbHatch
10
0.000000
20
0.000000
30
0.000000
210
0.000000
220
0.000000
230
1.000000
2
SOLID
70
1
71
0
91
1
92
0
93
4
72
1
10
230.000000
20
40.000000
11
230.000000
21
50.000000
72
1
10
230.000000
20
50.000000
11
240.000000
21
50.000000
72
1
10
240.000000
20
50.000000
11
240.000000
21
40.000000
72
1
10
240.000000
20
40.000000
11
230.000000
21
40.000000
97
0
75
0
76
0
98
0
0
HATCH
5
139
100
AcDbEntity
67
0
8
0
6
Continuous
62
247
370
0
100
AcDbHatch
10
0.000000
20
0.000000
30
0.000000
210
0.000000
220
0.000000
230
1.000000
2
SOLID
70
1
71
0
91
1
92
0
93
4
72
1
10
240.000000
20
40.000000
11
240.000000
21
50.000000
72
1
10
240.000000
20
50.000000
11
250.000000
21
50.000000
72
1
10
250.000000
20
50.000000
11
250.000000
21
40.000000
72
1
10
250.000000
20
40.000000
11
240.000000
21
40.000000
97
0
75
0
76
0
98
0
0
HATCH
5
13A
100
AcDbEntity
67
0
8
0
6
Continuous
62
19
370
0
100
AcDbHatch
10
0.000000
20
0.000000
30
0.000000
210
0.000000
220
0.000000
230
1.000000
2
SOLID
70
1
71
0
91
1
92
0
93
4
72
1
10
10.000000
20
50.000000
11
10.000000
21
60.000000
72
1
10
10.000000
20
60.000000
11
20.000000
21
60.000000
72
1
10
20.000000
20
60.000000
11
20.000000
21
50.000000
72
1
10
20.000000
20
50.000000
11
10.000000
21
50.000000
97
0
75
0
76
0
98
0
0
HATCH
5
13B
100
AcDbEntity
67
0
8
0
6
Continuous
62
29
370
0
100
AcDbHatch
10
0.000000
20
0.000000
30
0.000000
210
0.000000
220
0.000000
230
1.000000
2
SOLID
70
1
71
0
91
1
92
0
93
4
72
1
10
20.000000
20
50.000000
11
20.000000
21
60.000000
72
1
10
20.000000
20
60.000000
11
30.000000
21
60.000000
72
1
10
30.000000
20
60.000000
11
30.000000
21
50.000000
72
1
10
30.000000
20
50.000000
11
20.000000
21
50.000000
97
0
75
0
76
0
98
0
0
HATCH
5
13C
100
AcDbEntity
67
0
8
0
6
Continuous
62
39
370
0
100
AcDbHatch
10
0.000000
20
0.000000
30
0.000000
210
0.000000
220
0.000000
230
1.000000
2
SOLID
70
1
71
0
91
1
92
0
93
4
72
1
10
30.000000
20
50.000000
11
30.000000
21
60.000000
72
1
10
30.000000
20
60.000000
11
40.000000
21
60.000000
72
1
10
40.000000
20
60.000000
11
40.000000
21
50.000000
72
1
10
40.000000
20
50.000000
11
30.000000
21
50.000000
97
0
75
0
76
0
98
0
0
HATCH
5
13D
100
AcDbEntity
67
0
8
0
6
Continuous
62
49
370
0
100
AcDbHatch
10
0.000000
20
0.000000
30
0.000000
210
0.000000
220
0.000000
230
1.000000
2
SOLID
70
1
71
0
91
1
92
0
93
4
72
1
10
40.000000
20
50.000000
11
40.000000
21
60.000000
72
1
10
40.000000
20
60.000000
11
50.000000
21
60.000000
72
1
10
50.000000
20
60.000000
11
50.000000
21
50.000000
72
1
10
50.000000
20
50.000000
11
40.000000
21
50.000000
97
0
75
0
76
0
98
0
0
HATCH
5
13E
100
AcDbEntity
67
0
8
0
6
Continuous
62
59
370
0
100
AcDbHatch
10
0.000000
20
0.000000
30
0.000000
210
0.000000
220
0.000000
230
1.000000
2
SOLID
70
1
71
0
91
1
92
0
93
4
72
1
10
50.000000
20
50.000000
11
50.000000
21
60.000000
72
1
10
50.000000
20
60.000000
11
60.000000
21
60.000000
72
1
10
60.000000
20
60.000000
11
60.000000
21
50.000000
72
1
10
60.000000
20
50.000000
11
50.000000
21
50.000000
97
0
75
0
76
0
98
0
0
HATCH
5
13F
100
AcDbEntity
67
0
8
0
6
Continuous
62
69
370
0
100
AcDbHatch
10
0.000000
20
0.000000
30
0.000000
210
0.000000
220
0.000000
230
1.000000
2
SOLID
70
1
71
0
91
1
92
0
93
4
72
1
10
60.000000
20
50.000000
11
60.000000
21
60.000000
72
1
10
60.000000
20
60.000000
11
70.000000
21
60.000000
72
1
10
70.000000
20
60.000000
11
70.000000
21
50.000000
72
1
10
70.000000
20
50.000000
11
60.000000
21
50.000000
97
0
75
0
76
0
98
0
0
HATCH
5
140
100
AcDbEntity
67
0
8
0
6
Continuous
62
79
370
0
100
AcDbHatch
10
0.000000
20
0.000000
30
0.000000
210
0.000000
220
0.000000
230
1.000000
2
SOLID
70
1
71
0
91
1
92
0
93
4
72
1
10
70.000000
20
50.000000
11
70.000000
21
60.000000
72
1
10
70.000000
20
60.000000
11
80.000000
21
60.000000
72
1
10
80.000000
20
60.000000
11
80.000000
21
50.000000
72
1
10
80.000000
20
50.000000
11
70.000000
21
50.000000
97
0
75
0
76
0
98
0
0
HATCH
5
141
100
AcDbEntity
67
0
8
0
6
Continuous
62
89
370
0
100
AcDbHatch
10
0.000000
20
0.000000
30
0.000000
210
0.000000
220
0.000000
230
1.000000
2
SOLID
70
1
71
0
91
1
92
0
93
4
72
1
10
80.000000
20
50.000000
11
80.000000
21
60.000000
72
1
10
80.000000
20
60.000000
11
90.000000
21
60.000000
72
1
10
90.000000
20
60.000000
11
90.000000
21
50.000000
72
1
10
90.000000
20
50.000000
11
80.000000
21
50.000000
97
0
75
0
76
0
98
0
0
HATCH
5
142
100
AcDbEntity
67
0
8
0
6
Continuous
62
99
370
0
100
AcDbHatch
10
0.000000
20
0.000000
30
0.000000
210
0.000000
220
0.000000
230
1.000000
2
SOLID
70
1
71
0
91
1
92
0
93
4
72
1
10
90.000000
20
50.000000
11
90.000000
21
60.000000
72
1
10
90.000000
20
60.000000
11
100.000000
21
60.000000
72
1
10
100.000000
20
60.000000
11
100.000000
21
50.000000
72
1
10
100.000000
20
50.000000
11
90.000000
21
50.000000
97
0
75
0
76
0
98
0
0
HATCH
5
143
100
AcDbEntity
67
0
8
0
6
Continuous
62
109
370
0
100
AcDbHatch
10
0.000000
20
0.000000
30
0.000000
210
0.000000
220
0.000000
230
1.000000
2
SOLID
70
1
71
0
91
1
92
0
93
4
72
1
10
100.000000
20
50.000000
11
100.000000
21
60.000000
72
1
10
100.000000
20
60.000000
11
110.000000
21
60.000000
72
1
10
110.000000
20
60.000000
11
110.000000
21
50.000000
72
1
10
110.000000
20
50.000000
11
100.000000
21
50.000000
97
0
75
0
76
0
98
0
0
HATCH
5
144
100
AcDbEntity
67
0
8
0
6
Continuous
62
119
370
0
100
AcDbHatch
10
0.000000
20
0.000000
30
0.000000
210
0.000000
220
0.000000
230
1.000000
2
SOLID
70
1
71
0
91
1
92
0
93
4
72
1
10
110.000000
20
50.000000
11
110.000000
21
60.000000
72
1
10
110.000000
20
60.000000
11
120.000000
21
60.000000
72
1
10
120.000000
20
60.000000
11
120.000000
21
50.000000
72
1
10
120.000000
20
50.000000
11
110.000000
21
50.000000
97
0
75
0
76
0
98
0
0
HATCH
5
145
100
AcDbEntity
67
0
8
0
6
Continuous
62
129
370
0
100
AcDbHatch
10
0.000000
20
0.000000
30
0.000000
210
0.000000
220
0.000000
230
1.000000
2
SOLID
70
1
71
0
91
1
92
0
93
4
72
1
10
120.000000
20
50.000000
11
120.000000
21
60.000000
72
1
10
120.000000
20
60.000000
11
130.000000
21
60.000000
72
1
10
130.000000
20
60.000000
11
130.000000
21
50.000000
72
1
10
130.000000
20
50.000000
11
120.000000
21
50.000000
97
0
75
0
76
0
98
0
0
HATCH
5
146
100
AcDbEntity
67
0
8
0
6
Continuous
62
139
370
0
100
AcDbHatch
10
0.000000
20
0.000000
30
0.000000
210
0.000000
220
0.000000
230
1.000000
2
SOLID
70
1
71
0
91
1
92
0
93
4
72
1
10
130.000000
20
50.000000
11
130.000000
21
60.000000
72
1
10
130.000000
20
60.000000
11
140.000000
21
60.000000
72
1
10
140.000000
20
60.000000
11
140.000000
21
50.000000
72
1
10
140.000000
20
50.000000
11
130.000000
21
50.000000
97
0
75
0
76
0
98
0
0
HATCH
5
147
100
AcDbEntity
67
0
8
0
6
Continuous
62
149
370
0
100
AcDbHatch
10
0.000000
20
0.000000
30
0.000000
210
0.000000
220
0.000000
230
1.000000
2
SOLID
70
1
71
0
91
1
92
0
93
4
72
1
10
140.000000
20
50.000000
11
140.000000
21
60.000000
72
1
10
140.000000
20
60.000000
11
150.000000
21
60.000000
72
1
10
150.000000
20
60.000000
11
150.000000
21
50.000000
72
1
10
150.000000
20
50.000000
11
140.000000
21
50.000000
97
0
75
0
76
0
98
0
0
HATCH
5
148
100
AcDbEntity
67
0
8
0
6
Continuous
62
159
370
0
100
AcDbHatch
10
0.000000
20
0.000000
30
0.000000
210
0.000000
220
0.000000
230
1.000000
2
SOLID
70
1
71
0
91
1
92
0
93
4
72
1
10
150.000000
20
50.000000
11
150.000000
21
60.000000
72
1
10
150.000000
20
60.000000
11
160.000000
21
60.000000
72
1
10
160.000000
20
60.000000
11
160.000000
21
50.000000
72
1
10
160.000000
20
50.000000
11
150.000000
21
50.000000
97
0
75
0
76
0
98
0
0
HATCH
5
149
100
AcDbEntity
67
0
8
0
6
Continuous
62
169
370
0
100
AcDbHatch
10
0.000000
20
0.000000
30
0.000000
210
0.000000
220
0.000000
230
1.000000
2
SOLID
70
1
71
0
91
1
92
0
93
4
72
1
10
160.000000
20
50.000000
11
160.000000
21
60.000000
72
1
10
160.000000
20
60.000000
11
170.000000
21
60.000000
72
1
10
170.000000
20
60.000000
11
170.000000
21
50.000000
72
1
10
170.000000
20
50.000000
11
160.000000
21
50.000000
97
0
75
0
76
0
98
0
0
HATCH
5
14A
100
AcDbEntity
67
0
8
0
6
Continuous
62
179
370
0
100
AcDbHatch
10
0.000000
20
0.000000
30
0.000000
210
0.000000
220
0.000000
230
1.000000
2
SOLID
70
1
71
0
91
1
92
0
93
4
72
1
10
170.000000
20
50.000000
11
170.000000
21
60.000000
72
1
10
170.000000
20
60.000000
11
180.000000
21
60.000000
72
1
10
180.000000
20
60.000000
11
180.000000
21
50.000000
72
1
10
180.000000
20
50.000000
11
170.000000
21
50.000000
97
0
75
0
76
0
98
0
0
HATCH
5
14B
100
AcDbEntity
67
0
8
0
6
Continuous
62
189
370
0
100
AcDbHatch
10
0.000000
20
0.000000
30
0.000000
210
0.000000
220
0.000000
230
1.000000
2
SOLID
70
1
71
0
91
1
92
0
93
4
72
1
10
180.000000
20
50.000000
11
180.000000
21
60.000000
72
1
10
180.000000
20
60.000000
11
190.000000
21
60.000000
72
1
10
190.000000
20
60.000000
11
190.000000
21
50.000000
72
1
10
190.000000
20
50.000000
11
180.000000
21
50.000000
97
0
75
0
76
0
98
0
0
HATCH
5
14C
100
AcDbEntity
67
0
8
0
6
Continuous
62
199
370
0
100
AcDbHatch
10
0.000000
20
0.000000
30
0.000000
210
0.000000
220
0.000000
230
1.000000
2
SOLID
70
1
71
0
91
1
92
0
93
4
72
1
10
190.000000
20
50.000000
11
190.000000
21
60.000000
72
1
10
190.000000
20
60.000000
11
200.000000
21
60.000000
72
1
10
200.000000
20
60.000000
11
200.000000
21
50.000000
72
1
10
200.000000
20
50.000000
11
190.000000
21
50.000000
97
0
75
0
76
0
98
0
0
HATCH
5
14D
100
AcDbEntity
67
0
8
0
6
Continuous
62
209
370
0
100
AcDbHatch
10
0.000000
20
0.000000
30
0.000000
210
0.000000
220
0.000000
230
1.000000
2
SOLID
70
1
71
0
91
1
92
0
93
4
72
1
10
200.000000
20
50.000000
11
200.000000
21
60.000000
72
1
10
200.000000
20
60.000000
11
210.000000
21
60.000000
72
1
10
210.000000
20
60.000000
11
210.000000
21
50.000000
72
1
10
210.000000
20
50.000000
11
200.000000
21
50.000000
97
0
75
0
76
0
98
0
0
HATCH
5
14E
100
AcDbEntity
67
0
8
0
6
Continuous
62
219
370
0
100
AcDbHatch
10
0.000000
20
0.000000
30
0.000000
210
0.000000
220
0.000000
230
1.000000
2
SOLID
70
1
71
0
91
1
92
0
93
4
72
1
10
210.000000
20
50.000000
11
210.000000
21
60.000000
72
1
10
210.000000
20
60.000000
11
220.000000
21
60.000000
72
1
10
220.000000
20
60.000000
11
220.000000
21
50.000000
72
1
10
220.000000
20
50.000000
11
210.000000
21
50.000000
97
0
75
0
76
0
98
0
0
HATCH
5
14F
100
AcDbEntity
67
0
8
0
6
Continuous
62
229
370
0
100
AcDbHatch
10
0.000000
20
0.000000
30
0.000000
210
0.000000
220
0.000000
230
1.000000
2
SOLID
70
1
71
0
91
1
92
0
93
4
72
1
10
220.000000
20
50.000000
11
220.000000
21
60.000000
72
1
10
220.000000
20
60.000000
11
230.000000
21
60.000000
72
1
10
230.000000
20
60.000000
11
230.000000
21
50.000000
72
1
10
230.000000
20
50.000000
11
220.000000
21
50.000000
97
0
75
0
76
0
98
0
0
HATCH
5
150
100
AcDbEntity
67
0
8
0
6
Continuous
62
239
370
0
100
AcDbHatch
10
0.000000
20
0.000000
30
0.000000
210
0.000000
220
0.000000
230
1.000000
2
SOLID
70
1
71
0
91
1
92
0
93
4
72
1
10
230.000000
20
50.000000
11
230.000000
21
60.000000
72
1
10
230.000000
20
60.000000
11
240.000000
21
60.000000
72
1
10
240.000000
20
60.000000
11
240.000000
21
50.000000
72
1
10
240.000000
20
50.000000
11
230.000000
21
50.000000
97
0
75
0
76
0
98
0
0
HATCH
5
151
100
AcDbEntity
67
0
8
0
6
Continuous
62
249
370
0
100
AcDbHatch
10
0.000000
20
0.000000
30
0.000000
210
0.000000
220
0.000000
230
1.000000
2
SOLID
70
1
71
0
91
1
92
0
93
4
72
1
10
240.000000
20
50.000000
11
240.000000
21
60.000000
72
1
10
240.000000
20
60.000000
11
250.000000
21
60.000000
72
1
10
250.000000
20
60.000000
11
250.000000
21
50.000000
72
1
10
250.000000
20
50.000000
11
240.000000
21
50.000000
97
0
75
0
76
0
98
0
0
TEXT
5
152
100
AcDbEntity
67
0
8
0
6
Continuous
62
7
370
0
100
AcDbText
10
20.000000
20
-58.000000
30
0.000000
40
2.500000
1
250
50
0.000000
7
Standard
72
1
11
20.000000
21
-58.000000
31
0.000000
100
AcDbText
73
1
0
HATCH
5
153
100
AcDbEntity
67
0
8
0
6
Continuous
62
250
370
0
100
AcDbHatch
10
0.000000
20
0.000000
30
0.000000
210
0.000000
220
0.000000
230
1.000000
2
SOLID
70
1
71
0
91
1
92
0
93
4
72
1
10
15.000000
20
-70.000000
11
15.000000
21
-60.000000
72
1
10
15.000000
20
-60.000000
11
25.000000
21
-60.000000
72
1
10
25.000000
20
-60.000000
11
25.000000
21
-70.000000
72
1
10
25.000000
20
-70.000000
11
15.000000
21
-70.000000
97
0
75
0
76
0
98
0
0
TEXT
5
154
100
AcDbEntity
67
0
8
0
6
Continuous
62
7
370
0
100
AcDbText
10
35.000000
20
-58.000000
30
0.000000
40
2.500000
1
251
50
0.000000
7
Standard
72
1
11
35.000000
21
-58.000000
31
0.000000
100
AcDbText
73
1
0
HATCH
5
155
100
AcDbEntity
67
0
8
0
6
Continuous
62
251
370
0
100
AcDbHatch
10
0.000000
20
0.000000
30
0.000000
210
0.000000
220
0.000000
230
1.000000
2
SOLID
70
1
71
0
91
1
92
0
93
4
72
1
10
30.000000
20
-70.000000
11
30.000000
21
-60.000000
72
1
10
30.000000
20
-60.000000
11
40.000000
21
-60.000000
72
1
10
40.000000
20
-60.000000
11
40.000000
21
-70.000000
72
1
10
40.000000
20
-70.000000
11
30.000000
21
-70.000000
97
0
75
0
76
0
98
0
0
TEXT
5
156
100
AcDbEntity
67
0
8
0
6
Continuous
62
7
370
0
100
AcDbText
10
50.000000
20
-58.000000
30
0.000000
40
2.500000
1
252
50
0.000000
7
Standard
72
1
11
50.000000
21
-58.000000
31
0.000000
100
AcDbText
73
1
0
HATCH
5
157
100
AcDbEntity
67
0
8
0
6
Continuous
62
252
370
0
100
AcDbHatch
10
0.000000
20
0.000000
30
0.000000
210
0.000000
220
0.000000
230
1.000000
2
SOLID
70
1
71
0
91
1
92
0
93
4
72
1
10
45.000000
20
-70.000000
11
45.000000
21
-60.000000
72
1
10
45.000000
20
-60.000000
11
55.000000
21
-60.000000
72
1
10
55.000000
20
-60.000000
11
55.000000
21
-70.000000
72
1
10
55.000000
20
-70.000000
11
45.000000
21
-70.000000
97
0
75
0
76
0
98
0
0
TEXT
5
158
100
AcDbEntity
67
0
8
0
6
Continuous
62
7
370
0
100
AcDbText
10
65.000000
20
-58.000000
30
0.000000
40
2.500000
1
253
50
0.000000
7
Standard
72
1
11
65.000000
21
-58.000000
31
0.000000
100
AcDbText
73
1
0
HATCH
5
159
100
AcDbEntity
67
0
8
0
6
Continuous
62
253
370
0
100
AcDbHatch
10
0.000000
20
0.000000
30
0.000000
210
0.000000
220
0.000000
230
1.000000
2
SOLID
70
1
71
0
91
1
92
0
93
4
72
1
10
60.000000
20
-70.000000
11
60.000000
21
-60.000000
72
1
10
60.000000
20
-60.000000
11
70.000000
21
-60.000000
72
1
10
70.000000
20
-60.000000
11
70.000000
21
-70.000000
72
1
10
70.000000
20
-70.000000
11
60.000000
21
-70.000000
97
0
75
0
76
0
98
0
0
TEXT
5
15A
100
AcDbEntity
67
0
8
0
6
Continuous
62
7
370
0
100
AcDbText
10
80.000000
20
-58.000000
30
0.000000
40
2.500000
1
254
50
0.000000
7
Standard
72
1
11
80.000000
21
-58.000000
31
0.000000
100
AcDbText
73
1
0
HATCH
5
15B
100
AcDbEntity
67
0
8
0
6
Continuous
62
254
370
0
100
AcDbHatch
10
0.000000
20
0.000000
30
0.000000
210
0.000000
220
0.000000
230
1.000000
2
SOLID
70
1
71
0
91
1
92
0
93
4
72
1
10
75.000000
20
-70.000000
11
75.000000
21
-60.000000
72
1
10
75.000000
20
-60.000000
11
85.000000
21
-60.000000
72
1
10
85.000000
20
-60.000000
11
85.000000
21
-70.000000
72
1
10
85.000000
20
-70.000000
11
75.000000
21
-70.000000
97
0
75
0
76
0
98
0
0
TEXT
5
15C
100
AcDbEntity
67
0
8
0
6
Continuous
62
7
370
0
100
AcDbText
10
95.000000
20
-58.000000
30
0.000000
40
2.500000
1
255
50
0.000000
7
Standard
72
1
11
95.000000
21
-58.000000
31
0.000000
100
AcDbText
73
1
0
HATCH
5
15D
100
AcDbEntity
67
0
8
0
6
Continuous
62
255
370
0
100
AcDbHatch
10
0.000000
20
0.000000
30
0.000000
210
0.000000
220
0.000000
230
1.000000
2
SOLID
70
1
71
0
91
1
92
0
93
4
72
1
10
90.000000
20
-70.000000
11
90.000000
21
-60.000000
72
1
10
90.000000
20
-60.000000
11
100.000000
21
-60.000000
72
1
10
100.000000
20
-60.000000
11
100.000000
21
-70.000000
72
1
10
100.000000
20
-70.000000
11
90.000000
21
-70.000000
97
0
75
0
76
0
98
0
0
ENDSEC
0
SECTION
2
OBJECTS
0
DICTIONARY
5
22
100
AcDbDictionary
281
1
3
ACAD_COLOR
350
23
3
ACAD_GROUP
350
26
3
ACAD_LAYOUT
350
27
3
ACAD_MATERIAL
350
28
3
ACAD_MLINESTYLE
350
29
3
ACAD_PLOTSETTINGS
350
2A
3
ACAD_PLOTSTYLENAME
350
2B
3
ACAD_TABLESTYLE
350
2C
3
AcadDim
350
2D
0
DICTIONARY
5
23
100
AcDbDictionary
0
DICTIONARY
5
26
100
AcDbDictionary
0
DICTIONARY
5
27
100
AcDbDictionary
0
DICTIONARY
5
28
100
AcDbDictionary
0
DICTIONARY
5
29
100
AcDbDictionary
0
DICTIONARY
5
2A
100
AcDbDictionary
0
DICTIONARY
5
2B
100
AcDbDictionary
0
DICTIONARY
5
2C
100
AcDbDictionary
0
DICTIONARY
5
2D
100
AcDbDictionary
0
ENDSEC
0
EOF
