<svg width="1188.0000" height="840.0000" version="1.1" xmlns="http://www.w3.org/2000/svg" xmlns:xlink="http://www.w3.org/1999/xlink">
<path stroke="rgb(0, 0, 0)" fill="none" d="M122.8 58.1 L124.7 56.27 L124.7 67.27 M122.8 67.27 L126.5 67.27 "/>
<path fill="rgb(255, 0, 0)" stroke="none" d="M102.7 123.7 L102.7 79.73 L146.7 79.73 L146.7 123.7 L102.7 123.7 "/>
<path stroke="rgb(0, 0, 0)" fill="none" d="M187 58.1 L188.8 56.27 L192.5 56.27 L194.3 58.1 L194.3 59.93 L192.5 61.77 L188.8 61.77 L187 63.6 L187 67.27 L194.3 67.27 "/>
<path fill="rgb(255, 255, 0)" stroke="none" d="M168.7 123.7 L168.7 79.73 L212.7 79.73 L212.7 123.7 L168.7 123.7 "/>
<path stroke="rgb(0, 0, 0)" fill="none" d="M253 58.1 L254.8 56.27 L258.5 56.27 L260.3 58.1 L260.3 59.93 L258.5 61.77 L256.7 61.77 M258.5 61.77 L260.3 63.6 L260.3 65.43 L258.5 67.27 L254.8 67.27 L253 65.43 "/>
<path fill="rgb(0, 255, 0)" stroke="none" d="M234.7 123.7 L234.7 79.73 L278.7 79.73 L278.7 123.7 L234.7 123.7 "/>
<path stroke="rgb(0, 0, 0)" fill="none" d="M326.3 63.6 L319 63.6 L324.5 56.27 L324.5 67.27 "/>
<path fill="rgb(0, 255, 255)" stroke="none" d="M300.7 123.7 L300.7 79.73 L344.7 79.73 L344.7 123.7 L300.7 123.7 "/>
<path stroke="rgb(0, 0, 0)" fill="none" d="M385 65.43 L386.8 67.27 L390.5 67.27 L392.3 65.43 L392.3 61.77 L390.5 59.93 L385 59.93 L385 56.27 L392.3 56.27 "/>
<path fill="rgb(0, 0, 255)" stroke="none" d="M366.7 123.7 L366.7 79.73 L410.7 79.73 L410.7 123.7 L366.7 123.7 "/>
<path stroke="rgb(0, 0, 0)" fill="none" d="M451 61.77 L456.5 61.77 L458.3 63.6 L458.3 65.43 L456.5 67.27 L452.8 67.27 L451 65.43 L451 59.93 L454.7 56.27 L456.5 56.27 "/>
<path fill="rgb(255, 0, 255)" stroke="none" d="M432.7 123.7 L432.7 79.73 L476.7 79.73 L476.7 123.7 L432.7 123.7 "/>
<path stroke="rgb(0, 0, 0)" fill="none" d="M517 56.27 L524.3 56.27 L518.8 67.27 "/>
<path fill="rgb(0, 0, 0)" stroke="none" d="M498.7 123.7 L498.7 79.73 L542.7 79.73 L542.7 123.7 L498.7 123.7 "/>
<path stroke="rgb(0, 0, 0)" fill="none" d="M584.8 67.27 L583 65.43 L583 63.6 L584.8 61.77 L588.5 61.77 L590.3 59.93 L590.3 58.1 L588.5 56.27 L584.8 56.27 L583 58.1 L583 59.93 L584.8 61.77 M588.5 61.77 L590.3 63.6 L590.3 65.43 L588.5 67.27 L584.8 67.27 "/>
<path fill="rgb(128, 128, 128)" stroke="none" d="M564.7 123.7 L564.7 79.73 L608.7 79.73 L608.7 123.7 L564.7 123.7 "/>
<path stroke="rgb(0, 0, 0)" fill="none" d="M650.8 67.27 L652.7 67.27 L656.3 63.6 L656.3 58.1 L654.5 56.27 L650.8 56.27 L649 58.1 L649 59.93 L650.8 61.77 L656.3 61.77 "/>
<path fill="rgb(192, 192, 192)" stroke="none" d="M630.7 123.7 L630.7 79.73 L674.7 79.73 L674.7 123.7 L630.7 123.7 "/>
<path stroke="rgb(0, 0, 0)" fill="none" d="M96.25 190.1 L98.08 188.3 L98.08 199.3 M96.25 199.3 L99.92 199.3 "/>
<path stroke="rgb(0, 0, 0)" fill="none" d="M105.4 199.3 L103.6 197.4 L103.6 190.1 L105.4 188.3 L107.2 188.3 L109.1 190.1 L109.1 197.4 L107.2 199.3 L105.4 199.3 "/>
<path stroke="rgb(0, 0, 0)" fill="none" d="M138.4 190.1 L140.2 188.3 L143.9 188.3 L145.7 190.1 L145.7 191.9 L143.9 193.8 L140.2 193.8 L138.4 195.6 L138.4 199.3 L145.7 199.3 "/>
<path stroke="rgb(0, 0, 0)" fill="none" d="M151.2 199.3 L149.4 197.4 L149.4 190.1 L151.2 188.3 L153.1 188.3 L154.9 190.1 L154.9 197.4 L153.1 199.3 L151.2 199.3 "/>
<path stroke="rgb(0, 0, 0)" fill="none" d="M182.4 190.1 L184.2 188.3 L187.9 188.3 L189.7 190.1 L189.7 191.9 L187.9 193.8 L186.1 193.8 M187.9 193.8 L189.7 195.6 L189.7 197.4 L187.9 199.3 L184.2 199.3 L182.4 197.4 "/>
<path stroke="rgb(0, 0, 0)" fill="none" d="M195.2 199.3 L193.4 197.4 L193.4 190.1 L195.2 188.3 L197.1 188.3 L198.9 190.1 L198.9 197.4 L197.1 199.3 L195.2 199.3 "/>
<path stroke="rgb(0, 0, 0)" fill="none" d="M233.7 195.6 L226.4 195.6 L231.9 188.3 L231.9 199.3 "/>
<path stroke="rgb(0, 0, 0)" fill="none" d="M239.2 199.3 L237.4 197.4 L237.4 190.1 L239.2 188.3 L241.1 188.3 L242.9 190.1 L242.9 197.4 L241.1 199.3 L239.2 199.3 "/>
<path stroke="rgb(0, 0, 0)" fill="none" d="M270.4 197.4 L272.2 199.3 L275.9 199.3 L277.7 197.4 L277.7 193.8 L275.9 191.9 L270.4 191.9 L270.4 188.3 L277.7 188.3 "/>
<path stroke="rgb(0, 0, 0)" fill="none" d="M283.2 199.3 L281.4 197.4 L281.4 190.1 L283.2 188.3 L285.1 188.3 L286.9 190.1 L286.9 197.4 L285.1 199.3 L283.2 199.3 "/>
<path stroke="rgb(0, 0, 0)" fill="none" d="M314.4 193.8 L319.9 193.8 L321.7 195.6 L321.7 197.4 L319.9 199.3 L316.2 199.3 L314.4 197.4 L314.4 191.9 L318.1 188.3 L319.9 188.3 "/>
<path stroke="rgb(0, 0, 0)" fill="none" d="M327.2 199.3 L325.4 197.4 L325.4 190.1 L327.2 188.3 L329.1 188.3 L330.9 190.1 L330.9 197.4 L329.1 199.3 L327.2 199.3 "/>
<path stroke="rgb(0, 0, 0)" fill="none" d="M358.4 188.3 L365.7 188.3 L360.2 199.3 "/>
<path stroke="rgb(0, 0, 0)" fill="none" d="M371.2 199.3 L369.4 197.4 L369.4 190.1 L371.2 188.3 L373.1 188.3 L374.9 190.1 L374.9 197.4 L373.1 199.3 L371.2 199.3 "/>
<path stroke="rgb(0, 0, 0)" fill="none" d="M404.2 199.3 L402.4 197.4 L402.4 195.6 L404.2 193.8 L407.9 193.8 L409.7 191.9 L409.7 190.1 L407.9 188.3 L404.2 188.3 L402.4 190.1 L402.4 191.9 L404.2 193.8 M407.9 193.8 L409.7 195.6 L409.7 197.4 L407.9 199.3 L404.2 199.3 "/>
<path stroke="rgb(0, 0, 0)" fill="none" d="M415.2 199.3 L413.4 197.4 L413.4 190.1 L415.2 188.3 L417.1 188.3 L418.9 190.1 L418.9 197.4 L417.1 199.3 L415.2 199.3 "/>
<path stroke="rgb(0, 0, 0)" fill="none" d="M448.3 199.3 L450.1 199.3 L453.8 195.6 L453.8 190.1 L451.9 188.3 L448.3 188.3 L446.4 190.1 L446.4 191.9 L448.3 193.8 L453.8 193.8 "/>
<path stroke="rgb(0, 0, 0)" fill="none" d="M459.3 199.3 L457.4 197.4 L457.4 190.1 L459.3 188.3 L461.1 188.3 L462.9 190.1 L462.9 197.4 L461.1 199.3 L459.3 199.3 "/>
<path stroke="rgb(0, 0, 0)" fill="none" d="M487.7 190.1 L489.5 188.3 L489.5 199.3 M487.7 199.3 L491.3 199.3 "/>
<path stroke="rgb(0, 0, 0)" fill="none" d="M496.8 199.3 L495 197.4 L495 190.1 L496.8 188.3 L498.7 188.3 L500.5 190.1 L500.5 197.4 L498.7 199.3 L496.8 199.3 "/>
<path stroke="rgb(0, 0, 0)" fill="none" d="M506 199.3 L504.2 197.4 L504.2 190.1 L506 188.3 L507.8 188.3 L509.7 190.1 L509.7 197.4 L507.8 199.3 L506 199.3 "/>
<path stroke="rgb(0, 0, 0)" fill="none" d="M532.6 190.1 L534.4 188.3 L534.4 199.3 M532.6 199.3 L536.2 199.3 "/>
<path stroke="rgb(0, 0, 0)" fill="none" d="M539.9 190.1 L541.7 188.3 L541.7 199.3 M539.9 199.3 L543.6 199.3 "/>
<path stroke="rgb(0, 0, 0)" fill="none" d="M549.1 199.3 L547.2 197.4 L547.2 190.1 L549.1 188.3 L550.9 188.3 L552.7 190.1 L552.7 197.4 L550.9 199.3 L549.1 199.3 "/>
<path stroke="rgb(0, 0, 0)" fill="none" d="M574.8 190.1 L576.6 188.3 L576.6 199.3 M574.8 199.3 L578.4 199.3 "/>
<path stroke="rgb(0, 0, 0)" fill="none" d="M582.1 190.1 L583.9 188.3 L587.6 188.3 L589.4 190.1 L589.4 191.9 L587.6 193.8 L583.9 193.8 L582.1 195.6 L582.1 199.3 L589.4 199.3 "/>
<path stroke="rgb(0, 0, 0)" fill="none" d="M594.9 199.3 L593.1 197.4 L593.1 190.1 L594.9 188.3 L596.8 188.3 L598.6 190.1 L598.6 197.4 L596.8 199.3 L594.9 199.3 "/>
<path stroke="rgb(0, 0, 0)" fill="none" d="M618.7 190.1 L620.6 188.3 L620.6 199.3 M618.7 199.3 L622.4 199.3 "/>
<path stroke="rgb(0, 0, 0)" fill="none" d="M626.1 190.1 L627.9 188.3 L631.6 188.3 L633.4 190.1 L633.4 191.9 L631.6 193.8 L629.7 193.8 M631.6 193.8 L633.4 195.6 L633.4 197.4 L631.6 199.3 L627.9 199.3 L626.1 197.4 "/>
<path stroke="rgb(0, 0, 0)" fill="none" d="M638.9 199.3 L637.1 197.4 L637.1 190.1 L638.9 188.3 L640.7 188.3 L642.6 190.1 L642.6 197.4 L640.7 199.3 L638.9 199.3 "/>
<path stroke="rgb(0, 0, 0)" fill="none" d="M662.7 190.1 L664.6 188.3 L664.6 199.3 M662.7 199.3 L666.4 199.3 "/>
<path stroke="rgb(0, 0, 0)" fill="none" d="M677.4 195.6 L670.1 195.6 L675.6 188.3 L675.6 199.3 "/>
<path stroke="rgb(0, 0, 0)" fill="none" d="M682.9 199.3 L681.1 197.4 L681.1 190.1 L682.9 188.3 L684.7 188.3 L686.6 190.1 L686.6 197.4 L684.7 199.3 L682.9 199.3 "/>
<path stroke="rgb(0, 0, 0)" fill="none" d="M706.7 190.1 L708.6 188.3 L708.6 199.3 M706.7 199.3 L710.4 199.3 "/>
<path stroke="rgb(0, 0, 0)" fill="none" d="M714.1 197.4 L715.9 199.3 L719.6 199.3 L721.4 197.4 L721.4 193.8 L719.6 191.9 L714.1 191.9 L714.1 188.3 L721.4 188.3 "/>
<path stroke="rgb(0, 0, 0)" fill="none" d="M726.9 199.3 L725.1 197.4 L725.1 190.1 L726.9 188.3 L728.7 188.3 L730.6 190.1 L730.6 197.4 L728.7 199.3 L726.9 199.3 "/>
<path stroke="rgb(0, 0, 0)" fill="none" d="M750.7 190.1 L752.6 188.3 L752.6 199.3 M750.7 199.3 L754.4 199.3 "/>
<path stroke="rgb(0, 0, 0)" fill="none" d="M758.1 193.8 L763.6 193.8 L765.4 195.6 L765.4 197.4 L763.6 199.3 L759.9 199.3 L758.1 197.4 L758.1 191.9 L761.7 188.3 L763.6 188.3 "/>
<path stroke="rgb(0, 0, 0)" fill="none" d="M770.9 199.3 L769.1 197.4 L769.1 190.1 L770.9 188.3 L772.7 188.3 L774.6 190.1 L774.6 197.4 L772.7 199.3 L770.9 199.3 "/>
<path stroke="rgb(0, 0, 0)" fill="none" d="M794.7 190.1 L796.6 188.3 L796.6 199.3 M794.7 199.3 L798.4 199.3 "/>
<path stroke="rgb(0, 0, 0)" fill="none" d="M802.1 188.3 L809.4 188.3 L803.9 199.3 "/>
<path stroke="rgb(0, 0, 0)" fill="none" d="M814.9 199.3 L813.1 197.4 L813.1 190.1 L814.9 188.3 L816.7 188.3 L818.6 190.1 L818.6 197.4 L816.7 199.3 L814.9 199.3 "/>
<path stroke="rgb(0, 0, 0)" fill="none" d="M838.7 190.1 L840.6 188.3 L840.6 199.3 M838.7 199.3 L842.4 199.3 "/>
<path stroke="rgb(0, 0, 0)" fill="none" d="M847.9 199.3 L846.1 197.4 L846.1 195.6 L847.9 193.8 L851.6 193.8 L853.4 191.9 L853.4 190.1 L851.6 188.3 L847.9 188.3 L846.1 190.1 L846.1 191.9 L847.9 193.8 M851.6 193.8 L853.4 195.6 L853.4 197.4 L851.6 199.3 L847.9 199.3 "/>
<path stroke="rgb(0, 0, 0)" fill="none" d="M858.9 199.3 L857.1 197.4 L857.1 190.1 L858.9 188.3 L860.8 188.3 L862.6 190.1 L862.6 197.4 L860.8 199.3 L858.9 199.3 "/>
<path stroke="rgb(0, 0, 0)" fill="none" d="M882.8 190.1 L884.6 188.3 L884.6 199.3 M882.8 199.3 L886.4 199.3 "/>
<path stroke="rgb(0, 0, 0)" fill="none" d="M891.9 199.3 L893.8 199.3 L897.4 195.6 L897.4 190.1 L895.6 188.3 L891.9 188.3 L890.1 190.1 L890.1 191.9 L891.9 193.8 L897.4 193.8 "/>
<path stroke="rgb(0, 0, 0)" fill="none" d="M902.9 199.3 L901.1 197.4 L901.1 190.1 L902.9 188.3 L904.8 188.3 L906.6 190.1 L906.6 197.4 L904.8 199.3 L902.9 199.3 "/>
<path stroke="rgb(0, 0, 0)" fill="none" d="M925.8 190.1 L927.7 188.3 L931.3 188.3 L933.2 190.1 L933.2 191.9 L931.3 193.8 L927.7 193.8 L925.8 195.6 L925.8 199.3 L933.2 199.3 "/>
<path stroke="rgb(0, 0, 0)" fill="none" d="M938.7 199.3 L936.8 197.4 L936.8 190.1 L938.7 188.3 L940.5 188.3 L942.3 190.1 L942.3 197.4 L940.5 199.3 L938.7 199.3 "/>
<path stroke="rgb(0, 0, 0)" fill="none" d="M947.8 199.3 L946 197.4 L946 190.1 L947.8 188.3 L949.7 188.3 L951.5 190.1 L951.5 197.4 L949.7 199.3 L947.8 199.3 "/>
<path stroke="rgb(0, 0, 0)" fill="none" d="M970.8 190.1 L972.6 188.3 L976.3 188.3 L978.1 190.1 L978.1 191.9 L976.3 193.8 L972.6 193.8 L970.8 195.6 L970.8 199.3 L978.1 199.3 "/>
<path stroke="rgb(0, 0, 0)" fill="none" d="M981.8 190.1 L983.6 188.3 L983.6 199.3 M981.8 199.3 L985.4 199.3 "/>
<path stroke="rgb(0, 0, 0)" fill="none" d="M990.9 199.3 L989.1 197.4 L989.1 190.1 L990.9 188.3 L992.8 188.3 L994.6 190.1 L994.6 197.4 L992.8 199.3 L990.9 199.3 "/>
<path stroke="rgb(0, 0, 0)" fill="none" d="M1013 190.1 L1015 188.3 L1018 188.3 L1020 190.1 L1020 191.9 L1018 193.8 L1015 193.8 L1013 195.6 L1013 199.3 L1020 199.3 "/>
<path stroke="rgb(0, 0, 0)" fill="none" d="M1024 190.1 L1026 188.3 L1029 188.3 L1031 190.1 L1031 191.9 L1029 193.8 L1026 193.8 L1024 195.6 L1024 199.3 L1031 199.3 "/>
<path stroke="rgb(0, 0, 0)" fill="none" d="M1037 199.3 L1035 197.4 L1035 190.1 L1037 188.3 L1039 188.3 L1040 190.1 L1040 197.4 L1039 199.3 L1037 199.3 "/>
<path stroke="rgb(0, 0, 0)" fill="none" d="M1057 190.1 L1059 188.3 L1062 188.3 L1064 190.1 L1064 191.9 L1062 193.8 L1059 193.8 L1057 195.6 L1057 199.3 L1064 199.3 "/>
<path stroke="rgb(0, 0, 0)" fill="none" d="M1068 190.1 L1070 188.3 L1073 188.3 L1075 190.1 L1075 191.9 L1073 193.8 L1072 193.8 M1073 193.8 L1075 195.6 L1075 197.4 L1073 199.3 L1070 199.3 L1068 197.4 "/>
<path stroke="rgb(0, 0, 0)" fill="none" d="M1081 199.3 L1079 197.4 L1079 190.1 L1081 188.3 L1083 188.3 L1084 190.1 L1084 197.4 L1083 199.3 L1081 199.3 "/>
<path stroke="rgb(0, 0, 0)" fill="none" d="M1101 190.1 L1103 188.3 L1106 188.3 L1108 190.1 L1108 191.9 L1106 193.8 L1103 193.8 L1101 195.6 L1101 199.3 L1108 199.3 "/>
<path stroke="rgb(0, 0, 0)" fill="none" d="M1119 195.6 L1112 195.6 L1117 188.3 L1117 199.3 "/>
<path stroke="rgb(0, 0, 0)" fill="none" d="M1125 199.3 L1123 197.4 L1123 190.1 L1125 188.3 L1127 188.3 L1128 190.1 L1128 197.4 L1127 199.3 L1125 199.3 "/>
<path stroke="rgb(0, 0, 0)" fill="none" d="M55 459.2 L53.17 457.4 L53.17 450.1 L55 448.2 L56.83 448.2 L58.67 450.1 L58.67 457.4 L56.83 459.2 L55 459.2 "/>
<path stroke="rgb(0, 0, 0)" fill="none" d="M51.33 494.1 L53.17 492.2 L56.83 492.2 L58.67 494.1 L58.67 495.9 L56.83 497.7 L53.17 497.7 L51.33 499.6 L51.33 503.2 L58.67 503.2 "/>
<path stroke="rgb(0, 0, 0)" fill="none" d="M58.67 543.6 L51.33 543.6 L56.83 536.2 L56.83 547.2 "/>
<path stroke="rgb(0, 0, 0)" fill="none" d="M51.33 585.7 L56.83 585.7 L58.67 587.6 L58.67 589.4 L56.83 591.2 L53.17 591.2 L51.33 589.4 L51.33 583.9 L55 580.2 L56.83 580.2 "/>
<path stroke="rgb(0, 0, 0)" fill="none" d="M53.17 635.2 L51.33 633.4 L51.33 631.6 L53.17 629.7 L56.83 629.7 L58.67 627.9 L58.67 626.1 L56.83 624.2 L53.17 624.2 L51.33 626.1 L51.33 627.9 L53.17 629.7 M56.83 629.7 L58.67 631.6 L58.67 633.4 L56.83 635.2 L53.17 635.2 "/>
<path stroke="rgb(0, 0, 0)" fill="none" d="M55 406.1 L56.83 404.2 L56.83 415.2 M55 415.2 L58.67 415.2 "/>
<path stroke="rgb(0, 0, 0)" fill="none" d="M51.33 362.1 L53.17 360.2 L56.83 360.2 L58.67 362.1 L58.67 363.9 L56.83 365.7 L55 365.7 M56.83 365.7 L58.67 367.6 L58.67 369.4 L56.83 371.2 L53.17 371.2 L51.33 369.4 "/>
<path stroke="rgb(0, 0, 0)" fill="none" d="M51.33 325.4 L53.17 327.2 L56.83 327.2 L58.67 325.4 L58.67 321.7 L56.83 319.9 L51.33 319.9 L51.33 316.2 L58.67 316.2 "/>
<path stroke="rgb(0, 0, 0)" fill="none" d="M51.33 272.2 L58.67 272.2 L53.17 283.2 "/>
<path stroke="rgb(0, 0, 0)" fill="none" d="M53.17 239.2 L55 239.2 L58.67 235.6 L58.67 230.1 L56.83 228.2 L53.17 228.2 L51.33 230.1 L51.33 231.9 L53.17 233.7 L58.67 233.7 "/>
<path fill="rgb(255, 0, 0)" stroke="none" d="M80.67 475.7 L80.67 431.7 L124.7 431.7 L124.7 475.7 L80.67 475.7 "/>
<path fill="rgb(255, 64, 0)" stroke="none" d="M124.7 475.7 L124.7 431.7 L168.7 431.7 L168.7 475.7 L124.7 475.7 "/>
<path fill="rgb(255, 128, 0)" stroke="none" d="M168.7 475.7 L168.7 431.7 L212.7 431.7 L212.7 475.7 L168.7 475.7 "/>
<path fill="rgb(255, 191, 0)" stroke="none" d="M212.7 475.7 L212.7 431.7 L256.7 431.7 L256.7 475.7 L212.7 475.7 "/>
<path fill="rgb(255, 255, 0)" stroke="none" d="M256.7 475.7 L256.7 431.7 L300.7 431.7 L300.7 475.7 L256.7 475.7 "/>
<path fill="rgb(191, 255, 0)" stroke="none" d="M300.7 475.7 L300.7 431.7 L344.7 431.7 L344.7 475.7 L300.7 475.7 "/>
<path fill="rgb(128, 255, 0)" stroke="none" d="M344.7 475.7 L344.7 431.7 L388.7 431.7 L388.7 475.7 L344.7 475.7 "/>
<path fill="rgb(64, 255, 0)" stroke="none" d="M388.7 475.7 L388.7 431.7 L432.7 431.7 L432.7 475.7 L388.7 475.7 "/>
<path fill="rgb(0, 255, 0)" stroke="none" d="M432.7 475.7 L432.7 431.7 L476.7 431.7 L476.7 475.7 L432.7 475.7 "/>
<path fill="rgb(0, 255, 64)" stroke="none" d="M476.7 475.7 L476.7 431.7 L520.7 431.7 L520.7 475.7 L476.7 475.7 "/>
<path fill="rgb(0, 255, 128)" stroke="none" d="M520.7 475.7 L520.7 431.7 L564.7 431.7 L564.7 475.7 L520.7 475.7 "/>
<path fill="rgb(0, 255, 191)" stroke="none" d="M564.7 475.7 L564.7 431.7 L608.7 431.7 L608.7 475.7 L564.7 475.7 "/>
<path fill="rgb(0, 255, 255)" stroke="none" d="M608.7 475.7 L608.7 431.7 L652.7 431.7 L652.7 475.7 L608.7 475.7 "/>
<path fill="rgb(0, 191, 255)" stroke="none" d="M652.7 475.7 L652.7 431.7 L696.7 431.7 L696.7 475.7 L652.7 475.7 "/>
<path fill="rgb(0, 128, 255)" stroke="none" d="M696.7 475.7 L696.7 431.7 L740.7 431.7 L740.7 475.7 L696.7 475.7 "/>
<path fill="rgb(0, 64, 255)" stroke="none" d="M740.7 475.7 L740.7 431.7 L784.7 431.7 L784.7 475.7 L740.7 475.7 "/>
<path fill="rgb(0, 0, 255)" stroke="none" d="M784.7 475.7 L784.7 431.7 L828.7 431.7 L828.7 475.7 L784.7 475.7 "/>
<path fill="rgb(64, 0, 255)" stroke="none" d="M828.7 475.7 L828.7 431.7 L872.7 431.7 L872.7 475.7 L828.7 475.7 "/>
<path fill="rgb(128, 0, 255)" stroke="none" d="M872.7 475.7 L872.7 431.7 L916.7 431.7 L916.7 475.7 L872.7 475.7 "/>
<path fill="rgb(191, 0, 255)" stroke="none" d="M916.7 475.7 L916.7 431.7 L960.7 431.7 L960.7 475.7 L916.7 475.7 "/>
<path fill="rgb(255, 0, 255)" stroke="none" d="M960.7 475.7 L960.7 431.7 L1005 431.7 L1005 475.7 L960.7 475.7 "/>
<path fill="rgb(255, 0, 191)" stroke="none" d="M1005 475.7 L1005 431.7 L1049 431.7 L1049 475.7 L1005 475.7 "/>
<path fill="rgb(255, 0, 128)" stroke="none" d="M1049 475.7 L1049 431.7 L1093 431.7 L1093 475.7 L1049 475.7 "/>
<path fill="rgb(255, 0, 64)" stroke="none" d="M1093 475.7 L1093 431.7 L1137 431.7 L1137 475.7 L1093 475.7 "/>
<path fill="rgb(221, 0, 0)" stroke="none" d="M80.67 519.7 L80.67 475.7 L124.7 475.7 L124.7 519.7 L80.67 519.7 "/>
<path fill="rgb(221, 55, 0)" stroke="none" d="M124.7 519.7 L124.7 475.7 L168.7 475.7 L168.7 519.7 L124.7 519.7 "/>
<path fill="rgb(221, 111, 0)" stroke="none" d="M168.7 519.7 L168.7 475.7 L212.7 475.7 L212.7 519.7 L168.7 519.7 "/>
<path fill="rgb(221, 166, 0)" stroke="none" d="M212.7 519.7 L212.7 475.7 L256.7 475.7 L256.7 519.7 L212.7 519.7 "/>
<path fill="rgb(221, 221, 0)" stroke="none" d="M256.7 519.7 L256.7 475.7 L300.7 475.7 L300.7 519.7 L256.7 519.7 "/>
<path fill="rgb(166, 221, 0)" stroke="none" d="M300.7 519.7 L300.7 475.7 L344.7 475.7 L344.7 519.7 L300.7 519.7 "/>
<path fill="rgb(111, 221, 0)" stroke="none" d="M344.7 519.7 L344.7 475.7 L388.7 475.7 L388.7 519.7 L344.7 519.7 "/>
<path fill="rgb(55, 221, 0)" stroke="none" d="M388.7 519.7 L388.7 475.7 L432.7 475.7 L432.7 519.7 L388.7 519.7 "/>
<path fill="rgb(0, 221, 0)" stroke="none" d="M432.7 519.7 L432.7 475.7 L476.7 475.7 L476.7 519.7 L432.7 519.7 "/>
<path fill="rgb(0, 221, 55)" stroke="none" d="M476.7 519.7 L476.7 475.7 L520.7 475.7 L520.7 519.7 L476.7 519.7 "/>
<path fill="rgb(0, 221, 111)" stroke="none" d="M520.7 519.7 L520.7 475.7 L564.7 475.7 L564.7 519.7 L520.7 519.7 "/>
<path fill="rgb(0, 221, 166)" stroke="none" d="M564.7 519.7 L564.7 475.7 L608.7 475.7 L608.7 519.7 L564.7 519.7 "/>
<path fill="rgb(0, 221, 221)" stroke="none" d="M608.7 519.7 L608.7 475.7 L652.7 475.7 L652.7 519.7 L608.7 519.7 "/>
<path fill="rgb(0, 166, 221)" stroke="none" d="M652.7 519.7 L652.7 475.7 L696.7 475.7 L696.7 519.7 L652.7 519.7 "/>
<path fill="rgb(0, 111, 221)" stroke="none" d="M696.7 519.7 L696.7 475.7 L740.7 475.7 L740.7 519.7 L696.7 519.7 "/>
<path fill="rgb(0, 55, 221)" stroke="none" d="M740.7 519.7 L740.7 475.7 L784.7 475.7 L784.7 519.7 L740.7 519.7 "/>
<path fill="rgb(0, 0, 221)" stroke="none" d="M784.7 519.7 L784.7 475.7 L828.7 475.7 L828.7 519.7 L784.7 519.7 "/>
<path fill="rgb(55, 0, 221)" stroke="none" d="M828.7 519.7 L828.7 475.7 L872.7 475.7 L872.7 519.7 L828.7 519.7 "/>
<path fill="rgb(111, 0, 221)" stroke="none" d="M872.7 519.7 L872.7 475.7 L916.7 475.7 L916.7 519.7 L872.7 519.7 "/>
<path fill="rgb(166, 0, 221)" stroke="none" d="M916.7 519.7 L916.7 475.7 L960.7 475.7 L960.7 519.7 L916.7 519.7 "/>
<path fill="rgb(221, 0, 221)" stroke="none" d="M960.7 519.7 L960.7 475.7 L1005 475.7 L1005 519.7 L960.7 519.7 "/>
<path fill="rgb(221, 0, 166)" stroke="none" d="M1005 519.7 L1005 475.7 L1049 475.7 L1049 519.7 L1005 519.7 "/>
<path fill="rgb(221, 0, 111)" stroke="none" d="M1049 519.7 L1049 475.7 L1093 475.7 L1093 519.7 L1049 519.7 "/>
<path fill="rgb(221, 0, 55)" stroke="none" d="M1093 519.7 L1093 475.7 L1137 475.7 L1137 519.7 L1093 519.7 "/>
<path fill="rgb(184, 0, 0)" stroke="none" d="M80.67 563.7 L80.67 519.7 L124.7 519.7 L124.7 563.7 L80.67 563.7 "/>
<path fill="rgb(184, 46, 0)" stroke="none" d="M124.7 563.7 L124.7 519.7 L168.7 519.7 L168.7 563.7 L124.7 563.7 "/>
<path fill="rgb(184, 92, 0)" stroke="none" d="M168.7 563.7 L168.7 519.7 L212.7 519.7 L212.7 563.7 L168.7 563.7 "/>
<path fill="rgb(184, 138, 0)" stroke="none" d="M212.7 563.7 L212.7 519.7 L256.7 519.7 L256.7 563.7 L212.7 563.7 "/>
<path fill="rgb(184, 184, 0)" stroke="none" d="M256.7 563.7 L256.7 519.7 L300.7 519.7 L300.7 563.7 L256.7 563.7 "/>
<path fill="rgb(138, 184, 0)" stroke="none" d="M300.7 563.7 L300.7 519.7 L344.7 519.7 L344.7 563.7 L300.7 563.7 "/>
<path fill="rgb(92, 184, 0)" stroke="none" d="M344.7 563.7 L344.7 519.7 L388.7 519.7 L388.7 563.7 L344.7 563.7 "/>
<path fill="rgb(46, 184, 0)" stroke="none" d="M388.7 563.7 L388.7 519.7 L432.7 519.7 L432.7 563.7 L388.7 563.7 "/>
<path fill="rgb(0, 184, 0)" stroke="none" d="M432.7 563.7 L432.7 519.7 L476.7 519.7 L476.7 563.7 L432.7 563.7 "/>
<path fill="rgb(0, 184, 46)" stroke="none" d="M476.7 563.7 L476.7 519.7 L520.7 519.7 L520.7 563.7 L476.7 563.7 "/>
<path fill="rgb(0, 184, 92)" stroke="none" d="M520.7 563.7 L520.7 519.7 L564.7 519.7 L564.7 563.7 L520.7 563.7 "/>
<path fill="rgb(0, 184, 138)" stroke="none" d="M564.7 563.7 L564.7 519.7 L608.7 519.7 L608.7 563.7 L564.7 563.7 "/>
<path fill="rgb(0, 184, 184)" stroke="none" d="M608.7 563.7 L608.7 519.7 L652.7 519.7 L652.7 563.7 L608.7 563.7 "/>
<path fill="rgb(0, 138, 184)" stroke="none" d="M652.7 563.7 L652.7 519.7 L696.7 519.7 L696.7 563.7 L652.7 563.7 "/>
<path fill="rgb(0, 92, 184)" stroke="none" d="M696.7 563.7 L696.7 519.7 L740.7 519.7 L740.7 563.7 L696.7 563.7 "/>
<path fill="rgb(0, 46, 184)" stroke="none" d="M740.7 563.7 L740.7 519.7 L784.7 519.7 L784.7 563.7 L740.7 563.7 "/>
<path fill="rgb(0, 0, 184)" stroke="none" d="M784.7 563.7 L784.7 519.7 L828.7 519.7 L828.7 563.7 L784.7 563.7 "/>
<path fill="rgb(46, 0, 184)" stroke="none" d="M828.7 563.7 L828.7 519.7 L872.7 519.7 L872.7 563.7 L828.7 563.7 "/>
<path fill="rgb(92, 0, 184)" stroke="none" d="M872.7 563.7 L872.7 519.7 L916.7 519.7 L916.7 563.7 L872.7 563.7 "/>
<path fill="rgb(138, 0, 184)" stroke="none" d="M916.7 563.7 L916.7 519.7 L960.7 519.7 L960.7 563.7 L916.7 563.7 "/>
<path fill="rgb(184, 0, 184)" stroke="none" d="M960.7 563.7 L960.7 519.7 L1005 519.7 L1005 563.7 L960.7 563.7 "/>
<path fill="rgb(184, 0, 138)" stroke="none" d="M1005 563.7 L1005 519.7 L1049 519.7 L1049 563.7 L1005 563.7 "/>
<path fill="rgb(184, 0, 92)" stroke="none" d="M1049 563.7 L1049 519.7 L1093 519.7 L1093 563.7 L1049 563.7 "/>
<path fill="rgb(184, 0, 46)" stroke="none" d="M1093 563.7 L1093 519.7 L1137 519.7 L1137 563.7 L1093 563.7 "/>
<path fill="rgb(149, 0, 0)" stroke="none" d="M80.67 607.7 L80.67 563.7 L124.7 563.7 L124.7 607.7 L80.67 607.7 "/>
<path fill="rgb(149, 37, 0)" stroke="none" d="M124.7 607.7 L124.7 563.7 L168.7 563.7 L168.7 607.7 L124.7 607.7 "/>
<path fill="rgb(149, 75, 0)" stroke="none" d="M168.7 607.7 L168.7 563.7 L212.7 563.7 L212.7 607.7 L168.7 607.7 "/>
<path fill="rgb(149, 112, 0)" stroke="none" d="M212.7 607.7 L212.7 563.7 L256.7 563.7 L256.7 607.7 L212.7 607.7 "/>
<path fill="rgb(149, 149, 0)" stroke="none" d="M256.7 607.7 L256.7 563.7 L300.7 563.7 L300.7 607.7 L256.7 607.7 "/>
<path fill="rgb(112, 149, 0)" stroke="none" d="M300.7 607.7 L300.7 563.7 L344.7 563.7 L344.7 607.7 L300.7 607.7 "/>
<path fill="rgb(75, 149, 0)" stroke="none" d="M344.7 607.7 L344.7 563.7 L388.7 563.7 L388.7 607.7 L344.7 607.7 "/>
<path fill="rgb(37, 149, 0)" stroke="none" d="M388.7 607.7 L388.7 563.7 L432.7 563.7 L432.7 607.7 L388.7 607.7 "/>
<path fill="rgb(0, 149, 0)" stroke="none" d="M432.7 607.7 L432.7 563.7 L476.7 563.7 L476.7 607.7 L432.7 607.7 "/>
<path fill="rgb(0, 149, 37)" stroke="none" d="M476.7 607.7 L476.7 563.7 L520.7 563.7 L520.7 607.7 L476.7 607.7 "/>
<path fill="rgb(0, 149, 75)" stroke="none" d="M520.7 607.7 L520.7 563.7 L564.7 563.7 L564.7 607.7 L520.7 607.7 "/>
<path fill="rgb(0, 149, 112)" stroke="none" d="M564.7 607.7 L564.7 563.7 L608.7 563.7 L608.7 607.7 L564.7 607.7 "/>
<path fill="rgb(0, 149, 149)" stroke="none" d="M608.7 607.7 L608.7 563.7 L652.7 563.7 L652.7 607.7 L608.7 607.7 "/>
<path fill="rgb(0, 112, 149)" stroke="none" d="M652.7 607.7 L652.7 563.7 L696.7 563.7 L696.7 607.7 L652.7 607.7 "/>
<path fill="rgb(0, 75, 149)" stroke="none" d="M696.7 607.7 L696.7 563.7 L740.7 563.7 L740.7 607.7 L696.7 607.7 "/>
<path fill="rgb(0, 37, 149)" stroke="none" d="M740.7 607.7 L740.7 563.7 L784.7 563.7 L784.7 607.7 L740.7 607.7 "/>
<path fill="rgb(0, 0, 149)" stroke="none" d="M784.7 607.7 L784.7 563.7 L828.7 563.7 L828.7 607.7 L784.7 607.7 "/>
<path fill="rgb(37, 0, 149)" stroke="none" d="M828.7 607.7 L828.7 563.7 L872.7 563.7 L872.7 607.7 L828.7 607.7 "/>
<path fill="rgb(75, 0, 149)" stroke="none" d="M872.7 607.7 L872.7 563.7 L916.7 563.7 L916.7 607.7 L872.7 607.7 "/>
<path fill="rgb(112, 0, 149)" stroke="none" d="M916.7 607.7 L916.7 563.7 L960.7 563.7 L960.7 607.7 L916.7 607.7 "/>
<path fill="rgb(149, 0, 149)" stroke="none" d="M960.7 607.7 L960.7 563.7 L1005 563.7 L1005 607.7 L960.7 607.7 "/>
<path fill="rgb(149, 0, 112)" stroke="none" d="M1005 607.7 L1005 563.7 L1049 563.7 L1049 607.7 L1005 607.7 "/>
<path fill="rgb(149, 0, 75)" stroke="none" d="M1049 607.7 L1049 563.7 L1093 563.7 L1093 607.7 L1049 607.7 "/>
<path fill="rgb(149, 0, 37)" stroke="none" d="M1093 607.7 L1093 563.7 L1137 563.7 L1137 607.7 L1093 607.7 "/>
<path fill="rgb(114, 0, 0)" stroke="none" d="M80.67 651.7 L80.67 607.7 L124.7 607.7 L124.7 651.7 L80.67 651.7 "/>
<path fill="rgb(114, 29, 0)" stroke="none" d="M124.7 651.7 L124.7 607.7 L168.7 607.7 L168.7 651.7 L124.7 651.7 "/>
<path fill="rgb(114, 57, 0)" stroke="none" d="M168.7 651.7 L168.7 607.7 L212.7 607.7 L212.7 651.7 L168.7 651.7 "/>
<path fill="rgb(114, 86, 0)" stroke="none" d="M212.7 651.7 L212.7 607.7 L256.7 607.7 L256.7 651.7 L212.7 651.7 "/>
<path fill="rgb(114, 114, 0)" stroke="none" d="M256.7 651.7 L256.7 607.7 L300.7 607.7 L300.7 651.7 L256.7 651.7 "/>
<path fill="rgb(86, 114, 0)" stroke="none" d="M300.7 651.7 L300.7 607.7 L344.7 607.7 L344.7 651.7 L300.7 651.7 "/>
<path fill="rgb(57, 114, 0)" stroke="none" d="M344.7 651.7 L344.7 607.7 L388.7 607.7 L388.7 651.7 L344.7 651.7 "/>
<path fill="rgb(29, 114, 0)" stroke="none" d="M388.7 651.7 L388.7 607.7 L432.7 607.7 L432.7 651.7 L388.7 651.7 "/>
<path fill="rgb(0, 114, 0)" stroke="none" d="M432.7 651.7 L432.7 607.7 L476.7 607.7 L476.7 651.7 L432.7 651.7 "/>
<path fill="rgb(0, 114, 29)" stroke="none" d="M476.7 651.7 L476.7 607.7 L520.7 607.7 L520.7 651.7 L476.7 651.7 "/>
<path fill="rgb(0, 114, 57)" stroke="none" d="M520.7 651.7 L520.7 607.7 L564.7 607.7 L564.7 651.7 L520.7 651.7 "/>
<path fill="rgb(0, 114, 86)" stroke="none" d="M564.7 651.7 L564.7 607.7 L608.7 607.7 L608.7 651.7 L564.7 651.7 "/>
<path fill="rgb(0, 114, 114)" stroke="none" d="M608.7 651.7 L608.7 607.7 L652.7 607.7 L652.7 651.7 L608.7 651.7 "/>
<path fill="rgb(0, 86, 114)" stroke="none" d="M652.7 651.7 L652.7 607.7 L696.7 607.7 L696.7 651.7 L652.7 651.7 "/>
<path fill="rgb(0, 57, 114)" stroke="none" d="M696.7 651.7 L696.7 607.7 L740.7 607.7 L740.7 651.7 L696.7 651.7 "/>
<path fill="rgb(0, 29, 114)" stroke="none" d="M740.7 651.7 L740.7 607.7 L784.7 607.7 L784.7 651.7 L740.7 651.7 "/>
<path fill="rgb(0, 0, 114)" stroke="none" d="M784.7 651.7 L784.7 607.7 L828.7 607.7 L828.7 651.7 L784.7 651.7 "/>
<path fill="rgb(29, 0, 114)" stroke="none" d="M828.7 651.7 L828.7 607.7 L872.7 607.7 L872.7 651.7 L828.7 651.7 "/>
<path fill="rgb(57, 0, 114)" stroke="none" d="M872.7 651.7 L872.7 607.7 L916.7 607.7 L916.7 651.7 L872.7 651.7 "/>
<path fill="rgb(86, 0, 114)" stroke="none" d="M916.7 651.7 L916.7 607.7 L960.7 607.7 L960.7 651.7 L916.7 651.7 "/>
<path fill="rgb(114, 0, 114)" stroke="none" d="M960.7 651.7 L960.7 607.7 L1005 607.7 L1005 651.7 L960.7 651.7 "/>
<path fill="rgb(114, 0, 86)" stroke="none" d="M1005 651.7 L1005 607.7 L1049 607.7 L1049 651.7 L1005 651.7 "/>
<path fill="rgb(114, 0, 57)" stroke="none" d="M1049 651.7 L1049 607.7 L1093 607.7 L1093 651.7 L1049 651.7 "/>
<path fill="rgb(114, 0, 29)" stroke="none" d="M1093 651.7 L1093 607.7 L1137 607.7 L1137 651.7 L1093 651.7 "/>
<path fill="rgb(255, 128, 128)" stroke="none" d="M80.67 431.7 L80.67 387.7 L124.7 387.7 L124.7 431.7 L80.67 431.7 "/>
<path fill="rgb(255, 159, 128)" stroke="none" d="M124.7 431.7 L124.7 387.7 L168.7 387.7 L168.7 431.7 L124.7 431.7 "/>
<path fill="rgb(255, 191, 128)" stroke="none" d="M168.7 431.7 L168.7 387.7 L212.7 387.7 L212.7 431.7 L168.7 431.7 "/>
<path fill="rgb(255, 223, 128)" stroke="none" d="M212.7 431.7 L212.7 387.7 L256.7 387.7 L256.7 431.7 L212.7 431.7 "/>
<path fill="rgb(255, 255, 128)" stroke="none" d="M256.7 431.7 L256.7 387.7 L300.7 387.7 L300.7 431.7 L256.7 431.7 "/>
<path fill="rgb(223, 255, 128)" stroke="none" d="M300.7 431.7 L300.7 387.7 L344.7 387.7 L344.7 431.7 L300.7 431.7 "/>
<path fill="rgb(191, 255, 128)" stroke="none" d="M344.7 431.7 L344.7 387.7 L388.7 387.7 L388.7 431.7 L344.7 431.7 "/>
<path fill="rgb(159, 255, 128)" stroke="none" d="M388.7 431.7 L388.7 387.7 L432.7 387.7 L432.7 431.7 L388.7 431.7 "/>
<path fill="rgb(128, 255, 128)" stroke="none" d="M432.7 431.7 L432.7 387.7 L476.7 387.7 L476.7 431.7 L432.7 431.7 "/>
<path fill="rgb(128, 255, 159)" stroke="none" d="M476.7 431.7 L476.7 387.7 L520.7 387.7 L520.7 431.7 L476.7 431.7 "/>
<path fill="rgb(128, 255, 191)" stroke="none" d="M520.7 431.7 L520.7 387.7 L564.7 387.7 L564.7 431.7 L520.7 431.7 "/>
<path fill="rgb(128, 255, 223)" stroke="none" d="M564.7 431.7 L564.7 387.7 L608.7 387.7 L608.7 431.7 L564.7 431.7 "/>
<path fill="rgb(128, 255, 255)" stroke="none" d="M608.7 431.7 L608.7 387.7 L652.7 387.7 L652.7 431.7 L608.7 431.7 "/>
<path fill="rgb(128, 223, 255)" stroke="none" d="M652.7 431.7 L652.7 387.7 L696.7 387.7 L696.7 431.7 L652.7 431.7 "/>
<path fill="rgb(128, 191, 255)" stroke="none" d="M696.7 431.7 L696.7 387.7 L740.7 387.7 L740.7 431.7 L696.7 431.7 "/>
<path fill="rgb(128, 159, 255)" stroke="none" d="M740.7 431.7 L740.7 387.7 L784.7 387.7 L784.7 431.7 L740.7 431.7 "/>
<path fill="rgb(128, 128, 255)" stroke="none" d="M784.7 431.7 L784.7 387.7 L828.7 387.7 L828.7 431.7 L784.7 431.7 "/>
<path fill="rgb(159, 128, 255)" stroke="none" d="M828.7 431.7 L828.7 387.7 L872.7 387.7 L872.7 431.7 L828.7 431.7 "/>
<path fill="rgb(191, 128, 255)" stroke="none" d="M872.7 431.7 L872.7 387.7 L916.7 387.7 L916.7 431.7 L872.7 431.7 "/>
<path fill="rgb(223, 128, 255)" stroke="none" d="M916.7 431.7 L916.7 387.7 L960.7 387.7 L960.7 431.7 L916.7 431.7 "/>
<path fill="rgb(255, 128, 255)" stroke="none" d="M960.7 431.7 L960.7 387.7 L1005 387.7 L1005 431.7 L960.7 431.7 "/>
<path fill="rgb(255, 128, 223)" stroke="none" d="M1005 431.7 L1005 387.7 L1049 387.7 L1049 431.7 L1005 431.7 "/>
<path fill="rgb(255, 128, 191)" stroke="none" d="M1049 431.7 L1049 387.7 L1093 387.7 L1093 431.7 L1049 431.7 "/>
<path fill="rgb(255, 128, 159)" stroke="none" d="M1093 431.7 L1093 387.7 L1137 387.7 L1137 431.7 L1093 431.7 "/>
<path fill="rgb(221, 111, 111)" stroke="none" d="M80.67 387.7 L80.67 343.7 L124.7 343.7 L124.7 387.7 L80.67 387.7 "/>
<path fill="rgb(221, 138, 111)" stroke="none" d="M124.7 387.7 L124.7 343.7 L168.7 343.7 L168.7 387.7 L124.7 387.7 "/>
<path fill="rgb(221, 166, 111)" stroke="none" d="M168.7 387.7 L168.7 343.7 L212.7 343.7 L212.7 387.7 L168.7 387.7 "/>
<path fill="rgb(221, 193, 111)" stroke="none" d="M212.7 387.7 L212.7 343.7 L256.7 343.7 L256.7 387.7 L212.7 387.7 "/>
<path fill="rgb(221, 221, 111)" stroke="none" d="M256.7 387.7 L256.7 343.7 L300.7 343.7 L300.7 387.7 L256.7 387.7 "/>
<path fill="rgb(193, 221, 111)" stroke="none" d="M300.7 387.7 L300.7 343.7 L344.7 343.7 L344.7 387.7 L300.7 387.7 "/>
<path fill="rgb(166, 221, 111)" stroke="none" d="M344.7 387.7 L344.7 343.7 L388.7 343.7 L388.7 387.7 L344.7 387.7 "/>
<path fill="rgb(138, 221, 111)" stroke="none" d="M388.7 387.7 L388.7 343.7 L432.7 343.7 L432.7 387.7 L388.7 387.7 "/>
<path fill="rgb(111, 221, 111)" stroke="none" d="M432.7 387.7 L432.7 343.7 L476.7 343.7 L476.7 387.7 L432.7 387.7 "/>
<path fill="rgb(111, 221, 138)" stroke="none" d="M476.7 387.7 L476.7 343.7 L520.7 343.7 L520.7 387.7 L476.7 387.7 "/>
<path fill="rgb(111, 221, 166)" stroke="none" d="M520.7 387.7 L520.7 343.7 L564.7 343.7 L564.7 387.7 L520.7 387.7 "/>
<path fill="rgb(111, 221, 193)" stroke="none" d="M564.7 387.7 L564.7 343.7 L608.7 343.7 L608.7 387.7 L564.7 387.7 "/>
<path fill="rgb(111, 221, 221)" stroke="none" d="M608.7 387.7 L608.7 343.7 L652.7 343.7 L652.7 387.7 L608.7 387.7 "/>
<path fill="rgb(111, 193, 221)" stroke="none" d="M652.7 387.7 L652.7 343.7 L696.7 343.7 L696.7 387.7 L652.7 387.7 "/>
<path fill="rgb(111, 166, 221)" stroke="none" d="M696.7 387.7 L696.7 343.7 L740.7 343.7 L740.7 387.7 L696.7 387.7 "/>
<path fill="rgb(111, 138, 221)" stroke="none" d="M740.7 387.7 L740.7 343.7 L784.7 343.7 L784.7 387.7 L740.7 387.7 "/>
<path fill="rgb(111, 111, 221)" stroke="none" d="M784.7 387.7 L784.7 343.7 L828.7 343.7 L828.7 387.7 L784.7 387.7 "/>
<path fill="rgb(138, 111, 221)" stroke="none" d="M828.7 387.7 L828.7 343.7 L872.7 343.7 L872.7 387.7 L828.7 387.7 "/>
<path fill="rgb(166, 111, 221)" stroke="none" d="M872.7 387.7 L872.7 343.7 L916.7 343.7 L916.7 387.7 L872.7 387.7 "/>
<path fill="rgb(193, 111, 221)" stroke="none" d="M916.7 387.7 L916.7 343.7 L960.7 343.7 L960.7 387.7 L916.7 387.7 "/>
<path fill="rgb(221, 111, 221)" stroke="none" d="M960.7 387.7 L960.7 343.7 L1005 343.7 L1005 387.7 L960.7 387.7 "/>
<path fill="rgb(221, 111, 193)" stroke="none" d="M1005 387.7 L1005 343.7 L1049 343.7 L1049 387.7 L1005 387.7 "/>
<path fill="rgb(221, 111, 166)" stroke="none" d="M1049 387.7 L1049 343.7 L1093 343.7 L1093 387.7 L1049 387.7 "/>
<path fill="rgb(221, 111, 138)" stroke="none" d="M1093 387.7 L1093 343.7 L1137 343.7 L1137 387.7 L1093 387.7 "/>
<path fill="rgb(184, 92, 92)" stroke="none" d="M80.67 343.7 L80.67 299.7 L124.7 299.7 L124.7 343.7 L80.67 343.7 "/>
<path fill="rgb(184, 115, 92)" stroke="none" d="M124.7 343.7 L124.7 299.7 L168.7 299.7 L168.7 343.7 L124.7 343.7 "/>
<path fill="rgb(184, 138, 92)" stroke="none" d="M168.7 343.7 L168.7 299.7 L212.7 299.7 L212.7 343.7 L168.7 343.7 "/>
<path fill="rgb(184, 161, 92)" stroke="none" d="M212.7 343.7 L212.7 299.7 L256.7 299.7 L256.7 343.7 L212.7 343.7 "/>
<path fill="rgb(184, 184, 92)" stroke="none" d="M256.7 343.7 L256.7 299.7 L300.7 299.7 L300.7 343.7 L256.7 343.7 "/>
<path fill="rgb(161, 184, 92)" stroke="none" d="M300.7 343.7 L300.7 299.7 L344.7 299.7 L344.7 343.7 L300.7 343.7 "/>
<path fill="rgb(138, 184, 92)" stroke="none" d="M344.7 343.7 L344.7 299.7 L388.7 299.7 L388.7 343.7 L344.7 343.7 "/>
<path fill="rgb(115, 184, 92)" stroke="none" d="M388.7 343.7 L388.7 299.7 L432.7 299.7 L432.7 343.7 L388.7 343.7 "/>
<path fill="rgb(92, 184, 92)" stroke="none" d="M432.7 343.7 L432.7 299.7 L476.7 299.7 L476.7 343.7 L432.7 343.7 "/>
<path fill="rgb(92, 184, 115)" stroke="none" d="M476.7 343.7 L476.7 299.7 L520.7 299.7 L520.7 343.7 L476.7 343.7 "/>
<path fill="rgb(92, 184, 138)" stroke="none" d="M520.7 343.7 L520.7 299.7 L564.7 299.7 L564.7 343.7 L520.7 343.7 "/>
<path fill="rgb(92, 184, 161)" stroke="none" d="M564.7 343.7 L564.7 299.7 L608.7 299.7 L608.7 343.7 L564.7 343.7 "/>
<path fill="rgb(92, 184, 184)" stroke="none" d="M608.7 343.7 L608.7 299.7 L652.7 299.7 L652.7 343.7 L608.7 343.7 "/>
<path fill="rgb(92, 161, 184)" stroke="none" d="M652.7 343.7 L652.7 299.7 L696.7 299.7 L696.7 343.7 L652.7 343.7 "/>
<path fill="rgb(92, 138, 184)" stroke="none" d="M696.7 343.7 L696.7 299.7 L740.7 299.7 L740.7 343.7 L696.7 343.7 "/>
<path fill="rgb(92, 115, 184)" stroke="none" d="M740.7 343.7 L740.7 299.7 L784.7 299.7 L784.7 343.7 L740.7 343.7 "/>
<path fill="rgb(92, 92, 184)" stroke="none" d="M784.7 343.7 L784.7 299.7 L828.7 299.7 L828.7 343.7 L784.7 343.7 "/>
<path fill="rgb(115, 92, 184)" stroke="none" d="M828.7 343.7 L828.7 299.7 L872.7 299.7 L872.7 343.7 L828.7 343.7 "/>
<path fill="rgb(138, 92, 184)" stroke="none" d="M872.7 343.7 L872.7 299.7 L916.7 299.7 L916.7 343.7 L872.7 343.7 "/>
<path fill="rgb(161, 92, 184)" stroke="none" d="M916.7 343.7 L916.7 299.7 L960.7 299.7 L960.7 343.7 L916.7 343.7 "/>
<path fill="rgb(184, 92, 184)" stroke="none" d="M960.7 343.7 L960.7 299.7 L1005 299.7 L1005 343.7 L960.7 343.7 "/>
<path fill="rgb(184, 92, 161)" stroke="none" d="M1005 343.7 L1005 299.7 L1049 299.7 L1049 343.7 L1005 343.7 "/>
<path fill="rgb(184, 92, 138)" stroke="none" d="M1049 343.7 L1049 299.7 L1093 299.7 L1093 343.7 L1049 343.7 "/>
<path fill="rgb(184, 92, 115)" stroke="none" d="M1093 343.7 L1093 299.7 L1137 299.7 L1137 343.7 L1093 343.7 "/>
<path fill="rgb(149, 75, 75)" stroke="none" d="M80.67 299.7 L80.67 255.7 L124.7 255.7 L124.7 299.7 L80.67 299.7 "/>
<path fill="rgb(149, 93, 75)" stroke="none" d="M124.7 299.7 L124.7 255.7 L168.7 255.7 L168.7 299.7 L124.7 299.7 "/>
<path fill="rgb(149, 112, 75)" stroke="none" d="M168.7 299.7 L168.7 255.7 L212.7 255.7 L212.7 299.7 L168.7 299.7 "/>
<path fill="rgb(149, 130, 75)" stroke="none" d="M212.7 299.7 L212.7 255.7 L256.7 255.7 L256.7 299.7 L212.7 299.7 "/>
<path fill="rgb(149, 149, 75)" stroke="none" d="M256.7 299.7 L256.7 255.7 L300.7 255.7 L300.7 299.7 L256.7 299.7 "/>
<path fill="rgb(130, 149, 75)" stroke="none" d="M300.7 299.7 L300.7 255.7 L344.7 255.7 L344.7 299.7 L300.7 299.7 "/>
<path fill="rgb(112, 149, 75)" stroke="none" d="M344.7 299.7 L344.7 255.7 L388.7 255.7 L388.7 299.7 L344.7 299.7 "/>
<path fill="rgb(93, 149, 75)" stroke="none" d="M388.7 299.7 L388.7 255.7 L432.7 255.7 L432.7 299.7 L388.7 299.7 "/>
<path fill="rgb(75, 149, 75)" stroke="none" d="M432.7 299.7 L432.7 255.7 L476.7 255.7 L476.7 299.7 L432.7 299.7 "/>
<path fill="rgb(75, 149, 93)" stroke="none" d="M476.7 299.7 L476.7 255.7 L520.7 255.7 L520.7 299.7 L476.7 299.7 "/>
<path fill="rgb(75, 149, 112)" stroke="none" d="M520.7 299.7 L520.7 255.7 L564.7 255.7 L564.7 299.7 L520.7 299.7 "/>
<path fill="rgb(75, 149, 130)" stroke="none" d="M564.7 299.7 L564.7 255.7 L608.7 255.7 L608.7 299.7 L564.7 299.7 "/>
<path fill="rgb(75, 149, 149)" stroke="none" d="M608.7 299.7 L608.7 255.7 L652.7 255.7 L652.7 299.7 L608.7 299.7 "/>
<path fill="rgb(75, 130, 149)" stroke="none" d="M652.7 299.7 L652.7 255.7 L696.7 255.7 L696.7 299.7 L652.7 299.7 "/>
<path fill="rgb(75, 112, 149)" stroke="none" d="M696.7 299.7 L696.7 255.7 L740.7 255.7 L740.7 299.7 L696.7 299.7 "/>
<path fill="rgb(75, 93, 149)" stroke="none" d="M740.7 299.7 L740.7 255.7 L784.7 255.7 L784.7 299.7 L740.7 299.7 "/>
<path fill="rgb(75, 75, 149)" stroke="none" d="M784.7 299.7 L784.7 255.7 L828.7 255.7 L828.7 299.7 L784.7 299.7 "/>
<path fill="rgb(93, 75, 149)" stroke="none" d="M828.7 299.7 L828.7 255.7 L872.7 255.7 L872.7 299.7 L828.7 299.7 "/>
<path fill="rgb(112, 75, 149)" stroke="none" d="M872.7 299.7 L872.7 255.7 L916.7 255.7 L916.7 299.7 L872.7 299.7 "/>
<path fill="rgb(130, 75, 149)" stroke="none" d="M916.7 299.7 L916.7 255.7 L960.7 255.7 L960.7 299.7 L916.7 299.7 "/>
<path fill="rgb(149, 75, 149)" stroke="none" d="M960.7 299.7 L960.7 255.7 L1005 255.7 L1005 299.7 L960.7 299.7 "/>
<path fill="rgb(149, 75, 130)" stroke="none" d="M1005 299.7 L1005 255.7 L1049 255.7 L1049 299.7 L1005 299.7 "/>
<path fill="rgb(149, 75, 112)" stroke="none" d="M1049 299.7 L1049 255.7 L1093 255.7 L1093 299.7 L1049 299.7 "/>
<path fill="rgb(149, 75, 93)" stroke="none" d="M1093 299.7 L1093 255.7 L1137 255.7 L1137 299.7 L1093 299.7 "/>
<path fill="rgb(114, 57, 57)" stroke="none" d="M80.67 255.7 L80.67 211.7 L124.7 211.7 L124.7 255.7 L80.67 255.7 "/>
<path fill="rgb(114, 71, 57)" stroke="none" d="M124.7 255.7 L124.7 211.7 L168.7 211.7 L168.7 255.7 L124.7 255.7 "/>
<path fill="rgb(114, 86, 57)" stroke="none" d="M168.7 255.7 L168.7 211.7 L212.7 211.7 L212.7 255.7 L168.7 255.7 "/>
<path fill="rgb(114, 100, 57)" stroke="none" d="M212.7 255.7 L212.7 211.7 L256.7 211.7 L256.7 255.7 L212.7 255.7 "/>
<path fill="rgb(114, 114, 57)" stroke="none" d="M256.7 255.7 L256.7 211.7 L300.7 211.7 L300.7 255.7 L256.7 255.7 "/>
<path fill="rgb(100, 114, 57)" stroke="none" d="M300.7 255.7 L300.7 211.7 L344.7 211.7 L344.7 255.7 L300.7 255.7 "/>
<path fill="rgb(86, 114, 57)" stroke="none" d="M344.7 255.7 L344.7 211.7 L388.7 211.7 L388.7 255.7 L344.7 255.7 "/>
<path fill="rgb(71, 114, 57)" stroke="none" d="M388.7 255.7 L388.7 211.7 L432.7 211.7 L432.7 255.7 L388.7 255.7 "/>
<path fill="rgb(57, 114, 57)" stroke="none" d="M432.7 255.7 L432.7 211.7 L476.7 211.7 L476.7 255.7 L432.7 255.7 "/>
<path fill="rgb(57, 114, 71)" stroke="none" d="M476.7 255.7 L476.7 211.7 L520.7 211.7 L520.7 255.7 L476.7 255.7 "/>
<path fill="rgb(57, 114, 86)" stroke="none" d="M520.7 255.7 L520.7 211.7 L564.7 211.7 L564.7 255.7 L520.7 255.7 "/>
<path fill="rgb(57, 114, 100)" stroke="none" d="M564.7 255.7 L564.7 211.7 L608.7 211.7 L608.7 255.7 L564.7 255.7 "/>
<path fill="rgb(57, 114, 114)" stroke="none" d="M608.7 255.7 L608.7 211.7 L652.7 211.7 L652.7 255.7 L608.7 255.7 "/>
<path fill="rgb(57, 100, 114)" stroke="none" d="M652.7 255.7 L652.7 211.7 L696.7 211.7 L696.7 255.7 L652.7 255.7 "/>
<path fill="rgb(57, 86, 114)" stroke="none" d="M696.7 255.7 L696.7 211.7 L740.7 211.7 L740.7 255.7 L696.7 255.7 "/>
<path fill="rgb(57, 71, 114)" stroke="none" d="M740.7 255.7 L740.7 211.7 L784.7 211.7 L784.7 255.7 L740.7 255.7 "/>
<path fill="rgb(57, 57, 114)" stroke="none" d="M784.7 255.7 L784.7 211.7 L828.7 211.7 L828.7 255.7 L784.7 255.7 "/>
<path fill="rgb(71, 57, 114)" stroke="none" d="M828.7 255.7 L828.7 211.7 L872.7 211.7 L872.7 255.7 L828.7 255.7 "/>
<path fill="rgb(86, 57, 114)" stroke="none" d="M872.7 255.7 L872.7 211.7 L916.7 211.7 L916.7 255.7 L872.7 255.7 "/>
<path fill="rgb(100, 57, 114)" stroke="none" d="M916.7 255.7 L916.7 211.7 L960.7 211.7 L960.7 255.7 L916.7 255.7 "/>
<path fill="rgb(114, 57, 114)" stroke="none" d="M960.7 255.7 L960.7 211.7 L1005 211.7 L1005 255.7 L960.7 255.7 "/>
<path fill="rgb(114, 57, 100)" stroke="none" d="M1005 255.7 L1005 211.7 L1049 211.7 L1049 255.7 L1005 255.7 "/>
<path fill="rgb(114, 57, 86)" stroke="none" d="M1049 255.7 L1049 211.7 L1093 211.7 L1093 255.7 L1049 255.7 "/>
<path fill="rgb(114, 57, 71)" stroke="none" d="M1093 255.7 L1093 211.7 L1137 211.7 L1137 255.7 L1093 255.7 "/>
<path stroke="rgb(0, 0, 0)" fill="none" d="M110.9 718.1 L112.7 716.3 L116.4 716.3 L118.2 718.1 L118.2 719.9 L116.4 721.8 L112.7 721.8 L110.9 723.6 L110.9 727.3 L118.2 727.3 "/>
<path stroke="rgb(0, 0, 0)" fill="none" d="M121.9 725.4 L123.7 727.3 L127.4 727.3 L129.2 725.4 L129.2 721.8 L127.4 719.9 L121.9 719.9 L121.9 716.3 L129.2 716.3 "/>
<path stroke="rgb(0, 0, 0)" fill="none" d="M134.7 727.3 L132.9 725.4 L132.9 718.1 L134.7 716.3 L136.6 716.3 L138.4 718.1 L138.4 725.4 L136.6 727.3 L134.7 727.3 "/>
<path fill="rgb(51, 51, 51)" stroke="none" d="M102.7 783.7 L102.7 739.7 L146.7 739.7 L146.7 783.7 L102.7 783.7 "/>
<path stroke="rgb(0, 0, 0)" fill="none" d="M177.8 718.1 L179.7 716.3 L183.3 716.3 L185.2 718.1 L185.2 719.9 L183.3 721.8 L179.7 721.8 L177.8 723.6 L177.8 727.3 L185.2 727.3 "/>
<path stroke="rgb(0, 0, 0)" fill="none" d="M188.8 725.4 L190.7 727.3 L194.3 727.3 L196.2 725.4 L196.2 721.8 L194.3 719.9 L188.8 719.9 L188.8 716.3 L196.2 716.3 "/>
<path stroke="rgb(0, 0, 0)" fill="none" d="M199.8 718.1 L201.7 716.3 L201.7 727.3 M199.8 727.3 L203.5 727.3 "/>
<path fill="rgb(91, 91, 91)" stroke="none" d="M168.7 783.7 L168.7 739.7 L212.7 739.7 L212.7 783.7 L168.7 783.7 "/>
<path stroke="rgb(0, 0, 0)" fill="none" d="M242 718.1 L243.8 716.3 L247.5 716.3 L249.3 718.1 L249.3 719.9 L247.5 721.8 L243.8 721.8 L242 723.6 L242 727.3 L249.3 727.3 "/>
<path stroke="rgb(0, 0, 0)" fill="none" d="M253 725.4 L254.8 727.3 L258.5 727.3 L260.3 725.4 L260.3 721.8 L258.5 719.9 L253 719.9 L253 716.3 L260.3 716.3 "/>
<path stroke="rgb(0, 0, 0)" fill="none" d="M264 718.1 L265.8 716.3 L269.5 716.3 L271.3 718.1 L271.3 719.9 L269.5 721.8 L265.8 721.8 L264 723.6 L264 727.3 L271.3 727.3 "/>
<path fill="rgb(132, 132, 132)" stroke="none" d="M234.7 783.7 L234.7 739.7 L278.7 739.7 L278.7 783.7 L234.7 783.7 "/>
<path stroke="rgb(0, 0, 0)" fill="none" d="M308 718.1 L309.8 716.3 L313.5 716.3 L315.3 718.1 L315.3 719.9 L313.5 721.8 L309.8 721.8 L308 723.6 L308 727.3 L315.3 727.3 "/>
<path stroke="rgb(0, 0, 0)" fill="none" d="M319 725.4 L320.8 727.3 L324.5 727.3 L326.3 725.4 L326.3 721.8 L324.5 719.9 L319 719.9 L319 716.3 L326.3 716.3 "/>
<path stroke="rgb(0, 0, 0)" fill="none" d="M330 718.1 L331.8 716.3 L335.5 716.3 L337.3 718.1 L337.3 719.9 L335.5 721.8 L333.7 721.8 M335.5 721.8 L337.3 723.6 L337.3 725.4 L335.5 727.3 L331.8 727.3 L330 725.4 "/>
<path fill="rgb(173, 173, 173)" stroke="none" d="M300.7 783.7 L300.7 739.7 L344.7 739.7 L344.7 783.7 L300.7 783.7 "/>
<path stroke="rgb(0, 0, 0)" fill="none" d="M374 718.1 L375.8 716.3 L379.5 716.3 L381.3 718.1 L381.3 719.9 L379.5 721.8 L375.8 721.8 L374 723.6 L374 727.3 L381.3 727.3 "/>
<path stroke="rgb(0, 0, 0)" fill="none" d="M385 725.4 L386.8 727.3 L390.5 727.3 L392.3 725.4 L392.3 721.8 L390.5 719.9 L385 719.9 L385 716.3 L392.3 716.3 "/>
<path stroke="rgb(0, 0, 0)" fill="none" d="M403.3 723.6 L396 723.6 L401.5 716.3 L401.5 727.3 "/>
<path fill="rgb(214, 214, 214)" stroke="none" d="M366.7 783.7 L366.7 739.7 L410.7 739.7 L410.7 783.7 L366.7 783.7 "/>
<path stroke="rgb(0, 0, 0)" fill="none" d="M440 718.1 L441.8 716.3 L445.5 716.3 L447.3 718.1 L447.3 719.9 L445.5 721.8 L441.8 721.8 L440 723.6 L440 727.3 L447.3 727.3 "/>
<path stroke="rgb(0, 0, 0)" fill="none" d="M451 725.4 L452.8 727.3 L456.5 727.3 L458.3 725.4 L458.3 721.8 L456.5 719.9 L451 719.9 L451 716.3 L458.3 716.3 "/>
<path stroke="rgb(0, 0, 0)" fill="none" d="M462 725.4 L463.8 727.3 L467.5 727.3 L469.3 725.4 L469.3 721.8 L467.5 719.9 L462 719.9 L462 716.3 L469.3 716.3 "/>
<path fill="rgb(254, 254, 254)" stroke="none" d="M432.7 783.7 L432.7 739.7 L476.7 739.7 L476.7 783.7 L432.7 783.7 "/>
</svg>