<svg width="1188.0000" height="840.0000" version="1.1" xmlns="http://www.w3.org/2000/svg" xmlns:xlink="http://www.w3.org/1999/xlink">
<path stroke="rgb(0, 0, 0)" fill="none" d="M158.3 100.3 L160 98.67 L160 108.7 M158.3 108.7 L161.7 108.7 "/>
<path fill="rgb(255, 0, 0)" stroke="none" d="M140 160 L140 120 L180 120 L180 160 L140 160 "/>
<path stroke="rgb(0, 0, 0)" fill="none" d="M216.7 100.3 L218.3 98.67 L221.7 98.67 L223.3 100.3 L223.3 102 L221.7 103.7 L218.3 103.7 L216.7 105.3 L216.7 108.7 L223.3 108.7 "/>
<path fill="rgb(255, 255, 0)" stroke="none" d="M200 160 L200 120 L240 120 L240 160 L200 160 "/>
<path stroke="rgb(0, 0, 0)" fill="none" d="M276.7 100.3 L278.3 98.67 L281.7 98.67 L283.3 100.3 L283.3 102 L281.7 103.7 L280 103.7 M281.7 103.7 L283.3 105.3 L283.3 107 L281.7 108.7 L278.3 108.7 L276.7 107 "/>
<path fill="rgb(0, 255, 0)" stroke="none" d="M260 160 L260 120 L300 120 L300 160 L260 160 "/>
<path stroke="rgb(0, 0, 0)" fill="none" d="M343.3 105.3 L336.7 105.3 L341.7 98.67 L341.7 108.7 "/>
<path fill="rgb(0, 255, 255)" stroke="none" d="M320 160 L320 120 L360 120 L360 160 L320 160 "/>
<path stroke="rgb(0, 0, 0)" fill="none" d="M396.7 107 L398.3 108.7 L401.7 108.7 L403.3 107 L403.3 103.7 L401.7 102 L396.7 102 L396.7 98.67 L403.3 98.67 "/>
<path fill="rgb(0, 0, 255)" stroke="none" d="M380 160 L380 120 L420 120 L420 160 L380 160 "/>
<path stroke="rgb(0, 0, 0)" fill="none" d="M456.7 103.7 L461.7 103.7 L463.3 105.3 L463.3 107 L461.7 108.7 L458.3 108.7 L456.7 107 L456.7 102 L460 98.67 L461.7 98.67 "/>
<path fill="rgb(255, 0, 255)" stroke="none" d="M440 160 L440 120 L480 120 L480 160 L440 160 "/>
<path stroke="rgb(0, 0, 0)" fill="none" d="M516.7 98.67 L523.3 98.67 L518.3 108.7 "/>
<path fill="rgb(0, 0, 0)" stroke="none" d="M500 160 L500 120 L540 120 L540 160 L500 160 "/>
<path stroke="rgb(0, 0, 0)" fill="none" d="M578.3 108.7 L576.7 107 L576.7 105.3 L578.3 103.7 L581.7 103.7 L583.3 102 L583.3 100.3 L581.7 98.67 L578.3 98.67 L576.7 100.3 L576.7 102 L578.3 103.7 M581.7 103.7 L583.3 105.3 L583.3 107 L581.7 108.7 L578.3 108.7 "/>
<path fill="rgb(128, 128, 128)" stroke="none" d="M560 160 L560 120 L600 120 L600 160 L560 160 "/>
<path stroke="rgb(0, 0, 0)" fill="none" d="M638.3 108.7 L640 108.7 L643.3 105.3 L643.3 100.3 L641.7 98.67 L638.3 98.67 L636.7 100.3 L636.7 102 L638.3 103.7 L643.3 103.7 "/>
<path fill="rgb(192, 192, 192)" stroke="none" d="M620 160 L620 120 L660 120 L660 160 L620 160 "/>
<path stroke="rgb(0, 0, 0)" fill="none" d="M134.2 220.3 L135.8 218.7 L135.8 228.7 M134.2 228.7 L137.5 228.7 "/>
<path stroke="rgb(0, 0, 0)" fill="none" d="M142.5 228.7 L140.8 227 L140.8 220.3 L142.5 218.7 L144.2 218.7 L145.8 220.3 L145.8 227 L144.2 228.7 L142.5 228.7 "/>
<path stroke="rgb(0, 0, 0)" fill="none" d="M172.5 220.3 L174.2 218.7 L177.5 218.7 L179.2 220.3 L179.2 222 L177.5 223.7 L174.2 223.7 L172.5 225.3 L172.5 228.7 L179.2 228.7 "/>
<path stroke="rgb(0, 0, 0)" fill="none" d="M184.2 228.7 L182.5 227 L182.5 220.3 L184.2 218.7 L185.8 218.7 L187.5 220.3 L187.5 227 L185.8 228.7 L184.2 228.7 "/>
<path stroke="rgb(0, 0, 0)" fill="none" d="M212.5 220.3 L214.2 218.7 L217.5 218.7 L219.2 220.3 L219.2 222 L217.5 223.7 L215.8 223.7 M217.5 223.7 L219.2 225.3 L219.2 227 L217.5 228.7 L214.2 228.7 L212.5 227 "/>
<path stroke="rgb(0, 0, 0)" fill="none" d="M224.2 228.7 L222.5 227 L222.5 220.3 L224.2 218.7 L225.8 218.7 L227.5 220.3 L227.5 227 L225.8 228.7 L224.2 228.7 "/>
<path stroke="rgb(0, 0, 0)" fill="none" d="M259.2 225.3 L252.5 225.3 L257.5 218.7 L257.5 228.7 "/>
<path stroke="rgb(0, 0, 0)" fill="none" d="M264.2 228.7 L262.5 227 L262.5 220.3 L264.2 218.7 L265.8 218.7 L267.5 220.3 L267.5 227 L265.8 228.7 L264.2 228.7 "/>
<path stroke="rgb(0, 0, 0)" fill="none" d="M292.5 227 L294.2 228.7 L297.5 228.7 L299.2 227 L299.2 223.7 L297.5 222 L292.5 222 L292.5 218.7 L299.2 218.7 "/>
<path stroke="rgb(0, 0, 0)" fill="none" d="M304.2 228.7 L302.5 227 L302.5 220.3 L304.2 218.7 L305.8 218.7 L307.5 220.3 L307.5 227 L305.8 228.7 L304.2 228.7 "/>
<path stroke="rgb(0, 0, 0)" fill="none" d="M332.5 223.7 L337.5 223.7 L339.2 225.3 L339.2 227 L337.5 228.7 L334.2 228.7 L332.5 227 L332.5 222 L335.8 218.7 L337.5 218.7 "/>
<path stroke="rgb(0, 0, 0)" fill="none" d="M344.2 228.7 L342.5 227 L342.5 220.3 L344.2 218.7 L345.8 218.7 L347.5 220.3 L347.5 227 L345.8 228.7 L344.2 228.7 "/>
<path stroke="rgb(0, 0, 0)" fill="none" d="M372.5 218.7 L379.2 218.7 L374.2 228.7 "/>
<path stroke="rgb(0, 0, 0)" fill="none" d="M384.2 228.7 L382.5 227 L382.5 220.3 L384.2 218.7 L385.8 218.7 L387.5 220.3 L387.5 227 L385.8 228.7 L384.2 228.7 "/>
<path stroke="rgb(0, 0, 0)" fill="none" d="M414.2 228.7 L412.5 227 L412.5 225.3 L414.2 223.7 L417.5 223.7 L419.2 222 L419.2 220.3 L417.5 218.7 L414.2 218.7 L412.5 220.3 L412.5 222 L414.2 223.7 M417.5 223.7 L419.2 225.3 L419.2 227 L417.5 228.7 L414.2 228.7 "/>
<path stroke="rgb(0, 0, 0)" fill="none" d="M424.2 228.7 L422.5 227 L422.5 220.3 L424.2 218.7 L425.8 218.7 L427.5 220.3 L427.5 227 L425.8 228.7 L424.2 228.7 "/>
<path stroke="rgb(0, 0, 0)" fill="none" d="M454.2 228.7 L455.8 228.7 L459.2 225.3 L459.2 220.3 L457.5 218.7 L454.2 218.7 L452.5 220.3 L452.5 222 L454.2 223.7 L459.2 223.7 "/>
<path stroke="rgb(0, 0, 0)" fill="none" d="M464.2 228.7 L462.5 227 L462.5 220.3 L464.2 218.7 L465.8 218.7 L467.5 220.3 L467.5 227 L465.8 228.7 L464.2 228.7 "/>
<path stroke="rgb(0, 0, 0)" fill="none" d="M490 220.3 L491.7 218.7 L491.7 228.7 M490 228.7 L493.3 228.7 "/>
<path stroke="rgb(0, 0, 0)" fill="none" d="M498.3 228.7 L496.7 227 L496.7 220.3 L498.3 218.7 L500 218.7 L501.7 220.3 L501.7 227 L500 228.7 L498.3 228.7 "/>
<path stroke="rgb(0, 0, 0)" fill="none" d="M506.7 228.7 L505 227 L505 220.3 L506.7 218.7 L508.3 218.7 L510 220.3 L510 227 L508.3 228.7 L506.7 228.7 "/>
<path stroke="rgb(0, 0, 0)" fill="none" d="M530.8 220.3 L532.5 218.7 L532.5 228.7 M530.8 228.7 L534.2 228.7 "/>
<path stroke="rgb(0, 0, 0)" fill="none" d="M537.5 220.3 L539.2 218.7 L539.2 228.7 M537.5 228.7 L540.8 228.7 "/>
<path stroke="rgb(0, 0, 0)" fill="none" d="M545.8 228.7 L544.2 227 L544.2 220.3 L545.8 218.7 L547.5 218.7 L549.2 220.3 L549.2 227 L547.5 228.7 L545.8 228.7 "/>
<path stroke="rgb(0, 0, 0)" fill="none" d="M569.2 220.3 L570.8 218.7 L570.8 228.7 M569.2 228.7 L572.5 228.7 "/>
<path stroke="rgb(0, 0, 0)" fill="none" d="M575.8 220.3 L577.5 218.7 L580.8 218.7 L582.5 220.3 L582.5 222 L580.8 223.7 L577.5 223.7 L575.8 225.3 L575.8 228.7 L582.5 228.7 "/>
<path stroke="rgb(0, 0, 0)" fill="none" d="M587.5 228.7 L585.8 227 L585.8 220.3 L587.5 218.7 L589.2 218.7 L590.8 220.3 L590.8 227 L589.2 228.7 L587.5 228.7 "/>
<path stroke="rgb(0, 0, 0)" fill="none" d="M609.2 220.3 L610.8 218.7 L610.8 228.7 M609.2 228.7 L612.5 228.7 "/>
<path stroke="rgb(0, 0, 0)" fill="none" d="M615.8 220.3 L617.5 218.7 L620.8 218.7 L622.5 220.3 L622.5 222 L620.8 223.7 L619.2 223.7 M620.8 223.7 L622.5 225.3 L622.5 227 L620.8 228.7 L617.5 228.7 L615.8 227 "/>
<path stroke="rgb(0, 0, 0)" fill="none" d="M627.5 228.7 L625.8 227 L625.8 220.3 L627.5 218.7 L629.2 218.7 L630.8 220.3 L630.8 227 L629.2 228.7 L627.5 228.7 "/>
<path stroke="rgb(0, 0, 0)" fill="none" d="M649.2 220.3 L650.8 218.7 L650.8 228.7 M649.2 228.7 L652.5 228.7 "/>
<path stroke="rgb(0, 0, 0)" fill="none" d="M662.5 225.3 L655.8 225.3 L660.8 218.7 L660.8 228.7 "/>
<path stroke="rgb(0, 0, 0)" fill="none" d="M667.5 228.7 L665.8 227 L665.8 220.3 L667.5 218.7 L669.2 218.7 L670.8 220.3 L670.8 227 L669.2 228.7 L667.5 228.7 "/>
<path stroke="rgb(0, 0, 0)" fill="none" d="M689.2 220.3 L690.8 218.7 L690.8 228.7 M689.2 228.7 L692.5 228.7 "/>
<path stroke="rgb(0, 0, 0)" fill="none" d="M695.8 227 L697.5 228.7 L700.8 228.7 L702.5 227 L702.5 223.7 L700.8 222 L695.8 222 L695.8 218.7 L702.5 218.7 "/>
<path stroke="rgb(0, 0, 0)" fill="none" d="M707.5 228.7 L705.8 227 L705.8 220.3 L707.5 218.7 L709.2 218.7 L710.8 220.3 L710.8 227 L709.2 228.7 L707.5 228.7 "/>
<path stroke="rgb(0, 0, 0)" fill="none" d="M729.2 220.3 L730.8 218.7 L730.8 228.7 M729.2 228.7 L732.5 228.7 "/>
<path stroke="rgb(0, 0, 0)" fill="none" d="M735.8 223.7 L740.8 223.7 L742.5 225.3 L742.5 227 L740.8 228.7 L737.5 228.7 L735.8 227 L735.8 222 L739.2 218.7 L740.8 218.7 "/>
<path stroke="rgb(0, 0, 0)" fill="none" d="M747.5 228.7 L745.8 227 L745.8 220.3 L747.5 218.7 L749.2 218.7 L750.8 220.3 L750.8 227 L749.2 228.7 L747.5 228.7 "/>
<path stroke="rgb(0, 0, 0)" fill="none" d="M769.2 220.3 L770.8 218.7 L770.8 228.7 M769.2 228.7 L772.5 228.7 "/>
<path stroke="rgb(0, 0, 0)" fill="none" d="M775.8 218.7 L782.5 218.7 L777.5 228.7 "/>
<path stroke="rgb(0, 0, 0)" fill="none" d="M787.5 228.7 L785.8 227 L785.8 220.3 L787.5 218.7 L789.2 218.7 L790.8 220.3 L790.8 227 L789.2 228.7 L787.5 228.7 "/>
<path stroke="rgb(0, 0, 0)" fill="none" d="M809.2 220.3 L810.8 218.7 L810.8 228.7 M809.2 228.7 L812.5 228.7 "/>
<path stroke="rgb(0, 0, 0)" fill="none" d="M817.5 228.7 L815.8 227 L815.8 225.3 L817.5 223.7 L820.8 223.7 L822.5 222 L822.5 220.3 L820.8 218.7 L817.5 218.7 L815.8 220.3 L815.8 222 L817.5 223.7 M820.8 223.7 L822.5 225.3 L822.5 227 L820.8 228.7 L817.5 228.7 "/>
<path stroke="rgb(0, 0, 0)" fill="none" d="M827.5 228.7 L825.8 227 L825.8 220.3 L827.5 218.7 L829.2 218.7 L830.8 220.3 L830.8 227 L829.2 228.7 L827.5 228.7 "/>
<path stroke="rgb(0, 0, 0)" fill="none" d="M849.2 220.3 L850.8 218.7 L850.8 228.7 M849.2 228.7 L852.5 228.7 "/>
<path stroke="rgb(0, 0, 0)" fill="none" d="M857.5 228.7 L859.2 228.7 L862.5 225.3 L862.5 220.3 L860.8 218.7 L857.5 218.7 L855.8 220.3 L855.8 222 L857.5 223.7 L862.5 223.7 "/>
<path stroke="rgb(0, 0, 0)" fill="none" d="M867.5 228.7 L865.8 227 L865.8 220.3 L867.5 218.7 L869.2 218.7 L870.8 220.3 L870.8 227 L869.2 228.7 L867.5 228.7 "/>
<path stroke="rgb(0, 0, 0)" fill="none" d="M888.3 220.3 L890 218.7 L893.3 218.7 L895 220.3 L895 222 L893.3 223.7 L890 223.7 L888.3 225.3 L888.3 228.7 L895 228.7 "/>
<path stroke="rgb(0, 0, 0)" fill="none" d="M900 228.7 L898.3 227 L898.3 220.3 L900 218.7 L901.7 218.7 L903.3 220.3 L903.3 227 L901.7 228.7 L900 228.7 "/>
<path stroke="rgb(0, 0, 0)" fill="none" d="M908.3 228.7 L906.7 227 L906.7 220.3 L908.3 218.7 L910 218.7 L911.7 220.3 L911.7 227 L910 228.7 L908.3 228.7 "/>
<path stroke="rgb(0, 0, 0)" fill="none" d="M929.2 220.3 L930.8 218.7 L934.2 218.7 L935.8 220.3 L935.8 222 L934.2 223.7 L930.8 223.7 L929.2 225.3 L929.2 228.7 L935.8 228.7 "/>
<path stroke="rgb(0, 0, 0)" fill="none" d="M939.2 220.3 L940.8 218.7 L940.8 228.7 M939.2 228.7 L942.5 228.7 "/>
<path stroke="rgb(0, 0, 0)" fill="none" d="M947.5 228.7 L945.8 227 L945.8 220.3 L947.5 218.7 L949.2 218.7 L950.8 220.3 L950.8 227 L949.2 228.7 L947.5 228.7 "/>
<path stroke="rgb(0, 0, 0)" fill="none" d="M967.5 220.3 L969.2 218.7 L972.5 218.7 L974.2 220.3 L974.2 222 L972.5 223.7 L969.2 223.7 L967.5 225.3 L967.5 228.7 L974.2 228.7 "/>
<path stroke="rgb(0, 0, 0)" fill="none" d="M977.5 220.3 L979.2 218.7 L982.5 218.7 L984.2 220.3 L984.2 222 L982.5 223.7 L979.2 223.7 L977.5 225.3 L977.5 228.7 L984.2 228.7 "/>
<path stroke="rgb(0, 0, 0)" fill="none" d="M989.2 228.7 L987.5 227 L987.5 220.3 L989.2 218.7 L990.8 218.7 L992.5 220.3 L992.5 227 L990.8 228.7 L989.2 228.7 "/>
<path stroke="rgb(0, 0, 0)" fill="none" d="M1008 220.3 L1009 218.7 L1013 218.7 L1014 220.3 L1014 222 L1013 223.7 L1009 223.7 L1008 225.3 L1008 228.7 L1014 228.7 "/>
<path stroke="rgb(0, 0, 0)" fill="none" d="M1018 220.3 L1019 218.7 L1023 218.7 L1024 220.3 L1024 222 L1023 223.7 L1021 223.7 M1023 223.7 L1024 225.3 L1024 227 L1023 228.7 L1019 228.7 L1018 227 "/>
<path stroke="rgb(0, 0, 0)" fill="none" d="M1029 228.7 L1028 227 L1028 220.3 L1029 218.7 L1031 218.7 L1033 220.3 L1033 227 L1031 228.7 L1029 228.7 "/>
<path stroke="rgb(0, 0, 0)" fill="none" d="M1048 220.3 L1049 218.7 L1053 218.7 L1054 220.3 L1054 222 L1053 223.7 L1049 223.7 L1048 225.3 L1048 228.7 L1054 228.7 "/>
<path stroke="rgb(0, 0, 0)" fill="none" d="M1064 225.3 L1058 225.3 L1063 218.7 L1063 228.7 "/>
<path stroke="rgb(0, 0, 0)" fill="none" d="M1069 228.7 L1068 227 L1068 220.3 L1069 218.7 L1071 218.7 L1073 220.3 L1073 227 L1071 228.7 L1069 228.7 "/>
<path stroke="rgb(0, 0, 0)" fill="none" d="M96.67 465 L95 463.3 L95 456.7 L96.67 455 L98.33 455 L100 456.7 L100 463.3 L98.33 465 L96.67 465 "/>
<path stroke="rgb(0, 0, 0)" fill="none" d="M93.33 496.7 L95 495 L98.33 495 L100 496.7 L100 498.3 L98.33 500 L95 500 L93.33 501.7 L93.33 505 L100 505 "/>
<path stroke="rgb(0, 0, 0)" fill="none" d="M100 541.7 L93.33 541.7 L98.33 535 L98.33 545 "/>
<path stroke="rgb(0, 0, 0)" fill="none" d="M93.33 580 L98.33 580 L100 581.7 L100 583.3 L98.33 585 L95 585 L93.33 583.3 L93.33 578.3 L96.67 575 L98.33 575 "/>
<path stroke="rgb(0, 0, 0)" fill="none" d="M95 625 L93.33 623.3 L93.33 621.7 L95 620 L98.33 620 L100 618.3 L100 616.7 L98.33 615 L95 615 L93.33 616.7 L93.33 618.3 L95 620 M98.33 620 L100 621.7 L100 623.3 L98.33 625 L95 625 "/>
<path stroke="rgb(0, 0, 0)" fill="none" d="M96.67 416.7 L98.33 415 L98.33 425 M96.67 425 L100 425 "/>
<path stroke="rgb(0, 0, 0)" fill="none" d="M93.33 376.7 L95 375 L98.33 375 L100 376.7 L100 378.3 L98.33 380 L96.67 380 M98.33 380 L100 381.7 L100 383.3 L98.33 385 L95 385 L93.33 383.3 "/>
<path stroke="rgb(0, 0, 0)" fill="none" d="M93.33 343.3 L95 345 L98.33 345 L100 343.3 L100 340 L98.33 338.3 L93.33 338.3 L93.33 335 L100 335 "/>
<path stroke="rgb(0, 0, 0)" fill="none" d="M93.33 295 L100 295 L95 305 "/>
<path stroke="rgb(0, 0, 0)" fill="none" d="M95 265 L96.67 265 L100 261.7 L100 256.7 L98.33 255 L95 255 L93.33 256.7 L93.33 258.3 L95 260 L100 260 "/>
<path fill="rgb(255, 0, 0)" stroke="none" d="M120 480 L120 440 L160 440 L160 480 L120 480 "/>
<path fill="rgb(255, 64, 0)" stroke="none" d="M160 480 L160 440 L200 440 L200 480 L160 480 "/>
<path fill="rgb(255, 128, 0)" stroke="none" d="M200 480 L200 440 L240 440 L240 480 L200 480 "/>
<path fill="rgb(255, 191, 0)" stroke="none" d="M240 480 L240 440 L280 440 L280 480 L240 480 "/>
<path fill="rgb(255, 255, 0)" stroke="none" d="M280 480 L280 440 L320 440 L320 480 L280 480 "/>
<path fill="rgb(191, 255, 0)" stroke="none" d="M320 480 L320 440 L360 440 L360 480 L320 480 "/>
<path fill="rgb(128, 255, 0)" stroke="none" d="M360 480 L360 440 L400 440 L400 480 L360 480 "/>
<path fill="rgb(64, 255, 0)" stroke="none" d="M400 480 L400 440 L440 440 L440 480 L400 480 "/>
<path fill="rgb(0, 255, 0)" stroke="none" d="M440 480 L440 440 L480 440 L480 480 L440 480 "/>
<path fill="rgb(0, 255, 64)" stroke="none" d="M480 480 L480 440 L520 440 L520 480 L480 480 "/>
<path fill="rgb(0, 255, 128)" stroke="none" d="M520 480 L520 440 L560 440 L560 480 L520 480 "/>
<path fill="rgb(0, 255, 191)" stroke="none" d="M560 480 L560 440 L600 440 L600 480 L560 480 "/>
<path fill="rgb(0, 255, 255)" stroke="none" d="M600 480 L600 440 L640 440 L640 480 L600 480 "/>
<path fill="rgb(0, 191, 255)" stroke="none" d="M640 480 L640 440 L680 440 L680 480 L640 480 "/>
<path fill="rgb(0, 128, 255)" stroke="none" d="M680 480 L680 440 L720 440 L720 480 L680 480 "/>
<path fill="rgb(0, 64, 255)" stroke="none" d="M720 480 L720 440 L760 440 L760 480 L720 480 "/>
<path fill="rgb(0, 0, 255)" stroke="none" d="M760 480 L760 440 L800 440 L800 480 L760 480 "/>
<path fill="rgb(64, 0, 255)" stroke="none" d="M800 480 L800 440 L840 440 L840 480 L800 480 "/>
<path fill="rgb(128, 0, 255)" stroke="none" d="M840 480 L840 440 L880 440 L880 480 L840 480 "/>
<path fill="rgb(191, 0, 255)" stroke="none" d="M880 480 L880 440 L920 440 L920 480 L880 480 "/>
<path fill="rgb(255, 0, 255)" stroke="none" d="M920 480 L920 440 L960 440 L960 480 L920 480 "/>
<path fill="rgb(255, 0, 191)" stroke="none" d="M960 480 L960 440 L1000 440 L1000 480 L960 480 "/>
<path fill="rgb(255, 0, 128)" stroke="none" d="M1000 480 L1000 440 L1040 440 L1040 480 L1000 480 "/>
<path fill="rgb(255, 0, 64)" stroke="none" d="M1040 480 L1040 440 L1080 440 L1080 480 L1040 480 "/>
<path fill="rgb(221, 0, 0)" stroke="none" d="M120 520 L120 480 L160 480 L160 520 L120 520 "/>
<path fill="rgb(221, 55, 0)" stroke="none" d="M160 520 L160 480 L200 480 L200 520 L160 520 "/>
<path fill="rgb(221, 111, 0)" stroke="none" d="M200 520 L200 480 L240 480 L240 520 L200 520 "/>
<path fill="rgb(221, 166, 0)" stroke="none" d="M240 520 L240 480 L280 480 L280 520 L240 520 "/>
<path fill="rgb(221, 221, 0)" stroke="none" d="M280 520 L280 480 L320 480 L320 520 L280 520 "/>
<path fill="rgb(166, 221, 0)" stroke="none" d="M320 520 L320 480 L360 480 L360 520 L320 520 "/>
<path fill="rgb(111, 221, 0)" stroke="none" d="M360 520 L360 480 L400 480 L400 520 L360 520 "/>
<path fill="rgb(55, 221, 0)" stroke="none" d="M400 520 L400 480 L440 480 L440 520 L400 520 "/>
<path fill="rgb(0, 221, 0)" stroke="none" d="M440 520 L440 480 L480 480 L480 520 L440 520 "/>
<path fill="rgb(0, 221, 55)" stroke="none" d="M480 520 L480 480 L520 480 L520 520 L480 520 "/>
<path fill="rgb(0, 221, 111)" stroke="none" d="M520 520 L520 480 L560 480 L560 520 L520 520 "/>
<path fill="rgb(0, 221, 166)" stroke="none" d="M560 520 L560 480 L600 480 L600 520 L560 520 "/>
<path fill="rgb(0, 221, 221)" stroke="none" d="M600 520 L600 480 L640 480 L640 520 L600 520 "/>
<path fill="rgb(0, 166, 221)" stroke="none" d="M640 520 L640 480 L680 480 L680 520 L640 520 "/>
<path fill="rgb(0, 111, 221)" stroke="none" d="M680 520 L680 480 L720 480 L720 520 L680 520 "/>
<path fill="rgb(0, 55, 221)" stroke="none" d="M720 520 L720 480 L760 480 L760 520 L720 520 "/>
<path fill="rgb(0, 0, 221)" stroke="none" d="M760 520 L760 480 L800 480 L800 520 L760 520 "/>
<path fill="rgb(55, 0, 221)" stroke="none" d="M800 520 L800 480 L840 480 L840 520 L800 520 "/>
<path fill="rgb(111, 0, 221)" stroke="none" d="M840 520 L840 480 L880 480 L880 520 L840 520 "/>
<path fill="rgb(166, 0, 221)" stroke="none" d="M880 520 L880 480 L920 480 L920 520 L880 520 "/>
<path fill="rgb(221, 0, 221)" stroke="none" d="M920 520 L920 480 L960 480 L960 520 L920 520 "/>
<path fill="rgb(221, 0, 166)" stroke="none" d="M960 520 L960 480 L1000 480 L1000 520 L960 520 "/>
<path fill="rgb(221, 0, 111)" stroke="none" d="M1000 520 L1000 480 L1040 480 L1040 520 L1000 520 "/>
<path fill="rgb(221, 0, 55)" stroke="none" d="M1040 520 L1040 480 L1080 480 L1080 520 L1040 520 "/>
<path fill="rgb(184, 0, 0)" stroke="none" d="M120 560 L120 520 L160 520 L160 560 L120 560 "/>
<path fill="rgb(184, 46, 0)" stroke="none" d="M160 560 L160 520 L200 520 L200 560 L160 560 "/>
<path fill="rgb(184, 92, 0)" stroke="none" d="M200 560 L200 520 L240 520 L240 560 L200 560 "/>
<path fill="rgb(184, 138, 0)" stroke="none" d="M240 560 L240 520 L280 520 L280 560 L240 560 "/>
<path fill="rgb(184, 184, 0)" stroke="none" d="M280 560 L280 520 L320 520 L320 560 L280 560 "/>
<path fill="rgb(138, 184, 0)" stroke="none" d="M320 560 L320 520 L360 520 L360 560 L320 560 "/>
<path fill="rgb(92, 184, 0)" stroke="none" d="M360 560 L360 520 L400 520 L400 560 L360 560 "/>
<path fill="rgb(46, 184, 0)" stroke="none" d="M400 560 L400 520 L440 520 L440 560 L400 560 "/>
<path fill="rgb(0, 184, 0)" stroke="none" d="M440 560 L440 520 L480 520 L480 560 L440 560 "/>
<path fill="rgb(0, 184, 46)" stroke="none" d="M480 560 L480 520 L520 520 L520 560 L480 560 "/>
<path fill="rgb(0, 184, 92)" stroke="none" d="M520 560 L520 520 L560 520 L560 560 L520 560 "/>
<path fill="rgb(0, 184, 138)" stroke="none" d="M560 560 L560 520 L600 520 L600 560 L560 560 "/>
<path fill="rgb(0, 184, 184)" stroke="none" d="M600 560 L600 520 L640 520 L640 560 L600 560 "/>
<path fill="rgb(0, 138, 184)" stroke="none" d="M640 560 L640 520 L680 520 L680 560 L640 560 "/>
<path fill="rgb(0, 92, 184)" stroke="none" d="M680 560 L680 520 L720 520 L720 560 L680 560 "/>
<path fill="rgb(0, 46, 184)" stroke="none" d="M720 560 L720 520 L760 520 L760 560 L720 560 "/>
<path fill="rgb(0, 0, 184)" stroke="none" d="M760 560 L760 520 L800 520 L800 560 L760 560 "/>
<path fill="rgb(46, 0, 184)" stroke="none" d="M800 560 L800 520 L840 520 L840 560 L800 560 "/>
<path fill="rgb(92, 0, 184)" stroke="none" d="M840 560 L840 520 L880 520 L880 560 L840 560 "/>
<path fill="rgb(138, 0, 184)" stroke="none" d="M880 560 L880 520 L920 520 L920 560 L880 560 "/>
<path fill="rgb(184, 0, 184)" stroke="none" d="M920 560 L920 520 L960 520 L960 560 L920 560 "/>
<path fill="rgb(184, 0, 138)" stroke="none" d="M960 560 L960 520 L1000 520 L1000 560 L960 560 "/>
<path fill="rgb(184, 0, 92)" stroke="none" d="M1000 560 L1000 520 L1040 520 L1040 560 L1000 560 "/>
<path fill="rgb(184, 0, 46)" stroke="none" d="M1040 560 L1040 520 L1080 520 L1080 560 L1040 560 "/>
<path fill="rgb(149, 0, 0)" stroke="none" d="M120 600 L120 560 L160 560 L160 600 L120 600 "/>
<path fill="rgb(149, 37, 0)" stroke="none" d="M160 600 L160 560 L200 560 L200 600 L160 600 "/>
<path fill="rgb(149, 75, 0)" stroke="none" d="M200 600 L200 560 L240 560 L240 600 L200 600 "/>
<path fill="rgb(149, 112, 0)" stroke="none" d="M240 600 L240 560 L280 560 L280 600 L240 600 "/>
<path fill="rgb(149, 149, 0)" stroke="none" d="M280 600 L280 560 L320 560 L320 600 L280 600 "/>
<path fill="rgb(112, 149, 0)" stroke="none" d="M320 600 L320 560 L360 560 L360 600 L320 600 "/>
<path fill="rgb(75, 149, 0)" stroke="none" d="M360 600 L360 560 L400 560 L400 600 L360 600 "/>
<path fill="rgb(37, 149, 0)" stroke="none" d="M400 600 L400 560 L440 560 L440 600 L400 600 "/>
<path fill="rgb(0, 149, 0)" stroke="none" d="M440 600 L440 560 L480 560 L480 600 L440 600 "/>
<path fill="rgb(0, 149, 37)" stroke="none" d="M480 600 L480 560 L520 560 L520 600 L480 600 "/>
<path fill="rgb(0, 149, 75)" stroke="none" d="M520 600 L520 560 L560 560 L560 600 L520 600 "/>
<path fill="rgb(0, 149, 112)" stroke="none" d="M560 600 L560 560 L600 560 L600 600 L560 600 "/>
<path fill="rgb(0, 149, 149)" stroke="none" d="M600 600 L600 560 L640 560 L640 600 L600 600 "/>
<path fill="rgb(0, 112, 149)" stroke="none" d="M640 600 L640 560 L680 560 L680 600 L640 600 "/>
<path fill="rgb(0, 75, 149)" stroke="none" d="M680 600 L680 560 L720 560 L720 600 L680 600 "/>
<path fill="rgb(0, 37, 149)" stroke="none" d="M720 600 L720 560 L760 560 L760 600 L720 600 "/>
<path fill="rgb(0, 0, 149)" stroke="none" d="M760 600 L760 560 L800 560 L800 600 L760 600 "/>
<path fill="rgb(37, 0, 149)" stroke="none" d="M800 600 L800 560 L840 560 L840 600 L800 600 "/>
<path fill="rgb(75, 0, 149)" stroke="none" d="M840 600 L840 560 L880 560 L880 600 L840 600 "/>
<path fill="rgb(112, 0, 149)" stroke="none" d="M880 600 L880 560 L920 560 L920 600 L880 600 "/>
<path fill="rgb(149, 0, 149)" stroke="none" d="M920 600 L920 560 L960 560 L960 600 L920 600 "/>
<path fill="rgb(149, 0, 112)" stroke="none" d="M960 600 L960 560 L1000 560 L1000 600 L960 600 "/>
<path fill="rgb(149, 0, 75)" stroke="none" d="M1000 600 L1000 560 L1040 560 L1040 600 L1000 600 "/>
<path fill="rgb(149, 0, 37)" stroke="none" d="M1040 600 L1040 560 L1080 560 L1080 600 L1040 600 "/>
<path fill="rgb(114, 0, 0)" stroke="none" d="M120 640 L120 600 L160 600 L160 640 L120 640 "/>
<path fill="rgb(114, 29, 0)" stroke="none" d="M160 640 L160 600 L200 600 L200 640 L160 640 "/>
<path fill="rgb(114, 57, 0)" stroke="none" d="M200 640 L200 600 L240 600 L240 640 L200 640 "/>
<path fill="rgb(114, 86, 0)" stroke="none" d="M240 640 L240 600 L280 600 L280 640 L240 640 "/>
<path fill="rgb(114, 114, 0)" stroke="none" d="M280 640 L280 600 L320 600 L320 640 L280 640 "/>
<path fill="rgb(86, 114, 0)" stroke="none" d="M320 640 L320 600 L360 600 L360 640 L320 640 "/>
<path fill="rgb(57, 114, 0)" stroke="none" d="M360 640 L360 600 L400 600 L400 640 L360 640 "/>
<path fill="rgb(29, 114, 0)" stroke="none" d="M400 640 L400 600 L440 600 L440 640 L400 640 "/>
<path fill="rgb(0, 114, 0)" stroke="none" d="M440 640 L440 600 L480 600 L480 640 L440 640 "/>
<path fill="rgb(0, 114, 29)" stroke="none" d="M480 640 L480 600 L520 600 L520 640 L480 640 "/>
<path fill="rgb(0, 114, 57)" stroke="none" d="M520 640 L520 600 L560 600 L560 640 L520 640 "/>
<path fill="rgb(0, 114, 86)" stroke="none" d="M560 640 L560 600 L600 600 L600 640 L560 640 "/>
<path fill="rgb(0, 114, 114)" stroke="none" d="M600 640 L600 600 L640 600 L640 640 L600 640 "/>
<path fill="rgb(0, 86, 114)" stroke="none" d="M640 640 L640 600 L680 600 L680 640 L640 640 "/>
<path fill="rgb(0, 57, 114)" stroke="none" d="M680 640 L680 600 L720 600 L720 640 L680 640 "/>
<path fill="rgb(0, 29, 114)" stroke="none" d="M720 640 L720 600 L760 600 L760 640 L720 640 "/>
<path fill="rgb(0, 0, 114)" stroke="none" d="M760 640 L760 600 L800 600 L800 640 L760 640 "/>
<path fill="rgb(29, 0, 114)" stroke="none" d="M800 640 L800 600 L840 600 L840 640 L800 640 "/>
<path fill="rgb(57, 0, 114)" stroke="none" d="M840 640 L840 600 L880 600 L880 640 L840 640 "/>
<path fill="rgb(86, 0, 114)" stroke="none" d="M880 640 L880 600 L920 600 L920 640 L880 640 "/>
<path fill="rgb(114, 0, 114)" stroke="none" d="M920 640 L920 600 L960 600 L960 640 L920 640 "/>
<path fill="rgb(114, 0, 86)" stroke="none" d="M960 640 L960 600 L1000 600 L1000 640 L960 640 "/>
<path fill="rgb(114, 0, 57)" stroke="none" d="M1000 640 L1000 600 L1040 600 L1040 640 L1000 640 "/>
<path fill="rgb(114, 0, 29)" stroke="none" d="M1040 640 L1040 600 L1080 600 L1080 640 L1040 640 "/>
<path fill="rgb(255, 128, 128)" stroke="none" d="M120 440 L120 400 L160 400 L160 440 L120 440 "/>
<path fill="rgb(255, 159, 128)" stroke="none" d="M160 440 L160 400 L200 400 L200 440 L160 440 "/>
<path fill="rgb(255, 191, 128)" stroke="none" d="M200 440 L200 400 L240 400 L240 440 L200 440 "/>
<path fill="rgb(255, 223, 128)" stroke="none" d="M240 440 L240 400 L280 400 L280 440 L240 440 "/>
<path fill="rgb(255, 255, 128)" stroke="none" d="M280 440 L280 400 L320 400 L320 440 L280 440 "/>
<path fill="rgb(223, 255, 128)" stroke="none" d="M320 440 L320 400 L360 400 L360 440 L320 440 "/>
<path fill="rgb(191, 255, 128)" stroke="none" d="M360 440 L360 400 L400 400 L400 440 L360 440 "/>
<path fill="rgb(159, 255, 128)" stroke="none" d="M400 440 L400 400 L440 400 L440 440 L400 440 "/>
<path fill="rgb(128, 255, 128)" stroke="none" d="M440 440 L440 400 L480 400 L480 440 L440 440 "/>
<path fill="rgb(128, 255, 159)" stroke="none" d="M480 440 L480 400 L520 400 L520 440 L480 440 "/>
<path fill="rgb(128, 255, 191)" stroke="none" d="M520 440 L520 400 L560 400 L560 440 L520 440 "/>
<path fill="rgb(128, 255, 223)" stroke="none" d="M560 440 L560 400 L600 400 L600 440 L560 440 "/>
<path fill="rgb(128, 255, 255)" stroke="none" d="M600 440 L600 400 L640 400 L640 440 L600 440 "/>
<path fill="rgb(128, 223, 255)" stroke="none" d="M640 440 L640 400 L680 400 L680 440 L640 440 "/>
<path fill="rgb(128, 191, 255)" stroke="none" d="M680 440 L680 400 L720 400 L720 440 L680 440 "/>
<path fill="rgb(128, 159, 255)" stroke="none" d="M720 440 L720 400 L760 400 L760 440 L720 440 "/>
<path fill="rgb(128, 128, 255)" stroke="none" d="M760 440 L760 400 L800 400 L800 440 L760 440 "/>
<path fill="rgb(159, 128, 255)" stroke="none" d="M800 440 L800 400 L840 400 L840 440 L800 440 "/>
<path fill="rgb(191, 128, 255)" stroke="none" d="M840 440 L840 400 L880 400 L880 440 L840 440 "/>
<path fill="rgb(223, 128, 255)" stroke="none" d="M880 440 L880 400 L920 400 L920 440 L880 440 "/>
<path fill="rgb(255, 128, 255)" stroke="none" d="M920 440 L920 400 L960 400 L960 440 L920 440 "/>
<path fill="rgb(255, 128, 223)" stroke="none" d="M960 440 L960 400 L1000 400 L1000 440 L960 440 "/>
<path fill="rgb(255, 128, 191)" stroke="none" d="M1000 440 L1000 400 L1040 400 L1040 440 L1000 440 "/>
<path fill="rgb(255, 128, 159)" stroke="none" d="M1040 440 L1040 400 L1080 400 L1080 440 L1040 440 "/>
<path fill="rgb(221, 111, 111)" stroke="none" d="M120 400 L120 360 L160 360 L160 400 L120 400 "/>
<path fill="rgb(221, 138, 111)" stroke="none" d="M160 400 L160 360 L200 360 L200 400 L160 400 "/>
<path fill="rgb(221, 166, 111)" stroke="none" d="M200 400 L200 360 L240 360 L240 400 L200 400 "/>
<path fill="rgb(221, 193, 111)" stroke="none" d="M240 400 L240 360 L280 360 L280 400 L240 400 "/>
<path fill="rgb(221, 221, 111)" stroke="none" d="M280 400 L280 360 L320 360 L320 400 L280 400 "/>
<path fill="rgb(193, 221, 111)" stroke="none" d="M320 400 L320 360 L360 360 L360 400 L320 400 "/>
<path fill="rgb(166, 221, 111)" stroke="none" d="M360 400 L360 360 L400 360 L400 400 L360 400 "/>
<path fill="rgb(138, 221, 111)" stroke="none" d="M400 400 L400 360 L440 360 L440 400 L400 400 "/>
<path fill="rgb(111, 221, 111)" stroke="none" d="M440 400 L440 360 L480 360 L480 400 L440 400 "/>
<path fill="rgb(111, 221, 138)" stroke="none" d="M480 400 L480 360 L520 360 L520 400 L480 400 "/>
<path fill="rgb(111, 221, 166)" stroke="none" d="M520 400 L520 360 L560 360 L560 400 L520 400 "/>
<path fill="rgb(111, 221, 193)" stroke="none" d="M560 400 L560 360 L600 360 L600 400 L560 400 "/>
<path fill="rgb(111, 221, 221)" stroke="none" d="M600 400 L600 360 L640 360 L640 400 L600 400 "/>
<path fill="rgb(111, 193, 221)" stroke="none" d="M640 400 L640 360 L680 360 L680 400 L640 400 "/>
<path fill="rgb(111, 166, 221)" stroke="none" d="M680 400 L680 360 L720 360 L720 400 L680 400 "/>
<path fill="rgb(111, 138, 221)" stroke="none" d="M720 400 L720 360 L760 360 L760 400 L720 400 "/>
<path fill="rgb(111, 111, 221)" stroke="none" d="M760 400 L760 360 L800 360 L800 400 L760 400 "/>
<path fill="rgb(138, 111, 221)" stroke="none" d="M800 400 L800 360 L840 360 L840 400 L800 400 "/>
<path fill="rgb(166, 111, 221)" stroke="none" d="M840 400 L840 360 L880 360 L880 400 L840 400 "/>
<path fill="rgb(193, 111, 221)" stroke="none" d="M880 400 L880 360 L920 360 L920 400 L880 400 "/>
<path fill="rgb(221, 111, 221)" stroke="none" d="M920 400 L920 360 L960 360 L960 400 L920 400 "/>
<path fill="rgb(221, 111, 193)" stroke="none" d="M960 400 L960 360 L1000 360 L1000 400 L960 400 "/>
<path fill="rgb(221, 111, 166)" stroke="none" d="M1000 400 L1000 360 L1040 360 L1040 400 L1000 400 "/>
<path fill="rgb(221, 111, 138)" stroke="none" d="M1040 400 L1040 360 L1080 360 L1080 400 L1040 400 "/>
<path fill="rgb(184, 92, 92)" stroke="none" d="M120 360 L120 320 L160 320 L160 360 L120 360 "/>
<path fill="rgb(184, 115, 92)" stroke="none" d="M160 360 L160 320 L200 320 L200 360 L160 360 "/>
<path fill="rgb(184, 138, 92)" stroke="none" d="M200 360 L200 320 L240 320 L240 360 L200 360 "/>
<path fill="rgb(184, 161, 92)" stroke="none" d="M240 360 L240 320 L280 320 L280 360 L240 360 "/>
<path fill="rgb(184, 184, 92)" stroke="none" d="M280 360 L280 320 L320 320 L320 360 L280 360 "/>
<path fill="rgb(161, 184, 92)" stroke="none" d="M320 360 L320 320 L360 320 L360 360 L320 360 "/>
<path fill="rgb(138, 184, 92)" stroke="none" d="M360 360 L360 320 L400 320 L400 360 L360 360 "/>
<path fill="rgb(115, 184, 92)" stroke="none" d="M400 360 L400 320 L440 320 L440 360 L400 360 "/>
<path fill="rgb(92, 184, 92)" stroke="none" d="M440 360 L440 320 L480 320 L480 360 L440 360 "/>
<path fill="rgb(92, 184, 115)" stroke="none" d="M480 360 L480 320 L520 320 L520 360 L480 360 "/>
<path fill="rgb(92, 184, 138)" stroke="none" d="M520 360 L520 320 L560 320 L560 360 L520 360 "/>
<path fill="rgb(92, 184, 161)" stroke="none" d="M560 360 L560 320 L600 320 L600 360 L560 360 "/>
<path fill="rgb(92, 184, 184)" stroke="none" d="M600 360 L600 320 L640 320 L640 360 L600 360 "/>
<path fill="rgb(92, 161, 184)" stroke="none" d="M640 360 L640 320 L680 320 L680 360 L640 360 "/>
<path fill="rgb(92, 138, 184)" stroke="none" d="M680 360 L680 320 L720 320 L720 360 L680 360 "/>
<path fill="rgb(92, 115, 184)" stroke="none" d="M720 360 L720 320 L760 320 L760 360 L720 360 "/>
<path fill="rgb(92, 92, 184)" stroke="none" d="M760 360 L760 320 L800 320 L800 360 L760 360 "/>
<path fill="rgb(115, 92, 184)" stroke="none" d="M800 360 L800 320 L840 320 L840 360 L800 360 "/>
<path fill="rgb(138, 92, 184)" stroke="none" d="M840 360 L840 320 L880 320 L880 360 L840 360 "/>
<path fill="rgb(161, 92, 184)" stroke="none" d="M880 360 L880 320 L920 320 L920 360 L880 360 "/>
<path fill="rgb(184, 92, 184)" stroke="none" d="M920 360 L920 320 L960 320 L960 360 L920 360 "/>
<path fill="rgb(184, 92, 161)" stroke="none" d="M960 360 L960 320 L1000 320 L1000 360 L960 360 "/>
<path fill="rgb(184, 92, 138)" stroke="none" d="M1000 360 L1000 320 L1040 320 L1040 360 L1000 360 "/>
<path fill="rgb(184, 92, 115)" stroke="none" d="M1040 360 L1040 320 L1080 320 L1080 360 L1040 360 "/>
<path fill="rgb(149, 75, 75)" stroke="none" d="M120 320 L120 280 L160 280 L160 320 L120 320 "/>
<path fill="rgb(149, 93, 75)" stroke="none" d="M160 320 L160 280 L200 280 L200 320 L160 320 "/>
<path fill="rgb(149, 112, 75)" stroke="none" d="M200 320 L200 280 L240 280 L240 320 L200 320 "/>
<path fill="rgb(149, 130, 75)" stroke="none" d="M240 320 L240 280 L280 280 L280 320 L240 320 "/>
<path fill="rgb(149, 149, 75)" stroke="none" d="M280 320 L280 280 L320 280 L320 320 L280 320 "/>
<path fill="rgb(130, 149, 75)" stroke="none" d="M320 320 L320 280 L360 280 L360 320 L320 320 "/>
<path fill="rgb(112, 149, 75)" stroke="none" d="M360 320 L360 280 L400 280 L400 320 L360 320 "/>
<path fill="rgb(93, 149, 75)" stroke="none" d="M400 320 L400 280 L440 280 L440 320 L400 320 "/>
<path fill="rgb(75, 149, 75)" stroke="none" d="M440 320 L440 280 L480 280 L480 320 L440 320 "/>
<path fill="rgb(75, 149, 93)" stroke="none" d="M480 320 L480 280 L520 280 L520 320 L480 320 "/>
<path fill="rgb(75, 149, 112)" stroke="none" d="M520 320 L520 280 L560 280 L560 320 L520 320 "/>
<path fill="rgb(75, 149, 130)" stroke="none" d="M560 320 L560 280 L600 280 L600 320 L560 320 "/>
<path fill="rgb(75, 149, 149)" stroke="none" d="M600 320 L600 280 L640 280 L640 320 L600 320 "/>
<path fill="rgb(75, 130, 149)" stroke="none" d="M640 320 L640 280 L680 280 L680 320 L640 320 "/>
<path fill="rgb(75, 112, 149)" stroke="none" d="M680 320 L680 280 L720 280 L720 320 L680 320 "/>
<path fill="rgb(75, 93, 149)" stroke="none" d="M720 320 L720 280 L760 280 L760 320 L720 320 "/>
<path fill="rgb(75, 75, 149)" stroke="none" d="M760 320 L760 280 L800 280 L800 320 L760 320 "/>
<path fill="rgb(93, 75, 149)" stroke="none" d="M800 320 L800 280 L840 280 L840 320 L800 320 "/>
<path fill="rgb(112, 75, 149)" stroke="none" d="M840 320 L840 280 L880 280 L880 320 L840 320 "/>
<path fill="rgb(130, 75, 149)" stroke="none" d="M880 320 L880 280 L920 280 L920 320 L880 320 "/>
<path fill="rgb(149, 75, 149)" stroke="none" d="M920 320 L920 280 L960 280 L960 320 L920 320 "/>
<path fill="rgb(149, 75, 130)" stroke="none" d="M960 320 L960 280 L1000 280 L1000 320 L960 320 "/>
<path fill="rgb(149, 75, 112)" stroke="none" d="M1000 320 L1000 280 L1040 280 L1040 320 L1000 320 "/>
<path fill="rgb(149, 75, 93)" stroke="none" d="M1040 320 L1040 280 L1080 280 L1080 320 L1040 320 "/>
<path fill="rgb(114, 57, 57)" stroke="none" d="M120 280 L120 240 L160 240 L160 280 L120 280 "/>
<path fill="rgb(114, 71, 57)" stroke="none" d="M160 280 L160 240 L200 240 L200 280 L160 280 "/>
<path fill="rgb(114, 86, 57)" stroke="none" d="M200 280 L200 240 L240 240 L240 280 L200 280 "/>
<path fill="rgb(114, 100, 57)" stroke="none" d="M240 280 L240 240 L280 240 L280 280 L240 280 "/>
<path fill="rgb(114, 114, 57)" stroke="none" d="M280 280 L280 240 L320 240 L320 280 L280 280 "/>
<path fill="rgb(100, 114, 57)" stroke="none" d="M320 280 L320 240 L360 240 L360 280 L320 280 "/>
<path fill="rgb(86, 114, 57)" stroke="none" d="M360 280 L360 240 L400 240 L400 280 L360 280 "/>
<path fill="rgb(71, 114, 57)" stroke="none" d="M400 280 L400 240 L440 240 L440 280 L400 280 "/>
<path fill="rgb(57, 114, 57)" stroke="none" d="M440 280 L440 240 L480 240 L480 280 L440 280 "/>
<path fill="rgb(57, 114, 71)" stroke="none" d="M480 280 L480 240 L520 240 L520 280 L480 280 "/>
<path fill="rgb(57, 114, 86)" stroke="none" d="M520 280 L520 240 L560 240 L560 280 L520 280 "/>
<path fill="rgb(57, 114, 100)" stroke="none" d="M560 280 L560 240 L600 240 L600 280 L560 280 "/>
<path fill="rgb(57, 114, 114)" stroke="none" d="M600 280 L600 240 L640 240 L640 280 L600 280 "/>
<path fill="rgb(57, 100, 114)" stroke="none" d="M640 280 L640 240 L680 240 L680 280 L640 280 "/>
<path fill="rgb(57, 86, 114)" stroke="none" d="M680 280 L680 240 L720 240 L720 280 L680 280 "/>
<path fill="rgb(57, 71, 114)" stroke="none" d="M720 280 L720 240 L760 240 L760 280 L720 280 "/>
<path fill="rgb(57, 57, 114)" stroke="none" d="M760 280 L760 240 L800 240 L800 280 L760 280 "/>
<path fill="rgb(71, 57, 114)" stroke="none" d="M800 280 L800 240 L840 240 L840 280 L800 280 "/>
<path fill="rgb(86, 57, 114)" stroke="none" d="M840 280 L840 240 L880 240 L880 280 L840 280 "/>
<path fill="rgb(100, 57, 114)" stroke="none" d="M880 280 L880 240 L920 240 L920 280 L880 280 "/>
<path fill="rgb(114, 57, 114)" stroke="none" d="M920 280 L920 240 L960 240 L960 280 L920 280 "/>
<path fill="rgb(114, 57, 100)" stroke="none" d="M960 280 L960 240 L1000 240 L1000 280 L960 280 "/>
<path fill="rgb(114, 57, 86)" stroke="none" d="M1000 280 L1000 240 L1040 240 L1040 280 L1000 280 "/>
<path fill="rgb(114, 57, 71)" stroke="none" d="M1040 280 L1040 240 L1080 240 L1080 280 L1040 280 "/>
<path stroke="rgb(0, 0, 0)" fill="none" d="M147.5 700.3 L149.2 698.7 L152.5 698.7 L154.2 700.3 L154.2 702 L152.5 703.7 L149.2 703.7 L147.5 705.3 L147.5 708.7 L154.2 708.7 "/>
<path stroke="rgb(0, 0, 0)" fill="none" d="M157.5 707 L159.2 708.7 L162.5 708.7 L164.2 707 L164.2 703.7 L162.5 702 L157.5 702 L157.5 698.7 L164.2 698.7 "/>
<path stroke="rgb(0, 0, 0)" fill="none" d="M169.2 708.7 L167.5 707 L167.5 700.3 L169.2 698.7 L170.8 698.7 L172.5 700.3 L172.5 707 L170.8 708.7 L169.2 708.7 "/>
<path fill="rgb(51, 51, 51)" stroke="none" d="M140 760 L140 720 L180 720 L180 760 L140 760 "/>
<path stroke="rgb(0, 0, 0)" fill="none" d="M208.3 700.3 L210 698.7 L213.3 698.7 L215 700.3 L215 702 L213.3 703.7 L210 703.7 L208.3 705.3 L208.3 708.7 L215 708.7 "/>
<path stroke="rgb(0, 0, 0)" fill="none" d="M218.3 707 L220 708.7 L223.3 708.7 L225 707 L225 703.7 L223.3 702 L218.3 702 L218.3 698.7 L225 698.7 "/>
<path stroke="rgb(0, 0, 0)" fill="none" d="M228.3 700.3 L230 698.7 L230 708.7 M228.3 708.7 L231.7 708.7 "/>
<path fill="rgb(91, 91, 91)" stroke="none" d="M200 760 L200 720 L240 720 L240 760 L200 760 "/>
<path stroke="rgb(0, 0, 0)" fill="none" d="M266.7 700.3 L268.3 698.7 L271.7 698.7 L273.3 700.3 L273.3 702 L271.7 703.7 L268.3 703.7 L266.7 705.3 L266.7 708.7 L273.3 708.7 "/>
<path stroke="rgb(0, 0, 0)" fill="none" d="M276.7 707 L278.3 708.7 L281.7 708.7 L283.3 707 L283.3 703.7 L281.7 702 L276.7 702 L276.7 698.7 L283.3 698.7 "/>
<path stroke="rgb(0, 0, 0)" fill="none" d="M286.7 700.3 L288.3 698.7 L291.7 698.7 L293.3 700.3 L293.3 702 L291.7 703.7 L288.3 703.7 L286.7 705.3 L286.7 708.7 L293.3 708.7 "/>
<path fill="rgb(132, 132, 132)" stroke="none" d="M260 760 L260 720 L300 720 L300 760 L260 760 "/>
<path stroke="rgb(0, 0, 0)" fill="none" d="M326.7 700.3 L328.3 698.7 L331.7 698.7 L333.3 700.3 L333.3 702 L331.7 703.7 L328.3 703.7 L326.7 705.3 L326.7 708.7 L333.3 708.7 "/>
<path stroke="rgb(0, 0, 0)" fill="none" d="M336.7 707 L338.3 708.7 L341.7 708.7 L343.3 707 L343.3 703.7 L341.7 702 L336.7 702 L336.7 698.7 L343.3 698.7 "/>
<path stroke="rgb(0, 0, 0)" fill="none" d="M346.7 700.3 L348.3 698.7 L351.7 698.7 L353.3 700.3 L353.3 702 L351.7 703.7 L350 703.7 M351.7 703.7 L353.3 705.3 L353.3 707 L351.7 708.7 L348.3 708.7 L346.7 707 "/>
<path fill="rgb(173, 173, 173)" stroke="none" d="M320 760 L320 720 L360 720 L360 760 L320 760 "/>
<path stroke="rgb(0, 0, 0)" fill="none" d="M386.7 700.3 L388.3 698.7 L391.7 698.7 L393.3 700.3 L393.3 702 L391.7 703.7 L388.3 703.7 L386.7 705.3 L386.7 708.7 L393.3 708.7 "/>
<path stroke="rgb(0, 0, 0)" fill="none" d="M396.7 707 L398.3 708.7 L401.7 708.7 L403.3 707 L403.3 703.7 L401.7 702 L396.7 702 L396.7 698.7 L403.3 698.7 "/>
<path stroke="rgb(0, 0, 0)" fill="none" d="M413.3 705.3 L406.7 705.3 L411.7 698.7 L411.7 708.7 "/>
<path fill="rgb(214, 214, 214)" stroke="none" d="M380 760 L380 720 L420 720 L420 760 L380 760 "/>
<path stroke="rgb(0, 0, 0)" fill="none" d="M446.7 700.3 L448.3 698.7 L451.7 698.7 L453.3 700.3 L453.3 702 L451.7 703.7 L448.3 703.7 L446.7 705.3 L446.7 708.7 L453.3 708.7 "/>
<path stroke="rgb(0, 0, 0)" fill="none" d="M456.7 707 L458.3 708.7 L461.7 708.7 L463.3 707 L463.3 703.7 L461.7 702 L456.7 702 L456.7 698.7 L463.3 698.7 "/>
<path stroke="rgb(0, 0, 0)" fill="none" d="M466.7 707 L468.3 708.7 L471.7 708.7 L473.3 707 L473.3 703.7 L471.7 702 L466.7 702 L466.7 698.7 L473.3 698.7 "/>
<path fill="rgb(0, 0, 0)" stroke="none" d="M440 760 L440 720 L480 720 L480 760 L440 760 "/>
</svg>