999
CadZinho - Minimalist CAD by Zecruel
0
SECTION
2
HEADER
9
$ACADVER
1
AC1021
9
$HANDSEED
5
7A
9
$INSUNITS
70
4
9
$LWDISPLAY
290
1
0
ENDSEC
0
SECTION
2
CLASSES
0
ENDSEC
0
SECTION
2
TABLES
0
TABLE
2
VPORT
5
1
100
AcDbSymbolTable
70
1000
0
VPORT
5
25
100
AcDbSymbolTableRecord
100
AcDbViewportTableRecord
2
*ACTIVE
70
0
10
0
20
0
11
1
21
1
12
20
22
320
13
0
23
0
14
100
24
100
15
100
25
100
16
0
26
0
36
1
17
0
27
0
37
0
40
25
41
1.8
42
50
43
0
44
0
50
0
51
0
0
ENDTAB
0
TABLE
2
LTYPE
5
4
100
AcDbSymbolTable
70
1000
0
LTYPE
5
5
100
AcDbSymbolTableRecord
100
AcDbLinetypeTableRecord
2
ByBlock
70
0
3

72
65
73
0
40
0
0
LTYPE
5
6
100
AcDbSymbolTableRecord
100
AcDbLinetypeTableRecord
2
ByLayer
70
0
3

72
65
73
0
40
0
0
LTYPE
5
7
100
AcDbSymbolTableRecord
100
AcDbLinetypeTableRecord
2
Continuous
70
0
3
___________________________________
72
65
73
0
40
0
0
LTYPE
5
8
100
AcDbSymbolTableRecord
100
AcDbLinetypeTableRecord
2
Border
70
0
3
____ . ____ ____ . ____ ____ . ____
72
65
73
6
40
1.75
49
0.5
74
0
49
-0.25
74
0
49
0.5
74
0
49
-0.25
74
0
49
0
74
0
49
-0.25
74
0
0
LTYPE
5
9
100
AcDbSymbolTableRecord
100
AcDbLinetypeTableRecord
2
Center
70
0
3
____ _ ____ _ ____ _ ____ _ ____ _
72
65
73
4
40
2
49
1.25
74
0
49
-0.25
74
0
49
0.25
74
0
49
-0.25
74
0
0
LTYPE
5
A
100
AcDbSymbolTableRecord
100
AcDbLinetypeTableRecord
2
Dashdot
70
0
3
____ . ____ . ____ . ____ . ____ .
72
65
73
4
40
1
49
0.5
74
0
49
-0.25
74
0
49
0
74
0
49
-0.25
74
0
0
LTYPE
5
B
100
AcDbSymbolTableRecord
100
AcDbLinetypeTableRecord
2
Dashed
70
0
3
____ ____ ____ ____ ____ ____ ____
72
65
73
2
40
0.75
49
0.5
74
0
49
-0.25
74
0
0
LTYPE
5
C
100
AcDbSymbolTableRecord
100
AcDbLinetypeTableRecord
2
Divide
70
0
3
____ . . ____ . . ____ . . ____ . .
72
65
73
6
40
1.25
49
0.5
74
0
49
-0.25
74
0
49
0
74
0
49
-0.25
74
0
49
0
74
0
49
-0.25
74
0
0
LTYPE
5
D
100
AcDbSymbolTableRecord
100
AcDbLinetypeTableRecord
2
Dot
70
0
3
. . . . . . . . . . . . . . . . . .
72
65
73
2
40
0.25
49
0
74
0
49
-0.25
74
0
0
LTYPE
5
E
100
AcDbSymbolTableRecord
100
AcDbLinetypeTableRecord
2
Hidden
70
0
3
__ __ __ __ __ __ __ __ __ __ __ __
72
65
73
2
40
0.375
49
0.25
74
0
49
-0.125
74
0
0
LTYPE
5
F
100
AcDbSymbolTableRecord
100
AcDbLinetypeTableRecord
2
Phantom
70
0
3
_____ _ _ _____ _ _ _____ _ _ _____
72
65
73
6
40
2.5
49
1.25
74
0
49
-0.25
74
0
49
0.25
74
0
49
-0.25
74
0
49
0.25
74
0
49
-0.25
74
0
0
ENDTAB
0
TABLE
2
LAYER
5
10
100
AcDbSymbolTable
70
1000
0
LAYER
5
11
100
AcDbSymbolTableRecord
100
AcDbLayerTableRecord
2
0
70
0
62
7
6
Continuous
370
0
390
2B
0
LAYER
5
2E
100
AcDbSymbolTableRecord
100
AcDbLayerTableRecord
2
dim
70
0
62
1
6
Continuous
370
0
390
2B
0
ENDTAB
0
TABLE
2
STYLE
5
12
100
AcDbSymbolTable
70
1000
0
STYLE
5
13
100
AcDbSymbolTableRecord
100
AcDbTextStyleTableRecord
2
Standard
70
0
40
0
41
1
50
0
71
0
42
1
3
TXT.SHX
4

0
STYLE
5
24
100
AcDbSymbolTableRecord
100
AcDbTextStyleTableRecord
2

70
1
40
0
41
1
50
0
71
0
42
1
3
LTYPESHP.SHX
4

0
ENDTAB
0
TABLE
2
VIEW
5
14
100
AcDbSymbolTable
70
0
0
ENDTAB
0
TABLE
2
UCS
5
15
100
AcDbSymbolTable
70
0
0
ENDTAB
0
TABLE
2
APPID
5
16
100
AcDbSymbolTable
70
10
0
APPID
5
17
100
AcDbSymbolTableRecord
100
AcDbRegAppTableRecord
2
ACAD
70
0
0
APPID
5
18
100
AcDbSymbolTableRecord
100
AcDbRegAppTableRecord
2
CADZINHO
70
0
0
ENDTAB
0
TABLE
2
DIMSTYLE
5
19
100
AcDbSymbolTable
70
1
100
AcDbDimStyleTable
71
1
0
DIMSTYLE
105
1A
100
AcDbSymbolTableRecord
100
AcDbDimStyleTableRecord
2
Standard
70
0
340
C
0
ENDTAB
0
TABLE
2
BLOCK_RECORD
5
1B
100
AcDbSymbolTable
70
9999
0
BLOCK_RECORD
5
1C
100
AcDbSymbolTableRecord
100
AcDbBlockTableRecord
2
*Model_Space
70
0
0
BLOCK_RECORD
5
1D
100
AcDbSymbolTableRecord
100
AcDbBlockTableRecord
2
*Paper_Space
70
0
0
BLOCK_RECORD
5
32
100
AcDbSymbolTableRecord
100
AcDbBlockTableRecord
2
*D1
70
0
0
BLOCK_RECORD
5
3E
100
AcDbSymbolTableRecord
100
AcDbBlockTableRecord
2
*D2
70
0
0
BLOCK_RECORD
5
4A
100
AcDbSymbolTableRecord
100
AcDbBlockTableRecord
2
*D3
70
0
0
BLOCK_RECORD
5
56
100
AcDbSymbolTableRecord
100
AcDbBlockTableRecord
2
*D4
70
0
0
BLOCK_RECORD
5
62
100
AcDbSymbolTableRecord
100
AcDbBlockTableRecord
2
*D5
70
0
0
BLOCK_RECORD
5
6E
100
AcDbSymbolTableRecord
100
AcDbBlockTableRecord
2
*D6
70
0
0
ENDTAB
0
ENDSEC
0
SECTION
2
BLOCKS
0
BLOCK
5
1E
100
AcDbEntity
8
0
100
AcDbBlockBegin
2
*Model_Space
70
0
10
0
20
0
30
0
3
*Model_Space
1

0
ENDBLK
5
1F
100
AcDbEntity
8
0
100
AcDbBlockEnd
0
BLOCK
5
20
100
AcDbEntity
8
0
100
AcDbBlockBegin
2
*Paper_Space
70
0
10
0
20
0
30
0
3
*Paper_Space
1

0
ENDBLK
5
21
100
AcDbEntity
8
0
100
AcDbBlockEnd
0
BLOCK
5
33
330
32
100
AcDbEntity
8
0
100
AcDbBlockBegin
2
*D1
70
1
10
0
20
0
30
0
3
*D1
1

4

0
ARC
5
34
100
AcDbEntity
67
0
8
0
6
BYBLOCK
62
0
370
-2
100
AcDbCircle
10
7.95
20
7.4
30
0
40
5.7027
100
AcDbArc
50
0
51
36.8699
0
LINE
5
35
100
AcDbEntity
67
0
8
0
6
BYBLOCK
62
0
370
-2
100
AcDbLine
10
12.5122
20
10.8216
30
0
11
13.2176
21
10.0635
31
0
0
LINE
5
36
100
AcDbEntity
67
0
8
0
6
BYBLOCK
62
0
370
-2
100
AcDbLine
10
12.5122
20
10.8216
30
0
11
12.8606
21
9.88299
31
0
0
LINE
5
37
100
AcDbEntity
67
0
8
0
6
BYBLOCK
62
0
370
-2
100
AcDbLine
10
13.6527
20
7.4
30
0
11
13.7622
21
8.42977
31
0
0
LINE
5
38
100
AcDbEntity
67
0
8
0
6
BYBLOCK
62
0
370
-2
100
AcDbLine
10
13.6527
20
7.4
30
0
11
13.3683
21
8.35999
31
0
0
MTEXT
5
39
100
AcDbEntity
67
0
8
0
6
BYBLOCK
62
0
370
-2
100
AcDbMText
10
15.2574
20
9.83581
30
0
40
1
41
0
71
5
72
1
1
37°
7
Standard
11
1
21
0
31
0
0
LINE
5
3A
100
AcDbEntity
67
0
8
0
6
BYBLOCK
62
0
370
-2
100
AcDbLine
10
12.9122
20
11.1216
30
0
11
10.9901
21
9.68007
31
0
0
LINE
5
3B
100
AcDbEntity
67
0
8
0
6
BYBLOCK
62
0
370
-2
100
AcDbLine
10
14.1527
20
7.4
30
0
11
11.6462
21
7.4
31
0
0
ENDBLK
5
3C
330
33
100
AcDbEntity
8
0
100
AcDbBlockEnd
0
BLOCK
5
3F
330
3E
100
AcDbEntity
8
0
100
AcDbBlockBegin
2
*D2
70
1
10
0
20
0
30
0
3
*D2
1

4

0
ARC
5
40
100
AcDbEntity
67
0
8
0
6
BYBLOCK
62
0
370
-2
100
AcDbCircle
10
27.95
20
22.4
30
0
40
5.74335
100
AcDbArc
50
-143.13
51
-90
0
LINE
5
41
100
AcDbEntity
67
0
8
0
6
BYBLOCK
62
0
370
-2
100
AcDbLine
10
27.95
20
16.6566
30
0
11
26.9204
21
16.5465
31
0
0
LINE
5
42
100
AcDbEntity
67
0
8
0
6
BYBLOCK
62
0
370
-2
100
AcDbLine
10
27.95
20
16.6566
30
0
11
26.9897
21
16.9405
31
0
0
LINE
5
43
100
AcDbEntity
67
0
8
0
6
BYBLOCK
62
0
370
-2
100
AcDbLine
10
23.3553
20
18.954
30
0
11
23.885
21
18.0642
31
0
0
LINE
5
44
100
AcDbEntity
67
0
8
0
6
BYBLOCK
62
0
370
-2
100
AcDbLine
10
23.3553
20
18.954
30
0
11
24.1586
21
18.356
31
0
0
MTEXT
5
45
100
AcDbEntity
67
0
8
0
6
BYBLOCK
62
0
370
-2
100
AcDbMText
10
24.4871
20
15.4741
30
0
40
1
41
0
71
5
72
1
1
53°
7
Standard
11
1
21
0
31
0
0
LINE
5
46
100
AcDbEntity
67
0
8
0
6
BYBLOCK
62
0
370
-2
100
AcDbLine
10
27.95
20
16.1566
30
0
11
27.95
21
20.7027
31
0
0
LINE
5
47
100
AcDbEntity
67
0
8
0
6
BYBLOCK
62
0
370
-2
100
AcDbLine
10
22.9553
20
18.654
30
0
11
26.0846
21
21.0009
31
0
0
ENDBLK
5
48
330
3F
100
AcDbEntity
8
0
100
AcDbBlockEnd
0
BLOCK
5
4B
330
4A
100
AcDbEntity
8
0
100
AcDbBlockBegin
2
*D3
70
1
10
0
20
0
30
0
3
*D3
1

4

0
ARC
5
4C
100
AcDbEntity
67
0
8
0
6
BYBLOCK
62
0
370
-2
100
AcDbCircle
10
27.95
20
7.4
30
0
40
4.96645
100
AcDbArc
50
90
51
180
0
LINE
5
4D
100
AcDbEntity
67
0
8
0
6
BYBLOCK
62
0
370
-2
100
AcDbLine
10
22.9835
20
7.4
30
0
11
22.8879
21
8.43326
31
0
0
LINE
5
4E
100
AcDbEntity
67
0
8
0
6
BYBLOCK
62
0
370
-2
100
AcDbLine
10
22.9835
20
7.4
30
0
11
23.2798
21
8.35326
31
0
0
LINE
5
4F
100
AcDbEntity
67
0
8
0
6
BYBLOCK
62
0
370
-2
100
AcDbLine
10
27.95
20
12.3665
30
0
11
26.9167
21
12.4621
31
0
0
LINE
5
50
100
AcDbEntity
67
0
8
0
6
BYBLOCK
62
0
370
-2
100
AcDbLine
10
27.95
20
12.3665
30
0
11
26.9967
21
12.0702
31
0
0
MTEXT
5
51
100
AcDbEntity
67
0
8
0
6
BYBLOCK
62
0
370
-2
100
AcDbMText
10
23.024
20
12.326
30
0
40
1
41
0
71
5
72
1
1
90°
7
Standard
11
1
21
0
31
0
0
LINE
5
52
100
AcDbEntity
67
0
8
0
6
BYBLOCK
62
0
370
-2
100
AcDbLine
10
22.4835
20
7.4
30
0
11
25.1516
21
7.4
31
0
0
LINE
5
53
100
AcDbEntity
67
0
8
0
6
BYBLOCK
62
0
370
-2
100
AcDbLine
10
27.95
20
12.8665
30
0
11
27.95
21
10.7687
31
0
0
ENDBLK
5
54
330
4B
100
AcDbEntity
8
0
100
AcDbBlockEnd
0
BLOCK
5
57
330
56
100
AcDbEntity
8
0
100
AcDbBlockBegin
2
*D4
70
1
10
0
20
0
30
0
3
*D4
1

4

0
LINE
5
58
100
AcDbEntity
67
0
8
0
6
BYBLOCK
62
0
370
-2
100
AcDbLine
10
26.3258
20
24.5655
30
0
11
6.32585
21
9.56554
31
0
0
LINE
5
59
100
AcDbEntity
67
0
8
0
6
BYBLOCK
62
0
370
-2
100
AcDbLine
10
26.3258
20
24.5655
30
0
11
25.4058
21
24.1255
31
0
0
LINE
5
5A
100
AcDbEntity
67
0
8
0
6
BYBLOCK
62
0
370
-2
100
AcDbLine
10
26.3258
20
24.5655
30
0
11
25.6458
21
23.8055
31
0
0
LINE
5
5B
100
AcDbEntity
67
0
8
0
6
BYBLOCK
62
0
370
-2
100
AcDbLine
10
6.32585
20
9.56554
30
0
11
7.00585
21
10.3255
31
0
0
LINE
5
5C
100
AcDbEntity
67
0
8
0
6
BYBLOCK
62
0
370
-2
100
AcDbLine
10
6.32585
20
9.56554
30
0
11
7.24585
21
10.0055
31
0
0
MTEXT
5
5D
100
AcDbEntity
67
0
8
0
6
BYBLOCK
62
0
370
-2
100
AcDbMText
10
15.7258
20
17.8655
30
0
40
1
41
0
71
5
72
1
1
25.00
7
Standard
11
0.8
21
0.6
31
0
0
LINE
5
5E
100
AcDbEntity
67
0
8
0
6
BYBLOCK
62
0
370
-2
100
AcDbLine
10
26.0258
20
24.9655
30
0
11
27.65
21
22.8
31
0
0
LINE
5
5F
100
AcDbEntity
67
0
8
0
6
BYBLOCK
62
0
370
-2
100
AcDbLine
10
6.02585
20
9.96554
30
0
11
7.65
21
7.8
31
0
0
ENDBLK
5
60
330
57
100
AcDbEntity
8
0
100
AcDbBlockEnd
0
BLOCK
5
63
330
62
100
AcDbEntity
8
0
100
AcDbBlockBegin
2
*D5
70
1
10
0
20
0
30
0
3
*D5
1

4

0
LINE
5
64
100
AcDbEntity
67
0
8
0
6
BYBLOCK
62
0
370
-2
100
AcDbLine
10
30.8714
20
7.4
30
0
11
30.8714
21
22.4
31
0
0
LINE
5
65
100
AcDbEntity
67
0
8
0
6
BYBLOCK
62
0
370
-2
100
AcDbLine
10
30.8714
20
7.4
30
0
11
31.0714
21
8.4
31
0
0
LINE
5
66
100
AcDbEntity
67
0
8
0
6
BYBLOCK
62
0
370
-2
100
AcDbLine
10
30.8714
20
7.4
30
0
11
30.6714
21
8.4
31
0
0
LINE
5
67
100
AcDbEntity
67
0
8
0
6
BYBLOCK
62
0
370
-2
100
AcDbLine
10
30.8714
20
22.4
30
0
11
31.0714
21
21.4
31
0
0
LINE
5
68
100
AcDbEntity
67
0
8
0
6
BYBLOCK
62
0
370
-2
100
AcDbLine
10
30.8714
20
22.4
30
0
11
30.6714
21
21.4
31
0
0
MTEXT
5
69
100
AcDbEntity
67
0
8
0
6
BYBLOCK
62
0
370
-2
100
AcDbMText
10
31.8714
20
14.9
30
0
40
1
41
0
71
5
72
1
1
15.00
7
Standard
11
6.12303e-017
21
-1
31
0
0
LINE
5
6A
100
AcDbEntity
67
0
8
0
6
BYBLOCK
62
0
370
-2
100
AcDbLine
10
31.3714
20
7.4
30
0
11
28.45
21
7.4
31
0
0
LINE
5
6B
100
AcDbEntity
67
0
8
0
6
BYBLOCK
62
0
370
-2
100
AcDbLine
10
31.3714
20
22.4
30
0
11
28.45
21
22.4
31
0
0
ENDBLK
5
6C
330
63
100
AcDbEntity
8
0
100
AcDbBlockEnd
0
BLOCK
5
6F
330
6E
100
AcDbEntity
8
0
100
AcDbBlockBegin
2
*D6
70
1
10
0
20
0
30
0
3
*D6
1

4

0
LINE
5
70
100
AcDbEntity
67
0
8
0
6
BYBLOCK
62
0
370
-2
100
AcDbLine
10
27.95
20
4.33462
30
0
11
7.95
21
4.33462
31
0
0
LINE
5
71
100
AcDbEntity
67
0
8
0
6
BYBLOCK
62
0
370
-2
100
AcDbLine
10
27.95
20
4.33462
30
0
11
26.95
21
4.53462
31
0
0
LINE
5
72
100
AcDbEntity
67
0
8
0
6
BYBLOCK
62
0
370
-2
100
AcDbLine
10
27.95
20
4.33462
30
0
11
26.95
21
4.13462
31
0
0
LINE
5
73
100
AcDbEntity
67
0
8
0
6
BYBLOCK
62
0
370
-2
100
AcDbLine
10
7.95
20
4.33462
30
0
11
8.95
21
4.53462
31
0
0
LINE
5
74
100
AcDbEntity
67
0
8
0
6
BYBLOCK
62
0
370
-2
100
AcDbLine
10
7.95
20
4.33462
30
0
11
8.95
21
4.13462
31
0
0
MTEXT
5
75
100
AcDbEntity
67
0
8
0
6
BYBLOCK
62
0
370
-2
100
AcDbMText
10
17.95
20
3.33462
30
0
40
1
41
0
71
5
72
1
1
20.00
7
Standard
11
1
21
0
31
0
0
LINE
5
76
100
AcDbEntity
67
0
8
0
6
BYBLOCK
62
0
370
-2
100
AcDbLine
10
27.95
20
3.83462
30
0
11
27.95
21
6.9
31
0
0
LINE
5
77
100
AcDbEntity
67
0
8
0
6
BYBLOCK
62
0
370
-2
100
AcDbLine
10
7.95
20
3.83462
30
0
11
7.95
21
6.9
31
0
0
ENDBLK
5
78
330
6F
100
AcDbEntity
8
0
100
AcDbBlockEnd
0
ENDSEC
0
SECTION
2
ENTITIES
0
LINE
5
2F
100
AcDbEntity
67
0
8
0
6
ByLayer
62
256
370
-1
100
AcDbLine
10
7.95
20
7.4
30
0
11
27.95
21
7.4
31
0
0
LINE
5
30
100
AcDbEntity
67
0
8
0
6
ByLayer
62
256
370
-1
100
AcDbLine
10
27.95
20
7.4
30
0
11
27.95
21
22.4
31
0
0
LINE
5
31
100
AcDbEntity
67
0
8
0
6
ByLayer
62
256
370
-1
100
AcDbLine
10
27.95
20
22.4
30
0
11
7.95
21
7.4
31
0
0
DIMENSION
5
3D
100
AcDbEntity
67
0
8
dim
6
ByLayer
62
256
370
-1
100
AcDbDimension
2
*D1
10
11.1462
20
7.4
30
0
11
15.2574
21
9.83581
31
0
70
34
71
5
42
36.8699
1
<>
73
0
74
0
75
0
3
Standard
100
AcDb2LineAngularDimension
13
7.95
23
7.4
33
0
14
10.5901
24
9.38007
34
0
15
7.95
25
7.4
35
0
16
13.3601
26
9.20335
36
0
0
DIMENSION
5
49
100
AcDbEntity
67
0
8
dim
6
ByLayer
62
256
370
-1
100
AcDbDimension
2
*D2
10
26.4846
20
21.3009
30
0
11
24.4871
21
15.4741
31
0
70
34
71
5
42
53.1301
1
<>
73
0
74
0
75
0
3
Standard
100
AcDb2LineAngularDimension
13
27.95
23
22.4
33
0
14
27.95
24
21.2027
34
0
15
27.95
25
22.4
35
0
16
25.3815
26
17.263
36
0
0
DIMENSION
5
55
100
AcDbEntity
67
0
8
dim
6
ByLayer
62
256
370
-1
100
AcDbDimension
2
*D3
10
27.95
20
10.2687
30
0
11
23.024
21
12.326
31
0
70
34
71
5
42
90
1
<>
73
0
74
0
75
0
3
Standard
100
AcDb2LineAngularDimension
13
27.95
23
7.4
33
0
14
25.6516
24
7.4
34
0
15
27.95
25
7.4
35
0
16
24.4382
26
10.9118
36
0
0
DIMENSION
5
61
100
AcDbEntity
67
0
8
dim
6
ByLayer
62
256
370
-1
100
AcDbDimension
2
*D4
10
26.3258
20
24.5655
30
0
11
15.7258
21
17.8655
31
0
70
32
71
5
42
25
1
<>
73
0
74
0
75
0
3
Standard
100
AcDbAlignedDimension
13
7.95
23
7.4
33
0
14
27.95
24
22.4
34
0
50
36.8699
100
AcDbRotatedDimension
0
DIMENSION
5
6D
100
AcDbEntity
67
0
8
dim
6
ByLayer
62
256
370
-1
100
AcDbDimension
2
*D5
10
30.8714
20
7.4
30
0
11
31.8714
21
14.9
31
0
70
32
71
5
42
15
1
<>
73
0
74
0
75
0
3
Standard
100
AcDbAlignedDimension
13
27.95
23
22.4
33
0
14
27.95
24
7.4
34
0
50
-90
100
AcDbRotatedDimension
0
DIMENSION
5
79
100
AcDbEntity
67
0
8
dim
6
ByLayer
62
256
370
-1
100
AcDbDimension
2
*D6
10
27.95
20
4.33462
30
0
11
17.95
21
3.33462
31
0
70
32
71
5
42
20
1
<>
73
0
74
0
75
0
3
Standard
100
AcDbAlignedDimension
13
7.95
23
7.4
33
0
14
27.95
24
7.4
34
0
50
0
100
AcDbRotatedDimension
0
ENDSEC
0
SECTION
2
OBJECTS
0
DICTIONARY
5
22
100
AcDbDictionary
281
1
3
ACAD_COLOR
350
23
3
ACAD_GROUP
350
26
3
ACAD_LAYOUT
350
27
3
ACAD_MATERIAL
350
28
3
ACAD_MLINESTYLE
350
29
3
ACAD_PLOTSETTINGS
350
2A
3
ACAD_PLOTSTYLENAME
350
2B
3
ACAD_TABLESTYLE
350
2C
3
AcadDim
350
2D
0
DICTIONARY
5
23
100
AcDbDictionary
0
DICTIONARY
5
26
100
AcDbDictionary
0
DICTIONARY
5
27
100
AcDbDictionary
0
DICTIONARY
5
28
100
AcDbDictionary
0
DICTIONARY
5
29
100
AcDbDictionary
0
DICTIONARY
5
2A
100
AcDbDictionary
0
DICTIONARY
5
2B
100
AcDbDictionary
0
DICTIONARY
5
2C
100
AcDbDictionary
0
DICTIONARY
5
2D
100
AcDbDictionary
0
ENDSEC
0
EOF
