<svg width="1188.0000" height="840.0000" version="1.1" xmlns="http://www.w3.org/2000/svg" xmlns:xlink="http://www.w3.org/1999/xlink">
<path stroke="rgb(0, 0, 0)" fill="none" d="M189 654 L909 654 "/>
<path stroke="rgb(0, 0, 0)" fill="none" d="M909 654 L909 114 "/>
<path stroke="rgb(0, 0, 0)" fill="none" d="M909 114 L189 654 "/>
<path stroke="rgb(255, 0, 0)" fill="none" d="M394.3 654 L394.3 649.9 L394.2 645.7 L394 641.6 L393.7 637.5 L393.3 633.4 L392.9 629.3 L392.3 625.2 L391.7 621.1 L391 617 L390.2 613 L389.3 609 L388.4 604.9 L387.4 600.9 L386.3 597 L385.1 593 L383.8 589.1 L382.5 585.2 L381 581.3 L379.5 577.5 L378 573.6 L376.3 569.9 L374.6 566.1 L372.8 562.4 L370.9 558.7 L368.9 555.1 L366.9 551.5 L364.8 547.9 L362.7 544.4 L360.4 541 L358.1 537.5 L355.7 534.2 L353.3 530.8 "/>
<path stroke="rgb(255, 0, 0)" fill="none" d="M353.3 530.8 L378.7 558.1 "/>
<path stroke="rgb(255, 0, 0)" fill="none" d="M353.3 530.8 L365.8 564.6 "/>
<path stroke="rgb(255, 0, 0)" fill="none" d="M394.3 654 L398.3 616.9 "/>
<path stroke="rgb(255, 0, 0)" fill="none" d="M394.3 654 L384.1 619.4 "/>
<path stroke="rgb(255, 0, 0)" fill="none" d="M404.1 554.3 L410.1 548.3 L422.1 548.3 L428.1 554.3 L428.1 560.3 L422.1 566.3 L416.1 566.3 M422.1 566.3 L428.1 572.3 L428.1 578.3 L422.1 584.3 L410.1 584.3 L404.1 578.3 "/>
<path stroke="rgb(255, 0, 0)" fill="none" d="M440.1 548.3 L464.1 548.3 L446.1 584.3 "/>
<path stroke="rgb(255, 0, 0)" fill="none" d="M476.1 554.3 L482.1 548.3 L488.1 554.3 L482.1 560.3 L476.1 554.3 "/>
<path stroke="rgb(255, 0, 0)" fill="none" d="M367.7 520 L298.5 571.9 "/>
<path stroke="rgb(255, 0, 0)" fill="none" d="M412.3 654 L322.1 654 "/>
<path stroke="rgb(255, 0, 0)" fill="none" d="M743.6 238.1 L747.3 242.8 L751.1 247.4 L755 252 L759.1 256.4 L763.3 260.6 L767.6 264.8 L772 268.8 L776.6 272.7 L781.2 276.5 L786 280.2 L790.9 283.6 L795.8 287 L800.9 290.2 L806 293.3 L811.3 296.2 L816.6 298.9 L822 301.5 L827.5 304 L833 306.3 L838.6 308.4 L844.3 310.3 L850 312.1 L855.7 313.8 L861.5 315.2 L867.4 316.5 L873.3 317.6 L879.2 318.6 L885.1 319.4 L891.1 320 L897.1 320.4 L903.1 320.7 L909 320.8 "/>
<path stroke="rgb(255, 0, 0)" fill="none" d="M909 320.8 L872 324.7 "/>
<path stroke="rgb(255, 0, 0)" fill="none" d="M909 320.8 L874.5 310.5 "/>
<path stroke="rgb(255, 0, 0)" fill="none" d="M743.6 238.1 L762.7 270.1 "/>
<path stroke="rgb(255, 0, 0)" fill="none" d="M743.6 238.1 L772.6 259.6 "/>
<path stroke="rgb(255, 0, 0)" fill="none" d="M736.4 375.3 L742.4 381.3 L754.4 381.3 L760.4 375.3 L760.4 363.3 L754.4 357.3 L736.4 357.3 L736.4 345.3 L760.4 345.3 "/>
<path stroke="rgb(255, 0, 0)" fill="none" d="M772.4 351.3 L778.4 345.3 L790.4 345.3 L796.4 351.3 L796.4 357.3 L790.4 363.3 L784.4 363.3 M790.4 363.3 L796.4 369.3 L796.4 375.3 L790.4 381.3 L778.4 381.3 L772.4 375.3 "/>
<path stroke="rgb(255, 0, 0)" fill="none" d="M808.4 351.3 L814.4 345.3 L820.4 351.3 L814.4 357.3 L808.4 351.3 "/>
<path stroke="rgb(255, 0, 0)" fill="none" d="M909 338.8 L909 175.1 "/>
<path stroke="rgb(255, 0, 0)" fill="none" d="M729.2 248.9 L841.9 164.4 "/>
<path stroke="rgb(255, 0, 0)" fill="none" d="M909 475.2 L900.3 475.4 L891.5 476.1 L882.8 477.1 L874.2 478.6 L865.6 480.6 L857.1 482.9 L848.8 485.7 L840.6 488.8 L832.6 492.4 L824.8 496.3 L817.1 500.6 L809.7 505.3 L802.5 510.4 L795.6 515.8 L789 521.5 L782.6 527.6 L776.6 533.9 L770.8 540.6 L765.4 547.5 L760.4 554.7 L755.7 562.1 L751.4 569.7 L747.4 577.6 L743.9 585.6 L740.7 593.8 L738 602.1 L735.6 610.6 L733.7 619.1 L732.2 627.8 L731.1 636.5 L730.5 645.2 L730.3 654 "/>
<path stroke="rgb(255, 0, 0)" fill="none" d="M730.3 654 L726.8 616.8 "/>
<path stroke="rgb(255, 0, 0)" fill="none" d="M730.3 654 L740.9 619.7 "/>
<path stroke="rgb(255, 0, 0)" fill="none" d="M909 475.2 L871.9 471.8 "/>
<path stroke="rgb(255, 0, 0)" fill="none" d="M909 475.2 L874.7 485.9 "/>
<path stroke="rgb(255, 0, 0)" fill="none" d="M692.7 494.7 L698.7 494.7 L710.7 482.7 L710.7 464.7 L704.7 458.7 L692.7 458.7 L686.7 464.7 L686.7 470.7 L692.7 476.7 L710.7 476.7 "/>
<path stroke="rgb(255, 0, 0)" fill="none" d="M728.7 494.7 L722.7 488.7 L722.7 464.7 L728.7 458.7 L734.7 458.7 L740.7 464.7 L740.7 488.7 L734.7 494.7 L728.7 494.7 "/>
<path stroke="rgb(255, 0, 0)" fill="none" d="M752.7 464.7 L758.7 458.7 L764.7 464.7 L758.7 470.7 L752.7 464.7 "/>
<path stroke="rgb(255, 0, 0)" fill="none" d="M712.3 654 L808.3 654 "/>
<path stroke="rgb(255, 0, 0)" fill="none" d="M909 457.2 L909 532.7 "/>
<path stroke="rgb(255, 0, 0)" fill="none" d="M850.6 36.04 L130.6 576 "/>
<path stroke="rgb(255, 0, 0)" fill="none" d="M850.6 36.04 L817.5 51.88 "/>
<path stroke="rgb(255, 0, 0)" fill="none" d="M850.6 36.04 L826.1 63.4 "/>
<path stroke="rgb(255, 0, 0)" fill="none" d="M130.6 576 L155.1 548.7 "/>
<path stroke="rgb(255, 0, 0)" fill="none" d="M130.6 576 L163.7 560.2 "/>
<path stroke="rgb(255, 0, 0)" fill="none" d="M404.2 310.8 L405.4 302.4 L415 295.2 L423.4 296.4 L427 301.2 L425.8 309.6 L416.2 316.8 L415 325.2 L422.2 334.8 L441.4 320.4 "/>
<path stroke="rgb(255, 0, 0)" fill="none" d="M447.4 308.4 L455.8 309.6 L465.4 302.4 L466.6 294 L459.4 284.4 L451 283.2 L436.6 294 L429.4 284.4 L448.6 270 "/>
<path stroke="rgb(255, 0, 0)" fill="none" d="M479.8 291.6 L476.2 286.8 "/>
<path stroke="rgb(255, 0, 0)" fill="none" d="M494.2 280.8 L485.8 279.6 L471.4 260.4 L472.6 252 L477.4 248.4 L485.8 249.6 L500.2 268.8 L499 277.2 L494.2 280.8 "/>
<path stroke="rgb(255, 0, 0)" fill="none" d="M518.2 262.8 L509.8 261.6 L495.4 242.4 L496.6 234 L501.4 230.4 L509.8 231.6 L524.2 250.8 L523 259.2 L518.2 262.8 "/>
<path stroke="rgb(255, 0, 0)" fill="none" d="M839.8 21.64 L898.2 99.6 "/>
<path stroke="rgb(255, 0, 0)" fill="none" d="M119.8 561.6 L178.2 639.6 "/>
<path stroke="rgb(255, 0, 0)" fill="none" d="M1014 654 L1014 114 "/>
<path stroke="rgb(255, 0, 0)" fill="none" d="M1014 654 L1021 618 "/>
<path stroke="rgb(255, 0, 0)" fill="none" d="M1014 654 L1007 618 "/>
<path stroke="rgb(255, 0, 0)" fill="none" d="M1014 114 L1021 150 "/>
<path stroke="rgb(255, 0, 0)" fill="none" d="M1014 114 L1007 150 "/>
<path stroke="rgb(255, 0, 0)" fill="none" d="M1062 318 L1068 324 L1032 324 M1032 318 L1032 330 "/>
<path stroke="rgb(255, 0, 0)" fill="none" d="M1038 342 L1032 348 L1032 360 L1038 366 L1050 366 L1056 360 L1056 342 L1068 342 L1068 366 "/>
<path stroke="rgb(255, 0, 0)" fill="none" d="M1032 378 L1038 378 "/>
<path stroke="rgb(255, 0, 0)" fill="none" d="M1032 396 L1038 390 L1062 390 L1068 396 L1068 402 L1062 408 L1038 408 L1032 402 L1032 396 "/>
<path stroke="rgb(255, 0, 0)" fill="none" d="M1032 426 L1038 420 L1062 420 L1068 426 L1068 432 L1062 438 L1038 438 L1032 432 L1032 426 "/>
<path stroke="rgb(255, 0, 0)" fill="none" d="M1032 654 L927 654 "/>
<path stroke="rgb(255, 0, 0)" fill="none" d="M1032 114 L927 114 "/>
<path stroke="rgb(255, 0, 0)" fill="none" d="M909 764.4 L189 764.4 "/>
<path stroke="rgb(255, 0, 0)" fill="none" d="M909 764.4 L873 757.2 "/>
<path stroke="rgb(255, 0, 0)" fill="none" d="M909 764.4 L873 771.6 "/>
<path stroke="rgb(255, 0, 0)" fill="none" d="M189 764.4 L225 757.2 "/>
<path stroke="rgb(255, 0, 0)" fill="none" d="M189 764.4 L225 771.6 "/>
<path stroke="rgb(255, 0, 0)" fill="none" d="M480 788.4 L486 782.4 L498 782.4 L504 788.4 L504 794.4 L498 800.4 L486 800.4 L480 806.4 L480 818.4 L504 818.4 "/>
<path stroke="rgb(255, 0, 0)" fill="none" d="M522 818.4 L516 812.4 L516 788.4 L522 782.4 L528 782.4 L534 788.4 L534 812.4 L528 818.4 L522 818.4 "/>
<path stroke="rgb(255, 0, 0)" fill="none" d="M546 818.4 L546 812.4 "/>
<path stroke="rgb(255, 0, 0)" fill="none" d="M564 818.4 L558 812.4 L558 788.4 L564 782.4 L570 782.4 L576 788.4 L576 812.4 L570 818.4 L564 818.4 "/>
<path stroke="rgb(255, 0, 0)" fill="none" d="M594 818.4 L588 812.4 L588 788.4 L594 782.4 L600 782.4 L606 788.4 L606 812.4 L600 818.4 L594 818.4 "/>
<path stroke="rgb(255, 0, 0)" fill="none" d="M909 782.4 L909 672 "/>
<path stroke="rgb(255, 0, 0)" fill="none" d="M189 782.4 L189 672 "/>
</svg>