999
CadZinho - Minimalist CAD by Zecruel
0
SECTION
2
HEADER
9
$ACADVER
1
AC1021
9
$HANDSEED
5
10A
9
$INSUNITS
70
4
9
$LWDISPLAY
290
1
0
ENDSEC
0
SECTION
2
CLASSES
0
ENDSEC
0
SECTION
2
TABLES
0
TABLE
2
VPORT
5
1
100
AcDbSymbolTable
70
1000
0
VPORT
5
25
100
AcDbSymbolTableRecord
100
AcDbViewportTableRecord
2
*ACTIVE
70
0
10
0.000000
20
0.000000
11
1.000000
21
1.000000
12
35.000000
22
340.000000
13
0.000000
23
0.000000
14
100.000000
24
100.000000
15
100.000000
25
100.000000
16
0.000000
26
0.000000
36
1.000000
17
0.000000
27
0.000000
37
0.000000
40
60.000000
41
1.800000
42
50.000000
43
0.000000
44
0.000000
50
0.000000
51
0.000000
0
ENDTAB
0
TABLE
2
LTYPE
5
4
100
AcDbSymbolTable
70
1000
0
LTYPE
5
5
100
AcDbSymbolTableRecord
100
AcDbLinetypeTableRecord
2
ByBlock
70
0
3

72
65
73
0
40
0.000000
0
LTYPE
5
6
100
AcDbSymbolTableRecord
100
AcDbLinetypeTableRecord
2
ByLayer
70
0
3

72
65
73
0
40
0.000000
0
LTYPE
5
7
100
AcDbSymbolTableRecord
100
AcDbLinetypeTableRecord
2
Continuous
70
0
3
___________________________________
72
65
73
0
40
0.000000
0
LTYPE
5
8
100
AcDbSymbolTableRecord
100
AcDbLinetypeTableRecord
2
Border
70
0
3
____ . ____ ____ . ____ ____ . ____
72
65
73
6
40
1.750000
49
0.500000
74
0
49
-0.250000
74
0
49
0.500000
74
0
49
-0.250000
74
0
49
0.000000
74
0
49
-0.250000
74
0
0
LTYPE
5
9
100
AcDbSymbolTableRecord
100
AcDbLinetypeTableRecord
2
Center
70
0
3
____ _ ____ _ ____ _ ____ _ ____ _
72
65
73
4
40
2.000000
49
1.250000
74
0
49
-0.250000
74
0
49
0.250000
74
0
49
-0.250000
74
0
0
LTYPE
5
A
100
AcDbSymbolTableRecord
100
AcDbLinetypeTableRecord
2
Dashdot
70
0
3
____ . ____ . ____ . ____ . ____ .
72
65
73
4
40
1.000000
49
0.500000
74
0
49
-0.250000
74
0
49
0.000000
74
0
49
-0.250000
74
0
0
LTYPE
5
B
100
AcDbSymbolTableRecord
100
AcDbLinetypeTableRecord
2
Dashed
70
0
3
____ ____ ____ ____ ____ ____ ____
72
65
73
2
40
0.750000
49
0.500000
74
0
49
-0.250000
74
0
0
LTYPE
5
C
100
AcDbSymbolTableRecord
100
AcDbLinetypeTableRecord
2
Divide
70
0
3
____ . . ____ . . ____ . . ____ . .
72
65
73
6
40
1.250000
49
0.500000
74
0
49
-0.250000
74
0
49
0.000000
74
0
49
-0.250000
74
0
49
0.000000
74
0
49
-0.250000
74
0
0
LTYPE
5
D
100
AcDbSymbolTableRecord
100
AcDbLinetypeTableRecord
2
Dot
70
0
3
. . . . . . . . . . . . . . . . . .
72
65
73
2
40
0.250000
49
0.000000
74
0
49
-0.250000
74
0
0
LTYPE
5
E
100
AcDbSymbolTableRecord
100
AcDbLinetypeTableRecord
2
Hidden
70
0
3
__ __ __ __ __ __ __ __ __ __ __ __
72
65
73
2
40
0.375000
49
0.250000
74
0
49
-0.125000
74
0
0
LTYPE
5
F
100
AcDbSymbolTableRecord
100
AcDbLinetypeTableRecord
2
Phantom
70
0
3
_____ _ _ _____ _ _ _____ _ _ _____
72
65
73
6
40
2.500000
49
1.250000
74
0
49
-0.250000
74
0
49
0.250000
74
0
49
-0.250000
74
0
49
0.250000
74
0
49
-0.250000
74
0
0
ENDTAB
0
TABLE
2
LAYER
5
10
100
AcDbSymbolTable
70
1000
0
LAYER
5
11
100
AcDbSymbolTableRecord
100
AcDbLayerTableRecord
2
0
70
0
62
7
6
Continuous
370
0
390
2B
0
ENDTAB
0
TABLE
2
STYLE
5
12
100
AcDbSymbolTable
70
1000
0
STYLE
5
13
100
AcDbSymbolTableRecord
100
AcDbTextStyleTableRecord
2
Standard
70
0
40
0.000000
41
1.000000
50
0.000000
71
0
42
1.000000
3
TXT.SHX
4

0
STYLE
5
24
100
AcDbSymbolTableRecord
100
AcDbTextStyleTableRecord
2

70
1
40
0.000000
41
1.000000
50
0.000000
71
0
42
1.000000
3
LTYPESHP.SHX
4

0
STYLE
5
109
100
AcDbSymbolTableRecord
100
AcDbTextStyleTableRecord
2
texto
70
0
40
0.000000
41
1.300000
50
0.000000
71
0
42
1.000000
3
ROMANS.SHX
4

0
ENDTAB
0
TABLE
2
VIEW
5
14
100
AcDbSymbolTable
70
0
0
ENDTAB
0
TABLE
2
UCS
5
15
100
AcDbSymbolTable
70
0
0
ENDTAB
0
TABLE
2
APPID
5
16
100
AcDbSymbolTable
70
10
0
APPID
5
17
100
AcDbSymbolTableRecord
100
AcDbRegAppTableRecord
2
ACAD
70
0
0
APPID
5
18
100
AcDbSymbolTableRecord
100
AcDbRegAppTableRecord
2
CADZINHO
70
0
0
ENDTAB
0
TABLE
2
DIMSTYLE
5
19
100
AcDbSymbolTable
70
1
100
AcDbDimStyleTable
71
1
0
DIMSTYLE
105
1A
100
AcDbSymbolTableRecord
100
AcDbDimStyleTableRecord
2
Standard
70
0
340
C
0
ENDTAB
0
TABLE
2
BLOCK_RECORD
5
1B
100
AcDbSymbolTable
70
9999
0
BLOCK_RECORD
5
1C
100
AcDbSymbolTableRecord
100
AcDbBlockTableRecord
2
*Model_Space
70
0
0
BLOCK_RECORD
5
1D
100
AcDbSymbolTableRecord
100
AcDbBlockTableRecord
2
*Paper_Space
70
0
0
ENDTAB
0
ENDSEC
0
SECTION
2
BLOCKS
0
BLOCK
5
1E
100
AcDbEntity
8
0
100
AcDbBlockBegin
2
*Model_Space
70
0
10
0.000000
20
0.000000
30
0.000000
3
*Model_Space
1

0
ENDBLK
5
1F
100
AcDbEntity
8
0
100
AcDbBlockEnd
0
BLOCK
5
20
100
AcDbEntity
8
0
100
AcDbBlockBegin
2
*Paper_Space
70
0
10
0.000000
20
0.000000
30
0.000000
3
*Paper_Space
1

0
ENDBLK
5
21
100
AcDbEntity
8
0
100
AcDbBlockEnd
0
ENDSEC
0
SECTION
2
ENTITIES
0
LWPOLYLINE
5
2E
100
AcDbEntity
67
0
8
0
6
ByLayer
62
256
370
-1
100
AcDbPolyline
90
4
70
1
10
6.150000
20
330.300000
30
0.000000
42
0.000000
10
26.150000
20
330.300000
30
0.000000
42
0.000000
10
26.150000
20
344.300000
30
0.000000
42
0.000000
10
6.150000
20
344.300000
30
0.000000
0
LINE
5
2F
100
AcDbEntity
67
0
8
0
6
ByLayer
62
256
370
-1
100
AcDbLine
10
6.150000
20
337.300000
30
0.000000
11
7.850000
21
337.300000
31
0.000000
0
LINE
5
30
100
AcDbEntity
67
0
8
0
6
ByLayer
62
256
370
-1
100
AcDbLine
10
16.150000
20
330.300000
30
0.000000
11
16.150000
21
332.000000
31
0.000000
0
LINE
5
31
100
AcDbEntity
67
0
8
0
6
ByLayer
62
256
370
-1
100
AcDbLine
10
16.150000
20
344.300000
30
0.000000
11
16.150000
21
342.600000
31
0.000000
0
LINE
5
32
100
AcDbEntity
67
0
8
0
6
ByLayer
62
256
370
-1
100
AcDbLine
10
26.150000
20
337.300000
30
0.000000
11
24.450000
21
337.300000
31
0.000000
0
LWPOLYLINE
5
33
100
AcDbEntity
67
0
8
0
6
ByLayer
62
256
370
-1
100
AcDbPolyline
90
4
70
1
10
7.850000
20
337.300000
30
0.000000
42
0.000000
10
16.150000
20
342.600000
30
0.000000
42
0.000000
10
24.450000
20
337.300000
30
0.000000
42
0.000000
10
16.150000
20
332.000000
30
0.000000
0
LINE
5
34
100
AcDbEntity
67
0
8
0
6
ByLayer
62
256
370
-1
100
AcDbLine
10
7.850000
20
337.300000
30
0.000000
11
24.450000
21
337.300000
31
0.000000
0
CIRCLE
5
35
100
AcDbEntity
67
0
8
0
6
ByLayer
62
256
370
-1
100
AcDbCircle
10
16.150000
20
337.300000
30
0.000000
40
3.500000
0
LINE
5
36
100
AcDbEntity
67
0
8
0
6
ByLayer
62
256
370
-1
100
AcDbLine
10
12.150000
20
334.133333
30
0.000000
11
20.150000
21
334.133333
31
0.000000
0
LINE
5
37
100
AcDbEntity
67
0
8
0
6
ByLayer
62
256
370
-1
100
AcDbLine
10
12.150000
20
334.466666
30
0.000000
11
20.150000
21
334.466666
31
0.000000
0
LINE
5
38
100
AcDbEntity
67
0
8
0
6
ByLayer
62
256
370
-1
100
AcDbLine
10
12.150000
20
334.800000
30
0.000000
11
20.150000
21
334.800000
31
0.000000
0
LINE
5
39
100
AcDbEntity
67
0
8
0
6
ByLayer
62
256
370
-1
100
AcDbLine
10
12.150000
20
335.133333
30
0.000000
11
20.150000
21
335.133333
31
0.000000
0
LINE
5
3A
100
AcDbEntity
67
0
8
0
6
ByLayer
62
256
370
-1
100
AcDbLine
10
12.150000
20
335.466666
30
0.000000
11
20.150000
21
335.466666
31
0.000000
0
LINE
5
3B
100
AcDbEntity
67
0
8
0
6
ByLayer
62
256
370
-1
100
AcDbLine
10
12.150000
20
335.800000
30
0.000000
11
20.150000
21
335.800000
31
0.000000
0
LINE
5
3C
100
AcDbEntity
67
0
8
0
6
ByLayer
62
256
370
-1
100
AcDbLine
10
12.150000
20
336.133333
30
0.000000
11
20.150000
21
336.133333
31
0.000000
0
LINE
5
3D
100
AcDbEntity
67
0
8
0
6
ByLayer
62
256
370
-1
100
AcDbLine
10
12.150000
20
336.466666
30
0.000000
11
20.150000
21
336.466666
31
0.000000
0
LINE
5
3E
100
AcDbEntity
67
0
8
0
6
ByLayer
62
256
370
-1
100
AcDbLine
10
12.150000
20
336.800000
30
0.000000
11
20.150000
21
336.800000
31
0.000000
0
LINE
5
3F
100
AcDbEntity
67
0
8
0
6
ByLayer
62
256
370
-1
100
AcDbLine
10
12.150000
20
337.133333
30
0.000000
11
20.150000
21
337.133333
31
0.000000
0
LINE
5
40
100
AcDbEntity
67
0
8
0
6
ByLayer
62
256
370
-1
100
AcDbLine
10
12.150000
20
337.466666
30
0.000000
11
20.150000
21
337.466666
31
0.000000
0
LINE
5
41
100
AcDbEntity
67
0
8
0
6
ByLayer
62
256
370
-1
100
AcDbLine
10
12.150000
20
337.800000
30
0.000000
11
20.150000
21
337.800000
31
0.000000
0
LINE
5
42
100
AcDbEntity
67
0
8
0
6
ByLayer
62
256
370
-1
100
AcDbLine
10
12.150000
20
338.133333
30
0.000000
11
20.150000
21
338.133333
31
0.000000
0
LINE
5
43
100
AcDbEntity
67
0
8
0
6
ByLayer
62
256
370
-1
100
AcDbLine
10
12.150000
20
338.466666
30
0.000000
11
20.150000
21
338.466666
31
0.000000
0
LINE
5
44
100
AcDbEntity
67
0
8
0
6
ByLayer
62
256
370
-1
100
AcDbLine
10
15.983333
20
333.800000
30
0.000000
11
15.983333
21
341.160832
31
0.000000
0
LINE
5
45
100
AcDbEntity
67
0
8
0
6
ByLayer
62
256
370
-1
100
AcDbLine
10
16.316666
20
333.800000
30
0.000000
11
16.316666
21
341.160832
31
0.000000
0
LINE
5
46
100
AcDbEntity
67
0
8
0
6
ByLayer
62
256
370
-1
100
AcDbLine
10
16.650000
20
333.800000
30
0.000000
11
16.650000
21
341.160832
31
0.000000
0
LINE
5
47
100
AcDbEntity
67
0
8
0
6
ByLayer
62
256
370
-1
100
AcDbLine
10
16.983333
20
333.800000
30
0.000000
11
16.983333
21
341.160832
31
0.000000
0
LINE
5
48
100
AcDbEntity
67
0
8
0
6
ByLayer
62
256
370
-1
100
AcDbLine
10
17.316666
20
333.800000
30
0.000000
11
17.316666
21
341.160832
31
0.000000
0
LINE
5
49
100
AcDbEntity
67
0
8
0
6
ByLayer
62
256
370
-1
100
AcDbLine
10
17.650000
20
333.800000
30
0.000000
11
17.650000
21
341.160832
31
0.000000
0
LINE
5
4A
100
AcDbEntity
67
0
8
0
6
ByLayer
62
256
370
-1
100
AcDbLine
10
17.983333
20
333.800000
30
0.000000
11
17.983333
21
341.160832
31
0.000000
0
LINE
5
4B
100
AcDbEntity
67
0
8
0
6
ByLayer
62
256
370
-1
100
AcDbLine
10
18.316666
20
333.800000
30
0.000000
11
18.316666
21
341.160832
31
0.000000
0
LINE
5
4C
100
AcDbEntity
67
0
8
0
6
ByLayer
62
256
370
-1
100
AcDbLine
10
18.650000
20
333.800000
30
0.000000
11
18.650000
21
341.160832
31
0.000000
0
LINE
5
4D
100
AcDbEntity
67
0
8
0
6
ByLayer
62
256
370
-1
100
AcDbLine
10
18.983333
20
333.800000
30
0.000000
11
18.983333
21
341.160832
31
0.000000
0
LINE
5
4E
100
AcDbEntity
67
0
8
0
6
ByLayer
62
256
370
-1
100
AcDbLine
10
19.316666
20
333.800000
30
0.000000
11
19.316666
21
341.160832
31
0.000000
0
LINE
5
4F
100
AcDbEntity
67
0
8
0
6
ByLayer
62
256
370
-1
100
AcDbLine
10
12.650000
20
333.800000
30
0.000000
11
12.650000
21
341.160832
31
0.000000
0
LINE
5
50
100
AcDbEntity
67
0
8
0
6
ByLayer
62
256
370
-1
100
AcDbLine
10
12.983333
20
333.800000
30
0.000000
11
12.983333
21
341.160832
31
0.000000
0
LINE
5
51
100
AcDbEntity
67
0
8
0
6
ByLayer
62
256
370
-1
100
AcDbLine
10
13.316666
20
333.800000
30
0.000000
11
13.316666
21
341.160832
31
0.000000
0
LINE
5
52
100
AcDbEntity
67
0
8
0
6
ByLayer
62
256
370
-1
100
AcDbLine
10
13.650000
20
333.800000
30
0.000000
11
13.650000
21
341.160832
31
0.000000
0
LINE
5
53
100
AcDbEntity
67
0
8
0
6
ByLayer
62
256
370
-1
100
AcDbLine
10
13.983333
20
333.800000
30
0.000000
11
13.983333
21
341.160832
31
0.000000
0
LINE
5
54
100
AcDbEntity
67
0
8
0
6
ByLayer
62
256
370
-1
100
AcDbLine
10
14.316666
20
333.800000
30
0.000000
11
14.316666
21
341.160832
31
0.000000
0
LINE
5
55
100
AcDbEntity
67
0
8
0
6
ByLayer
62
256
370
-1
100
AcDbLine
10
14.650000
20
333.800000
30
0.000000
11
14.650000
21
341.160832
31
0.000000
0
LINE
5
56
100
AcDbEntity
67
0
8
0
6
ByLayer
62
256
370
-1
100
AcDbLine
10
14.983333
20
333.800000
30
0.000000
11
14.983333
21
341.160832
31
0.000000
0
LINE
5
57
100
AcDbEntity
67
0
8
0
6
ByLayer
62
256
370
-1
100
AcDbLine
10
15.316666
20
333.800000
30
0.000000
11
15.316666
21
341.160832
31
0.000000
0
LINE
5
58
100
AcDbEntity
67
0
8
0
6
ByLayer
62
256
370
-1
100
AcDbLine
10
15.650000
20
333.800000
30
0.000000
11
15.650000
21
341.160832
31
0.000000
0
LINE
5
59
100
AcDbEntity
67
0
8
0
6
ByLayer
62
256
370
-1
100
AcDbLine
10
16.150000
20
330.300000
30
0.000000
11
14.150000
21
330.300000
31
0.000000
0
CIRCLE
5
5A
100
AcDbEntity
67
0
8
0
6
ByLayer
62
256
370
-1
100
AcDbCircle
10
14.150000
20
330.300000
30
0.000000
40
8.000000
0
CIRCLE
5
5B
100
AcDbEntity
67
0
8
0
6
ByLayer
62
256
370
-1
100
AcDbCircle
10
14.150000
20
330.300000
30
0.000000
40
8.500000
0
LINE
5
5C
100
AcDbEntity
67
0
8
0
6
ByLayer
62
256
370
-1
100
AcDbLine
10
12.150000
20
338.800000
30
0.000000
11
20.150000
21
338.800000
31
0.000000
0
LINE
5
5D
100
AcDbEntity
67
0
8
0
6
ByLayer
62
256
370
-1
100
AcDbLine
10
12.150000
20
339.133333
30
0.000000
11
20.150000
21
339.133333
31
0.000000
0
LINE
5
5E
100
AcDbEntity
67
0
8
0
6
ByLayer
62
256
370
-1
100
AcDbLine
10
12.150000
20
339.466666
30
0.000000
11
20.150000
21
339.466666
31
0.000000
0
LINE
5
5F
100
AcDbEntity
67
0
8
0
6
ByLayer
62
256
370
-1
100
AcDbLine
10
12.150000
20
339.800000
30
0.000000
11
20.150000
21
339.800000
31
0.000000
0
LINE
5
60
100
AcDbEntity
67
0
8
0
6
ByLayer
62
256
370
-1
100
AcDbLine
10
12.150000
20
340.133333
30
0.000000
11
20.150000
21
340.133333
31
0.000000
0
LINE
5
61
100
AcDbEntity
67
0
8
0
6
ByLayer
62
256
370
-1
100
AcDbLine
10
12.150000
20
340.466666
30
0.000000
11
20.150000
21
340.466666
31
0.000000
0
CIRCLE
5
62
100
AcDbEntity
67
0
8
0
6
ByLayer
62
256
370
-1
100
AcDbCircle
10
33.487831
20
333.447551
30
0.000000
40
0.500000
0
LINE
5
63
100
AcDbEntity
67
0
8
0
6
ByLayer
62
256
370
-1
100
AcDbLine
10
32.987831
20
333.447551
30
0.000000
11
33.987831
21
333.447551
31
0.000000
0
LINE
5
64
100
AcDbEntity
67
0
8
0
6
ByLayer
62
256
370
-1
100
AcDbLine
10
33.487831
20
332.947551
30
0.000000
11
33.487831
21
333.947551
31
0.000000
0
LWPOLYLINE
5
65
100
AcDbEntity
67
0
8
0
6
ByLayer
62
256
370
-1
100
AcDbPolyline
90
10
70
1
10
33.487831
20
333.947551
30
0.000000
42
0.000000
10
33.606713
20
333.611178
30
0.000000
42
0.000000
10
33.963359
20
333.602059
30
0.000000
42
0.000000
10
33.680186
20
333.385051
30
0.000000
42
0.000000
10
33.781724
20
333.043042
30
0.000000
42
0.000000
10
33.487831
20
333.245296
30
0.000000
42
0.000000
10
33.193938
20
333.043042
30
0.000000
42
0.000000
10
33.295476
20
333.385051
30
0.000000
42
0.000000
10
33.012303
20
333.602059
30
0.000000
42
0.000000
10
33.368949
20
333.611178
30
0.000000
0
CIRCLE
5
66
100
AcDbEntity
67
0
8
0
6
ByLayer
62
256
370
-1
100
AcDbCircle
10
33.487831
20
331.447551
30
0.000000
40
0.150000
0
LINE
5
67
100
AcDbEntity
67
0
8
0
6
ByLayer
62
256
370
-1
100
AcDbLine
10
33.337831
20
331.447551
30
0.000000
11
33.637831
21
331.447551
31
0.000000
0
LINE
5
68
100
AcDbEntity
67
0
8
0
6
ByLayer
62
256
370
-1
100
AcDbLine
10
33.487831
20
331.297551
30
0.000000
11
33.487831
21
331.597551
31
0.000000
0
LWPOLYLINE
5
69
100
AcDbEntity
67
0
8
0
6
ByLayer
62
256
370
-1
100
AcDbPolyline
90
10
70
1
10
33.487831
20
331.597551
30
0.000000
42
0.000000
10
33.523496
20
331.496639
30
0.000000
42
0.000000
10
33.630489
20
331.493903
30
0.000000
42
0.000000
10
33.545537
20
331.428801
30
0.000000
42
0.000000
10
33.575999
20
331.326198
30
0.000000
42
0.000000
10
33.487831
20
331.386874
30
0.000000
42
0.000000
10
33.399663
20
331.326198
30
0.000000
42
0.000000
10
33.430124
20
331.428801
30
0.000000
42
0.000000
10
33.345172
20
331.493903
30
0.000000
42
0.000000
10
33.452166
20
331.496639
30
0.000000
0
CIRCLE
5
6A
100
AcDbEntity
67
0
8
0
6
ByLayer
62
256
370
-1
100
AcDbCircle
10
33.487831
20
329.447551
30
0.000000
40
0.125000
0
LINE
5
6B
100
AcDbEntity
67
0
8
0
6
ByLayer
62
256
370
-1
100
AcDbLine
10
33.362831
20
329.447551
30
0.000000
11
33.612831
21
329.447551
31
0.000000
0
LINE
5
6C
100
AcDbEntity
67
0
8
0
6
ByLayer
62
256
370
-1
100
AcDbLine
10
33.487831
20
329.322551
30
0.000000
11
33.487831
21
329.572551
31
0.000000
0
LWPOLYLINE
5
6D
100
AcDbEntity
67
0
8
0
6
ByLayer
62
256
370
-1
100
AcDbPolyline
90
10
70
1
10
33.487831
20
329.572551
30
0.000000
42
0.000000
10
33.517551
20
329.488457
30
0.000000
42
0.000000
10
33.606713
20
329.486178
30
0.000000
42
0.000000
10
33.535920
20
329.431926
30
0.000000
42
0.000000
10
33.561304
20
329.346424
30
0.000000
42
0.000000
10
33.487831
20
329.396987
30
0.000000
42
0.000000
10
33.414358
20
329.346424
30
0.000000
42
0.000000
10
33.439742
20
329.431926
30
0.000000
42
0.000000
10
33.368949
20
329.486178
30
0.000000
42
0.000000
10
33.458110
20
329.488457
30
0.000000
0
CIRCLE
5
6E
100
AcDbEntity
67
0
8
0
6
ByLayer
62
256
370
-1
100
AcDbCircle
10
33.487831
20
327.447551
30
0.000000
40
0.100000
0
LINE
5
6F
100
AcDbEntity
67
0
8
0
6
ByLayer
62
256
370
-1
100
AcDbLine
10
33.387831
20
327.447551
30
0.000000
11
33.587831
21
327.447551
31
0.000000
0
LINE
5
70
100
AcDbEntity
67
0
8
0
6
ByLayer
62
256
370
-1
100
AcDbLine
10
33.487831
20
327.347551
30
0.000000
11
33.487831
21
327.547551
31
0.000000
0
LWPOLYLINE
5
71
100
AcDbEntity
67
0
8
0
6
ByLayer
62
256
370
-1
100
AcDbPolyline
90
10
70
1
10
33.487831
20
327.547551
30
0.000000
42
0.000000
10
33.511607
20
327.480276
30
0.000000
42
0.000000
10
33.582937
20
327.478452
30
0.000000
42
0.000000
10
33.526302
20
327.435051
30
0.000000
42
0.000000
10
33.546609
20
327.366649
30
0.000000
42
0.000000
10
33.487831
20
327.407100
30
0.000000
42
0.000000
10
33.429052
20
327.366649
30
0.000000
42
0.000000
10
33.449360
20
327.435051
30
0.000000
42
0.000000
10
33.392725
20
327.478452
30
0.000000
42
0.000000
10
33.464055
20
327.480276
30
0.000000
0
CIRCLE
5
72
100
AcDbEntity
67
0
8
0
6
ByLayer
62
256
370
-1
100
AcDbCircle
10
33.487831
20
325.447551
30
0.000000
40
0.070000
0
LINE
5
73
100
AcDbEntity
67
0
8
0
6
ByLayer
62
256
370
-1
100
AcDbLine
10
33.417831
20
325.447551
30
0.000000
11
33.557831
21
325.447551
31
0.000000
0
LINE
5
74
100
AcDbEntity
67
0
8
0
6
ByLayer
62
256
370
-1
100
AcDbLine
10
33.487831
20
325.377551
30
0.000000
11
33.487831
21
325.517551
31
0.000000
0
LWPOLYLINE
5
75
100
AcDbEntity
67
0
8
0
6
ByLayer
62
256
370
-1
100
AcDbPolyline
90
10
70
1
10
33.487831
20
325.517551
30
0.000000
42
0.000000
10
33.504474
20
325.470458
30
0.000000
42
0.000000
10
33.554405
20
325.469182
30
0.000000
42
0.000000
10
33.514761
20
325.438801
30
0.000000
42
0.000000
10
33.528976
20
325.390919
30
0.000000
42
0.000000
10
33.487831
20
325.419235
30
0.000000
42
0.000000
10
33.446686
20
325.390919
30
0.000000
42
0.000000
10
33.460901
20
325.438801
30
0.000000
42
0.000000
10
33.421257
20
325.469182
30
0.000000
42
0.000000
10
33.471187
20
325.470458
30
0.000000
0
CIRCLE
5
76
100
AcDbEntity
67
0
8
0
6
ByLayer
62
256
370
-1
100
AcDbCircle
10
33.487831
20
323.447551
30
0.000000
40
0.050000
0
LINE
5
77
100
AcDbEntity
67
0
8
0
6
ByLayer
62
256
370
-1
100
AcDbLine
10
33.437831
20
323.447551
30
0.000000
11
33.537831
21
323.447551
31
0.000000
0
LINE
5
78
100
AcDbEntity
67
0
8
0
6
ByLayer
62
256
370
-1
100
AcDbLine
10
33.487831
20
323.397551
30
0.000000
11
33.487831
21
323.497551
31
0.000000
0
LWPOLYLINE
5
79
100
AcDbEntity
67
0
8
0
6
ByLayer
62
256
370
-1
100
AcDbPolyline
90
10
70
1
10
33.487831
20
323.497551
30
0.000000
42
0.000000
10
33.499719
20
323.463913
30
0.000000
42
0.000000
10
33.535384
20
323.463002
30
0.000000
42
0.000000
10
33.507066
20
323.441301
30
0.000000
42
0.000000
10
33.517220
20
323.407100
30
0.000000
42
0.000000
10
33.487831
20
323.427325
30
0.000000
42
0.000000
10
33.458442
20
323.407100
30
0.000000
42
0.000000
10
33.468595
20
323.441301
30
0.000000
42
0.000000
10
33.440278
20
323.463002
30
0.000000
42
0.000000
10
33.475943
20
323.463913
30
0.000000
0
CIRCLE
5
7A
100
AcDbEntity
67
0
8
0
6
ByLayer
62
256
370
-1
100
AcDbCircle
10
21.026038
20
338.203802
30
0.000000
40
0.150000
0
LINE
5
7B
100
AcDbEntity
67
0
8
0
6
ByLayer
62
256
370
-1
100
AcDbLine
10
20.876038
20
338.203802
30
0.000000
11
21.176038
21
338.203802
31
0.000000
0
LINE
5
7C
100
AcDbEntity
67
0
8
0
6
ByLayer
62
256
370
-1
100
AcDbLine
10
21.026038
20
338.053802
30
0.000000
11
21.026038
21
338.353802
31
0.000000
0
LWPOLYLINE
5
7D
100
AcDbEntity
67
0
8
0
6
ByLayer
62
256
370
-1
100
AcDbPolyline
90
10
70
1
10
21.026038
20
338.353802
30
0.000000
42
0.000000
10
21.061703
20
338.252891
30
0.000000
42
0.000000
10
21.168697
20
338.250155
30
0.000000
42
0.000000
10
21.083745
20
338.185052
30
0.000000
42
0.000000
10
21.114206
20
338.082450
30
0.000000
42
0.000000
10
21.026038
20
338.143126
30
0.000000
42
0.000000
10
20.937871
20
338.082450
30
0.000000
42
0.000000
10
20.968332
20
338.185052
30
0.000000
42
0.000000
10
20.883380
20
338.250155
30
0.000000
42
0.000000
10
20.990374
20
338.252891
30
0.000000
0
CIRCLE
5
7E
100
AcDbEntity
67
0
8
0
6
ByLayer
62
256
370
-1
100
AcDbCircle
10
21.541013
20
338.204644
30
0.000000
40
0.125000
0
LINE
5
7F
100
AcDbEntity
67
0
8
0
6
ByLayer
62
256
370
-1
100
AcDbLine
10
21.416013
20
338.204644
30
0.000000
11
21.666013
21
338.204644
31
0.000000
0
LINE
5
80
100
AcDbEntity
67
0
8
0
6
ByLayer
62
256
370
-1
100
AcDbLine
10
21.541013
20
338.079644
30
0.000000
11
21.541013
21
338.329644
31
0.000000
0
LWPOLYLINE
5
81
100
AcDbEntity
67
0
8
0
6
ByLayer
62
256
370
-1
100
AcDbPolyline
90
10
70
1
10
21.541013
20
338.329644
30
0.000000
42
0.000000
10
21.570733
20
338.245550
30
0.000000
42
0.000000
10
21.659895
20
338.243271
30
0.000000
42
0.000000
10
21.589102
20
338.189019
30
0.000000
42
0.000000
10
21.614486
20
338.103516
30
0.000000
42
0.000000
10
21.541013
20
338.154080
30
0.000000
42
0.000000
10
21.467540
20
338.103516
30
0.000000
42
0.000000
10
21.492924
20
338.189019
30
0.000000
42
0.000000
10
21.422131
20
338.243271
30
0.000000
42
0.000000
10
21.511292
20
338.245550
30
0.000000
0
CIRCLE
5
82
100
AcDbEntity
67
0
8
0
6
ByLayer
62
256
370
-1
100
AcDbCircle
10
21.954647
20
338.201965
30
0.000000
40
0.100000
0
LINE
5
83
100
AcDbEntity
67
0
8
0
6
ByLayer
62
256
370
-1
100
AcDbLine
10
21.854647
20
338.201965
30
0.000000
11
22.054647
21
338.201965
31
0.000000
0
LINE
5
84
100
AcDbEntity
67
0
8
0
6
ByLayer
62
256
370
-1
100
AcDbLine
10
21.954647
20
338.101965
30
0.000000
11
21.954647
21
338.301965
31
0.000000
0
LWPOLYLINE
5
85
100
AcDbEntity
67
0
8
0
6
ByLayer
62
256
370
-1
100
AcDbPolyline
90
10
70
1
10
21.954647
20
338.301965
30
0.000000
42
0.000000
10
21.978424
20
338.234691
30
0.000000
42
0.000000
10
22.049753
20
338.232867
30
0.000000
42
0.000000
10
21.993119
20
338.189465
30
0.000000
42
0.000000
10
22.013426
20
338.121064
30
0.000000
42
0.000000
10
21.954647
20
338.161515
30
0.000000
42
0.000000
10
21.895869
20
338.121064
30
0.000000
42
0.000000
10
21.916176
20
338.189465
30
0.000000
42
0.000000
10
21.859542
20
338.232867
30
0.000000
42
0.000000
10
21.930871
20
338.234691
30
0.000000
0
CIRCLE
5
86
100
AcDbEntity
67
0
8
0
6
ByLayer
62
256
370
-1
100
AcDbCircle
10
22.302996
20
338.184062
30
0.000000
40
0.070000
0
LINE
5
87
100
AcDbEntity
67
0
8
0
6
ByLayer
62
256
370
-1
100
AcDbLine
10
22.232996
20
338.184062
30
0.000000
11
22.372996
21
338.184062
31
0.000000
0
LINE
5
88
100
AcDbEntity
67
0
8
0
6
ByLayer
62
256
370
-1
100
AcDbLine
10
22.302996
20
338.114062
30
0.000000
11
22.302996
21
338.254062
31
0.000000
0
LWPOLYLINE
5
89
100
AcDbEntity
67
0
8
0
6
ByLayer
62
256
370
-1
100
AcDbPolyline
90
10
70
1
10
22.302996
20
338.254062
30
0.000000
42
0.000000
10
22.319639
20
338.206970
30
0.000000
42
0.000000
10
22.369570
20
338.205693
30
0.000000
42
0.000000
10
22.329925
20
338.175312
30
0.000000
42
0.000000
10
22.344141
20
338.127431
30
0.000000
42
0.000000
10
22.302996
20
338.155747
30
0.000000
42
0.000000
10
22.261851
20
338.127431
30
0.000000
42
0.000000
10
22.276066
20
338.175312
30
0.000000
42
0.000000
10
22.236422
20
338.205693
30
0.000000
42
0.000000
10
22.286352
20
338.206970
30
0.000000
0
CIRCLE
5
8A
100
AcDbEntity
67
0
8
0
6
ByLayer
62
256
370
-1
100
AcDbCircle
10
22.594297
20
338.173927
30
0.000000
40
0.050000
0
LINE
5
8B
100
AcDbEntity
67
0
8
0
6
ByLayer
62
256
370
-1
100
AcDbLine
10
22.544297
20
338.173927
30
0.000000
11
22.644297
21
338.173927
31
0.000000
0
LINE
5
8C
100
AcDbEntity
67
0
8
0
6
ByLayer
62
256
370
-1
100
AcDbLine
10
22.594297
20
338.123927
30
0.000000
11
22.594297
21
338.223927
31
0.000000
0
LWPOLYLINE
5
8D
100
AcDbEntity
67
0
8
0
6
ByLayer
62
256
370
-1
100
AcDbPolyline
90
10
70
1
10
22.594297
20
338.223927
30
0.000000
42
0.000000
10
22.606185
20
338.190290
30
0.000000
42
0.000000
10
22.641850
20
338.189378
30
0.000000
42
0.000000
10
22.613532
20
338.167677
30
0.000000
42
0.000000
10
22.623686
20
338.133476
30
0.000000
42
0.000000
10
22.594297
20
338.153701
30
0.000000
42
0.000000
10
22.564908
20
338.133476
30
0.000000
42
0.000000
10
22.575061
20
338.167677
30
0.000000
42
0.000000
10
22.546744
20
338.189378
30
0.000000
42
0.000000
10
22.582409
20
338.190290
30
0.000000
0
LWPOLYLINE
5
8E
100
AcDbEntity
67
0
8
0
6
ByLayer
62
256
370
-1
100
AcDbPolyline
90
10
70
1
10
16.986231
20
338.749535
30
0.000000
42
0.000000
10
17.021896
20
338.648623
30
0.000000
42
0.000000
10
17.128890
20
338.645887
30
0.000000
42
0.000000
10
17.043938
20
338.580785
30
0.000000
42
0.000000
10
17.074399
20
338.478182
30
0.000000
42
0.000000
10
16.986231
20
338.538859
30
0.000000
42
0.000000
10
16.898063
20
338.478182
30
0.000000
42
0.000000
10
16.928525
20
338.580785
30
0.000000
42
0.000000
10
16.843573
20
338.645887
30
0.000000
42
0.000000
10
16.950567
20
338.648623
30
0.000000
0
LWPOLYLINE
5
8F
100
AcDbEntity
67
0
8
0
6
ByLayer
62
256
370
-1
100
AcDbPolyline
90
10
70
1
10
16.863336
20
337.744364
30
0.000000
42
0.000000
10
16.887113
20
337.677089
30
0.000000
42
0.000000
10
16.958442
20
337.675265
30
0.000000
42
0.000000
10
16.901807
20
337.631864
30
0.000000
42
0.000000
10
16.922115
20
337.563462
30
0.000000
42
0.000000
10
16.863336
20
337.603913
30
0.000000
42
0.000000
10
16.804558
20
337.563462
30
0.000000
42
0.000000
10
16.824865
20
337.631864
30
0.000000
42
0.000000
10
16.768231
20
337.675265
30
0.000000
42
0.000000
10
16.839560
20
337.677089
30
0.000000
0
LWPOLYLINE
5
90
100
AcDbEntity
67
0
8
0
6
ByLayer
62
256
370
-1
100
AcDbPolyline
90
10
70
1
10
13.324932
20
338.105282
30
0.000000
42
0.000000
10
13.360597
20
338.004370
30
0.000000
42
0.000000
10
13.467591
20
338.001635
30
0.000000
42
0.000000
10
13.382639
20
337.936532
30
0.000000
42
0.000000
10
13.413100
20
337.833930
30
0.000000
42
0.000000
10
13.324932
20
337.894606
30
0.000000
42
0.000000
10
13.236765
20
337.833930
30
0.000000
42
0.000000
10
13.267226
20
337.936532
30
0.000000
42
0.000000
10
13.182274
20
338.001635
30
0.000000
42
0.000000
10
13.289268
20
338.004370
30
0.000000
0
LWPOLYLINE
5
91
100
AcDbEntity
67
0
8
0
6
ByLayer
62
256
370
-1
100
AcDbPolyline
90
10
70
1
10
14.801852
20
337.439995
30
0.000000
42
0.000000
10
14.831573
20
337.355902
30
0.000000
42
0.000000
10
14.920735
20
337.353622
30
0.000000
42
0.000000
10
14.849941
20
337.299370
30
0.000000
42
0.000000
10
14.875326
20
337.213868
30
0.000000
42
0.000000
10
14.801852
20
337.264431
30
0.000000
42
0.000000
10
14.728379
20
337.213868
30
0.000000
42
0.000000
10
14.753764
20
337.299370
30
0.000000
42
0.000000
10
14.682970
20
337.353622
30
0.000000
42
0.000000
10
14.772132
20
337.355902
30
0.000000
0
LWPOLYLINE
5
92
100
AcDbEntity
67
0
8
0
6
ByLayer
62
256
370
-1
100
AcDbPolyline
90
10
70
1
10
15.974720
20
337.079554
30
0.000000
42
0.000000
10
16.004440
20
336.995461
30
0.000000
42
0.000000
10
16.093602
20
336.993181
30
0.000000
42
0.000000
10
16.022809
20
336.938929
30
0.000000
42
0.000000
10
16.048193
20
336.853427
30
0.000000
42
0.000000
10
15.974720
20
336.903990
30
0.000000
42
0.000000
10
15.901247
20
336.853427
30
0.000000
42
0.000000
10
15.926631
20
336.938929
30
0.000000
42
0.000000
10
15.855838
20
336.993181
30
0.000000
42
0.000000
10
15.944999
20
336.995461
30
0.000000
0
LWPOLYLINE
5
93
100
AcDbEntity
67
0
8
0
6
ByLayer
62
256
370
-1
100
AcDbPolyline
90
10
70
1
10
15.654615
20
336.766608
30
0.000000
42
0.000000
10
15.678391
20
336.699334
30
0.000000
42
0.000000
10
15.749720
20
336.697510
30
0.000000
42
0.000000
10
15.693086
20
336.654108
30
0.000000
42
0.000000
10
15.713393
20
336.585707
30
0.000000
42
0.000000
10
15.654615
20
336.626157
30
0.000000
42
0.000000
10
15.595836
20
336.585707
30
0.000000
42
0.000000
10
15.616144
20
336.654108
30
0.000000
42
0.000000
10
15.559509
20
336.697510
30
0.000000
42
0.000000
10
15.630838
20
336.699334
30
0.000000
0
LWPOLYLINE
5
94
100
AcDbEntity
67
0
8
0
6
ByLayer
62
256
370
-1
100
AcDbPolyline
90
10
70
1
10
15.886433
20
336.487426
30
0.000000
42
0.000000
10
15.903077
20
336.440333
30
0.000000
42
0.000000
10
15.953007
20
336.439057
30
0.000000
42
0.000000
10
15.913363
20
336.408676
30
0.000000
42
0.000000
10
15.927578
20
336.360794
30
0.000000
42
0.000000
10
15.886433
20
336.389110
30
0.000000
42
0.000000
10
15.845288
20
336.360794
30
0.000000
42
0.000000
10
15.859503
20
336.408676
30
0.000000
42
0.000000
10
15.819859
20
336.439057
30
0.000000
42
0.000000
10
15.869790
20
336.440333
30
0.000000
0
LWPOLYLINE
5
95
100
AcDbEntity
67
0
8
0
6
ByLayer
62
256
370
-1
100
AcDbPolyline
90
10
70
1
10
16.319205
20
336.752706
30
0.000000
42
0.000000
10
16.348925
20
336.668613
30
0.000000
42
0.000000
10
16.438087
20
336.666333
30
0.000000
42
0.000000
10
16.367294
20
336.612081
30
0.000000
42
0.000000
10
16.392678
20
336.526579
30
0.000000
42
0.000000
10
16.319205
20
336.577143
30
0.000000
42
0.000000
10
16.245732
20
336.526579
30
0.000000
42
0.000000
10
16.271116
20
336.612081
30
0.000000
42
0.000000
10
16.200323
20
336.666333
30
0.000000
42
0.000000
10
16.289484
20
336.668613
30
0.000000
0
LWPOLYLINE
5
96
100
AcDbEntity
67
0
8
0
6
ByLayer
62
256
370
-1
100
AcDbPolyline
90
10
70
1
10
15.990951
20
336.104031
30
0.000000
42
0.000000
10
16.026616
20
336.003119
30
0.000000
42
0.000000
10
16.133609
20
336.000383
30
0.000000
42
0.000000
10
16.048658
20
335.935281
30
0.000000
42
0.000000
10
16.079119
20
335.832678
30
0.000000
42
0.000000
10
15.990951
20
335.893355
30
0.000000
42
0.000000
10
15.902783
20
335.832678
30
0.000000
42
0.000000
10
15.933244
20
335.935281
30
0.000000
42
0.000000
10
15.848293
20
336.000383
30
0.000000
42
0.000000
10
15.955286
20
336.003119
30
0.000000
0
LWPOLYLINE
5
97
100
AcDbEntity
67
0
8
0
6
ByLayer
62
256
370
-1
100
AcDbPolyline
90
10
70
1
10
13.901183
20
336.945004
30
0.000000
42
0.000000
10
13.917826
20
336.897911
30
0.000000
42
0.000000
10
13.967757
20
336.896635
30
0.000000
42
0.000000
10
13.928112
20
336.866254
30
0.000000
42
0.000000
10
13.942328
20
336.818372
30
0.000000
42
0.000000
10
13.901183
20
336.846688
30
0.000000
42
0.000000
10
13.860038
20
336.818372
30
0.000000
42
0.000000
10
13.874253
20
336.866254
30
0.000000
42
0.000000
10
13.834609
20
336.896635
30
0.000000
42
0.000000
10
13.884539
20
336.897911
30
0.000000
0
LWPOLYLINE
5
98
100
AcDbEntity
67
0
8
0
6
ByLayer
62
256
370
-1
100
AcDbPolyline
90
10
70
1
10
13.560331
20
336.821369
30
0.000000
42
0.000000
10
13.595996
20
336.720457
30
0.000000
42
0.000000
10
13.702990
20
336.717722
30
0.000000
42
0.000000
10
13.618038
20
336.652619
30
0.000000
42
0.000000
10
13.648499
20
336.550017
30
0.000000
42
0.000000
10
13.560331
20
336.610693
30
0.000000
42
0.000000
10
13.472163
20
336.550017
30
0.000000
42
0.000000
10
13.502625
20
336.652619
30
0.000000
42
0.000000
10
13.417673
20
336.717722
30
0.000000
42
0.000000
10
13.524667
20
336.720457
30
0.000000
0
LWPOLYLINE
5
99
100
AcDbEntity
67
0
8
0
6
ByLayer
62
256
370
-1
100
AcDbPolyline
90
10
70
1
10
13.152663
20
336.418345
30
0.000000
42
0.000000
10
13.182384
20
336.334252
30
0.000000
42
0.000000
10
13.271545
20
336.331972
30
0.000000
42
0.000000
10
13.200752
20
336.277720
30
0.000000
42
0.000000
10
13.226136
20
336.192218
30
0.000000
42
0.000000
10
13.152663
20
336.242782
30
0.000000
42
0.000000
10
13.079190
20
336.192218
30
0.000000
42
0.000000
10
13.104574
20
336.277720
30
0.000000
42
0.000000
10
13.033781
20
336.331972
30
0.000000
42
0.000000
10
13.122943
20
336.334252
30
0.000000
0
LWPOLYLINE
5
9A
100
AcDbEntity
67
0
8
0
6
ByLayer
62
256
370
-1
100
AcDbPolyline
90
10
70
1
10
14.232352
20
336.490785
30
0.000000
42
0.000000
10
14.262073
20
336.406691
30
0.000000
42
0.000000
10
14.351234
20
336.404412
30
0.000000
42
0.000000
10
14.280441
20
336.350160
30
0.000000
42
0.000000
10
14.305825
20
336.264657
30
0.000000
42
0.000000
10
14.232352
20
336.315221
30
0.000000
42
0.000000
10
14.158879
20
336.264657
30
0.000000
42
0.000000
10
14.184263
20
336.350160
30
0.000000
42
0.000000
10
14.113470
20
336.404412
30
0.000000
42
0.000000
10
14.202632
20
336.406691
30
0.000000
0
LWPOLYLINE
5
9B
100
AcDbEntity
67
0
8
0
6
ByLayer
62
256
370
-1
100
AcDbPolyline
90
10
70
1
10
14.156248
20
336.070375
30
0.000000
42
0.000000
10
14.180024
20
336.003101
30
0.000000
42
0.000000
10
14.251353
20
336.001277
30
0.000000
42
0.000000
10
14.194719
20
335.957875
30
0.000000
42
0.000000
10
14.215026
20
335.889473
30
0.000000
42
0.000000
10
14.156248
20
335.929924
30
0.000000
42
0.000000
10
14.097469
20
335.889473
30
0.000000
42
0.000000
10
14.117777
20
335.957875
30
0.000000
42
0.000000
10
14.061142
20
336.001277
30
0.000000
42
0.000000
10
14.132471
20
336.003101
30
0.000000
0
LWPOLYLINE
5
9C
100
AcDbEntity
67
0
8
0
6
ByLayer
62
256
370
-1
100
AcDbPolyline
90
10
70
1
10
14.654881
20
335.762786
30
0.000000
42
0.000000
10
14.690545
20
335.661874
30
0.000000
42
0.000000
10
14.797539
20
335.659139
30
0.000000
42
0.000000
10
14.712587
20
335.594036
30
0.000000
42
0.000000
10
14.743049
20
335.491434
30
0.000000
42
0.000000
10
14.654881
20
335.552110
30
0.000000
42
0.000000
10
14.566713
20
335.491434
30
0.000000
42
0.000000
10
14.597174
20
335.594036
30
0.000000
42
0.000000
10
14.512222
20
335.659139
30
0.000000
42
0.000000
10
14.619216
20
335.661874
30
0.000000
0
LWPOLYLINE
5
9D
100
AcDbEntity
67
0
8
0
6
ByLayer
62
256
370
-1
100
AcDbPolyline
90
10
70
1
10
15.984372
20
334.902069
30
0.000000
42
0.000000
10
15.996260
20
334.868431
30
0.000000
42
0.000000
10
16.031924
20
334.867519
30
0.000000
42
0.000000
10
16.003607
20
334.845819
30
0.000000
42
0.000000
10
16.013761
20
334.811618
30
0.000000
42
0.000000
10
15.984372
20
334.831843
30
0.000000
42
0.000000
10
15.954982
20
334.811618
30
0.000000
42
0.000000
10
15.965136
20
334.845819
30
0.000000
42
0.000000
10
15.936819
20
334.867519
30
0.000000
42
0.000000
10
15.972483
20
334.868431
30
0.000000
0
LWPOLYLINE
5
9E
100
AcDbEntity
67
0
8
0
6
ByLayer
62
256
370
-1
100
AcDbPolyline
90
10
70
1
10
16.742038
20
335.685010
30
0.000000
42
0.000000
10
16.765814
20
335.617736
30
0.000000
42
0.000000
10
16.837143
20
335.615912
30
0.000000
42
0.000000
10
16.780509
20
335.572510
30
0.000000
42
0.000000
10
16.800816
20
335.504109
30
0.000000
42
0.000000
10
16.742038
20
335.544560
30
0.000000
42
0.000000
10
16.683259
20
335.504109
30
0.000000
42
0.000000
10
16.703566
20
335.572510
30
0.000000
42
0.000000
10
16.646932
20
335.615912
30
0.000000
42
0.000000
10
16.718261
20
335.617736
30
0.000000
0
LWPOLYLINE
5
9F
100
AcDbEntity
67
0
8
0
6
ByLayer
62
256
370
-1
100
AcDbPolyline
90
10
70
1
10
17.226194
20
335.648148
30
0.000000
42
0.000000
10
17.249970
20
335.580874
30
0.000000
42
0.000000
10
17.321299
20
335.579050
30
0.000000
42
0.000000
10
17.264665
20
335.535648
30
0.000000
42
0.000000
10
17.284972
20
335.467246
30
0.000000
42
0.000000
10
17.226194
20
335.507697
30
0.000000
42
0.000000
10
17.167415
20
335.467246
30
0.000000
42
0.000000
10
17.187723
20
335.535648
30
0.000000
42
0.000000
10
17.131088
20
335.579050
30
0.000000
42
0.000000
10
17.202417
20
335.580874
30
0.000000
0
LWPOLYLINE
5
A0
100
AcDbEntity
67
0
8
0
6
ByLayer
62
256
370
-1
100
AcDbPolyline
90
10
70
1
10
17.651962
20
335.721290
30
0.000000
42
0.000000
10
17.675739
20
335.654015
30
0.000000
42
0.000000
10
17.747068
20
335.652192
30
0.000000
42
0.000000
10
17.690433
20
335.608790
30
0.000000
42
0.000000
10
17.710741
20
335.540388
30
0.000000
42
0.000000
10
17.651962
20
335.580839
30
0.000000
42
0.000000
10
17.593184
20
335.540388
30
0.000000
42
0.000000
10
17.613491
20
335.608790
30
0.000000
42
0.000000
10
17.556857
20
335.652192
30
0.000000
42
0.000000
10
17.628186
20
335.654015
30
0.000000
0
LWPOLYLINE
5
A1
100
AcDbEntity
67
0
8
0
6
ByLayer
62
256
370
-1
100
AcDbPolyline
90
10
70
1
10
17.981590
20
335.641321
30
0.000000
42
0.000000
10
18.005366
20
335.574046
30
0.000000
42
0.000000
10
18.076695
20
335.572223
30
0.000000
42
0.000000
10
18.020061
20
335.528821
30
0.000000
42
0.000000
10
18.040368
20
335.460419
30
0.000000
42
0.000000
10
17.981590
20
335.500870
30
0.000000
42
0.000000
10
17.922811
20
335.460419
30
0.000000
42
0.000000
10
17.943119
20
335.528821
30
0.000000
42
0.000000
10
17.886484
20
335.572223
30
0.000000
42
0.000000
10
17.957813
20
335.574046
30
0.000000
0
LWPOLYLINE
5
A2
100
AcDbEntity
67
0
8
0
6
ByLayer
62
256
370
-1
100
AcDbPolyline
90
10
70
1
10
17.665984
20
334.989269
30
0.000000
42
0.000000
10
17.689760
20
334.921994
30
0.000000
42
0.000000
10
17.761089
20
334.920171
30
0.000000
42
0.000000
10
17.704455
20
334.876769
30
0.000000
42
0.000000
10
17.724762
20
334.808367
30
0.000000
42
0.000000
10
17.665984
20
334.848818
30
0.000000
42
0.000000
10
17.607205
20
334.808367
30
0.000000
42
0.000000
10
17.627513
20
334.876769
30
0.000000
42
0.000000
10
17.570878
20
334.920171
30
0.000000
42
0.000000
10
17.642207
20
334.921994
30
0.000000
0
LWPOLYLINE
5
A3
100
AcDbEntity
67
0
8
0
6
ByLayer
62
256
370
-1
100
AcDbPolyline
90
10
70
1
10
18.765613
20
336.348735
30
0.000000
42
0.000000
10
18.789389
20
336.281460
30
0.000000
42
0.000000
10
18.860719
20
336.279637
30
0.000000
42
0.000000
10
18.804084
20
336.236235
30
0.000000
42
0.000000
10
18.824392
20
336.167833
30
0.000000
42
0.000000
10
18.765613
20
336.208284
30
0.000000
42
0.000000
10
18.706835
20
336.167833
30
0.000000
42
0.000000
10
18.727142
20
336.236235
30
0.000000
42
0.000000
10
18.670507
20
336.279637
30
0.000000
42
0.000000
10
18.741837
20
336.281460
30
0.000000
0
LWPOLYLINE
5
A4
100
AcDbEntity
67
0
8
0
6
ByLayer
62
256
370
-1
100
AcDbPolyline
90
10
70
1
10
16.982803
20
335.333107
30
0.000000
42
0.000000
10
17.012523
20
335.249014
30
0.000000
42
0.000000
10
17.101685
20
335.246734
30
0.000000
42
0.000000
10
17.030892
20
335.192482
30
0.000000
42
0.000000
10
17.056276
20
335.106980
30
0.000000
42
0.000000
10
16.982803
20
335.157544
30
0.000000
42
0.000000
10
16.909330
20
335.106980
30
0.000000
42
0.000000
10
16.934714
20
335.192482
30
0.000000
42
0.000000
10
16.863921
20
335.246734
30
0.000000
42
0.000000
10
16.953082
20
335.249014
30
0.000000
0
LWPOLYLINE
5
A5
100
AcDbEntity
67
0
8
0
6
ByLayer
62
256
370
-1
100
AcDbPolyline
90
10
70
1
10
17.640821
20
335.361918
30
0.000000
42
0.000000
10
17.670542
20
335.277825
30
0.000000
42
0.000000
10
17.759703
20
335.275545
30
0.000000
42
0.000000
10
17.688910
20
335.221293
30
0.000000
42
0.000000
10
17.714294
20
335.135791
30
0.000000
42
0.000000
10
17.640821
20
335.186354
30
0.000000
42
0.000000
10
17.567348
20
335.135791
30
0.000000
42
0.000000
10
17.592732
20
335.221293
30
0.000000
42
0.000000
10
17.521939
20
335.275545
30
0.000000
42
0.000000
10
17.611101
20
335.277825
30
0.000000
0
LWPOLYLINE
5
A6
100
AcDbEntity
67
0
8
0
6
ByLayer
62
256
370
-1
100
AcDbPolyline
90
10
70
1
10
18.248831
20
335.836694
30
0.000000
42
0.000000
10
18.278552
20
335.752600
30
0.000000
42
0.000000
10
18.367713
20
335.750321
30
0.000000
42
0.000000
10
18.296920
20
335.696069
30
0.000000
42
0.000000
10
18.322304
20
335.610566
30
0.000000
42
0.000000
10
18.248831
20
335.661130
30
0.000000
42
0.000000
10
18.175358
20
335.610566
30
0.000000
42
0.000000
10
18.200742
20
335.696069
30
0.000000
42
0.000000
10
18.129949
20
335.750321
30
0.000000
42
0.000000
10
18.219110
20
335.752600
30
0.000000
0
LWPOLYLINE
5
A7
100
AcDbEntity
67
0
8
0
6
ByLayer
62
256
370
-1
100
AcDbPolyline
90
10
70
1
10
18.440791
20
336.043808
30
0.000000
42
0.000000
10
18.470511
20
335.959715
30
0.000000
42
0.000000
10
18.559673
20
335.957435
30
0.000000
42
0.000000
10
18.488880
20
335.903183
30
0.000000
42
0.000000
10
18.514264
20
335.817681
30
0.000000
42
0.000000
10
18.440791
20
335.868244
30
0.000000
42
0.000000
10
18.367318
20
335.817681
30
0.000000
42
0.000000
10
18.392702
20
335.903183
30
0.000000
42
0.000000
10
18.321909
20
335.957435
30
0.000000
42
0.000000
10
18.411070
20
335.959715
30
0.000000
0
LWPOLYLINE
5
A8
100
AcDbEntity
67
0
8
0
6
ByLayer
62
256
370
-1
100
AcDbPolyline
90
10
70
1
10
18.319099
20
336.465061
30
0.000000
42
0.000000
10
18.354764
20
336.364149
30
0.000000
42
0.000000
10
18.461758
20
336.361413
30
0.000000
42
0.000000
10
18.376806
20
336.296311
30
0.000000
42
0.000000
10
18.407267
20
336.193708
30
0.000000
42
0.000000
10
18.319099
20
336.254384
30
0.000000
42
0.000000
10
18.230932
20
336.193708
30
0.000000
42
0.000000
10
18.261393
20
336.296311
30
0.000000
42
0.000000
10
18.176441
20
336.361413
30
0.000000
42
0.000000
10
18.283435
20
336.364149
30
0.000000
0
LWPOLYLINE
5
A9
100
AcDbEntity
67
0
8
0
6
ByLayer
62
98
370
-1
100
AcDbPolyline
90
4
70
1
10
45.455033
20
329.201132
30
0.000000
42
0.000000
10
65.455033
20
329.201132
30
0.000000
42
0.000000
10
65.455033
20
343.201132
30
0.000000
42
0.000000
10
45.455033
20
343.201132
30
0.000000
0
LWPOLYLINE
5
AA
100
AcDbEntity
67
0
8
0
6
ByLayer
62
52
370
-1
100
AcDbPolyline
90
4
70
1
10
47.155033
20
336.201132
30
0.000000
42
0.000000
10
55.455033
20
341.501132
30
0.000000
42
0.000000
10
63.755033
20
336.201132
30
0.000000
42
0.000000
10
55.455033
20
330.901132
30
0.000000
0
LWPOLYLINE
5
AB
100
AcDbEntity
67
0
8
0
6
ByLayer
62
255
370
-1
100
AcDbPolyline
90
10
70
1
10
56.291264
20
337.650667
30
0.000000
42
0.000000
10
56.326929
20
337.549755
30
0.000000
42
0.000000
10
56.433923
20
337.547019
30
0.000000
42
0.000000
10
56.348971
20
337.481917
30
0.000000
42
0.000000
10
56.379432
20
337.379314
30
0.000000
42
0.000000
10
56.291264
20
337.439991
30
0.000000
42
0.000000
10
56.203096
20
337.379314
30
0.000000
42
0.000000
10
56.233558
20
337.481917
30
0.000000
42
0.000000
10
56.148606
20
337.547019
30
0.000000
42
0.000000
10
56.255600
20
337.549755
30
0.000000
0
LWPOLYLINE
5
AC
100
AcDbEntity
67
0
8
0
6
ByLayer
62
255
370
-1
100
AcDbPolyline
90
10
70
1
10
56.168369
20
336.645496
30
0.000000
42
0.000000
10
56.192146
20
336.578221
30
0.000000
42
0.000000
10
56.263475
20
336.576397
30
0.000000
42
0.000000
10
56.206840
20
336.532996
30
0.000000
42
0.000000
10
56.227148
20
336.464594
30
0.000000
42
0.000000
10
56.168369
20
336.505045
30
0.000000
42
0.000000
10
56.109591
20
336.464594
30
0.000000
42
0.000000
10
56.129898
20
336.532996
30
0.000000
42
0.000000
10
56.073264
20
336.576397
30
0.000000
42
0.000000
10
56.144593
20
336.578221
30
0.000000
0
LWPOLYLINE
5
AD
100
AcDbEntity
67
0
8
0
6
ByLayer
62
255
370
-1
100
AcDbPolyline
90
10
70
1
10
52.629965
20
337.006414
30
0.000000
42
0.000000
10
52.665630
20
336.905502
30
0.000000
42
0.000000
10
52.772624
20
336.902767
30
0.000000
42
0.000000
10
52.687672
20
336.837664
30
0.000000
42
0.000000
10
52.718133
20
336.735062
30
0.000000
42
0.000000
10
52.629965
20
336.795738
30
0.000000
42
0.000000
10
52.541798
20
336.735062
30
0.000000
42
0.000000
10
52.572259
20
336.837664
30
0.000000
42
0.000000
10
52.487307
20
336.902767
30
0.000000
42
0.000000
10
52.594301
20
336.905502
30
0.000000
0
LWPOLYLINE
5
AE
100
AcDbEntity
67
0
8
0
6
ByLayer
62
255
370
-1
100
AcDbPolyline
90
10
70
1
10
54.106885
20
336.341127
30
0.000000
42
0.000000
10
54.136606
20
336.257034
30
0.000000
42
0.000000
10
54.225768
20
336.254754
30
0.000000
42
0.000000
10
54.154974
20
336.200502
30
0.000000
42
0.000000
10
54.180359
20
336.115000
30
0.000000
42
0.000000
10
54.106885
20
336.165563
30
0.000000
42
0.000000
10
54.033412
20
336.115000
30
0.000000
42
0.000000
10
54.058797
20
336.200502
30
0.000000
42
0.000000
10
53.988003
20
336.254754
30
0.000000
42
0.000000
10
54.077165
20
336.257034
30
0.000000
0
LWPOLYLINE
5
AF
100
AcDbEntity
67
0
8
0
6
ByLayer
62
255
370
-1
100
AcDbPolyline
90
10
70
1
10
55.279753
20
335.980686
30
0.000000
42
0.000000
10
55.309473
20
335.896593
30
0.000000
42
0.000000
10
55.398635
20
335.894313
30
0.000000
42
0.000000
10
55.327842
20
335.840061
30
0.000000
42
0.000000
10
55.353226
20
335.754559
30
0.000000
42
0.000000
10
55.279753
20
335.805122
30
0.000000
42
0.000000
10
55.206280
20
335.754559
30
0.000000
42
0.000000
10
55.231664
20
335.840061
30
0.000000
42
0.000000
10
55.160871
20
335.894313
30
0.000000
42
0.000000
10
55.250032
20
335.896593
30
0.000000
0
LWPOLYLINE
5
B0
100
AcDbEntity
67
0
8
0
6
ByLayer
62
255
370
-1
100
AcDbPolyline
90
10
70
1
10
54.959648
20
335.667740
30
0.000000
42
0.000000
10
54.983424
20
335.600466
30
0.000000
42
0.000000
10
55.054753
20
335.598642
30
0.000000
42
0.000000
10
54.998119
20
335.555240
30
0.000000
42
0.000000
10
55.018426
20
335.486839
30
0.000000
42
0.000000
10
54.959648
20
335.527289
30
0.000000
42
0.000000
10
54.900869
20
335.486839
30
0.000000
42
0.000000
10
54.921177
20
335.555240
30
0.000000
42
0.000000
10
54.864542
20
335.598642
30
0.000000
42
0.000000
10
54.935871
20
335.600466
30
0.000000
0
LWPOLYLINE
5
B1
100
AcDbEntity
67
0
8
0
6
ByLayer
62
255
370
-1
100
AcDbPolyline
90
10
70
1
10
55.191466
20
335.388558
30
0.000000
42
0.000000
10
55.208110
20
335.341465
30
0.000000
42
0.000000
10
55.258040
20
335.340189
30
0.000000
42
0.000000
10
55.218396
20
335.309808
30
0.000000
42
0.000000
10
55.232611
20
335.261926
30
0.000000
42
0.000000
10
55.191466
20
335.290242
30
0.000000
42
0.000000
10
55.150321
20
335.261926
30
0.000000
42
0.000000
10
55.164536
20
335.309808
30
0.000000
42
0.000000
10
55.124892
20
335.340189
30
0.000000
42
0.000000
10
55.174823
20
335.341465
30
0.000000
0
LWPOLYLINE
5
B2
100
AcDbEntity
67
0
8
0
6
ByLayer
62
255
370
-1
100
AcDbPolyline
90
10
70
1
10
55.624238
20
335.653838
30
0.000000
42
0.000000
10
55.653958
20
335.569745
30
0.000000
42
0.000000
10
55.743120
20
335.567465
30
0.000000
42
0.000000
10
55.672327
20
335.513213
30
0.000000
42
0.000000
10
55.697711
20
335.427711
30
0.000000
42
0.000000
10
55.624238
20
335.478275
30
0.000000
42
0.000000
10
55.550765
20
335.427711
30
0.000000
42
0.000000
10
55.576149
20
335.513213
30
0.000000
42
0.000000
10
55.505356
20
335.567465
30
0.000000
42
0.000000
10
55.594517
20
335.569745
30
0.000000
0
LWPOLYLINE
5
B3
100
AcDbEntity
67
0
8
0
6
ByLayer
62
255
370
-1
100
AcDbPolyline
90
10
70
1
10
55.295984
20
335.005163
30
0.000000
42
0.000000
10
55.331649
20
334.904251
30
0.000000
42
0.000000
10
55.438642
20
334.901515
30
0.000000
42
0.000000
10
55.353691
20
334.836413
30
0.000000
42
0.000000
10
55.384152
20
334.733810
30
0.000000
42
0.000000
10
55.295984
20
334.794487
30
0.000000
42
0.000000
10
55.207816
20
334.733810
30
0.000000
42
0.000000
10
55.238277
20
334.836413
30
0.000000
42
0.000000
10
55.153326
20
334.901515
30
0.000000
42
0.000000
10
55.260319
20
334.904251
30
0.000000
0
LWPOLYLINE
5
B4
100
AcDbEntity
67
0
8
0
6
ByLayer
62
255
370
-1
100
AcDbPolyline
90
10
70
1
10
53.206216
20
335.846136
30
0.000000
42
0.000000
10
53.222859
20
335.799043
30
0.000000
42
0.000000
10
53.272790
20
335.797767
30
0.000000
42
0.000000
10
53.233145
20
335.767386
30
0.000000
42
0.000000
10
53.247361
20
335.719504
30
0.000000
42
0.000000
10
53.206216
20
335.747820
30
0.000000
42
0.000000
10
53.165071
20
335.719504
30
0.000000
42
0.000000
10
53.179286
20
335.767386
30
0.000000
42
0.000000
10
53.139642
20
335.797767
30
0.000000
42
0.000000
10
53.189572
20
335.799043
30
0.000000
0
LWPOLYLINE
5
B5
100
AcDbEntity
67
0
8
0
6
ByLayer
62
255
370
-1
100
AcDbPolyline
90
10
70
1
10
52.865364
20
335.722501
30
0.000000
42
0.000000
10
52.901029
20
335.621589
30
0.000000
42
0.000000
10
53.008023
20
335.618854
30
0.000000
42
0.000000
10
52.923071
20
335.553751
30
0.000000
42
0.000000
10
52.953532
20
335.451149
30
0.000000
42
0.000000
10
52.865364
20
335.511825
30
0.000000
42
0.000000
10
52.777196
20
335.451149
30
0.000000
42
0.000000
10
52.807658
20
335.553751
30
0.000000
42
0.000000
10
52.722706
20
335.618854
30
0.000000
42
0.000000
10
52.829700
20
335.621589
30
0.000000
0
LWPOLYLINE
5
B6
100
AcDbEntity
67
0
8
0
6
ByLayer
62
255
370
-1
100
AcDbPolyline
90
10
70
1
10
52.457696
20
335.319477
30
0.000000
42
0.000000
10
52.487417
20
335.235384
30
0.000000
42
0.000000
10
52.576578
20
335.233104
30
0.000000
42
0.000000
10
52.505785
20
335.178852
30
0.000000
42
0.000000
10
52.531169
20
335.093350
30
0.000000
42
0.000000
10
52.457696
20
335.143914
30
0.000000
42
0.000000
10
52.384223
20
335.093350
30
0.000000
42
0.000000
10
52.409607
20
335.178852
30
0.000000
42
0.000000
10
52.338814
20
335.233104
30
0.000000
42
0.000000
10
52.427976
20
335.235384
30
0.000000
0
LWPOLYLINE
5
B7
100
AcDbEntity
67
0
8
0
6
ByLayer
62
255
370
-1
100
AcDbPolyline
90
10
70
1
10
53.537385
20
335.391917
30
0.000000
42
0.000000
10
53.567106
20
335.307823
30
0.000000
42
0.000000
10
53.656267
20
335.305544
30
0.000000
42
0.000000
10
53.585474
20
335.251292
30
0.000000
42
0.000000
10
53.610858
20
335.165789
30
0.000000
42
0.000000
10
53.537385
20
335.216353
30
0.000000
42
0.000000
10
53.463912
20
335.165789
30
0.000000
42
0.000000
10
53.489296
20
335.251292
30
0.000000
42
0.000000
10
53.418503
20
335.305544
30
0.000000
42
0.000000
10
53.507665
20
335.307823
30
0.000000
0
LWPOLYLINE
5
B8
100
AcDbEntity
67
0
8
0
6
ByLayer
62
255
370
-1
100
AcDbPolyline
90
10
70
1
10
53.461281
20
334.971507
30
0.000000
42
0.000000
10
53.485057
20
334.904233
30
0.000000
42
0.000000
10
53.556386
20
334.902409
30
0.000000
42
0.000000
10
53.499752
20
334.859007
30
0.000000
42
0.000000
10
53.520059
20
334.790605
30
0.000000
42
0.000000
10
53.461281
20
334.831056
30
0.000000
42
0.000000
10
53.402502
20
334.790605
30
0.000000
42
0.000000
10
53.422810
20
334.859007
30
0.000000
42
0.000000
10
53.366175
20
334.902409
30
0.000000
42
0.000000
10
53.437504
20
334.904233
30
0.000000
0
LWPOLYLINE
5
B9
100
AcDbEntity
67
0
8
0
6
ByLayer
62
255
370
-1
100
AcDbPolyline
90
10
70
1
10
53.959914
20
334.663918
30
0.000000
42
0.000000
10
53.995578
20
334.563006
30
0.000000
42
0.000000
10
54.102572
20
334.560271
30
0.000000
42
0.000000
10
54.017620
20
334.495168
30
0.000000
42
0.000000
10
54.048082
20
334.392566
30
0.000000
42
0.000000
10
53.959914
20
334.453242
30
0.000000
42
0.000000
10
53.871746
20
334.392566
30
0.000000
42
0.000000
10
53.902207
20
334.495168
30
0.000000
42
0.000000
10
53.817255
20
334.560271
30
0.000000
42
0.000000
10
53.924249
20
334.563006
30
0.000000
0
LWPOLYLINE
5
BA
100
AcDbEntity
67
0
8
0
6
ByLayer
62
255
370
-1
100
AcDbPolyline
90
10
70
1
10
55.289405
20
333.803201
30
0.000000
42
0.000000
10
55.301293
20
333.769563
30
0.000000
42
0.000000
10
55.336957
20
333.768651
30
0.000000
42
0.000000
10
55.308640
20
333.746951
30
0.000000
42
0.000000
10
55.318794
20
333.712750
30
0.000000
42
0.000000
10
55.289405
20
333.732975
30
0.000000
42
0.000000
10
55.260015
20
333.712750
30
0.000000
42
0.000000
10
55.270169
20
333.746951
30
0.000000
42
0.000000
10
55.241852
20
333.768651
30
0.000000
42
0.000000
10
55.277516
20
333.769563
30
0.000000
0
LWPOLYLINE
5
BB
100
AcDbEntity
67
0
8
0
6
ByLayer
62
255
370
-1
100
AcDbPolyline
90
10
70
1
10
56.047071
20
334.586142
30
0.000000
42
0.000000
10
56.070847
20
334.518868
30
0.000000
42
0.000000
10
56.142176
20
334.517044
30
0.000000
42
0.000000
10
56.085542
20
334.473642
30
0.000000
42
0.000000
10
56.105849
20
334.405241
30
0.000000
42
0.000000
10
56.047071
20
334.445692
30
0.000000
42
0.000000
10
55.988292
20
334.405241
30
0.000000
42
0.000000
10
56.008599
20
334.473642
30
0.000000
42
0.000000
10
55.951965
20
334.517044
30
0.000000
42
0.000000
10
56.023294
20
334.518868
30
0.000000
0
LWPOLYLINE
5
BC
100
AcDbEntity
67
0
8
0
6
ByLayer
62
255
370
-1
100
AcDbPolyline
90
10
70
1
10
56.531227
20
334.549280
30
0.000000
42
0.000000
10
56.555003
20
334.482006
30
0.000000
42
0.000000
10
56.626332
20
334.480182
30
0.000000
42
0.000000
10
56.569698
20
334.436780
30
0.000000
42
0.000000
10
56.590005
20
334.368378
30
0.000000
42
0.000000
10
56.531227
20
334.408829
30
0.000000
42
0.000000
10
56.472448
20
334.368378
30
0.000000
42
0.000000
10
56.492756
20
334.436780
30
0.000000
42
0.000000
10
56.436121
20
334.480182
30
0.000000
42
0.000000
10
56.507450
20
334.482006
30
0.000000
0
LWPOLYLINE
5
BD
100
AcDbEntity
67
0
8
0
6
ByLayer
62
255
370
-1
100
AcDbPolyline
90
10
70
1
10
56.956995
20
334.622422
30
0.000000
42
0.000000
10
56.980772
20
334.555147
30
0.000000
42
0.000000
10
57.052101
20
334.553324
30
0.000000
42
0.000000
10
56.995466
20
334.509922
30
0.000000
42
0.000000
10
57.015774
20
334.441520
30
0.000000
42
0.000000
10
56.956995
20
334.481971
30
0.000000
42
0.000000
10
56.898217
20
334.441520
30
0.000000
42
0.000000
10
56.918524
20
334.509922
30
0.000000
42
0.000000
10
56.861890
20
334.553324
30
0.000000
42
0.000000
10
56.933219
20
334.555147
30
0.000000
0
LWPOLYLINE
5
BE
100
AcDbEntity
67
0
8
0
6
ByLayer
62
255
370
-1
100
AcDbPolyline
90
10
70
1
10
57.286623
20
334.542453
30
0.000000
42
0.000000
10
57.310399
20
334.475178
30
0.000000
42
0.000000
10
57.381728
20
334.473355
30
0.000000
42
0.000000
10
57.325094
20
334.429953
30
0.000000
42
0.000000
10
57.345401
20
334.361551
30
0.000000
42
0.000000
10
57.286623
20
334.402002
30
0.000000
42
0.000000
10
57.227844
20
334.361551
30
0.000000
42
0.000000
10
57.248152
20
334.429953
30
0.000000
42
0.000000
10
57.191517
20
334.473355
30
0.000000
42
0.000000
10
57.262846
20
334.475178
30
0.000000
0
LWPOLYLINE
5
BF
100
AcDbEntity
67
0
8
0
6
ByLayer
62
255
370
-1
100
AcDbPolyline
90
10
70
1
10
56.971017
20
333.890401
30
0.000000
42
0.000000
10
56.994793
20
333.823126
30
0.000000
42
0.000000
10
57.066122
20
333.821303
30
0.000000
42
0.000000
10
57.009488
20
333.777901
30
0.000000
42
0.000000
10
57.029795
20
333.709499
30
0.000000
42
0.000000
10
56.971017
20
333.749950
30
0.000000
42
0.000000
10
56.912238
20
333.709499
30
0.000000
42
0.000000
10
56.932546
20
333.777901
30
0.000000
42
0.000000
10
56.875911
20
333.821303
30
0.000000
42
0.000000
10
56.947240
20
333.823126
30
0.000000
0
LWPOLYLINE
5
C0
100
AcDbEntity
67
0
8
0
6
ByLayer
62
255
370
-1
100
AcDbPolyline
90
10
70
1
10
58.070646
20
335.249867
30
0.000000
42
0.000000
10
58.094422
20
335.182592
30
0.000000
42
0.000000
10
58.165752
20
335.180769
30
0.000000
42
0.000000
10
58.109117
20
335.137367
30
0.000000
42
0.000000
10
58.129425
20
335.068965
30
0.000000
42
0.000000
10
58.070646
20
335.109416
30
0.000000
42
0.000000
10
58.011868
20
335.068965
30
0.000000
42
0.000000
10
58.032175
20
335.137367
30
0.000000
42
0.000000
10
57.975540
20
335.180769
30
0.000000
42
0.000000
10
58.046870
20
335.182592
30
0.000000
0
LWPOLYLINE
5
C1
100
AcDbEntity
67
0
8
0
6
ByLayer
62
255
370
-1
100
AcDbPolyline
90
10
70
1
10
56.287836
20
334.234239
30
0.000000
42
0.000000
10
56.317556
20
334.150146
30
0.000000
42
0.000000
10
56.406718
20
334.147866
30
0.000000
42
0.000000
10
56.335925
20
334.093614
30
0.000000
42
0.000000
10
56.361309
20
334.008112
30
0.000000
42
0.000000
10
56.287836
20
334.058676
30
0.000000
42
0.000000
10
56.214363
20
334.008112
30
0.000000
42
0.000000
10
56.239747
20
334.093614
30
0.000000
42
0.000000
10
56.168954
20
334.147866
30
0.000000
42
0.000000
10
56.258115
20
334.150146
30
0.000000
0
LWPOLYLINE
5
C2
100
AcDbEntity
67
0
8
0
6
ByLayer
62
255
370
-1
100
AcDbPolyline
90
10
70
1
10
56.945854
20
334.263050
30
0.000000
42
0.000000
10
56.975575
20
334.178957
30
0.000000
42
0.000000
10
57.064736
20
334.176677
30
0.000000
42
0.000000
10
56.993943
20
334.122425
30
0.000000
42
0.000000
10
57.019327
20
334.036923
30
0.000000
42
0.000000
10
56.945854
20
334.087486
30
0.000000
42
0.000000
10
56.872381
20
334.036923
30
0.000000
42
0.000000
10
56.897765
20
334.122425
30
0.000000
42
0.000000
10
56.826972
20
334.176677
30
0.000000
42
0.000000
10
56.916134
20
334.178957
30
0.000000
0
LWPOLYLINE
5
C3
100
AcDbEntity
67
0
8
0
6
ByLayer
62
255
370
-1
100
AcDbPolyline
90
10
70
1
10
57.553864
20
334.737826
30
0.000000
42
0.000000
10
57.583585
20
334.653732
30
0.000000
42
0.000000
10
57.672746
20
334.651453
30
0.000000
42
0.000000
10
57.601953
20
334.597201
30
0.000000
42
0.000000
10
57.627337
20
334.511698
30
0.000000
42
0.000000
10
57.553864
20
334.562262
30
0.000000
42
0.000000
10
57.480391
20
334.511698
30
0.000000
42
0.000000
10
57.505775
20
334.597201
30
0.000000
42
0.000000
10
57.434982
20
334.651453
30
0.000000
42
0.000000
10
57.524143
20
334.653732
30
0.000000
0
LWPOLYLINE
5
C4
100
AcDbEntity
67
0
8
0
6
ByLayer
62
255
370
-1
100
AcDbPolyline
90
10
70
1
10
57.745824
20
334.944940
30
0.000000
42
0.000000
10
57.775544
20
334.860847
30
0.000000
42
0.000000
10
57.864706
20
334.858567
30
0.000000
42
0.000000
10
57.793913
20
334.804315
30
0.000000
42
0.000000
10
57.819297
20
334.718813
30
0.000000
42
0.000000
10
57.745824
20
334.769376
30
0.000000
42
0.000000
10
57.672351
20
334.718813
30
0.000000
42
0.000000
10
57.697735
20
334.804315
30
0.000000
42
0.000000
10
57.626942
20
334.858567
30
0.000000
42
0.000000
10
57.716103
20
334.860847
30
0.000000
0
LWPOLYLINE
5
C5
100
AcDbEntity
67
0
8
0
6
ByLayer
62
255
370
-1
100
AcDbPolyline
90
10
70
1
10
57.624132
20
335.366193
30
0.000000
42
0.000000
10
57.659797
20
335.265281
30
0.000000
42
0.000000
10
57.766791
20
335.262545
30
0.000000
42
0.000000
10
57.681839
20
335.197443
30
0.000000
42
0.000000
10
57.712300
20
335.094840
30
0.000000
42
0.000000
10
57.624132
20
335.155516
30
0.000000
42
0.000000
10
57.535965
20
335.094840
30
0.000000
42
0.000000
10
57.566426
20
335.197443
30
0.000000
42
0.000000
10
57.481474
20
335.262545
30
0.000000
42
0.000000
10
57.588468
20
335.265281
30
0.000000
0
LWPOLYLINE
5
C6
100
AcDbEntity
67
0
8
0
6
ByLayer
62
255
370
-1
100
AcDbPolyline
90
2
70
0
10
52.067127
20
337.079819
30
0.000000
42
-0.230000
10
58.795769
20
335.157350
30
0.000000
0
LWPOLYLINE
5
C7
100
AcDbEntity
67
0
8
0
6
ByLayer
62
255
370
-1
100
AcDbPolyline
90
2
70
0
10
52.253674
20
337.615805
30
0.000000
42
-0.210000
10
58.920543
20
335.710986
30
0.000000
0
LWPOLYLINE
5
C8
100
AcDbEntity
67
0
8
0
6
ByLayer
62
5
370
-1
100
AcDbPolyline
90
3
70
0
10
51.955033
20
336.201132
30
0.000000
42
1.000000
10
58.955033
20
336.201132
30
0.000000
42
1.000000
10
51.955033
20
336.201132
30
0.000000
0
LWPOLYLINE
5
C9
100
AcDbEntity
67
0
8
0
6
ByLayer
62
1
370
-1
100
AcDbPolyline
90
2
70
1
10
12.762094
20
338.178687
30
0.000000
42
0.975500
10
19.490736
20
336.256218
30
0.000000
42
0.230000
0
LWPOLYLINE
5
CA
100
AcDbEntity
67
0
8
0
6
ByLayer
62
1
370
-1
100
AcDbPolyline
90
2
70
1
10
19.615510
20
336.809854
30
0.000000
42
0.871000
10
12.948641
20
338.714674
30
0.000000
42
-0.214000
0
LWPOLYLINE
5
CB
100
AcDbEntity
67
0
8
0
6
ByLayer
62
1
370
-1
100
AcDbPolyline
90
4
70
1
10
12.948641
20
338.714674
30
0.000000
42
-0.214000
10
19.615510
20
336.809854
30
0.000000
42
-0.045000
10
19.490736
20
336.256218
30
0.000000
42
0.230000
10
12.762094
20
338.178687
30
0.000000
42
-0.042000
0
LWPOLYLINE
5
CC
100
AcDbEntity
67
0
8
0
6
ByLayer
62
5
370
-1
100
AcDbPolyline
90
2
70
1
10
52.067127
20
337.079818
30
0.000000
42
0.975500
10
58.795769
20
335.157349
30
0.000000
42
0.230000
0
LWPOLYLINE
5
CD
100
AcDbEntity
67
0
8
0
6
ByLayer
62
5
370
-1
100
AcDbPolyline
90
2
70
1
10
58.920543
20
335.710985
30
0.000000
42
0.871000
10
52.253674
20
337.615805
30
0.000000
42
-0.214000
0
LWPOLYLINE
5
CE
100
AcDbEntity
67
0
8
0
6
ByLayer
62
255
370
-1
100
AcDbPolyline
90
4
70
1
10
52.253674
20
337.615806
30
0.000000
42
-0.214000
10
58.920543
20
335.710986
30
0.000000
42
-0.045000
10
58.795769
20
335.157350
30
0.000000
42
0.230000
10
52.067127
20
337.079819
30
0.000000
42
-0.042000
0
HATCH
5
CF
100
AcDbEntity
67
0
8
0
6
ByLayer
62
98
370
-1
100
AcDbHatch
10
0.000000
20
0.000000
30
0.000000
210
0.000000
220
0.000000
230
1.000000
2
HVEGE100
70
0
71
0
91
2
92
2
72
1
73
1
93
4
10
45.455033
20
329.201132
42
0.000000
10
65.455033
20
329.201132
42
0.000000
10
65.455033
20
343.201132
42
0.000000
10
45.455033
20
343.201132
42
0.000000
97
0
92
2
72
1
73
1
93
4
10
47.155033
20
336.201132
42
0.000000
10
55.455033
20
341.501132
42
0.000000
10
63.755033
20
336.201132
42
0.000000
10
55.455033
20
330.901132
42
0.000000
97
0
75
0
76
0
52
0.000000
41
0.100000
77
0
78
232
53
63.434952
43
0.600000
44
0.700000
45
0.000000
46
3.000000
79
2
49
0.223607
49
-6.484597
53
45.000000
43
0.700000
44
0.900000
45
0.000000
46
3.000000
79
2
49
0.282843
49
-3.959798
53
26.565050
43
0.900000
44
1.100000
45
0.000000
46
3.000000
79
2
49
0.223607
49
-6.484597
53
26.565050
43
3.900000
44
1.100000
45
0.000000
46
3.000000
79
2
49
0.223607
49
-6.484597
53
0.000000
43
1.100000
44
1.200000
45
0.000000
46
3.000000
79
2
49
0.200000
49
-2.800000
53
-18.434948
43
0.300000
44
0.800000
45
-0.000000
46
3.000000
79
2
49
0.316228
49
-9.170605
53
-18.434948
43
3.300000
44
0.800000
45
-0.000000
46
3.000000
79
2
49
0.316228
49
-9.170605
53
-18.434948
43
6.300000
44
0.800000
45
-0.000000
46
3.000000
79
2
49
0.316228
49
-9.170605
53
-45.000000
43
0.600000
44
0.700000
45
-0.000000
46
3.000000
79
2
49
0.282843
49
-3.959798
53
-63.434952
43
0.800000
44
0.500000
45
-0.000000
46
3.000000
79
2
49
0.223607
49
-6.484597
53
-90.000000
43
0.900000
44
0.300000
45
3.000000
46
0.000000
79
2
49
0.100000
49
-2.900000
53
225.000000
43
0.900000
44
0.200000
45
-0.000000
46
3.000000
79
2
49
0.141421
49
-4.101219
53
180.000000
43
0.800000
44
0.100000
45
-0.000000
46
-3.000000
79
2
49
0.200000
49
-2.800000
53
146.309936
43
0.600000
44
0.100000
45
-0.000000
46
3.000000
79
2
49
0.360555
49
-10.456099
53
146.309936
43
3.600000
44
0.100000
45
-0.000000
46
3.000000
79
2
49
0.360555
49
-10.456099
53
146.309936
43
6.600000
44
0.100000
45
-0.000000
46
3.000000
79
2
49
0.360555
49
-10.456099
53
108.434952
43
0.300000
44
0.300000
45
-0.000000
46
3.000000
79
2
49
0.316228
49
-9.170605
53
-36.869896
43
0.300000
44
0.600000
45
-0.000000
46
3.000000
79
2
49
0.500000
49
-14.500000
53
-36.869896
43
3.300000
44
0.600000
45
-0.000000
46
3.000000
79
2
49
0.500000
49
-14.500000
53
-36.869896
43
6.300000
44
0.600000
45
-0.000000
46
3.000000
79
2
49
0.500000
49
-14.500000
53
-36.869896
43
9.300000
44
0.600000
45
-0.000000
46
3.000000
79
2
49
0.500000
49
-14.500000
53
36.869896
43
0.800000
44
0.700000
45
0.000000
46
3.000000
79
2
49
0.500000
49
-14.500000
53
36.869896
43
3.800000
44
0.700000
45
0.000000
46
3.000000
79
2
49
0.500000
49
-14.500000
53
36.869896
43
6.800000
44
0.700000
45
0.000000
46
3.000000
79
2
49
0.500000
49
-14.500000
53
36.869896
43
9.800000
44
0.700000
45
0.000000
46
3.000000
79
2
49
0.500000
49
-14.500000
53
18.434948
43
0.800000
44
0.500000
45
0.000000
46
3.000000
79
2
49
0.316228
49
-9.170605
53
18.434948
43
3.800000
44
0.500000
45
0.000000
46
3.000000
79
2
49
0.316228
49
-9.170605
53
18.434948
43
6.800000
44
0.500000
45
0.000000
46
3.000000
79
2
49
0.316228
49
-9.170605
53
45.000000
43
1.100000
44
0.600000
45
0.000000
46
3.000000
79
2
49
0.282843
49
-3.959798
53
63.434952
43
1.300000
44
0.800000
45
0.000000
46
3.000000
79
2
49
0.223607
49
-6.484597
53
-63.434952
43
1.200000
44
1.400000
45
-0.000000
46
3.000000
79
2
49
0.223607
49
-6.484597
53
-63.434952
43
1.300000
44
1.200000
45
-0.000000
46
3.000000
79
2
49
0.223607
49
-6.484597
53
-18.434948
43
1.400000
44
1.000000
45
-0.000000
46
3.000000
79
2
49
0.316228
49
-9.170605
53
-18.434948
43
4.400000
44
1.000000
45
-0.000000
46
3.000000
79
2
49
0.316228
49
-9.170605
53
-18.434948
43
7.400000
44
1.000000
45
-0.000000
46
3.000000
79
2
49
0.316228
49
-9.170605
53
0.000000
43
1.700000
44
0.900000
45
0.000000
46
3.000000
79
2
49
0.300000
49
-2.700000
53
45.000000
43
2.000000
44
0.900000
45
0.000000
46
3.000000
79
2
49
0.141421
49
-4.101219
53
108.434952
43
2.100000
44
1.000000
45
-0.000000
46
3.000000
79
2
49
0.316228
49
-9.170605
53
135.000000
43
2.000000
44
1.300000
45
0.000000
46
3.000000
79
2
49
0.282843
49
-3.959798
53
168.690079
43
1.800000
44
1.500000
45
-0.000000
46
3.000000
79
2
49
0.509902
49
-14.787157
53
168.690079
43
4.800000
44
1.500000
45
-0.000000
46
3.000000
79
2
49
0.509902
49
-14.787157
53
168.690079
43
7.800000
44
1.500000
45
-0.000000
46
3.000000
79
2
49
0.509902
49
-14.787157
53
168.690079
43
10.800000
44
1.500000
45
-0.000000
46
3.000000
79
2
49
0.509902
49
-14.787157
53
168.690079
43
13.800000
44
1.500000
45
-0.000000
46
3.000000
79
2
49
0.509902
49
-14.787157
53
-38.659809
43
1.400000
44
1.400000
45
-0.000000
46
3.000000
79
2
49
0.640312
49
-18.569060
53
-38.659809
43
4.400000
44
1.400000
45
-0.000000
46
3.000000
79
2
49
0.640312
49
-18.569060
53
-38.659809
43
7.400000
44
1.400000
45
-0.000000
46
3.000000
79
2
49
0.640312
49
-18.569060
53
-38.659809
43
10.400000
44
1.400000
45
-0.000000
46
3.000000
79
2
49
0.640312
49
-18.569060
53
-38.659809
43
13.400000
44
1.400000
45
-0.000000
46
3.000000
79
2
49
0.640312
49
-18.569060
53
71.565048
43
1.300000
44
0.000000
45
0.000000
46
3.000000
79
2
49
0.316228
49
-9.170605
53
45.000000
43
1.400000
44
0.300000
45
0.000000
46
3.000000
79
2
49
0.282843
49
-3.959798
53
0.000000
43
1.600000
44
0.500000
45
0.000000
46
3.000000
79
2
49
0.100000
49
-2.900000
53
-45.000000
43
1.700000
44
0.500000
45
-0.000000
46
3.000000
79
2
49
0.141421
49
-4.101219
53
-90.000000
43
1.800000
44
0.400000
45
3.000000
46
0.000000
79
2
49
0.400000
49
-2.600000
53
243.434967
43
1.800000
44
3.000000
45
-0.000000
46
3.000000
79
2
49
0.223607
49
-6.484597
53
225.000000
43
1.700000
44
2.800000
45
-0.000000
46
3.000000
79
2
49
0.282843
49
-3.959798
53
-90.000000
43
1.300000
44
3.000000
45
3.000000
46
0.000000
79
2
49
0.200000
49
-2.800000
53
-90.000000
43
1.300000
44
2.800000
45
3.000000
46
0.000000
79
2
49
0.200000
49
-2.800000
53
251.565048
43
1.600000
44
0.300000
45
-0.000000
46
3.000000
79
2
49
0.316228
49
-9.170605
53
243.434967
43
1.500000
44
3.000000
45
-0.000000
46
3.000000
79
2
49
0.223607
49
-6.484597
53
45.000000
43
1.300000
44
2.100000
45
0.000000
46
3.000000
79
2
49
0.424264
49
-3.818377
53
14.036243
43
1.600000
44
2.400000
45
0.000000
46
3.000000
79
2
49
0.412311
49
-11.957006
53
14.036243
43
4.600000
44
2.400000
45
0.000000
46
3.000000
79
2
49
0.412311
49
-11.957006
53
14.036243
43
7.600000
44
2.400000
45
0.000000
46
3.000000
79
2
49
0.412311
49
-11.957006
53
14.036243
43
10.600000
44
2.400000
45
0.000000
46
3.000000
79
2
49
0.412311
49
-11.957006
53
-45.000000
43
2.000000
44
2.500000
45
-0.000000
46
3.000000
79
2
49
0.282843
49
-3.959798
53
243.434967
43
2.200000
44
2.300000
45
-0.000000
46
3.000000
79
2
49
0.223607
49
-6.484597
53
206.565064
43
2.100000
44
2.100000
45
-0.000000
46
3.000000
79
2
49
0.223607
49
-6.484597
53
206.565064
43
5.100000
44
2.100000
45
-0.000000
46
3.000000
79
2
49
0.223607
49
-6.484597
53
201.801407
43
1.900000
44
2.000000
45
0.000000
46
3.000000
79
2
49
0.538516
49
-15.616978
53
201.801407
43
4.900000
44
2.000000
45
0.000000
46
3.000000
79
2
49
0.538516
49
-15.616978
53
201.801407
43
7.900000
44
2.000000
45
0.000000
46
3.000000
79
2
49
0.538516
49
-15.616978
53
201.801407
43
10.900000
44
2.000000
45
0.000000
46
3.000000
79
2
49
0.538516
49
-15.616978
53
201.801407
43
13.900000
44
2.000000
45
0.000000
46
3.000000
79
2
49
0.538516
49
-15.616978
53
36.869896
43
1.500000
44
2.000000
45
0.000000
46
3.000000
79
2
49
0.500000
49
-14.500000
53
36.869896
43
4.500000
44
2.000000
45
0.000000
46
3.000000
79
2
49
0.500000
49
-14.500000
53
36.869896
43
7.500000
44
2.000000
45
0.000000
46
3.000000
79
2
49
0.500000
49
-14.500000
53
36.869896
43
10.500000
44
2.000000
45
0.000000
46
3.000000
79
2
49
0.500000
49
-14.500000
53
-18.434948
43
1.900000
44
2.000000
45
-0.000000
46
3.000000
79
2
49
0.316228
49
-9.170605
53
-18.434948
43
4.900000
44
2.000000
45
-0.000000
46
3.000000
79
2
49
0.316228
49
-9.170605
53
-18.434948
43
7.900000
44
2.000000
45
-0.000000
46
3.000000
79
2
49
0.316228
49
-9.170605
53
-90.000000
43
2.200000
44
1.900000
45
3.000000
46
0.000000
79
2
49
0.300000
49
-2.700000
53
194.036255
43
2.200000
44
1.600000
45
-0.000000
46
3.000000
79
2
49
0.412311
49
-11.957006
53
194.036255
43
5.200000
44
1.600000
45
-0.000000
46
3.000000
79
2
49
0.412311
49
-11.957006
53
194.036255
43
8.200000
44
1.600000
45
-0.000000
46
3.000000
79
2
49
0.412311
49
-11.957006
53
194.036255
43
11.200000
44
1.600000
45
-0.000000
46
3.000000
79
2
49
0.412311
49
-11.957006
53
0.000000
43
1.700000
44
1.700000
45
0.000000
46
3.000000
79
2
49
0.300000
49
-2.700000
53
-71.565048
43
1.300000
44
2.100000
45
-0.000000
46
3.000000
79
2
49
0.316228
49
-9.170605
53
243.434967
43
1.400000
44
1.800000
45
-0.000000
46
3.000000
79
2
49
0.223607
49
-6.484597
53
243.434967
43
1.300000
44
1.600000
45
-0.000000
46
3.000000
79
2
49
0.223607
49
-6.484597
53
180.000000
43
1.200000
44
1.400000
45
-0.000000
46
-3.000000
79
2
49
0.300000
49
-2.700000
53
108.434952
43
0.900000
44
1.400000
45
-0.000000
46
3.000000
79
2
49
0.316228
49
-9.170605
53
90.000000
43
0.800000
44
1.700000
45
-3.000000
46
0.000000
79
2
49
0.400000
49
-2.600000
53
71.565048
43
0.800000
44
2.100000
45
0.000000
46
3.000000
79
2
49
0.316228
49
-9.170605
53
45.000000
43
0.900000
44
2.400000
45
0.000000
46
3.000000
79
2
49
0.141421
49
-4.101219
53
45.000000
43
1.100000
44
2.400000
45
0.000000
46
3.000000
79
2
49
0.282843
49
-3.959798
53
0.000000
43
1.300000
44
2.600000
45
0.000000
46
3.000000
79
2
49
0.200000
49
-2.800000
53
-63.434952
43
1.500000
44
2.600000
45
-0.000000
46
3.000000
79
2
49
0.223607
49
-6.484597
53
116.565048
43
1.300000
44
2.100000
45
-0.000000
46
3.000000
79
2
49
0.223607
49
-6.484597
53
135.000000
43
1.200000
44
2.300000
45
0.000000
46
3.000000
79
2
49
0.141421
49
-4.101219
53
101.309929
43
1.100000
44
1.700000
45
-0.000000
46
3.000000
79
2
49
0.509902
49
-14.787157
53
198.434952
43
0.900000
44
1.400000
45
-0.000000
46
3.000000
79
2
49
0.316228
49
-9.170605
53
198.434952
43
3.900000
44
1.400000
45
-0.000000
46
3.000000
79
2
49
0.316228
49
-9.170605
53
198.434952
43
6.900000
44
1.400000
45
-0.000000
46
3.000000
79
2
49
0.316228
49
-9.170605
53
225.000000
43
0.600000
44
1.300000
45
-0.000000
46
3.000000
79
2
49
0.141421
49
-4.101219
53
243.434967
43
0.500000
44
1.200000
45
-0.000000
46
3.000000
79
2
49
0.447214
49
-6.260990
53
0.000000
43
1.400000
44
0.700000
45
0.000000
46
3.000000
79
2
49
0.500000
49
-2.500000
53
-63.434952
43
1.200000
44
0.700000
45
-0.000000
46
3.000000
79
2
49
0.223607
49
-6.484597
53
-26.565050
43
1.300000
44
0.500000
45
-0.000000
46
3.000000
79
2
49
0.223607
49
-6.484597
53
-26.565050
43
4.300000
44
0.500000
45
-0.000000
46
3.000000
79
2
49
0.223607
49
-6.484597
53
18.434948
43
1.800000
44
0.400000
45
0.000000
46
3.000000
79
2
49
0.316228
49
-9.170605
53
18.434948
43
4.800000
44
0.400000
45
0.000000
46
3.000000
79
2
49
0.316228
49
-9.170605
53
18.434948
43
7.800000
44
0.400000
45
0.000000
46
3.000000
79
2
49
0.316228
49
-9.170605
53
104.036240
43
2.100000
44
0.500000
45
0.000000
46
3.000000
79
2
49
0.412311
49
-11.957006
53
45.000000
43
2.100000
44
1.000000
45
0.000000
46
3.000000
79
2
49
0.141421
49
-4.101219
53
0.000000
43
2.200000
44
1.100000
45
0.000000
46
3.000000
79
2
49
0.200000
49
-2.800000
53
-63.434952
43
2.400000
44
1.100000
45
-0.000000
46
3.000000
79
2
49
0.223607
49
-6.484597
53
-90.000000
43
2.500000
44
0.900000
45
3.000000
46
0.000000
79
2
49
0.400000
49
-2.600000
53
251.565048
43
2.500000
44
0.500000
45
-0.000000
46
3.000000
79
2
49
0.316228
49
-9.170605
53
180.000000
43
2.400000
44
0.200000
45
-0.000000
46
-3.000000
79
2
49
0.200000
49
-2.800000
53
108.434952
43
2.200000
44
0.200000
45
-0.000000
46
3.000000
79
2
49
0.316228
49
-9.170605
53
-90.000000
43
2.300000
44
0.900000
45
3.000000
46
0.000000
79
2
49
0.400000
49
-2.600000
53
180.000000
43
0.600000
44
1.900000
45
-0.000000
46
-3.000000
79
2
49
0.400000
49
-2.600000
53
153.434952
43
0.800000
44
2.100000
45
0.000000
46
3.000000
79
2
49
0.223607
49
-6.484597
53
153.434952
43
3.800000
44
2.100000
45
0.000000
46
3.000000
79
2
49
0.223607
49
-6.484597
53
180.000000
43
0.600000
44
2.200000
45
-0.000000
46
-3.000000
79
2
49
0.300000
49
-2.700000
53
206.565064
43
0.300000
44
2.200000
45
-0.000000
46
3.000000
79
2
49
0.223607
49
-6.484597
53
206.565064
43
3.300000
44
2.200000
45
-0.000000
46
3.000000
79
2
49
0.223607
49
-6.484597
53
-90.000000
43
0.100000
44
2.100000
45
3.000000
46
0.000000
79
2
49
0.300000
49
-2.700000
53
-45.000000
43
0.100000
44
1.800000
45
-0.000000
46
3.000000
79
2
49
0.141421
49
-4.101219
53
0.000000
43
0.200000
44
1.700000
45
0.000000
46
3.000000
79
2
49
0.300000
49
-2.700000
53
26.565050
43
0.500000
44
1.700000
45
0.000000
46
3.000000
79
2
49
0.223607
49
-6.484597
53
26.565050
43
3.500000
44
1.700000
45
0.000000
46
3.000000
79
2
49
0.223607
49
-6.484597
53
45.000000
43
0.700000
44
1.800000
45
0.000000
46
3.000000
79
2
49
0.141421
49
-4.101219
53
213.690064
43
0.700000
44
1.600000
45
0.000000
46
3.000000
79
2
49
0.360555
49
-10.456099
53
213.690064
43
3.700000
44
1.600000
45
0.000000
46
3.000000
79
2
49
0.360555
49
-10.456099
53
213.690064
43
6.700000
44
1.600000
45
0.000000
46
3.000000
79
2
49
0.360555
49
-10.456099
53
180.000000
43
0.200000
44
1.600000
45
-0.000000
46
-3.000000
79
2
49
0.200000
49
-2.800000
53
180.000000
43
3.000000
44
1.600000
45
-0.000000
46
-3.000000
79
2
49
0.300000
49
-2.700000
53
206.565064
43
2.700000
44
1.600000
45
-0.000000
46
3.000000
79
2
49
0.223607
49
-6.484597
53
206.565064
43
5.700000
44
1.600000
45
-0.000000
46
3.000000
79
2
49
0.223607
49
-6.484597
53
-90.000000
43
2.500000
44
1.500000
45
3.000000
46
0.000000
79
2
49
0.200000
49
-2.800000
53
-26.565050
43
2.500000
44
1.300000
45
-0.000000
46
3.000000
79
2
49
0.447214
49
-6.260990
53
-26.565050
43
5.500000
44
1.300000
45
-0.000000
46
3.000000
79
2
49
0.447214
49
-6.260990
53
-18.434948
43
2.700000
44
1.400000
45
-0.000000
46
3.000000
79
2
49
0.316228
49
-9.170605
53
-18.434948
43
5.700000
44
1.400000
45
-0.000000
46
3.000000
79
2
49
0.316228
49
-9.170605
53
-18.434948
43
8.700000
44
1.400000
45
-0.000000
46
3.000000
79
2
49
0.316228
49
-9.170605
53
18.434948
43
1.700000
44
2.600000
45
0.000000
46
3.000000
79
2
49
0.316228
49
-9.170605
53
18.434948
43
4.700000
44
2.600000
45
0.000000
46
3.000000
79
2
49
0.316228
49
-9.170605
53
18.434948
43
7.700000
44
2.600000
45
0.000000
46
3.000000
79
2
49
0.316228
49
-9.170605
53
56.309933
43
2.000000
44
2.500000
45
0.000000
46
3.000000
79
2
49
0.360555
49
-10.456099
53
56.309933
43
5.000000
44
2.500000
45
0.000000
46
3.000000
79
2
49
0.360555
49
-10.456099
53
-45.000000
43
2.300000
44
2.500000
45
-0.000000
46
3.000000
79
2
49
0.424264
49
-3.818377
53
-33.690067
43
2.200000
44
2.300000
45
-0.000000
46
3.000000
79
2
49
0.360555
49
-10.456099
53
-33.690067
43
5.200000
44
2.300000
45
-0.000000
46
3.000000
79
2
49
0.360555
49
-10.456099
53
-33.690067
43
8.200000
44
2.300000
45
-0.000000
46
3.000000
79
2
49
0.360555
49
-10.456099
53
-26.565050
43
2.500000
44
2.100000
45
-0.000000
46
3.000000
79
2
49
0.223607
49
-6.484597
53
-26.565050
43
5.500000
44
2.100000
45
-0.000000
46
3.000000
79
2
49
0.223607
49
-6.484597
53
63.434952
43
2.700000
44
2.000000
45
0.000000
46
3.000000
79
2
49
0.223607
49
-6.484597
53
116.565048
43
2.800000
44
2.200000
45
-0.000000
46
3.000000
79
2
49
0.447214
49
-6.260990
53
135.000000
43
2.600000
44
2.600000
45
0.000000
46
3.000000
79
2
49
0.141421
49
-4.101219
53
161.565048
43
2.500000
44
2.700000
45
0.000000
46
3.000000
79
2
49
0.316228
49
-9.170605
53
161.565048
43
5.500000
44
2.700000
45
0.000000
46
3.000000
79
2
49
0.316228
49
-9.170605
53
161.565048
43
8.500000
44
2.700000
45
0.000000
46
3.000000
79
2
49
0.316228
49
-9.170605
53
-63.434952
43
2.400000
44
1.700000
45
-0.000000
46
3.000000
79
2
49
0.223607
49
-6.484597
53
-26.565050
43
2.300000
44
2.000000
45
-0.000000
46
3.000000
79
2
49
0.223607
49
-6.484597
53
-26.565050
43
5.300000
44
2.000000
45
-0.000000
46
3.000000
79
2
49
0.223607
49
-6.484597
53
243.434967
43
2.500000
44
1.300000
45
-0.000000
46
3.000000
79
2
49
0.223607
49
-6.484597
53
-45.000000
43
2.600000
44
1.100000
45
-0.000000
46
3.000000
79
2
49
0.282843
49
-3.959798
53
-63.434952
43
2.900000
44
1.100000
45
-0.000000
46
3.000000
79
2
49
0.223607
49
-6.484597
53
243.434967
43
3.000000
44
0.900000
45
-0.000000
46
3.000000
79
2
49
0.223607
49
-6.484597
53
180.000000
43
2.900000
44
0.700000
45
-0.000000
46
-3.000000
79
2
49
0.100000
49
-2.900000
53
146.309936
43
2.800000
44
0.700000
45
-0.000000
46
3.000000
79
2
49
0.360555
49
-10.456099
53
146.309936
43
5.800000
44
0.700000
45
-0.000000
46
3.000000
79
2
49
0.360555
49
-10.456099
53
146.309936
43
8.800000
44
0.700000
45
-0.000000
46
3.000000
79
2
49
0.360555
49
-10.456099
53
-90.000000
43
1.100000
44
0.500000
45
3.000000
46
0.000000
79
2
49
0.500000
49
-2.500000
53
63.434952
43
0.300000
44
0.000000
45
0.000000
46
3.000000
79
2
49
0.223607
49
-6.484597
53
180.000000
43
0.300000
44
0.300000
45
-0.000000
46
-3.000000
79
2
49
0.300000
49
-2.700000
53
243.434967
43
2.700000
44
3.000000
45
-0.000000
46
3.000000
79
2
49
0.223607
49
-6.484597
53
-90.000000
43
2.600000
44
2.800000
45
3.000000
46
0.000000
79
2
49
0.200000
49
-2.800000
53
135.000000
43
1.100000
44
2.400000
45
0.000000
46
3.000000
79
2
49
0.282843
49
-3.959798
53
116.565048
43
0.900000
44
2.600000
45
-0.000000
46
3.000000
79
2
49
0.223607
49
-6.484597
53
90.000000
43
0.800000
44
2.800000
45
-3.000000
46
0.000000
79
2
49
0.200000
49
-2.800000
53
45.000000
43
2.600000
44
1.700000
45
0.000000
46
3.000000
79
2
49
0.141421
49
-4.101219
53
90.000000
43
2.700000
44
1.800000
45
-3.000000
46
0.000000
79
2
49
0.200000
49
-2.800000
53
-18.434948
43
2.700000
44
2.000000
45
-0.000000
46
3.000000
79
2
49
0.316228
49
-9.170605
53
-18.434948
43
5.700000
44
2.000000
45
-0.000000
46
3.000000
79
2
49
0.316228
49
-9.170605
53
-18.434948
43
8.700000
44
2.000000
45
-0.000000
46
3.000000
79
2
49
0.316228
49
-9.170605
53
-45.000000
43
0.000000
44
1.900000
45
-0.000000
46
3.000000
79
2
49
0.141421
49
-4.101219
53
0.000000
43
2.500000
44
1.700000
45
0.000000
46
3.000000
79
2
49
0.100000
49
-2.900000
53
135.000000
43
3.000000
44
0.000000
45
0.000000
46
3.000000
79
2
49
0.282843
49
-3.959798
53
-45.000000
43
0.000000
44
3.000000
45
-0.000000
46
3.000000
79
2
49
0.282843
49
-3.959798
53
-26.565050
43
0.000000
44
2.600000
45
-0.000000
46
3.000000
79
2
49
0.223607
49
-6.484597
53
-26.565050
43
3.000000
44
2.600000
45
-0.000000
46
3.000000
79
2
49
0.223607
49
-6.484597
53
45.000000
43
0.200000
44
2.500000
45
0.000000
46
3.000000
79
2
49
0.424264
49
-3.818377
53
135.000000
43
0.500000
44
2.800000
45
0.000000
46
3.000000
79
2
49
0.282843
49
-3.959798
53
135.000000
43
3.000000
44
0.300000
45
0.000000
46
3.000000
79
2
49
0.282843
49
-3.959798
53
116.565048
43
2.700000
44
0.000000
45
-0.000000
46
3.000000
79
2
49
0.223607
49
-6.484597
53
56.309933
43
2.600000
44
0.200000
45
0.000000
46
3.000000
79
2
49
0.360555
49
-10.456099
53
56.309933
43
5.600000
44
0.200000
45
0.000000
46
3.000000
79
2
49
0.360555
49
-10.456099
53
135.000000
43
2.200000
44
2.800000
45
0.000000
46
3.000000
79
2
49
0.141421
49
-4.101219
53
194.036255
43
2.100000
44
2.900000
45
-0.000000
46
3.000000
79
2
49
0.412311
49
-11.957006
53
194.036255
43
5.100000
44
2.900000
45
-0.000000
46
3.000000
79
2
49
0.412311
49
-11.957006
53
194.036255
43
8.100000
44
2.900000
45
-0.000000
46
3.000000
79
2
49
0.412311
49
-11.957006
53
194.036255
43
11.100000
44
2.900000
45
-0.000000
46
3.000000
79
2
49
0.412311
49
-11.957006
53
14.036243
43
0.400000
44
2.400000
45
0.000000
46
3.000000
79
2
49
0.412311
49
-11.957006
53
14.036243
43
3.400000
44
2.400000
45
0.000000
46
3.000000
79
2
49
0.412311
49
-11.957006
53
14.036243
43
6.400000
44
2.400000
45
0.000000
46
3.000000
79
2
49
0.412311
49
-11.957006
53
14.036243
43
9.400000
44
2.400000
45
0.000000
46
3.000000
79
2
49
0.412311
49
-11.957006
53
-71.565048
43
0.200000
44
2.500000
45
-0.000000
46
3.000000
79
2
49
0.316228
49
-9.170605
53
0.000000
43
0.200000
44
1.200000
45
0.000000
46
3.000000
79
2
49
0.300000
49
-2.700000
53
63.434952
43
0.200000
44
0.600000
45
0.000000
46
3.000000
79
2
49
0.223607
49
-6.484597
53
90.000000
43
2.800000
44
0.500000
45
-3.000000
46
0.000000
79
2
49
0.200000
49
-2.800000
53
153.434952
43
0.200000
44
0.600000
45
0.000000
46
3.000000
79
2
49
0.223607
49
-6.484597
53
153.434952
43
3.200000
44
0.600000
45
0.000000
46
3.000000
79
2
49
0.223607
49
-6.484597
53
90.000000
43
0.000000
44
0.700000
45
-3.000000
46
0.000000
79
2
49
0.300000
49
-2.700000
53
45.000000
43
0.000000
44
1.000000
45
0.000000
46
3.000000
79
2
49
0.282843
49
-3.959798
53
71.565048
43
0.200000
44
1.200000
45
0.000000
46
3.000000
79
2
49
0.316228
49
-9.170605
53
116.565048
43
0.300000
44
1.500000
45
-0.000000
46
3.000000
79
2
49
0.223607
49
-6.484597
53
-26.565050
43
2.200000
44
1.800000
45
-0.000000
46
3.000000
79
2
49
0.223607
49
-6.484597
53
-26.565050
43
5.200000
44
1.800000
45
-0.000000
46
3.000000
79
2
49
0.223607
49
-6.484597
53
0.000000
43
2.400000
44
1.700000
45
0.000000
46
3.000000
79
2
49
0.100000
49
-2.900000
53
63.434952
43
2.200000
44
2.800000
45
0.000000
46
3.000000
79
2
49
0.223607
49
-6.484597
53
45.000000
43
2.300000
44
0.000000
45
0.000000
46
3.000000
79
2
49
0.141421
49
-4.101219
53
90.000000
43
2.400000
44
0.100000
45
-3.000000
46
0.000000
79
2
49
0.100000
49
-2.900000
53
-53.130100
43
2.700000
44
3.000000
45
-0.000000
46
3.000000
79
2
49
0.500000
49
-14.500000
53
-53.130100
43
5.700000
44
3.000000
45
-0.000000
46
3.000000
79
2
49
0.500000
49
-14.500000
53
-53.130100
43
8.700000
44
3.000000
45
-0.000000
46
3.000000
79
2
49
0.500000
49
-14.500000
53
90.000000
43
0.800000
44
0.000000
45
-3.000000
46
0.000000
79
2
49
0.100000
49
-2.900000
53
-56.309933
43
2.800000
44
2.600000
45
-0.000000
46
3.000000
79
2
49
0.360555
49
-10.456099
53
-56.309933
43
5.800000
44
2.600000
45
-0.000000
46
3.000000
79
2
49
0.360555
49
-10.456099
53
0.000000
43
0.500000
44
2.800000
45
0.000000
46
3.000000
79
2
49
0.300000
49
-2.700000
98
0
0
HATCH
5
D0
100
AcDbEntity
67
0
8
0
6
ByLayer
62
52
370
-1
100
AcDbHatch
10
0.000000
20
0.000000
30
0.000000
210
0.000000
220
0.000000
230
1.000000
2
DIATREAD
70
0
71
0
91
2
92
2
72
1
73
1
93
4
10
47.155033
20
336.201132
42
0.000000
10
55.455033
20
341.501132
42
0.000000
10
63.755033
20
336.201132
42
0.000000
10
55.455033
20
330.901132
42
0.000000
97
0
92
2
72
1
73
0
93
3
10
51.955033
20
336.201132
42
1.000000
10
58.955033
20
336.201132
42
1.000000
10
51.955033
20
336.201132
42
0.000000
97
0
75
0
76
0
52
0.000000
41
0.500000
77
0
78
8
53
18.434949
43
0.450000
44
0.350000
45
0.500000
46
0.500000
79
2
49
0.316228
49
-1.264911
53
71.565051
43
0.250000
44
0.050000
45
-0.500000
46
-0.500000
79
2
49
0.316228
49
-1.264911
53
71.565051
43
0.150000
44
0.350000
45
-0.500000
46
-0.500000
79
2
49
0.316228
49
-1.264911
53
108.434949
43
0.250000
44
0.050000
45
-0.500000
46
0.500000
79
2
49
0.316228
49
-1.264911
53
108.434949
43
0.350000
44
0.350000
45
-0.500000
46
0.500000
79
2
49
0.316228
49
-1.264911
53
161.565051
43
0.050000
44
0.350000
45
0.500000
46
-0.500000
79
2
49
0.316228
49
-1.264911
53
198.434949
43
0.050000
44
0.350000
45
-0.500000
46
-0.500000
79
2
49
0.316228
49
-1.264911
53
341.565051
43
0.450000
44
0.350000
45
-0.500000
46
0.500000
79
2
49
0.316228
49
-1.264911
98
0
0
HATCH
5
D1
100
AcDbEntity
67
0
8
0
6
ByLayer
62
5
370
-1
100
AcDbHatch
10
0.000000
20
0.000000
30
0.000000
210
0.000000
220
0.000000
230
1.000000
2
ZIGZAG
70
0
71
0
91
2
92
2
72
1
73
1
93
10
10
56.291264
20
337.650667
42
0.000000
10
56.326929
20
337.549755
42
0.000000
10
56.433923
20
337.547019
42
0.000000
10
56.348971
20
337.481917
42
0.000000
10
56.379432
20
337.379314
42
0.000000
10
56.291264
20
337.439991
42
0.000000
10
56.203096
20
337.379314
42
0.000000
10
56.233558
20
337.481917
42
0.000000
10
56.148606
20
337.547019
42
0.000000
10
56.255600
20
337.549755
42
0.000000
97
0
92
2
72
1
73
1
93
2
10
58.920543
20
335.710985
42
0.871000
10
52.253674
20
337.615805
42
-0.214000
97
0
75
0
76
0
52
0.000000
41
1.000000
77
0
78
2
53
0.000000
43
0.000000
44
0.000000
45
0.125000
46
0.125000
79
2
49
0.125000
49
-0.125000
53
90.000000
43
0.125000
44
0.000000
45
-0.125000
46
0.125000
79
2
49
0.125000
49
-0.125000
98
0
0
HATCH
5
D2
100
AcDbEntity
67
0
8
0
6
ByLayer
62
5
370
-1
100
AcDbHatch
10
0.000000
20
0.000000
30
0.000000
210
0.000000
220
0.000000
230
1.000000
2
ZIGZAG
70
0
71
0
91
27
92
2
72
1
73
1
93
10
10
56.168369
20
336.645496
42
0.000000
10
56.192146
20
336.578221
42
0.000000
10
56.263475
20
336.576397
42
0.000000
10
56.206840
20
336.532996
42
0.000000
10
56.227148
20
336.464594
42
0.000000
10
56.168369
20
336.505045
42
0.000000
10
56.109591
20
336.464594
42
0.000000
10
56.129898
20
336.532996
42
0.000000
10
56.073264
20
336.576397
42
0.000000
10
56.144593
20
336.578221
42
0.000000
97
0
92
2
72
1
73
1
93
10
10
52.629965
20
337.006414
42
0.000000
10
52.665630
20
336.905502
42
0.000000
10
52.772624
20
336.902767
42
0.000000
10
52.687672
20
336.837664
42
0.000000
10
52.718133
20
336.735062
42
0.000000
10
52.629965
20
336.795738
42
0.000000
10
52.541798
20
336.735062
42
0.000000
10
52.572259
20
336.837664
42
0.000000
10
52.487307
20
336.902767
42
0.000000
10
52.594301
20
336.905502
42
0.000000
97
0
92
2
72
1
73
1
93
10
10
54.106885
20
336.341127
42
0.000000
10
54.136606
20
336.257034
42
0.000000
10
54.225768
20
336.254754
42
0.000000
10
54.154974
20
336.200502
42
0.000000
10
54.180359
20
336.115000
42
0.000000
10
54.106885
20
336.165563
42
0.000000
10
54.033412
20
336.115000
42
0.000000
10
54.058797
20
336.200502
42
0.000000
10
53.988003
20
336.254754
42
0.000000
10
54.077165
20
336.257034
42
0.000000
97
0
92
2
72
1
73
1
93
10
10
55.279753
20
335.980686
42
0.000000
10
55.309473
20
335.896593
42
0.000000
10
55.398635
20
335.894313
42
0.000000
10
55.327842
20
335.840061
42
0.000000
10
55.353226
20
335.754559
42
0.000000
10
55.279753
20
335.805122
42
0.000000
10
55.206280
20
335.754559
42
0.000000
10
55.231664
20
335.840061
42
0.000000
10
55.160871
20
335.894313
42
0.000000
10
55.250032
20
335.896593
42
0.000000
97
0
92
2
72
1
73
1
93
10
10
54.959648
20
335.667740
42
0.000000
10
54.983424
20
335.600466
42
0.000000
10
55.054753
20
335.598642
42
0.000000
10
54.998119
20
335.555240
42
0.000000
10
55.018426
20
335.486839
42
0.000000
10
54.959648
20
335.527289
42
0.000000
10
54.900869
20
335.486839
42
0.000000
10
54.921177
20
335.555240
42
0.000000
10
54.864542
20
335.598642
42
0.000000
10
54.935871
20
335.600466
42
0.000000
97
0
92
2
72
1
73
1
93
10
10
55.191466
20
335.388558
42
0.000000
10
55.208110
20
335.341465
42
0.000000
10
55.258040
20
335.340189
42
0.000000
10
55.218396
20
335.309808
42
0.000000
10
55.232611
20
335.261926
42
0.000000
10
55.191466
20
335.290242
42
0.000000
10
55.150321
20
335.261926
42
0.000000
10
55.164536
20
335.309808
42
0.000000
10
55.124892
20
335.340189
42
0.000000
10
55.174823
20
335.341465
42
0.000000
97
0
92
2
72
1
73
1
93
10
10
55.624238
20
335.653838
42
0.000000
10
55.653958
20
335.569745
42
0.000000
10
55.743120
20
335.567465
42
0.000000
10
55.672327
20
335.513213
42
0.000000
10
55.697711
20
335.427711
42
0.000000
10
55.624238
20
335.478275
42
0.000000
10
55.550765
20
335.427711
42
0.000000
10
55.576149
20
335.513213
42
0.000000
10
55.505356
20
335.567465
42
0.000000
10
55.594517
20
335.569745
42
0.000000
97
0
92
2
72
1
73
1
93
10
10
55.295984
20
335.005163
42
0.000000
10
55.331649
20
334.904251
42
0.000000
10
55.438642
20
334.901515
42
0.000000
10
55.353691
20
334.836413
42
0.000000
10
55.384152
20
334.733810
42
0.000000
10
55.295984
20
334.794487
42
0.000000
10
55.207816
20
334.733810
42
0.000000
10
55.238277
20
334.836413
42
0.000000
10
55.153326
20
334.901515
42
0.000000
10
55.260319
20
334.904251
42
0.000000
97
0
92
2
72
1
73
1
93
10
10
53.206216
20
335.846136
42
0.000000
10
53.222859
20
335.799043
42
0.000000
10
53.272790
20
335.797767
42
0.000000
10
53.233145
20
335.767386
42
0.000000
10
53.247361
20
335.719504
42
0.000000
10
53.206216
20
335.747820
42
0.000000
10
53.165071
20
335.719504
42
0.000000
10
53.179286
20
335.767386
42
0.000000
10
53.139642
20
335.797767
42
0.000000
10
53.189572
20
335.799043
42
0.000000
97
0
92
2
72
1
73
1
93
10
10
52.865364
20
335.722501
42
0.000000
10
52.901029
20
335.621589
42
0.000000
10
53.008023
20
335.618854
42
0.000000
10
52.923071
20
335.553751
42
0.000000
10
52.953532
20
335.451149
42
0.000000
10
52.865364
20
335.511825
42
0.000000
10
52.777196
20
335.451149
42
0.000000
10
52.807658
20
335.553751
42
0.000000
10
52.722706
20
335.618854
42
0.000000
10
52.829700
20
335.621589
42
0.000000
97
0
92
2
72
1
73
1
93
10
10
52.457696
20
335.319477
42
0.000000
10
52.487417
20
335.235384
42
0.000000
10
52.576578
20
335.233104
42
0.000000
10
52.505785
20
335.178852
42
0.000000
10
52.531169
20
335.093350
42
0.000000
10
52.457696
20
335.143914
42
0.000000
10
52.384223
20
335.093350
42
0.000000
10
52.409607
20
335.178852
42
0.000000
10
52.338814
20
335.233104
42
0.000000
10
52.427976
20
335.235384
42
0.000000
97
0
92
2
72
1
73
1
93
10
10
53.537385
20
335.391917
42
0.000000
10
53.567106
20
335.307823
42
0.000000
10
53.656267
20
335.305544
42
0.000000
10
53.585474
20
335.251292
42
0.000000
10
53.610858
20
335.165789
42
0.000000
10
53.537385
20
335.216353
42
0.000000
10
53.463912
20
335.165789
42
0.000000
10
53.489296
20
335.251292
42
0.000000
10
53.418503
20
335.305544
42
0.000000
10
53.507665
20
335.307823
42
0.000000
97
0
92
2
72
1
73
1
93
10
10
53.461281
20
334.971507
42
0.000000
10
53.485057
20
334.904233
42
0.000000
10
53.556386
20
334.902409
42
0.000000
10
53.499752
20
334.859007
42
0.000000
10
53.520059
20
334.790605
42
0.000000
10
53.461281
20
334.831056
42
0.000000
10
53.402502
20
334.790605
42
0.000000
10
53.422810
20
334.859007
42
0.000000
10
53.366175
20
334.902409
42
0.000000
10
53.437504
20
334.904233
42
0.000000
97
0
92
2
72
1
73
1
93
10
10
53.959914
20
334.663918
42
0.000000
10
53.995578
20
334.563006
42
0.000000
10
54.102572
20
334.560271
42
0.000000
10
54.017620
20
334.495168
42
0.000000
10
54.048082
20
334.392566
42
0.000000
10
53.959914
20
334.453242
42
0.000000
10
53.871746
20
334.392566
42
0.000000
10
53.902207
20
334.495168
42
0.000000
10
53.817255
20
334.560271
42
0.000000
10
53.924249
20
334.563006
42
0.000000
97
0
92
2
72
1
73
1
93
10
10
55.289405
20
333.803201
42
0.000000
10
55.301293
20
333.769563
42
0.000000
10
55.336957
20
333.768651
42
0.000000
10
55.308640
20
333.746951
42
0.000000
10
55.318794
20
333.712750
42
0.000000
10
55.289405
20
333.732975
42
0.000000
10
55.260015
20
333.712750
42
0.000000
10
55.270169
20
333.746951
42
0.000000
10
55.241852
20
333.768651
42
0.000000
10
55.277516
20
333.769563
42
0.000000
97
0
92
2
72
1
73
1
93
10
10
56.047071
20
334.586142
42
0.000000
10
56.070847
20
334.518868
42
0.000000
10
56.142176
20
334.517044
42
0.000000
10
56.085542
20
334.473642
42
0.000000
10
56.105849
20
334.405241
42
0.000000
10
56.047071
20
334.445692
42
0.000000
10
55.988292
20
334.405241
42
0.000000
10
56.008599
20
334.473642
42
0.000000
10
55.951965
20
334.517044
42
0.000000
10
56.023294
20
334.518868
42
0.000000
97
0
92
2
72
1
73
1
93
10
10
56.531227
20
334.549280
42
0.000000
10
56.555003
20
334.482006
42
0.000000
10
56.626332
20
334.480182
42
0.000000
10
56.569698
20
334.436780
42
0.000000
10
56.590005
20
334.368378
42
0.000000
10
56.531227
20
334.408829
42
0.000000
10
56.472448
20
334.368378
42
0.000000
10
56.492756
20
334.436780
42
0.000000
10
56.436121
20
334.480182
42
0.000000
10
56.507450
20
334.482006
42
0.000000
97
0
92
2
72
1
73
1
93
10
10
56.956995
20
334.622422
42
0.000000
10
56.980772
20
334.555147
42
0.000000
10
57.052101
20
334.553324
42
0.000000
10
56.995466
20
334.509922
42
0.000000
10
57.015774
20
334.441520
42
0.000000
10
56.956995
20
334.481971
42
0.000000
10
56.898217
20
334.441520
42
0.000000
10
56.918524
20
334.509922
42
0.000000
10
56.861890
20
334.553324
42
0.000000
10
56.933219
20
334.555147
42
0.000000
97
0
92
2
72
1
73
1
93
10
10
57.286623
20
334.542453
42
0.000000
10
57.310399
20
334.475178
42
0.000000
10
57.381728
20
334.473355
42
0.000000
10
57.325094
20
334.429953
42
0.000000
10
57.345401
20
334.361551
42
0.000000
10
57.286623
20
334.402002
42
0.000000
10
57.227844
20
334.361551
42
0.000000
10
57.248152
20
334.429953
42
0.000000
10
57.191517
20
334.473355
42
0.000000
10
57.262846
20
334.475178
42
0.000000
97
0
92
2
72
1
73
1
93
10
10
56.971017
20
333.890401
42
0.000000
10
56.994793
20
333.823126
42
0.000000
10
57.066122
20
333.821303
42
0.000000
10
57.009488
20
333.777901
42
0.000000
10
57.029795
20
333.709499
42
0.000000
10
56.971017
20
333.749950
42
0.000000
10
56.912238
20
333.709499
42
0.000000
10
56.932546
20
333.777901
42
0.000000
10
56.875911
20
333.821303
42
0.000000
10
56.947240
20
333.823126
42
0.000000
97
0
92
2
72
1
73
1
93
10
10
58.070646
20
335.249867
42
0.000000
10
58.094422
20
335.182592
42
0.000000
10
58.165752
20
335.180769
42
0.000000
10
58.109117
20
335.137367
42
0.000000
10
58.129425
20
335.068965
42
0.000000
10
58.070646
20
335.109416
42
0.000000
10
58.011868
20
335.068965
42
0.000000
10
58.032175
20
335.137367
42
0.000000
10
57.975540
20
335.180769
42
0.000000
10
58.046870
20
335.182592
42
0.000000
97
0
92
2
72
1
73
1
93
10
10
56.287836
20
334.234239
42
0.000000
10
56.317556
20
334.150146
42
0.000000
10
56.406718
20
334.147866
42
0.000000
10
56.335925
20
334.093614
42
0.000000
10
56.361309
20
334.008112
42
0.000000
10
56.287836
20
334.058676
42
0.000000
10
56.214363
20
334.008112
42
0.000000
10
56.239747
20
334.093614
42
0.000000
10
56.168954
20
334.147866
42
0.000000
10
56.258115
20
334.150146
42
0.000000
97
0
92
2
72
1
73
1
93
10
10
56.945854
20
334.263050
42
0.000000
10
56.975575
20
334.178957
42
0.000000
10
57.064736
20
334.176677
42
0.000000
10
56.993943
20
334.122425
42
0.000000
10
57.019327
20
334.036923
42
0.000000
10
56.945854
20
334.087486
42
0.000000
10
56.872381
20
334.036923
42
0.000000
10
56.897765
20
334.122425
42
0.000000
10
56.826972
20
334.176677
42
0.000000
10
56.916134
20
334.178957
42
0.000000
97
0
92
2
72
1
73
1
93
10
10
57.553864
20
334.737826
42
0.000000
10
57.583585
20
334.653732
42
0.000000
10
57.672746
20
334.651453
42
0.000000
10
57.601953
20
334.597201
42
0.000000
10
57.627337
20
334.511698
42
0.000000
10
57.553864
20
334.562262
42
0.000000
10
57.480391
20
334.511698
42
0.000000
10
57.505775
20
334.597201
42
0.000000
10
57.434982
20
334.651453
42
0.000000
10
57.524143
20
334.653732
42
0.000000
97
0
92
2
72
1
73
1
93
10
10
57.745824
20
334.944940
42
0.000000
10
57.775544
20
334.860847
42
0.000000
10
57.864706
20
334.858567
42
0.000000
10
57.793913
20
334.804315
42
0.000000
10
57.819297
20
334.718813
42
0.000000
10
57.745824
20
334.769376
42
0.000000
10
57.672351
20
334.718813
42
0.000000
10
57.697735
20
334.804315
42
0.000000
10
57.626942
20
334.858567
42
0.000000
10
57.716103
20
334.860847
42
0.000000
97
0
92
2
72
1
73
1
93
10
10
57.624132
20
335.366193
42
0.000000
10
57.659797
20
335.265281
42
0.000000
10
57.766791
20
335.262545
42
0.000000
10
57.681839
20
335.197443
42
0.000000
10
57.712300
20
335.094840
42
0.000000
10
57.624132
20
335.155516
42
0.000000
10
57.535965
20
335.094840
42
0.000000
10
57.566426
20
335.197443
42
0.000000
10
57.481474
20
335.262545
42
0.000000
10
57.588468
20
335.265281
42
0.000000
97
0
92
2
72
1
73
1
93
2
10
52.067127
20
337.079818
42
0.975500
10
58.795769
20
335.157349
42
0.230000
97
0
75
0
76
0
52
0.000000
41
1.000000
77
0
78
2
53
0.000000
43
0.000000
44
0.000000
45
0.125000
46
0.125000
79
2
49
0.125000
49
-0.125000
53
90.000000
43
0.125000
44
0.000000
45
-0.125000
46
0.125000
79
2
49
0.125000
49
-0.125000
98
0
0
MTEXT
5
D3
100
AcDbEntity
67
0
8
0
6
ByLayer
62
256
370
-1
100
AcDbMText
10
13.432813
20
352.690429
30
0.000000
40
0.300000
41
0.000000
71
7
72
1
1
ORDEM E PROGRESSO
7
texto
11
1.000000
21
0.000000
31
0.000000
0
CIRCLE
5
D4
100
AcDbEntity
67
0
8
0
6
ByLayer
62
256
370
-1
100
AcDbCircle
10
18.644100
20
363.821568
30
0.000000
40
3.500000
0
CIRCLE
5
D5
100
AcDbEntity
67
0
8
0
6
ByLayer
62
256
370
-1
100
AcDbCircle
10
16.644100
20
356.821568
30
0.000000
40
8.000000
0
CIRCLE
5
D6
100
AcDbEntity
67
0
8
0
6
ByLayer
62
256
370
-1
100
AcDbCircle
10
16.644100
20
356.821568
30
0.000000
40
8.500000
0
LINE
5
D7
100
AcDbEntity
67
0
8
0
6
ByLayer
62
256
370
-1
100
AcDbLine
10
18.644100
20
356.821568
30
0.000000
11
16.644100
21
356.821568
31
0.000000
0
LINE
5
D8
100
AcDbEntity
67
0
8
0
6
ByLayer
62
256
370
-1
100
AcDbLine
10
16.644100
20
356.821568
30
0.000000
11
15.296661
21
364.960788
31
0.000000
0
LINE
5
D9
100
AcDbEntity
67
0
8
0
6
ByLayer
62
256
370
-1
100
AcDbLine
10
16.644100
20
356.821568
30
0.000000
11
15.695869
21
365.016893
31
0.000000
0
LINE
5
DA
100
AcDbEntity
67
0
8
0
6
ByLayer
62
256
370
-1
100
AcDbLine
10
16.644100
20
356.821568
30
0.000000
11
16.097340
21
365.053430
31
0.000000
0
LINE
5
DB
100
AcDbEntity
67
0
8
0
6
ByLayer
62
256
370
-1
100
AcDbLine
10
16.644100
20
356.821568
30
0.000000
11
20.744135
21
363.980633
31
0.000000
0
LINE
5
DC
100
AcDbEntity
67
0
8
0
6
ByLayer
62
256
370
-1
100
AcDbLine
10
16.644100
20
356.821568
30
0.000000
11
21.745969
21
363.304887
31
0.000000
0
LINE
5
DD
100
AcDbEntity
67
0
8
0
6
ByLayer
62
256
370
-1
100
AcDbLine
10
16.644100
20
356.821568
30
0.000000
11
21.423170
21
363.546372
31
0.000000
0
LINE
5
DE
100
AcDbEntity
67
0
8
0
6
ByLayer
62
256
370
-1
100
AcDbLine
10
16.644100
20
356.821568
30
0.000000
11
21.088959
21
363.771800
31
0.000000
0
LINE
5
DF
100
AcDbEntity
67
0
8
0
6
ByLayer
62
256
370
-1
100
AcDbLine
10
16.644100
20
356.821568
30
0.000000
11
20.389522
21
364.172372
31
0.000000
0
LINE
5
E0
100
AcDbEntity
67
0
8
0
6
ByLayer
62
256
370
-1
100
AcDbLine
10
16.644100
20
356.821568
30
0.000000
11
20.025965
21
364.346559
31
0.000000
0
LINE
5
E1
100
AcDbEntity
67
0
8
0
6
ByLayer
62
256
370
-1
100
AcDbLine
10
16.644100
20
356.821568
30
0.000000
11
19.654334
21
364.502778
31
0.000000
0
LINE
5
E2
100
AcDbEntity
67
0
8
0
6
ByLayer
62
256
370
-1
100
AcDbLine
10
16.644100
20
356.821568
30
0.000000
11
19.275514
21
364.640657
31
0.000000
0
LINE
5
E3
100
AcDbEntity
67
0
8
0
6
ByLayer
62
256
370
-1
100
AcDbLine
10
16.644100
20
356.821568
30
0.000000
11
18.890412
21
364.759866
31
0.000000
0
LINE
5
E4
100
AcDbEntity
67
0
8
0
6
ByLayer
62
256
370
-1
100
AcDbLine
10
16.644100
20
356.821568
30
0.000000
11
18.499946
21
364.860121
31
0.000000
0
LINE
5
E5
100
AcDbEntity
67
0
8
0
6
ByLayer
62
256
370
-1
100
AcDbLine
10
16.644100
20
356.821568
30
0.000000
11
16.500118
21
365.070311
31
0.000000
0
LINE
5
E6
100
AcDbEntity
67
0
8
0
6
ByLayer
62
256
370
-1
100
AcDbLine
10
16.644100
20
356.821568
30
0.000000
11
18.105049
21
364.941182
31
0.000000
0
LINE
5
E7
100
AcDbEntity
67
0
8
0
6
ByLayer
62
256
370
-1
100
AcDbLine
10
16.644100
20
356.821568
30
0.000000
11
17.706664
21
365.002855
31
0.000000
0
LINE
5
E8
100
AcDbEntity
67
0
8
0
6
ByLayer
62
256
370
-1
100
AcDbLine
10
16.644100
20
356.821568
30
0.000000
11
17.305741
21
365.044994
31
0.000000
0
LINE
5
E9
100
AcDbEntity
67
0
8
0
6
ByLayer
62
256
370
-1
100
AcDbLine
10
16.644100
20
356.821568
30
0.000000
11
16.903239
21
365.067497
31
0.000000
0
MTEXT
5
EA
100
AcDbEntity
67
0
8
0
6
ByLayer
62
256
370
60
100
AcDbMText
10
15.695869
20
365.016893
30
0.000000
40
0.300000
41
0.000000
71
5
72
1
1
O
7
texto
11
0.993373
21
0.114937
31
0.000000
0
MTEXT
5
EB
100
AcDbEntity
67
0
8
0
6
ByLayer
62
256
370
60
100
AcDbMText
10
16.097340
20
365.053430
30
0.000000
40
0.300000
41
0.000000
71
5
72
1
1
R
7
texto
11
0.997801
21
0.066274
31
0.000000
0
MTEXT
5
EC
100
AcDbEntity
67
0
8
0
6
ByLayer
62
256
370
60
100
AcDbMText
10
16.491060
20
365.074481
30
0.000000
40
0.300000
41
0.000000
71
5
72
1
1
D
7
texto
11
0.999848
21
0.017452
31
0.000000
0
MTEXT
5
ED
100
AcDbEntity
67
0
8
0
6
ByLayer
62
256
370
60
100
AcDbMText
10
16.903239
20
365.067497
30
0.000000
40
0.300000
41
0.000000
71
5
72
1
1
E
7
texto
11
0.999507
21
-0.031411
31
0.000000
0
MTEXT
5
EE
100
AcDbEntity
67
0
8
0
6
ByLayer
62
256
370
60
100
AcDbMText
10
18.104464
20
364.931778
30
0.000000
40
0.300000
41
0.000000
71
5
72
1
1
E
7
texto
11
0.984196
21
-0.177085
31
0.000000
0
MTEXT
5
EF
100
AcDbEntity
67
0
8
0
6
ByLayer
62
256
370
60
100
AcDbMText
10
20.746823
20
363.965132
30
0.000000
40
0.300000
41
0.000000
71
5
72
1
1
E
7
texto
11
0.867765
21
-0.496974
31
0.000000
0
MTEXT
5
F0
100
AcDbEntity
67
0
8
0
6
ByLayer
62
256
370
60
100
AcDbMText
10
17.305741
20
365.044994
30
0.000000
40
0.300000
41
0.000000
71
5
72
1
1
M
7
texto
11
0.996779
21
-0.080199
31
0.000000
0
MTEXT
5
F1
100
AcDbEntity
67
0
8
0
6
ByLayer
62
256
370
60
100
AcDbMText
10
18.890412
20
364.759866
30
0.000000
40
0.300000
41
0.000000
71
5
72
1
1
P
7
texto
11
0.962218
21
-0.272280
31
0.000000
0
MTEXT
5
F2
100
AcDbEntity
67
0
8
0
6
ByLayer
62
256
370
60
100
AcDbMText
10
19.275514
20
364.640657
30
0.000000
40
0.300000
41
0.000000
71
5
72
1
1
R
7
texto
11
0.947768
21
-0.318959
31
0.000000
0
MTEXT
5
F3
100
AcDbEntity
67
0
8
0
6
ByLayer
62
256
370
60
100
AcDbMText
10
20.389522
20
364.172372
30
0.000000
40
0.300000
41
0.000000
71
5
72
1
1
R
7
texto
11
0.891007
21
-0.453990
31
0.000000
0
MTEXT
5
F4
100
AcDbEntity
67
0
8
0
6
ByLayer
62
256
370
60
100
AcDbMText
10
19.654334
20
364.502778
30
0.000000
40
0.300000
41
0.000000
71
5
72
1
1
O
7
texto
11
0.931056
21
-0.364877
31
0.000000
0
MTEXT
5
F5
100
AcDbEntity
67
0
8
0
6
ByLayer
62
256
370
60
100
AcDbMText
10
21.745969
20
363.304887
30
0.000000
40
0.300000
41
0.000000
71
5
72
1
1
O
7
texto
11
0.785857
21
-0.618408
31
0.000000
0
MTEXT
5
F6
100
AcDbEntity
67
0
8
0
6
ByLayer
62
256
370
60
100
AcDbMText
10
20.025965
20
364.346559
30
0.000000
40
0.300000
41
0.000000
71
5
72
1
1
G
7
texto
11
0.912120
21
-0.409923
31
0.000000
0
MTEXT
5
F7
100
AcDbEntity
67
0
8
0
6
ByLayer
62
256
370
60
100
AcDbMText
10
21.088959
20
363.771800
30
0.000000
40
0.300000
41
0.000000
71
5
72
1
1
S
7
texto
11
0.842452
21
-0.538771
31
0.000000
0
MTEXT
5
F8
100
AcDbEntity
67
0
8
0
6
ByLayer
62
256
370
60
100
AcDbMText
10
21.423170
20
363.546372
30
0.000000
40
0.300000
41
0.000000
71
5
72
1
1
S
7
texto
11
0.815128
21
-0.579281
31
0.000000
0
LINE
5
F9
100
AcDbEntity
67
0
8
0
6
ByLayer
62
256
370
-1
100
AcDbLine
10
16.644100
20
356.821568
30
0.000000
11
16.644100
21
365.071568
31
0.000000
0
MTEXT
5
FA
100
AcDbEntity
67
0
8
0
6
ByLayer
62
256
370
60
100
AcDbMText
10
52.506802
20
337.396457
30
0.000000
40
0.300000
41
0.000000
71
5
72
1
1
O
7
texto
11
0.993373
21
0.114937
31
0.000000
0
MTEXT
5
FB
100
AcDbEntity
67
0
8
0
6
ByLayer
62
256
370
60
100
AcDbMText
10
52.908273
20
337.432994
30
0.000000
40
0.300000
41
0.000000
71
5
72
1
1
R
7
texto
11
0.997801
21
0.066274
31
0.000000
0
MTEXT
5
FC
100
AcDbEntity
67
0
8
0
6
ByLayer
62
256
370
60
100
AcDbMText
10
53.301993
20
337.454045
30
0.000000
40
0.300000
41
0.000000
71
5
72
1
1
D
7
texto
11
0.999848
21
0.017452
31
0.000000
0
MTEXT
5
FD
100
AcDbEntity
67
0
8
0
6
ByLayer
62
256
370
60
100
AcDbMText
10
53.714172
20
337.447061
30
0.000000
40
0.300000
41
0.000000
71
5
72
1
1
E
7
texto
11
0.999507
21
-0.031411
31
0.000000
0
MTEXT
5
FE
100
AcDbEntity
67
0
8
0
6
ByLayer
62
256
370
60
100
AcDbMText
10
54.915397
20
337.311342
30
0.000000
40
0.300000
41
0.000000
71
5
72
1
1
E
7
texto
11
0.984196
21
-0.177085
31
0.000000
0
MTEXT
5
FF
100
AcDbEntity
67
0
8
0
6
ByLayer
62
256
370
60
100
AcDbMText
10
57.557756
20
336.344696
30
0.000000
40
0.300000
41
0.000000
71
5
72
1
1
E
7
texto
11
0.867765
21
-0.496974
31
0.000000
0
MTEXT
5
100
100
AcDbEntity
67
0
8
0
6
ByLayer
62
256
370
60
100
AcDbMText
10
54.116674
20
337.424558
30
0.000000
40
0.300000
41
0.000000
71
5
72
1
1
M
7
texto
11
0.996779
21
-0.080199
31
0.000000
0
MTEXT
5
101
100
AcDbEntity
67
0
8
0
6
ByLayer
62
256
370
60
100
AcDbMText
10
55.701345
20
337.139430
30
0.000000
40
0.300000
41
0.000000
71
5
72
1
1
P
7
texto
11
0.962218
21
-0.272280
31
0.000000
0
MTEXT
5
102
100
AcDbEntity
67
0
8
0
6
ByLayer
62
256
370
60
100
AcDbMText
10
56.086447
20
337.020221
30
0.000000
40
0.300000
41
0.000000
71
5
72
1
1
R
7
texto
11
0.947768
21
-0.318959
31
0.000000
0
MTEXT
5
103
100
AcDbEntity
67
0
8
0
6
ByLayer
62
256
370
60
100
AcDbMText
10
57.200455
20
336.551936
30
0.000000
40
0.300000
41
0.000000
71
5
72
1
1
R
7
texto
11
0.891007
21
-0.453990
31
0.000000
0
MTEXT
5
104
100
AcDbEntity
67
0
8
0
6
ByLayer
62
256
370
60
100
AcDbMText
10
56.465266
20
336.882342
30
0.000000
40
0.300000
41
0.000000
71
5
72
1
1
O
7
texto
11
0.931056
21
-0.364877
31
0.000000
0
MTEXT
5
105
100
AcDbEntity
67
0
8
0
6
ByLayer
62
256
370
60
100
AcDbMText
10
58.556902
20
335.684451
30
0.000000
40
0.300000
41
0.000000
71
5
72
1
1
O
7
texto
11
0.785857
21
-0.618408
31
0.000000
0
MTEXT
5
106
100
AcDbEntity
67
0
8
0
6
ByLayer
62
256
370
60
100
AcDbMText
10
56.836898
20
336.726123
30
0.000000
40
0.300000
41
0.000000
71
5
72
1
1
G
7
texto
11
0.912120
21
-0.409923
31
0.000000
0
MTEXT
5
107
100
AcDbEntity
67
0
8
0
6
ByLayer
62
256
370
60
100
AcDbMText
10
57.899892
20
336.151364
30
0.000000
40
0.300000
41
0.000000
71
5
72
1
1
S
7
texto
11
0.842452
21
-0.538771
31
0.000000
0
MTEXT
5
108
100
AcDbEntity
67
0
8
0
6
ByLayer
62
256
370
60
100
AcDbMText
10
58.234103
20
335.925936
30
0.000000
40
0.300000
41
0.000000
71
5
72
1
1
S
7
texto
11
0.815128
21
-0.579281
31
0.000000
0
ENDSEC
0
SECTION
2
OBJECTS
0
DICTIONARY
5
22
100
AcDbDictionary
281
1
3
ACAD_COLOR
350
23
3
ACAD_GROUP
350
26
3
ACAD_LAYOUT
350
27
3
ACAD_MATERIAL
350
28
3
ACAD_MLINESTYLE
350
29
3
ACAD_PLOTSETTINGS
350
2A
3
ACAD_PLOTSTYLENAME
350
2B
3
ACAD_TABLESTYLE
350
2C
3
AcadDim
350
2D
0
DICTIONARY
5
23
100
AcDbDictionary
0
DICTIONARY
5
26
100
AcDbDictionary
0
DICTIONARY
5
27
100
AcDbDictionary
0
DICTIONARY
5
28
100
AcDbDictionary
0
DICTIONARY
5
29
100
AcDbDictionary
0
DICTIONARY
5
2A
100
AcDbDictionary
0
DICTIONARY
5
2B
100
AcDbDictionary
0
DICTIONARY
5
2C
100
AcDbDictionary
0
DICTIONARY
5
2D
100
AcDbDictionary
0
ENDSEC
0
EOF
