999
CadZinho - Minimalist CAD by Zecruel
0
SECTION
2
HEADER
9
$ACADVER
1
AC1021
9
$HANDSEED
5
16C
9
$INSUNITS
70
4
9
$LWDISPLAY
290
1
9
$LTSCALE
40
10.000000
0
ENDSEC
0
SECTION
2
CLASSES
0
ENDSEC
0
SECTION
2
TABLES
0
TABLE
2
VPORT
5
1
100
AcDbSymbolTable
70
1000
0
VPORT
5
25
100
AcDbSymbolTableRecord
100
AcDbViewportTableRecord
2
*ACTIVE
70
0
10
0.000000
20
0.000000
11
1.000000
21
1.000000
12
200.000000
22
330.000000
13
0.000000
23
0.000000
14
100.000000
24
100.000000
15
100.000000
25
100.000000
16
0.000000
26
0.000000
36
1.000000
17
0.000000
27
0.000000
37
0.000000
40
220.000000
41
1.800000
42
50.000000
43
0.000000
44
0.000000
50
0.000000
51
0.000000
0
ENDTAB
0
TABLE
2
LTYPE
5
4
100
AcDbSymbolTable
70
1000
0
LTYPE
5
5
100
AcDbSymbolTableRecord
100
AcDbLinetypeTableRecord
2
ByBlock
70
0
3

72
65
73
0
40
0.000000
0
LTYPE
5
6
100
AcDbSymbolTableRecord
100
AcDbLinetypeTableRecord
2
ByLayer
70
0
3

72
65
73
0
40
0.000000
0
LTYPE
5
7
100
AcDbSymbolTableRecord
100
AcDbLinetypeTableRecord
2
Continuous
70
0
3
___________________________________
72
65
73
0
40
0.000000
0
LTYPE
5
8
100
AcDbSymbolTableRecord
100
AcDbLinetypeTableRecord
2
Border
70
0
3
____ . ____ ____ . ____ ____ . ____
72
65
73
6
40
1.750000
49
0.500000
74
0
49
-0.250000
74
0
49
0.500000
74
0
49
-0.250000
74
0
49
0.000000
74
0
49
-0.250000
74
0
0
LTYPE
5
9
100
AcDbSymbolTableRecord
100
AcDbLinetypeTableRecord
2
Center
70
0
3
____ _ ____ _ ____ _ ____ _ ____ _
72
65
73
4
40
2.000000
49
1.250000
74
0
49
-0.250000
74
0
49
0.250000
74
0
49
-0.250000
74
0
0
LTYPE
5
A
100
AcDbSymbolTableRecord
100
AcDbLinetypeTableRecord
2
Dashdot
70
0
3
____ . ____ . ____ . ____ . ____ .
72
65
73
4
40
1.000000
49
0.500000
74
0
49
-0.250000
74
0
49
0.000000
74
0
49
-0.250000
74
0
0
LTYPE
5
B
100
AcDbSymbolTableRecord
100
AcDbLinetypeTableRecord
2
Dashed
70
0
3
____ ____ ____ ____ ____ ____ ____
72
65
73
2
40
0.750000
49
0.500000
74
0
49
-0.250000
74
0
0
LTYPE
5
C
100
AcDbSymbolTableRecord
100
AcDbLinetypeTableRecord
2
Divide
70
0
3
____ . . ____ . . ____ . . ____ . .
72
65
73
6
40
1.250000
49
0.500000
74
0
49
-0.250000
74
0
49
0.000000
74
0
49
-0.250000
74
0
49
0.000000
74
0
49
-0.250000
74
0
0
LTYPE
5
D
100
AcDbSymbolTableRecord
100
AcDbLinetypeTableRecord
2
Dot
70
0
3
. . . . . . . . . . . . . . . . . .
72
65
73
2
40
0.250000
49
0.000000
74
0
49
-0.250000
74
0
0
LTYPE
5
E
100
AcDbSymbolTableRecord
100
AcDbLinetypeTableRecord
2
Hidden
70
0
3
__ __ __ __ __ __ __ __ __ __ __ __
72
65
73
2
40
0.375000
49
0.250000
74
0
49
-0.125000
74
0
0
LTYPE
5
F
100
AcDbSymbolTableRecord
100
AcDbLinetypeTableRecord
2
Phantom
70
0
3
_____ _ _ _____ _ _ _____ _ _ _____
72
65
73
6
40
2.500000
49
1.250000
74
0
49
-0.250000
74
0
49
0.250000
74
0
49
-0.250000
74
0
49
0.250000
74
0
49
-0.250000
74
0
0
ENDTAB
0
TABLE
2
LAYER
5
10
100
AcDbSymbolTable
70
1000
0
LAYER
5
11
100
AcDbSymbolTableRecord
100
AcDbLayerTableRecord
2
0
70
0
62
7
6
Continuous
370
0
390
2B
0
LAYER
5
168
100
AcDbSymbolTableRecord
100
AcDbLayerTableRecord
2
1
70
0
62
3
6
Continuous
370
0
390
2B
0
LAYER
5
169
100
AcDbSymbolTableRecord
100
AcDbLayerTableRecord
2
2
70
0
62
1
6
Continuous
370
0
390
2B
0
LAYER
5
16A
100
AcDbSymbolTableRecord
100
AcDbLayerTableRecord
2
3
70
0
62
2
6
Continuous
370
0
390
2B
0
LAYER
5
16B
100
AcDbSymbolTableRecord
100
AcDbLayerTableRecord
2
4
70
0
62
5
6
Continuous
370
0
390
2B
0
ENDTAB
0
TABLE
2
STYLE
5
12
100
AcDbSymbolTable
70
1000
0
STYLE
5
13
100
AcDbSymbolTableRecord
100
AcDbTextStyleTableRecord
2
Standard
70
0
40
0.000000
41
1.000000
50
0.000000
71
0
42
1.000000
3
TXT.SHX
4

0
STYLE
5
24
100
AcDbSymbolTableRecord
100
AcDbTextStyleTableRecord
2

70
1
40
0.000000
41
1.000000
50
0.000000
71
0
42
1.000000
3
LTYPESHP.SHX
4

0
ENDTAB
0
TABLE
2
VIEW
5
14
100
AcDbSymbolTable
70
0
0
ENDTAB
0
TABLE
2
UCS
5
15
100
AcDbSymbolTable
70
0
0
ENDTAB
0
TABLE
2
APPID
5
16
100
AcDbSymbolTable
70
10
0
APPID
5
17
100
AcDbSymbolTableRecord
100
AcDbRegAppTableRecord
2
ACAD
70
0
0
APPID
5
18
100
AcDbSymbolTableRecord
100
AcDbRegAppTableRecord
2
CADZINHO
70
0
0
ENDTAB
0
TABLE
2
DIMSTYLE
5
19
100
AcDbSymbolTable
70
1
100
AcDbDimStyleTable
71
1
0
DIMSTYLE
105
1A
100
AcDbSymbolTableRecord
100
AcDbDimStyleTableRecord
2
Standard
70
0
340
C
0
ENDTAB
0
TABLE
2
BLOCK_RECORD
5
1B
100
AcDbSymbolTable
70
9999
0
BLOCK_RECORD
5
1C
100
AcDbSymbolTableRecord
100
AcDbBlockTableRecord
2
*Model_Space
70
0
0
BLOCK_RECORD
5
1D
100
AcDbSymbolTableRecord
100
AcDbBlockTableRecord
2
*Paper_Space
70
0
0
BLOCK_RECORD
5
2E
100
AcDbSymbolTableRecord
100
AcDbBlockTableRecord
2
gear-12
70
0
0
BLOCK_RECORD
5
4C
100
AcDbSymbolTableRecord
100
AcDbBlockTableRecord
2
gear-56
70
0
0
BLOCK_RECORD
5
C2
100
AcDbSymbolTableRecord
100
AcDbBlockTableRecord
2
gear-30
70
0
0
BLOCK_RECORD
5
104
100
AcDbSymbolTableRecord
100
AcDbBlockTableRecord
2
gear-44
70
0
0
ENDTAB
0
ENDSEC
0
SECTION
2
BLOCKS
0
BLOCK
5
1E
100
AcDbEntity
8
0
100
AcDbBlockBegin
2
*Model_Space
70
0
10
0.000000
20
0.000000
30
0.000000
3
*Model_Space
1

0
ENDBLK
5
1F
100
AcDbEntity
8
0
100
AcDbBlockEnd
0
BLOCK
5
20
100
AcDbEntity
8
0
100
AcDbBlockBegin
2
*Paper_Space
70
0
10
0.000000
20
0.000000
30
0.000000
3
*Paper_Space
1

0
ENDBLK
5
21
100
AcDbEntity
8
0
100
AcDbBlockEnd
0
BLOCK
5
2F
330
2E
100
AcDbEntity
8
0
100
AcDbBlockBegin
2
gear-12
70
0
10
0.000000
20
0.000000
30
0.000000
3
gear-12
1

4

0
CIRCLE
5
30
100
AcDbEntity
67
0
8
0
6
Dot
62
0
370
-2
100
AcDbCircle
10
17.410014
20
17.410014
30
0.000000
40
15.000000
0
LWPOLYLINE
5
31
100
AcDbEntity
67
0
8
0
6
Continuous
62
0
370
-2
100
AcDbPolyline
90
2
70
0
10
17.410014
20
17.410014
30
0.000000
42
0.000000
10
34.724328
20
19.952554
30
0.000000
0
LWPOLYLINE
5
32
100
AcDbEntity
67
0
8
0
6
Continuous
62
0
370
-2
100
AcDbPolyline
90
30
70
0
10
31.505403
20
17.410014
30
0.000000
42
0.000000
10
31.523011
20
17.410601
30
0.000000
42
0.000000
10
31.575704
20
17.414708
30
0.000000
42
0.000000
10
31.663085
20
17.425836
30
0.000000
42
0.000000
10
31.784498
20
17.447451
30
0.000000
42
0.000000
10
31.939025
20
17.482970
30
0.000000
42
0.000000
10
32.125495
20
17.535734
30
0.000000
42
0.000000
10
32.342485
20
17.609004
30
0.000000
42
0.000000
10
32.588328
20
17.705932
30
0.000000
42
0.000000
10
32.861120
20
17.829554
30
0.000000
42
0.000000
10
33.158727
20
17.982770
30
0.000000
42
0.000000
10
33.478793
20
18.168328
30
0.000000
42
0.000000
10
33.818754
20
18.388813
30
0.000000
42
0.000000
10
34.175845
20
18.646630
30
0.000000
42
0.000000
10
34.820028
20
19.182418
30
0.000000
42
0.000000
10
34.594579
20
20.717690
30
0.000000
42
0.000000
10
33.823556
20
21.045661
30
0.000000
42
0.000000
10
33.407420
20
21.189932
30
0.000000
42
0.000000
10
33.018424
20
21.303373
30
0.000000
42
0.000000
10
32.658523
20
21.389081
30
0.000000
42
0.000000
10
32.329432
20
21.450268
30
0.000000
42
0.000000
10
32.032616
20
21.490246
30
0.000000
42
0.000000
10
31.769286
20
21.512404
30
0.000000
42
0.000000
10
31.540392
20
21.520197
30
0.000000
42
0.000000
10
31.346625
20
21.517125
30
0.000000
42
0.000000
10
31.188410
20
21.506718
30
0.000000
42
0.000000
10
31.065909
20
21.492516
30
0.000000
42
0.000000
10
30.979017
20
21.478053
30
0.000000
42
0.000000
10
30.927369
20
21.466838
30
0.000000
42
0.000000
10
30.910335
20
21.462338
30
0.000000
0
LWPOLYLINE
5
33
100
AcDbEntity
67
0
8
0
6
Continuous
62
0
370
-2
100
AcDbPolyline
90
2
70
0
10
30.910335
20
21.462338
30
0.000000
42
-1.300000
10
29.616979
20
24.457709
30
0.000000
0
LWPOLYLINE
5
34
100
AcDbEntity
67
0
8
0
6
Continuous
62
0
370
-2
100
AcDbPolyline
90
30
70
0
10
29.616979
20
24.457709
30
0.000000
42
0.000000
10
29.631935
20
24.467021
30
0.000000
42
0.000000
10
29.675515
20
24.496924
30
0.000000
42
0.000000
10
29.745625
20
24.550252
30
0.000000
42
0.000000
10
29.839964
20
24.629678
30
0.000000
42
0.000000
10
29.956029
20
24.737701
30
0.000000
42
0.000000
10
30.091134
20
24.876632
30
0.000000
42
0.000000
10
30.242419
20
25.048580
30
0.000000
42
0.000000
10
30.406861
20
25.255444
30
0.000000
42
0.000000
10
30.581294
20
25.498899
30
0.000000
42
0.000000
10
30.762421
20
25.780391
30
0.000000
42
0.000000
10
30.946828
20
26.101123
30
0.000000
42
0.000000
10
31.131000
20
26.462049
30
0.000000
42
0.000000
10
31.311341
20
26.863870
30
0.000000
42
0.000000
10
31.601326
20
27.649968
30
0.000000
42
0.000000
10
30.638446
20
28.866828
30
0.000000
42
0.000000
10
29.806735
20
28.765348
30
0.000000
42
0.000000
10
29.374215
20
28.682223
30
0.000000
42
0.000000
10
28.980614
20
28.585967
30
0.000000
42
0.000000
10
28.626077
20
28.480241
30
0.000000
42
0.000000
10
28.310482
20
28.368686
30
0.000000
42
0.000000
10
28.033443
20
28.254900
30
0.000000
42
0.000000
10
27.794313
20
28.142424
30
0.000000
42
0.000000
10
27.592189
20
28.034726
30
0.000000
42
0.000000
10
27.425918
20
27.935182
30
0.000000
42
0.000000
10
27.294103
20
27.847062
30
0.000000
42
0.000000
10
27.195115
20
27.773512
30
0.000000
42
0.000000
10
27.127096
20
27.717541
30
0.000000
42
0.000000
10
27.087975
20
27.682004
30
0.000000
42
0.000000
10
27.075473
20
27.669590
30
0.000000
0
LWPOLYLINE
5
35
100
AcDbEntity
67
0
8
0
6
Continuous
62
0
370
-2
100
AcDbPolyline
90
2
70
0
10
27.075473
20
27.669590
30
0.000000
42
-1.300000
10
24.457709
20
29.616979
30
0.000000
0
LWPOLYLINE
5
36
100
AcDbEntity
67
0
8
0
6
Continuous
62
0
370
-2
100
AcDbPolyline
90
30
70
0
10
24.457709
20
29.616979
30
0.000000
42
0.000000
10
24.466004
20
29.632522
30
0.000000
42
0.000000
10
24.488794
20
29.680208
30
0.000000
42
0.000000
10
24.522848
20
29.761447
30
0.000000
42
0.000000
10
24.564834
20
29.877401
30
0.000000
42
0.000000
10
24.611338
20
30.028985
30
0.000000
42
0.000000
10
24.658878
20
30.216855
30
0.000000
42
0.000000
10
24.703919
20
30.441408
30
0.000000
42
0.000000
10
24.742899
20
30.702779
30
0.000000
42
0.000000
10
24.772235
20
31.000834
30
0.000000
42
0.000000
10
24.788349
20
31.335177
30
0.000000
42
0.000000
10
24.787684
20
31.705142
30
0.000000
42
0.000000
10
24.766719
20
32.109799
30
0.000000
42
0.000000
10
24.721989
20
32.547957
30
0.000000
42
0.000000
10
24.580074
20
33.373730
30
0.000000
42
0.000000
10
23.137765
20
33.946122
30
0.000000
42
0.000000
10
22.468222
20
33.442382
30
0.000000
42
0.000000
10
22.135212
20
33.154134
30
0.000000
42
0.000000
10
21.842471
20
32.873973
30
0.000000
42
0.000000
10
21.588295
20
32.605143
30
0.000000
42
0.000000
10
21.370760
20
32.350736
30
0.000000
42
0.000000
10
21.187731
20
32.113675
30
0.000000
42
0.000000
10
21.036876
20
31.896703
30
0.000000
42
0.000000
10
20.915680
20
31.702372
30
0.000000
42
0.000000
10
20.821457
20
31.533029
30
0.000000
42
0.000000
10
20.751362
20
31.390808
30
0.000000
42
0.000000
10
20.702410
20
31.277617
30
0.000000
42
0.000000
10
20.671490
20
31.195135
30
0.000000
42
0.000000
10
20.655379
20
31.144798
30
0.000000
42
0.000000
10
20.650759
20
31.127797
30
0.000000
0
LWPOLYLINE
5
37
100
AcDbEntity
67
0
8
0
6
Continuous
62
0
370
-2
100
AcDbPolyline
90
2
70
0
10
20.650759
20
31.127797
30
0.000000
42
-1.300000
10
17.410014
20
31.505403
30
0.000000
0
LWPOLYLINE
5
38
100
AcDbEntity
67
0
8
0
6
Continuous
62
0
370
-2
100
AcDbPolyline
90
30
70
0
10
17.410014
20
31.505403
30
0.000000
42
0.000000
10
17.409427
20
31.523011
30
0.000000
42
0.000000
10
17.405320
20
31.575704
30
0.000000
42
0.000000
10
17.394192
20
31.663085
30
0.000000
42
0.000000
10
17.372576
20
31.784498
30
0.000000
42
0.000000
10
17.337058
20
31.939025
30
0.000000
42
0.000000
10
17.284293
20
32.125495
30
0.000000
42
0.000000
10
17.211024
20
32.342485
30
0.000000
42
0.000000
10
17.114096
20
32.588328
30
0.000000
42
0.000000
10
16.990474
20
32.861120
30
0.000000
42
0.000000
10
16.837258
20
33.158727
30
0.000000
42
0.000000
10
16.651700
20
33.478793
30
0.000000
42
0.000000
10
16.431214
20
33.818754
30
0.000000
42
0.000000
10
16.173398
20
34.175845
30
0.000000
42
0.000000
10
15.637610
20
34.820028
30
0.000000
42
0.000000
10
14.102337
20
34.594579
30
0.000000
42
0.000000
10
13.774367
20
33.823556
30
0.000000
42
0.000000
10
13.630095
20
33.407420
30
0.000000
42
0.000000
10
13.516655
20
33.018424
30
0.000000
42
0.000000
10
13.430947
20
32.658523
30
0.000000
42
0.000000
10
13.369759
20
32.329432
30
0.000000
42
0.000000
10
13.329782
20
32.032616
30
0.000000
42
0.000000
10
13.307624
20
31.769286
30
0.000000
42
0.000000
10
13.299831
20
31.540392
30
0.000000
42
0.000000
10
13.302902
20
31.346625
30
0.000000
42
0.000000
10
13.313309
20
31.188410
30
0.000000
42
0.000000
10
13.327511
20
31.065909
30
0.000000
42
0.000000
10
13.341975
20
30.979017
30
0.000000
42
0.000000
10
13.353190
20
30.927369
30
0.000000
42
0.000000
10
13.357690
20
30.910335
30
0.000000
0
LWPOLYLINE
5
39
100
AcDbEntity
67
0
8
0
6
Continuous
62
0
370
-2
100
AcDbPolyline
90
2
70
0
10
13.357690
20
30.910335
30
0.000000
42
-1.300000
10
10.362319
20
29.616979
30
0.000000
0
LWPOLYLINE
5
3A
100
AcDbEntity
67
0
8
0
6
Continuous
62
0
370
-2
100
AcDbPolyline
90
30
70
0
10
10.362319
20
29.616979
30
0.000000
42
0.000000
10
10.353007
20
29.631935
30
0.000000
42
0.000000
10
10.323104
20
29.675515
30
0.000000
42
0.000000
10
10.269776
20
29.745625
30
0.000000
42
0.000000
10
10.190350
20
29.839964
30
0.000000
42
0.000000
10
10.082327
20
29.956029
30
0.000000
42
0.000000
10
9.943396
20
30.091134
30
0.000000
42
0.000000
10
9.771448
20
30.242419
30
0.000000
42
0.000000
10
9.564584
20
30.406861
30
0.000000
42
0.000000
10
9.321128
20
30.581294
30
0.000000
42
0.000000
10
9.039637
20
30.762421
30
0.000000
42
0.000000
10
8.718905
20
30.946828
30
0.000000
42
0.000000
10
8.357979
20
31.131000
30
0.000000
42
0.000000
10
7.956158
20
31.311341
30
0.000000
42
0.000000
10
7.170060
20
31.601326
30
0.000000
42
0.000000
10
5.953200
20
30.638446
30
0.000000
42
0.000000
10
6.054680
20
29.806735
30
0.000000
42
0.000000
10
6.137805
20
29.374215
30
0.000000
42
0.000000
10
6.234061
20
28.980614
30
0.000000
42
0.000000
10
6.339786
20
28.626077
30
0.000000
42
0.000000
10
6.451342
20
28.310482
30
0.000000
42
0.000000
10
6.565128
20
28.033443
30
0.000000
42
0.000000
10
6.677604
20
27.794313
30
0.000000
42
0.000000
10
6.785302
20
27.592189
30
0.000000
42
0.000000
10
6.884845
20
27.425918
30
0.000000
42
0.000000
10
6.972965
20
27.294103
30
0.000000
42
0.000000
10
7.046515
20
27.195115
30
0.000000
42
0.000000
10
7.102487
20
27.127096
30
0.000000
42
0.000000
10
7.138024
20
27.087975
30
0.000000
42
0.000000
10
7.150438
20
27.075473
30
0.000000
0
LWPOLYLINE
5
3B
100
AcDbEntity
67
0
8
0
6
Continuous
62
0
370
-2
100
AcDbPolyline
90
2
70
0
10
7.150438
20
27.075473
30
0.000000
42
-1.300000
10
5.203049
20
24.457709
30
0.000000
0
LWPOLYLINE
5
3C
100
AcDbEntity
67
0
8
0
6
Continuous
62
0
370
-2
100
AcDbPolyline
90
30
70
0
10
5.203049
20
24.457709
30
0.000000
42
0.000000
10
5.187506
20
24.466004
30
0.000000
42
0.000000
10
5.139819
20
24.488794
30
0.000000
42
0.000000
10
5.058581
20
24.522848
30
0.000000
42
0.000000
10
4.942627
20
24.564834
30
0.000000
42
0.000000
10
4.791043
20
24.611338
30
0.000000
42
0.000000
10
4.603173
20
24.658878
30
0.000000
42
0.000000
10
4.378619
20
24.703919
30
0.000000
42
0.000000
10
4.117249
20
24.742899
30
0.000000
42
0.000000
10
3.819193
20
24.772235
30
0.000000
42
0.000000
10
3.484851
20
24.788349
30
0.000000
42
0.000000
10
3.114886
20
24.787684
30
0.000000
42
0.000000
10
2.710228
20
24.766719
30
0.000000
42
0.000000
10
2.272071
20
24.721989
30
0.000000
42
0.000000
10
1.446297
20
24.580074
30
0.000000
42
0.000000
10
0.873906
20
23.137765
30
0.000000
42
0.000000
10
1.377646
20
22.468222
30
0.000000
42
0.000000
10
1.665894
20
22.135212
30
0.000000
42
0.000000
10
1.946055
20
21.842471
30
0.000000
42
0.000000
10
2.214884
20
21.588295
30
0.000000
42
0.000000
10
2.469291
20
21.370760
30
0.000000
42
0.000000
10
2.706353
20
21.187731
30
0.000000
42
0.000000
10
2.923324
20
21.036876
30
0.000000
42
0.000000
10
3.117656
20
20.915680
30
0.000000
42
0.000000
10
3.286999
20
20.821457
30
0.000000
42
0.000000
10
3.429220
20
20.751362
30
0.000000
42
0.000000
10
3.542410
20
20.702410
30
0.000000
42
0.000000
10
3.624893
20
20.671490
30
0.000000
42
0.000000
10
3.675229
20
20.655379
30
0.000000
42
0.000000
10
3.692231
20
20.650759
30
0.000000
0
LWPOLYLINE
5
3D
100
AcDbEntity
67
0
8
0
6
Continuous
62
0
370
-2
100
AcDbPolyline
90
2
70
0
10
3.692231
20
20.650759
30
0.000000
42
-1.300000
10
3.314625
20
17.410014
30
0.000000
0
LWPOLYLINE
5
3E
100
AcDbEntity
67
0
8
0
6
Continuous
62
0
370
-2
100
AcDbPolyline
90
30
70
0
10
3.314625
20
17.410014
30
0.000000
42
0.000000
10
3.297016
20
17.409427
30
0.000000
42
0.000000
10
3.244324
20
17.405320
30
0.000000
42
0.000000
10
3.156942
20
17.394192
30
0.000000
42
0.000000
10
3.035530
20
17.372576
30
0.000000
42
0.000000
10
2.881002
20
17.337058
30
0.000000
42
0.000000
10
2.694532
20
17.284293
30
0.000000
42
0.000000
10
2.477542
20
17.211024
30
0.000000
42
0.000000
10
2.231699
20
17.114096
30
0.000000
42
0.000000
10
1.958908
20
16.990474
30
0.000000
42
0.000000
10
1.661301
20
16.837258
30
0.000000
42
0.000000
10
1.341235
20
16.651700
30
0.000000
42
0.000000
10
1.001274
20
16.431214
30
0.000000
42
0.000000
10
0.644183
20
16.173398
30
0.000000
42
0.000000
10
0.000000
20
15.637610
30
0.000000
42
0.000000
10
0.225449
20
14.102337
30
0.000000
42
0.000000
10
0.996472
20
13.774367
30
0.000000
42
0.000000
10
1.412607
20
13.630095
30
0.000000
42
0.000000
10
1.801604
20
13.516655
30
0.000000
42
0.000000
10
2.161505
20
13.430947
30
0.000000
42
0.000000
10
2.490596
20
13.369759
30
0.000000
42
0.000000
10
2.787411
20
13.329782
30
0.000000
42
0.000000
10
3.050742
20
13.307624
30
0.000000
42
0.000000
10
3.279635
20
13.299831
30
0.000000
42
0.000000
10
3.473403
20
13.302902
30
0.000000
42
0.000000
10
3.631617
20
13.313309
30
0.000000
42
0.000000
10
3.754119
20
13.327511
30
0.000000
42
0.000000
10
3.841010
20
13.341975
30
0.000000
42
0.000000
10
3.892659
20
13.353190
30
0.000000
42
0.000000
10
3.909693
20
13.357690
30
0.000000
0
LWPOLYLINE
5
3F
100
AcDbEntity
67
0
8
0
6
Continuous
62
0
370
-2
100
AcDbPolyline
90
2
70
0
10
3.909693
20
13.357690
30
0.000000
42
-1.300000
10
5.203049
20
10.362319
30
0.000000
0
LWPOLYLINE
5
40
100
AcDbEntity
67
0
8
0
6
Continuous
62
0
370
-2
100
AcDbPolyline
90
30
70
0
10
5.203049
20
10.362319
30
0.000000
42
0.000000
10
5.188093
20
10.353007
30
0.000000
42
0.000000
10
5.144513
20
10.323104
30
0.000000
42
0.000000
10
5.074403
20
10.269776
30
0.000000
42
0.000000
10
4.980064
20
10.190350
30
0.000000
42
0.000000
10
4.863999
20
10.082327
30
0.000000
42
0.000000
10
4.728893
20
9.943396
30
0.000000
42
0.000000
10
4.577609
20
9.771448
30
0.000000
42
0.000000
10
4.413167
20
9.564584
30
0.000000
42
0.000000
10
4.238733
20
9.321128
30
0.000000
42
0.000000
10
4.057606
20
9.039637
30
0.000000
42
0.000000
10
3.873200
20
8.718905
30
0.000000
42
0.000000
10
3.689028
20
8.357979
30
0.000000
42
0.000000
10
3.508686
20
7.956158
30
0.000000
42
0.000000
10
3.218702
20
7.170060
30
0.000000
42
0.000000
10
4.181582
20
5.953200
30
0.000000
42
0.000000
10
5.013293
20
6.054680
30
0.000000
42
0.000000
10
5.445813
20
6.137805
30
0.000000
42
0.000000
10
5.839414
20
6.234061
30
0.000000
42
0.000000
10
6.193951
20
6.339786
30
0.000000
42
0.000000
10
6.509546
20
6.451342
30
0.000000
42
0.000000
10
6.786585
20
6.565128
30
0.000000
42
0.000000
10
7.025714
20
6.677604
30
0.000000
42
0.000000
10
7.227839
20
6.785302
30
0.000000
42
0.000000
10
7.394110
20
6.884845
30
0.000000
42
0.000000
10
7.525925
20
6.972965
30
0.000000
42
0.000000
10
7.624913
20
7.046515
30
0.000000
42
0.000000
10
7.692932
20
7.102487
30
0.000000
42
0.000000
10
7.732053
20
7.138024
30
0.000000
42
0.000000
10
7.744555
20
7.150438
30
0.000000
0
LWPOLYLINE
5
41
100
AcDbEntity
67
0
8
0
6
Continuous
62
0
370
-2
100
AcDbPolyline
90
2
70
0
10
7.744555
20
7.150438
30
0.000000
42
-1.300000
10
10.362319
20
5.203049
30
0.000000
0
LWPOLYLINE
5
42
100
AcDbEntity
67
0
8
0
6
Continuous
62
0
370
-2
100
AcDbPolyline
90
30
70
0
10
10.362319
20
5.203049
30
0.000000
42
0.000000
10
10.354024
20
5.187506
30
0.000000
42
0.000000
10
10.331234
20
5.139819
30
0.000000
42
0.000000
10
10.297180
20
5.058581
30
0.000000
42
0.000000
10
10.255194
20
4.942627
30
0.000000
42
0.000000
10
10.208690
20
4.791043
30
0.000000
42
0.000000
10
10.161150
20
4.603173
30
0.000000
42
0.000000
10
10.116108
20
4.378619
30
0.000000
42
0.000000
10
10.077129
20
4.117249
30
0.000000
42
0.000000
10
10.047793
20
3.819193
30
0.000000
42
0.000000
10
10.031679
20
3.484851
30
0.000000
42
0.000000
10
10.032344
20
3.114886
30
0.000000
42
0.000000
10
10.053309
20
2.710228
30
0.000000
42
0.000000
10
10.098039
20
2.272071
30
0.000000
42
0.000000
10
10.239954
20
1.446297
30
0.000000
42
0.000000
10
11.682263
20
0.873906
30
0.000000
42
0.000000
10
12.351806
20
1.377646
30
0.000000
42
0.000000
10
12.684816
20
1.665894
30
0.000000
42
0.000000
10
12.977557
20
1.946055
30
0.000000
42
0.000000
10
13.231732
20
2.214884
30
0.000000
42
0.000000
10
13.449268
20
2.469291
30
0.000000
42
0.000000
10
13.632297
20
2.706353
30
0.000000
42
0.000000
10
13.783152
20
2.923324
30
0.000000
42
0.000000
10
13.904348
20
3.117656
30
0.000000
42
0.000000
10
13.998571
20
3.286999
30
0.000000
42
0.000000
10
14.068666
20
3.429220
30
0.000000
42
0.000000
10
14.117617
20
3.542410
30
0.000000
42
0.000000
10
14.148537
20
3.624893
30
0.000000
42
0.000000
10
14.164649
20
3.675229
30
0.000000
42
0.000000
10
14.169269
20
3.692231
30
0.000000
0
LWPOLYLINE
5
43
100
AcDbEntity
67
0
8
0
6
Continuous
62
0
370
-2
100
AcDbPolyline
90
2
70
0
10
14.169269
20
3.692231
30
0.000000
42
-1.300000
10
17.410014
20
3.314625
30
0.000000
0
LWPOLYLINE
5
44
100
AcDbEntity
67
0
8
0
6
Continuous
62
0
370
-2
100
AcDbPolyline
90
30
70
0
10
17.410014
20
3.314625
30
0.000000
42
0.000000
10
17.410601
20
3.297016
30
0.000000
42
0.000000
10
17.414708
20
3.244324
30
0.000000
42
0.000000
10
17.425836
20
3.156942
30
0.000000
42
0.000000
10
17.447451
20
3.035530
30
0.000000
42
0.000000
10
17.482970
20
2.881002
30
0.000000
42
0.000000
10
17.535734
20
2.694532
30
0.000000
42
0.000000
10
17.609004
20
2.477542
30
0.000000
42
0.000000
10
17.705932
20
2.231699
30
0.000000
42
0.000000
10
17.829554
20
1.958908
30
0.000000
42
0.000000
10
17.982770
20
1.661301
30
0.000000
42
0.000000
10
18.168328
20
1.341235
30
0.000000
42
0.000000
10
18.388813
20
1.001274
30
0.000000
42
0.000000
10
18.646630
20
0.644183
30
0.000000
42
0.000000
10
19.182418
20
0.000000
30
0.000000
42
0.000000
10
20.717690
20
0.225449
30
0.000000
42
0.000000
10
21.045661
20
0.996472
30
0.000000
42
0.000000
10
21.189932
20
1.412607
30
0.000000
42
0.000000
10
21.303373
20
1.801604
30
0.000000
42
0.000000
10
21.389081
20
2.161505
30
0.000000
42
0.000000
10
21.450268
20
2.490596
30
0.000000
42
0.000000
10
21.490246
20
2.787411
30
0.000000
42
0.000000
10
21.512404
20
3.050742
30
0.000000
42
0.000000
10
21.520197
20
3.279635
30
0.000000
42
0.000000
10
21.517125
20
3.473403
30
0.000000
42
0.000000
10
21.506718
20
3.631617
30
0.000000
42
0.000000
10
21.492516
20
3.754119
30
0.000000
42
0.000000
10
21.478053
20
3.841010
30
0.000000
42
0.000000
10
21.466838
20
3.892659
30
0.000000
42
0.000000
10
21.462338
20
3.909693
30
0.000000
0
LWPOLYLINE
5
45
100
AcDbEntity
67
0
8
0
6
Continuous
62
0
370
-2
100
AcDbPolyline
90
2
70
0
10
21.462338
20
3.909693
30
0.000000
42
-1.300000
10
24.457709
20
5.203049
30
0.000000
0
LWPOLYLINE
5
46
100
AcDbEntity
67
0
8
0
6
Continuous
62
0
370
-2
100
AcDbPolyline
90
30
70
0
10
24.457709
20
5.203049
30
0.000000
42
0.000000
10
24.467021
20
5.188093
30
0.000000
42
0.000000
10
24.496924
20
5.144513
30
0.000000
42
0.000000
10
24.550252
20
5.074403
30
0.000000
42
0.000000
10
24.629678
20
4.980064
30
0.000000
42
0.000000
10
24.737701
20
4.863999
30
0.000000
42
0.000000
10
24.876632
20
4.728893
30
0.000000
42
0.000000
10
25.048580
20
4.577609
30
0.000000
42
0.000000
10
25.255444
20
4.413167
30
0.000000
42
0.000000
10
25.498899
20
4.238733
30
0.000000
42
0.000000
10
25.780391
20
4.057606
30
0.000000
42
0.000000
10
26.101123
20
3.873200
30
0.000000
42
0.000000
10
26.462049
20
3.689028
30
0.000000
42
0.000000
10
26.863870
20
3.508686
30
0.000000
42
0.000000
10
27.649968
20
3.218702
30
0.000000
42
0.000000
10
28.866828
20
4.181582
30
0.000000
42
0.000000
10
28.765348
20
5.013293
30
0.000000
42
0.000000
10
28.682223
20
5.445813
30
0.000000
42
0.000000
10
28.585967
20
5.839414
30
0.000000
42
0.000000
10
28.480241
20
6.193951
30
0.000000
42
0.000000
10
28.368686
20
6.509546
30
0.000000
42
0.000000
10
28.254900
20
6.786585
30
0.000000
42
0.000000
10
28.142424
20
7.025714
30
0.000000
42
0.000000
10
28.034726
20
7.227839
30
0.000000
42
0.000000
10
27.935182
20
7.394110
30
0.000000
42
0.000000
10
27.847062
20
7.525925
30
0.000000
42
0.000000
10
27.773512
20
7.624913
30
0.000000
42
0.000000
10
27.717541
20
7.692932
30
0.000000
42
0.000000
10
27.682004
20
7.732053
30
0.000000
42
0.000000
10
27.669590
20
7.744555
30
0.000000
0
LWPOLYLINE
5
47
100
AcDbEntity
67
0
8
0
6
Continuous
62
0
370
-2
100
AcDbPolyline
90
2
70
0
10
27.669590
20
7.744555
30
0.000000
42
-1.300000
10
29.616979
20
10.362319
30
0.000000
0
LWPOLYLINE
5
48
100
AcDbEntity
67
0
8
0
6
Continuous
62
0
370
-2
100
AcDbPolyline
90
30
70
0
10
29.616979
20
10.362319
30
0.000000
42
0.000000
10
29.632522
20
10.354024
30
0.000000
42
0.000000
10
29.680208
20
10.331234
30
0.000000
42
0.000000
10
29.761447
20
10.297180
30
0.000000
42
0.000000
10
29.877401
20
10.255194
30
0.000000
42
0.000000
10
30.028985
20
10.208690
30
0.000000
42
0.000000
10
30.216855
20
10.161150
30
0.000000
42
0.000000
10
30.441408
20
10.116108
30
0.000000
42
0.000000
10
30.702779
20
10.077129
30
0.000000
42
0.000000
10
31.000834
20
10.047793
30
0.000000
42
0.000000
10
31.335177
20
10.031679
30
0.000000
42
0.000000
10
31.705142
20
10.032344
30
0.000000
42
0.000000
10
32.109799
20
10.053309
30
0.000000
42
0.000000
10
32.547957
20
10.098039
30
0.000000
42
0.000000
10
33.373730
20
10.239954
30
0.000000
42
0.000000
10
33.946122
20
11.682263
30
0.000000
42
0.000000
10
33.442382
20
12.351806
30
0.000000
42
0.000000
10
33.154134
20
12.684816
30
0.000000
42
0.000000
10
32.873973
20
12.977557
30
0.000000
42
0.000000
10
32.605143
20
13.231732
30
0.000000
42
0.000000
10
32.350736
20
13.449268
30
0.000000
42
0.000000
10
32.113675
20
13.632297
30
0.000000
42
0.000000
10
31.896703
20
13.783152
30
0.000000
42
0.000000
10
31.702372
20
13.904348
30
0.000000
42
0.000000
10
31.533029
20
13.998571
30
0.000000
42
0.000000
10
31.390808
20
14.068666
30
0.000000
42
0.000000
10
31.277617
20
14.117617
30
0.000000
42
0.000000
10
31.195135
20
14.148537
30
0.000000
42
0.000000
10
31.144798
20
14.164649
30
0.000000
42
0.000000
10
31.127797
20
14.169269
30
0.000000
0
LWPOLYLINE
5
49
100
AcDbEntity
67
0
8
0
6
Continuous
62
0
370
-2
100
AcDbPolyline
90
2
70
0
10
31.127797
20
14.169269
30
0.000000
42
-1.300000
10
31.505403
20
17.410014
30
0.000000
0
ENDBLK
5
4A
330
2F
100
AcDbEntity
8
0
100
AcDbBlockEnd
0
BLOCK
5
4D
330
4C
100
AcDbEntity
8
0
100
AcDbBlockBegin
2
gear-56
70
0
10
0.000000
20
0.000000
30
0.000000
3
gear-56
1

4

0
CIRCLE
5
4E
100
AcDbEntity
67
0
8
0
6
Dot
62
0
370
-2
100
AcDbCircle
10
72.468515
20
72.468515
30
0.000000
40
70.000000
0
LWPOLYLINE
5
4F
100
AcDbEntity
67
0
8
0
6
Continuous
62
0
370
-2
100
AcDbPolyline
90
2
70
0
10
72.468515
20
72.468515
30
0.000000
42
0.000000
10
144.901642
20
75.581746
30
0.000000
0
LWPOLYLINE
5
50
100
AcDbEntity
67
0
8
0
6
Continuous
62
0
370
-2
100
AcDbPolyline
90
12
70
0
10
139.551620
20
72.643666
30
0.000000
42
0.000000
10
140.273261
20
72.809663
30
0.000000
42
0.000000
10
141.143946
20
73.056196
30
0.000000
42
0.000000
10
142.157035
20
73.398467
30
0.000000
42
0.000000
10
143.304743
20
73.851196
30
0.000000
42
0.000000
10
144.937031
20
74.604932
30
0.000000
42
0.000000
10
144.853087
20
76.557994
30
0.000000
42
0.000000
10
143.162146
20
77.168895
30
0.000000
42
0.000000
10
141.979825
20
77.521477
30
0.000000
42
0.000000
10
140.941104
20
77.775560
30
0.000000
42
0.000000
10
140.052477
20
77.946477
30
0.000000
42
0.000000
10
139.319254
20
78.049943
30
0.000000
0
LWPOLYLINE
5
51
100
AcDbEntity
67
0
8
0
6
Continuous
62
0
370
-2
100
AcDbPolyline
90
2
70
0
10
139.319254
20
78.049943
30
0.000000
42
0.000000
10
139.110205
20
80.153489
30
0.000000
0
LWPOLYLINE
5
52
100
AcDbEntity
67
0
8
0
6
Continuous
62
0
370
-2
100
AcDbPolyline
90
12
70
0
10
139.110205
20
80.153489
30
0.000000
42
0.000000
10
139.808722
20
80.399240
30
0.000000
42
0.000000
10
140.646330
20
80.741709
30
0.000000
42
0.000000
10
141.614726
20
81.195259
30
0.000000
42
0.000000
10
142.704528
20
81.773643
30
0.000000
42
0.000000
10
144.242161
20
82.705398
30
0.000000
42
0.000000
10
143.940071
20
84.636781
30
0.000000
42
0.000000
10
142.191363
20
85.054515
30
0.000000
42
0.000000
10
140.977000
20
85.272503
30
0.000000
42
0.000000
10
139.916363
20
85.408688
30
0.000000
42
0.000000
10
139.014186
20
85.479036
30
0.000000
42
0.000000
10
138.273989
20
85.499756
30
0.000000
0
LWPOLYLINE
5
53
100
AcDbEntity
67
0
8
0
6
Continuous
62
0
370
-2
100
AcDbPolyline
90
2
70
0
10
138.273989
20
85.499756
30
0.000000
42
0.000000
10
137.830732
20
87.566669
30
0.000000
0
LWPOLYLINE
5
54
100
AcDbEntity
67
0
8
0
6
Continuous
62
0
370
-2
100
AcDbPolyline
90
12
70
0
10
137.830732
20
87.566669
30
0.000000
42
0.000000
10
138.497342
20
87.889085
30
0.000000
42
0.000000
10
139.291339
20
88.323183
30
0.000000
42
0.000000
10
140.202864
20
88.882306
30
0.000000
42
0.000000
10
141.221055
20
89.579073
30
0.000000
42
0.000000
10
142.644696
20
90.677129
30
0.000000
42
0.000000
10
142.128260
20
92.562544
30
0.000000
42
0.000000
10
140.343776
20
92.781859
30
0.000000
42
0.000000
10
139.112641
20
92.862510
30
0.000000
42
0.000000
10
138.043425
20
92.879086
30
0.000000
42
0.000000
10
137.139044
20
92.847979
30
0.000000
42
0.000000
10
136.401182
20
92.785694
30
0.000000
0
LWPOLYLINE
5
55
100
AcDbEntity
67
0
8
0
6
Continuous
62
0
370
-2
100
AcDbPolyline
90
2
70
0
10
136.401182
20
92.785694
30
0.000000
42
0.000000
10
135.729291
20
94.789982
30
0.000000
0
LWPOLYLINE
5
56
100
AcDbEntity
67
0
8
0
6
Continuous
62
0
370
-2
100
AcDbPolyline
90
12
70
0
10
135.729291
20
94.789982
30
0.000000
42
0.000000
10
136.355610
20
95.185006
30
0.000000
42
0.000000
10
137.096011
20
95.705274
30
0.000000
42
0.000000
10
137.939203
20
96.362940
30
0.000000
42
0.000000
10
138.872979
20
97.169327
30
0.000000
42
0.000000
10
140.164725
20
98.419877
30
0.000000
42
0.000000
10
139.440437
20
100.235614
30
0.000000
42
0.000000
10
137.642618
20
100.253751
30
0.000000
42
0.000000
10
136.410194
20
100.196052
30
0.000000
42
0.000000
10
135.345845
20
100.092809
30
0.000000
42
0.000000
10
134.450634
20
99.960639
30
0.000000
42
0.000000
10
133.724385
20
99.816131
30
0.000000
0
LWPOLYLINE
5
57
100
AcDbEntity
67
0
8
0
6
Continuous
62
0
370
-2
100
AcDbPolyline
90
2
70
0
10
133.724385
20
99.816131
30
0.000000
42
0.000000
10
132.832309
20
101.732589
30
0.000000
0
LWPOLYLINE
5
58
100
AcDbEntity
67
0
8
0
6
Continuous
62
0
370
-2
100
AcDbPolyline
90
12
70
0
10
132.832309
20
101.732589
30
0.000000
42
0.000000
10
133.410462
20
102.195255
30
0.000000
42
0.000000
10
134.087956
20
102.795150
30
0.000000
42
0.000000
10
134.852211
20
103.543089
30
0.000000
42
0.000000
10
135.689828
20
104.448955
30
0.000000
42
0.000000
10
136.833435
20
105.836271
30
0.000000
42
0.000000
10
135.910402
20
107.559497
30
0.000000
42
0.000000
10
134.121857
20
107.376228
30
0.000000
42
0.000000
10
132.903643
20
107.180903
30
0.000000
42
0.000000
10
131.857546
20
106.959141
30
0.000000
42
0.000000
10
130.982762
20
106.727570
30
0.000000
42
0.000000
10
130.277259
20
106.502656
30
0.000000
0
LWPOLYLINE
5
59
100
AcDbEntity
67
0
8
0
6
Continuous
62
0
370
-2
100
AcDbPolyline
90
2
70
0
10
130.277259
20
106.502656
30
0.000000
42
0.000000
10
129.176218
20
108.307183
30
0.000000
0
LWPOLYLINE
5
5A
100
AcDbEntity
67
0
8
0
6
Continuous
62
0
370
-2
100
AcDbPolyline
90
12
70
0
10
129.176218
20
108.307183
30
0.000000
42
0.000000
10
129.698933
20
108.831673
30
0.000000
42
0.000000
10
130.305000
20
109.503651
30
0.000000
42
0.000000
10
130.980707
20
110.332456
30
0.000000
42
0.000000
10
131.711633
20
111.326410
30
0.000000
42
0.000000
10
132.692719
20
112.833046
30
0.000000
42
0.000000
10
131.582550
20
114.442090
30
0.000000
42
0.000000
10
129.825770
20
114.059719
30
0.000000
42
0.000000
10
128.637085
20
113.729227
30
0.000000
42
0.000000
10
127.622395
20
113.391732
30
0.000000
42
0.000000
10
126.779039
20
113.063673
30
0.000000
42
0.000000
10
126.103155
20
112.761182
30
0.000000
0
LWPOLYLINE
5
5B
100
AcDbEntity
67
0
8
0
6
Continuous
62
0
370
-2
100
AcDbPolyline
90
2
70
0
10
126.103155
20
112.761182
30
0.000000
42
0.000000
10
124.806994
20
114.431085
30
0.000000
0
LWPOLYLINE
5
5C
100
AcDbEntity
67
0
8
0
6
Continuous
62
0
370
-2
100
AcDbPolyline
90
12
70
0
10
124.806994
20
114.431085
30
0.000000
42
0.000000
10
125.267698
20
115.010802
30
0.000000
42
0.000000
10
125.794716
20
115.746413
30
0.000000
42
0.000000
10
126.373378
20
116.645662
30
0.000000
42
0.000000
10
126.988421
20
117.715204
30
0.000000
42
0.000000
10
127.794648
20
119.322214
30
0.000000
42
0.000000
10
126.511304
20
120.796840
30
0.000000
42
0.000000
10
124.808382
20
120.220178
30
0.000000
42
0.000000
10
123.664175
20
119.758672
30
0.000000
42
0.000000
10
122.693653
20
119.309691
30
0.000000
42
0.000000
10
121.892331
20
118.889269
30
0.000000
42
0.000000
10
121.254565
20
118.513005
30
0.000000
0
LWPOLYLINE
5
5D
100
AcDbEntity
67
0
8
0
6
Continuous
62
0
370
-2
100
AcDbPolyline
90
2
70
0
10
121.254565
20
118.513005
30
0.000000
42
0.000000
10
119.779584
20
120.027284
30
0.000000
0
LWPOLYLINE
5
5E
100
AcDbEntity
67
0
8
0
6
Continuous
62
0
370
-2
100
AcDbPolyline
90
12
70
0
10
119.779584
20
120.027284
30
0.000000
42
0.000000
10
120.172483
20
120.654938
30
0.000000
42
0.000000
10
120.613825
20
121.444931
30
0.000000
42
0.000000
10
121.088165
20
122.403315
30
0.000000
42
0.000000
10
121.579589
20
123.534995
30
0.000000
42
0.000000
10
122.200819
20
125.222169
30
0.000000
42
0.000000
10
120.760439
20
126.543835
30
0.000000
42
0.000000
10
119.132790
20
125.780131
30
0.000000
42
0.000000
10
118.047450
20
125.193417
30
0.000000
42
0.000000
10
117.133300
20
124.638595
30
0.000000
42
0.000000
10
116.384089
20
124.131096
30
0.000000
42
0.000000
10
115.792461
20
123.685791
30
0.000000
0
LWPOLYLINE
5
5F
100
AcDbEntity
67
0
8
0
6
Continuous
62
0
370
-2
100
AcDbPolyline
90
2
70
0
10
115.792461
20
123.685791
30
0.000000
42
0.000000
10
114.157209
20
125.025403
30
0.000000
0
LWPOLYLINE
5
60
100
AcDbEntity
67
0
8
0
6
Continuous
62
0
370
-2
100
AcDbPolyline
90
12
70
0
10
114.157209
20
125.025403
30
0.000000
42
0.000000
10
114.477363
20
125.693102
30
0.000000
42
0.000000
10
114.827479
20
126.527542
30
0.000000
42
0.000000
10
115.191531
20
127.533009
30
0.000000
42
0.000000
10
115.553158
20
128.712595
30
0.000000
42
0.000000
10
115.981578
20
130.458716
30
0.000000
42
0.000000
10
114.402274
20
131.610800
30
0.000000
42
0.000000
10
112.870368
20
130.669660
30
0.000000
42
0.000000
10
111.857543
20
129.965115
30
0.000000
42
0.000000
10
111.011262
20
129.311430
30
0.000000
42
0.000000
10
110.323583
20
128.723237
30
0.000000
42
0.000000
10
109.785534
20
128.214491
30
0.000000
0
LWPOLYLINE
5
61
100
AcDbEntity
67
0
8
0
6
Continuous
62
0
370
-2
100
AcDbPolyline
90
2
70
0
10
109.785534
20
128.214491
30
0.000000
42
0.000000
10
108.010575
20
129.362589
30
0.000000
0
LWPOLYLINE
5
62
100
AcDbEntity
67
0
8
0
6
Continuous
62
0
370
-2
100
AcDbPolyline
90
12
70
0
10
108.010575
20
129.362589
30
0.000000
42
0.000000
10
108.253957
20
130.061935
30
0.000000
42
0.000000
10
108.508444
20
130.930330
30
0.000000
42
0.000000
10
108.757630
20
131.970235
30
0.000000
42
0.000000
10
108.984911
20
133.182894
30
0.000000
42
0.000000
10
109.215134
20
134.966003
30
0.000000
42
0.000000
10
107.516769
20
135.934017
30
0.000000
42
0.000000
10
106.099869
20
134.827276
30
0.000000
42
0.000000
10
105.172297
20
134.013761
30
0.000000
42
0.000000
10
104.404526
20
133.269432
30
0.000000
42
0.000000
10
103.787028
20
132.607942
30
0.000000
42
0.000000
10
103.309323
20
132.042152
30
0.000000
0
LWPOLYLINE
5
63
100
AcDbEntity
67
0
8
0
6
Continuous
62
0
370
-2
100
AcDbPolyline
90
2
70
0
10
103.309323
20
132.042152
30
0.000000
42
0.000000
10
101.416979
20
132.984299
30
0.000000
0
LWPOLYLINE
5
64
100
AcDbEntity
67
0
8
0
6
Continuous
62
0
370
-2
100
AcDbPolyline
90
12
70
0
10
101.416979
20
132.984299
30
0.000000
42
0.000000
10
101.580529
20
133.706498
30
0.000000
42
0.000000
10
101.736186
20
134.597926
30
0.000000
42
0.000000
10
101.867373
20
135.659193
30
0.000000
42
0.000000
10
101.957450
20
136.889674
30
0.000000
42
0.000000
10
101.986581
20
138.687348
30
0.000000
42
0.000000
10
100.190511
20
139.459119
30
0.000000
42
0.000000
10
98.906436
20
138.200694
30
0.000000
42
0.000000
10
98.075781
20
137.288439
30
0.000000
42
0.000000
10
97.396176
20
136.462827
30
0.000000
42
0.000000
10
96.856624
20
135.736359
30
0.000000
42
0.000000
10
96.445272
20
135.120640
30
0.000000
0
LWPOLYLINE
5
65
100
AcDbEntity
67
0
8
0
6
Continuous
62
0
370
-2
100
AcDbPolyline
90
2
70
0
10
96.445272
20
135.120640
30
0.000000
42
0.000000
10
94.459339
20
135.844988
30
0.000000
0
LWPOLYLINE
5
66
100
AcDbEntity
67
0
8
0
6
Continuous
62
0
370
-2
100
AcDbPolyline
90
12
70
0
10
94.459339
20
135.844988
30
0.000000
42
0.000000
10
94.541000
20
136.580958
30
0.000000
42
0.000000
10
94.595870
20
137.484208
30
0.000000
42
0.000000
10
94.607408
20
138.553491
30
0.000000
42
0.000000
10
94.559149
20
139.786320
30
0.000000
42
0.000000
10
94.386821
20
141.575953
30
0.000000
42
0.000000
10
92.515633
20
142.141775
30
0.000000
42
0.000000
10
91.380531
20
140.747491
30
0.000000
42
0.000000
10
90.657239
20
139.747969
30
0.000000
42
0.000000
10
90.074347
20
138.851457
30
0.000000
42
0.000000
10
89.619526
20
138.069146
30
0.000000
42
0.000000
10
89.279698
20
137.411242
30
0.000000
0
LWPOLYLINE
5
67
100
AcDbEntity
67
0
8
0
6
Continuous
62
0
370
-2
100
AcDbPolyline
90
2
70
0
10
89.279698
20
137.411242
30
0.000000
42
0.000000
10
87.225152
20
137.908681
30
0.000000
0
LWPOLYLINE
5
68
100
AcDbEntity
67
0
8
0
6
Continuous
62
0
370
-2
100
AcDbPolyline
90
12
70
0
10
87.225152
20
137.908681
30
0.000000
42
0.000000
10
87.223897
20
138.649167
30
0.000000
42
0.000000
10
87.177290
20
139.552881
30
0.000000
42
0.000000
10
87.069034
20
140.616732
30
0.000000
42
0.000000
10
86.883045
20
141.836406
30
0.000000
42
0.000000
10
86.511425
20
143.595491
30
0.000000
42
0.000000
10
84.588651
20
143.948249
30
0.000000
42
0.000000
10
83.616797
20
142.435642
30
0.000000
42
0.000000
10
83.009963
20
141.361421
30
0.000000
42
0.000000
10
82.531114
20
140.405282
30
0.000000
42
0.000000
10
82.166744
20
139.576967
30
0.000000
42
0.000000
10
81.902715
20
138.885151
30
0.000000
0
LWPOLYLINE
5
69
100
AcDbEntity
67
0
8
0
6
Continuous
62
0
370
-2
100
AcDbPolyline
90
2
70
0
10
81.902715
20
138.885151
30
0.000000
42
0.000000
10
79.805391
20
139.149426
30
0.000000
0
LWPOLYLINE
5
6A
100
AcDbEntity
67
0
8
0
6
Continuous
62
0
370
-2
100
AcDbPolyline
90
12
70
0
10
79.805391
20
139.149426
30
0.000000
42
0.000000
10
79.721236
20
139.885115
30
0.000000
42
0.000000
10
79.573739
20
140.777929
30
0.000000
42
0.000000
10
79.347049
20
141.822969
30
0.000000
42
0.000000
10
79.025670
20
143.014151
30
0.000000
42
0.000000
10
78.459431
20
144.720567
30
0.000000
42
0.000000
10
76.509251
20
144.855824
30
0.000000
42
0.000000
10
75.712866
20
143.243914
30
0.000000
42
0.000000
10
75.230123
20
142.108504
30
0.000000
42
0.000000
10
74.861338
20
141.104764
30
0.000000
42
0.000000
10
74.592001
20
140.240860
30
0.000000
42
0.000000
10
74.407091
20
139.523832
30
0.000000
0
LWPOLYLINE
5
6B
100
AcDbEntity
67
0
8
0
6
Continuous
62
0
370
-2
100
AcDbPolyline
90
2
70
0
10
74.407091
20
139.523832
30
0.000000
42
0.000000
10
72.293365
20
139.551620
30
0.000000
0
LWPOLYLINE
5
6C
100
AcDbEntity
67
0
8
0
6
Continuous
62
0
370
-2
100
AcDbPolyline
90
12
70
0
10
72.293365
20
139.551620
30
0.000000
42
0.000000
10
72.127368
20
140.273261
30
0.000000
42
0.000000
10
71.880835
20
141.143946
30
0.000000
42
0.000000
10
71.538563
20
142.157035
30
0.000000
42
0.000000
10
71.085835
20
143.304743
30
0.000000
42
0.000000
10
70.332099
20
144.937031
30
0.000000
42
0.000000
10
68.379037
20
144.853087
30
0.000000
42
0.000000
10
67.768136
20
143.162146
30
0.000000
42
0.000000
10
67.415554
20
141.979825
30
0.000000
42
0.000000
10
67.161471
20
140.941104
30
0.000000
42
0.000000
10
66.990554
20
140.052477
30
0.000000
42
0.000000
10
66.887088
20
139.319254
30
0.000000
0
LWPOLYLINE
5
6D
100
AcDbEntity
67
0
8
0
6
Continuous
62
0
370
-2
100
AcDbPolyline
90
2
70
0
10
66.887088
20
139.319254
30
0.000000
42
0.000000
10
64.783542
20
139.110205
30
0.000000
0
LWPOLYLINE
5
6E
100
AcDbEntity
67
0
8
0
6
Continuous
62
0
370
-2
100
AcDbPolyline
90
12
70
0
10
64.783542
20
139.110205
30
0.000000
42
0.000000
10
64.537790
20
139.808722
30
0.000000
42
0.000000
10
64.195321
20
140.646330
30
0.000000
42
0.000000
10
63.741772
20
141.614726
30
0.000000
42
0.000000
10
63.163388
20
142.704528
30
0.000000
42
0.000000
10
62.231633
20
144.242161
30
0.000000
42
0.000000
10
60.300250
20
143.940071
30
0.000000
42
0.000000
10
59.882516
20
142.191363
30
0.000000
42
0.000000
10
59.664528
20
140.977000
30
0.000000
42
0.000000
10
59.528343
20
139.916363
30
0.000000
42
0.000000
10
59.457995
20
139.014186
30
0.000000
42
0.000000
10
59.437275
20
138.273989
30
0.000000
0
LWPOLYLINE
5
6F
100
AcDbEntity
67
0
8
0
6
Continuous
62
0
370
-2
100
AcDbPolyline
90
2
70
0
10
59.437275
20
138.273989
30
0.000000
42
0.000000
10
57.370361
20
137.830732
30
0.000000
0
LWPOLYLINE
5
70
100
AcDbEntity
67
0
8
0
6
Continuous
62
0
370
-2
100
AcDbPolyline
90
12
70
0
10
57.370361
20
137.830732
30
0.000000
42
0.000000
10
57.047946
20
138.497342
30
0.000000
42
0.000000
10
56.613848
20
139.291339
30
0.000000
42
0.000000
10
56.054725
20
140.202864
30
0.000000
42
0.000000
10
55.357958
20
141.221055
30
0.000000
42
0.000000
10
54.259901
20
142.644696
30
0.000000
42
0.000000
10
52.374486
20
142.128260
30
0.000000
42
0.000000
10
52.155172
20
140.343776
30
0.000000
42
0.000000
10
52.074520
20
139.112641
30
0.000000
42
0.000000
10
52.057945
20
138.043425
30
0.000000
42
0.000000
10
52.089052
20
137.139044
30
0.000000
42
0.000000
10
52.151337
20
136.401182
30
0.000000
0
LWPOLYLINE
5
71
100
AcDbEntity
67
0
8
0
6
Continuous
62
0
370
-2
100
AcDbPolyline
90
2
70
0
10
52.151337
20
136.401182
30
0.000000
42
0.000000
10
50.147049
20
135.729291
30
0.000000
0
LWPOLYLINE
5
72
100
AcDbEntity
67
0
8
0
6
Continuous
62
0
370
-2
100
AcDbPolyline
90
12
70
0
10
50.147049
20
135.729291
30
0.000000
42
0.000000
10
49.752024
20
136.355610
30
0.000000
42
0.000000
10
49.231757
20
137.096011
30
0.000000
42
0.000000
10
48.574090
20
137.939203
30
0.000000
42
0.000000
10
47.767703
20
138.872979
30
0.000000
42
0.000000
10
46.517154
20
140.164725
30
0.000000
42
0.000000
10
44.701417
20
139.440437
30
0.000000
42
0.000000
10
44.683280
20
137.642618
30
0.000000
42
0.000000
10
44.740979
20
136.410194
30
0.000000
42
0.000000
10
44.844222
20
135.345845
30
0.000000
42
0.000000
10
44.976391
20
134.450634
30
0.000000
42
0.000000
10
45.120900
20
133.724385
30
0.000000
0
LWPOLYLINE
5
73
100
AcDbEntity
67
0
8
0
6
Continuous
62
0
370
-2
100
AcDbPolyline
90
2
70
0
10
45.120900
20
133.724385
30
0.000000
42
0.000000
10
43.204442
20
132.832309
30
0.000000
0
LWPOLYLINE
5
74
100
AcDbEntity
67
0
8
0
6
Continuous
62
0
370
-2
100
AcDbPolyline
90
12
70
0
10
43.204442
20
132.832309
30
0.000000
42
0.000000
10
42.741776
20
133.410462
30
0.000000
42
0.000000
10
42.141881
20
134.087956
30
0.000000
42
0.000000
10
41.393942
20
134.852211
30
0.000000
42
0.000000
10
40.488076
20
135.689828
30
0.000000
42
0.000000
10
39.100760
20
136.833435
30
0.000000
42
0.000000
10
37.377534
20
135.910402
30
0.000000
42
0.000000
10
37.560803
20
134.121857
30
0.000000
42
0.000000
10
37.756127
20
132.903643
30
0.000000
42
0.000000
10
37.977890
20
131.857546
30
0.000000
42
0.000000
10
38.209461
20
130.982762
30
0.000000
42
0.000000
10
38.434375
20
130.277259
30
0.000000
0
LWPOLYLINE
5
75
100
AcDbEntity
67
0
8
0
6
Continuous
62
0
370
-2
100
AcDbPolyline
90
2
70
0
10
38.434375
20
130.277259
30
0.000000
42
0.000000
10
36.629848
20
129.176218
30
0.000000
0
LWPOLYLINE
5
76
100
AcDbEntity
67
0
8
0
6
Continuous
62
0
370
-2
100
AcDbPolyline
90
12
70
0
10
36.629848
20
129.176218
30
0.000000
42
0.000000
10
36.105358
20
129.698933
30
0.000000
42
0.000000
10
35.433380
20
130.305000
30
0.000000
42
0.000000
10
34.604575
20
130.980707
30
0.000000
42
0.000000
10
33.610621
20
131.711633
30
0.000000
42
0.000000
10
32.103985
20
132.692719
30
0.000000
42
0.000000
10
30.494941
20
131.582550
30
0.000000
42
0.000000
10
30.877311
20
129.825770
30
0.000000
42
0.000000
10
31.207804
20
128.637085
30
0.000000
42
0.000000
10
31.545298
20
127.622395
30
0.000000
42
0.000000
10
31.873357
20
126.779039
30
0.000000
42
0.000000
10
32.175848
20
126.103155
30
0.000000
0
LWPOLYLINE
5
77
100
AcDbEntity
67
0
8
0
6
Continuous
62
0
370
-2
100
AcDbPolyline
90
2
70
0
10
32.175848
20
126.103155
30
0.000000
42
0.000000
10
30.505946
20
124.806994
30
0.000000
0
LWPOLYLINE
5
78
100
AcDbEntity
67
0
8
0
6
Continuous
62
0
370
-2
100
AcDbPolyline
90
12
70
0
10
30.505946
20
124.806994
30
0.000000
42
0.000000
10
29.926228
20
125.267698
30
0.000000
42
0.000000
10
29.190617
20
125.794716
30
0.000000
42
0.000000
10
28.291369
20
126.373378
30
0.000000
42
0.000000
10
27.221827
20
126.988421
30
0.000000
42
0.000000
10
25.614817
20
127.794648
30
0.000000
42
0.000000
10
24.140190
20
126.511304
30
0.000000
42
0.000000
10
24.716853
20
124.808382
30
0.000000
42
0.000000
10
25.178358
20
123.664175
30
0.000000
42
0.000000
10
25.627340
20
122.693653
30
0.000000
42
0.000000
10
26.047762
20
121.892331
30
0.000000
42
0.000000
10
26.424026
20
121.254565
30
0.000000
0
LWPOLYLINE
5
79
100
AcDbEntity
67
0
8
0
6
Continuous
62
0
370
-2
100
AcDbPolyline
90
2
70
0
10
26.424026
20
121.254565
30
0.000000
42
0.000000
10
24.909747
20
119.779584
30
0.000000
0
LWPOLYLINE
5
7A
100
AcDbEntity
67
0
8
0
6
Continuous
62
0
370
-2
100
AcDbPolyline
90
12
70
0
10
24.909747
20
119.779584
30
0.000000
42
0.000000
10
24.282093
20
120.172483
30
0.000000
42
0.000000
10
23.492100
20
120.613825
30
0.000000
42
0.000000
10
22.533715
20
121.088165
30
0.000000
42
0.000000
10
21.402036
20
121.579589
30
0.000000
42
0.000000
10
19.714862
20
122.200819
30
0.000000
42
0.000000
10
18.393196
20
120.760439
30
0.000000
42
0.000000
10
19.156900
20
119.132790
30
0.000000
42
0.000000
10
19.743614
20
118.047450
30
0.000000
42
0.000000
10
20.298436
20
117.133300
30
0.000000
42
0.000000
10
20.805934
20
116.384089
30
0.000000
42
0.000000
10
21.251239
20
115.792461
30
0.000000
0
LWPOLYLINE
5
7B
100
AcDbEntity
67
0
8
0
6
Continuous
62
0
370
-2
100
AcDbPolyline
90
2
70
0
10
21.251239
20
115.792461
30
0.000000
42
0.000000
10
19.911628
20
114.157209
30
0.000000
0
LWPOLYLINE
5
7C
100
AcDbEntity
67
0
8
0
6
Continuous
62
0
370
-2
100
AcDbPolyline
90
12
70
0
10
19.911628
20
114.157209
30
0.000000
42
0.000000
10
19.243929
20
114.477363
30
0.000000
42
0.000000
10
18.409489
20
114.827479
30
0.000000
42
0.000000
10
17.404021
20
115.191531
30
0.000000
42
0.000000
10
16.224435
20
115.553158
30
0.000000
42
0.000000
10
14.478315
20
115.981578
30
0.000000
42
0.000000
10
13.326231
20
114.402274
30
0.000000
42
0.000000
10
14.267371
20
112.870368
30
0.000000
42
0.000000
10
14.971915
20
111.857543
30
0.000000
42
0.000000
10
15.625601
20
111.011262
30
0.000000
42
0.000000
10
16.213794
20
110.323583
30
0.000000
42
0.000000
10
16.722540
20
109.785534
30
0.000000
0
LWPOLYLINE
5
7D
100
AcDbEntity
67
0
8
0
6
Continuous
62
0
370
-2
100
AcDbPolyline
90
2
70
0
10
16.722540
20
109.785534
30
0.000000
42
0.000000
10
15.574442
20
108.010575
30
0.000000
0
LWPOLYLINE
5
7E
100
AcDbEntity
67
0
8
0
6
Continuous
62
0
370
-2
100
AcDbPolyline
90
12
70
0
10
15.574442
20
108.010575
30
0.000000
42
0.000000
10
14.875095
20
108.253957
30
0.000000
42
0.000000
10
14.006701
20
108.508444
30
0.000000
42
0.000000
10
12.966795
20
108.757630
30
0.000000
42
0.000000
10
11.754137
20
108.984911
30
0.000000
42
0.000000
10
9.971028
20
109.215134
30
0.000000
42
0.000000
10
9.003014
20
107.516769
30
0.000000
42
0.000000
10
10.109755
20
106.099869
30
0.000000
42
0.000000
10
10.923270
20
105.172297
30
0.000000
42
0.000000
10
11.667599
20
104.404526
30
0.000000
42
0.000000
10
12.329089
20
103.787028
30
0.000000
42
0.000000
10
12.894879
20
103.309323
30
0.000000
0
LWPOLYLINE
5
7F
100
AcDbEntity
67
0
8
0
6
Continuous
62
0
370
-2
100
AcDbPolyline
90
2
70
0
10
12.894879
20
103.309323
30
0.000000
42
0.000000
10
11.952732
20
101.416979
30
0.000000
0
LWPOLYLINE
5
80
100
AcDbEntity
67
0
8
0
6
Continuous
62
0
370
-2
100
AcDbPolyline
90
12
70
0
10
11.952732
20
101.416979
30
0.000000
42
0.000000
10
11.230532
20
101.580529
30
0.000000
42
0.000000
10
10.339105
20
101.736186
30
0.000000
42
0.000000
10
9.277838
20
101.867373
30
0.000000
42
0.000000
10
8.047357
20
101.957450
30
0.000000
42
0.000000
10
6.249683
20
101.986581
30
0.000000
42
0.000000
10
5.477912
20
100.190511
30
0.000000
42
0.000000
10
6.736337
20
98.906436
30
0.000000
42
0.000000
10
7.648592
20
98.075781
30
0.000000
42
0.000000
10
8.474204
20
97.396176
30
0.000000
42
0.000000
10
9.200672
20
96.856624
30
0.000000
42
0.000000
10
9.816390
20
96.445272
30
0.000000
0
LWPOLYLINE
5
81
100
AcDbEntity
67
0
8
0
6
Continuous
62
0
370
-2
100
AcDbPolyline
90
2
70
0
10
9.816390
20
96.445272
30
0.000000
42
0.000000
10
9.092043
20
94.459339
30
0.000000
0
LWPOLYLINE
5
82
100
AcDbEntity
67
0
8
0
6
Continuous
62
0
370
-2
100
AcDbPolyline
90
12
70
0
10
9.092043
20
94.459339
30
0.000000
42
0.000000
10
8.356073
20
94.541000
30
0.000000
42
0.000000
10
7.452822
20
94.595870
30
0.000000
42
0.000000
10
6.383540
20
94.607408
30
0.000000
42
0.000000
10
5.150711
20
94.559149
30
0.000000
42
0.000000
10
3.361078
20
94.386821
30
0.000000
42
0.000000
10
2.795256
20
92.515633
30
0.000000
42
0.000000
10
4.189539
20
91.380531
30
0.000000
42
0.000000
10
5.189062
20
90.657239
30
0.000000
42
0.000000
10
6.085574
20
90.074347
30
0.000000
42
0.000000
10
6.867885
20
89.619526
30
0.000000
42
0.000000
10
7.525789
20
89.279698
30
0.000000
0
LWPOLYLINE
5
83
100
AcDbEntity
67
0
8
0
6
Continuous
62
0
370
-2
100
AcDbPolyline
90
2
70
0
10
7.525789
20
89.279698
30
0.000000
42
0.000000
10
7.028350
20
87.225152
30
0.000000
0
LWPOLYLINE
5
84
100
AcDbEntity
67
0
8
0
6
Continuous
62
0
370
-2
100
AcDbPolyline
90
12
70
0
10
7.028350
20
87.225152
30
0.000000
42
0.000000
10
6.287864
20
87.223897
30
0.000000
42
0.000000
10
5.384150
20
87.177290
30
0.000000
42
0.000000
10
4.320299
20
87.069034
30
0.000000
42
0.000000
10
3.100625
20
86.883045
30
0.000000
42
0.000000
10
1.341540
20
86.511425
30
0.000000
42
0.000000
10
0.988782
20
84.588651
30
0.000000
42
0.000000
10
2.501389
20
83.616797
30
0.000000
42
0.000000
10
3.575610
20
83.009963
30
0.000000
42
0.000000
10
4.531749
20
82.531114
30
0.000000
42
0.000000
10
5.360064
20
82.166744
30
0.000000
42
0.000000
10
6.051880
20
81.902715
30
0.000000
0
LWPOLYLINE
5
85
100
AcDbEntity
67
0
8
0
6
Continuous
62
0
370
-2
100
AcDbPolyline
90
2
70
0
10
6.051880
20
81.902715
30
0.000000
42
0.000000
10
5.787605
20
79.805391
30
0.000000
0
LWPOLYLINE
5
86
100
AcDbEntity
67
0
8
0
6
Continuous
62
0
370
-2
100
AcDbPolyline
90
12
70
0
10
5.787605
20
79.805391
30
0.000000
42
0.000000
10
5.051916
20
79.721236
30
0.000000
42
0.000000
10
4.159102
20
79.573739
30
0.000000
42
0.000000
10
3.114061
20
79.347049
30
0.000000
42
0.000000
10
1.922880
20
79.025670
30
0.000000
42
0.000000
10
0.216464
20
78.459431
30
0.000000
42
0.000000
10
0.081207
20
76.509251
30
0.000000
42
0.000000
10
1.693116
20
75.712866
30
0.000000
42
0.000000
10
2.828527
20
75.230123
30
0.000000
42
0.000000
10
3.832267
20
74.861338
30
0.000000
42
0.000000
10
4.696171
20
74.592001
30
0.000000
42
0.000000
10
5.413198
20
74.407091
30
0.000000
0
LWPOLYLINE
5
87
100
AcDbEntity
67
0
8
0
6
Continuous
62
0
370
-2
100
AcDbPolyline
90
2
70
0
10
5.413198
20
74.407091
30
0.000000
42
0.000000
10
5.385411
20
72.293365
30
0.000000
0
LWPOLYLINE
5
88
100
AcDbEntity
67
0
8
0
6
Continuous
62
0
370
-2
100
AcDbPolyline
90
12
70
0
10
5.385411
20
72.293365
30
0.000000
42
0.000000
10
4.663770
20
72.127368
30
0.000000
42
0.000000
10
3.793084
20
71.880835
30
0.000000
42
0.000000
10
2.779996
20
71.538563
30
0.000000
42
0.000000
10
1.632288
20
71.085835
30
0.000000
42
0.000000
10
0.000000
20
70.332099
30
0.000000
42
0.000000
10
0.083944
20
68.379037
30
0.000000
42
0.000000
10
1.774885
20
67.768136
30
0.000000
42
0.000000
10
2.957206
20
67.415554
30
0.000000
42
0.000000
10
3.995926
20
67.161471
30
0.000000
42
0.000000
10
4.884554
20
66.990554
30
0.000000
42
0.000000
10
5.617777
20
66.887088
30
0.000000
0
LWPOLYLINE
5
89
100
AcDbEntity
67
0
8
0
6
Continuous
62
0
370
-2
100
AcDbPolyline
90
2
70
0
10
5.617777
20
66.887088
30
0.000000
42
0.000000
10
5.826826
20
64.783542
30
0.000000
0
LWPOLYLINE
5
8A
100
AcDbEntity
67
0
8
0
6
Continuous
62
0
370
-2
100
AcDbPolyline
90
12
70
0
10
5.826826
20
64.783542
30
0.000000
42
0.000000
10
5.128308
20
64.537790
30
0.000000
42
0.000000
10
4.290701
20
64.195321
30
0.000000
42
0.000000
10
3.322304
20
63.741772
30
0.000000
42
0.000000
10
2.232502
20
63.163388
30
0.000000
42
0.000000
10
0.694870
20
62.231633
30
0.000000
42
0.000000
10
0.996959
20
60.300250
30
0.000000
42
0.000000
10
2.745667
20
59.882516
30
0.000000
42
0.000000
10
3.960031
20
59.664528
30
0.000000
42
0.000000
10
5.020668
20
59.528343
30
0.000000
42
0.000000
10
5.922845
20
59.457995
30
0.000000
42
0.000000
10
6.663042
20
59.437275
30
0.000000
0
LWPOLYLINE
5
8B
100
AcDbEntity
67
0
8
0
6
Continuous
62
0
370
-2
100
AcDbPolyline
90
2
70
0
10
6.663042
20
59.437275
30
0.000000
42
0.000000
10
7.106299
20
57.370361
30
0.000000
0
LWPOLYLINE
5
8C
100
AcDbEntity
67
0
8
0
6
Continuous
62
0
370
-2
100
AcDbPolyline
90
12
70
0
10
7.106299
20
57.370361
30
0.000000
42
0.000000
10
6.439689
20
57.047946
30
0.000000
42
0.000000
10
5.645692
20
56.613848
30
0.000000
42
0.000000
10
4.734167
20
56.054725
30
0.000000
42
0.000000
10
3.715975
20
55.357958
30
0.000000
42
0.000000
10
2.292334
20
54.259901
30
0.000000
42
0.000000
10
2.808771
20
52.374486
30
0.000000
42
0.000000
10
4.593255
20
52.155172
30
0.000000
42
0.000000
10
5.824390
20
52.074520
30
0.000000
42
0.000000
10
6.893606
20
52.057945
30
0.000000
42
0.000000
10
7.797986
20
52.089052
30
0.000000
42
0.000000
10
8.535849
20
52.151337
30
0.000000
0
LWPOLYLINE
5
8D
100
AcDbEntity
67
0
8
0
6
Continuous
62
0
370
-2
100
AcDbPolyline
90
2
70
0
10
8.535849
20
52.151337
30
0.000000
42
0.000000
10
9.207740
20
50.147049
30
0.000000
0
LWPOLYLINE
5
8E
100
AcDbEntity
67
0
8
0
6
Continuous
62
0
370
-2
100
AcDbPolyline
90
12
70
0
10
9.207740
20
50.147049
30
0.000000
42
0.000000
10
8.581420
20
49.752024
30
0.000000
42
0.000000
10
7.841020
20
49.231757
30
0.000000
42
0.000000
10
6.997827
20
48.574090
30
0.000000
42
0.000000
10
6.064052
20
47.767703
30
0.000000
42
0.000000
10
4.772305
20
46.517154
30
0.000000
42
0.000000
10
5.496594
20
44.701417
30
0.000000
42
0.000000
10
7.294413
20
44.683280
30
0.000000
42
0.000000
10
8.526837
20
44.740979
30
0.000000
42
0.000000
10
9.591186
20
44.844222
30
0.000000
42
0.000000
10
10.486397
20
44.976391
30
0.000000
42
0.000000
10
11.212646
20
45.120900
30
0.000000
0
LWPOLYLINE
5
8F
100
AcDbEntity
67
0
8
0
6
Continuous
62
0
370
-2
100
AcDbPolyline
90
2
70
0
10
11.212646
20
45.120900
30
0.000000
42
0.000000
10
12.104721
20
43.204442
30
0.000000
0
LWPOLYLINE
5
90
100
AcDbEntity
67
0
8
0
6
Continuous
62
0
370
-2
100
AcDbPolyline
90
12
70
0
10
12.104721
20
43.204442
30
0.000000
42
0.000000
10
11.526569
20
42.741776
30
0.000000
42
0.000000
10
10.849075
20
42.141881
30
0.000000
42
0.000000
10
10.084820
20
41.393942
30
0.000000
42
0.000000
10
9.247202
20
40.488076
30
0.000000
42
0.000000
10
8.103596
20
39.100760
30
0.000000
42
0.000000
10
9.026628
20
37.377534
30
0.000000
42
0.000000
10
10.815174
20
37.560803
30
0.000000
42
0.000000
10
12.033388
20
37.756127
30
0.000000
42
0.000000
10
13.079485
20
37.977890
30
0.000000
42
0.000000
10
13.954269
20
38.209461
30
0.000000
42
0.000000
10
14.659772
20
38.434375
30
0.000000
0
LWPOLYLINE
5
91
100
AcDbEntity
67
0
8
0
6
Continuous
62
0
370
-2
100
AcDbPolyline
90
2
70
0
10
14.659772
20
38.434375
30
0.000000
42
0.000000
10
15.760813
20
36.629848
30
0.000000
0
LWPOLYLINE
5
92
100
AcDbEntity
67
0
8
0
6
Continuous
62
0
370
-2
100
AcDbPolyline
90
12
70
0
10
15.760813
20
36.629848
30
0.000000
42
0.000000
10
15.238098
20
36.105358
30
0.000000
42
0.000000
10
14.632031
20
35.433380
30
0.000000
42
0.000000
10
13.956324
20
34.604575
30
0.000000
42
0.000000
10
13.225398
20
33.610621
30
0.000000
42
0.000000
10
12.244312
20
32.103985
30
0.000000
42
0.000000
10
13.354481
20
30.494941
30
0.000000
42
0.000000
10
15.111261
20
30.877311
30
0.000000
42
0.000000
10
16.299946
20
31.207804
30
0.000000
42
0.000000
10
17.314635
20
31.545298
30
0.000000
42
0.000000
10
18.157991
20
31.873357
30
0.000000
42
0.000000
10
18.833876
20
32.175848
30
0.000000
0
LWPOLYLINE
5
93
100
AcDbEntity
67
0
8
0
6
Continuous
62
0
370
-2
100
AcDbPolyline
90
2
70
0
10
18.833876
20
32.175848
30
0.000000
42
0.000000
10
20.130037
20
30.505946
30
0.000000
0
LWPOLYLINE
5
94
100
AcDbEntity
67
0
8
0
6
Continuous
62
0
370
-2
100
AcDbPolyline
90
12
70
0
10
20.130037
20
30.505946
30
0.000000
42
0.000000
10
19.669333
20
29.926228
30
0.000000
42
0.000000
10
19.142314
20
29.190617
30
0.000000
42
0.000000
10
18.563653
20
28.291369
30
0.000000
42
0.000000
10
17.948610
20
27.221827
30
0.000000
42
0.000000
10
17.142383
20
25.614817
30
0.000000
42
0.000000
10
18.425727
20
24.140190
30
0.000000
42
0.000000
10
20.128648
20
24.716853
30
0.000000
42
0.000000
10
21.272856
20
25.178358
30
0.000000
42
0.000000
10
22.243378
20
25.627340
30
0.000000
42
0.000000
10
23.044700
20
26.047762
30
0.000000
42
0.000000
10
23.682466
20
26.424026
30
0.000000
0
LWPOLYLINE
5
95
100
AcDbEntity
67
0
8
0
6
Continuous
62
0
370
-2
100
AcDbPolyline
90
2
70
0
10
23.682466
20
26.424026
30
0.000000
42
0.000000
10
25.157447
20
24.909747
30
0.000000
0
LWPOLYLINE
5
96
100
AcDbEntity
67
0
8
0
6
Continuous
62
0
370
-2
100
AcDbPolyline
90
12
70
0
10
25.157447
20
24.909747
30
0.000000
42
0.000000
10
24.764548
20
24.282093
30
0.000000
42
0.000000
10
24.323205
20
23.492100
30
0.000000
42
0.000000
10
23.848866
20
22.533715
30
0.000000
42
0.000000
10
23.357442
20
21.402036
30
0.000000
42
0.000000
10
22.736211
20
19.714862
30
0.000000
42
0.000000
10
24.176592
20
18.393196
30
0.000000
42
0.000000
10
25.804240
20
19.156900
30
0.000000
42
0.000000
10
26.889581
20
19.743614
30
0.000000
42
0.000000
10
27.803731
20
20.298436
30
0.000000
42
0.000000
10
28.552942
20
20.805934
30
0.000000
42
0.000000
10
29.144570
20
21.251239
30
0.000000
0
LWPOLYLINE
5
97
100
AcDbEntity
67
0
8
0
6
Continuous
62
0
370
-2
100
AcDbPolyline
90
2
70
0
10
29.144570
20
21.251239
30
0.000000
42
0.000000
10
30.779822
20
19.911628
30
0.000000
0
LWPOLYLINE
5
98
100
AcDbEntity
67
0
8
0
6
Continuous
62
0
370
-2
100
AcDbPolyline
90
12
70
0
10
30.779822
20
19.911628
30
0.000000
42
0.000000
10
30.459668
20
19.243929
30
0.000000
42
0.000000
10
30.109552
20
18.409489
30
0.000000
42
0.000000
10
29.745500
20
17.404021
30
0.000000
42
0.000000
10
29.383873
20
16.224435
30
0.000000
42
0.000000
10
28.955453
20
14.478315
30
0.000000
42
0.000000
10
30.534756
20
13.326231
30
0.000000
42
0.000000
10
32.066663
20
14.267371
30
0.000000
42
0.000000
10
33.079488
20
14.971915
30
0.000000
42
0.000000
10
33.925769
20
15.625601
30
0.000000
42
0.000000
10
34.613448
20
16.213794
30
0.000000
42
0.000000
10
35.151497
20
16.722540
30
0.000000
0
LWPOLYLINE
5
99
100
AcDbEntity
67
0
8
0
6
Continuous
62
0
370
-2
100
AcDbPolyline
90
2
70
0
10
35.151497
20
16.722540
30
0.000000
42
0.000000
10
36.926456
20
15.574442
30
0.000000
0
LWPOLYLINE
5
9A
100
AcDbEntity
67
0
8
0
6
Continuous
62
0
370
-2
100
AcDbPolyline
90
12
70
0
10
36.926456
20
15.574442
30
0.000000
42
0.000000
10
36.683074
20
14.875095
30
0.000000
42
0.000000
10
36.428587
20
14.006701
30
0.000000
42
0.000000
10
36.179401
20
12.966795
30
0.000000
42
0.000000
10
35.952119
20
11.754137
30
0.000000
42
0.000000
10
35.721896
20
9.971028
30
0.000000
42
0.000000
10
37.420262
20
9.003014
30
0.000000
42
0.000000
10
38.837162
20
10.109755
30
0.000000
42
0.000000
10
39.764734
20
10.923270
30
0.000000
42
0.000000
10
40.532505
20
11.667599
30
0.000000
42
0.000000
10
41.150003
20
12.329089
30
0.000000
42
0.000000
10
41.627708
20
12.894879
30
0.000000
0
LWPOLYLINE
5
9B
100
AcDbEntity
67
0
8
0
6
Continuous
62
0
370
-2
100
AcDbPolyline
90
2
70
0
10
41.627708
20
12.894879
30
0.000000
42
0.000000
10
43.520052
20
11.952732
30
0.000000
0
LWPOLYLINE
5
9C
100
AcDbEntity
67
0
8
0
6
Continuous
62
0
370
-2
100
AcDbPolyline
90
12
70
0
10
43.520052
20
11.952732
30
0.000000
42
0.000000
10
43.356502
20
11.230532
30
0.000000
42
0.000000
10
43.200845
20
10.339105
30
0.000000
42
0.000000
10
43.069658
20
9.277838
30
0.000000
42
0.000000
10
42.979580
20
8.047357
30
0.000000
42
0.000000
10
42.950450
20
6.249683
30
0.000000
42
0.000000
10
44.746520
20
5.477912
30
0.000000
42
0.000000
10
46.030594
20
6.736337
30
0.000000
42
0.000000
10
46.861250
20
7.648592
30
0.000000
42
0.000000
10
47.540855
20
8.474204
30
0.000000
42
0.000000
10
48.080407
20
9.200672
30
0.000000
42
0.000000
10
48.491759
20
9.816390
30
0.000000
0
LWPOLYLINE
5
9D
100
AcDbEntity
67
0
8
0
6
Continuous
62
0
370
-2
100
AcDbPolyline
90
2
70
0
10
48.491759
20
9.816390
30
0.000000
42
0.000000
10
50.477692
20
9.092043
30
0.000000
0
LWPOLYLINE
5
9E
100
AcDbEntity
67
0
8
0
6
Continuous
62
0
370
-2
100
AcDbPolyline
90
12
70
0
10
50.477692
20
9.092043
30
0.000000
42
0.000000
10
50.396031
20
8.356073
30
0.000000
42
0.000000
10
50.341160
20
7.452822
30
0.000000
42
0.000000
10
50.329623
20
6.383540
30
0.000000
42
0.000000
10
50.377882
20
5.150711
30
0.000000
42
0.000000
10
50.550210
20
3.361078
30
0.000000
42
0.000000
10
52.421398
20
2.795256
30
0.000000
42
0.000000
10
53.556499
20
4.189539
30
0.000000
42
0.000000
10
54.279792
20
5.189062
30
0.000000
42
0.000000
10
54.862684
20
6.085574
30
0.000000
42
0.000000
10
55.317505
20
6.867885
30
0.000000
42
0.000000
10
55.657332
20
7.525789
30
0.000000
0
LWPOLYLINE
5
9F
100
AcDbEntity
67
0
8
0
6
Continuous
62
0
370
-2
100
AcDbPolyline
90
2
70
0
10
55.657332
20
7.525789
30
0.000000
42
0.000000
10
57.711879
20
7.028350
30
0.000000
0
LWPOLYLINE
5
A0
100
AcDbEntity
67
0
8
0
6
Continuous
62
0
370
-2
100
AcDbPolyline
90
12
70
0
10
57.711879
20
7.028350
30
0.000000
42
0.000000
10
57.713134
20
6.287864
30
0.000000
42
0.000000
10
57.759741
20
5.384150
30
0.000000
42
0.000000
10
57.867997
20
4.320299
30
0.000000
42
0.000000
10
58.053986
20
3.100625
30
0.000000
42
0.000000
10
58.425606
20
1.341540
30
0.000000
42
0.000000
10
60.348380
20
0.988782
30
0.000000
42
0.000000
10
61.320234
20
2.501389
30
0.000000
42
0.000000
10
61.927067
20
3.575610
30
0.000000
42
0.000000
10
62.405917
20
4.531749
30
0.000000
42
0.000000
10
62.770287
20
5.360064
30
0.000000
42
0.000000
10
63.034316
20
6.051880
30
0.000000
0
LWPOLYLINE
5
A1
100
AcDbEntity
67
0
8
0
6
Continuous
62
0
370
-2
100
AcDbPolyline
90
2
70
0
10
63.034316
20
6.051880
30
0.000000
42
0.000000
10
65.131640
20
5.787605
30
0.000000
0
LWPOLYLINE
5
A2
100
AcDbEntity
67
0
8
0
6
Continuous
62
0
370
-2
100
AcDbPolyline
90
12
70
0
10
65.131640
20
5.787605
30
0.000000
42
0.000000
10
65.215795
20
5.051916
30
0.000000
42
0.000000
10
65.363292
20
4.159102
30
0.000000
42
0.000000
10
65.589982
20
3.114061
30
0.000000
42
0.000000
10
65.911361
20
1.922880
30
0.000000
42
0.000000
10
66.477599
20
0.216464
30
0.000000
42
0.000000
10
68.427779
20
0.081207
30
0.000000
42
0.000000
10
69.224165
20
1.693116
30
0.000000
42
0.000000
10
69.706908
20
2.828527
30
0.000000
42
0.000000
10
70.075693
20
3.832267
30
0.000000
42
0.000000
10
70.345030
20
4.696171
30
0.000000
42
0.000000
10
70.529940
20
5.413198
30
0.000000
0
LWPOLYLINE
5
A3
100
AcDbEntity
67
0
8
0
6
Continuous
62
0
370
-2
100
AcDbPolyline
90
2
70
0
10
70.529940
20
5.413198
30
0.000000
42
0.000000
10
72.643666
20
5.385411
30
0.000000
0
LWPOLYLINE
5
A4
100
AcDbEntity
67
0
8
0
6
Continuous
62
0
370
-2
100
AcDbPolyline
90
12
70
0
10
72.643666
20
5.385411
30
0.000000
42
0.000000
10
72.809663
20
4.663770
30
0.000000
42
0.000000
10
73.056196
20
3.793084
30
0.000000
42
0.000000
10
73.398467
20
2.779996
30
0.000000
42
0.000000
10
73.851196
20
1.632288
30
0.000000
42
0.000000
10
74.604932
20
0.000000
30
0.000000
42
0.000000
10
76.557994
20
0.083944
30
0.000000
42
0.000000
10
77.168895
20
1.774885
30
0.000000
42
0.000000
10
77.521477
20
2.957206
30
0.000000
42
0.000000
10
77.775560
20
3.995926
30
0.000000
42
0.000000
10
77.946477
20
4.884554
30
0.000000
42
0.000000
10
78.049943
20
5.617777
30
0.000000
0
LWPOLYLINE
5
A5
100
AcDbEntity
67
0
8
0
6
Continuous
62
0
370
-2
100
AcDbPolyline
90
2
70
0
10
78.049943
20
5.617777
30
0.000000
42
0.000000
10
80.153489
20
5.826826
30
0.000000
0
LWPOLYLINE
5
A6
100
AcDbEntity
67
0
8
0
6
Continuous
62
0
370
-2
100
AcDbPolyline
90
12
70
0
10
80.153489
20
5.826826
30
0.000000
42
0.000000
10
80.399240
20
5.128308
30
0.000000
42
0.000000
10
80.741709
20
4.290701
30
0.000000
42
0.000000
10
81.195259
20
3.322304
30
0.000000
42
0.000000
10
81.773643
20
2.232502
30
0.000000
42
0.000000
10
82.705398
20
0.694870
30
0.000000
42
0.000000
10
84.636781
20
0.996959
30
0.000000
42
0.000000
10
85.054515
20
2.745667
30
0.000000
42
0.000000
10
85.272503
20
3.960031
30
0.000000
42
0.000000
10
85.408688
20
5.020668
30
0.000000
42
0.000000
10
85.479036
20
5.922845
30
0.000000
42
0.000000
10
85.499756
20
6.663042
30
0.000000
0
LWPOLYLINE
5
A7
100
AcDbEntity
67
0
8
0
6
Continuous
62
0
370
-2
100
AcDbPolyline
90
2
70
0
10
85.499756
20
6.663042
30
0.000000
42
0.000000
10
87.566669
20
7.106299
30
0.000000
0
LWPOLYLINE
5
A8
100
AcDbEntity
67
0
8
0
6
Continuous
62
0
370
-2
100
AcDbPolyline
90
12
70
0
10
87.566669
20
7.106299
30
0.000000
42
0.000000
10
87.889085
20
6.439689
30
0.000000
42
0.000000
10
88.323183
20
5.645692
30
0.000000
42
0.000000
10
88.882306
20
4.734167
30
0.000000
42
0.000000
10
89.579073
20
3.715975
30
0.000000
42
0.000000
10
90.677129
20
2.292334
30
0.000000
42
0.000000
10
92.562544
20
2.808771
30
0.000000
42
0.000000
10
92.781859
20
4.593255
30
0.000000
42
0.000000
10
92.862510
20
5.824390
30
0.000000
42
0.000000
10
92.879086
20
6.893606
30
0.000000
42
0.000000
10
92.847979
20
7.797986
30
0.000000
42
0.000000
10
92.785694
20
8.535849
30
0.000000
0
LWPOLYLINE
5
A9
100
AcDbEntity
67
0
8
0
6
Continuous
62
0
370
-2
100
AcDbPolyline
90
2
70
0
10
92.785694
20
8.535849
30
0.000000
42
0.000000
10
94.789982
20
9.207740
30
0.000000
0
LWPOLYLINE
5
AA
100
AcDbEntity
67
0
8
0
6
Continuous
62
0
370
-2
100
AcDbPolyline
90
12
70
0
10
94.789982
20
9.207740
30
0.000000
42
0.000000
10
95.185006
20
8.581420
30
0.000000
42
0.000000
10
95.705274
20
7.841020
30
0.000000
42
0.000000
10
96.362940
20
6.997827
30
0.000000
42
0.000000
10
97.169327
20
6.064052
30
0.000000
42
0.000000
10
98.419877
20
4.772305
30
0.000000
42
0.000000
10
100.235614
20
5.496594
30
0.000000
42
0.000000
10
100.253751
20
7.294413
30
0.000000
42
0.000000
10
100.196052
20
8.526837
30
0.000000
42
0.000000
10
100.092809
20
9.591186
30
0.000000
42
0.000000
10
99.960639
20
10.486397
30
0.000000
42
0.000000
10
99.816131
20
11.212646
30
0.000000
0
LWPOLYLINE
5
AB
100
AcDbEntity
67
0
8
0
6
Continuous
62
0
370
-2
100
AcDbPolyline
90
2
70
0
10
99.816131
20
11.212646
30
0.000000
42
0.000000
10
101.732589
20
12.104721
30
0.000000
0
LWPOLYLINE
5
AC
100
AcDbEntity
67
0
8
0
6
Continuous
62
0
370
-2
100
AcDbPolyline
90
12
70
0
10
101.732589
20
12.104721
30
0.000000
42
0.000000
10
102.195255
20
11.526569
30
0.000000
42
0.000000
10
102.795150
20
10.849075
30
0.000000
42
0.000000
10
103.543089
20
10.084820
30
0.000000
42
0.000000
10
104.448955
20
9.247202
30
0.000000
42
0.000000
10
105.836271
20
8.103596
30
0.000000
42
0.000000
10
107.559497
20
9.026628
30
0.000000
42
0.000000
10
107.376228
20
10.815174
30
0.000000
42
0.000000
10
107.180903
20
12.033388
30
0.000000
42
0.000000
10
106.959141
20
13.079485
30
0.000000
42
0.000000
10
106.727570
20
13.954269
30
0.000000
42
0.000000
10
106.502656
20
14.659772
30
0.000000
0
LWPOLYLINE
5
AD
100
AcDbEntity
67
0
8
0
6
Continuous
62
0
370
-2
100
AcDbPolyline
90
2
70
0
10
106.502656
20
14.659772
30
0.000000
42
0.000000
10
108.307183
20
15.760813
30
0.000000
0
LWPOLYLINE
5
AE
100
AcDbEntity
67
0
8
0
6
Continuous
62
0
370
-2
100
AcDbPolyline
90
12
70
0
10
108.307183
20
15.760813
30
0.000000
42
0.000000
10
108.831673
20
15.238098
30
0.000000
42
0.000000
10
109.503651
20
14.632031
30
0.000000
42
0.000000
10
110.332456
20
13.956324
30
0.000000
42
0.000000
10
111.326410
20
13.225398
30
0.000000
42
0.000000
10
112.833046
20
12.244312
30
0.000000
42
0.000000
10
114.442090
20
13.354481
30
0.000000
42
0.000000
10
114.059719
20
15.111261
30
0.000000
42
0.000000
10
113.729227
20
16.299946
30
0.000000
42
0.000000
10
113.391732
20
17.314635
30
0.000000
42
0.000000
10
113.063673
20
18.157991
30
0.000000
42
0.000000
10
112.761182
20
18.833876
30
0.000000
0
LWPOLYLINE
5
AF
100
AcDbEntity
67
0
8
0
6
Continuous
62
0
370
-2
100
AcDbPolyline
90
2
70
0
10
112.761182
20
18.833876
30
0.000000
42
0.000000
10
114.431085
20
20.130037
30
0.000000
0
LWPOLYLINE
5
B0
100
AcDbEntity
67
0
8
0
6
Continuous
62
0
370
-2
100
AcDbPolyline
90
12
70
0
10
114.431085
20
20.130037
30
0.000000
42
0.000000
10
115.010802
20
19.669333
30
0.000000
42
0.000000
10
115.746413
20
19.142314
30
0.000000
42
0.000000
10
116.645662
20
18.563653
30
0.000000
42
0.000000
10
117.715204
20
17.948610
30
0.000000
42
0.000000
10
119.322214
20
17.142383
30
0.000000
42
0.000000
10
120.796840
20
18.425727
30
0.000000
42
0.000000
10
120.220178
20
20.128648
30
0.000000
42
0.000000
10
119.758672
20
21.272856
30
0.000000
42
0.000000
10
119.309691
20
22.243378
30
0.000000
42
0.000000
10
118.889269
20
23.044700
30
0.000000
42
0.000000
10
118.513005
20
23.682466
30
0.000000
0
LWPOLYLINE
5
B1
100
AcDbEntity
67
0
8
0
6
Continuous
62
0
370
-2
100
AcDbPolyline
90
2
70
0
10
118.513005
20
23.682466
30
0.000000
42
0.000000
10
120.027284
20
25.157447
30
0.000000
0
LWPOLYLINE
5
B2
100
AcDbEntity
67
0
8
0
6
Continuous
62
0
370
-2
100
AcDbPolyline
90
12
70
0
10
120.027284
20
25.157447
30
0.000000
42
0.000000
10
120.654938
20
24.764548
30
0.000000
42
0.000000
10
121.444931
20
24.323205
30
0.000000
42
0.000000
10
122.403315
20
23.848866
30
0.000000
42
0.000000
10
123.534995
20
23.357442
30
0.000000
42
0.000000
10
125.222169
20
22.736211
30
0.000000
42
0.000000
10
126.543835
20
24.176592
30
0.000000
42
0.000000
10
125.780131
20
25.804240
30
0.000000
42
0.000000
10
125.193417
20
26.889581
30
0.000000
42
0.000000
10
124.638595
20
27.803731
30
0.000000
42
0.000000
10
124.131096
20
28.552942
30
0.000000
42
0.000000
10
123.685791
20
29.144570
30
0.000000
0
LWPOLYLINE
5
B3
100
AcDbEntity
67
0
8
0
6
Continuous
62
0
370
-2
100
AcDbPolyline
90
2
70
0
10
123.685791
20
29.144570
30
0.000000
42
0.000000
10
125.025403
20
30.779822
30
0.000000
0
LWPOLYLINE
5
B4
100
AcDbEntity
67
0
8
0
6
Continuous
62
0
370
-2
100
AcDbPolyline
90
12
70
0
10
125.025403
20
30.779822
30
0.000000
42
0.000000
10
125.693102
20
30.459668
30
0.000000
42
0.000000
10
126.527542
20
30.109552
30
0.000000
42
0.000000
10
127.533009
20
29.745500
30
0.000000
42
0.000000
10
128.712595
20
29.383873
30
0.000000
42
0.000000
10
130.458716
20
28.955453
30
0.000000
42
0.000000
10
131.610800
20
30.534756
30
0.000000
42
0.000000
10
130.669660
20
32.066663
30
0.000000
42
0.000000
10
129.965115
20
33.079488
30
0.000000
42
0.000000
10
129.311430
20
33.925769
30
0.000000
42
0.000000
10
128.723237
20
34.613448
30
0.000000
42
0.000000
10
128.214491
20
35.151497
30
0.000000
0
LWPOLYLINE
5
B5
100
AcDbEntity
67
0
8
0
6
Continuous
62
0
370
-2
100
AcDbPolyline
90
2
70
0
10
128.214491
20
35.151497
30
0.000000
42
0.000000
10
129.362589
20
36.926456
30
0.000000
0
LWPOLYLINE
5
B6
100
AcDbEntity
67
0
8
0
6
Continuous
62
0
370
-2
100
AcDbPolyline
90
12
70
0
10
129.362589
20
36.926456
30
0.000000
42
0.000000
10
130.061935
20
36.683074
30
0.000000
42
0.000000
10
130.930330
20
36.428587
30
0.000000
42
0.000000
10
131.970235
20
36.179401
30
0.000000
42
0.000000
10
133.182894
20
35.952119
30
0.000000
42
0.000000
10
134.966003
20
35.721896
30
0.000000
42
0.000000
10
135.934017
20
37.420262
30
0.000000
42
0.000000
10
134.827276
20
38.837162
30
0.000000
42
0.000000
10
134.013761
20
39.764734
30
0.000000
42
0.000000
10
133.269432
20
40.532505
30
0.000000
42
0.000000
10
132.607942
20
41.150003
30
0.000000
42
0.000000
10
132.042152
20
41.627708
30
0.000000
0
LWPOLYLINE
5
B7
100
AcDbEntity
67
0
8
0
6
Continuous
62
0
370
-2
100
AcDbPolyline
90
2
70
0
10
132.042152
20
41.627708
30
0.000000
42
0.000000
10
132.984299
20
43.520052
30
0.000000
0
LWPOLYLINE
5
B8
100
AcDbEntity
67
0
8
0
6
Continuous
62
0
370
-2
100
AcDbPolyline
90
12
70
0
10
132.984299
20
43.520052
30
0.000000
42
0.000000
10
133.706498
20
43.356502
30
0.000000
42
0.000000
10
134.597926
20
43.200845
30
0.000000
42
0.000000
10
135.659193
20
43.069658
30
0.000000
42
0.000000
10
136.889674
20
42.979580
30
0.000000
42
0.000000
10
138.687348
20
42.950450
30
0.000000
42
0.000000
10
139.459119
20
44.746520
30
0.000000
42
0.000000
10
138.200694
20
46.030594
30
0.000000
42
0.000000
10
137.288439
20
46.861250
30
0.000000
42
0.000000
10
136.462827
20
47.540855
30
0.000000
42
0.000000
10
135.736359
20
48.080407
30
0.000000
42
0.000000
10
135.120640
20
48.491759
30
0.000000
0
LWPOLYLINE
5
B9
100
AcDbEntity
67
0
8
0
6
Continuous
62
0
370
-2
100
AcDbPolyline
90
2
70
0
10
135.120640
20
48.491759
30
0.000000
42
0.000000
10
135.844988
20
50.477692
30
0.000000
0
LWPOLYLINE
5
BA
100
AcDbEntity
67
0
8
0
6
Continuous
62
0
370
-2
100
AcDbPolyline
90
12
70
0
10
135.844988
20
50.477692
30
0.000000
42
0.000000
10
136.580958
20
50.396031
30
0.000000
42
0.000000
10
137.484208
20
50.341160
30
0.000000
42
0.000000
10
138.553491
20
50.329623
30
0.000000
42
0.000000
10
139.786320
20
50.377882
30
0.000000
42
0.000000
10
141.575953
20
50.550210
30
0.000000
42
0.000000
10
142.141775
20
52.421398
30
0.000000
42
0.000000
10
140.747491
20
53.556499
30
0.000000
42
0.000000
10
139.747969
20
54.279792
30
0.000000
42
0.000000
10
138.851457
20
54.862684
30
0.000000
42
0.000000
10
138.069146
20
55.317505
30
0.000000
42
0.000000
10
137.411242
20
55.657332
30
0.000000
0
LWPOLYLINE
5
BB
100
AcDbEntity
67
0
8
0
6
Continuous
62
0
370
-2
100
AcDbPolyline
90
2
70
0
10
137.411242
20
55.657332
30
0.000000
42
0.000000
10
137.908681
20
57.711879
30
0.000000
0
LWPOLYLINE
5
BC
100
AcDbEntity
67
0
8
0
6
Continuous
62
0
370
-2
100
AcDbPolyline
90
12
70
0
10
137.908681
20
57.711879
30
0.000000
42
0.000000
10
138.649167
20
57.713134
30
0.000000
42
0.000000
10
139.552881
20
57.759741
30
0.000000
42
0.000000
10
140.616732
20
57.867997
30
0.000000
42
0.000000
10
141.836406
20
58.053986
30
0.000000
42
0.000000
10
143.595491
20
58.425606
30
0.000000
42
0.000000
10
143.948249
20
60.348380
30
0.000000
42
0.000000
10
142.435642
20
61.320234
30
0.000000
42
0.000000
10
141.361421
20
61.927067
30
0.000000
42
0.000000
10
140.405282
20
62.405917
30
0.000000
42
0.000000
10
139.576967
20
62.770287
30
0.000000
42
0.000000
10
138.885151
20
63.034316
30
0.000000
0
LWPOLYLINE
5
BD
100
AcDbEntity
67
0
8
0
6
Continuous
62
0
370
-2
100
AcDbPolyline
90
2
70
0
10
138.885151
20
63.034316
30
0.000000
42
0.000000
10
139.149426
20
65.131640
30
0.000000
0
LWPOLYLINE
5
BE
100
AcDbEntity
67
0
8
0
6
Continuous
62
0
370
-2
100
AcDbPolyline
90
12
70
0
10
139.149426
20
65.131640
30
0.000000
42
0.000000
10
139.885115
20
65.215795
30
0.000000
42
0.000000
10
140.777929
20
65.363292
30
0.000000
42
0.000000
10
141.822969
20
65.589982
30
0.000000
42
0.000000
10
143.014151
20
65.911361
30
0.000000
42
0.000000
10
144.720567
20
66.477599
30
0.000000
42
0.000000
10
144.855824
20
68.427779
30
0.000000
42
0.000000
10
143.243914
20
69.224165
30
0.000000
42
0.000000
10
142.108504
20
69.706908
30
0.000000
42
0.000000
10
141.104764
20
70.075693
30
0.000000
42
0.000000
10
140.240860
20
70.345030
30
0.000000
42
0.000000
10
139.523832
20
70.529940
30
0.000000
0
LWPOLYLINE
5
BF
100
AcDbEntity
67
0
8
0
6
Continuous
62
0
370
-2
100
AcDbPolyline
90
2
70
0
10
139.523832
20
70.529940
30
0.000000
42
0.000000
10
139.551620
20
72.643666
30
0.000000
0
ENDBLK
5
C0
330
4D
100
AcDbEntity
8
0
100
AcDbBlockEnd
0
BLOCK
5
C3
330
C2
100
AcDbEntity
8
0
100
AcDbBlockBegin
2
gear-30
70
0
10
0.000000
20
0.000000
30
0.000000
3
gear-30
1

4

0
CIRCLE
5
C4
100
AcDbEntity
67
0
8
0
6
Dot
62
0
370
-2
100
AcDbCircle
10
39.960897
20
39.995846
30
0.000000
40
37.500000
0
LWPOLYLINE
5
C5
100
AcDbEntity
67
0
8
0
6
Continuous
62
0
370
-2
100
AcDbPolyline
90
2
70
0
10
39.960897
20
39.995846
30
0.000000
42
0.000000
10
79.870442
20
42.684388
30
0.000000
0
LWPOLYLINE
5
C6
100
AcDbEntity
67
0
8
0
6
Continuous
62
0
370
-2
100
AcDbPolyline
90
22
70
0
10
75.199371
20
39.995846
30
0.000000
42
0.000000
10
75.243391
20
39.997314
30
0.000000
42
0.000000
10
75.375123
20
40.007581
30
0.000000
42
0.000000
10
75.593576
20
40.035400
30
0.000000
42
0.000000
10
75.897108
20
40.089440
30
0.000000
42
0.000000
10
76.283426
20
40.178235
30
0.000000
42
0.000000
10
76.749601
20
40.310147
30
0.000000
42
0.000000
10
77.292076
20
40.493320
30
0.000000
42
0.000000
10
77.906684
20
40.735641
30
0.000000
42
0.000000
10
78.588663
20
41.044696
30
0.000000
42
0.000000
10
79.921795
20
41.764090
30
0.000000
42
0.000000
10
79.797897
20
43.603258
30
0.000000
42
0.000000
10
78.380324
20
44.137349
30
0.000000
42
0.000000
10
77.663055
20
44.352143
30
0.000000
42
0.000000
10
77.021499
20
44.509841
30
0.000000
42
0.000000
10
76.459358
20
44.618600
30
0.000000
42
0.000000
10
75.979703
20
44.686795
30
0.000000
42
0.000000
10
75.584966
20
44.722974
30
0.000000
42
0.000000
10
75.276929
20
44.735815
30
0.000000
42
0.000000
10
75.056718
20
44.734084
30
0.000000
42
0.000000
10
74.924799
20
44.726589
30
0.000000
42
0.000000
10
74.880980
20
44.722140
30
0.000000
0
LWPOLYLINE
5
C7
100
AcDbEntity
67
0
8
0
6
Continuous
62
0
370
-2
100
AcDbPolyline
90
2
70
0
10
74.880980
20
44.722140
30
0.000000
42
-1.300000
10
74.429325
20
47.322337
30
0.000000
0
LWPOLYLINE
5
C8
100
AcDbEntity
67
0
8
0
6
Continuous
62
0
370
-2
100
AcDbPolyline
90
22
70
0
10
74.429325
20
47.322337
30
0.000000
42
0.000000
10
74.472079
20
47.332925
30
0.000000
42
0.000000
10
74.598797
20
47.370356
30
0.000000
42
0.000000
10
74.806693
20
47.442986
30
0.000000
42
0.000000
10
75.092356
20
47.558953
30
0.000000
42
0.000000
10
75.451771
20
47.726128
30
0.000000
42
0.000000
10
75.880333
20
47.952081
30
0.000000
42
0.000000
10
76.372869
20
48.244038
30
0.000000
42
0.000000
10
76.923665
20
48.608847
30
0.000000
42
0.000000
10
77.526486
20
49.052940
30
0.000000
42
0.000000
10
78.680914
20
50.033788
30
0.000000
42
0.000000
10
78.177340
20
51.807006
30
0.000000
42
0.000000
10
76.679700
20
52.034695
30
0.000000
42
0.000000
10
75.933447
20
52.095666
30
0.000000
42
0.000000
10
75.273124
20
52.116531
30
0.000000
42
0.000000
10
74.700655
20
52.106039
30
0.000000
42
0.000000
10
74.217303
20
52.073018
30
0.000000
42
0.000000
10
73.823669
20
52.026335
30
0.000000
42
0.000000
10
73.519694
20
51.974851
30
0.000000
42
0.000000
10
73.304655
20
51.927373
30
0.000000
42
0.000000
10
73.177177
20
51.892615
30
0.000000
42
0.000000
10
73.135240
20
51.879152
30
0.000000
0
LWPOLYLINE
5
C9
100
AcDbEntity
67
0
8
0
6
Continuous
62
0
370
-2
100
AcDbPolyline
90
2
70
0
10
73.135240
20
51.879152
30
0.000000
42
-1.300000
10
72.152844
20
54.328624
30
0.000000
0
LWPOLYLINE
5
CA
100
AcDbEntity
67
0
8
0
6
Continuous
62
0
370
-2
100
AcDbPolyline
90
22
70
0
10
72.152844
20
54.328624
30
0.000000
42
0.000000
10
72.192462
20
54.347870
30
0.000000
42
0.000000
10
72.308629
20
54.410829
30
0.000000
42
0.000000
10
72.496881
20
54.525097
30
0.000000
42
0.000000
10
72.752191
20
54.697922
30
0.000000
42
0.000000
10
73.068994
20
54.936170
30
0.000000
42
0.000000
10
73.441213
20
55.246288
30
0.000000
42
0.000000
10
73.862285
20
55.634270
30
0.000000
42
0.000000
10
74.325197
20
56.105624
30
0.000000
42
0.000000
10
74.822512
20
56.665346
30
0.000000
42
0.000000
10
75.747784
20
57.864779
30
0.000000
42
0.000000
10
74.886541
20
59.494549
30
0.000000
42
0.000000
10
73.374289
20
59.405886
30
0.000000
42
0.000000
10
72.631667
20
59.310370
30
0.000000
42
0.000000
10
71.981435
20
59.193490
30
0.000000
42
0.000000
10
71.423657
20
59.064203
30
0.000000
42
0.000000
10
70.957733
20
58.931410
30
0.000000
42
0.000000
10
70.582407
20
58.803906
30
0.000000
42
0.000000
10
70.295778
20
58.690347
30
0.000000
42
0.000000
10
70.095310
20
58.599198
30
0.000000
42
0.000000
10
69.977845
20
58.538695
30
0.000000
42
0.000000
10
69.939623
20
58.516807
30
0.000000
0
LWPOLYLINE
5
CB
100
AcDbEntity
67
0
8
0
6
Continuous
62
0
370
-2
100
AcDbPolyline
90
2
70
0
10
69.939623
20
58.516807
30
0.000000
42
-1.300000
10
68.469421
20
60.708501
30
0.000000
0
LWPOLYLINE
5
CC
100
AcDbEntity
67
0
8
0
6
Continuous
62
0
370
-2
100
AcDbPolyline
90
22
70
0
10
68.469421
20
60.708501
30
0.000000
42
0.000000
10
68.504172
20
60.735563
30
0.000000
42
0.000000
10
68.604710
20
60.821299
30
0.000000
42
0.000000
10
68.765091
20
60.972209
30
0.000000
42
0.000000
10
68.978889
20
61.194340
30
0.000000
42
0.000000
10
69.239235
20
61.493249
30
0.000000
42
0.000000
10
69.538842
20
61.873978
30
0.000000
42
0.000000
10
69.870047
20
62.341027
30
0.000000
42
0.000000
10
70.224843
20
62.898326
30
0.000000
42
0.000000
10
70.594918
20
63.549214
30
0.000000
42
0.000000
10
71.250595
20
64.914812
30
0.000000
42
0.000000
10
70.069324
20
66.329905
30
0.000000
42
0.000000
10
68.608552
20
65.928765
30
0.000000
42
0.000000
10
67.902017
20
65.680936
30
0.000000
42
0.000000
10
67.290295
20
65.431420
30
0.000000
42
0.000000
10
66.771586
20
65.188990
30
0.000000
42
0.000000
10
66.343452
20
64.962227
30
0.000000
42
0.000000
10
66.002838
20
64.759475
30
0.000000
42
0.000000
10
65.746083
20
64.588804
30
0.000000
42
0.000000
10
65.568946
20
64.457966
30
0.000000
42
0.000000
10
65.466627
20
64.374364
30
0.000000
42
0.000000
10
65.433792
20
64.345007
30
0.000000
0
LWPOLYLINE
5
CD
100
AcDbEntity
67
0
8
0
6
Continuous
62
0
370
-2
100
AcDbPolyline
90
2
70
0
10
65.433792
20
64.345007
30
0.000000
42
-1.300000
10
63.540038
20
66.183135
30
0.000000
0
LWPOLYLINE
5
CE
100
AcDbEntity
67
0
8
0
6
Continuous
62
0
370
-2
100
AcDbPolyline
90
22
70
0
10
63.540038
20
66.183135
30
0.000000
42
0.000000
10
63.568403
20
66.216831
30
0.000000
42
0.000000
10
63.648919
20
66.321596
30
0.000000
42
0.000000
10
63.774419
20
66.502554
30
0.000000
42
0.000000
10
63.937362
20
66.764282
30
0.000000
42
0.000000
10
64.129872
20
67.110788
30
0.000000
42
0.000000
10
64.343774
20
67.545489
30
0.000000
42
0.000000
10
64.570636
20
68.071193
30
0.000000
42
0.000000
10
64.801810
20
68.690080
30
0.000000
42
0.000000
10
65.028470
20
69.403688
30
0.000000
42
0.000000
10
65.385895
20
70.875766
30
0.000000
42
0.000000
10
63.936224
20
72.014337
30
0.000000
42
0.000000
10
62.590775
20
71.318250
30
0.000000
42
0.000000
10
61.951206
20
70.928941
30
0.000000
42
0.000000
10
61.404729
20
70.557693
30
0.000000
42
0.000000
10
60.947759
20
70.212715
30
0.000000
42
0.000000
10
60.576128
20
69.901893
30
0.000000
42
0.000000
10
60.285111
20
69.632754
30
0.000000
42
0.000000
10
60.069451
20
69.412430
30
0.000000
42
0.000000
10
59.923388
20
69.247623
30
0.000000
42
0.000000
10
59.840687
20
69.144574
30
0.000000
42
0.000000
10
59.814673
20
69.109032
30
0.000000
0
LWPOLYLINE
5
CF
100
AcDbEntity
67
0
8
0
6
Continuous
62
0
370
-2
100
AcDbPolyline
90
2
70
0
10
59.814673
20
69.109032
30
0.000000
42
-1.300000
10
57.580134
20
70.513259
30
0.000000
0
LWPOLYLINE
5
D0
100
AcDbEntity
67
0
8
0
6
Continuous
62
0
370
-2
100
AcDbPolyline
90
22
70
0
10
57.580134
20
70.513259
30
0.000000
42
0.000000
10
57.600873
20
70.552116
30
0.000000
42
0.000000
10
57.657848
20
70.671332
30
0.000000
42
0.000000
10
57.742982
20
70.874428
30
0.000000
42
0.000000
10
57.847948
20
71.164314
30
0.000000
42
0.000000
10
57.964208
20
71.543273
30
0.000000
42
0.000000
10
58.083056
20
72.012949
30
0.000000
42
0.000000
10
58.195661
20
72.574332
30
0.000000
42
0.000000
10
58.293110
20
73.227758
30
0.000000
42
0.000000
10
58.366450
20
73.972897
30
0.000000
42
0.000000
10
58.410002
20
75.487120
30
0.000000
42
0.000000
10
56.755287
20
76.299406
30
0.000000
42
0.000000
10
55.583964
20
75.338797
30
0.000000
42
0.000000
10
55.039313
20
74.825021
30
0.000000
42
0.000000
10
54.581965
20
74.348266
30
0.000000
42
0.000000
10
54.206705
20
73.915817
30
0.000000
42
0.000000
10
53.907819
20
73.534522
30
0.000000
42
0.000000
10
53.679119
20
73.210758
30
0.000000
42
0.000000
10
53.513979
20
72.950411
30
0.000000
42
0.000000
10
53.405373
20
72.758837
30
0.000000
42
0.000000
10
53.345905
20
72.640845
30
0.000000
42
0.000000
10
53.327848
20
72.600671
30
0.000000
0
LWPOLYLINE
5
D1
100
AcDbEntity
67
0
8
0
6
Continuous
62
0
370
-2
100
AcDbPolyline
90
2
70
0
10
53.327848
20
72.600671
30
0.000000
42
-1.300000
10
50.850184
20
73.509626
30
0.000000
0
LWPOLYLINE
5
D2
100
AcDbEntity
67
0
8
0
6
Continuous
62
0
370
-2
100
AcDbPolyline
90
22
70
0
10
50.850184
20
73.509626
30
0.000000
42
0.000000
10
50.862391
20
73.551945
30
0.000000
42
0.000000
10
50.893335
20
73.680402
30
0.000000
42
0.000000
10
50.934382
20
73.896761
30
0.000000
42
0.000000
10
50.976784
20
74.202136
30
0.000000
42
0.000000
10
51.011714
20
74.596985
30
0.000000
42
0.000000
10
51.030314
20
75.081107
30
0.000000
42
0.000000
10
51.023740
20
75.653635
30
0.000000
42
0.000000
10
50.983204
20
76.313043
30
0.000000
42
0.000000
10
50.900018
20
77.057147
30
0.000000
42
0.000000
10
50.627794
20
78.547335
30
0.000000
42
0.000000
10
48.840354
20
78.997836
30
0.000000
42
0.000000
10
47.894350
20
77.814687
30
0.000000
42
0.000000
10
47.468420
20
77.198898
30
0.000000
42
0.000000
10
47.120189
20
76.637474
30
0.000000
42
0.000000
10
46.843042
20
76.136455
30
0.000000
42
0.000000
10
46.629963
20
75.701349
30
0.000000
42
0.000000
10
46.473574
20
75.337112
30
0.000000
42
0.000000
10
46.366173
20
75.048119
30
0.000000
42
0.000000
10
46.299770
20
74.838151
30
0.000000
42
0.000000
10
46.266133
20
74.710373
30
0.000000
42
0.000000
10
46.256824
20
74.667323
30
0.000000
0
LWPOLYLINE
5
D3
100
AcDbEntity
67
0
8
0
6
Continuous
62
0
370
-2
100
AcDbPolyline
90
2
70
0
10
46.256824
20
74.667323
30
0.000000
42
-1.300000
10
43.644321
20
75.041279
30
0.000000
0
LWPOLYLINE
5
D4
100
AcDbEntity
67
0
8
0
6
Continuous
62
0
370
-2
100
AcDbPolyline
90
22
70
0
10
43.644321
20
75.041279
30
0.000000
42
0.000000
10
43.647462
20
75.085212
30
0.000000
42
0.000000
10
43.651022
20
75.217295
30
0.000000
42
0.000000
10
43.646189
20
75.437460
30
0.000000
42
0.000000
10
43.624173
20
75.744978
30
0.000000
42
0.000000
10
43.576245
20
76.138461
30
0.000000
42
0.000000
10
43.493785
20
76.615871
30
0.000000
42
0.000000
10
43.368319
20
77.174521
30
0.000000
42
0.000000
10
43.191570
20
77.811091
30
0.000000
42
0.000000
10
42.955494
20
78.521640
30
0.000000
42
0.000000
10
42.379391
20
79.922665
30
0.000000
42
0.000000
10
40.537347
20
79.991692
30
0.000000
42
0.000000
10
39.858006
20
78.637712
30
0.000000
42
0.000000
10
39.569414
20
77.946824
30
0.000000
42
0.000000
10
39.345519
20
77.325267
30
0.000000
42
0.000000
10
39.178595
20
76.777574
30
0.000000
42
0.000000
10
39.060636
20
76.307675
30
0.000000
42
0.000000
10
38.983394
20
75.918882
30
0.000000
42
0.000000
10
38.938425
20
75.613874
30
0.000000
42
0.000000
10
38.917128
20
75.394689
30
0.000000
42
0.000000
10
38.910793
20
75.262710
30
0.000000
42
0.000000
10
38.910637
20
75.218665
30
0.000000
0
LWPOLYLINE
5
D5
100
AcDbEntity
67
0
8
0
6
Continuous
62
0
370
-2
100
AcDbPolyline
90
2
70
0
10
38.910637
20
75.218665
30
0.000000
42
-1.300000
10
36.277474
20
75.041279
30
0.000000
0
LWPOLYLINE
5
D6
100
AcDbEntity
67
0
8
0
6
Continuous
62
0
370
-2
100
AcDbPolyline
90
22
70
0
10
36.277474
20
75.041279
30
0.000000
42
0.000000
10
36.271413
20
75.084905
30
0.000000
42
0.000000
10
36.247433
20
75.214842
30
0.000000
42
0.000000
10
36.196931
20
75.429191
30
0.000000
42
0.000000
10
36.111459
20
75.725411
30
0.000000
42
0.000000
10
35.982769
20
76.100332
30
0.000000
42
0.000000
10
35.802851
20
76.550164
30
0.000000
42
0.000000
10
35.563978
20
77.070520
30
0.000000
42
0.000000
10
35.258741
20
77.656432
30
0.000000
42
0.000000
10
34.880092
20
78.302370
30
0.000000
42
0.000000
10
34.025289
20
79.553002
30
0.000000
42
0.000000
10
32.209146
20
79.237538
30
0.000000
42
0.000000
10
31.826158
20
77.771902
30
0.000000
42
0.000000
10
31.687516
20
77.036110
30
0.000000
42
0.000000
10
31.597743
20
76.381585
30
0.000000
42
0.000000
10
31.548339
20
75.811155
30
0.000000
42
0.000000
10
31.530655
20
75.326999
30
0.000000
42
0.000000
10
31.535936
20
74.930643
30
0.000000
42
0.000000
10
31.555364
20
74.622951
30
0.000000
42
0.000000
10
31.580104
20
74.404127
30
0.000000
42
0.000000
10
31.601347
20
74.273715
30
0.000000
42
0.000000
10
31.610352
20
74.230600
30
0.000000
0
LWPOLYLINE
5
D7
100
AcDbEntity
67
0
8
0
6
Continuous
62
0
370
-2
100
AcDbPolyline
90
2
70
0
10
31.610352
20
74.230600
30
0.000000
42
-1.300000
10
29.071610
20
73.509626
30
0.000000
0
LWPOLYLINE
5
D8
100
AcDbEntity
67
0
8
0
6
Continuous
62
0
370
-2
100
AcDbPolyline
90
22
70
0
10
29.071610
20
73.509626
30
0.000000
42
0.000000
10
29.056611
20
73.551038
30
0.000000
42
0.000000
10
29.006140
20
73.673150
30
0.000000
42
0.000000
10
28.912176
20
73.872315
30
0.000000
42
0.000000
10
28.766984
20
74.144291
30
0.000000
42
0.000000
10
28.563156
20
74.484263
30
0.000000
42
0.000000
10
28.293645
20
74.886858
30
0.000000
42
0.000000
10
27.951803
20
75.346179
30
0.000000
42
0.000000
10
27.531418
20
75.855824
30
0.000000
42
0.000000
10
27.026746
20
76.408922
30
0.000000
42
0.000000
10
25.930601
20
77.454500
30
0.000000
42
0.000000
10
24.219734
20
76.768333
30
0.000000
42
0.000000
10
24.149838
20
75.255097
30
0.000000
42
0.000000
10
24.167206
20
74.506559
30
0.000000
42
0.000000
10
24.215478
20
73.847672
30
0.000000
42
0.000000
10
24.285752
20
73.279436
30
0.000000
42
0.000000
10
24.369116
20
72.802183
30
0.000000
42
0.000000
10
24.456689
20
72.415586
30
0.000000
42
0.000000
10
24.539665
20
72.118657
30
0.000000
42
0.000000
10
24.609361
20
71.909759
30
0.000000
42
0.000000
10
24.657253
20
71.786613
30
0.000000
42
0.000000
10
24.675026
20
71.746313
30
0.000000
0
LWPOLYLINE
5
D9
100
AcDbEntity
67
0
8
0
6
Continuous
62
0
370
-2
100
AcDbPolyline
90
2
70
0
10
24.675026
20
71.746313
30
0.000000
42
-1.300000
10
22.341661
20
70.513259
30
0.000000
0
LWPOLYLINE
5
DA
100
AcDbEntity
67
0
8
0
6
Continuous
62
0
370
-2
100
AcDbPolyline
90
22
70
0
10
22.341661
20
70.513259
30
0.000000
42
0.000000
10
22.318379
20
70.550648
30
0.000000
42
0.000000
10
22.243622
20
70.659598
30
0.000000
42
0.000000
10
22.110303
20
70.834874
30
0.000000
42
0.000000
10
21.911737
20
71.070721
30
0.000000
42
0.000000
10
21.641679
20
71.360884
30
0.000000
42
0.000000
10
21.294353
20
71.698647
30
0.000000
42
0.000000
10
20.864483
20
72.076858
30
0.000000
42
0.000000
10
20.347323
20
72.487964
30
0.000000
42
0.000000
10
19.738684
20
72.924048
30
0.000000
42
0.000000
10
18.449104
20
73.718876
30
0.000000
42
0.000000
10
16.918287
20
72.691994
30
0.000000
42
0.000000
10
17.164537
20
71.197294
30
0.000000
42
0.000000
10
17.337155
20
70.468724
30
0.000000
42
0.000000
10
17.521362
20
69.834272
30
0.000000
42
0.000000
10
17.708244
20
69.293063
30
0.000000
42
0.000000
10
17.889013
20
68.843572
30
0.000000
42
0.000000
10
18.055050
20
68.483630
30
0.000000
42
0.000000
10
18.197948
20
68.210442
30
0.000000
42
0.000000
10
18.309553
20
68.020599
30
0.000000
42
0.000000
10
18.382003
20
67.910102
30
0.000000
42
0.000000
10
18.407766
20
67.874378
30
0.000000
0
LWPOLYLINE
5
DB
100
AcDbEntity
67
0
8
0
6
Continuous
62
0
370
-2
100
AcDbPolyline
90
2
70
0
10
18.407766
20
67.874378
30
0.000000
42
-1.300000
10
16.381756
20
66.183135
30
0.000000
0
LWPOLYLINE
5
DC
100
AcDbEntity
67
0
8
0
6
Continuous
62
0
370
-2
100
AcDbPolyline
90
22
70
0
10
16.381756
20
66.183135
30
0.000000
42
0.000000
10
16.351210
20
66.214867
30
0.000000
42
0.000000
10
16.255435
20
66.305893
30
0.000000
42
0.000000
10
16.088587
20
66.449620
30
0.000000
42
0.000000
10
15.845325
20
66.639029
30
0.000000
42
0.000000
10
15.520840
20
66.866703
30
0.000000
42
0.000000
10
15.110879
20
67.124872
30
0.000000
42
0.000000
10
14.611768
20
67.405443
30
0.000000
42
0.000000
10
14.020436
20
67.700042
30
0.000000
42
0.000000
10
13.334430
20
68.000053
30
0.000000
42
0.000000
10
11.907776
20
68.509394
30
0.000000
42
0.000000
10
10.623911
20
67.186677
30
0.000000
42
0.000000
10
11.175547
20
65.775838
30
0.000000
42
0.000000
10
11.495871
20
65.099078
30
0.000000
42
0.000000
10
11.807963
20
64.516789
30
0.000000
42
0.000000
10
12.103284
20
64.026262
30
0.000000
42
0.000000
10
12.373557
20
63.624178
30
0.000000
42
0.000000
10
12.610802
20
63.306622
30
0.000000
42
0.000000
10
12.807376
20
63.069114
30
0.000000
42
0.000000
10
12.956013
20
62.906624
30
0.000000
42
0.000000
10
13.049853
20
62.813604
30
0.000000
42
0.000000
10
13.082481
20
62.784017
30
0.000000
0
LWPOLYLINE
5
DD
100
AcDbEntity
67
0
8
0
6
Continuous
62
0
370
-2
100
AcDbPolyline
90
2
70
0
10
13.082481
20
62.784017
30
0.000000
42
-1.300000
10
11.452374
20
60.708501
30
0.000000
0
LWPOLYLINE
5
DE
100
AcDbEntity
67
0
8
0
6
Continuous
62
0
370
-2
100
AcDbPolyline
90
22
70
0
10
11.452374
20
60.708501
30
0.000000
42
0.000000
10
11.415897
20
60.733188
30
0.000000
42
0.000000
10
11.303290
20
60.802312
30
0.000000
42
0.000000
10
11.110205
20
60.908209
30
0.000000
42
0.000000
10
10.832879
20
61.042902
30
0.000000
42
0.000000
10
10.468148
20
61.198137
30
0.000000
42
0.000000
10
10.013469
20
61.365429
30
0.000000
42
0.000000
10
9.466931
20
61.536097
30
0.000000
42
0.000000
10
8.827271
20
61.701313
30
0.000000
42
0.000000
10
8.093880
20
61.852140
30
0.000000
42
0.000000
10
6.592504
20
62.053733
30
0.000000
42
0.000000
10
5.611703
20
60.492989
30
0.000000
42
0.000000
10
6.444614
20
59.227672
30
0.000000
42
0.000000
10
6.898644
20
58.632300
30
0.000000
42
0.000000
10
7.324981
20
58.127623
30
0.000000
42
0.000000
10
7.715836
20
57.709217
30
0.000000
42
0.000000
10
8.063801
20
57.372111
30
0.000000
42
0.000000
10
8.361884
20
57.110821
30
0.000000
42
0.000000
10
8.603544
20
56.919373
30
0.000000
42
0.000000
10
8.782716
20
56.791337
30
0.000000
42
0.000000
10
8.893845
20
56.719860
30
0.000000
42
0.000000
10
8.931912
20
56.697704
30
0.000000
0
LWPOLYLINE
5
DF
100
AcDbEntity
67
0
8
0
6
Continuous
62
0
370
-2
100
AcDbPolyline
90
2
70
0
10
8.931912
20
56.697704
30
0.000000
42
-1.300000
10
7.768950
20
54.328624
30
0.000000
0
LWPOLYLINE
5
E0
100
AcDbEntity
67
0
8
0
6
Continuous
62
0
370
-2
100
AcDbPolyline
90
22
70
0
10
7.768950
20
54.328624
30
0.000000
42
0.000000
10
7.728138
20
54.345188
30
0.000000
42
0.000000
10
7.603620
20
54.389389
30
0.000000
42
0.000000
10
7.392737
20
54.452828
30
0.000000
42
0.000000
10
7.093467
20
54.526918
30
0.000000
42
0.000000
10
6.704432
20
54.602929
30
0.000000
42
0.000000
10
6.224906
20
54.672032
30
0.000000
42
0.000000
10
5.654828
20
54.725339
30
0.000000
42
0.000000
10
4.994795
20
54.753952
30
0.000000
42
0.000000
10
4.246072
20
54.749002
30
0.000000
42
0.000000
10
2.735591
20
54.634036
30
0.000000
42
0.000000
10
2.100720
20
52.903479
30
0.000000
42
0.000000
10
3.178504
20
51.838983
30
0.000000
42
0.000000
10
3.746397
20
51.351020
30
0.000000
42
0.000000
10
4.268346
20
50.946012
30
0.000000
42
0.000000
10
4.737651
20
50.618012
30
0.000000
42
0.000000
10
5.148100
20
50.360619
30
0.000000
42
0.000000
10
5.493995
20
50.167014
30
0.000000
42
0.000000
10
5.770178
20
50.029993
30
0.000000
42
0.000000
10
5.972055
20
49.942007
30
0.000000
42
0.000000
10
6.095617
20
49.895197
30
0.000000
42
0.000000
10
6.137458
20
49.881439
30
0.000000
0
LWPOLYLINE
5
E1
100
AcDbEntity
67
0
8
0
6
Continuous
62
0
370
-2
100
AcDbPolyline
90
2
70
0
10
6.137458
20
49.881439
30
0.000000
42
-1.300000
10
5.492469
20
47.322337
30
0.000000
0
LWPOLYLINE
5
E2
100
AcDbEntity
67
0
8
0
6
Continuous
62
0
370
-2
100
AcDbPolyline
90
22
70
0
10
5.492469
20
47.322337
30
0.000000
42
0.000000
10
5.449105
20
47.330053
30
0.000000
42
0.000000
10
5.318118
20
47.347400
30
0.000000
42
0.000000
10
5.098654
20
47.365607
30
0.000000
42
0.000000
10
4.790520
20
47.375856
30
0.000000
42
0.000000
10
4.394182
20
47.369321
30
0.000000
42
0.000000
10
3.910768
20
47.337215
30
0.000000
42
0.000000
10
3.342064
20
47.270831
30
0.000000
42
0.000000
10
2.690505
20
47.161590
30
0.000000
42
0.000000
10
1.959173
20
47.001080
30
0.000000
42
0.000000
10
0.505603
20
46.574580
30
0.000000
42
0.000000
10
0.244408
20
44.749842
30
0.000000
42
0.000000
10
1.519961
20
43.932693
30
0.000000
42
0.000000
10
2.176897
20
43.573464
30
0.000000
42
0.000000
10
2.771646
20
43.285826
30
0.000000
42
0.000000
10
3.298891
20
43.062567
30
0.000000
42
0.000000
10
3.753886
20
42.896136
30
0.000000
42
0.000000
10
4.132475
20
42.778677
30
0.000000
42
0.000000
10
4.431111
20
42.702073
30
0.000000
42
0.000000
10
4.646870
20
42.657982
30
0.000000
42
0.000000
10
4.777464
20
42.637885
30
0.000000
42
0.000000
10
4.821251
20
42.633127
30
0.000000
0
LWPOLYLINE
5
E3
100
AcDbEntity
67
0
8
0
6
Continuous
62
0
370
-2
100
AcDbPolyline
90
2
70
0
10
4.821251
20
42.633127
30
0.000000
42
-1.300000
10
4.722424
20
39.995846
30
0.000000
0
LWPOLYLINE
5
E4
100
AcDbEntity
67
0
8
0
6
Continuous
62
0
370
-2
100
AcDbPolyline
90
22
70
0
10
4.722424
20
39.995846
30
0.000000
42
0.000000
10
4.678403
20
39.994378
30
0.000000
42
0.000000
10
4.546672
20
39.984112
30
0.000000
42
0.000000
10
4.328218
20
39.956292
30
0.000000
42
0.000000
10
4.024687
20
39.902252
30
0.000000
42
0.000000
10
3.638368
20
39.813457
30
0.000000
42
0.000000
10
3.172194
20
39.681545
30
0.000000
42
0.000000
10
2.629719
20
39.498372
30
0.000000
42
0.000000
10
2.015111
20
39.256052
30
0.000000
42
0.000000
10
1.333132
20
38.946996
30
0.000000
42
0.000000
10
0.000000
20
38.227602
30
0.000000
42
0.000000
10
0.123897
20
36.388434
30
0.000000
42
0.000000
10
1.541471
20
35.854343
30
0.000000
42
0.000000
10
2.258740
20
35.639550
30
0.000000
42
0.000000
10
2.900295
20
35.481852
30
0.000000
42
0.000000
10
3.462436
20
35.373092
30
0.000000
42
0.000000
10
3.942092
20
35.304897
30
0.000000
42
0.000000
10
4.336829
20
35.268718
30
0.000000
42
0.000000
10
4.644866
20
35.255877
30
0.000000
42
0.000000
10
4.865077
20
35.257608
30
0.000000
42
0.000000
10
4.996995
20
35.265103
30
0.000000
42
0.000000
10
5.040815
20
35.269553
30
0.000000
0
LWPOLYLINE
5
E5
100
AcDbEntity
67
0
8
0
6
Continuous
62
0
370
-2
100
AcDbPolyline
90
2
70
0
10
5.040815
20
35.269553
30
0.000000
42
-1.300000
10
5.492469
20
32.669356
30
0.000000
0
LWPOLYLINE
5
E6
100
AcDbEntity
67
0
8
0
6
Continuous
62
0
370
-2
100
AcDbPolyline
90
22
70
0
10
5.492469
20
32.669356
30
0.000000
42
0.000000
10
5.449716
20
32.658767
30
0.000000
42
0.000000
10
5.322997
20
32.621337
30
0.000000
42
0.000000
10
5.115102
20
32.548706
30
0.000000
42
0.000000
10
4.829438
20
32.432739
30
0.000000
42
0.000000
10
4.470024
20
32.265564
30
0.000000
42
0.000000
10
4.041462
20
32.039612
30
0.000000
42
0.000000
10
3.548925
20
31.747655
30
0.000000
42
0.000000
10
2.998129
20
31.382845
30
0.000000
42
0.000000
10
2.395309
20
30.938752
30
0.000000
42
0.000000
10
1.240880
20
29.957905
30
0.000000
42
0.000000
10
1.744454
20
28.184686
30
0.000000
42
0.000000
10
3.242094
20
27.956997
30
0.000000
42
0.000000
10
3.988347
20
27.896026
30
0.000000
42
0.000000
10
4.648670
20
27.875161
30
0.000000
42
0.000000
10
5.221140
20
27.885654
30
0.000000
42
0.000000
10
5.704492
20
27.918675
30
0.000000
42
0.000000
10
6.098125
20
27.965357
30
0.000000
42
0.000000
10
6.402101
20
28.016841
30
0.000000
42
0.000000
10
6.617140
20
28.064319
30
0.000000
42
0.000000
10
6.744617
20
28.099077
30
0.000000
42
0.000000
10
6.786554
20
28.112540
30
0.000000
0
LWPOLYLINE
5
E7
100
AcDbEntity
67
0
8
0
6
Continuous
62
0
370
-2
100
AcDbPolyline
90
2
70
0
10
6.786554
20
28.112540
30
0.000000
42
-1.300000
10
7.768950
20
25.663068
30
0.000000
0
LWPOLYLINE
5
E8
100
AcDbEntity
67
0
8
0
6
Continuous
62
0
370
-2
100
AcDbPolyline
90
22
70
0
10
7.768950
20
25.663068
30
0.000000
42
0.000000
10
7.729332
20
25.643822
30
0.000000
42
0.000000
10
7.613165
20
25.580863
30
0.000000
42
0.000000
10
7.424913
20
25.466595
30
0.000000
42
0.000000
10
7.169603
20
25.293770
30
0.000000
42
0.000000
10
6.852800
20
25.055522
30
0.000000
42
0.000000
10
6.480582
20
24.745404
30
0.000000
42
0.000000
10
6.059510
20
24.357423
30
0.000000
42
0.000000
10
5.596598
20
23.886068
30
0.000000
42
0.000000
10
5.099283
20
23.326346
30
0.000000
42
0.000000
10
4.174011
20
22.126914
30
0.000000
42
0.000000
10
5.035254
20
20.497143
30
0.000000
42
0.000000
10
6.547506
20
20.585806
30
0.000000
42
0.000000
10
7.290128
20
20.681322
30
0.000000
42
0.000000
10
7.940360
20
20.798202
30
0.000000
42
0.000000
10
8.498138
20
20.927489
30
0.000000
42
0.000000
10
8.964062
20
21.060283
30
0.000000
42
0.000000
10
9.339387
20
21.187786
30
0.000000
42
0.000000
10
9.626016
20
21.301345
30
0.000000
42
0.000000
10
9.826485
20
21.392495
30
0.000000
42
0.000000
10
9.943950
20
21.452997
30
0.000000
42
0.000000
10
9.982172
20
21.474885
30
0.000000
0
LWPOLYLINE
5
E9
100
AcDbEntity
67
0
8
0
6
Continuous
62
0
370
-2
100
AcDbPolyline
90
2
70
0
10
9.982172
20
21.474885
30
0.000000
42
-1.300000
10
11.452374
20
19.283191
30
0.000000
0
LWPOLYLINE
5
EA
100
AcDbEntity
67
0
8
0
6
Continuous
62
0
370
-2
100
AcDbPolyline
90
22
70
0
10
11.452374
20
19.283191
30
0.000000
42
0.000000
10
11.417623
20
19.256129
30
0.000000
42
0.000000
10
11.317084
20
19.170393
30
0.000000
42
0.000000
10
11.156704
20
19.019483
30
0.000000
42
0.000000
10
10.942905
20
18.797352
30
0.000000
42
0.000000
10
10.682560
20
18.498443
30
0.000000
42
0.000000
10
10.382952
20
18.117714
30
0.000000
42
0.000000
10
10.051747
20
17.650665
30
0.000000
42
0.000000
10
9.696952
20
17.093366
30
0.000000
42
0.000000
10
9.326877
20
16.442478
30
0.000000
42
0.000000
10
8.671200
20
15.076880
30
0.000000
42
0.000000
10
9.852471
20
13.661787
30
0.000000
42
0.000000
10
11.313243
20
14.062928
30
0.000000
42
0.000000
10
12.019778
20
14.310756
30
0.000000
42
0.000000
10
12.631500
20
14.560273
30
0.000000
42
0.000000
10
13.150209
20
14.802703
30
0.000000
42
0.000000
10
13.578342
20
15.029466
30
0.000000
42
0.000000
10
13.918957
20
15.232217
30
0.000000
42
0.000000
10
14.175712
20
15.402888
30
0.000000
42
0.000000
10
14.352848
20
15.533726
30
0.000000
42
0.000000
10
14.455167
20
15.617329
30
0.000000
42
0.000000
10
14.488003
20
15.646685
30
0.000000
0
LWPOLYLINE
5
EB
100
AcDbEntity
67
0
8
0
6
Continuous
62
0
370
-2
100
AcDbPolyline
90
2
70
0
10
14.488003
20
15.646685
30
0.000000
42
-1.300000
10
16.381756
20
13.808557
30
0.000000
0
LWPOLYLINE
5
EC
100
AcDbEntity
67
0
8
0
6
Continuous
62
0
370
-2
100
AcDbPolyline
90
22
70
0
10
16.381756
20
13.808557
30
0.000000
42
0.000000
10
16.353392
20
13.774861
30
0.000000
42
0.000000
10
16.272876
20
13.670096
30
0.000000
42
0.000000
10
16.147376
20
13.489138
30
0.000000
42
0.000000
10
15.984433
20
13.227411
30
0.000000
42
0.000000
10
15.791923
20
12.880904
30
0.000000
42
0.000000
10
15.578021
20
12.446203
30
0.000000
42
0.000000
10
15.351158
20
11.920499
30
0.000000
42
0.000000
10
15.119985
20
11.301612
30
0.000000
42
0.000000
10
14.893324
20
10.588004
30
0.000000
42
0.000000
10
14.535899
20
9.115926
30
0.000000
42
0.000000
10
15.985571
20
7.977356
30
0.000000
42
0.000000
10
17.331020
20
8.673442
30
0.000000
42
0.000000
10
17.970589
20
9.062752
30
0.000000
42
0.000000
10
18.517066
20
9.434000
30
0.000000
42
0.000000
10
18.974036
20
9.778978
30
0.000000
42
0.000000
10
19.345667
20
10.089799
30
0.000000
42
0.000000
10
19.636683
20
10.358938
30
0.000000
42
0.000000
10
19.852343
20
10.579262
30
0.000000
42
0.000000
10
19.998407
20
10.744069
30
0.000000
42
0.000000
10
20.081108
20
10.847118
30
0.000000
42
0.000000
10
20.107122
20
10.882660
30
0.000000
0
LWPOLYLINE
5
ED
100
AcDbEntity
67
0
8
0
6
Continuous
62
0
370
-2
100
AcDbPolyline
90
2
70
0
10
20.107122
20
10.882660
30
0.000000
42
-1.300000
10
22.341661
20
9.478433
30
0.000000
0
LWPOLYLINE
5
EE
100
AcDbEntity
67
0
8
0
6
Continuous
62
0
370
-2
100
AcDbPolyline
90
22
70
0
10
22.341661
20
9.478433
30
0.000000
42
0.000000
10
22.320922
20
9.439576
30
0.000000
42
0.000000
10
22.263947
20
9.320360
30
0.000000
42
0.000000
10
22.178813
20
9.117264
30
0.000000
42
0.000000
10
22.073847
20
8.827378
30
0.000000
42
0.000000
10
21.957586
20
8.448419
30
0.000000
42
0.000000
10
21.838738
20
7.978744
30
0.000000
42
0.000000
10
21.726133
20
7.417360
30
0.000000
42
0.000000
10
21.628685
20
6.763934
30
0.000000
42
0.000000
10
21.555345
20
6.018795
30
0.000000
42
0.000000
10
21.511793
20
4.504572
30
0.000000
42
0.000000
10
23.166508
20
3.692286
30
0.000000
42
0.000000
10
24.337831
20
4.652895
30
0.000000
42
0.000000
10
24.882482
20
5.166672
30
0.000000
42
0.000000
10
25.339830
20
5.643426
30
0.000000
42
0.000000
10
25.715089
20
6.075875
30
0.000000
42
0.000000
10
26.013976
20
6.457171
30
0.000000
42
0.000000
10
26.242676
20
6.780934
30
0.000000
42
0.000000
10
26.407815
20
7.041281
30
0.000000
42
0.000000
10
26.516421
20
7.232855
30
0.000000
42
0.000000
10
26.575890
20
7.350847
30
0.000000
42
0.000000
10
26.593946
20
7.391021
30
0.000000
0
LWPOLYLINE
5
EF
100
AcDbEntity
67
0
8
0
6
Continuous
62
0
370
-2
100
AcDbPolyline
90
2
70
0
10
26.593946
20
7.391021
30
0.000000
42
-1.300000
10
29.071610
20
6.482066
30
0.000000
0
LWPOLYLINE
5
F0
100
AcDbEntity
67
0
8
0
6
Continuous
62
0
370
-2
100
AcDbPolyline
90
22
70
0
10
29.071610
20
6.482066
30
0.000000
42
0.000000
10
29.059403
20
6.439747
30
0.000000
42
0.000000
10
29.028460
20
6.311290
30
0.000000
42
0.000000
10
28.987412
20
6.094932
30
0.000000
42
0.000000
10
28.945011
20
5.789557
30
0.000000
42
0.000000
10
28.910081
20
5.394707
30
0.000000
42
0.000000
10
28.891481
20
4.910585
30
0.000000
42
0.000000
10
28.898055
20
4.338058
30
0.000000
42
0.000000
10
28.938591
20
3.678650
30
0.000000
42
0.000000
10
29.021777
20
2.934545
30
0.000000
42
0.000000
10
29.294001
20
1.444357
30
0.000000
42
0.000000
10
31.081440
20
0.993856
30
0.000000
42
0.000000
10
32.027445
20
2.177005
30
0.000000
42
0.000000
10
32.453374
20
2.792794
30
0.000000
42
0.000000
10
32.801605
20
3.354218
30
0.000000
42
0.000000
10
33.078753
20
3.855238
30
0.000000
42
0.000000
10
33.291832
20
4.290343
30
0.000000
42
0.000000
10
33.448221
20
4.654581
30
0.000000
42
0.000000
10
33.555622
20
4.943573
30
0.000000
42
0.000000
10
33.622024
20
5.153542
30
0.000000
42
0.000000
10
33.655661
20
5.281319
30
0.000000
42
0.000000
10
33.664971
20
5.324369
30
0.000000
0
LWPOLYLINE
5
F1
100
AcDbEntity
67
0
8
0
6
Continuous
62
0
370
-2
100
AcDbPolyline
90
2
70
0
10
33.664971
20
5.324369
30
0.000000
42
-1.300000
10
36.277474
20
4.950413
30
0.000000
0
LWPOLYLINE
5
F2
100
AcDbEntity
67
0
8
0
6
Continuous
62
0
370
-2
100
AcDbPolyline
90
22
70
0
10
36.277474
20
4.950413
30
0.000000
42
0.000000
10
36.274332
20
4.906480
30
0.000000
42
0.000000
10
36.270773
20
4.774397
30
0.000000
42
0.000000
10
36.275606
20
4.554232
30
0.000000
42
0.000000
10
36.297622
20
4.246715
30
0.000000
42
0.000000
10
36.345549
20
3.853231
30
0.000000
42
0.000000
10
36.428010
20
3.375821
30
0.000000
42
0.000000
10
36.553475
20
2.817171
30
0.000000
42
0.000000
10
36.730224
20
2.180601
30
0.000000
42
0.000000
10
36.966300
20
1.470053
30
0.000000
42
0.000000
10
37.542404
20
0.069027
30
0.000000
42
0.000000
10
39.384447
20
0.000000
30
0.000000
42
0.000000
10
40.063789
20
1.353980
30
0.000000
42
0.000000
10
40.352381
20
2.044868
30
0.000000
42
0.000000
10
40.576276
20
2.666425
30
0.000000
42
0.000000
10
40.743199
20
3.214118
30
0.000000
42
0.000000
10
40.861159
20
3.684017
30
0.000000
42
0.000000
10
40.938400
20
4.072811
30
0.000000
42
0.000000
10
40.983370
20
4.377818
30
0.000000
42
0.000000
10
41.004666
20
4.597004
30
0.000000
42
0.000000
10
41.011002
20
4.728983
30
0.000000
42
0.000000
10
41.011157
20
4.773027
30
0.000000
0
LWPOLYLINE
5
F3
100
AcDbEntity
67
0
8
0
6
Continuous
62
0
370
-2
100
AcDbPolyline
90
2
70
0
10
41.011157
20
4.773027
30
0.000000
42
-1.300000
10
43.644321
20
4.950413
30
0.000000
0
LWPOLYLINE
5
F4
100
AcDbEntity
67
0
8
0
6
Continuous
62
0
370
-2
100
AcDbPolyline
90
22
70
0
10
43.644321
20
4.950413
30
0.000000
42
0.000000
10
43.650382
20
4.906787
30
0.000000
42
0.000000
10
43.674362
20
4.776850
30
0.000000
42
0.000000
10
43.724864
20
4.562501
30
0.000000
42
0.000000
10
43.810335
20
4.266281
30
0.000000
42
0.000000
10
43.939025
20
3.891361
30
0.000000
42
0.000000
10
44.118943
20
3.441528
30
0.000000
42
0.000000
10
44.357817
20
2.921172
30
0.000000
42
0.000000
10
44.663054
20
2.335260
30
0.000000
42
0.000000
10
45.041702
20
1.689322
30
0.000000
42
0.000000
10
45.896506
20
0.438691
30
0.000000
42
0.000000
10
47.712648
20
0.754155
30
0.000000
42
0.000000
10
48.095636
20
2.219790
30
0.000000
42
0.000000
10
48.234278
20
2.955582
30
0.000000
42
0.000000
10
48.324051
20
3.610107
30
0.000000
42
0.000000
10
48.373455
20
4.180537
30
0.000000
42
0.000000
10
48.391139
20
4.664693
30
0.000000
42
0.000000
10
48.385859
20
5.061049
30
0.000000
42
0.000000
10
48.366431
20
5.368741
30
0.000000
42
0.000000
10
48.341691
20
5.587565
30
0.000000
42
0.000000
10
48.320448
20
5.717977
30
0.000000
42
0.000000
10
48.311442
20
5.761092
30
0.000000
0
LWPOLYLINE
5
F5
100
AcDbEntity
67
0
8
0
6
Continuous
62
0
370
-2
100
AcDbPolyline
90
2
70
0
10
48.311442
20
5.761092
30
0.000000
42
-1.300000
10
50.850184
20
6.482066
30
0.000000
0
LWPOLYLINE
5
F6
100
AcDbEntity
67
0
8
0
6
Continuous
62
0
370
-2
100
AcDbPolyline
90
22
70
0
10
50.850184
20
6.482066
30
0.000000
42
0.000000
10
50.865184
20
6.440654
30
0.000000
42
0.000000
10
50.915655
20
6.318542
30
0.000000
42
0.000000
10
51.009619
20
6.119377
30
0.000000
42
0.000000
10
51.154810
20
5.847401
30
0.000000
42
0.000000
10
51.358638
20
5.507430
30
0.000000
42
0.000000
10
51.628150
20
5.104834
30
0.000000
42
0.000000
10
51.969992
20
4.645513
30
0.000000
42
0.000000
10
52.390377
20
4.135868
30
0.000000
42
0.000000
10
52.895049
20
3.582770
30
0.000000
42
0.000000
10
53.991194
20
2.537192
30
0.000000
42
0.000000
10
55.702060
20
3.223359
30
0.000000
42
0.000000
10
55.771956
20
4.736595
30
0.000000
42
0.000000
10
55.754589
20
5.485133
30
0.000000
42
0.000000
10
55.706317
20
6.144020
30
0.000000
42
0.000000
10
55.636042
20
6.712257
30
0.000000
42
0.000000
10
55.552678
20
7.189509
30
0.000000
42
0.000000
10
55.465106
20
7.576106
30
0.000000
42
0.000000
10
55.382129
20
7.873035
30
0.000000
42
0.000000
10
55.312434
20
8.081933
30
0.000000
42
0.000000
10
55.264541
20
8.205079
30
0.000000
42
0.000000
10
55.246768
20
8.245379
30
0.000000
0
LWPOLYLINE
5
F7
100
AcDbEntity
67
0
8
0
6
Continuous
62
0
370
-2
100
AcDbPolyline
90
2
70
0
10
55.246768
20
8.245379
30
0.000000
42
-1.300000
10
57.580134
20
9.478433
30
0.000000
0
LWPOLYLINE
5
F8
100
AcDbEntity
67
0
8
0
6
Continuous
62
0
370
-2
100
AcDbPolyline
90
22
70
0
10
57.580134
20
9.478433
30
0.000000
42
0.000000
10
57.603415
20
9.441044
30
0.000000
42
0.000000
10
57.678172
20
9.332094
30
0.000000
42
0.000000
10
57.811492
20
9.156818
30
0.000000
42
0.000000
10
58.010057
20
8.920972
30
0.000000
42
0.000000
10
58.280115
20
8.630808
30
0.000000
42
0.000000
10
58.627442
20
8.293045
30
0.000000
42
0.000000
10
59.057312
20
7.914834
30
0.000000
42
0.000000
10
59.574471
20
7.503728
30
0.000000
42
0.000000
10
60.183111
20
7.067645
30
0.000000
42
0.000000
10
61.472690
20
6.272816
30
0.000000
42
0.000000
10
63.003508
20
7.299698
30
0.000000
42
0.000000
10
62.757257
20
8.794398
30
0.000000
42
0.000000
10
62.584640
20
9.522968
30
0.000000
42
0.000000
10
62.400432
20
10.157420
30
0.000000
42
0.000000
10
62.213550
20
10.698629
30
0.000000
42
0.000000
10
62.032781
20
11.148120
30
0.000000
42
0.000000
10
61.866745
20
11.508062
30
0.000000
42
0.000000
10
61.723846
20
11.781250
30
0.000000
42
0.000000
10
61.612242
20
11.971093
30
0.000000
42
0.000000
10
61.539792
20
12.081590
30
0.000000
42
0.000000
10
61.514029
20
12.117315
30
0.000000
0
LWPOLYLINE
5
F9
100
AcDbEntity
67
0
8
0
6
Continuous
62
0
370
-2
100
AcDbPolyline
90
2
70
0
10
61.514029
20
12.117315
30
0.000000
42
-1.300000
10
63.540038
20
13.808557
30
0.000000
0
LWPOLYLINE
5
FA
100
AcDbEntity
67
0
8
0
6
Continuous
62
0
370
-2
100
AcDbPolyline
90
22
70
0
10
63.540038
20
13.808557
30
0.000000
42
0.000000
10
63.570585
20
13.776826
30
0.000000
42
0.000000
10
63.666360
20
13.685800
30
0.000000
42
0.000000
10
63.833208
20
13.542072
30
0.000000
42
0.000000
10
64.076470
20
13.352664
30
0.000000
42
0.000000
10
64.400955
20
13.124989
30
0.000000
42
0.000000
10
64.810916
20
12.866820
30
0.000000
42
0.000000
10
65.310027
20
12.586249
30
0.000000
42
0.000000
10
65.901359
20
12.291650
30
0.000000
42
0.000000
10
66.587365
20
11.991639
30
0.000000
42
0.000000
10
68.014018
20
11.482298
30
0.000000
42
0.000000
10
69.297883
20
12.805016
30
0.000000
42
0.000000
10
68.746248
20
14.215854
30
0.000000
42
0.000000
10
68.425924
20
14.892614
30
0.000000
42
0.000000
10
68.113832
20
15.474903
30
0.000000
42
0.000000
10
67.818510
20
15.965430
30
0.000000
42
0.000000
10
67.548237
20
16.367515
30
0.000000
42
0.000000
10
67.310993
20
16.685070
30
0.000000
42
0.000000
10
67.114418
20
16.922578
30
0.000000
42
0.000000
10
66.965782
20
17.085069
30
0.000000
42
0.000000
10
66.871942
20
17.178088
30
0.000000
42
0.000000
10
66.839314
20
17.207675
30
0.000000
0
LWPOLYLINE
5
FB
100
AcDbEntity
67
0
8
0
6
Continuous
62
0
370
-2
100
AcDbPolyline
90
2
70
0
10
66.839314
20
17.207675
30
0.000000
42
-1.300000
10
68.469421
20
19.283191
30
0.000000
0
LWPOLYLINE
5
FC
100
AcDbEntity
67
0
8
0
6
Continuous
62
0
370
-2
100
AcDbPolyline
90
22
70
0
10
68.469421
20
19.283191
30
0.000000
42
0.000000
10
68.505897
20
19.258504
30
0.000000
42
0.000000
10
68.618505
20
19.189380
30
0.000000
42
0.000000
10
68.811589
20
19.083483
30
0.000000
42
0.000000
10
69.088916
20
18.948791
30
0.000000
42
0.000000
10
69.453646
20
18.793555
30
0.000000
42
0.000000
10
69.908325
20
18.626264
30
0.000000
42
0.000000
10
70.454863
20
18.455595
30
0.000000
42
0.000000
10
71.094524
20
18.290379
30
0.000000
42
0.000000
10
71.827915
20
18.139552
30
0.000000
42
0.000000
10
73.329290
20
17.937960
30
0.000000
42
0.000000
10
74.310091
20
19.498703
30
0.000000
42
0.000000
10
73.477181
20
20.764020
30
0.000000
42
0.000000
10
73.023150
20
21.359392
30
0.000000
42
0.000000
10
72.596814
20
21.864069
30
0.000000
42
0.000000
10
72.205959
20
22.282476
30
0.000000
42
0.000000
10
71.857994
20
22.619581
30
0.000000
42
0.000000
10
71.559910
20
22.880871
30
0.000000
42
0.000000
10
71.318251
20
23.072319
30
0.000000
42
0.000000
10
71.139079
20
23.200355
30
0.000000
42
0.000000
10
71.027949
20
23.271832
30
0.000000
42
0.000000
10
70.989883
20
23.293989
30
0.000000
0
LWPOLYLINE
5
FD
100
AcDbEntity
67
0
8
0
6
Continuous
62
0
370
-2
100
AcDbPolyline
90
2
70
0
10
70.989883
20
23.293989
30
0.000000
42
-1.300000
10
72.152844
20
25.663068
30
0.000000
0
LWPOLYLINE
5
FE
100
AcDbEntity
67
0
8
0
6
Continuous
62
0
370
-2
100
AcDbPolyline
90
22
70
0
10
72.152844
20
25.663068
30
0.000000
42
0.000000
10
72.193656
20
25.646504
30
0.000000
42
0.000000
10
72.318175
20
25.602303
30
0.000000
42
0.000000
10
72.529057
20
25.538864
30
0.000000
42
0.000000
10
72.828327
20
25.464775
30
0.000000
42
0.000000
10
73.217363
20
25.388763
30
0.000000
42
0.000000
10
73.696888
20
25.319661
30
0.000000
42
0.000000
10
74.266967
20
25.266353
30
0.000000
42
0.000000
10
74.927000
20
25.237740
30
0.000000
42
0.000000
10
75.675723
20
25.242690
30
0.000000
42
0.000000
10
77.186203
20
25.357656
30
0.000000
42
0.000000
10
77.821075
20
27.088214
30
0.000000
42
0.000000
10
76.743291
20
28.152709
30
0.000000
42
0.000000
10
76.175397
20
28.640672
30
0.000000
42
0.000000
10
75.653449
20
29.045680
30
0.000000
42
0.000000
10
75.184144
20
29.373681
30
0.000000
42
0.000000
10
74.773695
20
29.631073
30
0.000000
42
0.000000
10
74.427799
20
29.824678
30
0.000000
42
0.000000
10
74.151616
20
29.961699
30
0.000000
42
0.000000
10
73.949739
20
30.049685
30
0.000000
42
0.000000
10
73.826178
20
30.096495
30
0.000000
42
0.000000
10
73.784337
20
30.110253
30
0.000000
0
LWPOLYLINE
5
FF
100
AcDbEntity
67
0
8
0
6
Continuous
62
0
370
-2
100
AcDbPolyline
90
2
70
0
10
73.784337
20
30.110253
30
0.000000
42
-1.300000
10
74.429325
20
32.669356
30
0.000000
0
LWPOLYLINE
5
100
100
AcDbEntity
67
0
8
0
6
Continuous
62
0
370
-2
100
AcDbPolyline
90
22
70
0
10
74.429325
20
32.669356
30
0.000000
42
0.000000
10
74.472689
20
32.661639
30
0.000000
42
0.000000
10
74.603677
20
32.644293
30
0.000000
42
0.000000
10
74.823140
20
32.626085
30
0.000000
42
0.000000
10
75.131275
20
32.615836
30
0.000000
42
0.000000
10
75.527613
20
32.622371
30
0.000000
42
0.000000
10
76.011026
20
32.654477
30
0.000000
42
0.000000
10
76.579731
20
32.720861
30
0.000000
42
0.000000
10
77.231289
20
32.830102
30
0.000000
42
0.000000
10
77.962622
20
32.990612
30
0.000000
42
0.000000
10
79.416192
20
33.417112
30
0.000000
42
0.000000
10
79.677387
20
35.241850
30
0.000000
42
0.000000
10
78.401834
20
36.058999
30
0.000000
42
0.000000
10
77.744897
20
36.418228
30
0.000000
42
0.000000
10
77.150149
20
36.705866
30
0.000000
42
0.000000
10
76.622904
20
36.929125
30
0.000000
42
0.000000
10
76.167909
20
37.095556
30
0.000000
42
0.000000
10
75.789320
20
37.213015
30
0.000000
42
0.000000
10
75.490684
20
37.289620
30
0.000000
42
0.000000
10
75.274925
20
37.333711
30
0.000000
42
0.000000
10
75.144331
20
37.353807
30
0.000000
42
0.000000
10
75.100544
20
37.358565
30
0.000000
0
LWPOLYLINE
5
101
100
AcDbEntity
67
0
8
0
6
Continuous
62
0
370
-2
100
AcDbPolyline
90
2
70
0
10
75.100544
20
37.358565
30
0.000000
42
-1.300000
10
75.199371
20
39.995846
30
0.000000
0
ENDBLK
5
102
330
C3
100
AcDbEntity
8
0
100
AcDbBlockEnd
0
BLOCK
5
105
330
104
100
AcDbEntity
8
0
100
AcDbBlockBegin
2
gear-44
70
0
10
0.000000
20
0.000000
30
0.000000
3
gear-44
1

4

0
CIRCLE
5
106
100
AcDbEntity
67
0
8
0
6
Dot
62
0
370
-2
100
AcDbCircle
10
57.466917
20
57.466917
30
0.000000
40
55.000000
0
LWPOLYLINE
5
107
100
AcDbEntity
67
0
8
0
6
Continuous
62
0
370
-2
100
AcDbPolyline
90
2
70
0
10
57.466917
20
57.466917
30
0.000000
42
0.000000
10
114.893309
20
60.375422
30
0.000000
0
LWPOLYLINE
5
108
100
AcDbEntity
67
0
8
0
6
Continuous
62
0
370
-2
100
AcDbPolyline
90
16
70
0
10
109.550239
20
57.500265
30
0.000000
42
0.000000
10
109.932621
20
57.558480
30
0.000000
42
0.000000
10
110.438243
20
57.661362
30
0.000000
42
0.000000
10
111.063278
20
57.821311
30
0.000000
42
0.000000
10
111.802974
20
58.050439
30
0.000000
42
0.000000
10
112.651670
20
58.360514
30
0.000000
42
0.000000
10
113.602818
20
58.762893
30
0.000000
42
0.000000
10
114.933833
20
59.417172
30
0.000000
42
0.000000
10
114.836808
20
61.332863
30
0.000000
42
0.000000
10
113.446498
20
61.849314
30
0.000000
42
0.000000
10
112.459562
20
62.153533
30
0.000000
42
0.000000
10
111.583882
20
62.376273
30
0.000000
42
0.000000
10
110.824821
20
62.529493
30
0.000000
42
0.000000
10
110.186823
20
62.625472
30
0.000000
42
0.000000
10
109.673394
20
62.676742
30
0.000000
42
0.000000
10
109.287087
20
62.696025
30
0.000000
0
LWPOLYLINE
5
109
100
AcDbEntity
67
0
8
0
6
Continuous
62
0
370
-2
100
AcDbPolyline
90
2
70
0
10
109.287087
20
62.696025
30
0.000000
42
0.000000
10
109.015360
20
64.912155
30
0.000000
0
LWPOLYLINE
5
10A
100
AcDbEntity
67
0
8
0
6
Continuous
62
0
370
-2
100
AcDbPolyline
90
16
70
0
10
109.015360
20
64.912155
30
0.000000
42
0.000000
10
109.385565
20
65.024196
30
0.000000
42
0.000000
10
109.871399
20
65.197989
30
0.000000
42
0.000000
10
110.467309
20
65.445261
30
0.000000
42
0.000000
10
111.166868
20
65.777327
30
0.000000
42
0.000000
10
111.962796
20
66.205028
30
0.000000
42
0.000000
10
112.846999
20
66.738674
30
0.000000
42
0.000000
10
114.071353
20
67.575716
30
0.000000
42
0.000000
10
113.702684
20
69.458100
30
0.000000
42
0.000000
10
112.253027
20
69.771432
30
0.000000
42
0.000000
10
111.232842
20
69.932099
30
0.000000
42
0.000000
10
110.334375
20
70.027950
30
0.000000
42
0.000000
10
109.561234
20
70.071585
30
0.000000
42
0.000000
10
108.916071
20
70.075790
30
0.000000
42
0.000000
10
108.400572
20
70.053469
30
0.000000
42
0.000000
10
108.015452
20
70.017579
30
0.000000
0
LWPOLYLINE
5
10B
100
AcDbEntity
67
0
8
0
6
Continuous
62
0
370
-2
100
AcDbPolyline
90
2
70
0
10
108.015452
20
70.017579
30
0.000000
42
0.000000
10
107.431103
20
72.172482
30
0.000000
0
LWPOLYLINE
5
10C
100
AcDbEntity
67
0
8
0
6
Continuous
62
0
370
-2
100
AcDbPolyline
90
16
70
0
10
107.431103
20
72.172482
30
0.000000
42
0.000000
10
107.781595
20
72.336068
30
0.000000
42
0.000000
10
108.237750
20
72.577233
30
0.000000
42
0.000000
10
108.792405
20
72.906795
30
0.000000
42
0.000000
10
109.437585
20
73.335039
30
0.000000
42
0.000000
10
110.164544
20
73.871659
30
0.000000
42
0.000000
10
110.963801
20
74.525708
30
0.000000
42
0.000000
10
112.056569
20
75.528474
30
0.000000
42
0.000000
10
111.423761
20
77.339231
30
0.000000
42
0.000000
10
109.944268
20
77.443066
30
0.000000
42
0.000000
10
108.911601
20
77.456911
30
0.000000
42
0.000000
10
108.008639
20
77.423920
30
0.000000
42
0.000000
10
107.237158
20
77.357082
30
0.000000
42
0.000000
10
106.597963
20
77.269428
30
0.000000
42
0.000000
10
106.090888
20
77.173971
30
0.000000
42
0.000000
10
105.714796
20
77.083638
30
0.000000
0
LWPOLYLINE
5
10D
100
AcDbEntity
67
0
8
0
6
Continuous
62
0
370
-2
100
AcDbPolyline
90
2
70
0
10
105.714796
20
77.083638
30
0.000000
42
0.000000
10
104.829720
20
79.133445
30
0.000000
0
LWPOLYLINE
5
10E
100
AcDbEntity
67
0
8
0
6
Continuous
62
0
370
-2
100
AcDbPolyline
90
16
70
0
10
104.829720
20
79.133445
30
0.000000
42
0.000000
10
105.153363
20
79.345247
30
0.000000
42
0.000000
10
105.570554
20
79.648875
30
0.000000
42
0.000000
10
106.072662
20
80.054018
30
0.000000
42
0.000000
10
106.650329
20
80.569722
30
0.000000
42
0.000000
10
107.293520
20
81.204337
30
0.000000
42
0.000000
10
107.991560
20
81.965474
30
0.000000
42
0.000000
10
108.930497
20
83.113551
30
0.000000
42
0.000000
10
108.046433
20
84.815819
30
0.000000
42
0.000000
10
106.567222
20
84.708044
30
0.000000
42
0.000000
10
105.543096
20
84.574784
30
0.000000
42
0.000000
10
104.654019
20
84.413624
30
0.000000
42
0.000000
10
103.899903
20
84.237673
30
0.000000
42
0.000000
10
103.279689
20
84.059944
30
0.000000
42
0.000000
10
102.791359
20
83.893295
30
0.000000
42
0.000000
10
102.431951
20
83.750357
30
0.000000
0
LWPOLYLINE
5
10F
100
AcDbEntity
67
0
8
0
6
Continuous
62
0
370
-2
100
AcDbPolyline
90
2
70
0
10
102.431951
20
83.750357
30
0.000000
42
0.000000
10
101.264166
20
85.653341
30
0.000000
0
LWPOLYLINE
5
110
100
AcDbEntity
67
0
8
0
6
Continuous
62
0
370
-2
100
AcDbPolyline
90
16
70
0
10
101.264166
20
85.653341
30
0.000000
42
0.000000
10
101.554373
20
85.909046
30
0.000000
42
0.000000
10
101.924107
20
86.268956
30
0.000000
42
0.000000
10
102.363445
20
86.741433
30
0.000000
42
0.000000
10
102.861841
20
87.334098
30
0.000000
42
0.000000
10
103.408169
20
88.053789
30
0.000000
42
0.000000
10
103.990784
20
88.906521
30
0.000000
42
0.000000
10
104.756776
20
90.176537
30
0.000000
42
0.000000
10
103.639452
20
91.735663
30
0.000000
42
0.000000
10
102.190635
20
91.418470
30
0.000000
42
0.000000
10
101.195898
20
91.140818
30
0.000000
42
0.000000
10
100.338806
20
90.854770
30
0.000000
42
0.000000
10
99.617406
20
90.573288
30
0.000000
42
0.000000
10
99.028798
20
90.309103
30
0.000000
42
0.000000
10
98.569156
20
90.074653
30
0.000000
42
0.000000
10
98.233748
20
89.882022
30
0.000000
0
LWPOLYLINE
5
111
100
AcDbEntity
67
0
8
0
6
Continuous
62
0
370
-2
100
AcDbPolyline
90
2
70
0
10
98.233748
20
89.882022
30
0.000000
42
0.000000
10
96.807027
20
91.599442
30
0.000000
0
LWPOLYLINE
5
112
100
AcDbEntity
67
0
8
0
6
Continuous
62
0
370
-2
100
AcDbPolyline
90
16
70
0
10
96.807027
20
91.599442
30
0.000000
42
0.000000
10
97.057889
20
91.893846
30
0.000000
42
0.000000
10
97.372639
20
92.302710
30
0.000000
42
0.000000
10
97.740266
20
92.832903
30
0.000000
42
0.000000
10
98.149243
20
93.490464
30
0.000000
42
0.000000
10
98.587588
20
94.280581
30
0.000000
42
0.000000
10
99.042916
20
95.207548
30
0.000000
42
0.000000
10
99.620369
20
96.573649
30
0.000000
42
0.000000
10
98.292531
20
97.957893
30
0.000000
42
0.000000
10
96.903602
20
97.437741
30
0.000000
42
0.000000
10
95.958504
20
97.021349
30
0.000000
42
0.000000
10
95.150845
20
96.616236
30
0.000000
42
0.000000
10
94.476847
20
96.234953
30
0.000000
42
0.000000
10
93.931828
20
95.889689
30
0.000000
42
0.000000
10
93.510230
20
95.592212
30
0.000000
42
0.000000
10
93.205650
20
95.353808
30
0.000000
0
LWPOLYLINE
5
113
100
AcDbEntity
67
0
8
0
6
Continuous
62
0
370
-2
100
AcDbPolyline
90
2
70
0
10
93.205650
20
95.353808
30
0.000000
42
0.000000
10
91.549037
20
96.850704
30
0.000000
0
LWPOLYLINE
5
114
100
AcDbEntity
67
0
8
0
6
Continuous
62
0
370
-2
100
AcDbPolyline
90
16
70
0
10
91.549037
20
96.850704
30
0.000000
42
0.000000
10
91.755447
20
97.177812
30
0.000000
42
0.000000
10
92.008806
20
97.627309
30
0.000000
42
0.000000
10
92.297236
20
98.204423
30
0.000000
42
0.000000
10
92.608470
20
98.913495
30
0.000000
42
0.000000
10
92.929908
20
99.757952
30
0.000000
42
0.000000
10
93.248680
20
100.740284
30
0.000000
42
0.000000
10
93.625839
20
102.174660
30
0.000000
42
0.000000
10
92.114519
20
103.355844
30
0.000000
42
0.000000
10
90.813752
20
102.643321
30
0.000000
42
0.000000
10
89.937533
20
102.096666
30
0.000000
42
0.000000
10
89.195748
20
101.580734
30
0.000000
42
0.000000
10
88.582873
20
101.107412
30
0.000000
42
0.000000
10
88.092537
20
100.688099
30
0.000000
42
0.000000
10
87.717566
20
100.333650
30
0.000000
42
0.000000
10
87.450015
20
100.054326
30
0.000000
0
LWPOLYLINE
5
115
100
AcDbEntity
67
0
8
0
6
Continuous
62
0
370
-2
100
AcDbPolyline
90
2
70
0
10
87.450015
20
100.054326
30
0.000000
42
0.000000
10
85.597233
20
101.300225
30
0.000000
0
LWPOLYLINE
5
116
100
AcDbEntity
67
0
8
0
6
Continuous
62
0
370
-2
100
AcDbPolyline
90
16
70
0
10
85.597233
20
101.300225
30
0.000000
42
0.000000
10
85.754990
20
101.653379
30
0.000000
42
0.000000
10
85.941800
20
102.134357
30
0.000000
42
0.000000
10
86.145162
20
102.746645
30
0.000000
42
0.000000
10
86.352317
20
103.492793
30
0.000000
42
0.000000
10
86.550304
20
104.374400
30
0.000000
42
0.000000
10
86.726031
20
105.392100
30
0.000000
42
0.000000
10
86.895218
20
106.865551
30
0.000000
42
0.000000
10
85.231181
20
107.819629
30
0.000000
42
0.000000
10
84.045056
20
106.929240
30
0.000000
42
0.000000
10
83.255553
20
106.263450
30
0.000000
42
0.000000
10
82.594744
20
105.647203
30
0.000000
42
0.000000
10
82.055467
20
105.091477
30
0.000000
42
0.000000
10
81.629797
20
104.606650
30
0.000000
42
0.000000
10
81.309086
20
104.202444
30
0.000000
42
0.000000
10
81.084010
20
103.887887
30
0.000000
0
LWPOLYLINE
5
117
100
AcDbEntity
67
0
8
0
6
Continuous
62
0
370
-2
100
AcDbPolyline
90
2
70
0
10
81.084010
20
103.887887
30
0.000000
42
0.000000
10
79.072776
20
104.857427
30
0.000000
0
LWPOLYLINE
5
118
100
AcDbEntity
67
0
8
0
6
Continuous
62
0
370
-2
100
AcDbPolyline
90
16
70
0
10
79.072776
20
104.857427
30
0.000000
42
0.000000
10
79.178669
20
105.229437
30
0.000000
42
0.000000
10
79.295127
20
105.732105
30
0.000000
42
0.000000
10
79.409282
20
106.367103
30
0.000000
42
0.000000
10
79.508140
20
107.135137
30
0.000000
42
0.000000
10
79.578646
20
108.035947
30
0.000000
42
0.000000
10
79.607751
20
109.068297
30
0.000000
42
0.000000
10
79.565522
20
110.550828
30
0.000000
42
0.000000
10
77.782642
20
111.258378
30
0.000000
42
0.000000
10
76.735307
20
110.208249
30
0.000000
42
0.000000
10
76.048591
20
109.436878
30
0.000000
42
0.000000
10
75.482209
20
108.732860
30
0.000000
42
0.000000
10
75.027509
20
108.106044
30
0.000000
42
0.000000
10
74.675170
20
107.565572
30
0.000000
42
0.000000
10
74.415248
20
107.119838
30
0.000000
42
0.000000
10
74.237229
20
106.776451
30
0.000000
0
LWPOLYLINE
5
119
100
AcDbEntity
67
0
8
0
6
Continuous
62
0
370
-2
100
AcDbPolyline
90
2
70
0
10
74.237229
20
106.776451
30
0.000000
42
0.000000
10
72.108487
20
107.449894
30
0.000000
0
LWPOLYLINE
5
11A
100
AcDbEntity
67
0
8
0
6
Continuous
62
0
370
-2
100
AcDbPolyline
90
16
70
0
10
72.108487
20
107.449894
30
0.000000
42
0.000000
10
72.160359
20
107.833188
30
0.000000
42
0.000000
10
72.204095
20
108.347314
30
0.000000
42
0.000000
10
72.226718
20
108.992093
30
0.000000
42
0.000000
10
72.215267
20
109.766380
30
0.000000
42
0.000000
10
72.156857
20
110.668055
30
0.000000
42
0.000000
10
72.038747
20
111.694038
30
0.000000
42
0.000000
10
71.785962
20
113.155470
30
0.000000
42
0.000000
10
69.920534
20
113.602087
30
0.000000
42
0.000000
10
69.033308
20
112.413596
30
0.000000
42
0.000000
10
68.463360
20
111.552346
30
0.000000
42
0.000000
10
68.002935
20
110.774890
30
0.000000
42
0.000000
10
67.642069
20
110.089743
30
0.000000
42
0.000000
10
67.370233
20
109.504629
30
0.000000
42
0.000000
10
67.176390
20
109.026442
30
0.000000
42
0.000000
10
67.049053
20
108.661216
30
0.000000
0
LWPOLYLINE
5
11B
100
AcDbEntity
67
0
8
0
6
Continuous
62
0
370
-2
100
AcDbPolyline
90
2
70
0
10
67.049053
20
108.661216
30
0.000000
42
0.000000
10
64.846138
20
109.024852
30
0.000000
0
LWPOLYLINE
5
11C
100
AcDbEntity
67
0
8
0
6
Continuous
62
0
370
-2
100
AcDbPolyline
90
16
70
0
10
64.846138
20
109.024852
30
0.000000
42
0.000000
10
64.842933
20
109.411627
30
0.000000
42
0.000000
10
64.813056
20
109.926744
30
0.000000
42
0.000000
10
64.743687
20
110.568180
30
0.000000
42
0.000000
10
64.622160
20
111.332956
30
0.000000
42
0.000000
10
64.436023
20
112.217141
30
0.000000
42
0.000000
10
64.173103
20
113.215872
30
0.000000
42
0.000000
10
63.714907
20
114.626453
30
0.000000
42
0.000000
10
61.804907
20
114.803047
30
0.000000
42
0.000000
10
61.095851
20
113.500387
30
0.000000
42
0.000000
10
60.654273
20
112.566792
30
0.000000
42
0.000000
10
60.309178
20
111.731723
30
0.000000
42
0.000000
10
60.049491
20
111.002194
30
0.000000
42
0.000000
10
59.863693
20
110.384349
30
0.000000
42
0.000000
10
59.739877
20
109.883443
30
0.000000
42
0.000000
10
59.665812
20
109.503812
30
0.000000
0
LWPOLYLINE
5
11D
100
AcDbEntity
67
0
8
0
6
Continuous
62
0
370
-2
100
AcDbPolyline
90
2
70
0
10
59.665812
20
109.503812
30
0.000000
42
0.000000
10
57.433569
20
109.550239
30
0.000000
0
LWPOLYLINE
5
11E
100
AcDbEntity
67
0
8
0
6
Continuous
62
0
370
-2
100
AcDbPolyline
90
16
70
0
10
57.433569
20
109.550239
30
0.000000
42
0.000000
10
57.375353
20
109.932621
30
0.000000
42
0.000000
10
57.272471
20
110.438243
30
0.000000
42
0.000000
10
57.112523
20
111.063278
30
0.000000
42
0.000000
10
56.883394
20
111.802974
30
0.000000
42
0.000000
10
56.573319
20
112.651670
30
0.000000
42
0.000000
10
56.170940
20
113.602818
30
0.000000
42
0.000000
10
55.516661
20
114.933833
30
0.000000
42
0.000000
10
53.600970
20
114.836808
30
0.000000
42
0.000000
10
53.084520
20
113.446498
30
0.000000
42
0.000000
10
52.780300
20
112.459562
30
0.000000
42
0.000000
10
52.557561
20
111.583882
30
0.000000
42
0.000000
10
52.404340
20
110.824821
30
0.000000
42
0.000000
10
52.308361
20
110.186823
30
0.000000
42
0.000000
10
52.257092
20
109.673394
30
0.000000
42
0.000000
10
52.237808
20
109.287087
30
0.000000
0
LWPOLYLINE
5
11F
100
AcDbEntity
67
0
8
0
6
Continuous
62
0
370
-2
100
AcDbPolyline
90
2
70
0
10
52.237808
20
109.287087
30
0.000000
42
0.000000
10
50.021678
20
109.015360
30
0.000000
0
LWPOLYLINE
5
120
100
AcDbEntity
67
0
8
0
6
Continuous
62
0
370
-2
100
AcDbPolyline
90
16
70
0
10
50.021678
20
109.015360
30
0.000000
42
0.000000
10
49.909637
20
109.385565
30
0.000000
42
0.000000
10
49.735845
20
109.871399
30
0.000000
42
0.000000
10
49.488572
20
110.467309
30
0.000000
42
0.000000
10
49.156506
20
111.166868
30
0.000000
42
0.000000
10
48.728805
20
111.962796
30
0.000000
42
0.000000
10
48.195160
20
112.846999
30
0.000000
42
0.000000
10
47.358117
20
114.071353
30
0.000000
42
0.000000
10
45.475733
20
113.702684
30
0.000000
42
0.000000
10
45.162401
20
112.253027
30
0.000000
42
0.000000
10
45.001734
20
111.232842
30
0.000000
42
0.000000
10
44.905884
20
110.334375
30
0.000000
42
0.000000
10
44.862248
20
109.561234
30
0.000000
42
0.000000
10
44.858043
20
108.916071
30
0.000000
42
0.000000
10
44.880364
20
108.400572
30
0.000000
42
0.000000
10
44.916254
20
108.015452
30
0.000000
0
LWPOLYLINE
5
121
100
AcDbEntity
67
0
8
0
6
Continuous
62
0
370
-2
100
AcDbPolyline
90
2
70
0
10
44.916254
20
108.015452
30
0.000000
42
0.000000
10
42.761352
20
107.431103
30
0.000000
0
LWPOLYLINE
5
122
100
AcDbEntity
67
0
8
0
6
Continuous
62
0
370
-2
100
AcDbPolyline
90
16
70
0
10
42.761352
20
107.431103
30
0.000000
42
0.000000
10
42.597765
20
107.781595
30
0.000000
42
0.000000
10
42.356600
20
108.237750
30
0.000000
42
0.000000
10
42.027038
20
108.792405
30
0.000000
42
0.000000
10
41.598794
20
109.437585
30
0.000000
42
0.000000
10
41.062174
20
110.164544
30
0.000000
42
0.000000
10
40.408125
20
110.963801
30
0.000000
42
0.000000
10
39.405359
20
112.056569
30
0.000000
42
0.000000
10
37.594602
20
111.423761
30
0.000000
42
0.000000
10
37.490767
20
109.944268
30
0.000000
42
0.000000
10
37.476922
20
108.911601
30
0.000000
42
0.000000
10
37.509913
20
108.008639
30
0.000000
42
0.000000
10
37.576751
20
107.237158
30
0.000000
42
0.000000
10
37.664405
20
106.597963
30
0.000000
42
0.000000
10
37.759862
20
106.090888
30
0.000000
42
0.000000
10
37.850195
20
105.714796
30
0.000000
0
LWPOLYLINE
5
123
100
AcDbEntity
67
0
8
0
6
Continuous
62
0
370
-2
100
AcDbPolyline
90
2
70
0
10
37.850195
20
105.714796
30
0.000000
42
0.000000
10
35.800388
20
104.829720
30
0.000000
0
LWPOLYLINE
5
124
100
AcDbEntity
67
0
8
0
6
Continuous
62
0
370
-2
100
AcDbPolyline
90
16
70
0
10
35.800388
20
104.829720
30
0.000000
42
0.000000
10
35.588586
20
105.153363
30
0.000000
42
0.000000
10
35.284959
20
105.570554
30
0.000000
42
0.000000
10
34.879815
20
106.072662
30
0.000000
42
0.000000
10
34.364111
20
106.650329
30
0.000000
42
0.000000
10
33.729497
20
107.293520
30
0.000000
42
0.000000
10
32.968359
20
107.991560
30
0.000000
42
0.000000
10
31.820282
20
108.930497
30
0.000000
42
0.000000
10
30.118014
20
108.046433
30
0.000000
42
0.000000
10
30.225789
20
106.567222
30
0.000000
42
0.000000
10
30.359050
20
105.543096
30
0.000000
42
0.000000
10
30.520210
20
104.654019
30
0.000000
42
0.000000
10
30.696161
20
103.899903
30
0.000000
42
0.000000
10
30.873889
20
103.279689
30
0.000000
42
0.000000
10
31.040539
20
102.791359
30
0.000000
42
0.000000
10
31.183476
20
102.431951
30
0.000000
0
LWPOLYLINE
5
125
100
AcDbEntity
67
0
8
0
6
Continuous
62
0
370
-2
100
AcDbPolyline
90
2
70
0
10
31.183476
20
102.431951
30
0.000000
42
0.000000
10
29.280492
20
101.264166
30
0.000000
0
LWPOLYLINE
5
126
100
AcDbEntity
67
0
8
0
6
Continuous
62
0
370
-2
100
AcDbPolyline
90
16
70
0
10
29.280492
20
101.264166
30
0.000000
42
0.000000
10
29.024787
20
101.554373
30
0.000000
42
0.000000
10
28.664878
20
101.924107
30
0.000000
42
0.000000
10
28.192401
20
102.363445
30
0.000000
42
0.000000
10
27.599735
20
102.861841
30
0.000000
42
0.000000
10
26.880044
20
103.408169
30
0.000000
42
0.000000
10
26.027312
20
103.990784
30
0.000000
42
0.000000
10
24.757297
20
104.756776
30
0.000000
42
0.000000
10
23.198170
20
103.639452
30
0.000000
42
0.000000
10
23.515363
20
102.190635
30
0.000000
42
0.000000
10
23.793015
20
101.195898
30
0.000000
42
0.000000
10
24.079063
20
100.338806
30
0.000000
42
0.000000
10
24.360545
20
99.617406
30
0.000000
42
0.000000
10
24.624730
20
99.028798
30
0.000000
42
0.000000
10
24.859180
20
98.569156
30
0.000000
42
0.000000
10
25.051812
20
98.233748
30
0.000000
0
LWPOLYLINE
5
127
100
AcDbEntity
67
0
8
0
6
Continuous
62
0
370
-2
100
AcDbPolyline
90
2
70
0
10
25.051812
20
98.233748
30
0.000000
42
0.000000
10
23.334391
20
96.807027
30
0.000000
0
LWPOLYLINE
5
128
100
AcDbEntity
67
0
8
0
6
Continuous
62
0
370
-2
100
AcDbPolyline
90
16
70
0
10
23.334391
20
96.807027
30
0.000000
42
0.000000
10
23.039988
20
97.057889
30
0.000000
42
0.000000
10
22.631123
20
97.372639
30
0.000000
42
0.000000
10
22.100931
20
97.740266
30
0.000000
42
0.000000
10
21.443369
20
98.149243
30
0.000000
42
0.000000
10
20.653253
20
98.587588
30
0.000000
42
0.000000
10
19.726285
20
99.042916
30
0.000000
42
0.000000
10
18.360185
20
99.620369
30
0.000000
42
0.000000
10
16.975940
20
98.292531
30
0.000000
42
0.000000
10
17.496092
20
96.903602
30
0.000000
42
0.000000
10
17.912484
20
95.958504
30
0.000000
42
0.000000
10
18.317597
20
95.150845
30
0.000000
42
0.000000
10
18.698880
20
94.476847
30
0.000000
42
0.000000
10
19.044144
20
93.931828
30
0.000000
42
0.000000
10
19.341621
20
93.510230
30
0.000000
42
0.000000
10
19.580026
20
93.205650
30
0.000000
0
LWPOLYLINE
5
129
100
AcDbEntity
67
0
8
0
6
Continuous
62
0
370
-2
100
AcDbPolyline
90
2
70
0
10
19.580026
20
93.205650
30
0.000000
42
0.000000
10
18.083129
20
91.549037
30
0.000000
0
LWPOLYLINE
5
12A
100
AcDbEntity
67
0
8
0
6
Continuous
62
0
370
-2
100
AcDbPolyline
90
16
70
0
10
18.083129
20
91.549037
30
0.000000
42
0.000000
10
17.756021
20
91.755447
30
0.000000
42
0.000000
10
17.306525
20
92.008806
30
0.000000
42
0.000000
10
16.729410
20
92.297236
30
0.000000
42
0.000000
10
16.020338
20
92.608470
30
0.000000
42
0.000000
10
15.175881
20
92.929908
30
0.000000
42
0.000000
10
14.193549
20
93.248680
30
0.000000
42
0.000000
10
12.759173
20
93.625839
30
0.000000
42
0.000000
10
11.577989
20
92.114519
30
0.000000
42
0.000000
10
12.290512
20
90.813752
30
0.000000
42
0.000000
10
12.837167
20
89.937533
30
0.000000
42
0.000000
10
13.353099
20
89.195748
30
0.000000
42
0.000000
10
13.826421
20
88.582873
30
0.000000
42
0.000000
10
14.245734
20
88.092537
30
0.000000
42
0.000000
10
14.600184
20
87.717566
30
0.000000
42
0.000000
10
14.879507
20
87.450015
30
0.000000
0
LWPOLYLINE
5
12B
100
AcDbEntity
67
0
8
0
6
Continuous
62
0
370
-2
100
AcDbPolyline
90
2
70
0
10
14.879507
20
87.450015
30
0.000000
42
0.000000
10
13.633608
20
85.597233
30
0.000000
0
LWPOLYLINE
5
12C
100
AcDbEntity
67
0
8
0
6
Continuous
62
0
370
-2
100
AcDbPolyline
90
16
70
0
10
13.633608
20
85.597233
30
0.000000
42
0.000000
10
13.280454
20
85.754990
30
0.000000
42
0.000000
10
12.799476
20
85.941800
30
0.000000
42
0.000000
10
12.187188
20
86.145162
30
0.000000
42
0.000000
10
11.441040
20
86.352317
30
0.000000
42
0.000000
10
10.559433
20
86.550304
30
0.000000
42
0.000000
10
9.541733
20
86.726031
30
0.000000
42
0.000000
10
8.068282
20
86.895218
30
0.000000
42
0.000000
10
7.114204
20
85.231181
30
0.000000
42
0.000000
10
8.004593
20
84.045056
30
0.000000
42
0.000000
10
8.670383
20
83.255553
30
0.000000
42
0.000000
10
9.286630
20
82.594744
30
0.000000
42
0.000000
10
9.842356
20
82.055467
30
0.000000
42
0.000000
10
10.327183
20
81.629797
30
0.000000
42
0.000000
10
10.731389
20
81.309086
30
0.000000
42
0.000000
10
11.045946
20
81.084010
30
0.000000
0
LWPOLYLINE
5
12D
100
AcDbEntity
67
0
8
0
6
Continuous
62
0
370
-2
100
AcDbPolyline
90
2
70
0
10
11.045946
20
81.084010
30
0.000000
42
0.000000
10
10.076407
20
79.072776
30
0.000000
0
LWPOLYLINE
5
12E
100
AcDbEntity
67
0
8
0
6
Continuous
62
0
370
-2
100
AcDbPolyline
90
16
70
0
10
10.076407
20
79.072776
30
0.000000
42
0.000000
10
9.704396
20
79.178669
30
0.000000
42
0.000000
10
9.201728
20
79.295127
30
0.000000
42
0.000000
10
8.566731
20
79.409282
30
0.000000
42
0.000000
10
7.798696
20
79.508140
30
0.000000
42
0.000000
10
6.897886
20
79.578646
30
0.000000
42
0.000000
10
5.865537
20
79.607751
30
0.000000
42
0.000000
10
4.383005
20
79.565522
30
0.000000
42
0.000000
10
3.675455
20
77.782642
30
0.000000
42
0.000000
10
4.725584
20
76.735307
30
0.000000
42
0.000000
10
5.496956
20
76.048591
30
0.000000
42
0.000000
10
6.200974
20
75.482209
30
0.000000
42
0.000000
10
6.827790
20
75.027509
30
0.000000
42
0.000000
10
7.368262
20
74.675170
30
0.000000
42
0.000000
10
7.813995
20
74.415248
30
0.000000
42
0.000000
10
8.157382
20
74.237229
30
0.000000
0
LWPOLYLINE
5
12F
100
AcDbEntity
67
0
8
0
6
Continuous
62
0
370
-2
100
AcDbPolyline
90
2
70
0
10
8.157382
20
74.237229
30
0.000000
42
0.000000
10
7.483939
20
72.108487
30
0.000000
0
LWPOLYLINE
5
130
100
AcDbEntity
67
0
8
0
6
Continuous
62
0
370
-2
100
AcDbPolyline
90
16
70
0
10
7.483939
20
72.108487
30
0.000000
42
0.000000
10
7.100645
20
72.160359
30
0.000000
42
0.000000
10
6.586520
20
72.204095
30
0.000000
42
0.000000
10
5.941740
20
72.226718
30
0.000000
42
0.000000
10
5.167454
20
72.215267
30
0.000000
42
0.000000
10
4.265778
20
72.156857
30
0.000000
42
0.000000
10
3.239795
20
72.038747
30
0.000000
42
0.000000
10
1.778363
20
71.785962
30
0.000000
42
0.000000
10
1.331746
20
69.920534
30
0.000000
42
0.000000
10
2.520237
20
69.033308
30
0.000000
42
0.000000
10
3.381487
20
68.463360
30
0.000000
42
0.000000
10
4.158944
20
68.002935
30
0.000000
42
0.000000
10
4.844090
20
67.642069
30
0.000000
42
0.000000
10
5.429204
20
67.370233
30
0.000000
42
0.000000
10
5.907391
20
67.176390
30
0.000000
42
0.000000
10
6.272617
20
67.049053
30
0.000000
0
LWPOLYLINE
5
131
100
AcDbEntity
67
0
8
0
6
Continuous
62
0
370
-2
100
AcDbPolyline
90
2
70
0
10
6.272617
20
67.049053
30
0.000000
42
0.000000
10
5.908981
20
64.846138
30
0.000000
0
LWPOLYLINE
5
132
100
AcDbEntity
67
0
8
0
6
Continuous
62
0
370
-2
100
AcDbPolyline
90
16
70
0
10
5.908981
20
64.846138
30
0.000000
42
0.000000
10
5.522206
20
64.842933
30
0.000000
42
0.000000
10
5.007090
20
64.813056
30
0.000000
42
0.000000
10
4.365653
20
64.743687
30
0.000000
42
0.000000
10
3.600878
20
64.622160
30
0.000000
42
0.000000
10
2.716693
20
64.436023
30
0.000000
42
0.000000
10
1.717961
20
64.173103
30
0.000000
42
0.000000
10
0.307380
20
63.714907
30
0.000000
42
0.000000
10
0.130786
20
61.804907
30
0.000000
42
0.000000
10
1.433446
20
61.095851
30
0.000000
42
0.000000
10
2.367042
20
60.654273
30
0.000000
42
0.000000
10
3.202110
20
60.309178
30
0.000000
42
0.000000
10
3.931639
20
60.049491
30
0.000000
42
0.000000
10
4.549484
20
59.863693
30
0.000000
42
0.000000
10
5.050390
20
59.739877
30
0.000000
42
0.000000
10
5.430021
20
59.665812
30
0.000000
0
LWPOLYLINE
5
133
100
AcDbEntity
67
0
8
0
6
Continuous
62
0
370
-2
100
AcDbPolyline
90
2
70
0
10
5.430021
20
59.665812
30
0.000000
42
0.000000
10
5.383594
20
57.433569
30
0.000000
0
LWPOLYLINE
5
134
100
AcDbEntity
67
0
8
0
6
Continuous
62
0
370
-2
100
AcDbPolyline
90
16
70
0
10
5.383594
20
57.433569
30
0.000000
42
0.000000
10
5.001212
20
57.375353
30
0.000000
42
0.000000
10
4.495590
20
57.272471
30
0.000000
42
0.000000
10
3.870555
20
57.112523
30
0.000000
42
0.000000
10
3.130859
20
56.883394
30
0.000000
42
0.000000
10
2.282164
20
56.573319
30
0.000000
42
0.000000
10
1.331015
20
56.170940
30
0.000000
42
0.000000
10
0.000000
20
55.516661
30
0.000000
42
0.000000
10
0.097025
20
53.600970
30
0.000000
42
0.000000
10
1.487335
20
53.084520
30
0.000000
42
0.000000
10
2.474271
20
52.780300
30
0.000000
42
0.000000
10
3.349952
20
52.557561
30
0.000000
42
0.000000
10
4.109013
20
52.404340
30
0.000000
42
0.000000
10
4.747010
20
52.308361
30
0.000000
42
0.000000
10
5.260439
20
52.257092
30
0.000000
42
0.000000
10
5.646746
20
52.237808
30
0.000000
0
LWPOLYLINE
5
135
100
AcDbEntity
67
0
8
0
6
Continuous
62
0
370
-2
100
AcDbPolyline
90
2
70
0
10
5.646746
20
52.237808
30
0.000000
42
0.000000
10
5.918473
20
50.021678
30
0.000000
0
LWPOLYLINE
5
136
100
AcDbEntity
67
0
8
0
6
Continuous
62
0
370
-2
100
AcDbPolyline
90
16
70
0
10
5.918473
20
50.021678
30
0.000000
42
0.000000
10
5.548268
20
49.909637
30
0.000000
42
0.000000
10
5.062434
20
49.735845
30
0.000000
42
0.000000
10
4.466524
20
49.488572
30
0.000000
42
0.000000
10
3.766965
20
49.156506
30
0.000000
42
0.000000
10
2.971037
20
48.728805
30
0.000000
42
0.000000
10
2.086834
20
48.195160
30
0.000000
42
0.000000
10
0.862481
20
47.358117
30
0.000000
42
0.000000
10
1.231149
20
45.475733
30
0.000000
42
0.000000
10
2.680806
20
45.162401
30
0.000000
42
0.000000
10
3.700992
20
45.001734
30
0.000000
42
0.000000
10
4.599458
20
44.905884
30
0.000000
42
0.000000
10
5.372599
20
44.862248
30
0.000000
42
0.000000
10
6.017762
20
44.858043
30
0.000000
42
0.000000
10
6.533261
20
44.880364
30
0.000000
42
0.000000
10
6.918381
20
44.916254
30
0.000000
0
LWPOLYLINE
5
137
100
AcDbEntity
67
0
8
0
6
Continuous
62
0
370
-2
100
AcDbPolyline
90
2
70
0
10
6.918381
20
44.916254
30
0.000000
42
0.000000
10
7.502730
20
42.761352
30
0.000000
0
LWPOLYLINE
5
138
100
AcDbEntity
67
0
8
0
6
Continuous
62
0
370
-2
100
AcDbPolyline
90
16
70
0
10
7.502730
20
42.761352
30
0.000000
42
0.000000
10
7.152238
20
42.597765
30
0.000000
42
0.000000
10
6.696083
20
42.356600
30
0.000000
42
0.000000
10
6.141428
20
42.027038
30
0.000000
42
0.000000
10
5.496248
20
41.598794
30
0.000000
42
0.000000
10
4.769290
20
41.062174
30
0.000000
42
0.000000
10
3.970032
20
40.408125
30
0.000000
42
0.000000
10
2.877264
20
39.405359
30
0.000000
42
0.000000
10
3.510072
20
37.594602
30
0.000000
42
0.000000
10
4.989565
20
37.490767
30
0.000000
42
0.000000
10
6.022232
20
37.476922
30
0.000000
42
0.000000
10
6.925194
20
37.509913
30
0.000000
42
0.000000
10
7.696675
20
37.576751
30
0.000000
42
0.000000
10
8.335870
20
37.664405
30
0.000000
42
0.000000
10
8.842946
20
37.759862
30
0.000000
42
0.000000
10
9.219037
20
37.850195
30
0.000000
0
LWPOLYLINE
5
139
100
AcDbEntity
67
0
8
0
6
Continuous
62
0
370
-2
100
AcDbPolyline
90
2
70
0
10
9.219037
20
37.850195
30
0.000000
42
0.000000
10
10.104113
20
35.800388
30
0.000000
0
LWPOLYLINE
5
13A
100
AcDbEntity
67
0
8
0
6
Continuous
62
0
370
-2
100
AcDbPolyline
90
16
70
0
10
10.104113
20
35.800388
30
0.000000
42
0.000000
10
9.780470
20
35.588586
30
0.000000
42
0.000000
10
9.363279
20
35.284959
30
0.000000
42
0.000000
10
8.861172
20
34.879815
30
0.000000
42
0.000000
10
8.283504
20
34.364111
30
0.000000
42
0.000000
10
7.640314
20
33.729497
30
0.000000
42
0.000000
10
6.942273
20
32.968359
30
0.000000
42
0.000000
10
6.003336
20
31.820282
30
0.000000
42
0.000000
10
6.887400
20
30.118014
30
0.000000
42
0.000000
10
8.366611
20
30.225789
30
0.000000
42
0.000000
10
9.390737
20
30.359050
30
0.000000
42
0.000000
10
10.279814
20
30.520210
30
0.000000
42
0.000000
10
11.033930
20
30.696161
30
0.000000
42
0.000000
10
11.654144
20
30.873889
30
0.000000
42
0.000000
10
12.142474
20
31.040539
30
0.000000
42
0.000000
10
12.501882
20
31.183476
30
0.000000
0
LWPOLYLINE
5
13B
100
AcDbEntity
67
0
8
0
6
Continuous
62
0
370
-2
100
AcDbPolyline
90
2
70
0
10
12.501882
20
31.183476
30
0.000000
42
0.000000
10
13.669667
20
29.280492
30
0.000000
0
LWPOLYLINE
5
13C
100
AcDbEntity
67
0
8
0
6
Continuous
62
0
370
-2
100
AcDbPolyline
90
16
70
0
10
13.669667
20
29.280492
30
0.000000
42
0.000000
10
13.379460
20
29.024787
30
0.000000
42
0.000000
10
13.009726
20
28.664878
30
0.000000
42
0.000000
10
12.570388
20
28.192401
30
0.000000
42
0.000000
10
12.071992
20
27.599735
30
0.000000
42
0.000000
10
11.525664
20
26.880044
30
0.000000
42
0.000000
10
10.943049
20
26.027312
30
0.000000
42
0.000000
10
10.177058
20
24.757297
30
0.000000
42
0.000000
10
11.294381
20
23.198170
30
0.000000
42
0.000000
10
12.743198
20
23.515363
30
0.000000
42
0.000000
10
13.737935
20
23.793015
30
0.000000
42
0.000000
10
14.595027
20
24.079063
30
0.000000
42
0.000000
10
15.316427
20
24.360545
30
0.000000
42
0.000000
10
15.905035
20
24.624730
30
0.000000
42
0.000000
10
16.364677
20
24.859180
30
0.000000
42
0.000000
10
16.700085
20
25.051812
30
0.000000
0
LWPOLYLINE
5
13D
100
AcDbEntity
67
0
8
0
6
Continuous
62
0
370
-2
100
AcDbPolyline
90
2
70
0
10
16.700085
20
25.051812
30
0.000000
42
0.000000
10
18.126806
20
23.334391
30
0.000000
0
LWPOLYLINE
5
13E
100
AcDbEntity
67
0
8
0
6
Continuous
62
0
370
-2
100
AcDbPolyline
90
16
70
0
10
18.126806
20
23.334391
30
0.000000
42
0.000000
10
17.875944
20
23.039988
30
0.000000
42
0.000000
10
17.561194
20
22.631123
30
0.000000
42
0.000000
10
17.193568
20
22.100931
30
0.000000
42
0.000000
10
16.784590
20
21.443369
30
0.000000
42
0.000000
10
16.346245
20
20.653253
30
0.000000
42
0.000000
10
15.890917
20
19.726285
30
0.000000
42
0.000000
10
15.313465
20
18.360185
30
0.000000
42
0.000000
10
16.641302
20
16.975940
30
0.000000
42
0.000000
10
18.030231
20
17.496092
30
0.000000
42
0.000000
10
18.975329
20
17.912484
30
0.000000
42
0.000000
10
19.782988
20
18.317597
30
0.000000
42
0.000000
10
20.456986
20
18.698880
30
0.000000
42
0.000000
10
21.002005
20
19.044144
30
0.000000
42
0.000000
10
21.423603
20
19.341621
30
0.000000
42
0.000000
10
21.728183
20
19.580026
30
0.000000
0
LWPOLYLINE
5
13F
100
AcDbEntity
67
0
8
0
6
Continuous
62
0
370
-2
100
AcDbPolyline
90
2
70
0
10
21.728183
20
19.580026
30
0.000000
42
0.000000
10
23.384797
20
18.083129
30
0.000000
0
LWPOLYLINE
5
140
100
AcDbEntity
67
0
8
0
6
Continuous
62
0
370
-2
100
AcDbPolyline
90
16
70
0
10
23.384797
20
18.083129
30
0.000000
42
0.000000
10
23.178386
20
17.756021
30
0.000000
42
0.000000
10
22.925027
20
17.306525
30
0.000000
42
0.000000
10
22.636597
20
16.729410
30
0.000000
42
0.000000
10
22.325363
20
16.020338
30
0.000000
42
0.000000
10
22.003925
20
15.175881
30
0.000000
42
0.000000
10
21.685153
20
14.193549
30
0.000000
42
0.000000
10
21.307994
20
12.759173
30
0.000000
42
0.000000
10
22.819315
20
11.577989
30
0.000000
42
0.000000
10
24.120081
20
12.290512
30
0.000000
42
0.000000
10
24.996301
20
12.837167
30
0.000000
42
0.000000
10
25.738085
20
13.353099
30
0.000000
42
0.000000
10
26.350961
20
13.826421
30
0.000000
42
0.000000
10
26.841296
20
14.245734
30
0.000000
42
0.000000
10
27.216268
20
14.600184
30
0.000000
42
0.000000
10
27.483818
20
14.879507
30
0.000000
0
LWPOLYLINE
5
141
100
AcDbEntity
67
0
8
0
6
Continuous
62
0
370
-2
100
AcDbPolyline
90
2
70
0
10
27.483818
20
14.879507
30
0.000000
42
0.000000
10
29.336601
20
13.633608
30
0.000000
0
LWPOLYLINE
5
142
100
AcDbEntity
67
0
8
0
6
Continuous
62
0
370
-2
100
AcDbPolyline
90
16
70
0
10
29.336601
20
13.633608
30
0.000000
42
0.000000
10
29.178843
20
13.280454
30
0.000000
42
0.000000
10
28.992033
20
12.799476
30
0.000000
42
0.000000
10
28.788671
20
12.187188
30
0.000000
42
0.000000
10
28.581517
20
11.441040
30
0.000000
42
0.000000
10
28.383529
20
10.559433
30
0.000000
42
0.000000
10
28.207802
20
9.541733
30
0.000000
42
0.000000
10
28.038615
20
8.068282
30
0.000000
42
0.000000
10
29.702653
20
7.114204
30
0.000000
42
0.000000
10
30.888777
20
8.004593
30
0.000000
42
0.000000
10
31.678280
20
8.670383
30
0.000000
42
0.000000
10
32.339090
20
9.286630
30
0.000000
42
0.000000
10
32.878366
20
9.842356
30
0.000000
42
0.000000
10
33.304036
20
10.327183
30
0.000000
42
0.000000
10
33.624748
20
10.731389
30
0.000000
42
0.000000
10
33.849823
20
11.045946
30
0.000000
0
LWPOLYLINE
5
143
100
AcDbEntity
67
0
8
0
6
Continuous
62
0
370
-2
100
AcDbPolyline
90
2
70
0
10
33.849823
20
11.045946
30
0.000000
42
0.000000
10
35.861057
20
10.076407
30
0.000000
0
LWPOLYLINE
5
144
100
AcDbEntity
67
0
8
0
6
Continuous
62
0
370
-2
100
AcDbPolyline
90
16
70
0
10
35.861057
20
10.076407
30
0.000000
42
0.000000
10
35.755164
20
9.704396
30
0.000000
42
0.000000
10
35.638706
20
9.201728
30
0.000000
42
0.000000
10
35.524551
20
8.566731
30
0.000000
42
0.000000
10
35.425693
20
7.798696
30
0.000000
42
0.000000
10
35.355187
20
6.897886
30
0.000000
42
0.000000
10
35.326082
20
5.865537
30
0.000000
42
0.000000
10
35.368311
20
4.383005
30
0.000000
42
0.000000
10
37.151191
20
3.675455
30
0.000000
42
0.000000
10
38.198526
20
4.725584
30
0.000000
42
0.000000
10
38.885242
20
5.496956
30
0.000000
42
0.000000
10
39.451624
20
6.200974
30
0.000000
42
0.000000
10
39.906324
20
6.827790
30
0.000000
42
0.000000
10
40.258663
20
7.368262
30
0.000000
42
0.000000
10
40.518586
20
7.813995
30
0.000000
42
0.000000
10
40.696604
20
8.157382
30
0.000000
0
LWPOLYLINE
5
145
100
AcDbEntity
67
0
8
0
6
Continuous
62
0
370
-2
100
AcDbPolyline
90
2
70
0
10
40.696604
20
8.157382
30
0.000000
42
0.000000
10
42.825346
20
7.483939
30
0.000000
0
LWPOLYLINE
5
146
100
AcDbEntity
67
0
8
0
6
Continuous
62
0
370
-2
100
AcDbPolyline
90
16
70
0
10
42.825346
20
7.483939
30
0.000000
42
0.000000
10
42.773474
20
7.100645
30
0.000000
42
0.000000
10
42.729738
20
6.586520
30
0.000000
42
0.000000
10
42.707115
20
5.941740
30
0.000000
42
0.000000
10
42.718566
20
5.167454
30
0.000000
42
0.000000
10
42.776976
20
4.265778
30
0.000000
42
0.000000
10
42.895086
20
3.239795
30
0.000000
42
0.000000
10
43.147872
20
1.778363
30
0.000000
42
0.000000
10
45.013299
20
1.331746
30
0.000000
42
0.000000
10
45.900525
20
2.520237
30
0.000000
42
0.000000
10
46.470473
20
3.381487
30
0.000000
42
0.000000
10
46.930898
20
4.158944
30
0.000000
42
0.000000
10
47.291765
20
4.844090
30
0.000000
42
0.000000
10
47.563600
20
5.429204
30
0.000000
42
0.000000
10
47.757443
20
5.907391
30
0.000000
42
0.000000
10
47.884780
20
6.272617
30
0.000000
0
LWPOLYLINE
5
147
100
AcDbEntity
67
0
8
0
6
Continuous
62
0
370
-2
100
AcDbPolyline
90
2
70
0
10
47.884780
20
6.272617
30
0.000000
42
0.000000
10
50.087696
20
5.908981
30
0.000000
0
LWPOLYLINE
5
148
100
AcDbEntity
67
0
8
0
6
Continuous
62
0
370
-2
100
AcDbPolyline
90
16
70
0
10
50.087696
20
5.908981
30
0.000000
42
0.000000
10
50.090900
20
5.522206
30
0.000000
42
0.000000
10
50.120777
20
5.007090
30
0.000000
42
0.000000
10
50.190146
20
4.365653
30
0.000000
42
0.000000
10
50.311673
20
3.600878
30
0.000000
42
0.000000
10
50.497810
20
2.716693
30
0.000000
42
0.000000
10
50.760730
20
1.717961
30
0.000000
42
0.000000
10
51.218926
20
0.307380
30
0.000000
42
0.000000
10
53.128926
20
0.130786
30
0.000000
42
0.000000
10
53.837982
20
1.433446
30
0.000000
42
0.000000
10
54.279560
20
2.367042
30
0.000000
42
0.000000
10
54.624655
20
3.202110
30
0.000000
42
0.000000
10
54.884342
20
3.931639
30
0.000000
42
0.000000
10
55.070141
20
4.549484
30
0.000000
42
0.000000
10
55.193957
20
5.050390
30
0.000000
42
0.000000
10
55.268021
20
5.430021
30
0.000000
0
LWPOLYLINE
5
149
100
AcDbEntity
67
0
8
0
6
Continuous
62
0
370
-2
100
AcDbPolyline
90
2
70
0
10
55.268021
20
5.430021
30
0.000000
42
0.000000
10
57.500265
20
5.383594
30
0.000000
0
LWPOLYLINE
5
14A
100
AcDbEntity
67
0
8
0
6
Continuous
62
0
370
-2
100
AcDbPolyline
90
16
70
0
10
57.500265
20
5.383594
30
0.000000
42
0.000000
10
57.558480
20
5.001212
30
0.000000
42
0.000000
10
57.661362
20
4.495590
30
0.000000
42
0.000000
10
57.821311
20
3.870555
30
0.000000
42
0.000000
10
58.050439
20
3.130859
30
0.000000
42
0.000000
10
58.360514
20
2.282164
30
0.000000
42
0.000000
10
58.762893
20
1.331015
30
0.000000
42
0.000000
10
59.417172
20
0.000000
30
0.000000
42
0.000000
10
61.332863
20
0.097025
30
0.000000
42
0.000000
10
61.849314
20
1.487335
30
0.000000
42
0.000000
10
62.153533
20
2.474271
30
0.000000
42
0.000000
10
62.376273
20
3.349952
30
0.000000
42
0.000000
10
62.529493
20
4.109013
30
0.000000
42
0.000000
10
62.625472
20
4.747010
30
0.000000
42
0.000000
10
62.676742
20
5.260439
30
0.000000
42
0.000000
10
62.696025
20
5.646746
30
0.000000
0
LWPOLYLINE
5
14B
100
AcDbEntity
67
0
8
0
6
Continuous
62
0
370
-2
100
AcDbPolyline
90
2
70
0
10
62.696025
20
5.646746
30
0.000000
42
0.000000
10
64.912155
20
5.918473
30
0.000000
0
LWPOLYLINE
5
14C
100
AcDbEntity
67
0
8
0
6
Continuous
62
0
370
-2
100
AcDbPolyline
90
16
70
0
10
64.912155
20
5.918473
30
0.000000
42
0.000000
10
65.024196
20
5.548268
30
0.000000
42
0.000000
10
65.197989
20
5.062434
30
0.000000
42
0.000000
10
65.445261
20
4.466524
30
0.000000
42
0.000000
10
65.777327
20
3.766965
30
0.000000
42
0.000000
10
66.205028
20
2.971037
30
0.000000
42
0.000000
10
66.738674
20
2.086834
30
0.000000
42
0.000000
10
67.575716
20
0.862481
30
0.000000
42
0.000000
10
69.458100
20
1.231149
30
0.000000
42
0.000000
10
69.771432
20
2.680806
30
0.000000
42
0.000000
10
69.932099
20
3.700992
30
0.000000
42
0.000000
10
70.027950
20
4.599458
30
0.000000
42
0.000000
10
70.071585
20
5.372599
30
0.000000
42
0.000000
10
70.075790
20
6.017762
30
0.000000
42
0.000000
10
70.053469
20
6.533261
30
0.000000
42
0.000000
10
70.017579
20
6.918381
30
0.000000
0
LWPOLYLINE
5
14D
100
AcDbEntity
67
0
8
0
6
Continuous
62
0
370
-2
100
AcDbPolyline
90
2
70
0
10
70.017579
20
6.918381
30
0.000000
42
0.000000
10
72.172482
20
7.502730
30
0.000000
0
LWPOLYLINE
5
14E
100
AcDbEntity
67
0
8
0
6
Continuous
62
0
370
-2
100
AcDbPolyline
90
16
70
0
10
72.172482
20
7.502730
30
0.000000
42
0.000000
10
72.336068
20
7.152238
30
0.000000
42
0.000000
10
72.577233
20
6.696083
30
0.000000
42
0.000000
10
72.906795
20
6.141428
30
0.000000
42
0.000000
10
73.335039
20
5.496248
30
0.000000
42
0.000000
10
73.871659
20
4.769290
30
0.000000
42
0.000000
10
74.525708
20
3.970032
30
0.000000
42
0.000000
10
75.528474
20
2.877264
30
0.000000
42
0.000000
10
77.339231
20
3.510072
30
0.000000
42
0.000000
10
77.443066
20
4.989565
30
0.000000
42
0.000000
10
77.456911
20
6.022232
30
0.000000
42
0.000000
10
77.423920
20
6.925194
30
0.000000
42
0.000000
10
77.357082
20
7.696675
30
0.000000
42
0.000000
10
77.269428
20
8.335870
30
0.000000
42
0.000000
10
77.173971
20
8.842946
30
0.000000
42
0.000000
10
77.083638
20
9.219037
30
0.000000
0
LWPOLYLINE
5
14F
100
AcDbEntity
67
0
8
0
6
Continuous
62
0
370
-2
100
AcDbPolyline
90
2
70
0
10
77.083638
20
9.219037
30
0.000000
42
0.000000
10
79.133445
20
10.104113
30
0.000000
0
LWPOLYLINE
5
150
100
AcDbEntity
67
0
8
0
6
Continuous
62
0
370
-2
100
AcDbPolyline
90
16
70
0
10
79.133445
20
10.104113
30
0.000000
42
0.000000
10
79.345247
20
9.780470
30
0.000000
42
0.000000
10
79.648875
20
9.363279
30
0.000000
42
0.000000
10
80.054018
20
8.861172
30
0.000000
42
0.000000
10
80.569722
20
8.283504
30
0.000000
42
0.000000
10
81.204337
20
7.640314
30
0.000000
42
0.000000
10
81.965474
20
6.942273
30
0.000000
42
0.000000
10
83.113551
20
6.003336
30
0.000000
42
0.000000
10
84.815819
20
6.887400
30
0.000000
42
0.000000
10
84.708044
20
8.366611
30
0.000000
42
0.000000
10
84.574784
20
9.390737
30
0.000000
42
0.000000
10
84.413624
20
10.279814
30
0.000000
42
0.000000
10
84.237673
20
11.033930
30
0.000000
42
0.000000
10
84.059944
20
11.654144
30
0.000000
42
0.000000
10
83.893295
20
12.142474
30
0.000000
42
0.000000
10
83.750357
20
12.501882
30
0.000000
0
LWPOLYLINE
5
151
100
AcDbEntity
67
0
8
0
6
Continuous
62
0
370
-2
100
AcDbPolyline
90
2
70
0
10
83.750357
20
12.501882
30
0.000000
42
0.000000
10
85.653341
20
13.669667
30
0.000000
0
LWPOLYLINE
5
152
100
AcDbEntity
67
0
8
0
6
Continuous
62
0
370
-2
100
AcDbPolyline
90
16
70
0
10
85.653341
20
13.669667
30
0.000000
42
0.000000
10
85.909046
20
13.379460
30
0.000000
42
0.000000
10
86.268956
20
13.009726
30
0.000000
42
0.000000
10
86.741433
20
12.570388
30
0.000000
42
0.000000
10
87.334098
20
12.071992
30
0.000000
42
0.000000
10
88.053789
20
11.525664
30
0.000000
42
0.000000
10
88.906521
20
10.943049
30
0.000000
42
0.000000
10
90.176537
20
10.177058
30
0.000000
42
0.000000
10
91.735663
20
11.294381
30
0.000000
42
0.000000
10
91.418470
20
12.743198
30
0.000000
42
0.000000
10
91.140818
20
13.737935
30
0.000000
42
0.000000
10
90.854770
20
14.595027
30
0.000000
42
0.000000
10
90.573288
20
15.316427
30
0.000000
42
0.000000
10
90.309103
20
15.905035
30
0.000000
42
0.000000
10
90.074653
20
16.364677
30
0.000000
42
0.000000
10
89.882022
20
16.700085
30
0.000000
0
LWPOLYLINE
5
153
100
AcDbEntity
67
0
8
0
6
Continuous
62
0
370
-2
100
AcDbPolyline
90
2
70
0
10
89.882022
20
16.700085
30
0.000000
42
0.000000
10
91.599442
20
18.126806
30
0.000000
0
LWPOLYLINE
5
154
100
AcDbEntity
67
0
8
0
6
Continuous
62
0
370
-2
100
AcDbPolyline
90
16
70
0
10
91.599442
20
18.126806
30
0.000000
42
0.000000
10
91.893846
20
17.875944
30
0.000000
42
0.000000
10
92.302710
20
17.561194
30
0.000000
42
0.000000
10
92.832903
20
17.193568
30
0.000000
42
0.000000
10
93.490464
20
16.784590
30
0.000000
42
0.000000
10
94.280581
20
16.346245
30
0.000000
42
0.000000
10
95.207548
20
15.890917
30
0.000000
42
0.000000
10
96.573649
20
15.313465
30
0.000000
42
0.000000
10
97.957893
20
16.641302
30
0.000000
42
0.000000
10
97.437741
20
18.030231
30
0.000000
42
0.000000
10
97.021349
20
18.975329
30
0.000000
42
0.000000
10
96.616236
20
19.782988
30
0.000000
42
0.000000
10
96.234953
20
20.456986
30
0.000000
42
0.000000
10
95.889689
20
21.002005
30
0.000000
42
0.000000
10
95.592212
20
21.423603
30
0.000000
42
0.000000
10
95.353808
20
21.728183
30
0.000000
0
LWPOLYLINE
5
155
100
AcDbEntity
67
0
8
0
6
Continuous
62
0
370
-2
100
AcDbPolyline
90
2
70
0
10
95.353808
20
21.728183
30
0.000000
42
0.000000
10
96.850704
20
23.384797
30
0.000000
0
LWPOLYLINE
5
156
100
AcDbEntity
67
0
8
0
6
Continuous
62
0
370
-2
100
AcDbPolyline
90
16
70
0
10
96.850704
20
23.384797
30
0.000000
42
0.000000
10
97.177812
20
23.178386
30
0.000000
42
0.000000
10
97.627309
20
22.925027
30
0.000000
42
0.000000
10
98.204423
20
22.636597
30
0.000000
42
0.000000
10
98.913495
20
22.325363
30
0.000000
42
0.000000
10
99.757952
20
22.003925
30
0.000000
42
0.000000
10
100.740284
20
21.685153
30
0.000000
42
0.000000
10
102.174660
20
21.307994
30
0.000000
42
0.000000
10
103.355844
20
22.819315
30
0.000000
42
0.000000
10
102.643321
20
24.120081
30
0.000000
42
0.000000
10
102.096666
20
24.996301
30
0.000000
42
0.000000
10
101.580734
20
25.738085
30
0.000000
42
0.000000
10
101.107412
20
26.350961
30
0.000000
42
0.000000
10
100.688099
20
26.841296
30
0.000000
42
0.000000
10
100.333650
20
27.216268
30
0.000000
42
0.000000
10
100.054326
20
27.483818
30
0.000000
0
LWPOLYLINE
5
157
100
AcDbEntity
67
0
8
0
6
Continuous
62
0
370
-2
100
AcDbPolyline
90
2
70
0
10
100.054326
20
27.483818
30
0.000000
42
0.000000
10
101.300225
20
29.336601
30
0.000000
0
LWPOLYLINE
5
158
100
AcDbEntity
67
0
8
0
6
Continuous
62
0
370
-2
100
AcDbPolyline
90
16
70
0
10
101.300225
20
29.336601
30
0.000000
42
0.000000
10
101.653379
20
29.178843
30
0.000000
42
0.000000
10
102.134357
20
28.992033
30
0.000000
42
0.000000
10
102.746645
20
28.788671
30
0.000000
42
0.000000
10
103.492793
20
28.581517
30
0.000000
42
0.000000
10
104.374400
20
28.383529
30
0.000000
42
0.000000
10
105.392100
20
28.207802
30
0.000000
42
0.000000
10
106.865551
20
28.038615
30
0.000000
42
0.000000
10
107.819629
20
29.702653
30
0.000000
42
0.000000
10
106.929240
20
30.888777
30
0.000000
42
0.000000
10
106.263450
20
31.678280
30
0.000000
42
0.000000
10
105.647203
20
32.339090
30
0.000000
42
0.000000
10
105.091477
20
32.878366
30
0.000000
42
0.000000
10
104.606650
20
33.304036
30
0.000000
42
0.000000
10
104.202444
20
33.624748
30
0.000000
42
0.000000
10
103.887887
20
33.849823
30
0.000000
0
LWPOLYLINE
5
159
100
AcDbEntity
67
0
8
0
6
Continuous
62
0
370
-2
100
AcDbPolyline
90
2
70
0
10
103.887887
20
33.849823
30
0.000000
42
0.000000
10
104.857427
20
35.861057
30
0.000000
0
LWPOLYLINE
5
15A
100
AcDbEntity
67
0
8
0
6
Continuous
62
0
370
-2
100
AcDbPolyline
90
16
70
0
10
104.857427
20
35.861057
30
0.000000
42
0.000000
10
105.229437
20
35.755164
30
0.000000
42
0.000000
10
105.732105
20
35.638706
30
0.000000
42
0.000000
10
106.367103
20
35.524551
30
0.000000
42
0.000000
10
107.135137
20
35.425693
30
0.000000
42
0.000000
10
108.035947
20
35.355187
30
0.000000
42
0.000000
10
109.068297
20
35.326082
30
0.000000
42
0.000000
10
110.550828
20
35.368311
30
0.000000
42
0.000000
10
111.258378
20
37.151191
30
0.000000
42
0.000000
10
110.208249
20
38.198526
30
0.000000
42
0.000000
10
109.436878
20
38.885242
30
0.000000
42
0.000000
10
108.732860
20
39.451624
30
0.000000
42
0.000000
10
108.106044
20
39.906324
30
0.000000
42
0.000000
10
107.565572
20
40.258663
30
0.000000
42
0.000000
10
107.119838
20
40.518586
30
0.000000
42
0.000000
10
106.776451
20
40.696604
30
0.000000
0
LWPOLYLINE
5
15B
100
AcDbEntity
67
0
8
0
6
Continuous
62
0
370
-2
100
AcDbPolyline
90
2
70
0
10
106.776451
20
40.696604
30
0.000000
42
0.000000
10
107.449894
20
42.825346
30
0.000000
0
LWPOLYLINE
5
15C
100
AcDbEntity
67
0
8
0
6
Continuous
62
0
370
-2
100
AcDbPolyline
90
16
70
0
10
107.449894
20
42.825346
30
0.000000
42
0.000000
10
107.833188
20
42.773474
30
0.000000
42
0.000000
10
108.347314
20
42.729738
30
0.000000
42
0.000000
10
108.992093
20
42.707115
30
0.000000
42
0.000000
10
109.766380
20
42.718566
30
0.000000
42
0.000000
10
110.668055
20
42.776976
30
0.000000
42
0.000000
10
111.694038
20
42.895086
30
0.000000
42
0.000000
10
113.155470
20
43.147872
30
0.000000
42
0.000000
10
113.602087
20
45.013299
30
0.000000
42
0.000000
10
112.413596
20
45.900525
30
0.000000
42
0.000000
10
111.552346
20
46.470473
30
0.000000
42
0.000000
10
110.774890
20
46.930898
30
0.000000
42
0.000000
10
110.089743
20
47.291765
30
0.000000
42
0.000000
10
109.504629
20
47.563600
30
0.000000
42
0.000000
10
109.026442
20
47.757443
30
0.000000
42
0.000000
10
108.661216
20
47.884780
30
0.000000
0
LWPOLYLINE
5
15D
100
AcDbEntity
67
0
8
0
6
Continuous
62
0
370
-2
100
AcDbPolyline
90
2
70
0
10
108.661216
20
47.884780
30
0.000000
42
0.000000
10
109.024852
20
50.087696
30
0.000000
0
LWPOLYLINE
5
15E
100
AcDbEntity
67
0
8
0
6
Continuous
62
0
370
-2
100
AcDbPolyline
90
16
70
0
10
109.024852
20
50.087696
30
0.000000
42
0.000000
10
109.411627
20
50.090900
30
0.000000
42
0.000000
10
109.926744
20
50.120777
30
0.000000
42
0.000000
10
110.568180
20
50.190146
30
0.000000
42
0.000000
10
111.332956
20
50.311673
30
0.000000
42
0.000000
10
112.217141
20
50.497810
30
0.000000
42
0.000000
10
113.215872
20
50.760730
30
0.000000
42
0.000000
10
114.626453
20
51.218926
30
0.000000
42
0.000000
10
114.803047
20
53.128926
30
0.000000
42
0.000000
10
113.500387
20
53.837982
30
0.000000
42
0.000000
10
112.566792
20
54.279560
30
0.000000
42
0.000000
10
111.731723
20
54.624655
30
0.000000
42
0.000000
10
111.002194
20
54.884342
30
0.000000
42
0.000000
10
110.384349
20
55.070141
30
0.000000
42
0.000000
10
109.883443
20
55.193957
30
0.000000
42
0.000000
10
109.503812
20
55.268021
30
0.000000
0
LWPOLYLINE
5
15F
100
AcDbEntity
67
0
8
0
6
Continuous
62
0
370
-2
100
AcDbPolyline
90
2
70
0
10
109.503812
20
55.268021
30
0.000000
42
0.000000
10
109.550239
20
57.500265
30
0.000000
0
ENDBLK
5
160
330
105
100
AcDbEntity
8
0
100
AcDbBlockEnd
0
ENDSEC
0
SECTION
2
ENTITIES
0
INSERT
5
4B
100
AcDbEntity
67
0
8
1
6
Continuous
62
256
370
-1
100
AcDbBlockReference
66
0
2
gear-12
10
107.169017
20
285.373007
30
0.000000
41
1.000000
42
1.000000
43
1.000000
50
0.000000
0
INSERT
5
C1
100
AcDbEntity
67
0
8
2
6
Continuous
62
256
370
-1
100
AcDbBlockReference
66
0
2
gear-56
10
119.168971
20
282.541999
30
0.000000
41
1.000000
42
1.000000
43
1.000000
50
0.000000
0
INSERT
5
103
100
AcDbEntity
67
0
8
3
6
Continuous
62
256
370
-1
100
AcDbBlockReference
66
0
2
gear-30
10
41.721337
20
232.588015
30
0.000000
41
1.000000
42
1.000000
43
1.000000
50
0.000000
0
INSERT
5
161
100
AcDbEntity
67
0
8
4
6
Continuous
62
256
370
-1
100
AcDbBlockReference
66
0
2
gear-44
10
259.110440
20
299.402551
30
0.000000
41
1.000000
42
1.000000
43
1.000000
50
0.000000
0
TEXT
5
162
100
AcDbEntity
67
0
8
0
6
Continuous
62
256
370
-1
100
AcDbText
10
250.829377
20
230.391801
30
0.000000
40
10.000000
1
%%uPressure angle = 20%%d
50
0.000000
7
Standard
72
1
11
250.829377
21
230.391801
31
0.000000
100
AcDbText
73
1
0
TEXT
5
163
100
AcDbEntity
67
0
8
0
6
Continuous
62
256
370
-1
100
AcDbText
10
250.829377
20
249.863957
30
0.000000
40
10.000000
1
%%uGear modulus = 2.5mm
50
0.000000
7
Standard
72
1
11
250.829377
21
249.863957
31
0.000000
100
AcDbText
73
1
0
MTEXT
5
164
100
AcDbEntity
67
0
8
0
6
Continuous
62
256
370
-1
100
AcDbMText
10
124.579031
20
302.783021
30
0.000000
40
2.000000
41
0.000000
71
5
72
1
1
N = 12\PD = 30mm
7
Standard
11
1.000000
21
0.000000
31
0.000000
0
MTEXT
5
165
100
AcDbEntity
67
0
8
0
6
Continuous
62
256
370
-1
100
AcDbMText
10
81.682234
20
272.583861
30
0.000000
40
2.000000
41
0.000000
71
5
72
1
1
N = 30\PD = 75mm
7
Standard
11
1.000000
21
0.000000
31
0.000000
0
MTEXT
5
166
100
AcDbEntity
67
0
8
0
6
Continuous
62
256
370
-1
100
AcDbMText
10
191.637487
20
355.010514
30
0.000000
40
2.000000
41
0.000000
71
5
72
1
1
N = 56\PD = 140mm
7
Standard
11
1.000000
21
0.000000
31
0.000000
0
MTEXT
5
167
100
AcDbEntity
67
0
8
0
6
Continuous
62
256
370
-1
100
AcDbMText
10
316.577357
20
356.869468
30
0.000000
40
2.000000
41
0.000000
71
5
72
1
1
N = 44\PD = 110mm
7
Standard
11
1.000000
21
0.000000
31
0.000000
0
ENDSEC
0
SECTION
2
OBJECTS
0
DICTIONARY
5
22
100
AcDbDictionary
281
1
3
ACAD_COLOR
350
23
3
ACAD_GROUP
350
26
3
ACAD_LAYOUT
350
27
3
ACAD_MATERIAL
350
28
3
ACAD_MLINESTYLE
350
29
3
ACAD_PLOTSETTINGS
350
2A
3
ACAD_PLOTSTYLENAME
350
2B
3
ACAD_TABLESTYLE
350
2C
3
AcadDim
350
2D
0
DICTIONARY
5
23
100
AcDbDictionary
0
DICTIONARY
5
26
100
AcDbDictionary
0
DICTIONARY
5
27
100
AcDbDictionary
0
DICTIONARY
5
28
100
AcDbDictionary
0
DICTIONARY
5
29
100
AcDbDictionary
0
DICTIONARY
5
2A
100
AcDbDictionary
0
DICTIONARY
5
2B
100
AcDbDictionary
0
DICTIONARY
5
2C
100
AcDbDictionary
0
DICTIONARY
5
2D
100
AcDbDictionary
0
ENDSEC
0
EOF
