<svg width="1188.0000" height="840.0000" version="1.1" xmlns="http://www.w3.org/2000/svg" xmlns:xlink="http://www.w3.org/1999/xlink">
<path stroke="rgb(0, 0, 0)" fill="none" d="M306 692 L946 692 "/>
<path stroke="rgb(0, 0, 0)" fill="none" d="M946 692 L946 212 "/>
<path stroke="rgb(0, 0, 0)" fill="none" d="M946 212 L306 692 "/>
<path stroke="rgb(150, 150, 0)" fill="none" d="M888.4 135.2 L248.4 615.2 "/>
<path stroke="rgb(150, 150, 0)" fill="none" d="M888.4 135.2 L858 148 "/>
<path stroke="rgb(150, 150, 0)" fill="none" d="M888.4 135.2 L867.6 160.8 "/>
<path stroke="rgb(150, 150, 0)" fill="none" d="M248.4 615.2 L269.2 589.6 "/>
<path stroke="rgb(150, 150, 0)" fill="none" d="M248.4 615.2 L278.8 602.4 "/>
<path stroke="rgb(150, 150, 0)" fill="none" d="M517.2 360.3 L518.3 352.8 L526.8 346.4 L534.3 347.5 L537.5 351.7 L536.4 359.2 L527.9 365.6 L526.8 373.1 L533.2 381.6 L550.3 368.8 "/>
<path stroke="rgb(150, 150, 0)" fill="none" d="M555.6 358.1 L563.1 359.2 L571.6 352.8 L572.7 345.3 L566.3 336.8 L558.8 335.7 L546 345.3 L539.6 336.8 L556.7 324 "/>
<path stroke="rgb(150, 150, 0)" fill="none" d="M878.8 122.4 L936.4 199.2 "/>
<path stroke="rgb(150, 150, 0)" fill="none" d="M238.8 602.4 L296.4 679.2 "/>
<path stroke="rgb(150, 150, 0)" fill="none" d="M1042 692 L1042 212 "/>
<path stroke="rgb(150, 150, 0)" fill="none" d="M1042 692 L1050 660 "/>
<path stroke="rgb(150, 150, 0)" fill="none" d="M1042 692 L1034 660 "/>
<path stroke="rgb(150, 150, 0)" fill="none" d="M1042 212 L1050 244 "/>
<path stroke="rgb(150, 150, 0)" fill="none" d="M1042 212 L1034 244 "/>
<path stroke="rgb(150, 150, 0)" fill="none" d="M1085 425.3 L1090 430.7 L1058 430.7 M1058 425.3 L1058 436 "/>
<path stroke="rgb(150, 150, 0)" fill="none" d="M1063 446.7 L1058 452 L1058 462.7 L1063 468 L1074 468 L1079 462.7 L1079 446.7 L1090 446.7 L1090 468 "/>
<path stroke="rgb(150, 150, 0)" fill="none" d="M1058 692 L962 692 "/>
<path stroke="rgb(150, 150, 0)" fill="none" d="M1058 212 L962 212 "/>
<path stroke="rgb(150, 150, 0)" fill="none" d="M946 788 L306 788 "/>
<path stroke="rgb(150, 150, 0)" fill="none" d="M946 788 L914 780 "/>
<path stroke="rgb(150, 150, 0)" fill="none" d="M946 788 L914 796 "/>
<path stroke="rgb(150, 150, 0)" fill="none" d="M306 788 L338 780 "/>
<path stroke="rgb(150, 150, 0)" fill="none" d="M306 788 L338 796 "/>
<path stroke="rgb(150, 150, 0)" fill="none" d="M596.7 809.3 L602 804 L612.7 804 L618 809.3 L618 814.7 L612.7 820 L602 820 L596.7 825.3 L596.7 836 L618 836 "/>
<path stroke="rgb(150, 150, 0)" fill="none" d="M634 836 L628.7 830.7 L628.7 809.3 L634 804 L639.3 804 L644.7 809.3 L644.7 830.7 L639.3 836 L634 836 "/>
<path stroke="rgb(150, 150, 0)" fill="none" d="M946 804 L946 708 "/>
<path stroke="rgb(150, 150, 0)" fill="none" d="M306 804 L306 708 "/>
<path stroke="rgb(255, 0, 0)" fill="none" d="M946 52 L306 52 "/>
<path stroke="rgb(255, 0, 0)" fill="none" d="M946 52 L914 44 "/>
<path stroke="rgb(255, 0, 0)" fill="none" d="M946 52 L914 60 "/>
<path stroke="rgb(255, 0, 0)" fill="none" d="M306 52 L338 44 "/>
<path stroke="rgb(255, 0, 0)" fill="none" d="M306 52 L338 60 "/>
<path stroke="rgb(255, 0, 0)" fill="none" d="M596.7 9.333 L602 4 L612.7 4 L618 9.333 L618 14.67 L612.7 20 L602 20 L596.7 25.33 L596.7 36 L618 36 "/>
<path stroke="rgb(255, 0, 0)" fill="none" d="M634 36 L628.7 30.67 L628.7 9.333 L634 4 L639.3 4 L644.7 9.333 L644.7 30.67 L639.3 36 L634 36 "/>
<path stroke="rgb(255, 0, 0)" fill="none" d="M946 36 L946 196 "/>
<path stroke="rgb(255, 0, 0)" fill="none" d="M306 36 L306 676 "/>
<path stroke="rgb(255, 0, 0)" fill="none" d="M146 212 L146 692 "/>
<path stroke="rgb(255, 0, 0)" fill="none" d="M146 212 L138 244 "/>
<path stroke="rgb(255, 0, 0)" fill="none" d="M146 212 L154 244 "/>
<path stroke="rgb(255, 0, 0)" fill="none" d="M146 692 L138 660 "/>
<path stroke="rgb(255, 0, 0)" fill="none" d="M146 692 L154 660 "/>
<path stroke="rgb(255, 0, 0)" fill="none" d="M103.3 478.7 L98 473.3 L130 473.3 M130 478.7 L130 468 "/>
<path stroke="rgb(255, 0, 0)" fill="none" d="M124.7 457.3 L130 452 L130 441.3 L124.7 436 L114 436 L108.7 441.3 L108.7 457.3 L98 457.3 L98 436 "/>
<path stroke="rgb(255, 0, 0)" fill="none" d="M130 212 L930 212 "/>
<path stroke="rgb(255, 0, 0)" fill="none" d="M130 692 L290 692 "/>
</svg>