999
CadZinho - Minimalist CAD by Zecruel
0
SECTION
2
HEADER
9
$ACADVER
1
AC1021
9
$HANDSEED
5
6E
9
$INSUNITS
70
4
9
$LWDISPLAY
290
1
0
ENDSEC
0
SECTION
2
CLASSES
0
ENDSEC
0
SECTION
2
TABLES
0
TABLE
2
VPORT
5
1
100
AcDbSymbolTable
70
1000
0
VPORT
5
25
100
AcDbSymbolTableRecord
100
AcDbViewportTableRecord
2
*ACTIVE
70
0
10
0.000000
20
0.000000
11
1.000000
21
1.000000
12
20.000000
22
320.000000
13
0.000000
23
0.000000
14
100.000000
24
100.000000
15
100.000000
25
100.000000
16
0.000000
26
0.000000
36
1.000000
17
0.000000
27
0.000000
37
0.000000
40
25.000000
41
1.800000
42
50.000000
43
0.000000
44
0.000000
50
0.000000
51
0.000000
0
ENDTAB
0
TABLE
2
LTYPE
5
4
100
AcDbSymbolTable
70
1000
0
LTYPE
5
5
100
AcDbSymbolTableRecord
100
AcDbLinetypeTableRecord
2
ByBlock
70
0
3

72
65
73
0
40
0.000000
0
LTYPE
5
6
100
AcDbSymbolTableRecord
100
AcDbLinetypeTableRecord
2
ByLayer
70
0
3

72
65
73
0
40
0.000000
0
LTYPE
5
7
100
AcDbSymbolTableRecord
100
AcDbLinetypeTableRecord
2
Continuous
70
0
3
___________________________________
72
65
73
0
40
0.000000
0
LTYPE
5
8
100
AcDbSymbolTableRecord
100
AcDbLinetypeTableRecord
2
Border
70
0
3
____ . ____ ____ . ____ ____ . ____
72
65
73
6
40
1.750000
49
0.500000
74
0
49
-0.250000
74
0
49
0.500000
74
0
49
-0.250000
74
0
49
0.000000
74
0
49
-0.250000
74
0
0
LTYPE
5
9
100
AcDbSymbolTableRecord
100
AcDbLinetypeTableRecord
2
Center
70
0
3
____ _ ____ _ ____ _ ____ _ ____ _
72
65
73
4
40
2.000000
49
1.250000
74
0
49
-0.250000
74
0
49
0.250000
74
0
49
-0.250000
74
0
0
LTYPE
5
A
100
AcDbSymbolTableRecord
100
AcDbLinetypeTableRecord
2
Dashdot
70
0
3
____ . ____ . ____ . ____ . ____ .
72
65
73
4
40
1.000000
49
0.500000
74
0
49
-0.250000
74
0
49
0.000000
74
0
49
-0.250000
74
0
0
LTYPE
5
B
100
AcDbSymbolTableRecord
100
AcDbLinetypeTableRecord
2
Dashed
70
0
3
____ ____ ____ ____ ____ ____ ____
72
65
73
2
40
0.750000
49
0.500000
74
0
49
-0.250000
74
0
0
LTYPE
5
C
100
AcDbSymbolTableRecord
100
AcDbLinetypeTableRecord
2
Divide
70
0
3
____ . . ____ . . ____ . . ____ . .
72
65
73
6
40
1.250000
49
0.500000
74
0
49
-0.250000
74
0
49
0.000000
74
0
49
-0.250000
74
0
49
0.000000
74
0
49
-0.250000
74
0
0
LTYPE
5
D
100
AcDbSymbolTableRecord
100
AcDbLinetypeTableRecord
2
Dot
70
0
3
. . . . . . . . . . . . . . . . . .
72
65
73
2
40
0.250000
49
0.000000
74
0
49
-0.250000
74
0
0
LTYPE
5
E
100
AcDbSymbolTableRecord
100
AcDbLinetypeTableRecord
2
Hidden
70
0
3
__ __ __ __ __ __ __ __ __ __ __ __
72
65
73
2
40
0.375000
49
0.250000
74
0
49
-0.125000
74
0
0
LTYPE
5
F
100
AcDbSymbolTableRecord
100
AcDbLinetypeTableRecord
2
Phantom
70
0
3
_____ _ _ _____ _ _ _____ _ _ _____
72
65
73
6
40
2.500000
49
1.250000
74
0
49
-0.250000
74
0
49
0.250000
74
0
49
-0.250000
74
0
49
0.250000
74
0
49
-0.250000
74
0
0
ENDTAB
0
TABLE
2
LAYER
5
10
100
AcDbSymbolTable
70
1000
0
LAYER
5
11
100
AcDbSymbolTableRecord
100
AcDbLayerTableRecord
2
0
70
0
62
7
6
Continuous
370
0
390
2B
0
LAYER
5
2E
100
AcDbSymbolTableRecord
100
AcDbLayerTableRecord
2
dim
70
0
62
2
6
Continuous
370
0
390
2B
0
ENDTAB
0
TABLE
2
STYLE
5
12
100
AcDbSymbolTable
70
1000
0
STYLE
5
13
100
AcDbSymbolTableRecord
100
AcDbTextStyleTableRecord
2
Standard
70
0
40
0.000000
41
1.000000
50
0.000000
71
0
42
1.000000
3
TXT.SHX
4

0
STYLE
5
24
100
AcDbSymbolTableRecord
100
AcDbTextStyleTableRecord
2

70
1
40
0.000000
41
1.000000
50
0.000000
71
0
42
1.000000
3
LTYPESHP.SHX
4

0
ENDTAB
0
TABLE
2
VIEW
5
14
100
AcDbSymbolTable
70
0
0
ENDTAB
0
TABLE
2
UCS
5
15
100
AcDbSymbolTable
70
0
0
ENDTAB
0
TABLE
2
APPID
5
16
100
AcDbSymbolTable
70
10
0
APPID
5
17
100
AcDbSymbolTableRecord
100
AcDbRegAppTableRecord
2
ACAD
70
0
0
APPID
5
18
100
AcDbSymbolTableRecord
100
AcDbRegAppTableRecord
2
CADZINHO
70
0
0
ENDTAB
0
TABLE
2
DIMSTYLE
5
19
100
AcDbSymbolTable
70
1
100
AcDbDimStyleTable
71
1
0
DIMSTYLE
105
1A
100
AcDbSymbolTableRecord
100
AcDbDimStyleTableRecord
2
Standard
70
0
340
13
0
ENDTAB
0
TABLE
2
BLOCK_RECORD
5
1B
100
AcDbSymbolTable
70
9999
0
BLOCK_RECORD
5
1C
100
AcDbSymbolTableRecord
100
AcDbBlockTableRecord
2
*Model_Space
70
0
0
BLOCK_RECORD
5
1D
100
AcDbSymbolTableRecord
100
AcDbBlockTableRecord
2
*Paper_Space
70
0
0
BLOCK_RECORD
5
32
100
AcDbSymbolTableRecord
100
AcDbBlockTableRecord
2
*D1
70
0
0
BLOCK_RECORD
5
3E
100
AcDbSymbolTableRecord
100
AcDbBlockTableRecord
2
*D2
70
0
0
BLOCK_RECORD
5
4A
100
AcDbSymbolTableRecord
100
AcDbBlockTableRecord
2
*D3
70
0
0
BLOCK_RECORD
5
56
100
AcDbSymbolTableRecord
100
AcDbBlockTableRecord
2
*D4
70
0
0
BLOCK_RECORD
5
62
100
AcDbSymbolTableRecord
100
AcDbBlockTableRecord
2
*D5
70
0
0
ENDTAB
0
ENDSEC
0
SECTION
2
BLOCKS
0
BLOCK
5
1E
100
AcDbEntity
8
0
100
AcDbBlockBegin
2
*Model_Space
70
0
10
0.000000
20
0.000000
30
0.000000
3
*Model_Space
1

0
ENDBLK
5
1F
100
AcDbEntity
8
0
100
AcDbBlockEnd
0
BLOCK
5
20
100
AcDbEntity
8
0
100
AcDbBlockBegin
2
*Paper_Space
70
0
10
0.000000
20
0.000000
30
0.000000
3
*Paper_Space
1

0
ENDBLK
5
21
100
AcDbEntity
8
0
100
AcDbBlockEnd
0
BLOCK
5
33
330
32
100
AcDbEntity
8
0
100
AcDbBlockBegin
2
*D1
70
1
10
0.000000
20
0.000000
30
0.000000
3
*D1
1

4

0
LINE
5
34
100
AcDbEntity
67
0
8
0
6
BYBLOCK
62
0
370
-2
100
AcDbLine
10
23.500000
20
25.950000
30
0.000000
11
3.500000
21
10.950000
31
0.000000
0
LINE
5
35
100
AcDbEntity
67
0
8
0
6
BYBLOCK
62
0
370
-2
100
AcDbLine
10
23.500000
20
25.950000
30
0.000000
11
22.550000
21
25.550000
31
0.000000
0
LINE
5
36
100
AcDbEntity
67
0
8
0
6
BYBLOCK
62
0
370
-2
100
AcDbLine
10
23.500000
20
25.950000
30
0.000000
11
22.850000
21
25.150000
31
0.000000
0
LINE
5
37
100
AcDbEntity
67
0
8
0
6
BYBLOCK
62
0
370
-2
100
AcDbLine
10
3.500000
20
10.950000
30
0.000000
11
4.150000
21
11.750000
31
0.000000
0
LINE
5
38
100
AcDbEntity
67
0
8
0
6
BYBLOCK
62
0
370
-2
100
AcDbLine
10
3.500000
20
10.950000
30
0.000000
11
4.450000
21
11.350000
31
0.000000
0
MTEXT
5
39
100
AcDbEntity
67
0
8
0
6
BYBLOCK
62
0
370
-2
100
AcDbMText
10
12.900000
20
19.250000
30
0.000000
40
1.000000
41
0.000000
71
5
72
1
1
25.000000
7
STANDARD
11
0.800000
21
0.600000
31
0.000000
0
LINE
5
3A
100
AcDbEntity
67
0
8
0
6
BYBLOCK
62
0
370
-2
100
AcDbLine
10
23.200000
20
26.350000
30
0.000000
11
25.000000
21
23.950000
31
0.000000
0
LINE
5
3B
100
AcDbEntity
67
0
8
0
6
BYBLOCK
62
0
370
-2
100
AcDbLine
10
3.200000
20
11.350000
30
0.000000
11
5.000000
21
8.950000
31
0.000000
0
ENDBLK
5
3C
330
33
100
AcDbEntity
8
0
100
AcDbBlockEnd
0
BLOCK
5
3F
330
3E
100
AcDbEntity
8
0
100
AcDbBlockBegin
2
*D2
70
1
10
0.000000
20
0.000000
30
0.000000
3
*D2
1

4

0
LINE
5
40
100
AcDbEntity
67
0
8
0
6
BYBLOCK
62
0
370
-2
100
AcDbLine
10
28.300000
20
8.550000
30
0.000000
11
28.300000
21
23.550000
31
0.000000
0
LINE
5
41
100
AcDbEntity
67
0
8
0
6
BYBLOCK
62
0
370
-2
100
AcDbLine
10
28.300000
20
8.550000
30
0.000000
11
28.550000
21
9.550000
31
0.000000
0
LINE
5
42
100
AcDbEntity
67
0
8
0
6
BYBLOCK
62
0
370
-2
100
AcDbLine
10
28.300000
20
8.550000
30
0.000000
11
28.050000
21
9.550000
31
0.000000
0
LINE
5
43
100
AcDbEntity
67
0
8
0
6
BYBLOCK
62
0
370
-2
100
AcDbLine
10
28.300000
20
23.550000
30
0.000000
11
28.550000
21
22.550000
31
0.000000
0
LINE
5
44
100
AcDbEntity
67
0
8
0
6
BYBLOCK
62
0
370
-2
100
AcDbLine
10
28.300000
20
23.550000
30
0.000000
11
28.050000
21
22.550000
31
0.000000
0
MTEXT
5
45
100
AcDbEntity
67
0
8
0
6
BYBLOCK
62
0
370
-2
100
AcDbMText
10
29.300000
20
16.050000
30
0.000000
40
1.000000
41
0.000000
71
5
72
1
1
15.000000
7
STANDARD
11
0.000000
21
-1.000000
31
0.000000
0
LINE
5
46
100
AcDbEntity
67
0
8
0
6
BYBLOCK
62
0
370
-2
100
AcDbLine
10
28.800000
20
8.550000
30
0.000000
11
25.800000
21
8.550000
31
0.000000
0
LINE
5
47
100
AcDbEntity
67
0
8
0
6
BYBLOCK
62
0
370
-2
100
AcDbLine
10
28.800000
20
23.550000
30
0.000000
11
25.800000
21
23.550000
31
0.000000
0
ENDBLK
5
48
330
3F
100
AcDbEntity
8
0
100
AcDbBlockEnd
0
BLOCK
5
4B
330
4A
100
AcDbEntity
8
0
100
AcDbBlockBegin
2
*D3
70
1
10
0.000000
20
0.000000
30
0.000000
3
*D3
1

4

0
LINE
5
4C
100
AcDbEntity
67
0
8
0
6
BYBLOCK
62
0
370
-2
100
AcDbLine
10
25.300000
20
5.550000
30
0.000000
11
5.300000
21
5.550000
31
0.000000
0
LINE
5
4D
100
AcDbEntity
67
0
8
0
6
BYBLOCK
62
0
370
-2
100
AcDbLine
10
25.300000
20
5.550000
30
0.000000
11
24.300000
21
5.800000
31
0.000000
0
LINE
5
4E
100
AcDbEntity
67
0
8
0
6
BYBLOCK
62
0
370
-2
100
AcDbLine
10
25.300000
20
5.550000
30
0.000000
11
24.300000
21
5.300000
31
0.000000
0
LINE
5
4F
100
AcDbEntity
67
0
8
0
6
BYBLOCK
62
0
370
-2
100
AcDbLine
10
5.300000
20
5.550000
30
0.000000
11
6.300000
21
5.800000
31
0.000000
0
LINE
5
50
100
AcDbEntity
67
0
8
0
6
BYBLOCK
62
0
370
-2
100
AcDbLine
10
5.300000
20
5.550000
30
0.000000
11
6.300000
21
5.300000
31
0.000000
0
MTEXT
5
51
100
AcDbEntity
67
0
8
0
6
BYBLOCK
62
0
370
-2
100
AcDbMText
10
15.300000
20
4.550000
30
0.000000
40
1.000000
41
0.000000
71
5
72
1
1
20.000000
7
STANDARD
11
1.000000
21
0.000000
31
0.000000
0
LINE
5
52
100
AcDbEntity
67
0
8
0
6
BYBLOCK
62
0
370
-2
100
AcDbLine
10
25.300000
20
5.050000
30
0.000000
11
25.300000
21
8.050000
31
0.000000
0
LINE
5
53
100
AcDbEntity
67
0
8
0
6
BYBLOCK
62
0
370
-2
100
AcDbLine
10
5.300000
20
5.050000
30
0.000000
11
5.300000
21
8.050000
31
0.000000
0
ENDBLK
5
54
330
4B
100
AcDbEntity
8
0
100
AcDbBlockEnd
0
BLOCK
5
57
330
56
100
AcDbEntity
8
0
100
AcDbBlockBegin
2
*D4
70
1
10
0.000000
20
0.000000
30
0.000000
3
*D4
1

4

0
LINE
5
58
100
AcDbEntity
67
0
8
0
6
BYBLOCK
62
0
370
-2
100
AcDbLine
10
1.057056
20
23.550000
30
0.000000
11
1.057056
21
8.550000
31
0.000000
0
LINE
5
59
100
AcDbEntity
67
0
8
0
6
BYBLOCK
62
0
370
-2
100
AcDbLine
10
1.057056
20
23.550000
30
0.000000
11
0.807056
21
22.550000
31
0.000000
0
LINE
5
5A
100
AcDbEntity
67
0
8
0
6
BYBLOCK
62
0
370
-2
100
AcDbLine
10
1.057056
20
23.550000
30
0.000000
11
1.307056
21
22.550000
31
0.000000
0
LINE
5
5B
100
AcDbEntity
67
0
8
0
6
BYBLOCK
62
0
370
-2
100
AcDbLine
10
1.057056
20
8.550000
30
0.000000
11
0.807056
21
9.550000
31
0.000000
0
LINE
5
5C
100
AcDbEntity
67
0
8
0
6
BYBLOCK
62
0
370
-2
100
AcDbLine
10
1.057056
20
8.550000
30
0.000000
11
1.307056
21
9.550000
31
0.000000
0
MTEXT
5
5D
100
AcDbEntity
67
0
8
0
6
BYBLOCK
62
0
370
-2
100
AcDbMText
10
0.057056
20
16.050000
30
0.000000
40
1.000000
41
0.000000
71
5
72
1
1
15.000000
7
STANDARD
11
0.000000
21
1.000000
31
0.000000
0
LINE
5
5E
100
AcDbEntity
67
0
8
0
6
BYBLOCK
62
0
370
-2
100
AcDbLine
10
0.557056
20
23.550000
30
0.000000
11
24.800000
21
23.550000
31
0.000000
0
LINE
5
5F
100
AcDbEntity
67
0
8
0
6
BYBLOCK
62
0
370
-2
100
AcDbLine
10
0.557056
20
8.550000
30
0.000000
11
4.800000
21
8.550000
31
0.000000
0
ENDBLK
5
60
330
57
100
AcDbEntity
8
0
100
AcDbBlockEnd
0
BLOCK
5
63
330
62
100
AcDbEntity
8
0
100
AcDbBlockBegin
2
*D5
70
1
10
0.000000
20
0.000000
30
0.000000
3
*D5
1

4

0
LINE
5
64
100
AcDbEntity
67
0
8
0
6
BYBLOCK
62
0
370
-2
100
AcDbLine
10
25.300000
20
28.766440
30
0.000000
11
5.300000
21
28.766440
31
0.000000
0
LINE
5
65
100
AcDbEntity
67
0
8
0
6
BYBLOCK
62
0
370
-2
100
AcDbLine
10
25.300000
20
28.766440
30
0.000000
11
24.300000
21
29.016440
31
0.000000
0
LINE
5
66
100
AcDbEntity
67
0
8
0
6
BYBLOCK
62
0
370
-2
100
AcDbLine
10
25.300000
20
28.766440
30
0.000000
11
24.300000
21
28.516440
31
0.000000
0
LINE
5
67
100
AcDbEntity
67
0
8
0
6
BYBLOCK
62
0
370
-2
100
AcDbLine
10
5.300000
20
28.766440
30
0.000000
11
6.300000
21
29.016440
31
0.000000
0
LINE
5
68
100
AcDbEntity
67
0
8
0
6
BYBLOCK
62
0
370
-2
100
AcDbLine
10
5.300000
20
28.766440
30
0.000000
11
6.300000
21
28.516440
31
0.000000
0
MTEXT
5
69
100
AcDbEntity
67
0
8
0
6
BYBLOCK
62
0
370
-2
100
AcDbMText
10
15.300000
20
29.766440
30
0.000000
40
1.000000
41
0.000000
71
5
72
1
1
20.000000
7
STANDARD
11
1.000000
21
0.000000
31
0.000000
0
LINE
5
6A
100
AcDbEntity
67
0
8
0
6
BYBLOCK
62
0
370
-2
100
AcDbLine
10
25.300000
20
29.266440
30
0.000000
11
25.300000
21
24.050000
31
0.000000
0
LINE
5
6B
100
AcDbEntity
67
0
8
0
6
BYBLOCK
62
0
370
-2
100
AcDbLine
10
5.300000
20
29.266440
30
0.000000
11
5.300000
21
9.050000
31
0.000000
0
ENDBLK
5
6C
330
63
100
AcDbEntity
8
0
100
AcDbBlockEnd
0
ENDSEC
0
SECTION
2
ENTITIES
0
LINE
5
2F
100
AcDbEntity
67
0
8
0
6
ByLayer
62
256
370
-1
100
AcDbLine
10
5.300000
20
8.550000
30
0.000000
11
25.300000
21
8.550000
31
0.000000
0
LINE
5
30
100
AcDbEntity
67
0
8
0
6
ByLayer
62
256
370
-1
100
AcDbLine
10
25.300000
20
8.550000
30
0.000000
11
25.300000
21
23.550000
31
0.000000
0
LINE
5
31
100
AcDbEntity
67
0
8
0
6
ByLayer
62
256
370
-1
100
AcDbLine
10
25.300000
20
23.550000
30
0.000000
11
5.300000
21
8.550000
31
0.000000
0
DIMENSION
5
3D
100
AcDbEntity
67
0
8
dim
6
ByLayer
62
256
370
-1
100
AcDbDimension
2
*D1
10
23.500000
20
25.950000
30
0.000000
11
12.900000
21
19.250000
31
0.000000
70
32
71
5
42
25.000000
1
<>
73
0
74
0
75
0
3
Standard
100
AcDbAlignedDimension
13
5.300000
23
8.550000
33
0.000000
14
25.300000
24
23.550000
34
0.000000
50
36.869898
100
AcDbRotatedDimension
0
DIMENSION
5
49
100
AcDbEntity
67
0
8
dim
6
ByLayer
62
256
370
-1
100
AcDbDimension
2
*D2
10
28.300000
20
8.550000
30
0.000000
11
29.300000
21
16.050000
31
0.000000
70
32
71
5
42
15.000000
1
<>
73
0
74
0
75
0
3
Standard
100
AcDbAlignedDimension
13
25.300000
23
23.550000
33
0.000000
14
25.300000
24
8.550000
34
0.000000
50
-90.000000
100
AcDbRotatedDimension
0
DIMENSION
5
55
100
AcDbEntity
67
0
8
dim
6
ByLayer
62
256
370
-1
100
AcDbDimension
2
*D3
10
25.300000
20
5.550000
30
0.000000
11
15.300000
21
4.550000
31
0.000000
70
32
71
5
42
20.000000
1
<>
73
0
74
0
75
0
3
Standard
100
AcDbAlignedDimension
13
5.300000
23
8.550000
33
0.000000
14
25.300000
24
8.550000
34
0.000000
50
0.000000
100
AcDbRotatedDimension
0
DIMENSION
5
61
100
AcDbEntity
67
0
8
dim
6
ByLayer
62
1
370
-1
100
AcDbDimension
2
*D4
10
1.057056
20
23.550000
30
0.000000
11
0.057056
21
16.050000
31
0.000000
70
32
71
5
42
15.000000
1
<>
73
0
74
0
75
0
3
Standard
100
AcDbAlignedDimension
13
5.300000
23
8.550000
33
0.000000
14
25.300000
24
23.550000
34
0.000000
50
90.000000
100
AcDbRotatedDimension
0
DIMENSION
5
6D
100
AcDbEntity
67
0
8
dim
6
ByLayer
62
1
370
-1
100
AcDbDimension
2
*D5
10
25.300000
20
28.766440
30
0.000000
11
15.300000
21
29.766440
31
0.000000
70
32
71
5
42
20.000000
1
<>
73
0
74
0
75
0
3
Standard
100
AcDbAlignedDimension
13
5.300000
23
8.550000
33
0.000000
14
25.300000
24
23.550000
34
0.000000
50
0.000000
100
AcDbRotatedDimension
0
ENDSEC
0
SECTION
2
OBJECTS
0
DICTIONARY
5
22
100
AcDbDictionary
281
1
3
ACAD_COLOR
350
23
3
ACAD_GROUP
350
26
3
ACAD_LAYOUT
350
27
3
ACAD_MATERIAL
350
28
3
ACAD_MLINESTYLE
350
29
3
ACAD_PLOTSETTINGS
350
2A
3
ACAD_PLOTSTYLENAME
350
2B
3
ACAD_TABLESTYLE
350
2C
3
AcadDim
350
2D
0
DICTIONARY
5
23
100
AcDbDictionary
0
DICTIONARY
5
26
100
AcDbDictionary
0
DICTIONARY
5
27
100
AcDbDictionary
0
DICTIONARY
5
28
100
AcDbDictionary
0
DICTIONARY
5
29
100
AcDbDictionary
0
DICTIONARY
5
2A
100
AcDbDictionary
0
DICTIONARY
5
2B
100
AcDbDictionary
0
DICTIONARY
5
2C
100
AcDbDictionary
0
DICTIONARY
5
2D
100
AcDbDictionary
0
ENDSEC
0
EOF
