999
CadZinho - Minimalist CAD by Zecruel
0
SECTION
2
HEADER
9
$ACADVER
1
AC1021
9
$HANDSEED
5
AA
9
$INSUNITS
70
4
9
$LWDISPLAY
290
1
0
ENDSEC
0
SECTION
2
CLASSES
0
ENDSEC
0
SECTION
2
TABLES
0
TABLE
2
VPORT
5
1
100
AcDbSymbolTable
70
1000
0
VPORT
5
25
100
AcDbSymbolTableRecord
100
AcDbViewportTableRecord
2
*ACTIVE
70
0
10
0
20
0
11
1
21
1
12
20
22
320
13
0
23
0
14
100
24
100
15
100
25
100
16
0
26
0
36
1
17
0
27
0
37
0
40
25
41
1.8
42
50
43
0
44
0
50
0
51
0
0
ENDTAB
0
TABLE
2
LTYPE
5
4
100
AcDbSymbolTable
70
1000
0
LTYPE
5
5
100
AcDbSymbolTableRecord
100
AcDbLinetypeTableRecord
2
ByBlock
70
0
3

72
65
73
0
40
0
0
LTYPE
5
6
100
AcDbSymbolTableRecord
100
AcDbLinetypeTableRecord
2
ByLayer
70
0
3

72
65
73
0
40
0
0
LTYPE
5
7
100
AcDbSymbolTableRecord
100
AcDbLinetypeTableRecord
2
Continuous
70
0
3
___________________________________
72
65
73
0
40
0
0
LTYPE
5
8
100
AcDbSymbolTableRecord
100
AcDbLinetypeTableRecord
2
Border
70
0
3
____ . ____ ____ . ____ ____ . ____
72
65
73
6
40
1.75
49
0.5
74
0
49
-0.25
74
0
49
0.5
74
0
49
-0.25
74
0
49
0
74
0
49
-0.25
74
0
0
LTYPE
5
9
100
AcDbSymbolTableRecord
100
AcDbLinetypeTableRecord
2
Center
70
0
3
____ _ ____ _ ____ _ ____ _ ____ _
72
65
73
4
40
2
49
1.25
74
0
49
-0.25
74
0
49
0.25
74
0
49
-0.25
74
0
0
LTYPE
5
A
100
AcDbSymbolTableRecord
100
AcDbLinetypeTableRecord
2
Dashdot
70
0
3
____ . ____ . ____ . ____ . ____ .
72
65
73
4
40
1
49
0.5
74
0
49
-0.25
74
0
49
0
74
0
49
-0.25
74
0
0
LTYPE
5
B
100
AcDbSymbolTableRecord
100
AcDbLinetypeTableRecord
2
Dashed
70
0
3
____ ____ ____ ____ ____ ____ ____
72
65
73
2
40
0.75
49
0.5
74
0
49
-0.25
74
0
0
LTYPE
5
C
100
AcDbSymbolTableRecord
100
AcDbLinetypeTableRecord
2
Divide
70
0
3
____ . . ____ . . ____ . . ____ . .
72
65
73
6
40
1.25
49
0.5
74
0
49
-0.25
74
0
49
0
74
0
49
-0.25
74
0
49
0
74
0
49
-0.25
74
0
0
LTYPE
5
D
100
AcDbSymbolTableRecord
100
AcDbLinetypeTableRecord
2
Dot
70
0
3
. . . . . . . . . . . . . . . . . .
72
65
73
2
40
0.25
49
0
74
0
49
-0.25
74
0
0
LTYPE
5
E
100
AcDbSymbolTableRecord
100
AcDbLinetypeTableRecord
2
Hidden
70
0
3
__ __ __ __ __ __ __ __ __ __ __ __
72
65
73
2
40
0.375
49
0.25
74
0
49
-0.125
74
0
0
LTYPE
5
F
100
AcDbSymbolTableRecord
100
AcDbLinetypeTableRecord
2
Phantom
70
0
3
_____ _ _ _____ _ _ _____ _ _ _____
72
65
73
6
40
2.5
49
1.25
74
0
49
-0.25
74
0
49
0.25
74
0
49
-0.25
74
0
49
0.25
74
0
49
-0.25
74
0
0
ENDTAB
0
TABLE
2
LAYER
5
10
100
AcDbSymbolTable
70
1000
0
LAYER
5
11
100
AcDbSymbolTableRecord
100
AcDbLayerTableRecord
2
0
70
0
62
7
6
Continuous
370
0
390
2B
0
LAYER
5
2E
100
AcDbSymbolTableRecord
100
AcDbLayerTableRecord
2
dim
70
0
62
2
6
Continuous
370
0
390
2B
0
ENDTAB
0
TABLE
2
STYLE
5
12
100
AcDbSymbolTable
70
1000
0
STYLE
5
13
100
AcDbSymbolTableRecord
100
AcDbTextStyleTableRecord
2
Standard
70
0
40
0
41
1
50
0
71
0
42
1
3
TXT.SHX
4

0
STYLE
5
24
100
AcDbSymbolTableRecord
100
AcDbTextStyleTableRecord
2

70
1
40
0
41
1
50
0
71
0
42
1
3
LTYPESHP.SHX
4

0
ENDTAB
0
TABLE
2
VIEW
5
14
100
AcDbSymbolTable
70
0
0
ENDTAB
0
TABLE
2
UCS
5
15
100
AcDbSymbolTable
70
0
0
ENDTAB
0
TABLE
2
APPID
5
16
100
AcDbSymbolTable
70
10
0
APPID
5
17
100
AcDbSymbolTableRecord
100
AcDbRegAppTableRecord
2
ACAD
70
0
0
APPID
5
18
100
AcDbSymbolTableRecord
100
AcDbRegAppTableRecord
2
CADZINHO
70
0
0
ENDTAB
0
TABLE
2
DIMSTYLE
5
19
100
AcDbSymbolTable
70
1
100
AcDbDimStyleTable
71
1
0
DIMSTYLE
105
1A
100
AcDbSymbolTableRecord
100
AcDbDimStyleTableRecord
2
Standard
70
0
340
13
0
ENDTAB
0
TABLE
2
BLOCK_RECORD
5
1B
100
AcDbSymbolTable
70
9999
0
BLOCK_RECORD
5
1C
100
AcDbSymbolTableRecord
100
AcDbBlockTableRecord
2
*Model_Space
70
0
0
BLOCK_RECORD
5
1D
100
AcDbSymbolTableRecord
100
AcDbBlockTableRecord
2
*Paper_Space
70
0
0
BLOCK_RECORD
5
6E
100
AcDbSymbolTableRecord
100
AcDbBlockTableRecord
2
*D1
70
0
0
BLOCK_RECORD
5
7A
100
AcDbSymbolTableRecord
100
AcDbBlockTableRecord
2
*D2
70
0
0
BLOCK_RECORD
5
86
100
AcDbSymbolTableRecord
100
AcDbBlockTableRecord
2
*D3
70
0
0
BLOCK_RECORD
5
92
100
AcDbSymbolTableRecord
100
AcDbBlockTableRecord
2
*D4
70
0
0
BLOCK_RECORD
5
9E
100
AcDbSymbolTableRecord
100
AcDbBlockTableRecord
2
*D5
70
0
0
ENDTAB
0
ENDSEC
0
SECTION
2
BLOCKS
0
BLOCK
5
1E
100
AcDbEntity
8
0
100
AcDbBlockBegin
2
*Model_Space
70
0
10
0
20
0
30
0
3
*Model_Space
1

0
ENDBLK
5
1F
100
AcDbEntity
8
0
100
AcDbBlockEnd
0
BLOCK
5
20
100
AcDbEntity
8
0
100
AcDbBlockBegin
2
*Paper_Space
70
0
10
0
20
0
30
0
3
*Paper_Space
1

0
ENDBLK
5
21
100
AcDbEntity
8
0
100
AcDbBlockEnd
0
BLOCK
5
6F
330
6E
100
AcDbEntity
8
0
100
AcDbBlockBegin
2
*D1
70
1
10
0
20
0
30
0
3
*D1
1

4

0
LINE
5
70
100
AcDbEntity
67
0
8
0
6
BYBLOCK
62
0
370
-2
100
AcDbLine
10
23.5
20
25.95
30
0
11
3.5
21
10.95
31
0
0
LINE
5
71
100
AcDbEntity
67
0
8
0
6
BYBLOCK
62
0
370
-2
100
AcDbLine
10
23.5
20
25.95
30
0
11
22.55
21
25.55
31
0
0
LINE
5
72
100
AcDbEntity
67
0
8
0
6
BYBLOCK
62
0
370
-2
100
AcDbLine
10
23.5
20
25.95
30
0
11
22.85
21
25.15
31
0
0
LINE
5
73
100
AcDbEntity
67
0
8
0
6
BYBLOCK
62
0
370
-2
100
AcDbLine
10
3.5
20
10.95
30
0
11
4.15
21
11.75
31
0
0
LINE
5
74
100
AcDbEntity
67
0
8
0
6
BYBLOCK
62
0
370
-2
100
AcDbLine
10
3.5
20
10.95
30
0
11
4.45
21
11.35
31
0
0
MTEXT
5
75
100
AcDbEntity
67
0
8
0
6
BYBLOCK
62
0
370
-2
100
AcDbMText
10
12.9
20
19.25
30
0
40
1
41
0
71
5
72
1
1
25
7
STANDARD
11
0.8
21
0.6
31
0
0
LINE
5
76
100
AcDbEntity
67
0
8
0
6
BYBLOCK
62
0
370
-2
100
AcDbLine
10
23.2
20
26.35
30
0
11
25
21
23.95
31
0
0
LINE
5
77
100
AcDbEntity
67
0
8
0
6
BYBLOCK
62
0
370
-2
100
AcDbLine
10
3.2
20
11.35
30
0
11
5
21
8.95
31
0
0
ENDBLK
5
78
330
6F
100
AcDbEntity
8
0
100
AcDbBlockEnd
0
BLOCK
5
7B
330
7A
100
AcDbEntity
8
0
100
AcDbBlockBegin
2
*D2
70
1
10
0
20
0
30
0
3
*D2
1

4

0
LINE
5
7C
100
AcDbEntity
67
0
8
0
6
BYBLOCK
62
0
370
-2
100
AcDbLine
10
28.3
20
8.55
30
0
11
28.3
21
23.55
31
0
0
LINE
5
7D
100
AcDbEntity
67
0
8
0
6
BYBLOCK
62
0
370
-2
100
AcDbLine
10
28.3
20
8.55
30
0
11
28.55
21
9.55
31
0
0
LINE
5
7E
100
AcDbEntity
67
0
8
0
6
BYBLOCK
62
0
370
-2
100
AcDbLine
10
28.3
20
8.55
30
0
11
28.05
21
9.55
31
0
0
LINE
5
7F
100
AcDbEntity
67
0
8
0
6
BYBLOCK
62
0
370
-2
100
AcDbLine
10
28.3
20
23.55
30
0
11
28.55
21
22.55
31
0
0
LINE
5
80
100
AcDbEntity
67
0
8
0
6
BYBLOCK
62
0
370
-2
100
AcDbLine
10
28.3
20
23.55
30
0
11
28.05
21
22.55
31
0
0
MTEXT
5
81
100
AcDbEntity
67
0
8
0
6
BYBLOCK
62
0
370
-2
100
AcDbMText
10
29.3
20
16.05
30
0
40
1
41
0
71
5
72
1
1
15
7
STANDARD
11
6.12323e-17
21
-1
31
0
0
LINE
5
82
100
AcDbEntity
67
0
8
0
6
BYBLOCK
62
0
370
-2
100
AcDbLine
10
28.8
20
8.55
30
0
11
25.8
21
8.55
31
0
0
LINE
5
83
100
AcDbEntity
67
0
8
0
6
BYBLOCK
62
0
370
-2
100
AcDbLine
10
28.8
20
23.55
30
0
11
25.8
21
23.55
31
0
0
ENDBLK
5
84
330
7B
100
AcDbEntity
8
0
100
AcDbBlockEnd
0
BLOCK
5
87
330
86
100
AcDbEntity
8
0
100
AcDbBlockBegin
2
*D3
70
1
10
0
20
0
30
0
3
*D3
1

4

0
LINE
5
88
100
AcDbEntity
67
0
8
0
6
BYBLOCK
62
0
370
-2
100
AcDbLine
10
25.3
20
5.55
30
0
11
5.3
21
5.55
31
0
0
LINE
5
89
100
AcDbEntity
67
0
8
0
6
BYBLOCK
62
0
370
-2
100
AcDbLine
10
25.3
20
5.55
30
0
11
24.3
21
5.8
31
0
0
LINE
5
8A
100
AcDbEntity
67
0
8
0
6
BYBLOCK
62
0
370
-2
100
AcDbLine
10
25.3
20
5.55
30
0
11
24.3
21
5.3
31
0
0
LINE
5
8B
100
AcDbEntity
67
0
8
0
6
BYBLOCK
62
0
370
-2
100
AcDbLine
10
5.3
20
5.55
30
0
11
6.3
21
5.8
31
0
0
LINE
5
8C
100
AcDbEntity
67
0
8
0
6
BYBLOCK
62
0
370
-2
100
AcDbLine
10
5.3
20
5.55
30
0
11
6.3
21
5.3
31
0
0
MTEXT
5
8D
100
AcDbEntity
67
0
8
0
6
BYBLOCK
62
0
370
-2
100
AcDbMText
10
15.3
20
4.55
30
0
40
1
41
0
71
5
72
1
1
20
7
STANDARD
11
1
21
0
31
0
0
LINE
5
8E
100
AcDbEntity
67
0
8
0
6
BYBLOCK
62
0
370
-2
100
AcDbLine
10
25.3
20
5.05
30
0
11
25.3
21
8.05
31
0
0
LINE
5
8F
100
AcDbEntity
67
0
8
0
6
BYBLOCK
62
0
370
-2
100
AcDbLine
10
5.3
20
5.05
30
0
11
5.3
21
8.05
31
0
0
ENDBLK
5
90
330
87
100
AcDbEntity
8
0
100
AcDbBlockEnd
0
BLOCK
5
93
330
92
100
AcDbEntity
8
0
100
AcDbBlockBegin
2
*D4
70
1
10
0
20
0
30
0
3
*D4
1

4

0
LINE
5
94
100
AcDbEntity
67
0
8
0
6
BYBLOCK
62
0
370
-2
100
AcDbLine
10
25.3
20
28.55
30
0
11
5.3
21
28.55
31
0
0
LINE
5
95
100
AcDbEntity
67
0
8
0
6
BYBLOCK
62
0
370
-2
100
AcDbLine
10
25.3
20
28.55
30
0
11
24.3
21
28.8
31
0
0
LINE
5
96
100
AcDbEntity
67
0
8
0
6
BYBLOCK
62
0
370
-2
100
AcDbLine
10
25.3
20
28.55
30
0
11
24.3
21
28.3
31
0
0
LINE
5
97
100
AcDbEntity
67
0
8
0
6
BYBLOCK
62
0
370
-2
100
AcDbLine
10
5.3
20
28.55
30
0
11
6.3
21
28.8
31
0
0
LINE
5
98
100
AcDbEntity
67
0
8
0
6
BYBLOCK
62
0
370
-2
100
AcDbLine
10
5.3
20
28.55
30
0
11
6.3
21
28.3
31
0
0
MTEXT
5
99
100
AcDbEntity
67
0
8
0
6
BYBLOCK
62
0
370
-2
100
AcDbMText
10
15.3
20
29.55
30
0
40
1
41
0
71
5
72
1
1
20
7
STANDARD
11
1
21
0
31
0
0
LINE
5
9A
100
AcDbEntity
67
0
8
0
6
BYBLOCK
62
0
370
-2
100
AcDbLine
10
25.3
20
29.05
30
0
11
25.3
21
24.05
31
0
0
LINE
5
9B
100
AcDbEntity
67
0
8
0
6
BYBLOCK
62
0
370
-2
100
AcDbLine
10
5.3
20
29.05
30
0
11
5.3
21
9.05
31
0
0
ENDBLK
5
9C
330
93
100
AcDbEntity
8
0
100
AcDbBlockEnd
0
BLOCK
5
9F
330
9E
100
AcDbEntity
8
0
100
AcDbBlockBegin
2
*D5
70
1
10
0
20
0
30
0
3
*D5
1

4

0
LINE
5
A0
100
AcDbEntity
67
0
8
0
6
BYBLOCK
62
0
370
-2
100
AcDbLine
10
0.3
20
23.55
30
0
11
0.3
21
8.55
31
0
0
LINE
5
A1
100
AcDbEntity
67
0
8
0
6
BYBLOCK
62
0
370
-2
100
AcDbLine
10
0.3
20
23.55
30
0
11
0.05
21
22.55
31
0
0
LINE
5
A2
100
AcDbEntity
67
0
8
0
6
BYBLOCK
62
0
370
-2
100
AcDbLine
10
0.3
20
23.55
30
0
11
0.55
21
22.55
31
0
0
LINE
5
A3
100
AcDbEntity
67
0
8
0
6
BYBLOCK
62
0
370
-2
100
AcDbLine
10
0.3
20
8.55
30
0
11
0.05
21
9.55
31
0
0
LINE
5
A4
100
AcDbEntity
67
0
8
0
6
BYBLOCK
62
0
370
-2
100
AcDbLine
10
0.3
20
8.55
30
0
11
0.55
21
9.55
31
0
0
MTEXT
5
A5
100
AcDbEntity
67
0
8
0
6
BYBLOCK
62
0
370
-2
100
AcDbMText
10
-0.7
20
16.05
30
0
40
1
41
0
71
5
72
1
1
15
7
STANDARD
11
6.12323e-17
21
1
31
0
0
LINE
5
A6
100
AcDbEntity
67
0
8
0
6
BYBLOCK
62
0
370
-2
100
AcDbLine
10
-0.2
20
23.55
30
0
11
24.8
21
23.55
31
0
0
LINE
5
A7
100
AcDbEntity
67
0
8
0
6
BYBLOCK
62
0
370
-2
100
AcDbLine
10
-0.2
20
8.55
30
0
11
4.8
21
8.55
31
0
0
ENDBLK
5
A8
330
9F
100
AcDbEntity
8
0
100
AcDbBlockEnd
0
ENDSEC
0
SECTION
2
ENTITIES
0
LINE
5
2F
100
AcDbEntity
67
0
8
0
6
ByLayer
62
256
370
-1
100
AcDbLine
10
5.3
20
8.55
30
0
11
25.3
21
8.55
31
0
0
LINE
5
30
100
AcDbEntity
67
0
8
0
6
ByLayer
62
256
370
-1
100
AcDbLine
10
25.3
20
8.55
30
0
11
25.3
21
23.55
31
0
0
LINE
5
31
100
AcDbEntity
67
0
8
0
6
ByLayer
62
256
370
-1
100
AcDbLine
10
25.3
20
23.55
30
0
11
5.3
21
8.55
31
0
0
DIMENSION
5
79
100
AcDbEntity
67
0
8
dim
6
ByLayer
62
256
370
-1
100
AcDbDimension
2
*D1
10
23.5
20
25.95
30
0
11
12.9
21
19.25
31
0
70
32
71
5
42
25
1
<>
73
0
74
0
75
0
3
Standard
100
AcDbAlignedDimension
13
5.3
23
8.55
33
0
14
25.3
24
23.55
34
0
50
36.8699
100
AcDbRotatedDimension
0
DIMENSION
5
85
100
AcDbEntity
67
0
8
dim
6
ByLayer
62
256
370
-1
100
AcDbDimension
2
*D2
10
28.3
20
8.55
30
0
11
29.3
21
16.05
31
0
70
32
71
5
42
15
1
<>
73
0
74
0
75
0
3
Standard
100
AcDbAlignedDimension
13
25.3
23
23.55
33
0
14
25.3
24
8.55
34
0
50
-90
100
AcDbRotatedDimension
0
DIMENSION
5
91
100
AcDbEntity
67
0
8
dim
6
ByLayer
62
256
370
-1
100
AcDbDimension
2
*D3
10
25.3
20
5.55
30
0
11
15.3
21
4.55
31
0
70
32
71
5
42
20
1
<>
73
0
74
0
75
0
3
Standard
100
AcDbAlignedDimension
13
5.3
23
8.55
33
0
14
25.3
24
8.55
34
0
50
0
100
AcDbRotatedDimension
0
DIMENSION
5
9D
100
AcDbEntity
67
0
8
dim
6
ByLayer
62
1
370
-1
100
AcDbDimension
2
*D4
10
25.3
20
28.55
30
0
11
15.3
21
29.55
31
0
70
32
71
5
42
20
1
<>
73
0
74
0
75
0
3
Standard
100
AcDbAlignedDimension
13
5.3
23
8.55
33
0
14
25.3
24
23.55
34
0
50
0
100
AcDbRotatedDimension
0
DIMENSION
5
A9
100
AcDbEntity
67
0
8
dim
6
ByLayer
62
1
370
-1
100
AcDbDimension
2
*D5
10
0.3
20
23.55
30
0
11
-0.7
21
16.05
31
0
70
32
71
5
42
15
1
<>
73
0
74
0
75
0
3
Standard
100
AcDbAlignedDimension
13
5.3
23
8.55
33
0
14
25.3
24
23.55
34
0
50
90
100
AcDbRotatedDimension
0
ENDSEC
0
SECTION
2
OBJECTS
0
DICTIONARY
5
22
100
AcDbDictionary
281
1
3
ACAD_COLOR
350
23
3
ACAD_GROUP
350
26
3
ACAD_LAYOUT
350
27
3
ACAD_MATERIAL
350
28
3
ACAD_MLINESTYLE
350
29
3
ACAD_PLOTSETTINGS
350
2A
3
ACAD_PLOTSTYLENAME
350
2B
3
ACAD_TABLESTYLE
350
2C
3
AcadDim
350
2D
0
DICTIONARY
5
23
100
AcDbDictionary
0
DICTIONARY
5
26
100
AcDbDictionary
0
DICTIONARY
5
27
100
AcDbDictionary
0
DICTIONARY
5
28
100
AcDbDictionary
0
DICTIONARY
5
29
100
AcDbDictionary
0
DICTIONARY
5
2A
100
AcDbDictionary
0
DICTIONARY
5
2B
100
AcDbDictionary
0
DICTIONARY
5
2C
100
AcDbDictionary
0
DICTIONARY
5
2D
100
AcDbDictionary
0
ENDSEC
0
EOF
