<svg width="1188.0000" height="840.0000" version="1.1" xmlns="http://www.w3.org/2000/svg" xmlns:xlink="http://www.w3.org/1999/xlink">
<path stroke="rgb(0, 0, 0)" fill="none" d="M293.9 695.5 L933.9 695.5 "/>
<path stroke="rgb(0, 0, 0)" fill="none" d="M933.9 695.5 L933.9 215.5 "/>
<path stroke="rgb(0, 0, 0)" fill="none" d="M933.9 215.5 L293.9 695.5 "/>
<path stroke="rgb(255, 255, 0)" fill="none" d="M876.3 138.7 L236.3 618.7 "/>
<path stroke="rgb(255, 255, 0)" fill="none" d="M876.3 138.7 L845.9 151.5 "/>
<path stroke="rgb(255, 255, 0)" fill="none" d="M876.3 138.7 L855.5 164.3 "/>
<path stroke="rgb(255, 255, 0)" fill="none" d="M236.3 618.7 L257.1 593.1 "/>
<path stroke="rgb(255, 255, 0)" fill="none" d="M236.3 618.7 L266.7 605.9 "/>
<path stroke="rgb(255, 255, 0)" fill="none" d="M436.8 414.9 L437.9 407.5 L446.4 401.1 L453.9 402.1 L457.1 406.4 L456 413.9 L447.5 420.3 L446.4 427.7 L452.8 436.3 L469.9 423.5 "/>
<path stroke="rgb(255, 255, 0)" fill="none" d="M475.2 412.8 L482.7 413.9 L491.2 407.5 L492.3 400 L485.9 391.5 L478.4 390.4 L465.6 400 L459.2 391.5 L476.3 378.7 "/>
<path stroke="rgb(255, 255, 0)" fill="none" d="M504 397.9 L500.8 393.6 "/>
<path stroke="rgb(255, 255, 0)" fill="none" d="M516.8 388.3 L509.4 387.2 L496.6 370.1 L497.6 362.7 L501.9 359.5 L509.4 360.5 L522.2 377.6 L521.1 385.1 L516.8 388.3 "/>
<path stroke="rgb(255, 255, 0)" fill="none" d="M538.2 372.3 L530.7 371.2 L517.9 354.1 L519 346.7 L523.2 343.5 L530.7 344.5 L543.5 361.6 L542.4 369.1 L538.2 372.3 "/>
<path stroke="rgb(255, 255, 0)" fill="none" d="M559.5 356.3 L552 355.2 L539.2 338.1 L540.3 330.7 L544.6 327.5 L552 328.5 L564.8 345.6 L563.8 353.1 L559.5 356.3 "/>
<path stroke="rgb(255, 255, 0)" fill="none" d="M580.8 340.3 L573.4 339.2 L560.6 322.1 L561.6 314.7 L565.9 311.5 L573.4 312.5 L586.2 329.6 L585.1 337.1 L580.8 340.3 "/>
<path stroke="rgb(255, 255, 0)" fill="none" d="M602.2 324.3 L594.7 323.2 L581.9 306.1 L583 298.7 L587.2 295.5 L594.7 296.5 L607.5 313.6 L606.4 321.1 L602.2 324.3 "/>
<path stroke="rgb(255, 255, 0)" fill="none" d="M623.5 308.3 L616 307.2 L603.2 290.1 L604.3 282.7 L608.6 279.5 L616 280.5 L628.8 297.6 L627.8 305.1 L623.5 308.3 "/>
<path stroke="rgb(255, 255, 0)" fill="none" d="M866.7 125.9 L924.3 202.7 "/>
<path stroke="rgb(255, 255, 0)" fill="none" d="M226.7 605.9 L284.3 682.7 "/>
<path stroke="rgb(255, 255, 0)" fill="none" d="M1030 695.5 L1030 215.5 "/>
<path stroke="rgb(255, 255, 0)" fill="none" d="M1030 695.5 L1038 663.5 "/>
<path stroke="rgb(255, 255, 0)" fill="none" d="M1030 695.5 L1022 663.5 "/>
<path stroke="rgb(255, 255, 0)" fill="none" d="M1030 215.5 L1038 247.5 "/>
<path stroke="rgb(255, 255, 0)" fill="none" d="M1030 215.5 L1022 247.5 "/>
<path stroke="rgb(255, 255, 0)" fill="none" d="M1073 343.5 L1078 348.8 L1046 348.8 M1046 343.5 L1046 354.1 "/>
<path stroke="rgb(255, 255, 0)" fill="none" d="M1051 364.8 L1046 370.1 L1046 380.8 L1051 386.1 L1062 386.1 L1067 380.8 L1067 364.8 L1078 364.8 L1078 386.1 "/>
<path stroke="rgb(255, 255, 0)" fill="none" d="M1046 396.8 L1051 396.8 "/>
<path stroke="rgb(255, 255, 0)" fill="none" d="M1046 412.8 L1051 407.5 L1073 407.5 L1078 412.8 L1078 418.1 L1073 423.5 L1051 423.5 L1046 418.1 L1046 412.8 "/>
<path stroke="rgb(255, 255, 0)" fill="none" d="M1046 439.5 L1051 434.1 L1073 434.1 L1078 439.5 L1078 444.8 L1073 450.1 L1051 450.1 L1046 444.8 L1046 439.5 "/>
<path stroke="rgb(255, 255, 0)" fill="none" d="M1046 466.1 L1051 460.8 L1073 460.8 L1078 466.1 L1078 471.5 L1073 476.8 L1051 476.8 L1046 471.5 L1046 466.1 "/>
<path stroke="rgb(255, 255, 0)" fill="none" d="M1046 492.8 L1051 487.5 L1073 487.5 L1078 492.8 L1078 498.1 L1073 503.5 L1051 503.5 L1046 498.1 L1046 492.8 "/>
<path stroke="rgb(255, 255, 0)" fill="none" d="M1046 519.5 L1051 514.1 L1073 514.1 L1078 519.5 L1078 524.8 L1073 530.1 L1051 530.1 L1046 524.8 L1046 519.5 "/>
<path stroke="rgb(255, 255, 0)" fill="none" d="M1046 546.1 L1051 540.8 L1073 540.8 L1078 546.1 L1078 551.5 L1073 556.8 L1051 556.8 L1046 551.5 L1046 546.1 "/>
<path stroke="rgb(255, 255, 0)" fill="none" d="M1046 695.5 L949.9 695.5 "/>
<path stroke="rgb(255, 255, 0)" fill="none" d="M1046 215.5 L949.9 215.5 "/>
<path stroke="rgb(255, 255, 0)" fill="none" d="M933.9 791.5 L293.9 791.5 "/>
<path stroke="rgb(255, 255, 0)" fill="none" d="M933.9 791.5 L901.9 783.5 "/>
<path stroke="rgb(255, 255, 0)" fill="none" d="M933.9 791.5 L901.9 799.5 "/>
<path stroke="rgb(255, 255, 0)" fill="none" d="M293.9 791.5 L325.9 783.5 "/>
<path stroke="rgb(255, 255, 0)" fill="none" d="M293.9 791.5 L325.9 799.5 "/>
<path stroke="rgb(255, 255, 0)" fill="none" d="M499.2 812.8 L504.6 807.5 L515.2 807.5 L520.6 812.8 L520.6 818.1 L515.2 823.5 L504.6 823.5 L499.2 828.8 L499.2 839.5 L520.6 839.5 "/>
<path stroke="rgb(255, 255, 0)" fill="none" d="M536.6 839.5 L531.2 834.1 L531.2 812.8 L536.6 807.5 L541.9 807.5 L547.2 812.8 L547.2 834.1 L541.9 839.5 L536.6 839.5 "/>
<path stroke="rgb(255, 255, 0)" fill="none" d="M557.9 839.5 L557.9 834.1 "/>
<path stroke="rgb(255, 255, 0)" fill="none" d="M573.9 839.5 L568.6 834.1 L568.6 812.8 L573.9 807.5 L579.2 807.5 L584.6 812.8 L584.6 834.1 L579.2 839.5 L573.9 839.5 "/>
<path stroke="rgb(255, 255, 0)" fill="none" d="M600.6 839.5 L595.2 834.1 L595.2 812.8 L600.6 807.5 L605.9 807.5 L611.2 812.8 L611.2 834.1 L605.9 839.5 L600.6 839.5 "/>
<path stroke="rgb(255, 255, 0)" fill="none" d="M627.2 839.5 L621.9 834.1 L621.9 812.8 L627.2 807.5 L632.6 807.5 L637.9 812.8 L637.9 834.1 L632.6 839.5 L627.2 839.5 "/>
<path stroke="rgb(255, 255, 0)" fill="none" d="M653.9 839.5 L648.6 834.1 L648.6 812.8 L653.9 807.5 L659.2 807.5 L664.6 812.8 L664.6 834.1 L659.2 839.5 L653.9 839.5 "/>
<path stroke="rgb(255, 255, 0)" fill="none" d="M680.6 839.5 L675.2 834.1 L675.2 812.8 L680.6 807.5 L685.9 807.5 L691.2 812.8 L691.2 834.1 L685.9 839.5 L680.6 839.5 "/>
<path stroke="rgb(255, 255, 0)" fill="none" d="M707.2 839.5 L701.9 834.1 L701.9 812.8 L707.2 807.5 L712.6 807.5 L717.9 812.8 L717.9 834.1 L712.6 839.5 L707.2 839.5 "/>
<path stroke="rgb(255, 255, 0)" fill="none" d="M933.9 807.5 L933.9 711.5 "/>
<path stroke="rgb(255, 255, 0)" fill="none" d="M293.9 807.5 L293.9 711.5 "/>
<path stroke="rgb(255, 0, 0)" fill="none" d="M158.1 215.5 L158.1 695.5 "/>
<path stroke="rgb(255, 0, 0)" fill="none" d="M158.1 215.5 L150.1 247.5 "/>
<path stroke="rgb(255, 0, 0)" fill="none" d="M158.1 215.5 L166.1 247.5 "/>
<path stroke="rgb(255, 0, 0)" fill="none" d="M158.1 695.5 L150.1 663.5 "/>
<path stroke="rgb(255, 0, 0)" fill="none" d="M158.1 695.5 L166.1 663.5 "/>
<path stroke="rgb(255, 0, 0)" fill="none" d="M115.4 567.5 L110.1 562.1 L142.1 562.1 M142.1 567.5 L142.1 556.8 "/>
<path stroke="rgb(255, 0, 0)" fill="none" d="M136.8 546.1 L142.1 540.8 L142.1 530.1 L136.8 524.8 L126.1 524.8 L120.8 530.1 L120.8 546.1 L110.1 546.1 L110.1 524.8 "/>
<path stroke="rgb(255, 0, 0)" fill="none" d="M142.1 514.1 L136.8 514.1 "/>
<path stroke="rgb(255, 0, 0)" fill="none" d="M142.1 498.1 L136.8 503.5 L115.4 503.5 L110.1 498.1 L110.1 492.8 L115.4 487.5 L136.8 487.5 L142.1 492.8 L142.1 498.1 "/>
<path stroke="rgb(255, 0, 0)" fill="none" d="M142.1 471.5 L136.8 476.8 L115.4 476.8 L110.1 471.5 L110.1 466.1 L115.4 460.8 L136.8 460.8 L142.1 466.1 L142.1 471.5 "/>
<path stroke="rgb(255, 0, 0)" fill="none" d="M142.1 444.8 L136.8 450.1 L115.4 450.1 L110.1 444.8 L110.1 439.5 L115.4 434.1 L136.8 434.1 L142.1 439.5 L142.1 444.8 "/>
<path stroke="rgb(255, 0, 0)" fill="none" d="M142.1 418.1 L136.8 423.5 L115.4 423.5 L110.1 418.1 L110.1 412.8 L115.4 407.5 L136.8 407.5 L142.1 412.8 L142.1 418.1 "/>
<path stroke="rgb(255, 0, 0)" fill="none" d="M142.1 391.5 L136.8 396.8 L115.4 396.8 L110.1 391.5 L110.1 386.1 L115.4 380.8 L136.8 380.8 L142.1 386.1 L142.1 391.5 "/>
<path stroke="rgb(255, 0, 0)" fill="none" d="M142.1 364.8 L136.8 370.1 L115.4 370.1 L110.1 364.8 L110.1 359.5 L115.4 354.1 L136.8 354.1 L142.1 359.5 L142.1 364.8 "/>
<path stroke="rgb(255, 0, 0)" fill="none" d="M142.1 215.5 L917.9 215.5 "/>
<path stroke="rgb(255, 0, 0)" fill="none" d="M142.1 695.5 L277.9 695.5 "/>
<path stroke="rgb(255, 0, 0)" fill="none" d="M933.9 48.54 L293.9 48.54 "/>
<path stroke="rgb(255, 0, 0)" fill="none" d="M933.9 48.54 L901.9 40.54 "/>
<path stroke="rgb(255, 0, 0)" fill="none" d="M933.9 48.54 L901.9 56.54 "/>
<path stroke="rgb(255, 0, 0)" fill="none" d="M293.9 48.54 L325.9 40.54 "/>
<path stroke="rgb(255, 0, 0)" fill="none" d="M293.9 48.54 L325.9 56.54 "/>
<path stroke="rgb(255, 0, 0)" fill="none" d="M499.2 5.87 L504.6 0.537 L515.2 0.537 L520.6 5.87 L520.6 11.2 L515.2 16.54 L504.6 16.54 L499.2 21.87 L499.2 32.54 L520.6 32.54 "/>
<path stroke="rgb(255, 0, 0)" fill="none" d="M536.6 32.54 L531.2 27.2 L531.2 5.87 L536.6 0.537 L541.9 0.537 L547.2 5.87 L547.2 27.2 L541.9 32.54 L536.6 32.54 "/>
<path stroke="rgb(255, 0, 0)" fill="none" d="M557.9 32.54 L557.9 27.2 "/>
<path stroke="rgb(255, 0, 0)" fill="none" d="M573.9 32.54 L568.6 27.2 L568.6 5.87 L573.9 0.537 L579.2 0.537 L584.6 5.87 L584.6 27.2 L579.2 32.54 L573.9 32.54 "/>
<path stroke="rgb(255, 0, 0)" fill="none" d="M600.6 32.54 L595.2 27.2 L595.2 5.87 L600.6 0.537 L605.9 0.537 L611.2 5.87 L611.2 27.2 L605.9 32.54 L600.6 32.54 "/>
<path stroke="rgb(255, 0, 0)" fill="none" d="M627.2 32.54 L621.9 27.2 L621.9 5.87 L627.2 0.537 L632.6 0.537 L637.9 5.87 L637.9 27.2 L632.6 32.54 L627.2 32.54 "/>
<path stroke="rgb(255, 0, 0)" fill="none" d="M653.9 32.54 L648.6 27.2 L648.6 5.87 L653.9 0.537 L659.2 0.537 L664.6 5.87 L664.6 27.2 L659.2 32.54 L653.9 32.54 "/>
<path stroke="rgb(255, 0, 0)" fill="none" d="M680.6 32.54 L675.2 27.2 L675.2 5.87 L680.6 0.537 L685.9 0.537 L691.2 5.87 L691.2 27.2 L685.9 32.54 L680.6 32.54 "/>
<path stroke="rgb(255, 0, 0)" fill="none" d="M707.2 32.54 L701.9 27.2 L701.9 5.87 L707.2 0.537 L712.6 0.537 L717.9 5.87 L717.9 27.2 L712.6 32.54 L707.2 32.54 "/>
<path stroke="rgb(255, 0, 0)" fill="none" d="M933.9 32.54 L933.9 199.5 "/>
<path stroke="rgb(255, 0, 0)" fill="none" d="M293.9 32.54 L293.9 679.5 "/>
</svg>