999
CadZinho - Minimalist CAD by Zecruel
0
SECTION
2
HEADER
9
$ACADVER
1
AC1021
9
$HANDSEED
5
B4
9
$INSUNITS
70
4
9
$LWDISPLAY
290
1
0
ENDSEC
0
SECTION
2
CLASSES
0
ENDSEC
0
SECTION
2
TABLES
0
TABLE
2
VPORT
5
1
100
AcDbSymbolTable
70
1
0
ENDTAB
0
TABLE
2
LTYPE
5
4
100
AcDbSymbolTable
70
100
0
LTYPE
5
5
100
AcDbSymbolTableRecord
100
AcDbLinetypeTableRecord
2
ByBlock
70
0
3

72
65
73
0
40
0.000000
0
LTYPE
5
6
100
AcDbSymbolTableRecord
100
AcDbLinetypeTableRecord
2
ByLayer
70
0
3

72
65
73
0
40
0.000000
0
LTYPE
5
7
100
AcDbSymbolTableRecord
100
AcDbLinetypeTableRecord
2
Continuous
70
0
3
___________________________________
72
65
73
0
40
0.000000
0
LTYPE
5
8
100
AcDbSymbolTableRecord
100
AcDbLinetypeTableRecord
2
Border
70
0
3
____ . ____ ____ . ____ ____ . ____
72
65
73
6
40
1.750000
49
0.500000
74
0
49
-0.250000
74
0
49
0.500000
74
0
49
-0.250000
74
0
49
0.000000
74
0
49
-0.250000
74
0
0
LTYPE
5
9
100
AcDbSymbolTableRecord
100
AcDbLinetypeTableRecord
2
Center
70
0
3
____ _ ____ _ ____ _ ____ _ ____ _
72
65
73
4
40
2.000000
49
1.250000
74
0
49
-0.250000
74
0
49
0.250000
74
0
49
-0.250000
74
0
0
LTYPE
5
A
100
AcDbSymbolTableRecord
100
AcDbLinetypeTableRecord
2
Dashdot
70
0
3
____ . ____ . ____ . ____ . ____ .
72
65
73
4
40
1.000000
49
0.500000
74
0
49
-0.250000
74
0
49
0.000000
74
0
49
-0.250000
74
0
0
LTYPE
5
B
100
AcDbSymbolTableRecord
100
AcDbLinetypeTableRecord
2
Dashed
70
0
3
____ ____ ____ ____ ____ ____ ____
72
65
73
2
40
0.750000
49
0.500000
74
0
49
-0.250000
74
0
0
LTYPE
5
C
100
AcDbSymbolTableRecord
100
AcDbLinetypeTableRecord
2
Divide
70
0
3
____ . . ____ . . ____ . . ____ . .
72
65
73
6
40
1.250000
49
0.500000
74
0
49
-0.250000
74
0
49
0.000000
74
0
49
-0.250000
74
0
49
0.000000
74
0
49
-0.250000
74
0
0
LTYPE
5
D
100
AcDbSymbolTableRecord
100
AcDbLinetypeTableRecord
2
Dot
70
0
3
. . . . . . . . . . . . . . . . . .
72
65
73
2
40
0.250000
49
0.000000
74
0
49
-0.250000
74
0
0
LTYPE
5
E
100
AcDbSymbolTableRecord
100
AcDbLinetypeTableRecord
2
Hidden
70
0
3
__ __ __ __ __ __ __ __ __ __ __ __
72
65
73
2
40
0.375000
49
0.250000
74
0
49
-0.125000
74
0
0
LTYPE
5
F
100
AcDbSymbolTableRecord
100
AcDbLinetypeTableRecord
2
Phantom
70
0
3
_____ _ _ _____ _ _ _____ _ _ _____
72
65
73
6
40
2.500000
49
1.250000
74
0
49
-0.250000
74
0
49
0.250000
74
0
49
-0.250000
74
0
49
0.250000
74
0
49
-0.250000
74
0
0
ENDTAB
0
TABLE
2
LAYER
5
10
100
AcDbSymbolTable
70
1000
0
LAYER
5
11
100
AcDbSymbolTableRecord
100
AcDbLayerTableRecord
2
0
70
0
62
7
6
Continuous
370
0
390
0
0
LAYER
5
95
100
AcDbSymbolTableRecord
100
AcDbLayerTableRecord
2
cz_logo
70
0
62
7
6
Continuous
370
0
390
0
0
ENDTAB
0
TABLE
2
STYLE
5
12
100
AcDbSymbolTable
70
3
0
STYLE
5
13
100
AcDbSymbolTableRecord
100
AcDbTextStyleTableRecord
2
Standard
70
0
40
0.000000
41
1.000000
50
0.000000
71
0
42
1.000000
3
ROMANS.SHX
4

0
ENDTAB
0
TABLE
2
VIEW
5
14
100
AcDbSymbolTable
70
0
0
ENDTAB
0
TABLE
2
UCS
5
15
100
AcDbSymbolTable
70
0
0
ENDTAB
0
TABLE
2
APPID
5
16
100
AcDbSymbolTable
70
10
0
APPID
5
17
100
AcDbSymbolTableRecord
100
AcDbRegAppTableRecord
2
ACAD
70
0
0
APPID
5
18
100
AcDbSymbolTableRecord
100
AcDbRegAppTableRecord
2
CADZINHO
70
0
0
ENDTAB
0
TABLE
2
DIMSTYLE
5
19
100
AcDbSymbolTable
70
1
100
AcDbDimStyleTable
71
1
0
DIMSTYLE
105
1A
100
AcDbSymbolTableRecord
100
AcDbDimStyleTableRecord
2
Standard
70
0
340
C
0
ENDTAB
0
TABLE
2
BLOCK_RECORD
5
1B
100
AcDbSymbolTable
70
9999
0
BLOCK_RECORD
5
1C
100
AcDbSymbolTableRecord
100
AcDbBlockTableRecord
2
*Model_Space
70
0
0
BLOCK_RECORD
5
1D
100
AcDbSymbolTableRecord
100
AcDbBlockTableRecord
2
*Paper_Space
70
0
0
BLOCK_RECORD
5
96
100
AcDbSymbolTableRecord
100
AcDbBlockTableRecord
2
logo1
70
0
0
BLOCK_RECORD
5
A0
100
AcDbSymbolTableRecord
100
AcDbBlockTableRecord
2
logo2
70
0
0
BLOCK_RECORD
5
AA
100
AcDbSymbolTableRecord
100
AcDbBlockTableRecord
2
logo3
70
0
0
ENDTAB
0
ENDSEC
0
SECTION
2
BLOCKS
0
BLOCK
5
1E
100
AcDbEntity
8
0
100
AcDbBlockBegin
2
*Model_Space
70
0
10
0.000000
20
0.000000
30
0.000000
3
*Model_Space
1

0
ENDBLK
5
1F
100
AcDbEntity
8
0
100
AcDbBlockEnd
0
BLOCK
5
20
100
AcDbEntity
8
0
100
AcDbBlockBegin
2
*Paper_Space
70
0
10
0.000000
20
0.000000
30
0.000000
3
*Paper_Space
1

0
ENDBLK
5
21
100
AcDbEntity
8
0
100
AcDbBlockEnd
0
BLOCK
5
97
330
96
100
AcDbEntity
8
0
100
AcDbBlockBegin
2
logo1
70
0
10
0.000000
20
0.000000
30
0.000000
3
logo1
1

0
TEXT
5
98
100
AcDbEntity
67
0
8
cz_logo
6
ByLayer
62
256
370
25
100
AcDbText
10
16.071429
20
5.000000
30
0.000000
40
5.000000
1
CadZinho
50
0.000000
7
Standard
72
1
11
16.071429
21
5.000000
31
0.000000
100
AcDbText
73
3
0
LWPOLYLINE
5
99
100
AcDbEntity
67
0
8
cz_logo
6
ByLayer
62
254
370
-1
100
AcDbPolyline
90
10
70
1
10
17.071429
20
24.103600
30
0.000000
42
0.000000
10
27.071429
20
24.103600
30
0.000000
42
0.000000
10
27.071429
20
20.103600
30
0.000000
42
0.000000
10
19.821429
20
11.750000
30
0.000000
42
0.000000
10
27.071429
20
11.750000
30
0.000000
42
0.000000
10
27.071429
20
9.000000
30
0.000000
42
0.000000
10
17.071429
20
9.000000
30
0.000000
42
0.000000
10
17.071429
20
13.000000
30
0.000000
42
0.000000
10
24.321429
20
21.353600
30
0.000000
42
0.000000
10
17.071429
20
21.353600
30
0.000000
0
LWPOLYLINE
5
9A
100
AcDbEntity
67
0
8
cz_logo
6
ByLayer
62
254
370
-1
100
AcDbPolyline
90
8
70
1
10
15.971429
20
29.051800
30
0.000000
42
0.400000
10
9.271429
20
31.051800
30
0.000000
42
0.600000
10
9.271429
20
17.051800
30
0.000000
42
0.400000
10
15.971429
20
19.051800
30
0.000000
42
0.000000
10
14.371429
20
21.051800
30
0.000000
42
-0.400000
10
10.351429
20
19.851800
30
0.000000
42
-0.600000
10
10.351429
20
28.251800
30
0.000000
42
-0.400000
10
14.371429
20
27.051800
30
0.000000
0
LWPOLYLINE
5
9B
100
AcDbEntity
67
0
8
cz_logo
6
ByLayer
62
108
370
-1
100
AcDbPolyline
90
8
70
1
10
3.071429
20
11.000000
30
0.000000
42
0.414214
10
7.071429
20
7.000000
30
0.000000
42
0.000000
10
25.071429
20
7.000000
30
0.000000
42
0.414214
10
29.071429
20
11.000000
30
0.000000
42
0.000000
10
29.071429
20
29.603600
30
0.000000
42
0.414214
10
25.071429
20
33.603600
30
0.000000
42
0.000000
10
7.071429
20
33.603600
30
0.000000
42
0.414214
10
3.071429
20
29.603600
30
0.000000
0
HATCH
5
9C
100
AcDbEntity
67
0
8
cz_logo
6
ByLayer
62
108
370
-1
100
AcDbHatch
10
0.000000
20
0.000000
30
0.000000
210
0.000000
220
0.000000
230
1.000000
2
SOLID
70
1
71
0
91
3
92
2
72
1
73
1
93
8
10
3.071429
20
11.000000
42
0.414214
10
7.071429
20
7.000000
42
0.000000
10
25.071429
20
7.000000
42
0.414214
10
29.071429
20
11.000000
42
0.000000
10
29.071429
20
29.603600
42
0.414214
10
25.071429
20
33.603600
42
0.000000
10
7.071429
20
33.603600
42
0.414214
10
3.071429
20
29.603600
42
0.000000
97
0
92
2
72
1
73
1
93
8
10
15.971429
20
29.051800
42
0.400000
10
9.271429
20
31.051800
42
0.600000
10
9.271429
20
17.051800
42
0.400000
10
15.971429
20
19.051800
42
0.000000
10
14.371429
20
21.051800
42
-0.400000
10
10.351429
20
19.851800
42
-0.600000
10
10.351429
20
28.251800
42
-0.400000
10
14.371429
20
27.051800
42
0.000000
97
0
92
2
72
1
73
1
93
10
10
17.071429
20
24.103600
42
0.000000
10
27.071429
20
24.103600
42
0.000000
10
27.071429
20
20.103600
42
0.000000
10
19.821429
20
11.750000
42
0.000000
10
27.071429
20
11.750000
42
0.000000
10
27.071429
20
9.000000
42
0.000000
10
17.071429
20
9.000000
42
0.000000
10
17.071429
20
13.000000
42
0.000000
10
24.321429
20
21.353600
42
0.000000
10
17.071429
20
21.353600
42
0.000000
97
0
75
0
76
0
98
0
0
HATCH
5
9D
100
AcDbEntity
67
0
8
cz_logo
6
ByLayer
62
254
370
-1
100
AcDbHatch
10
0.000000
20
0.000000
30
0.000000
210
0.000000
220
0.000000
230
1.000000
2
SOLID
70
1
71
0
91
1
92
2
72
1
73
1
93
8
10
15.971429
20
29.051800
42
0.400000
10
9.271429
20
31.051800
42
0.600000
10
9.271429
20
17.051800
42
0.400000
10
15.971429
20
19.051800
42
0.000000
10
14.371429
20
21.051800
42
-0.400000
10
10.351429
20
19.851800
42
-0.600000
10
10.351429
20
28.251800
42
-0.400000
10
14.371429
20
27.051800
42
0.000000
97
0
75
0
76
0
98
0
0
HATCH
5
9E
100
AcDbEntity
67
0
8
cz_logo
6
ByLayer
62
254
370
-1
100
AcDbHatch
10
0.000000
20
0.000000
30
0.000000
210
0.000000
220
0.000000
230
1.000000
2
SOLID
70
1
71
0
91
1
92
2
72
1
73
1
93
10
10
17.071429
20
24.103600
42
0.000000
10
27.071429
20
24.103600
42
0.000000
10
27.071429
20
20.103600
42
0.000000
10
19.821429
20
11.750000
42
0.000000
10
27.071429
20
11.750000
42
0.000000
10
27.071429
20
9.000000
42
0.000000
10
17.071429
20
9.000000
42
0.000000
10
17.071429
20
13.000000
42
0.000000
10
24.321429
20
21.353600
42
0.000000
10
17.071429
20
21.353600
42
0.000000
97
0
75
0
76
0
98
0
0
ENDBLK
5
9F
330
97
100
AcDbEntity
8
0
100
AcDbBlockEnd
0
BLOCK
5
A1
330
A0
100
AcDbEntity
8
0
100
AcDbBlockBegin
2
logo2
70
0
10
0.000000
20
0.000000
30
0.000000
3
logo2
1

0
TEXT
5
A2
100
AcDbEntity
67
0
8
cz_logo
6
ByLayer
62
256
370
25
100
AcDbText
10
16.071429
20
5.000000
30
0.000000
40
5.000000
1
CadZinho
50
0.000000
7
Standard
72
1
11
16.071429
21
5.000000
31
0.000000
100
AcDbText
73
3
0
LWPOLYLINE
5
A3
100
AcDbEntity
67
0
8
cz_logo
6
ByLayer
62
254
370
-1
100
AcDbPolyline
90
10
70
1
10
17.071429
20
24.103600
30
0.000000
42
0.000000
10
27.071429
20
24.103600
30
0.000000
42
0.000000
10
27.071429
20
20.103600
30
0.000000
42
0.000000
10
19.821429
20
11.750000
30
0.000000
42
0.000000
10
27.071429
20
11.750000
30
0.000000
42
0.000000
10
27.071429
20
9.000000
30
0.000000
42
0.000000
10
17.071429
20
9.000000
30
0.000000
42
0.000000
10
17.071429
20
13.000000
30
0.000000
42
0.000000
10
24.321429
20
21.353600
30
0.000000
42
0.000000
10
17.071429
20
21.353600
30
0.000000
0
LWPOLYLINE
5
A4
100
AcDbEntity
67
0
8
cz_logo
6
ByLayer
62
254
370
-1
100
AcDbPolyline
90
8
70
1
10
15.971429
20
29.051800
30
0.000000
42
0.400000
10
9.271429
20
31.051800
30
0.000000
42
0.600000
10
9.271429
20
17.051800
30
0.000000
42
0.400000
10
15.971429
20
19.051800
30
0.000000
42
0.000000
10
14.371429
20
21.051800
30
0.000000
42
-0.400000
10
10.351429
20
19.851800
30
0.000000
42
-0.600000
10
10.351429
20
28.251800
30
0.000000
42
-0.400000
10
14.371429
20
27.051800
30
0.000000
0
LWPOLYLINE
5
A5
100
AcDbEntity
67
0
8
cz_logo
6
ByLayer
62
108
370
-1
100
AcDbPolyline
90
8
70
1
10
3.071429
20
11.000000
30
0.000000
42
0.414214
10
7.071429
20
7.000000
30
0.000000
42
0.000000
10
25.071429
20
7.000000
30
0.000000
42
0.414214
10
29.071429
20
11.000000
30
0.000000
42
0.000000
10
29.071429
20
29.603600
30
0.000000
42
0.414214
10
25.071429
20
33.603600
30
0.000000
42
0.000000
10
7.071429
20
33.603600
30
0.000000
42
0.414214
10
3.071429
20
29.603600
30
0.000000
0
HATCH
5
A6
100
AcDbEntity
67
0
8
cz_logo
6
ByLayer
62
108
370
0
100
AcDbHatch
10
0.000000
20
0.000000
30
0.000000
210
0.000000
220
0.000000
230
1.000000
2
USER_DEF
70
0
71
0
91
3
92
2
72
1
73
1
93
10
10
17.071429
20
24.103600
42
0.000000
10
27.071429
20
24.103600
42
0.000000
10
27.071429
20
20.103600
42
0.000000
10
19.821429
20
11.750000
42
0.000000
10
27.071429
20
11.750000
42
0.000000
10
27.071429
20
9.000000
42
0.000000
10
17.071429
20
9.000000
42
0.000000
10
17.071429
20
13.000000
42
0.000000
10
24.321429
20
21.353600
42
0.000000
10
17.071429
20
21.353600
42
0.000000
97
0
92
2
72
1
73
1
93
8
10
15.971429
20
29.051800
42
0.400000
10
9.271429
20
31.051800
42
0.600000
10
9.271429
20
17.051800
42
0.400000
10
15.971429
20
19.051800
42
0.000000
10
14.371429
20
21.051800
42
-0.400000
10
10.351429
20
19.851800
42
-0.600000
10
10.351429
20
28.251800
42
-0.400000
10
14.371429
20
27.051800
42
0.000000
97
0
92
2
72
1
73
1
93
8
10
3.071429
20
11.000000
42
0.414214
10
7.071429
20
7.000000
42
0.000000
10
25.071429
20
7.000000
42
0.414214
10
29.071429
20
11.000000
42
0.000000
10
29.071429
20
29.603600
42
0.414214
10
25.071429
20
33.603600
42
0.000000
10
7.071429
20
33.603600
42
0.414214
10
3.071429
20
29.603600
42
0.000000
97
0
75
0
76
0
52
0.000000
41
1.000000
77
0
78
1
53
135.000000
43
0.000000
44
0.000000
45
-0.707107
46
-0.707107
79
0
98
0
0
HATCH
5
A7
100
AcDbEntity
67
0
8
cz_logo
6
ByLayer
62
254
370
0
100
AcDbHatch
10
0.000000
20
0.000000
30
0.000000
210
0.000000
220
0.000000
230
1.000000
2
USER_DEF
70
0
71
0
91
1
92
2
72
1
73
1
93
8
10
15.971429
20
29.051800
42
0.400000
10
9.271429
20
31.051800
42
0.600000
10
9.271429
20
17.051800
42
0.400000
10
15.971429
20
19.051800
42
0.000000
10
14.371429
20
21.051800
42
-0.400000
10
10.351429
20
19.851800
42
-0.600000
10
10.351429
20
28.251800
42
-0.400000
10
14.371429
20
27.051800
42
0.000000
97
0
75
0
76
0
52
0.000000
41
1.000000
77
0
78
1
53
0.000000
43
0.000000
44
0.000000
45
0.000000
46
1.000000
79
0
98
0
0
HATCH
5
A8
100
AcDbEntity
67
0
8
cz_logo
6
ByLayer
62
254
370
0
100
AcDbHatch
10
0.000000
20
0.000000
30
0.000000
210
0.000000
220
0.000000
230
1.000000
2
USER_DEF
70
0
71
0
91
1
92
2
72
1
73
1
93
10
10
17.071429
20
24.103600
42
0.000000
10
27.071429
20
24.103600
42
0.000000
10
27.071429
20
20.103600
42
0.000000
10
19.821429
20
11.750000
42
0.000000
10
27.071429
20
11.750000
42
0.000000
10
27.071429
20
9.000000
42
0.000000
10
17.071429
20
9.000000
42
0.000000
10
17.071429
20
13.000000
42
0.000000
10
24.321429
20
21.353600
42
0.000000
10
17.071429
20
21.353600
42
0.000000
97
0
75
0
76
0
52
0.000000
41
1.000000
77
0
78
1
53
0.000000
43
0.000000
44
0.000000
45
0.000000
46
1.000000
79
0
98
0
0
ENDBLK
5
A9
330
A1
100
AcDbEntity
8
0
100
AcDbBlockEnd
0
BLOCK
5
AB
330
AA
100
AcDbEntity
8
0
100
AcDbBlockBegin
2
logo3
70
0
10
0.000000
20
0.000000
30
0.000000
3
logo3
1

0
TEXT
5
AC
100
AcDbEntity
67
0
8
cz_logo
6
ByLayer
62
256
370
25
100
AcDbText
10
16.071429
20
5.000000
30
0.000000
40
5.000000
1
CadZinho
50
0.000000
7
Standard
72
1
11
16.071429
21
5.000000
31
0.000000
100
AcDbText
73
3
0
LWPOLYLINE
5
AD
100
AcDbEntity
67
0
8
cz_logo
6
ByLayer
62
256
370
-1
100
AcDbPolyline
90
10
70
1
10
17.071429
20
24.103600
30
0.000000
42
0.000000
10
27.071429
20
24.103600
30
0.000000
42
0.000000
10
27.071429
20
20.103600
30
0.000000
42
0.000000
10
19.821429
20
11.750000
30
0.000000
42
0.000000
10
27.071429
20
11.750000
30
0.000000
42
0.000000
10
27.071429
20
9.000000
30
0.000000
42
0.000000
10
17.071429
20
9.000000
30
0.000000
42
0.000000
10
17.071429
20
13.000000
30
0.000000
42
0.000000
10
24.321429
20
21.353600
30
0.000000
42
0.000000
10
17.071429
20
21.353600
30
0.000000
0
LWPOLYLINE
5
AE
100
AcDbEntity
67
0
8
cz_logo
6
ByLayer
62
256
370
-1
100
AcDbPolyline
90
8
70
1
10
15.971429
20
29.051800
30
0.000000
42
0.400000
10
9.271429
20
31.051800
30
0.000000
42
0.600000
10
9.271429
20
17.051800
30
0.000000
42
0.400000
10
15.971429
20
19.051800
30
0.000000
42
0.000000
10
14.371429
20
21.051800
30
0.000000
42
-0.400000
10
10.351429
20
19.851800
30
0.000000
42
-0.600000
10
10.351429
20
28.251800
30
0.000000
42
-0.400000
10
14.371429
20
27.051800
30
0.000000
0
LWPOLYLINE
5
AF
100
AcDbEntity
67
0
8
cz_logo
6
ByLayer
62
256
370
-1
100
AcDbPolyline
90
8
70
1
10
3.071429
20
11.000000
30
0.000000
42
0.414214
10
7.071429
20
7.000000
30
0.000000
42
0.000000
10
25.071429
20
7.000000
30
0.000000
42
0.414214
10
29.071429
20
11.000000
30
0.000000
42
0.000000
10
29.071429
20
29.603600
30
0.000000
42
0.414214
10
25.071429
20
33.603600
30
0.000000
42
0.000000
10
7.071429
20
33.603600
30
0.000000
42
0.414214
10
3.071429
20
29.603600
30
0.000000
0
ENDBLK
5
B0
330
AB
100
AcDbEntity
8
0
100
AcDbBlockEnd
0
ENDSEC
0
SECTION
2
ENTITIES
0
TEXT
5
71
100
AcDbEntity
67
0
8
cz_logo
6
ByLayer
62
256
370
25
100
AcDbText
10
13.000003
20
-2.000000
30
0.000000
40
5.000000
1
CadZinho
50
0.000000
7
Standard
72
1
11
13.000003
21
-2.000000
31
0.000000
100
AcDbText
73
3
0
LWPOLYLINE
5
78
100
AcDbEntity
67
0
8
cz_logo
6
ByLayer
62
254
370
-1
100
AcDbPolyline
90
10
70
1
10
14.000003
20
17.103600
30
0.000000
42
0.000000
10
24.000003
20
17.103600
30
0.000000
42
0.000000
10
24.000003
20
13.103600
30
0.000000
42
0.000000
10
16.750003
20
4.750000
30
0.000000
42
0.000000
10
24.000003
20
4.750000
30
0.000000
42
0.000000
10
24.000003
20
2.000000
30
0.000000
42
0.000000
10
14.000003
20
2.000000
30
0.000000
42
0.000000
10
14.000003
20
6.000000
30
0.000000
42
0.000000
10
21.250003
20
14.353600
30
0.000000
42
0.000000
10
14.000003
20
14.353600
30
0.000000
0
LWPOLYLINE
5
79
100
AcDbEntity
67
0
8
cz_logo
6
ByLayer
62
254
370
-1
100
AcDbPolyline
90
8
70
1
10
12.900003
20
22.051800
30
0.000000
42
0.400000
10
6.200003
20
24.051800
30
0.000000
42
0.600000
10
6.200003
20
10.051800
30
0.000000
42
0.400000
10
12.900003
20
12.051800
30
0.000000
42
0.000000
10
11.300003
20
14.051800
30
0.000000
42
-0.400000
10
7.280003
20
12.851800
30
0.000000
42
-0.600000
10
7.280003
20
21.251800
30
0.000000
42
-0.400000
10
11.300003
20
20.051800
30
0.000000
0
LWPOLYLINE
5
7A
100
AcDbEntity
67
0
8
cz_logo
6
ByLayer
62
108
370
-1
100
AcDbPolyline
90
8
70
1
10
0.000003
20
4.000000
30
0.000000
42
0.414214
10
4.000003
20
0.000000
30
0.000000
42
0.000000
10
22.000003
20
0.000000
30
0.000000
42
0.414214
10
26.000003
20
4.000000
30
0.000000
42
0.000000
10
26.000003
20
22.603600
30
0.000000
42
0.414214
10
22.000003
20
26.603600
30
0.000000
42
0.000000
10
4.000003
20
26.603600
30
0.000000
42
0.414214
10
0.000003
20
22.603600
30
0.000000
0
HATCH
5
7B
100
AcDbEntity
67
0
8
cz_logo
6
ByLayer
62
108
370
0
100
AcDbHatch
10
0.000000
20
0.000000
30
0.000000
210
0.000000
220
0.000000
230
1.000000
2
USER_DEF
70
0
71
0
91
3
92
2
72
1
73
1
93
10
10
14.000003
20
17.103600
42
0.000000
10
24.000003
20
17.103600
42
0.000000
10
24.000003
20
13.103600
42
0.000000
10
16.750003
20
4.750000
42
0.000000
10
24.000003
20
4.750000
42
0.000000
10
24.000003
20
2.000000
42
0.000000
10
14.000003
20
2.000000
42
0.000000
10
14.000003
20
6.000000
42
0.000000
10
21.250003
20
14.353600
42
0.000000
10
14.000003
20
14.353600
42
0.000000
97
0
92
2
72
1
73
1
93
8
10
12.900003
20
22.051800
42
0.400000
10
6.200003
20
24.051800
42
0.600000
10
6.200003
20
10.051800
42
0.400000
10
12.900003
20
12.051800
42
0.000000
10
11.300003
20
14.051800
42
-0.400000
10
7.280003
20
12.851800
42
-0.600000
10
7.280003
20
21.251800
42
-0.400000
10
11.300003
20
20.051800
42
0.000000
97
0
92
2
72
1
73
1
93
8
10
0.000003
20
4.000000
42
0.414214
10
4.000003
20
0.000000
42
0.000000
10
22.000003
20
0.000000
42
0.414214
10
26.000003
20
4.000000
42
0.000000
10
26.000003
20
22.603600
42
0.414214
10
22.000003
20
26.603600
42
0.000000
10
4.000003
20
26.603600
42
0.414214
10
0.000003
20
22.603600
42
0.000000
97
0
75
0
76
0
52
0.000000
41
1.000000
77
0
78
1
53
135.000000
43
0.000000
44
0.000000
45
-0.707107
46
-0.707107
79
0
98
0
0
HATCH
5
7C
100
AcDbEntity
67
0
8
cz_logo
6
ByLayer
62
254
370
0
100
AcDbHatch
10
0.000000
20
0.000000
30
0.000000
210
0.000000
220
0.000000
230
1.000000
2
USER_DEF
70
0
71
0
91
1
92
2
72
1
73
1
93
8
10
12.900003
20
22.051800
42
0.400000
10
6.200003
20
24.051800
42
0.600000
10
6.200003
20
10.051800
42
0.400000
10
12.900003
20
12.051800
42
0.000000
10
11.300003
20
14.051800
42
-0.400000
10
7.280003
20
12.851800
42
-0.600000
10
7.280003
20
21.251800
42
-0.400000
10
11.300003
20
20.051800
42
0.000000
97
0
75
0
76
0
52
0.000000
41
1.000000
77
0
78
1
53
0.000000
43
0.000000
44
0.000000
45
0.000000
46
1.000000
79
0
98
0
0
HATCH
5
7D
100
AcDbEntity
67
0
8
cz_logo
6
ByLayer
62
254
370
0
100
AcDbHatch
10
0.000000
20
0.000000
30
0.000000
210
0.000000
220
0.000000
230
1.000000
2
USER_DEF
70
0
71
0
91
1
92
2
72
1
73
1
93
10
10
14.000003
20
17.103600
42
0.000000
10
24.000003
20
17.103600
42
0.000000
10
24.000003
20
13.103600
42
0.000000
10
16.750003
20
4.750000
42
0.000000
10
24.000003
20
4.750000
42
0.000000
10
24.000003
20
2.000000
42
0.000000
10
14.000003
20
2.000000
42
0.000000
10
14.000003
20
6.000000
42
0.000000
10
21.250003
20
14.353600
42
0.000000
10
14.000003
20
14.353600
42
0.000000
97
0
75
0
76
0
52
0.000000
41
1.000000
77
0
78
1
53
0.000000
43
0.000000
44
0.000000
45
0.000000
46
1.000000
79
0
98
0
0
TEXT
5
84
100
AcDbEntity
67
0
8
cz_logo
6
ByLayer
62
256
370
25
100
AcDbText
10
53.000000
20
-2.000000
30
0.000000
40
5.000000
1
CadZinho
50
0.000000
7
Standard
72
1
11
53.000000
21
-2.000000
31
0.000000
100
AcDbText
73
3
0
LWPOLYLINE
5
85
100
AcDbEntity
67
0
8
cz_logo
6
ByLayer
62
254
370
-1
100
AcDbPolyline
90
10
70
1
10
54.000000
20
17.103600
30
0.000000
42
0.000000
10
64.000000
20
17.103600
30
0.000000
42
0.000000
10
64.000000
20
13.103600
30
0.000000
42
0.000000
10
56.750000
20
4.750000
30
0.000000
42
0.000000
10
64.000000
20
4.750000
30
0.000000
42
0.000000
10
64.000000
20
2.000000
30
0.000000
42
0.000000
10
54.000000
20
2.000000
30
0.000000
42
0.000000
10
54.000000
20
6.000000
30
0.000000
42
0.000000
10
61.250000
20
14.353600
30
0.000000
42
0.000000
10
54.000000
20
14.353600
30
0.000000
0
LWPOLYLINE
5
86
100
AcDbEntity
67
0
8
cz_logo
6
ByLayer
62
254
370
-1
100
AcDbPolyline
90
8
70
1
10
52.900000
20
22.051800
30
0.000000
42
0.400000
10
46.200000
20
24.051800
30
0.000000
42
0.600000
10
46.200000
20
10.051800
30
0.000000
42
0.400000
10
52.900000
20
12.051800
30
0.000000
42
0.000000
10
51.300000
20
14.051800
30
0.000000
42
-0.400000
10
47.280000
20
12.851800
30
0.000000
42
-0.600000
10
47.280000
20
21.251800
30
0.000000
42
-0.400000
10
51.300000
20
20.051800
30
0.000000
0
LWPOLYLINE
5
87
100
AcDbEntity
67
0
8
cz_logo
6
ByLayer
62
108
370
-1
100
AcDbPolyline
90
8
70
1
10
40.000000
20
4.000000
30
0.000000
42
0.414214
10
44.000000
20
0.000000
30
0.000000
42
0.000000
10
62.000000
20
0.000000
30
0.000000
42
0.414214
10
66.000000
20
4.000000
30
0.000000
42
0.000000
10
66.000000
20
22.603600
30
0.000000
42
0.414214
10
62.000000
20
26.603600
30
0.000000
42
0.000000
10
44.000000
20
26.603600
30
0.000000
42
0.414214
10
40.000000
20
22.603600
30
0.000000
0
TEXT
5
8B
100
AcDbEntity
67
0
8
cz_logo
6
ByLayer
62
256
370
25
100
AcDbText
10
92.999997
20
-2.000000
30
0.000000
40
5.000000
1
CadZinho
50
0.000000
7
Standard
72
1
11
92.999997
21
-2.000000
31
0.000000
100
AcDbText
73
3
0
LWPOLYLINE
5
8C
100
AcDbEntity
67
0
8
cz_logo
6
ByLayer
62
256
370
-1
100
AcDbPolyline
90
10
70
1
10
93.999997
20
17.103600
30
0.000000
42
0.000000
10
103.999997
20
17.103600
30
0.000000
42
0.000000
10
103.999997
20
13.103600
30
0.000000
42
0.000000
10
96.749997
20
4.750000
30
0.000000
42
0.000000
10
103.999997
20
4.750000
30
0.000000
42
0.000000
10
103.999997
20
2.000000
30
0.000000
42
0.000000
10
93.999997
20
2.000000
30
0.000000
42
0.000000
10
93.999997
20
6.000000
30
0.000000
42
0.000000
10
101.249997
20
14.353600
30
0.000000
42
0.000000
10
93.999997
20
14.353600
30
0.000000
0
LWPOLYLINE
5
8D
100
AcDbEntity
67
0
8
cz_logo
6
ByLayer
62
256
370
-1
100
AcDbPolyline
90
8
70
1
10
92.899997
20
22.051800
30
0.000000
42
0.400000
10
86.199997
20
24.051800
30
0.000000
42
0.600000
10
86.199997
20
10.051800
30
0.000000
42
0.400000
10
92.899997
20
12.051800
30
0.000000
42
0.000000
10
91.299997
20
14.051800
30
0.000000
42
-0.400000
10
87.279997
20
12.851800
30
0.000000
42
-0.600000
10
87.279997
20
21.251800
30
0.000000
42
-0.400000
10
91.299997
20
20.051800
30
0.000000
0
LWPOLYLINE
5
8E
100
AcDbEntity
67
0
8
cz_logo
6
ByLayer
62
256
370
-1
100
AcDbPolyline
90
8
70
1
10
79.999997
20
4.000000
30
0.000000
42
0.414214
10
83.999997
20
0.000000
30
0.000000
42
0.000000
10
101.999997
20
0.000000
30
0.000000
42
0.414214
10
105.999997
20
4.000000
30
0.000000
42
0.000000
10
105.999997
20
22.603600
30
0.000000
42
0.414214
10
101.999997
20
26.603600
30
0.000000
42
0.000000
10
83.999997
20
26.603600
30
0.000000
42
0.414214
10
79.999997
20
22.603600
30
0.000000
0
HATCH
5
92
100
AcDbEntity
67
0
8
cz_logo
6
ByLayer
62
108
370
-1
100
AcDbHatch
10
0.000000
20
0.000000
30
0.000000
210
0.000000
220
0.000000
230
1.000000
2
SOLID
70
1
71
0
91
3
92
2
72
1
73
1
93
8
10
40.000000
20
4.000000
42
0.414214
10
44.000000
20
0.000000
42
0.000000
10
62.000000
20
0.000000
42
0.414214
10
66.000000
20
4.000000
42
0.000000
10
66.000000
20
22.603600
42
0.414214
10
62.000000
20
26.603600
42
0.000000
10
44.000000
20
26.603600
42
0.414214
10
40.000000
20
22.603600
42
0.000000
97
0
92
2
72
1
73
1
93
8
10
52.900000
20
22.051800
42
0.400000
10
46.200000
20
24.051800
42
0.600000
10
46.200000
20
10.051800
42
0.400000
10
52.900000
20
12.051800
42
0.000000
10
51.300000
20
14.051800
42
-0.400000
10
47.280000
20
12.851800
42
-0.600000
10
47.280000
20
21.251800
42
-0.400000
10
51.300000
20
20.051800
42
0.000000
97
0
92
2
72
1
73
1
93
10
10
54.000000
20
17.103600
42
0.000000
10
64.000000
20
17.103600
42
0.000000
10
64.000000
20
13.103600
42
0.000000
10
56.750000
20
4.750000
42
0.000000
10
64.000000
20
4.750000
42
0.000000
10
64.000000
20
2.000000
42
0.000000
10
54.000000
20
2.000000
42
0.000000
10
54.000000
20
6.000000
42
0.000000
10
61.250000
20
14.353600
42
0.000000
10
54.000000
20
14.353600
42
0.000000
97
0
75
0
76
0
98
0
0
HATCH
5
93
100
AcDbEntity
67
0
8
cz_logo
6
ByLayer
62
254
370
-1
100
AcDbHatch
10
0.000000
20
0.000000
30
0.000000
210
0.000000
220
0.000000
230
1.000000
2
SOLID
70
1
71
0
91
1
92
2
72
1
73
1
93
8
10
52.900000
20
22.051800
42
0.400000
10
46.200000
20
24.051800
42
0.600000
10
46.200000
20
10.051800
42
0.400000
10
52.900000
20
12.051800
42
0.000000
10
51.300000
20
14.051800
42
-0.400000
10
47.280000
20
12.851800
42
-0.600000
10
47.280000
20
21.251800
42
-0.400000
10
51.300000
20
20.051800
42
0.000000
97
0
75
0
76
0
98
0
0
HATCH
5
94
100
AcDbEntity
67
0
8
cz_logo
6
ByLayer
62
254
370
-1
100
AcDbHatch
10
0.000000
20
0.000000
30
0.000000
210
0.000000
220
0.000000
230
1.000000
2
SOLID
70
1
71
0
91
1
92
2
72
1
73
1
93
10
10
54.000000
20
17.103600
42
0.000000
10
64.000000
20
17.103600
42
0.000000
10
64.000000
20
13.103600
42
0.000000
10
56.750000
20
4.750000
42
0.000000
10
64.000000
20
4.750000
42
0.000000
10
64.000000
20
2.000000
42
0.000000
10
54.000000
20
2.000000
42
0.000000
10
54.000000
20
6.000000
42
0.000000
10
61.250000
20
14.353600
42
0.000000
10
54.000000
20
14.353600
42
0.000000
97
0
75
0
76
0
98
0
0
INSERT
5
B1
100
AcDbEntity
67
0
8
cz_logo
6
ByLayer
62
256
370
-1
100
AcDbBlockReference
66
0
2
logo1
10
-3.071429
20
33.000000
30
0.000000
41
1.000000
42
1.000000
43
1.000000
50
0.000000
0
INSERT
5
B2
100
AcDbEntity
67
0
8
cz_logo
6
ByLayer
62
256
370
-1
100
AcDbBlockReference
66
0
2
logo2
10
36.928565
20
33.000000
30
0.000000
41
1.000000
42
1.000000
43
1.000000
50
0.000000
0
INSERT
5
B3
100
AcDbEntity
67
0
8
cz_logo
6
ByLayer
62
256
370
-1
100
AcDbBlockReference
66
0
2
logo3
10
76.928562
20
33.000000
30
0.000000
41
1.000000
42
1.000000
43
1.000000
50
0.000000
0
ENDSEC
0
SECTION
2
OBJECTS
0
DICTIONARY
5
22
100
AcDbDictionary
3
ACAD_GROUP
350
23
0
DICTIONARY
5
23
100
AcDbDictionary
0
ENDSEC
0
EOF
