<svg width="1188.0000" height="840.0000" version="1.1" xmlns="http://www.w3.org/2000/svg" xmlns:xlink="http://www.w3.org/1999/xlink">
<path stroke-width="1.8" stroke="rgb(0, 0, 0)" fill="none" d="M160.7 747.7 L154 754.4 L140.7 754.4 L134 747.7 L134 721.1 L140.7 714.4 L154 714.4 L160.7 721.1 "/>
<path stroke-width="1.8" stroke="rgb(0, 0, 0)" fill="none" d="M187.3 754.4 L180.7 754.4 L174 747.7 L174 734.4 L180.7 727.7 L187.3 727.7 L194 734.4 L194 747.7 L187.3 754.4 M194 747.7 L200.7 754.4 "/>
<path stroke-width="1.8" stroke="rgb(0, 0, 0)" fill="none" d="M240.7 741.1 L227.3 754.4 L220.7 754.4 L214 747.7 L214 734.4 L220.7 727.7 L227.3 727.7 L240.7 741.1 M240.7 714.4 L240.7 754.4 "/>
<path stroke-width="1.8" stroke="rgb(0, 0, 0)" fill="none" d="M254 714.4 L280.7 714.4 L254 754.4 L280.7 754.4 "/>
<path stroke-width="1.8" stroke="rgb(0, 0, 0)" fill="none" d="M294 754.4 L294 727.7 M294 721.1 L294 714.4 "/>
<path stroke-width="1.8" stroke="rgb(0, 0, 0)" fill="none" d="M307.3 754.4 L307.3 727.7 M307.3 741.1 L320.7 727.7 L327.3 727.7 L334 734.4 L334 754.4 "/>
<path stroke-width="1.8" stroke="rgb(0, 0, 0)" fill="none" d="M347.3 754.4 L347.3 714.4 M347.3 741.1 L360.7 727.7 L367.3 727.7 L374 734.4 L374 754.4 "/>
<path stroke-width="1.8" stroke="rgb(0, 0, 0)" fill="none" d="M407.3 754.4 L394 754.4 L387.3 747.7 L387.3 734.4 L394 727.7 L407.3 727.7 L414 734.4 L414 747.7 L407.3 754.4 "/>
<path stroke="rgb(254, 254, 254)" fill="none" d="M282 561.6 L362 561.6 L362 593.6 L304 660.4 L362 660.4 L362 682.4 L282 682.4 L282 650.4 L340 583.6 L282 583.6 L282 561.6 "/>
<path stroke="rgb(254, 254, 254)" fill="none" d="M273.2 522 L272.7 521.1 L272.2 520.3 L271.6 519.5 L271.1 518.6 L270.5 517.8 L269.9 517.1 L269.2 516.3 L268.6 515.5 L267.9 514.8 L267.3 514.1 L266.6 513.3 L265.8 512.6 L265.1 512 L264.4 511.3 L263.6 510.7 L262.8 510.1 L262 509.5 L261.2 508.9 L260.4 508.3 L259.5 507.8 L258.7 507.3 L257.8 506.8 L257 506.3 L256.1 505.8 L255.2 505.4 L254.3 505 L253.4 504.6 L252.4 504.2 L251.5 503.9 L250.6 503.6 L249.6 503.3 L248.6 503 L247.7 502.8 L246.7 502.5 L245.7 502.3 L244.8 502.2 L243.8 502 L242.8 501.9 L241.8 501.8 L240.8 501.7 L239.8 501.6 L238.8 501.6 L237.8 501.6 L236.8 501.6 L235.8 501.6 L234.8 501.7 L233.9 501.8 L232.9 501.9 L231.9 502.1 L230.9 502.2 L229.9 502.4 L228.9 502.6 L228 502.8 L227 503.1 L226.1 503.4 L225.1 503.7 L224.2 504 L223.2 504.4 L222.3 504.7 L221.4 505.1 L220.5 505.6 L219.6 506 L218.2 506.7 L216.9 507.5 L215.6 508.3 L214.3 509.2 L213 510.1 L211.7 511 L210.5 511.9 L209.2 512.9 L208.1 513.9 L206.9 514.9 L205.7 516 L204.6 517.1 L203.5 518.2 L202.5 519.3 L201.4 520.5 L200.4 521.7 L199.5 522.9 L198.5 524.1 L197.6 525.4 L196.7 526.7 L195.9 528 L195.1 529.3 L194.3 530.7 L193.5 532 L192.8 533.4 L192.1 534.8 L191.5 536.2 L190.9 537.7 L190.3 539.1 L189.7 540.6 L189.2 542 L188.7 543.5 L188.3 545 L187.9 546.5 L187.6 548 L187.2 549.6 L186.9 551.1 L186.7 552.6 L186.5 554.2 L186.3 555.7 L186.2 557.3 L186.1 558.8 L186 560.4 L186 561.9 L186 563.5 L186.1 565.1 L186.2 566.6 L186.3 568.2 L186.5 569.7 L186.7 571.3 L186.9 572.8 L187.2 574.3 L187.5 575.8 L187.9 577.4 L188.3 578.9 L188.7 580.4 L189.2 581.9 L189.7 583.3 L190.2 584.8 L190.8 586.2 L191.4 587.7 L192.1 589.1 L192.8 590.5 L193.5 591.9 L194.2 593.2 L195 594.6 L195.8 595.9 L196.7 597.2 L197.5 598.5 L198.5 599.8 L199.4 601 L200.4 602.2 L201.4 603.4 L202.4 604.6 L203.5 605.7 L204.5 606.8 L205.7 607.9 L206.8 609 L208 610 L209.2 611 L210.4 612 L211.6 612.9 L212.9 613.9 L214.2 614.7 L215.5 615.6 L216.8 616.4 L218.1 617.2 L219.6 618 L220.5 618.4 L221.4 618.9 L222.3 619.3 L223.2 619.6 L224.2 620 L225.1 620.3 L226 620.6 L227 620.9 L228 621.2 L228.9 621.4 L229.9 621.6 L230.9 621.8 L231.9 621.9 L232.9 622.1 L233.8 622.2 L234.8 622.3 L235.8 622.4 L236.8 622.4 L237.8 622.4 L238.8 622.4 L239.8 622.4 L240.8 622.3 L241.8 622.2 L242.8 622.1 L243.8 622 L244.7 621.8 L245.7 621.7 L246.7 621.5 L247.7 621.2 L248.6 621 L249.6 620.7 L250.5 620.4 L251.5 620.1 L252.4 619.8 L253.3 619.4 L254.3 619 L255.2 618.6 L256.1 618.2 L257 617.7 L257.8 617.2 L258.7 616.7 L259.5 616.2 L260.4 615.7 L261.2 615.1 L262 614.5 L262.8 613.9 L263.6 613.3 L264.3 612.7 L265.1 612 L265.8 611.4 L266.5 610.7 L267.2 610 L267.9 609.2 L268.6 608.5 L269.2 607.7 L269.9 607 L270.5 606.2 L271 605.4 L271.6 604.5 L272.2 603.7 L272.7 602.9 L273.2 602 L260.4 586 L260.1 586.5 L259.8 587 L259.5 587.5 L259.1 588 L258.8 588.5 L258.4 589 L258 589.4 L257.6 589.9 L257.2 590.3 L256.8 590.8 L256.4 591.2 L256 591.6 L255.5 592 L255.1 592.4 L254.6 592.8 L254.2 593.2 L253.7 593.5 L253.2 593.9 L252.7 594.2 L252.2 594.5 L251.7 594.8 L251.2 595.1 L250.7 595.4 L250.1 595.7 L249.6 596 L249 596.2 L248.5 596.4 L247.9 596.7 L247.4 596.9 L246.8 597.1 L246.2 597.2 L245.7 597.4 L245.1 597.5 L244.5 597.7 L243.9 597.8 L243.3 597.9 L242.7 598 L242.2 598.1 L241.6 598.1 L241 598.2 L240.4 598.2 L239.8 598.2 L239.2 598.2 L238.6 598.2 L238 598.2 L237.4 598.2 L236.8 598.1 L236.2 598.1 L235.6 598 L235 597.9 L234.4 597.8 L233.8 597.6 L233.3 597.5 L232.7 597.3 L232.1 597.2 L231.5 597 L231 596.8 L230.4 596.6 L229.9 596.4 L229.3 596.1 L228.8 595.9 L228.2 595.6 L227.4 595.2 L226.6 594.7 L225.8 594.2 L225 593.7 L224.3 593.2 L223.5 592.6 L222.8 592 L222 591.5 L221.3 590.9 L220.6 590.2 L219.9 589.6 L219.3 589 L218.6 588.3 L218 587.6 L217.3 586.9 L216.7 586.2 L216.2 585.5 L215.6 584.7 L215 584 L214.5 583.2 L214 582.4 L213.5 581.6 L213 580.8 L212.6 580 L212.2 579.2 L211.8 578.3 L211.4 577.5 L211 576.6 L210.6 575.7 L210.3 574.9 L210 574 L209.7 573.1 L209.5 572.2 L209.2 571.3 L209 570.4 L208.8 569.5 L208.6 568.5 L208.5 567.6 L208.4 566.7 L208.3 565.8 L208.2 564.8 L208.1 563.9 L208.1 563 L208.1 562 L208.1 561.1 L208.1 560.2 L208.2 559.2 L208.3 558.3 L208.4 557.4 L208.5 556.4 L208.6 555.5 L208.8 554.6 L209 553.7 L209.2 552.8 L209.5 551.9 L209.7 551 L210 550.1 L210.3 549.2 L210.6 548.3 L211 547.5 L211.3 546.6 L211.7 545.8 L212.1 544.9 L212.6 544.1 L213 543.3 L213.5 542.5 L214 541.7 L214.5 540.9 L215 540.1 L215.6 539.3 L216.1 538.6 L216.7 537.9 L217.3 537.2 L217.9 536.5 L218.6 535.8 L219.2 535.1 L219.9 534.4 L220.6 533.8 L221.3 533.2 L222 532.6 L222.7 532 L223.4 531.4 L224.2 530.9 L225 530.4 L225.8 529.8 L226.6 529.4 L227.4 528.9 L228.2 528.4 L228.8 528.1 L229.3 527.9 L229.9 527.6 L230.4 527.4 L231 527.2 L231.5 527 L232.1 526.8 L232.7 526.7 L233.3 526.5 L233.8 526.4 L234.4 526.2 L235 526.1 L235.6 526 L236.2 525.9 L236.8 525.9 L237.4 525.8 L238 525.8 L238.6 525.8 L239.2 525.8 L239.8 525.8 L240.4 525.8 L241 525.8 L241.6 525.9 L242.1 525.9 L242.7 526 L243.3 526.1 L243.9 526.2 L244.5 526.3 L245.1 526.5 L245.7 526.6 L246.2 526.8 L246.8 526.9 L247.4 527.1 L247.9 527.3 L248.5 527.6 L249 527.8 L249.6 528 L250.1 528.3 L250.7 528.6 L251.2 528.9 L251.7 529.2 L252.2 529.5 L252.7 529.8 L253.2 530.1 L253.7 530.5 L254.2 530.8 L254.6 531.2 L255.1 531.6 L255.5 532 L256 532.4 L256.4 532.8 L256.8 533.2 L257.2 533.7 L257.6 534.1 L258 534.6 L258.4 535 L258.8 535.5 L259.1 536 L259.4 536.5 L259.8 537 L260.1 537.5 L260.4 538 L273.2 522 "/>
<path stroke="rgb(0, 114, 29)" fill="none" d="M170 666.4 L170 667.2 L170 668 L170.1 668.8 L170.2 669.6 L170.2 670.3 L170.3 671.1 L170.5 671.9 L170.6 672.7 L170.8 673.4 L171 674.2 L171.2 674.9 L171.4 675.7 L171.6 676.5 L171.9 677.2 L172.1 677.9 L172.4 678.7 L172.7 679.4 L173.1 680.1 L173.4 680.8 L173.8 681.5 L174.2 682.2 L174.6 682.9 L175 683.5 L175.4 684.2 L175.8 684.8 L176.3 685.5 L176.8 686.1 L177.3 686.7 L177.8 687.3 L178.3 687.9 L178.8 688.5 L179.4 689 L179.9 689.6 L180.5 690.1 L181.1 690.6 L181.7 691.2 L182.3 691.6 L182.9 692.1 L183.6 692.6 L184.2 693 L184.9 693.4 L185.5 693.9 L186.2 694.3 L186.9 694.6 L187.6 695 L188.3 695.3 L189 695.7 L189.8 696 L190.5 696.3 L191.2 696.5 L192 696.8 L192.7 697 L193.5 697.3 L194.2 697.5 L195 697.6 L195.8 697.8 L196.5 697.9 L197.3 698.1 L198.1 698.2 L198.9 698.3 L199.6 698.3 L200.4 698.4 L201.2 698.4 L202 698.4 L346 698.4 L346.8 698.4 L347.6 698.4 L348.4 698.3 L349.1 698.3 L349.9 698.2 L350.7 698.1 L351.5 697.9 L352.2 697.8 L353 697.6 L353.8 697.5 L354.5 697.3 L355.3 697 L356 696.8 L356.8 696.5 L357.5 696.3 L358.2 696 L359 695.7 L359.7 695.3 L360.4 695 L361.1 694.6 L361.8 694.3 L362.5 693.9 L363.1 693.4 L363.8 693 L364.4 692.6 L365.1 692.1 L365.7 691.6 L366.3 691.2 L366.9 690.6 L367.5 690.1 L368.1 689.6 L368.6 689 L369.2 688.5 L369.7 687.9 L370.2 687.3 L370.7 686.7 L371.2 686.1 L371.7 685.5 L372.2 684.8 L372.6 684.2 L373 683.5 L373.4 682.9 L373.8 682.2 L374.2 681.5 L374.6 680.8 L374.9 680.1 L375.3 679.4 L375.6 678.7 L375.9 677.9 L376.1 677.2 L376.4 676.5 L376.6 675.7 L376.8 674.9 L377 674.2 L377.2 673.4 L377.4 672.7 L377.5 671.9 L377.7 671.1 L377.8 670.3 L377.8 669.6 L377.9 668.8 L378 668 L378 667.2 L378 666.4 L378 517.6 L378 516.8 L378 516 L377.9 515.2 L377.8 514.4 L377.8 513.7 L377.7 512.9 L377.5 512.1 L377.4 511.3 L377.2 510.6 L377 509.8 L376.8 509.1 L376.6 508.3 L376.4 507.5 L376.1 506.8 L375.9 506.1 L375.6 505.3 L375.3 504.6 L374.9 503.9 L374.6 503.2 L374.2 502.5 L373.8 501.8 L373.4 501.1 L373 500.5 L372.6 499.8 L372.2 499.2 L371.7 498.5 L371.2 497.9 L370.7 497.3 L370.2 496.7 L369.7 496.1 L369.2 495.5 L368.6 495 L368.1 494.4 L367.5 493.9 L366.9 493.4 L366.3 492.8 L365.7 492.4 L365.1 491.9 L364.4 491.4 L363.8 491 L363.1 490.6 L362.5 490.1 L361.8 489.7 L361.1 489.4 L360.4 489 L359.7 488.7 L359 488.3 L358.2 488 L357.5 487.7 L356.8 487.5 L356 487.2 L355.3 487 L354.5 486.7 L353.8 486.5 L353 486.4 L352.2 486.2 L351.5 486.1 L350.7 485.9 L349.9 485.8 L349.1 485.7 L348.4 485.7 L347.6 485.6 L346.8 485.6 L346 485.6 L202 485.6 L201.2 485.6 L200.4 485.6 L199.6 485.7 L198.9 485.7 L198.1 485.8 L197.3 485.9 L196.5 486.1 L195.8 486.2 L195 486.4 L194.2 486.5 L193.5 486.7 L192.7 487 L192 487.2 L191.2 487.5 L190.5 487.7 L189.8 488 L189 488.3 L188.3 488.7 L187.6 489 L186.9 489.4 L186.2 489.7 L185.5 490.1 L184.9 490.6 L184.2 491 L183.6 491.4 L182.9 491.9 L182.3 492.4 L181.7 492.8 L181.1 493.4 L180.5 493.9 L179.9 494.4 L179.4 495 L178.8 495.5 L178.3 496.1 L177.8 496.7 L177.3 497.3 L176.8 497.9 L176.3 498.5 L175.8 499.2 L175.4 499.8 L175 500.5 L174.6 501.1 L174.2 501.8 L173.8 502.5 L173.4 503.2 L173.1 503.9 L172.7 504.6 L172.4 505.3 L172.1 506.1 L171.9 506.8 L171.6 507.5 L171.4 508.3 L171.2 509.1 L171 509.8 L170.8 510.6 L170.6 511.3 L170.5 512.1 L170.3 512.9 L170.2 513.7 L170.2 514.4 L170.1 515.2 L170 516 L170 516.8 L170 517.6 L170 666.4 "/>
<path stroke="rgb(0, 114, 29)" fill="none" d="M196.8 698 L170.4 671.6 M208.6 698.4 L170 659.9 M219.9 698.4 L170 648.5 M231.2 698.4 L170 637.2 M242.5 698.4 L170 625.9 M253.8 698.4 L170 614.6 M265.1 698.4 L170 603.3 M276.4 698.4 L170 592 M287.7 698.4 L170 580.7 M299.1 698.4 L283.1 682.4 M282 681.4 L217.4 616.8 M194.7 594 L170 569.4 M310.4 698.4 L294.4 682.4 M282 670 L234.2 622.2 M187.5 575.5 L170 558 M321.7 698.4 L305.7 682.4 M282 658.7 L245.1 621.8 M186 562.7 L170 546.7 M333 698.4 L317 682.4 M283.4 648.8 L253.8 619.2 M231.6 597 L210.9 576.3 M186.8 552.2 L170 535.4 M344.3 698.4 L328.3 682.4 M306.3 660.4 L305.1 659.2 M288.7 642.7 L261.1 615.2 M243.7 597.8 L208.1 562.2 M188.9 543 L170 524.1 M354.5 697.3 L339.6 682.4 M317.6 660.4 L310.3 653.1 M293.9 636.7 L267.2 610 M251.9 594.7 L209.4 552.2 M192.1 534.9 L170.3 513.1 M362.4 693.9 L350.9 682.4 M328.9 660.4 L315.6 647.1 M299.2 630.6 L272.2 603.7 M258 589.5 L212.6 544 M196.1 527.6 L172.9 504.3 M368.8 688.9 L362 682.2 M340.3 660.4 L320.8 641 M304.4 624.6 L217.2 537.3 M200.9 521.1 L177.2 497.4 M373.7 682.5 L362 670.8 M351.6 660.4 L326.1 634.9 M309.7 618.5 L223 531.8 M206.5 515.3 L183 491.8 M377 674.5 L331.4 628.9 M314.9 612.5 L286.1 583.6 M282 579.5 L230 527.6 M212.7 510.3 L190.3 487.8 M378 664.2 L336.6 622.8 M320.2 606.4 L297.4 583.6 M282 568.2 L239.5 525.8 M219.7 505.9 L199.5 485.7 M378 652.9 L341.9 616.8 M325.4 600.4 L308.7 583.6 M286.7 561.6 L261.6 536.5 M227.9 502.9 L210.7 485.6 M378 641.6 L347.1 610.7 M330.7 594.3 L320 583.6 M298 561.6 L266.6 530.2 M238 501.6 L222 485.6 M378 630.3 L352.4 604.7 M336 588.2 L331.3 583.6 M309.3 561.6 L271.7 523.9 M251.7 504 L233.3 485.6 M378 619 L357.6 598.6 M320.6 561.6 L244.6 485.6 M378 607.6 L362 591.6 M331.9 561.6 L255.9 485.6 M378 596.3 L362 580.3 M343.3 561.6 L267.3 485.6 M378 585 L362 569 M354.6 561.6 L278.6 485.6 M378 573.7 L289.9 485.6 M378 562.4 L301.2 485.6 M378 551.1 L312.5 485.6 M378 539.8 L323.8 485.6 M378 528.5 L335.1 485.6 M378 517.1 L346.5 485.6 M373.6 501.5 L362.1 489.9 "/>
<path stroke="rgb(254, 254, 254)" fill="none" d="M216.1 508 L259.9 508 M205.7 516 L269 516 M198.6 524 L271.6 524 M193.5 532 L222.7 532 M255.6 532 L265.2 532 M189.9 540 L215.1 540 M187.6 548 L210.7 548 M186.3 556 L208.6 556 M186 564 L208.1 564 M186.8 572 L209.4 572 M188.6 580 L212.6 580 M191.6 588 L218.3 588 M259.1 588 L262 588 M195.9 596 L229.1 596 M249.5 596 L268.4 596 M201.9 604 L272 604 M210.4 612 L265.1 612 M224.2 620 L251.8 620 "/>
<path stroke="rgb(254, 254, 254)" fill="none" d="M282 564 L362 564 M282 572 L362 572 M282 580 L362 580 M336.2 588 L362 588 M329.2 596 L359.9 596 M322.3 604 L353 604 M315.3 612 L346 612 M308.4 620 L339.1 620 M301.5 628 L332.1 628 M294.5 636 L325.2 636 M287.6 644 L318.2 644 M282 652 L311.3 652 M282 660 L304.4 660 M282 668 L362 668 M282 676 L362 676 "/>
<path stroke-width="1.8" stroke="rgb(0, 0, 0)" fill="none" d="M480.7 747.7 L474 754.4 L460.7 754.4 L454 747.7 L454 721.1 L460.7 714.4 L474 714.4 L480.7 721.1 "/>
<path stroke-width="1.8" stroke="rgb(0, 0, 0)" fill="none" d="M507.3 754.4 L500.7 754.4 L494 747.7 L494 734.4 L500.7 727.7 L507.3 727.7 L514 734.4 L514 747.7 L507.3 754.4 M514 747.7 L520.7 754.4 "/>
<path stroke-width="1.8" stroke="rgb(0, 0, 0)" fill="none" d="M560.7 741.1 L547.3 754.4 L540.7 754.4 L534 747.7 L534 734.4 L540.7 727.7 L547.3 727.7 L560.7 741.1 M560.7 714.4 L560.7 754.4 "/>
<path stroke-width="1.8" stroke="rgb(0, 0, 0)" fill="none" d="M574 714.4 L600.7 714.4 L574 754.4 L600.7 754.4 "/>
<path stroke-width="1.8" stroke="rgb(0, 0, 0)" fill="none" d="M614 754.4 L614 727.7 M614 721.1 L614 714.4 "/>
<path stroke-width="1.8" stroke="rgb(0, 0, 0)" fill="none" d="M627.3 754.4 L627.3 727.7 M627.3 741.1 L640.7 727.7 L647.3 727.7 L654 734.4 L654 754.4 "/>
<path stroke-width="1.8" stroke="rgb(0, 0, 0)" fill="none" d="M667.3 754.4 L667.3 714.4 M667.3 741.1 L680.7 727.7 L687.3 727.7 L694 734.4 L694 754.4 "/>
<path stroke-width="1.8" stroke="rgb(0, 0, 0)" fill="none" d="M727.3 754.4 L714 754.4 L707.3 747.7 L707.3 734.4 L714 727.7 L727.3 727.7 L734 734.4 L734 747.7 L727.3 754.4 "/>
<path stroke="rgb(254, 254, 254)" fill="none" d="M602 561.6 L682 561.6 L682 593.6 L624 660.4 L682 660.4 L682 682.4 L602 682.4 L602 650.4 L660 583.6 L602 583.6 L602 561.6 "/>
<path stroke="rgb(254, 254, 254)" fill="none" d="M593.2 522 L592.7 521.1 L592.2 520.3 L591.6 519.5 L591.1 518.6 L590.5 517.8 L589.9 517.1 L589.2 516.3 L588.6 515.5 L587.9 514.8 L587.3 514.1 L586.6 513.3 L585.8 512.6 L585.1 512 L584.4 511.3 L583.6 510.7 L582.8 510.1 L582 509.5 L581.2 508.9 L580.4 508.3 L579.5 507.8 L578.7 507.3 L577.8 506.8 L577 506.3 L576.1 505.8 L575.2 505.4 L574.3 505 L573.4 504.6 L572.4 504.2 L571.5 503.9 L570.6 503.6 L569.6 503.3 L568.6 503 L567.7 502.8 L566.7 502.5 L565.7 502.3 L564.8 502.2 L563.8 502 L562.8 501.9 L561.8 501.8 L560.8 501.7 L559.8 501.6 L558.8 501.6 L557.8 501.6 L556.8 501.6 L555.8 501.6 L554.8 501.7 L553.9 501.8 L552.9 501.9 L551.9 502.1 L550.9 502.2 L549.9 502.4 L548.9 502.6 L548 502.8 L547 503.1 L546.1 503.4 L545.1 503.7 L544.2 504 L543.2 504.4 L542.3 504.7 L541.4 505.1 L540.5 505.6 L539.6 506 L538.2 506.7 L536.9 507.5 L535.6 508.3 L534.3 509.2 L533 510.1 L531.7 511 L530.5 511.9 L529.2 512.9 L528.1 513.9 L526.9 514.9 L525.7 516 L524.6 517.1 L523.5 518.2 L522.5 519.3 L521.4 520.5 L520.4 521.7 L519.5 522.9 L518.5 524.1 L517.6 525.4 L516.7 526.7 L515.9 528 L515.1 529.3 L514.3 530.7 L513.5 532 L512.8 533.4 L512.1 534.8 L511.5 536.2 L510.9 537.7 L510.3 539.1 L509.7 540.6 L509.2 542 L508.7 543.5 L508.3 545 L507.9 546.5 L507.6 548 L507.2 549.6 L506.9 551.1 L506.7 552.6 L506.5 554.2 L506.3 555.7 L506.2 557.3 L506.1 558.8 L506 560.4 L506 561.9 L506 563.5 L506.1 565.1 L506.2 566.6 L506.3 568.2 L506.5 569.7 L506.7 571.3 L506.9 572.8 L507.2 574.3 L507.5 575.8 L507.9 577.4 L508.3 578.9 L508.7 580.4 L509.2 581.9 L509.7 583.3 L510.2 584.8 L510.8 586.2 L511.4 587.7 L512.1 589.1 L512.8 590.5 L513.5 591.9 L514.2 593.2 L515 594.6 L515.8 595.9 L516.7 597.2 L517.5 598.5 L518.5 599.8 L519.4 601 L520.4 602.2 L521.4 603.4 L522.4 604.6 L523.5 605.7 L524.5 606.8 L525.7 607.9 L526.8 609 L528 610 L529.2 611 L530.4 612 L531.6 612.9 L532.9 613.9 L534.2 614.7 L535.5 615.6 L536.8 616.4 L538.1 617.2 L539.6 618 L540.5 618.4 L541.4 618.9 L542.3 619.3 L543.2 619.6 L544.2 620 L545.1 620.3 L546 620.6 L547 620.9 L548 621.2 L548.9 621.4 L549.9 621.6 L550.9 621.8 L551.9 621.9 L552.9 622.1 L553.8 622.2 L554.8 622.3 L555.8 622.4 L556.8 622.4 L557.8 622.4 L558.8 622.4 L559.8 622.4 L560.8 622.3 L561.8 622.2 L562.8 622.1 L563.8 622 L564.7 621.8 L565.7 621.7 L566.7 621.5 L567.7 621.2 L568.6 621 L569.6 620.7 L570.5 620.4 L571.5 620.1 L572.4 619.8 L573.3 619.4 L574.3 619 L575.2 618.6 L576.1 618.2 L577 617.7 L577.8 617.2 L578.7 616.7 L579.5 616.2 L580.4 615.7 L581.2 615.1 L582 614.5 L582.8 613.9 L583.6 613.3 L584.3 612.7 L585.1 612 L585.8 611.4 L586.5 610.7 L587.2 610 L587.9 609.2 L588.6 608.5 L589.2 607.7 L589.9 607 L590.5 606.2 L591 605.4 L591.6 604.5 L592.2 603.7 L592.7 602.9 L593.2 602 L580.4 586 L580.1 586.5 L579.8 587 L579.5 587.5 L579.1 588 L578.8 588.5 L578.4 589 L578 589.4 L577.6 589.9 L577.2 590.3 L576.8 590.8 L576.4 591.2 L576 591.6 L575.5 592 L575.1 592.4 L574.6 592.8 L574.2 593.2 L573.7 593.5 L573.2 593.9 L572.7 594.2 L572.2 594.5 L571.7 594.8 L571.2 595.1 L570.7 595.4 L570.1 595.7 L569.6 596 L569 596.2 L568.5 596.4 L567.9 596.7 L567.4 596.9 L566.8 597.1 L566.2 597.2 L565.7 597.4 L565.1 597.5 L564.5 597.7 L563.9 597.8 L563.3 597.9 L562.7 598 L562.2 598.1 L561.6 598.1 L561 598.2 L560.4 598.2 L559.8 598.2 L559.2 598.2 L558.6 598.2 L558 598.2 L557.4 598.2 L556.8 598.1 L556.2 598.1 L555.6 598 L555 597.9 L554.4 597.8 L553.8 597.6 L553.3 597.5 L552.7 597.3 L552.1 597.2 L551.5 597 L551 596.8 L550.4 596.6 L549.9 596.4 L549.3 596.1 L548.8 595.9 L548.2 595.6 L547.4 595.2 L546.6 594.7 L545.8 594.2 L545 593.7 L544.3 593.2 L543.5 592.6 L542.8 592 L542 591.5 L541.3 590.9 L540.6 590.2 L539.9 589.6 L539.3 589 L538.6 588.3 L538 587.6 L537.3 586.9 L536.7 586.2 L536.2 585.5 L535.6 584.7 L535 584 L534.5 583.2 L534 582.4 L533.5 581.6 L533 580.8 L532.6 580 L532.2 579.2 L531.8 578.3 L531.4 577.5 L531 576.6 L530.6 575.7 L530.3 574.9 L530 574 L529.7 573.1 L529.5 572.2 L529.2 571.3 L529 570.4 L528.8 569.5 L528.6 568.5 L528.5 567.6 L528.4 566.7 L528.3 565.8 L528.2 564.8 L528.1 563.9 L528.1 563 L528.1 562 L528.1 561.1 L528.1 560.2 L528.2 559.2 L528.3 558.3 L528.4 557.4 L528.5 556.4 L528.6 555.5 L528.8 554.6 L529 553.7 L529.2 552.8 L529.5 551.9 L529.7 551 L530 550.1 L530.3 549.2 L530.6 548.3 L531 547.5 L531.3 546.6 L531.7 545.8 L532.1 544.9 L532.6 544.1 L533 543.3 L533.5 542.5 L534 541.7 L534.5 540.9 L535 540.1 L535.6 539.3 L536.1 538.6 L536.7 537.9 L537.3 537.2 L537.9 536.5 L538.6 535.8 L539.2 535.1 L539.9 534.4 L540.6 533.8 L541.3 533.2 L542 532.6 L542.7 532 L543.4 531.4 L544.2 530.9 L545 530.4 L545.8 529.8 L546.6 529.4 L547.4 528.9 L548.2 528.4 L548.8 528.1 L549.3 527.9 L549.9 527.6 L550.4 527.4 L551 527.2 L551.5 527 L552.1 526.8 L552.7 526.7 L553.3 526.5 L553.8 526.4 L554.4 526.2 L555 526.1 L555.6 526 L556.2 525.9 L556.8 525.9 L557.4 525.8 L558 525.8 L558.6 525.8 L559.2 525.8 L559.8 525.8 L560.4 525.8 L561 525.8 L561.6 525.9 L562.1 525.9 L562.7 526 L563.3 526.1 L563.9 526.2 L564.5 526.3 L565.1 526.5 L565.7 526.6 L566.2 526.8 L566.8 526.9 L567.4 527.1 L567.9 527.3 L568.5 527.6 L569 527.8 L569.6 528 L570.1 528.3 L570.7 528.6 L571.2 528.9 L571.7 529.2 L572.2 529.5 L572.7 529.8 L573.2 530.1 L573.7 530.5 L574.2 530.8 L574.6 531.2 L575.1 531.6 L575.5 532 L576 532.4 L576.4 532.8 L576.8 533.2 L577.2 533.7 L577.6 534.1 L578 534.6 L578.4 535 L578.8 535.5 L579.1 536 L579.4 536.5 L579.8 537 L580.1 537.5 L580.4 538 L593.2 522 "/>
<path stroke="rgb(0, 114, 29)" fill="none" d="M490 666.4 L490 667.2 L490 668 L490.1 668.8 L490.2 669.6 L490.2 670.3 L490.3 671.1 L490.5 671.9 L490.6 672.7 L490.8 673.4 L491 674.2 L491.2 674.9 L491.4 675.7 L491.6 676.5 L491.9 677.2 L492.1 677.9 L492.4 678.7 L492.7 679.4 L493.1 680.1 L493.4 680.8 L493.8 681.5 L494.2 682.2 L494.6 682.9 L495 683.5 L495.4 684.2 L495.8 684.8 L496.3 685.5 L496.8 686.1 L497.3 686.7 L497.8 687.3 L498.3 687.9 L498.8 688.5 L499.4 689 L499.9 689.6 L500.5 690.1 L501.1 690.6 L501.7 691.2 L502.3 691.6 L502.9 692.1 L503.6 692.6 L504.2 693 L504.9 693.4 L505.5 693.9 L506.2 694.3 L506.9 694.6 L507.6 695 L508.3 695.3 L509 695.7 L509.8 696 L510.5 696.3 L511.2 696.5 L512 696.8 L512.7 697 L513.5 697.3 L514.2 697.5 L515 697.6 L515.8 697.8 L516.5 697.9 L517.3 698.1 L518.1 698.2 L518.9 698.3 L519.6 698.3 L520.4 698.4 L521.2 698.4 L522 698.4 L666 698.4 L666.8 698.4 L667.6 698.4 L668.4 698.3 L669.1 698.3 L669.9 698.2 L670.7 698.1 L671.5 697.9 L672.2 697.8 L673 697.6 L673.8 697.5 L674.5 697.3 L675.3 697 L676 696.8 L676.8 696.5 L677.5 696.3 L678.2 696 L679 695.7 L679.7 695.3 L680.4 695 L681.1 694.6 L681.8 694.3 L682.5 693.9 L683.1 693.4 L683.8 693 L684.4 692.6 L685.1 692.1 L685.7 691.6 L686.3 691.2 L686.9 690.6 L687.5 690.1 L688.1 689.6 L688.6 689 L689.2 688.5 L689.7 687.9 L690.2 687.3 L690.7 686.7 L691.2 686.1 L691.7 685.5 L692.2 684.8 L692.6 684.2 L693 683.5 L693.4 682.9 L693.8 682.2 L694.2 681.5 L694.6 680.8 L694.9 680.1 L695.3 679.4 L695.6 678.7 L695.9 677.9 L696.1 677.2 L696.4 676.5 L696.6 675.7 L696.8 674.9 L697 674.2 L697.2 673.4 L697.4 672.7 L697.5 671.9 L697.7 671.1 L697.8 670.3 L697.8 669.6 L697.9 668.8 L698 668 L698 667.2 L698 666.4 L698 517.6 L698 516.8 L698 516 L697.9 515.2 L697.8 514.4 L697.8 513.7 L697.7 512.9 L697.5 512.1 L697.4 511.3 L697.2 510.6 L697 509.8 L696.8 509.1 L696.6 508.3 L696.4 507.5 L696.1 506.8 L695.9 506.1 L695.6 505.3 L695.3 504.6 L694.9 503.9 L694.6 503.2 L694.2 502.5 L693.8 501.8 L693.4 501.1 L693 500.5 L692.6 499.8 L692.2 499.2 L691.7 498.5 L691.2 497.9 L690.7 497.3 L690.2 496.7 L689.7 496.1 L689.2 495.5 L688.6 495 L688.1 494.4 L687.5 493.9 L686.9 493.4 L686.3 492.8 L685.7 492.4 L685.1 491.9 L684.4 491.4 L683.8 491 L683.1 490.6 L682.5 490.1 L681.8 489.7 L681.1 489.4 L680.4 489 L679.7 488.7 L679 488.3 L678.2 488 L677.5 487.7 L676.8 487.5 L676 487.2 L675.3 487 L674.5 486.7 L673.8 486.5 L673 486.4 L672.2 486.2 L671.5 486.1 L670.7 485.9 L669.9 485.8 L669.1 485.7 L668.4 485.7 L667.6 485.6 L666.8 485.6 L666 485.6 L522 485.6 L521.2 485.6 L520.4 485.6 L519.6 485.7 L518.9 485.7 L518.1 485.8 L517.3 485.9 L516.5 486.1 L515.8 486.2 L515 486.4 L514.2 486.5 L513.5 486.7 L512.7 487 L512 487.2 L511.2 487.5 L510.5 487.7 L509.8 488 L509 488.3 L508.3 488.7 L507.6 489 L506.9 489.4 L506.2 489.7 L505.5 490.1 L504.9 490.6 L504.2 491 L503.6 491.4 L502.9 491.9 L502.3 492.4 L501.7 492.8 L501.1 493.4 L500.5 493.9 L499.9 494.4 L499.4 495 L498.8 495.5 L498.3 496.1 L497.8 496.7 L497.3 497.3 L496.8 497.9 L496.3 498.5 L495.8 499.2 L495.4 499.8 L495 500.5 L494.6 501.1 L494.2 501.8 L493.8 502.5 L493.4 503.2 L493.1 503.9 L492.7 504.6 L492.4 505.3 L492.1 506.1 L491.9 506.8 L491.6 507.5 L491.4 508.3 L491.2 509.1 L491 509.8 L490.8 510.6 L490.6 511.3 L490.5 512.1 L490.3 512.9 L490.2 513.7 L490.2 514.4 L490.1 515.2 L490 516 L490 516.8 L490 517.6 L490 666.4 "/>
<path stroke-width="1.8" stroke="rgb(0, 0, 0)" fill="none" d="M800.7 747.7 L794 754.4 L780.7 754.4 L774 747.7 L774 721.1 L780.7 714.4 L794 714.4 L800.7 721.1 "/>
<path stroke-width="1.8" stroke="rgb(0, 0, 0)" fill="none" d="M827.3 754.4 L820.7 754.4 L814 747.7 L814 734.4 L820.7 727.7 L827.3 727.7 L834 734.4 L834 747.7 L827.3 754.4 M834 747.7 L840.7 754.4 "/>
<path stroke-width="1.8" stroke="rgb(0, 0, 0)" fill="none" d="M880.7 741.1 L867.3 754.4 L860.7 754.4 L854 747.7 L854 734.4 L860.7 727.7 L867.3 727.7 L880.7 741.1 M880.7 714.4 L880.7 754.4 "/>
<path stroke-width="1.8" stroke="rgb(0, 0, 0)" fill="none" d="M894 714.4 L920.7 714.4 L894 754.4 L920.7 754.4 "/>
<path stroke-width="1.8" stroke="rgb(0, 0, 0)" fill="none" d="M934 754.4 L934 727.7 M934 721.1 L934 714.4 "/>
<path stroke-width="1.8" stroke="rgb(0, 0, 0)" fill="none" d="M947.3 754.4 L947.3 727.7 M947.3 741.1 L960.7 727.7 L967.3 727.7 L974 734.4 L974 754.4 "/>
<path stroke-width="1.8" stroke="rgb(0, 0, 0)" fill="none" d="M987.3 754.4 L987.3 714.4 M987.3 741.1 L1001 727.7 L1007 727.7 L1014 734.4 L1014 754.4 "/>
<path stroke-width="1.8" stroke="rgb(0, 0, 0)" fill="none" d="M1047 754.4 L1034 754.4 L1027 747.7 L1027 734.4 L1034 727.7 L1047 727.7 L1054 734.4 L1054 747.7 L1047 754.4 "/>
<path stroke="rgb(0, 0, 0)" fill="none" d="M922 561.6 L1002 561.6 L1002 593.6 L944 660.4 L1002 660.4 L1002 682.4 L922 682.4 L922 650.4 L980 583.6 L922 583.6 L922 561.6 "/>
<path stroke="rgb(0, 0, 0)" fill="none" d="M913.2 522 L912.7 521.1 L912.2 520.3 L911.6 519.5 L911.1 518.6 L910.5 517.8 L909.9 517.1 L909.2 516.3 L908.6 515.5 L907.9 514.8 L907.3 514.1 L906.6 513.3 L905.8 512.6 L905.1 512 L904.4 511.3 L903.6 510.7 L902.8 510.1 L902 509.5 L901.2 508.9 L900.4 508.3 L899.5 507.8 L898.7 507.3 L897.8 506.8 L897 506.3 L896.1 505.8 L895.2 505.4 L894.3 505 L893.4 504.6 L892.4 504.2 L891.5 503.9 L890.6 503.6 L889.6 503.3 L888.6 503 L887.7 502.8 L886.7 502.5 L885.7 502.3 L884.8 502.2 L883.8 502 L882.8 501.9 L881.8 501.8 L880.8 501.7 L879.8 501.6 L878.8 501.6 L877.8 501.6 L876.8 501.6 L875.8 501.6 L874.8 501.7 L873.9 501.8 L872.9 501.9 L871.9 502.1 L870.9 502.2 L869.9 502.4 L868.9 502.6 L868 502.8 L867 503.1 L866.1 503.4 L865.1 503.7 L864.2 504 L863.2 504.4 L862.3 504.7 L861.4 505.1 L860.5 505.6 L859.6 506 L858.2 506.7 L856.9 507.5 L855.6 508.3 L854.3 509.2 L853 510.1 L851.7 511 L850.5 511.9 L849.2 512.9 L848.1 513.9 L846.9 514.9 L845.7 516 L844.6 517.1 L843.5 518.2 L842.5 519.3 L841.4 520.5 L840.4 521.7 L839.5 522.9 L838.5 524.1 L837.6 525.4 L836.7 526.7 L835.9 528 L835.1 529.3 L834.3 530.7 L833.5 532 L832.8 533.4 L832.1 534.8 L831.5 536.2 L830.9 537.7 L830.3 539.1 L829.7 540.6 L829.2 542 L828.7 543.5 L828.3 545 L827.9 546.5 L827.6 548 L827.2 549.6 L826.9 551.1 L826.7 552.6 L826.5 554.2 L826.3 555.7 L826.2 557.3 L826.1 558.8 L826 560.4 L826 561.9 L826 563.5 L826.1 565.1 L826.2 566.6 L826.3 568.2 L826.5 569.7 L826.7 571.3 L826.9 572.8 L827.2 574.3 L827.5 575.8 L827.9 577.4 L828.3 578.9 L828.7 580.4 L829.2 581.9 L829.7 583.3 L830.2 584.8 L830.8 586.2 L831.4 587.7 L832.1 589.1 L832.8 590.5 L833.5 591.9 L834.2 593.2 L835 594.6 L835.8 595.9 L836.7 597.2 L837.5 598.5 L838.5 599.8 L839.4 601 L840.4 602.2 L841.4 603.4 L842.4 604.6 L843.5 605.7 L844.5 606.8 L845.7 607.9 L846.8 609 L848 610 L849.2 611 L850.4 612 L851.6 612.9 L852.9 613.9 L854.2 614.7 L855.5 615.6 L856.8 616.4 L858.1 617.2 L859.6 618 L860.5 618.4 L861.4 618.9 L862.3 619.3 L863.2 619.6 L864.2 620 L865.1 620.3 L866 620.6 L867 620.9 L868 621.2 L868.9 621.4 L869.9 621.6 L870.9 621.8 L871.9 621.9 L872.9 622.1 L873.8 622.2 L874.8 622.3 L875.8 622.4 L876.8 622.4 L877.8 622.4 L878.8 622.4 L879.8 622.4 L880.8 622.3 L881.8 622.2 L882.8 622.1 L883.8 622 L884.7 621.8 L885.7 621.7 L886.7 621.5 L887.7 621.2 L888.6 621 L889.6 620.7 L890.5 620.4 L891.5 620.1 L892.4 619.8 L893.3 619.4 L894.3 619 L895.2 618.6 L896.1 618.2 L897 617.7 L897.8 617.2 L898.7 616.7 L899.5 616.2 L900.4 615.7 L901.2 615.1 L902 614.5 L902.8 613.9 L903.6 613.3 L904.3 612.7 L905.1 612 L905.8 611.4 L906.5 610.7 L907.2 610 L907.9 609.2 L908.6 608.5 L909.2 607.7 L909.9 607 L910.5 606.2 L911 605.4 L911.6 604.5 L912.2 603.7 L912.7 602.9 L913.2 602 L900.4 586 L900.1 586.5 L899.8 587 L899.5 587.5 L899.1 588 L898.8 588.5 L898.4 589 L898 589.4 L897.6 589.9 L897.2 590.3 L896.8 590.8 L896.4 591.2 L896 591.6 L895.5 592 L895.1 592.4 L894.6 592.8 L894.2 593.2 L893.7 593.5 L893.2 593.9 L892.7 594.2 L892.2 594.5 L891.7 594.8 L891.2 595.1 L890.7 595.4 L890.1 595.7 L889.6 596 L889 596.2 L888.5 596.4 L887.9 596.7 L887.4 596.9 L886.8 597.1 L886.2 597.2 L885.7 597.4 L885.1 597.5 L884.5 597.7 L883.9 597.8 L883.3 597.9 L882.7 598 L882.2 598.1 L881.6 598.1 L881 598.2 L880.4 598.2 L879.8 598.2 L879.2 598.2 L878.6 598.2 L878 598.2 L877.4 598.2 L876.8 598.1 L876.2 598.1 L875.6 598 L875 597.9 L874.4 597.8 L873.8 597.6 L873.3 597.5 L872.7 597.3 L872.1 597.2 L871.5 597 L871 596.8 L870.4 596.6 L869.9 596.4 L869.3 596.1 L868.8 595.9 L868.2 595.6 L867.4 595.2 L866.6 594.7 L865.8 594.2 L865 593.7 L864.3 593.2 L863.5 592.6 L862.8 592 L862 591.5 L861.3 590.9 L860.6 590.2 L859.9 589.6 L859.3 589 L858.6 588.3 L858 587.6 L857.3 586.9 L856.7 586.2 L856.2 585.5 L855.6 584.7 L855 584 L854.5 583.2 L854 582.4 L853.5 581.6 L853 580.8 L852.6 580 L852.2 579.2 L851.8 578.3 L851.4 577.5 L851 576.6 L850.6 575.7 L850.3 574.9 L850 574 L849.7 573.1 L849.5 572.2 L849.2 571.3 L849 570.4 L848.8 569.5 L848.6 568.5 L848.5 567.6 L848.4 566.7 L848.3 565.8 L848.2 564.8 L848.1 563.9 L848.1 563 L848.1 562 L848.1 561.1 L848.1 560.2 L848.2 559.2 L848.3 558.3 L848.4 557.4 L848.5 556.4 L848.6 555.5 L848.8 554.6 L849 553.7 L849.2 552.8 L849.5 551.9 L849.7 551 L850 550.1 L850.3 549.2 L850.6 548.3 L851 547.5 L851.3 546.6 L851.7 545.8 L852.1 544.9 L852.6 544.1 L853 543.3 L853.5 542.5 L854 541.7 L854.5 540.9 L855 540.1 L855.6 539.3 L856.1 538.6 L856.7 537.9 L857.3 537.2 L857.9 536.5 L858.6 535.8 L859.2 535.1 L859.9 534.4 L860.6 533.8 L861.3 533.2 L862 532.6 L862.7 532 L863.4 531.4 L864.2 530.9 L865 530.4 L865.8 529.8 L866.6 529.4 L867.4 528.9 L868.2 528.4 L868.8 528.1 L869.3 527.9 L869.9 527.6 L870.4 527.4 L871 527.2 L871.5 527 L872.1 526.8 L872.7 526.7 L873.3 526.5 L873.8 526.4 L874.4 526.2 L875 526.1 L875.6 526 L876.2 525.9 L876.8 525.9 L877.4 525.8 L878 525.8 L878.6 525.8 L879.2 525.8 L879.8 525.8 L880.4 525.8 L881 525.8 L881.6 525.9 L882.1 525.9 L882.7 526 L883.3 526.1 L883.9 526.2 L884.5 526.3 L885.1 526.5 L885.7 526.6 L886.2 526.8 L886.8 526.9 L887.4 527.1 L887.9 527.3 L888.5 527.6 L889 527.8 L889.6 528 L890.1 528.3 L890.7 528.6 L891.2 528.9 L891.7 529.2 L892.2 529.5 L892.7 529.8 L893.2 530.1 L893.7 530.5 L894.2 530.8 L894.6 531.2 L895.1 531.6 L895.5 532 L896 532.4 L896.4 532.8 L896.8 533.2 L897.2 533.7 L897.6 534.1 L898 534.6 L898.4 535 L898.8 535.5 L899.1 536 L899.4 536.5 L899.8 537 L900.1 537.5 L900.4 538 L913.2 522 "/>
<path stroke="rgb(0, 0, 0)" fill="none" d="M810 666.4 L810 667.2 L810 668 L810.1 668.8 L810.2 669.6 L810.2 670.3 L810.3 671.1 L810.5 671.9 L810.6 672.7 L810.8 673.4 L811 674.2 L811.2 674.9 L811.4 675.7 L811.6 676.5 L811.9 677.2 L812.1 677.9 L812.4 678.7 L812.7 679.4 L813.1 680.1 L813.4 680.8 L813.8 681.5 L814.2 682.2 L814.6 682.9 L815 683.5 L815.4 684.2 L815.8 684.8 L816.3 685.5 L816.8 686.1 L817.3 686.7 L817.8 687.3 L818.3 687.9 L818.8 688.5 L819.4 689 L819.9 689.6 L820.5 690.1 L821.1 690.6 L821.7 691.2 L822.3 691.6 L822.9 692.1 L823.6 692.6 L824.2 693 L824.9 693.4 L825.5 693.9 L826.2 694.3 L826.9 694.6 L827.6 695 L828.3 695.3 L829 695.7 L829.8 696 L830.5 696.3 L831.2 696.5 L832 696.8 L832.7 697 L833.5 697.3 L834.2 697.5 L835 697.6 L835.8 697.8 L836.5 697.9 L837.3 698.1 L838.1 698.2 L838.9 698.3 L839.6 698.3 L840.4 698.4 L841.2 698.4 L842 698.4 L986 698.4 L986.8 698.4 L987.6 698.4 L988.4 698.3 L989.1 698.3 L989.9 698.2 L990.7 698.1 L991.5 697.9 L992.2 697.8 L993 697.6 L993.8 697.5 L994.5 697.3 L995.3 697 L996 696.8 L996.8 696.5 L997.5 696.3 L998.2 696 L999 695.7 L999.7 695.3 L1000 695 L1001 694.6 L1002 694.3 L1002 693.9 L1003 693.4 L1004 693 L1004 692.6 L1005 692.1 L1006 691.6 L1006 691.2 L1007 690.6 L1007 690.1 L1008 689.6 L1009 689 L1009 688.5 L1010 687.9 L1010 687.3 L1011 686.7 L1011 686.1 L1012 685.5 L1012 684.8 L1013 684.2 L1013 683.5 L1013 682.9 L1014 682.2 L1014 681.5 L1015 680.8 L1015 680.1 L1015 679.4 L1016 678.7 L1016 677.9 L1016 677.2 L1016 676.5 L1017 675.7 L1017 674.9 L1017 674.2 L1017 673.4 L1017 672.7 L1018 671.9 L1018 671.1 L1018 670.3 L1018 669.6 L1018 668.8 L1018 668 L1018 667.2 L1018 666.4 L1018 517.6 L1018 516.8 L1018 516 L1018 515.2 L1018 514.4 L1018 513.7 L1018 512.9 L1018 512.1 L1017 511.3 L1017 510.6 L1017 509.8 L1017 509.1 L1017 508.3 L1016 507.5 L1016 506.8 L1016 506.1 L1016 505.3 L1015 504.6 L1015 503.9 L1015 503.2 L1014 502.5 L1014 501.8 L1013 501.1 L1013 500.5 L1013 499.8 L1012 499.2 L1012 498.5 L1011 497.9 L1011 497.3 L1010 496.7 L1010 496.1 L1009 495.5 L1009 495 L1008 494.4 L1007 493.9 L1007 493.4 L1006 492.8 L1006 492.4 L1005 491.9 L1004 491.4 L1004 491 L1003 490.6 L1002 490.1 L1002 489.7 L1001 489.4 L1000 489 L999.7 488.7 L999 488.3 L998.2 488 L997.5 487.7 L996.8 487.5 L996 487.2 L995.3 487 L994.5 486.7 L993.8 486.5 L993 486.4 L992.2 486.2 L991.5 486.1 L990.7 485.9 L989.9 485.8 L989.1 485.7 L988.4 485.7 L987.6 485.6 L986.8 485.6 L986 485.6 L842 485.6 L841.2 485.6 L840.4 485.6 L839.6 485.7 L838.9 485.7 L838.1 485.8 L837.3 485.9 L836.5 486.1 L835.8 486.2 L835 486.4 L834.2 486.5 L833.5 486.7 L832.7 487 L832 487.2 L831.2 487.5 L830.5 487.7 L829.8 488 L829 488.3 L828.3 488.7 L827.6 489 L826.9 489.4 L826.2 489.7 L825.5 490.1 L824.9 490.6 L824.2 491 L823.6 491.4 L822.9 491.9 L822.3 492.4 L821.7 492.8 L821.1 493.4 L820.5 493.9 L819.9 494.4 L819.4 495 L818.8 495.5 L818.3 496.1 L817.8 496.7 L817.3 497.3 L816.8 497.9 L816.3 498.5 L815.8 499.2 L815.4 499.8 L815 500.5 L814.6 501.1 L814.2 501.8 L813.8 502.5 L813.4 503.2 L813.1 503.9 L812.7 504.6 L812.4 505.3 L812.1 506.1 L811.9 506.8 L811.6 507.5 L811.4 508.3 L811.2 509.1 L811 509.8 L810.8 510.6 L810.6 511.3 L810.5 512.1 L810.3 512.9 L810.2 513.7 L810.2 514.4 L810.1 515.2 L810 516 L810 516.8 L810 517.6 L810 666.4 "/>
<path fill="rgb(0, 114, 29)" stroke="none" d="M490 666.4 L490 667.2 L490 668 L490.1 668.8 L490.2 669.6 L490.2 670.3 L490.3 671.1 L490.5 671.9 L490.6 672.7 L490.8 673.4 L491 674.2 L491.2 674.9 L491.4 675.7 L491.6 676.5 L491.9 677.2 L492.1 677.9 L492.4 678.7 L492.7 679.4 L493.1 680.1 L493.4 680.8 L493.8 681.5 L494.2 682.2 L494.6 682.9 L495 683.5 L495.4 684.2 L495.8 684.8 L496.3 685.5 L496.8 686.1 L497.3 686.7 L497.8 687.3 L498.3 687.9 L498.8 688.5 L499.4 689 L499.9 689.6 L500.5 690.1 L501.1 690.6 L501.7 691.2 L502.3 691.6 L502.9 692.1 L503.6 692.6 L504.2 693 L504.9 693.4 L505.5 693.9 L506.2 694.3 L506.9 694.6 L507.6 695 L508.3 695.3 L509 695.7 L509.8 696 L510.5 696.3 L511.2 696.5 L512 696.8 L512.7 697 L513.5 697.3 L514.2 697.5 L515 697.6 L515.8 697.8 L516.5 697.9 L517.3 698.1 L518.1 698.2 L518.9 698.3 L519.6 698.3 L520.4 698.4 L521.2 698.4 L522 698.4 L666 698.4 L666.8 698.4 L667.6 698.4 L668.4 698.3 L669.1 698.3 L669.9 698.2 L670.7 698.1 L671.5 697.9 L672.2 697.8 L673 697.6 L673.8 697.5 L674.5 697.3 L675.3 697 L676 696.8 L676.8 696.5 L677.5 696.3 L678.2 696 L679 695.7 L679.7 695.3 L680.4 695 L681.1 694.6 L681.8 694.3 L682.5 693.9 L683.1 693.4 L683.8 693 L684.4 692.6 L685.1 692.1 L685.7 691.6 L686.3 691.2 L686.9 690.6 L687.5 690.1 L688.1 689.6 L688.6 689 L689.2 688.5 L689.7 687.9 L690.2 687.3 L690.7 686.7 L691.2 686.1 L691.7 685.5 L692.2 684.8 L692.6 684.2 L693 683.5 L693.4 682.9 L693.8 682.2 L694.2 681.5 L694.6 680.8 L694.9 680.1 L695.3 679.4 L695.6 678.7 L695.9 677.9 L696.1 677.2 L696.4 676.5 L696.6 675.7 L696.8 674.9 L697 674.2 L697.2 673.4 L697.4 672.7 L697.5 671.9 L697.7 671.1 L697.8 670.3 L697.8 669.6 L697.9 668.8 L698 668 L698 667.2 L698 666.4 L698 517.6 L698 516.8 L698 516 L697.9 515.2 L697.8 514.4 L697.8 513.7 L697.7 512.9 L697.5 512.1 L697.4 511.3 L697.2 510.6 L697 509.8 L696.8 509.1 L696.6 508.3 L696.4 507.5 L696.1 506.8 L695.9 506.1 L695.6 505.3 L695.3 504.6 L694.9 503.9 L694.6 503.2 L694.2 502.5 L693.8 501.8 L693.4 501.1 L693 500.5 L692.6 499.8 L692.2 499.2 L691.7 498.5 L691.2 497.9 L690.7 497.3 L690.2 496.7 L689.7 496.1 L689.2 495.5 L688.6 495 L688.1 494.4 L687.5 493.9 L686.9 493.4 L686.3 492.8 L685.7 492.4 L685.1 491.9 L684.4 491.4 L683.8 491 L683.1 490.6 L682.5 490.1 L681.8 489.7 L681.1 489.4 L680.4 489 L679.7 488.7 L679 488.3 L678.2 488 L677.5 487.7 L676.8 487.5 L676 487.2 L675.3 487 L674.5 486.7 L673.8 486.5 L673 486.4 L672.2 486.2 L671.5 486.1 L670.7 485.9 L669.9 485.8 L669.1 485.7 L668.4 485.7 L667.6 485.6 L666.8 485.6 L666 485.6 L522 485.6 L521.2 485.6 L520.4 485.6 L519.6 485.7 L518.9 485.7 L518.1 485.8 L517.3 485.9 L516.5 486.1 L515.8 486.2 L515 486.4 L514.2 486.5 L513.5 486.7 L512.7 487 L512 487.2 L511.2 487.5 L510.5 487.7 L509.8 488 L509 488.3 L508.3 488.7 L507.6 489 L506.9 489.4 L506.2 489.7 L505.5 490.1 L504.9 490.6 L504.2 491 L503.6 491.4 L502.9 491.9 L502.3 492.4 L501.7 492.8 L501.1 493.4 L500.5 493.9 L499.9 494.4 L499.4 495 L498.8 495.5 L498.3 496.1 L497.8 496.7 L497.3 497.3 L496.8 497.9 L496.3 498.5 L495.8 499.2 L495.4 499.8 L495 500.5 L494.6 501.1 L494.2 501.8 L493.8 502.5 L493.4 503.2 L493.1 503.9 L492.7 504.6 L492.4 505.3 L492.1 506.1 L491.9 506.8 L491.6 507.5 L491.4 508.3 L491.2 509.1 L491 509.8 L490.8 510.6 L490.6 511.3 L490.5 512.1 L490.3 512.9 L490.2 513.7 L490.2 514.4 L490.1 515.2 L490 516 L490 516.8 L490 517.6 L490 666.4 M593.2 522 L592.7 521.1 L592.2 520.3 L591.6 519.5 L591.1 518.6 L590.5 517.8 L589.9 517.1 L589.2 516.3 L588.6 515.5 L587.9 514.8 L587.3 514.1 L586.6 513.3 L585.8 512.6 L585.1 512 L584.4 511.3 L583.6 510.7 L582.8 510.1 L582 509.5 L581.2 508.9 L580.4 508.3 L579.5 507.8 L578.7 507.3 L577.8 506.8 L577 506.3 L576.1 505.8 L575.2 505.4 L574.3 505 L573.4 504.6 L572.4 504.2 L571.5 503.9 L570.6 503.6 L569.6 503.3 L568.6 503 L567.7 502.8 L566.7 502.5 L565.7 502.3 L564.8 502.2 L563.8 502 L562.8 501.9 L561.8 501.8 L560.8 501.7 L559.8 501.6 L558.8 501.6 L557.8 501.6 L556.8 501.6 L555.8 501.6 L554.8 501.7 L553.9 501.8 L552.9 501.9 L551.9 502.1 L550.9 502.2 L549.9 502.4 L548.9 502.6 L548 502.8 L547 503.1 L546.1 503.4 L545.1 503.7 L544.2 504 L543.2 504.4 L542.3 504.7 L541.4 505.1 L540.5 505.6 L539.6 506 L538.2 506.7 L536.9 507.5 L535.6 508.3 L534.3 509.2 L533 510.1 L531.7 511 L530.5 511.9 L529.2 512.9 L528.1 513.9 L526.9 514.9 L525.7 516 L524.6 517.1 L523.5 518.2 L522.5 519.3 L521.4 520.5 L520.4 521.7 L519.5 522.9 L518.5 524.1 L517.6 525.4 L516.7 526.7 L515.9 528 L515.1 529.3 L514.3 530.7 L513.5 532 L512.8 533.4 L512.1 534.8 L511.5 536.2 L510.9 537.7 L510.3 539.1 L509.7 540.6 L509.2 542 L508.7 543.5 L508.3 545 L507.9 546.5 L507.6 548 L507.2 549.6 L506.9 551.1 L506.7 552.6 L506.5 554.2 L506.3 555.7 L506.2 557.3 L506.1 558.8 L506 560.4 L506 561.9 L506 563.5 L506.1 565.1 L506.2 566.6 L506.3 568.2 L506.5 569.7 L506.7 571.3 L506.9 572.8 L507.2 574.3 L507.5 575.8 L507.9 577.4 L508.3 578.9 L508.7 580.4 L509.2 581.9 L509.7 583.3 L510.2 584.8 L510.8 586.2 L511.4 587.7 L512.1 589.1 L512.8 590.5 L513.5 591.9 L514.2 593.2 L515 594.6 L515.8 595.9 L516.7 597.2 L517.5 598.5 L518.5 599.8 L519.4 601 L520.4 602.2 L521.4 603.4 L522.4 604.6 L523.5 605.7 L524.5 606.8 L525.7 607.9 L526.8 609 L528 610 L529.2 611 L530.4 612 L531.6 612.9 L532.9 613.9 L534.2 614.7 L535.5 615.6 L536.8 616.4 L538.1 617.2 L539.6 618 L540.5 618.4 L541.4 618.9 L542.3 619.3 L543.2 619.6 L544.2 620 L545.1 620.3 L546 620.6 L547 620.9 L548 621.2 L548.9 621.4 L549.9 621.6 L550.9 621.8 L551.9 621.9 L552.9 622.1 L553.8 622.2 L554.8 622.3 L555.8 622.4 L556.8 622.4 L557.8 622.4 L558.8 622.4 L559.8 622.4 L560.8 622.3 L561.8 622.2 L562.8 622.1 L563.8 622 L564.7 621.8 L565.7 621.7 L566.7 621.5 L567.7 621.2 L568.6 621 L569.6 620.7 L570.5 620.4 L571.5 620.1 L572.4 619.8 L573.3 619.4 L574.3 619 L575.2 618.6 L576.1 618.2 L577 617.7 L577.8 617.2 L578.7 616.7 L579.5 616.2 L580.4 615.7 L581.2 615.1 L582 614.5 L582.8 613.9 L583.6 613.3 L584.3 612.7 L585.1 612 L585.8 611.4 L586.5 610.7 L587.2 610 L587.9 609.2 L588.6 608.5 L589.2 607.7 L589.9 607 L590.5 606.2 L591 605.4 L591.6 604.5 L592.2 603.7 L592.7 602.9 L593.2 602 L580.4 586 L580.1 586.5 L579.8 587 L579.5 587.5 L579.1 588 L578.8 588.5 L578.4 589 L578 589.4 L577.6 589.9 L577.2 590.3 L576.8 590.8 L576.4 591.2 L576 591.6 L575.5 592 L575.1 592.4 L574.6 592.8 L574.2 593.2 L573.7 593.5 L573.2 593.9 L572.7 594.2 L572.2 594.5 L571.7 594.8 L571.2 595.1 L570.7 595.4 L570.1 595.7 L569.6 596 L569 596.2 L568.5 596.4 L567.9 596.7 L567.4 596.9 L566.8 597.1 L566.2 597.2 L565.7 597.4 L565.1 597.5 L564.5 597.7 L563.9 597.8 L563.3 597.9 L562.7 598 L562.2 598.1 L561.6 598.1 L561 598.2 L560.4 598.2 L559.8 598.2 L559.2 598.2 L558.6 598.2 L558 598.2 L557.4 598.2 L556.8 598.1 L556.2 598.1 L555.6 598 L555 597.9 L554.4 597.8 L553.8 597.6 L553.3 597.5 L552.7 597.3 L552.1 597.2 L551.5 597 L551 596.8 L550.4 596.6 L549.9 596.4 L549.3 596.1 L548.8 595.9 L548.2 595.6 L547.4 595.2 L546.6 594.7 L545.8 594.2 L545 593.7 L544.3 593.2 L543.5 592.6 L542.8 592 L542 591.5 L541.3 590.9 L540.6 590.2 L539.9 589.6 L539.3 589 L538.6 588.3 L538 587.6 L537.3 586.9 L536.7 586.2 L536.2 585.5 L535.6 584.7 L535 584 L534.5 583.2 L534 582.4 L533.5 581.6 L533 580.8 L532.6 580 L532.2 579.2 L531.8 578.3 L531.4 577.5 L531 576.6 L530.6 575.7 L530.3 574.9 L530 574 L529.7 573.1 L529.5 572.2 L529.2 571.3 L529 570.4 L528.8 569.5 L528.6 568.5 L528.5 567.6 L528.4 566.7 L528.3 565.8 L528.2 564.8 L528.1 563.9 L528.1 563 L528.1 562 L528.1 561.1 L528.1 560.2 L528.2 559.2 L528.3 558.3 L528.4 557.4 L528.5 556.4 L528.6 555.5 L528.8 554.6 L529 553.7 L529.2 552.8 L529.5 551.9 L529.7 551 L530 550.1 L530.3 549.2 L530.6 548.3 L531 547.5 L531.3 546.6 L531.7 545.8 L532.1 544.9 L532.6 544.1 L533 543.3 L533.5 542.5 L534 541.7 L534.5 540.9 L535 540.1 L535.6 539.3 L536.1 538.6 L536.7 537.9 L537.3 537.2 L537.9 536.5 L538.6 535.8 L539.2 535.1 L539.9 534.4 L540.6 533.8 L541.3 533.2 L542 532.6 L542.7 532 L543.4 531.4 L544.2 530.9 L545 530.4 L545.8 529.8 L546.6 529.4 L547.4 528.9 L548.2 528.4 L548.8 528.1 L549.3 527.9 L549.9 527.6 L550.4 527.4 L551 527.2 L551.5 527 L552.1 526.8 L552.7 526.7 L553.3 526.5 L553.8 526.4 L554.4 526.2 L555 526.1 L555.6 526 L556.2 525.9 L556.8 525.9 L557.4 525.8 L558 525.8 L558.6 525.8 L559.2 525.8 L559.8 525.8 L560.4 525.8 L561 525.8 L561.6 525.9 L562.1 525.9 L562.7 526 L563.3 526.1 L563.9 526.2 L564.5 526.3 L565.1 526.5 L565.7 526.6 L566.2 526.8 L566.8 526.9 L567.4 527.1 L567.9 527.3 L568.5 527.6 L569 527.8 L569.6 528 L570.1 528.3 L570.7 528.6 L571.2 528.9 L571.7 529.2 L572.2 529.5 L572.7 529.8 L573.2 530.1 L573.7 530.5 L574.2 530.8 L574.6 531.2 L575.1 531.6 L575.5 532 L576 532.4 L576.4 532.8 L576.8 533.2 L577.2 533.7 L577.6 534.1 L578 534.6 L578.4 535 L578.8 535.5 L579.1 536 L579.4 536.5 L579.8 537 L580.1 537.5 L580.4 538 L593.2 522 M602 561.6 L682 561.6 L682 593.6 L624 660.4 L682 660.4 L682 682.4 L602 682.4 L602 650.4 L660 583.6 L602 583.6 L602 561.6 "/>
<path fill="rgb(254, 254, 254)" stroke="none" d="M593.2 522 L592.7 521.1 L592.2 520.3 L591.6 519.5 L591.1 518.6 L590.5 517.8 L589.9 517.1 L589.2 516.3 L588.6 515.5 L587.9 514.8 L587.3 514.1 L586.6 513.3 L585.8 512.6 L585.1 512 L584.4 511.3 L583.6 510.7 L582.8 510.1 L582 509.5 L581.2 508.9 L580.4 508.3 L579.5 507.8 L578.7 507.3 L577.8 506.8 L577 506.3 L576.1 505.8 L575.2 505.4 L574.3 505 L573.4 504.6 L572.4 504.2 L571.5 503.9 L570.6 503.6 L569.6 503.3 L568.6 503 L567.7 502.8 L566.7 502.5 L565.7 502.3 L564.8 502.2 L563.8 502 L562.8 501.9 L561.8 501.8 L560.8 501.7 L559.8 501.6 L558.8 501.6 L557.8 501.6 L556.8 501.6 L555.8 501.6 L554.8 501.7 L553.9 501.8 L552.9 501.9 L551.9 502.1 L550.9 502.2 L549.9 502.4 L548.9 502.6 L548 502.8 L547 503.1 L546.1 503.4 L545.1 503.7 L544.2 504 L543.2 504.4 L542.3 504.7 L541.4 505.1 L540.5 505.6 L539.6 506 L538.2 506.7 L536.9 507.5 L535.6 508.3 L534.3 509.2 L533 510.1 L531.7 511 L530.5 511.9 L529.2 512.9 L528.1 513.9 L526.9 514.9 L525.7 516 L524.6 517.1 L523.5 518.2 L522.5 519.3 L521.4 520.5 L520.4 521.7 L519.5 522.9 L518.5 524.1 L517.6 525.4 L516.7 526.7 L515.9 528 L515.1 529.3 L514.3 530.7 L513.5 532 L512.8 533.4 L512.1 534.8 L511.5 536.2 L510.9 537.7 L510.3 539.1 L509.7 540.6 L509.2 542 L508.7 543.5 L508.3 545 L507.9 546.5 L507.6 548 L507.2 549.6 L506.9 551.1 L506.7 552.6 L506.5 554.2 L506.3 555.7 L506.2 557.3 L506.1 558.8 L506 560.4 L506 561.9 L506 563.5 L506.1 565.1 L506.2 566.6 L506.3 568.2 L506.5 569.7 L506.7 571.3 L506.9 572.8 L507.2 574.3 L507.5 575.8 L507.9 577.4 L508.3 578.9 L508.7 580.4 L509.2 581.9 L509.7 583.3 L510.2 584.8 L510.8 586.2 L511.4 587.7 L512.1 589.1 L512.8 590.5 L513.5 591.9 L514.2 593.2 L515 594.6 L515.8 595.9 L516.7 597.2 L517.5 598.5 L518.5 599.8 L519.4 601 L520.4 602.2 L521.4 603.4 L522.4 604.6 L523.5 605.7 L524.5 606.8 L525.7 607.9 L526.8 609 L528 610 L529.2 611 L530.4 612 L531.6 612.9 L532.9 613.9 L534.2 614.7 L535.5 615.6 L536.8 616.4 L538.1 617.2 L539.6 618 L540.5 618.4 L541.4 618.9 L542.3 619.3 L543.2 619.6 L544.2 620 L545.1 620.3 L546 620.6 L547 620.9 L548 621.2 L548.9 621.4 L549.9 621.6 L550.9 621.8 L551.9 621.9 L552.9 622.1 L553.8 622.2 L554.8 622.3 L555.8 622.4 L556.8 622.4 L557.8 622.4 L558.8 622.4 L559.8 622.4 L560.8 622.3 L561.8 622.2 L562.8 622.1 L563.8 622 L564.7 621.8 L565.7 621.7 L566.7 621.5 L567.7 621.2 L568.6 621 L569.6 620.7 L570.5 620.4 L571.5 620.1 L572.4 619.8 L573.3 619.4 L574.3 619 L575.2 618.6 L576.1 618.2 L577 617.7 L577.8 617.2 L578.7 616.7 L579.5 616.2 L580.4 615.7 L581.2 615.1 L582 614.5 L582.8 613.9 L583.6 613.3 L584.3 612.7 L585.1 612 L585.8 611.4 L586.5 610.7 L587.2 610 L587.9 609.2 L588.6 608.5 L589.2 607.7 L589.9 607 L590.5 606.2 L591 605.4 L591.6 604.5 L592.2 603.7 L592.7 602.9 L593.2 602 L580.4 586 L580.1 586.5 L579.8 587 L579.5 587.5 L579.1 588 L578.8 588.5 L578.4 589 L578 589.4 L577.6 589.9 L577.2 590.3 L576.8 590.8 L576.4 591.2 L576 591.6 L575.5 592 L575.1 592.4 L574.6 592.8 L574.2 593.2 L573.7 593.5 L573.2 593.9 L572.7 594.2 L572.2 594.5 L571.7 594.8 L571.2 595.1 L570.7 595.4 L570.1 595.7 L569.6 596 L569 596.2 L568.5 596.4 L567.9 596.7 L567.4 596.9 L566.8 597.1 L566.2 597.2 L565.7 597.4 L565.1 597.5 L564.5 597.7 L563.9 597.8 L563.3 597.9 L562.7 598 L562.2 598.1 L561.6 598.1 L561 598.2 L560.4 598.2 L559.8 598.2 L559.2 598.2 L558.6 598.2 L558 598.2 L557.4 598.2 L556.8 598.1 L556.2 598.1 L555.6 598 L555 597.9 L554.4 597.8 L553.8 597.6 L553.3 597.5 L552.7 597.3 L552.1 597.2 L551.5 597 L551 596.8 L550.4 596.6 L549.9 596.4 L549.3 596.1 L548.8 595.9 L548.2 595.6 L547.4 595.2 L546.6 594.7 L545.8 594.2 L545 593.7 L544.3 593.2 L543.5 592.6 L542.8 592 L542 591.5 L541.3 590.9 L540.6 590.2 L539.9 589.6 L539.3 589 L538.6 588.3 L538 587.6 L537.3 586.9 L536.7 586.2 L536.2 585.5 L535.6 584.7 L535 584 L534.5 583.2 L534 582.4 L533.5 581.6 L533 580.8 L532.6 580 L532.2 579.2 L531.8 578.3 L531.4 577.5 L531 576.6 L530.6 575.7 L530.3 574.9 L530 574 L529.7 573.1 L529.5 572.2 L529.2 571.3 L529 570.4 L528.8 569.5 L528.6 568.5 L528.5 567.6 L528.4 566.7 L528.3 565.8 L528.2 564.8 L528.1 563.9 L528.1 563 L528.1 562 L528.1 561.1 L528.1 560.2 L528.2 559.2 L528.3 558.3 L528.4 557.4 L528.5 556.4 L528.6 555.5 L528.8 554.6 L529 553.7 L529.2 552.8 L529.5 551.9 L529.7 551 L530 550.1 L530.3 549.2 L530.6 548.3 L531 547.5 L531.3 546.6 L531.7 545.8 L532.1 544.9 L532.6 544.1 L533 543.3 L533.5 542.5 L534 541.7 L534.5 540.9 L535 540.1 L535.6 539.3 L536.1 538.6 L536.7 537.9 L537.3 537.2 L537.9 536.5 L538.6 535.8 L539.2 535.1 L539.9 534.4 L540.6 533.8 L541.3 533.2 L542 532.6 L542.7 532 L543.4 531.4 L544.2 530.9 L545 530.4 L545.8 529.8 L546.6 529.4 L547.4 528.9 L548.2 528.4 L548.8 528.1 L549.3 527.9 L549.9 527.6 L550.4 527.4 L551 527.2 L551.5 527 L552.1 526.8 L552.7 526.7 L553.3 526.5 L553.8 526.4 L554.4 526.2 L555 526.1 L555.6 526 L556.2 525.9 L556.8 525.9 L557.4 525.8 L558 525.8 L558.6 525.8 L559.2 525.8 L559.8 525.8 L560.4 525.8 L561 525.8 L561.6 525.9 L562.1 525.9 L562.7 526 L563.3 526.1 L563.9 526.2 L564.5 526.3 L565.1 526.5 L565.7 526.6 L566.2 526.8 L566.8 526.9 L567.4 527.1 L567.9 527.3 L568.5 527.6 L569 527.8 L569.6 528 L570.1 528.3 L570.7 528.6 L571.2 528.9 L571.7 529.2 L572.2 529.5 L572.7 529.8 L573.2 530.1 L573.7 530.5 L574.2 530.8 L574.6 531.2 L575.1 531.6 L575.5 532 L576 532.4 L576.4 532.8 L576.8 533.2 L577.2 533.7 L577.6 534.1 L578 534.6 L578.4 535 L578.8 535.5 L579.1 536 L579.4 536.5 L579.8 537 L580.1 537.5 L580.4 538 L593.2 522 "/>
<path fill="rgb(254, 254, 254)" stroke="none" d="M602 561.6 L682 561.6 L682 593.6 L624 660.4 L682 660.4 L682 682.4 L602 682.4 L602 650.4 L660 583.6 L602 583.6 L602 561.6 "/>
<path stroke-width="1.8" stroke="rgb(0, 0, 0)" fill="none" d="M160.7 347.7 L154 354.4 L140.7 354.4 L134 347.7 L134 321.1 L140.7 314.4 L154 314.4 L160.7 321.1 "/>
<path stroke-width="1.8" stroke="rgb(0, 0, 0)" fill="none" d="M187.3 354.4 L180.7 354.4 L174 347.7 L174 334.4 L180.7 327.7 L187.3 327.7 L194 334.4 L194 347.7 L187.3 354.4 M194 347.7 L200.7 354.4 "/>
<path stroke-width="1.8" stroke="rgb(0, 0, 0)" fill="none" d="M240.7 341.1 L227.3 354.4 L220.7 354.4 L214 347.7 L214 334.4 L220.7 327.7 L227.3 327.7 L240.7 341.1 M240.7 314.4 L240.7 354.4 "/>
<path stroke-width="1.8" stroke="rgb(0, 0, 0)" fill="none" d="M254 314.4 L280.7 314.4 L254 354.4 L280.7 354.4 "/>
<path stroke-width="1.8" stroke="rgb(0, 0, 0)" fill="none" d="M294 354.4 L294 327.7 M294 321.1 L294 314.4 "/>
<path stroke-width="1.8" stroke="rgb(0, 0, 0)" fill="none" d="M307.3 354.4 L307.3 327.7 M307.3 341.1 L320.7 327.7 L327.3 327.7 L334 334.4 L334 354.4 "/>
<path stroke-width="1.8" stroke="rgb(0, 0, 0)" fill="none" d="M347.3 354.4 L347.3 314.4 M347.3 341.1 L360.7 327.7 L367.3 327.7 L374 334.4 L374 354.4 "/>
<path stroke-width="1.8" stroke="rgb(0, 0, 0)" fill="none" d="M407.3 354.4 L394 354.4 L387.3 347.7 L387.3 334.4 L394 327.7 L407.3 327.7 L414 334.4 L414 347.7 L407.3 354.4 "/>
<path stroke="rgb(254, 254, 254)" fill="none" d="M282 161.6 L362 161.6 L362 193.6 L304 260.4 L362 260.4 L362 282.4 L282 282.4 L282 250.4 L340 183.6 L282 183.6 L282 161.6 "/>
<path stroke="rgb(254, 254, 254)" fill="none" d="M273.2 122 L272.7 121.1 L272.2 120.3 L271.6 119.5 L271.1 118.6 L270.5 117.8 L269.9 117.1 L269.2 116.3 L268.6 115.5 L267.9 114.8 L267.3 114.1 L266.6 113.3 L265.8 112.6 L265.1 112 L264.4 111.3 L263.6 110.7 L262.8 110.1 L262 109.5 L261.2 108.9 L260.4 108.3 L259.5 107.8 L258.7 107.3 L257.8 106.8 L257 106.3 L256.1 105.8 L255.2 105.4 L254.3 105 L253.4 104.6 L252.4 104.2 L251.5 103.9 L250.6 103.6 L249.6 103.3 L248.6 103 L247.7 102.8 L246.7 102.5 L245.7 102.3 L244.8 102.2 L243.8 102 L242.8 101.9 L241.8 101.8 L240.8 101.7 L239.8 101.6 L238.8 101.6 L237.8 101.6 L236.8 101.6 L235.8 101.6 L234.8 101.7 L233.9 101.8 L232.9 101.9 L231.9 102.1 L230.9 102.2 L229.9 102.4 L228.9 102.6 L228 102.8 L227 103.1 L226.1 103.4 L225.1 103.7 L224.2 104 L223.2 104.4 L222.3 104.7 L221.4 105.1 L220.5 105.6 L219.6 106 L218.2 106.7 L216.9 107.5 L215.6 108.3 L214.3 109.2 L213 110.1 L211.7 111 L210.5 111.9 L209.2 112.9 L208.1 113.9 L206.9 114.9 L205.7 116 L204.6 117.1 L203.5 118.2 L202.5 119.3 L201.4 120.5 L200.4 121.7 L199.5 122.9 L198.5 124.1 L197.6 125.4 L196.7 126.7 L195.9 128 L195.1 129.3 L194.3 130.7 L193.5 132 L192.8 133.4 L192.1 134.8 L191.5 136.2 L190.9 137.7 L190.3 139.1 L189.7 140.6 L189.2 142 L188.7 143.5 L188.3 145 L187.9 146.5 L187.6 148 L187.2 149.6 L186.9 151.1 L186.7 152.6 L186.5 154.2 L186.3 155.7 L186.2 157.3 L186.1 158.8 L186 160.4 L186 161.9 L186 163.5 L186.1 165.1 L186.2 166.6 L186.3 168.2 L186.5 169.7 L186.7 171.3 L186.9 172.8 L187.2 174.3 L187.5 175.8 L187.9 177.4 L188.3 178.9 L188.7 180.4 L189.2 181.9 L189.7 183.3 L190.2 184.8 L190.8 186.2 L191.4 187.7 L192.1 189.1 L192.8 190.5 L193.5 191.9 L194.2 193.2 L195 194.6 L195.8 195.9 L196.7 197.2 L197.5 198.5 L198.5 199.8 L199.4 201 L200.4 202.2 L201.4 203.4 L202.4 204.6 L203.5 205.7 L204.5 206.8 L205.7 207.9 L206.8 209 L208 210 L209.2 211 L210.4 212 L211.6 212.9 L212.9 213.9 L214.2 214.7 L215.5 215.6 L216.8 216.4 L218.1 217.2 L219.6 218 L220.5 218.4 L221.4 218.9 L222.3 219.3 L223.2 219.6 L224.2 220 L225.1 220.3 L226 220.6 L227 220.9 L228 221.2 L228.9 221.4 L229.9 221.6 L230.9 221.8 L231.9 221.9 L232.9 222.1 L233.8 222.2 L234.8 222.3 L235.8 222.4 L236.8 222.4 L237.8 222.4 L238.8 222.4 L239.8 222.4 L240.8 222.3 L241.8 222.2 L242.8 222.1 L243.8 222 L244.7 221.8 L245.7 221.7 L246.7 221.5 L247.7 221.2 L248.6 221 L249.6 220.7 L250.5 220.4 L251.5 220.1 L252.4 219.8 L253.3 219.4 L254.3 219 L255.2 218.6 L256.1 218.2 L257 217.7 L257.8 217.2 L258.7 216.7 L259.5 216.2 L260.4 215.7 L261.2 215.1 L262 214.5 L262.8 213.9 L263.6 213.3 L264.3 212.7 L265.1 212 L265.8 211.4 L266.5 210.7 L267.2 210 L267.9 209.2 L268.6 208.5 L269.2 207.7 L269.9 207 L270.5 206.2 L271 205.4 L271.6 204.5 L272.2 203.7 L272.7 202.9 L273.2 202 L260.4 186 L260.1 186.5 L259.8 187 L259.5 187.5 L259.1 188 L258.8 188.5 L258.4 189 L258 189.4 L257.6 189.9 L257.2 190.3 L256.8 190.8 L256.4 191.2 L256 191.6 L255.5 192 L255.1 192.4 L254.6 192.8 L254.2 193.2 L253.7 193.5 L253.2 193.9 L252.7 194.2 L252.2 194.5 L251.7 194.8 L251.2 195.1 L250.7 195.4 L250.1 195.7 L249.6 196 L249 196.2 L248.5 196.4 L247.9 196.7 L247.4 196.9 L246.8 197.1 L246.2 197.2 L245.7 197.4 L245.1 197.5 L244.5 197.7 L243.9 197.8 L243.3 197.9 L242.7 198 L242.2 198.1 L241.6 198.1 L241 198.2 L240.4 198.2 L239.8 198.2 L239.2 198.2 L238.6 198.2 L238 198.2 L237.4 198.2 L236.8 198.1 L236.2 198.1 L235.6 198 L235 197.9 L234.4 197.8 L233.8 197.6 L233.3 197.5 L232.7 197.3 L232.1 197.2 L231.5 197 L231 196.8 L230.4 196.6 L229.9 196.4 L229.3 196.1 L228.8 195.9 L228.2 195.6 L227.4 195.2 L226.6 194.7 L225.8 194.2 L225 193.7 L224.3 193.2 L223.5 192.6 L222.8 192 L222 191.5 L221.3 190.9 L220.6 190.2 L219.9 189.6 L219.3 189 L218.6 188.3 L218 187.6 L217.3 186.9 L216.7 186.2 L216.2 185.5 L215.6 184.7 L215 184 L214.5 183.2 L214 182.4 L213.5 181.6 L213 180.8 L212.6 180 L212.2 179.2 L211.8 178.3 L211.4 177.5 L211 176.6 L210.6 175.7 L210.3 174.9 L210 174 L209.7 173.1 L209.5 172.2 L209.2 171.3 L209 170.4 L208.8 169.5 L208.6 168.5 L208.5 167.6 L208.4 166.7 L208.3 165.8 L208.2 164.8 L208.1 163.9 L208.1 163 L208.1 162 L208.1 161.1 L208.1 160.2 L208.2 159.2 L208.3 158.3 L208.4 157.4 L208.5 156.4 L208.6 155.5 L208.8 154.6 L209 153.7 L209.2 152.8 L209.5 151.9 L209.7 151 L210 150.1 L210.3 149.2 L210.6 148.3 L211 147.5 L211.3 146.6 L211.7 145.8 L212.1 144.9 L212.6 144.1 L213 143.3 L213.5 142.5 L214 141.7 L214.5 140.9 L215 140.1 L215.6 139.3 L216.1 138.6 L216.7 137.9 L217.3 137.2 L217.9 136.5 L218.6 135.8 L219.2 135.1 L219.9 134.4 L220.6 133.8 L221.3 133.2 L222 132.6 L222.7 132 L223.4 131.4 L224.2 130.9 L225 130.4 L225.8 129.8 L226.6 129.4 L227.4 128.9 L228.2 128.4 L228.8 128.1 L229.3 127.9 L229.9 127.6 L230.4 127.4 L231 127.2 L231.5 127 L232.1 126.8 L232.7 126.7 L233.3 126.5 L233.8 126.4 L234.4 126.2 L235 126.1 L235.6 126 L236.2 125.9 L236.8 125.9 L237.4 125.8 L238 125.8 L238.6 125.8 L239.2 125.8 L239.8 125.8 L240.4 125.8 L241 125.8 L241.6 125.9 L242.1 125.9 L242.7 126 L243.3 126.1 L243.9 126.2 L244.5 126.3 L245.1 126.5 L245.7 126.6 L246.2 126.8 L246.8 126.9 L247.4 127.1 L247.9 127.3 L248.5 127.6 L249 127.8 L249.6 128 L250.1 128.3 L250.7 128.6 L251.2 128.9 L251.7 129.2 L252.2 129.5 L252.7 129.8 L253.2 130.1 L253.7 130.5 L254.2 130.8 L254.6 131.2 L255.1 131.6 L255.5 132 L256 132.4 L256.4 132.8 L256.8 133.2 L257.2 133.7 L257.6 134.1 L258 134.6 L258.4 135 L258.8 135.5 L259.1 136 L259.4 136.5 L259.8 137 L260.1 137.5 L260.4 138 L273.2 122 "/>
<path stroke="rgb(0, 114, 29)" fill="none" d="M170 266.4 L170 267.2 L170 268 L170.1 268.8 L170.2 269.6 L170.2 270.3 L170.3 271.1 L170.5 271.9 L170.6 272.7 L170.8 273.4 L171 274.2 L171.2 274.9 L171.4 275.7 L171.6 276.5 L171.9 277.2 L172.1 277.9 L172.4 278.7 L172.7 279.4 L173.1 280.1 L173.4 280.8 L173.8 281.5 L174.2 282.2 L174.6 282.9 L175 283.5 L175.4 284.2 L175.8 284.8 L176.3 285.5 L176.8 286.1 L177.3 286.7 L177.8 287.3 L178.3 287.9 L178.8 288.5 L179.4 289 L179.9 289.6 L180.5 290.1 L181.1 290.6 L181.7 291.2 L182.3 291.6 L182.9 292.1 L183.6 292.6 L184.2 293 L184.9 293.4 L185.5 293.9 L186.2 294.3 L186.9 294.6 L187.6 295 L188.3 295.3 L189 295.7 L189.8 296 L190.5 296.3 L191.2 296.5 L192 296.8 L192.7 297 L193.5 297.3 L194.2 297.5 L195 297.6 L195.8 297.8 L196.5 297.9 L197.3 298.1 L198.1 298.2 L198.9 298.3 L199.6 298.3 L200.4 298.4 L201.2 298.4 L202 298.4 L346 298.4 L346.8 298.4 L347.6 298.4 L348.4 298.3 L349.1 298.3 L349.9 298.2 L350.7 298.1 L351.5 297.9 L352.2 297.8 L353 297.6 L353.8 297.5 L354.5 297.3 L355.3 297 L356 296.8 L356.8 296.5 L357.5 296.3 L358.2 296 L359 295.7 L359.7 295.3 L360.4 295 L361.1 294.6 L361.8 294.3 L362.5 293.9 L363.1 293.4 L363.8 293 L364.4 292.6 L365.1 292.1 L365.7 291.6 L366.3 291.2 L366.9 290.6 L367.5 290.1 L368.1 289.6 L368.6 289 L369.2 288.5 L369.7 287.9 L370.2 287.3 L370.7 286.7 L371.2 286.1 L371.7 285.5 L372.2 284.8 L372.6 284.2 L373 283.5 L373.4 282.9 L373.8 282.2 L374.2 281.5 L374.6 280.8 L374.9 280.1 L375.3 279.4 L375.6 278.7 L375.9 277.9 L376.1 277.2 L376.4 276.5 L376.6 275.7 L376.8 274.9 L377 274.2 L377.2 273.4 L377.4 272.7 L377.5 271.9 L377.7 271.1 L377.8 270.3 L377.8 269.6 L377.9 268.8 L378 268 L378 267.2 L378 266.4 L378 117.6 L378 116.8 L378 116 L377.9 115.2 L377.8 114.4 L377.8 113.7 L377.7 112.9 L377.5 112.1 L377.4 111.3 L377.2 110.6 L377 109.8 L376.8 109.1 L376.6 108.3 L376.4 107.5 L376.1 106.8 L375.9 106.1 L375.6 105.3 L375.3 104.6 L374.9 103.9 L374.6 103.2 L374.2 102.5 L373.8 101.8 L373.4 101.1 L373 100.5 L372.6 99.81 L372.2 99.16 L371.7 98.52 L371.2 97.9 L370.7 97.29 L370.2 96.68 L369.7 96.1 L369.2 95.52 L368.6 94.96 L368.1 94.41 L367.5 93.88 L366.9 93.35 L366.3 92.85 L365.7 92.36 L365.1 91.88 L364.4 91.42 L363.8 90.98 L363.1 90.55 L362.5 90.14 L361.8 89.74 L361.1 89.36 L360.4 89 L359.7 88.66 L359 88.33 L358.2 88.02 L357.5 87.73 L356.8 87.46 L356 87.2 L355.3 86.96 L354.5 86.74 L353.8 86.54 L353 86.36 L352.2 86.2 L351.5 86.06 L350.7 85.93 L349.9 85.83 L349.1 85.74 L348.4 85.67 L347.6 85.62 L346.8 85.6 L346 85.59 L202 85.59 L201.2 85.6 L200.4 85.62 L199.6 85.67 L198.9 85.74 L198.1 85.83 L197.3 85.93 L196.5 86.06 L195.8 86.2 L195 86.36 L194.2 86.54 L193.5 86.74 L192.7 86.96 L192 87.2 L191.2 87.46 L190.5 87.73 L189.8 88.02 L189 88.33 L188.3 88.66 L187.6 89 L186.9 89.36 L186.2 89.74 L185.5 90.14 L184.9 90.55 L184.2 90.98 L183.6 91.42 L182.9 91.88 L182.3 92.36 L181.7 92.85 L181.1 93.35 L180.5 93.88 L179.9 94.41 L179.4 94.96 L178.8 95.52 L178.3 96.1 L177.8 96.68 L177.3 97.28 L176.8 97.9 L176.3 98.52 L175.8 99.16 L175.4 99.81 L175 100.5 L174.6 101.1 L174.2 101.8 L173.8 102.5 L173.4 103.2 L173.1 103.9 L172.7 104.6 L172.4 105.3 L172.1 106.1 L171.9 106.8 L171.6 107.5 L171.4 108.3 L171.2 109.1 L171 109.8 L170.8 110.6 L170.6 111.3 L170.5 112.1 L170.3 112.9 L170.2 113.7 L170.2 114.4 L170.1 115.2 L170 116 L170 116.8 L170 117.6 L170 266.4 "/>
<path stroke="rgb(0, 114, 29)" fill="none" d="M187.8 295.1 L173.3 280.6 M202.5 298.4 L170 266 M213.8 298.4 L170 254.6 M225.1 298.4 L170 243.3 M236.4 298.4 L170 232 M247.7 298.4 L170 220.7 M259 298.4 L170 209.4 M270.3 298.4 L170 198.1 M281.6 298.4 L170 186.8 M293 298.4 L170 175.5 M304.3 298.4 L288.3 282.4 M282 276.1 L226.7 220.8 M190 184.1 L170 164.1 M315.6 298.4 L299.6 282.4 M282 264.8 L239.6 222.4 M186.4 169.2 L170 152.8 M326.9 298.4 L310.9 282.4 M282 253.5 L249.3 220.8 M186.2 157.7 L170 141.5 M338.2 298.4 L322.2 282.4 M285.8 246 L257.3 217.5 M238 198.2 L208.7 168.9 M187.6 147.8 L170 130.2 M349.4 298.2 L333.5 282.4 M311.5 260.4 L307.5 256.4 M291.1 240 L264.1 212.9 M247.8 196.7 L208.4 157.3 M190.3 139.1 L170 118.9 M358.4 295.9 L344.8 282.4 M322.8 260.4 L312.8 250.3 M296.3 233.9 L269.6 207.2 M255 192.5 L210.7 148.2 M193.9 131.4 L171.2 108.8 M365.5 291.8 L356.2 282.4 M334.2 260.4 L318 244.3 M301.6 227.8 L263 189.3 M260.2 186.4 L214.5 140.8 M198.3 124.5 L174.7 100.9 M371.2 286.1 L362 276.9 M345.5 260.4 L323.3 238.2 M306.8 221.8 L219.7 134.6 M203.4 118.3 L179.7 94.64 M375.4 279 L362 265.6 M356.8 260.4 L328.5 232.2 M312.1 215.7 L226 129.7 M209.3 112.9 L186.2 89.79 M377.8 270.1 L333.8 226.1 M317.4 209.7 L291.3 183.6 M282 174.3 L234 126.3 M215.9 108.2 L194.2 86.54 M378 259 L339 220 M322.6 203.6 L302.6 183.6 M282 163 L245.6 126.6 M223.3 104.3 L204.6 85.59 M378 247.7 L344.3 214 M327.9 197.6 L313.9 183.6 M291.9 161.6 L263.9 133.6 M232.3 102 L215.9 85.59 M378 236.4 L349.6 207.9 M333.1 191.5 L325.2 183.6 M303.2 161.6 L268.9 127.3 M243.6 102 L227.2 85.59 M378 225.1 L354.8 201.9 M338.4 185.4 L336.5 183.6 M314.5 161.6 L269.3 116.4 M263.8 110.8 L238.5 85.59 M378 213.7 L360.1 195.8 M325.8 161.6 L249.8 85.59 M378 202.4 L362 186.4 M337.2 161.6 L261.2 85.59 M378 191.1 L362 175.1 M348.5 161.6 L272.5 85.59 M378 179.8 L362 163.8 M359.8 161.6 L283.8 85.59 M378 168.5 L295.1 85.59 M378 157.2 L306.4 85.59 M378 145.9 L317.7 85.59 M378 134.6 L329 85.59 M378 123.2 L340.3 85.59 M377.4 111.3 L352.3 86.21 "/>
<path stroke="rgb(254, 254, 254)" fill="none" d="M218.8 106.4 L257.2 106.4 M207.5 114.4 L267.6 114.4 M199.9 122.4 L272.9 122.4 M194.4 130.4 L224.9 130.4 M253.6 130.4 L266.5 130.4 M190.6 138.4 L216.3 138.4 M187.9 146.4 L211.4 146.4 M186.5 154.4 L208.8 154.4 M186 162.4 L208.1 162.4 M186.6 170.4 L209 170.4 M188.2 178.4 L211.8 178.4 M190.9 186.4 L216.9 186.4 M260.2 186.4 L260.7 186.4 M194.9 194.4 L226.2 194.4 M252.4 194.4 L267.1 194.4 M200.5 202.4 L273 202.4 M208.4 210.4 L266.8 210.4 M220.4 218.4 L255.6 218.4 "/>
<path stroke="rgb(254, 254, 254)" fill="none" d="M282 162.4 L362 162.4 M282 170.4 L362 170.4 M282 178.4 L362 178.4 M337.5 186.4 L362 186.4 M330.6 194.4 L361.3 194.4 M323.7 202.4 L354.3 202.4 M316.7 210.4 L347.4 210.4 M309.8 218.4 L340.5 218.4 M302.8 226.4 L333.5 226.4 M295.9 234.4 L326.6 234.4 M288.9 242.4 L319.6 242.4 M282 250.4 L312.7 250.4 M282 258.4 L305.7 258.4 M282 266.4 L362 266.4 M282 274.4 L362 274.4 "/>
<path stroke-width="1.8" stroke="rgb(0, 0, 0)" fill="none" d="M480.7 347.7 L474 354.4 L460.7 354.4 L454 347.7 L454 321.1 L460.7 314.4 L474 314.4 L480.7 321.1 "/>
<path stroke-width="1.8" stroke="rgb(0, 0, 0)" fill="none" d="M507.3 354.4 L500.7 354.4 L494 347.7 L494 334.4 L500.7 327.7 L507.3 327.7 L514 334.4 L514 347.7 L507.3 354.4 M514 347.7 L520.7 354.4 "/>
<path stroke-width="1.8" stroke="rgb(0, 0, 0)" fill="none" d="M560.7 341.1 L547.3 354.4 L540.7 354.4 L534 347.7 L534 334.4 L540.7 327.7 L547.3 327.7 L560.7 341.1 M560.7 314.4 L560.7 354.4 "/>
<path stroke-width="1.8" stroke="rgb(0, 0, 0)" fill="none" d="M574 314.4 L600.7 314.4 L574 354.4 L600.7 354.4 "/>
<path stroke-width="1.8" stroke="rgb(0, 0, 0)" fill="none" d="M614 354.4 L614 327.7 M614 321.1 L614 314.4 "/>
<path stroke-width="1.8" stroke="rgb(0, 0, 0)" fill="none" d="M627.3 354.4 L627.3 327.7 M627.3 341.1 L640.7 327.7 L647.3 327.7 L654 334.4 L654 354.4 "/>
<path stroke-width="1.8" stroke="rgb(0, 0, 0)" fill="none" d="M667.3 354.4 L667.3 314.4 M667.3 341.1 L680.7 327.7 L687.3 327.7 L694 334.4 L694 354.4 "/>
<path stroke-width="1.8" stroke="rgb(0, 0, 0)" fill="none" d="M727.3 354.4 L714 354.4 L707.3 347.7 L707.3 334.4 L714 327.7 L727.3 327.7 L734 334.4 L734 347.7 L727.3 354.4 "/>
<path stroke="rgb(254, 254, 254)" fill="none" d="M602 161.6 L682 161.6 L682 193.6 L624 260.4 L682 260.4 L682 282.4 L602 282.4 L602 250.4 L660 183.6 L602 183.6 L602 161.6 "/>
<path stroke="rgb(254, 254, 254)" fill="none" d="M593.2 122 L592.7 121.1 L592.2 120.3 L591.6 119.5 L591.1 118.6 L590.5 117.8 L589.9 117.1 L589.2 116.3 L588.6 115.5 L587.9 114.8 L587.3 114.1 L586.6 113.3 L585.8 112.6 L585.1 112 L584.4 111.3 L583.6 110.7 L582.8 110.1 L582 109.5 L581.2 108.9 L580.4 108.3 L579.5 107.8 L578.7 107.3 L577.8 106.8 L577 106.3 L576.1 105.8 L575.2 105.4 L574.3 105 L573.4 104.6 L572.4 104.2 L571.5 103.9 L570.6 103.6 L569.6 103.3 L568.6 103 L567.7 102.8 L566.7 102.5 L565.7 102.3 L564.8 102.2 L563.8 102 L562.8 101.9 L561.8 101.8 L560.8 101.7 L559.8 101.6 L558.8 101.6 L557.8 101.6 L556.8 101.6 L555.8 101.6 L554.8 101.7 L553.9 101.8 L552.9 101.9 L551.9 102.1 L550.9 102.2 L549.9 102.4 L548.9 102.6 L548 102.8 L547 103.1 L546.1 103.4 L545.1 103.7 L544.2 104 L543.2 104.4 L542.3 104.7 L541.4 105.1 L540.5 105.6 L539.6 106 L538.2 106.7 L536.9 107.5 L535.6 108.3 L534.3 109.2 L533 110.1 L531.7 111 L530.5 111.9 L529.2 112.9 L528.1 113.9 L526.9 114.9 L525.7 116 L524.6 117.1 L523.5 118.2 L522.5 119.3 L521.4 120.5 L520.4 121.7 L519.5 122.9 L518.5 124.1 L517.6 125.4 L516.7 126.7 L515.9 128 L515.1 129.3 L514.3 130.7 L513.5 132 L512.8 133.4 L512.1 134.8 L511.5 136.2 L510.9 137.7 L510.3 139.1 L509.7 140.6 L509.2 142 L508.7 143.5 L508.3 145 L507.9 146.5 L507.6 148 L507.2 149.6 L506.9 151.1 L506.7 152.6 L506.5 154.2 L506.3 155.7 L506.2 157.3 L506.1 158.8 L506 160.4 L506 161.9 L506 163.5 L506.1 165.1 L506.2 166.6 L506.3 168.2 L506.5 169.7 L506.7 171.3 L506.9 172.8 L507.2 174.3 L507.5 175.8 L507.9 177.4 L508.3 178.9 L508.7 180.4 L509.2 181.9 L509.7 183.3 L510.2 184.8 L510.8 186.2 L511.4 187.7 L512.1 189.1 L512.8 190.5 L513.5 191.9 L514.2 193.2 L515 194.6 L515.8 195.9 L516.7 197.2 L517.5 198.5 L518.5 199.8 L519.4 201 L520.4 202.2 L521.4 203.4 L522.4 204.6 L523.5 205.7 L524.5 206.8 L525.7 207.9 L526.8 209 L528 210 L529.2 211 L530.4 212 L531.6 212.9 L532.9 213.9 L534.2 214.7 L535.5 215.6 L536.8 216.4 L538.1 217.2 L539.6 218 L540.5 218.4 L541.4 218.9 L542.3 219.3 L543.2 219.6 L544.2 220 L545.1 220.3 L546 220.6 L547 220.9 L548 221.2 L548.9 221.4 L549.9 221.6 L550.9 221.8 L551.9 221.9 L552.9 222.1 L553.8 222.2 L554.8 222.3 L555.8 222.4 L556.8 222.4 L557.8 222.4 L558.8 222.4 L559.8 222.4 L560.8 222.3 L561.8 222.2 L562.8 222.1 L563.8 222 L564.7 221.8 L565.7 221.7 L566.7 221.5 L567.7 221.2 L568.6 221 L569.6 220.7 L570.5 220.4 L571.5 220.1 L572.4 219.8 L573.3 219.4 L574.3 219 L575.2 218.6 L576.1 218.2 L577 217.7 L577.8 217.2 L578.7 216.7 L579.5 216.2 L580.4 215.7 L581.2 215.1 L582 214.5 L582.8 213.9 L583.6 213.3 L584.3 212.7 L585.1 212 L585.8 211.4 L586.5 210.7 L587.2 210 L587.9 209.2 L588.6 208.5 L589.2 207.7 L589.9 207 L590.5 206.2 L591 205.4 L591.6 204.5 L592.2 203.7 L592.7 202.9 L593.2 202 L580.4 186 L580.1 186.5 L579.8 187 L579.5 187.5 L579.1 188 L578.8 188.5 L578.4 189 L578 189.4 L577.6 189.9 L577.2 190.3 L576.8 190.8 L576.4 191.2 L576 191.6 L575.5 192 L575.1 192.4 L574.6 192.8 L574.2 193.2 L573.7 193.5 L573.2 193.9 L572.7 194.2 L572.2 194.5 L571.7 194.8 L571.2 195.1 L570.7 195.4 L570.1 195.7 L569.6 196 L569 196.2 L568.5 196.4 L567.9 196.7 L567.4 196.9 L566.8 197.1 L566.2 197.2 L565.7 197.4 L565.1 197.5 L564.5 197.7 L563.9 197.8 L563.3 197.9 L562.7 198 L562.2 198.1 L561.6 198.1 L561 198.2 L560.4 198.2 L559.8 198.2 L559.2 198.2 L558.6 198.2 L558 198.2 L557.4 198.2 L556.8 198.1 L556.2 198.1 L555.6 198 L555 197.9 L554.4 197.8 L553.8 197.6 L553.3 197.5 L552.7 197.3 L552.1 197.2 L551.5 197 L551 196.8 L550.4 196.6 L549.9 196.4 L549.3 196.1 L548.8 195.9 L548.2 195.6 L547.4 195.2 L546.6 194.7 L545.8 194.2 L545 193.7 L544.3 193.2 L543.5 192.6 L542.8 192 L542 191.5 L541.3 190.9 L540.6 190.2 L539.9 189.6 L539.3 189 L538.6 188.3 L538 187.6 L537.3 186.9 L536.7 186.2 L536.2 185.5 L535.6 184.7 L535 184 L534.5 183.2 L534 182.4 L533.5 181.6 L533 180.8 L532.6 180 L532.2 179.2 L531.8 178.3 L531.4 177.5 L531 176.6 L530.6 175.7 L530.3 174.9 L530 174 L529.7 173.1 L529.5 172.2 L529.2 171.3 L529 170.4 L528.8 169.5 L528.6 168.5 L528.5 167.6 L528.4 166.7 L528.3 165.8 L528.2 164.8 L528.1 163.9 L528.1 163 L528.1 162 L528.1 161.1 L528.1 160.2 L528.2 159.2 L528.3 158.3 L528.4 157.4 L528.5 156.4 L528.6 155.5 L528.8 154.6 L529 153.7 L529.2 152.8 L529.5 151.9 L529.7 151 L530 150.1 L530.3 149.2 L530.6 148.3 L531 147.5 L531.3 146.6 L531.7 145.8 L532.1 144.9 L532.6 144.1 L533 143.3 L533.5 142.5 L534 141.7 L534.5 140.9 L535 140.1 L535.6 139.3 L536.1 138.6 L536.7 137.9 L537.3 137.2 L537.9 136.5 L538.6 135.8 L539.2 135.1 L539.9 134.4 L540.6 133.8 L541.3 133.2 L542 132.6 L542.7 132 L543.4 131.4 L544.2 130.9 L545 130.4 L545.8 129.8 L546.6 129.4 L547.4 128.9 L548.2 128.4 L548.8 128.1 L549.3 127.9 L549.9 127.6 L550.4 127.4 L551 127.2 L551.5 127 L552.1 126.8 L552.7 126.7 L553.3 126.5 L553.8 126.4 L554.4 126.2 L555 126.1 L555.6 126 L556.2 125.9 L556.8 125.9 L557.4 125.8 L558 125.8 L558.6 125.8 L559.2 125.8 L559.8 125.8 L560.4 125.8 L561 125.8 L561.6 125.9 L562.1 125.9 L562.7 126 L563.3 126.1 L563.9 126.2 L564.5 126.3 L565.1 126.5 L565.7 126.6 L566.2 126.8 L566.8 126.9 L567.4 127.1 L567.9 127.3 L568.5 127.6 L569 127.8 L569.6 128 L570.1 128.3 L570.7 128.6 L571.2 128.9 L571.7 129.2 L572.2 129.5 L572.7 129.8 L573.2 130.1 L573.7 130.5 L574.2 130.8 L574.6 131.2 L575.1 131.6 L575.5 132 L576 132.4 L576.4 132.8 L576.8 133.2 L577.2 133.7 L577.6 134.1 L578 134.6 L578.4 135 L578.8 135.5 L579.1 136 L579.4 136.5 L579.8 137 L580.1 137.5 L580.4 138 L593.2 122 "/>
<path stroke="rgb(0, 114, 29)" fill="none" d="M490 266.4 L490 267.2 L490 268 L490.1 268.8 L490.2 269.6 L490.2 270.3 L490.3 271.1 L490.5 271.9 L490.6 272.7 L490.8 273.4 L491 274.2 L491.2 274.9 L491.4 275.7 L491.6 276.5 L491.9 277.2 L492.1 277.9 L492.4 278.7 L492.7 279.4 L493.1 280.1 L493.4 280.8 L493.8 281.5 L494.2 282.2 L494.6 282.9 L495 283.5 L495.4 284.2 L495.8 284.8 L496.3 285.5 L496.8 286.1 L497.3 286.7 L497.8 287.3 L498.3 287.9 L498.8 288.5 L499.4 289 L499.9 289.6 L500.5 290.1 L501.1 290.6 L501.7 291.2 L502.3 291.6 L502.9 292.1 L503.6 292.6 L504.2 293 L504.9 293.4 L505.5 293.9 L506.2 294.3 L506.9 294.6 L507.6 295 L508.3 295.3 L509 295.7 L509.8 296 L510.5 296.3 L511.2 296.5 L512 296.8 L512.7 297 L513.5 297.3 L514.2 297.5 L515 297.6 L515.8 297.8 L516.5 297.9 L517.3 298.1 L518.1 298.2 L518.9 298.3 L519.6 298.3 L520.4 298.4 L521.2 298.4 L522 298.4 L666 298.4 L666.8 298.4 L667.6 298.4 L668.4 298.3 L669.1 298.3 L669.9 298.2 L670.7 298.1 L671.5 297.9 L672.2 297.8 L673 297.6 L673.8 297.5 L674.5 297.3 L675.3 297 L676 296.8 L676.8 296.5 L677.5 296.3 L678.2 296 L679 295.7 L679.7 295.3 L680.4 295 L681.1 294.6 L681.8 294.3 L682.5 293.9 L683.1 293.4 L683.8 293 L684.4 292.6 L685.1 292.1 L685.7 291.6 L686.3 291.2 L686.9 290.6 L687.5 290.1 L688.1 289.6 L688.6 289 L689.2 288.5 L689.7 287.9 L690.2 287.3 L690.7 286.7 L691.2 286.1 L691.7 285.5 L692.2 284.8 L692.6 284.2 L693 283.5 L693.4 282.9 L693.8 282.2 L694.2 281.5 L694.6 280.8 L694.9 280.1 L695.3 279.4 L695.6 278.7 L695.9 277.9 L696.1 277.2 L696.4 276.5 L696.6 275.7 L696.8 274.9 L697 274.2 L697.2 273.4 L697.4 272.7 L697.5 271.9 L697.7 271.1 L697.8 270.3 L697.8 269.6 L697.9 268.8 L698 268 L698 267.2 L698 266.4 L698 117.6 L698 116.8 L698 116 L697.9 115.2 L697.8 114.4 L697.8 113.7 L697.7 112.9 L697.5 112.1 L697.4 111.3 L697.2 110.6 L697 109.8 L696.8 109.1 L696.6 108.3 L696.4 107.5 L696.1 106.8 L695.9 106.1 L695.6 105.3 L695.3 104.6 L694.9 103.9 L694.6 103.2 L694.2 102.5 L693.8 101.8 L693.4 101.1 L693 100.5 L692.6 99.81 L692.2 99.16 L691.7 98.52 L691.2 97.9 L690.7 97.29 L690.2 96.68 L689.7 96.1 L689.2 95.52 L688.6 94.96 L688.1 94.41 L687.5 93.88 L686.9 93.35 L686.3 92.85 L685.7 92.36 L685.1 91.88 L684.4 91.42 L683.8 90.98 L683.1 90.55 L682.5 90.14 L681.8 89.74 L681.1 89.36 L680.4 89 L679.7 88.66 L679 88.33 L678.2 88.02 L677.5 87.73 L676.8 87.46 L676 87.2 L675.3 86.96 L674.5 86.74 L673.8 86.54 L673 86.36 L672.2 86.2 L671.5 86.06 L670.7 85.93 L669.9 85.83 L669.1 85.74 L668.4 85.67 L667.6 85.62 L666.8 85.6 L666 85.59 L522 85.59 L521.2 85.6 L520.4 85.62 L519.6 85.67 L518.9 85.74 L518.1 85.83 L517.3 85.93 L516.5 86.06 L515.8 86.2 L515 86.36 L514.2 86.54 L513.5 86.74 L512.7 86.96 L512 87.2 L511.2 87.46 L510.5 87.73 L509.8 88.02 L509 88.33 L508.3 88.66 L507.6 89 L506.9 89.36 L506.2 89.74 L505.5 90.14 L504.9 90.55 L504.2 90.98 L503.6 91.42 L502.9 91.88 L502.3 92.36 L501.7 92.85 L501.1 93.35 L500.5 93.88 L499.9 94.41 L499.4 94.96 L498.8 95.52 L498.3 96.1 L497.8 96.68 L497.3 97.28 L496.8 97.9 L496.3 98.52 L495.8 99.16 L495.4 99.81 L495 100.5 L494.6 101.1 L494.2 101.8 L493.8 102.5 L493.4 103.2 L493.1 103.9 L492.7 104.6 L492.4 105.3 L492.1 106.1 L491.9 106.8 L491.6 107.5 L491.4 108.3 L491.2 109.1 L491 109.8 L490.8 110.6 L490.6 111.3 L490.5 112.1 L490.3 112.9 L490.2 113.7 L490.2 114.4 L490.1 115.2 L490 116 L490 116.8 L490 117.6 L490 266.4 "/>
<path fill="rgb(0, 114, 29)" stroke="none" d="M490 266.4 L490 267.2 L490 268 L490.1 268.8 L490.2 269.6 L490.2 270.3 L490.3 271.1 L490.5 271.9 L490.6 272.7 L490.8 273.4 L491 274.2 L491.2 274.9 L491.4 275.7 L491.6 276.5 L491.9 277.2 L492.1 277.9 L492.4 278.7 L492.7 279.4 L493.1 280.1 L493.4 280.8 L493.8 281.5 L494.2 282.2 L494.6 282.9 L495 283.5 L495.4 284.2 L495.8 284.8 L496.3 285.5 L496.8 286.1 L497.3 286.7 L497.8 287.3 L498.3 287.9 L498.8 288.5 L499.4 289 L499.9 289.6 L500.5 290.1 L501.1 290.6 L501.7 291.2 L502.3 291.6 L502.9 292.1 L503.6 292.6 L504.2 293 L504.9 293.4 L505.5 293.9 L506.2 294.3 L506.9 294.6 L507.6 295 L508.3 295.3 L509 295.7 L509.8 296 L510.5 296.3 L511.2 296.5 L512 296.8 L512.7 297 L513.5 297.3 L514.2 297.5 L515 297.6 L515.8 297.8 L516.5 297.9 L517.3 298.1 L518.1 298.2 L518.9 298.3 L519.6 298.3 L520.4 298.4 L521.2 298.4 L522 298.4 L666 298.4 L666.8 298.4 L667.6 298.4 L668.4 298.3 L669.1 298.3 L669.9 298.2 L670.7 298.1 L671.5 297.9 L672.2 297.8 L673 297.6 L673.8 297.5 L674.5 297.3 L675.3 297 L676 296.8 L676.8 296.5 L677.5 296.3 L678.2 296 L679 295.7 L679.7 295.3 L680.4 295 L681.1 294.6 L681.8 294.3 L682.5 293.9 L683.1 293.4 L683.8 293 L684.4 292.6 L685.1 292.1 L685.7 291.6 L686.3 291.2 L686.9 290.6 L687.5 290.1 L688.1 289.6 L688.6 289 L689.2 288.5 L689.7 287.9 L690.2 287.3 L690.7 286.7 L691.2 286.1 L691.7 285.5 L692.2 284.8 L692.6 284.2 L693 283.5 L693.4 282.9 L693.8 282.2 L694.2 281.5 L694.6 280.8 L694.9 280.1 L695.3 279.4 L695.6 278.7 L695.9 277.9 L696.1 277.2 L696.4 276.5 L696.6 275.7 L696.8 274.9 L697 274.2 L697.2 273.4 L697.4 272.7 L697.5 271.9 L697.7 271.1 L697.8 270.3 L697.8 269.6 L697.9 268.8 L698 268 L698 267.2 L698 266.4 L698 117.6 L698 116.8 L698 116 L697.9 115.2 L697.8 114.4 L697.8 113.7 L697.7 112.9 L697.5 112.1 L697.4 111.3 L697.2 110.6 L697 109.8 L696.8 109.1 L696.6 108.3 L696.4 107.5 L696.1 106.8 L695.9 106.1 L695.6 105.3 L695.3 104.6 L694.9 103.9 L694.6 103.2 L694.2 102.5 L693.8 101.8 L693.4 101.1 L693 100.5 L692.6 99.81 L692.2 99.16 L691.7 98.52 L691.2 97.9 L690.7 97.29 L690.2 96.68 L689.7 96.1 L689.2 95.52 L688.6 94.96 L688.1 94.41 L687.5 93.88 L686.9 93.35 L686.3 92.85 L685.7 92.36 L685.1 91.88 L684.4 91.42 L683.8 90.98 L683.1 90.55 L682.5 90.14 L681.8 89.74 L681.1 89.36 L680.4 89 L679.7 88.66 L679 88.33 L678.2 88.02 L677.5 87.73 L676.8 87.46 L676 87.2 L675.3 86.96 L674.5 86.74 L673.8 86.54 L673 86.36 L672.2 86.2 L671.5 86.06 L670.7 85.93 L669.9 85.83 L669.1 85.74 L668.4 85.67 L667.6 85.62 L666.8 85.6 L666 85.59 L522 85.59 L521.2 85.6 L520.4 85.62 L519.6 85.67 L518.9 85.74 L518.1 85.83 L517.3 85.93 L516.5 86.06 L515.8 86.2 L515 86.36 L514.2 86.54 L513.5 86.74 L512.7 86.96 L512 87.2 L511.2 87.46 L510.5 87.73 L509.8 88.02 L509 88.33 L508.3 88.66 L507.6 89 L506.9 89.36 L506.2 89.74 L505.5 90.14 L504.9 90.55 L504.2 90.98 L503.6 91.42 L502.9 91.88 L502.3 92.36 L501.7 92.85 L501.1 93.35 L500.5 93.88 L499.9 94.41 L499.4 94.96 L498.8 95.52 L498.3 96.1 L497.8 96.68 L497.3 97.28 L496.8 97.9 L496.3 98.52 L495.8 99.16 L495.4 99.81 L495 100.5 L494.6 101.1 L494.2 101.8 L493.8 102.5 L493.4 103.2 L493.1 103.9 L492.7 104.6 L492.4 105.3 L492.1 106.1 L491.9 106.8 L491.6 107.5 L491.4 108.3 L491.2 109.1 L491 109.8 L490.8 110.6 L490.6 111.3 L490.5 112.1 L490.3 112.9 L490.2 113.7 L490.2 114.4 L490.1 115.2 L490 116 L490 116.8 L490 117.6 L490 266.4 M593.2 122 L592.7 121.1 L592.2 120.3 L591.6 119.5 L591.1 118.6 L590.5 117.8 L589.9 117.1 L589.2 116.3 L588.6 115.5 L587.9 114.8 L587.3 114.1 L586.6 113.3 L585.8 112.6 L585.1 112 L584.4 111.3 L583.6 110.7 L582.8 110.1 L582 109.5 L581.2 108.9 L580.4 108.3 L579.5 107.8 L578.7 107.3 L577.8 106.8 L577 106.3 L576.1 105.8 L575.2 105.4 L574.3 105 L573.4 104.6 L572.4 104.2 L571.5 103.9 L570.6 103.6 L569.6 103.3 L568.6 103 L567.7 102.8 L566.7 102.5 L565.7 102.3 L564.8 102.2 L563.8 102 L562.8 101.9 L561.8 101.8 L560.8 101.7 L559.8 101.6 L558.8 101.6 L557.8 101.6 L556.8 101.6 L555.8 101.6 L554.8 101.7 L553.9 101.8 L552.9 101.9 L551.9 102.1 L550.9 102.2 L549.9 102.4 L548.9 102.6 L548 102.8 L547 103.1 L546.1 103.4 L545.1 103.7 L544.2 104 L543.2 104.4 L542.3 104.7 L541.4 105.1 L540.5 105.6 L539.6 106 L538.2 106.7 L536.9 107.5 L535.6 108.3 L534.3 109.2 L533 110.1 L531.7 111 L530.5 111.9 L529.2 112.9 L528.1 113.9 L526.9 114.9 L525.7 116 L524.6 117.1 L523.5 118.2 L522.5 119.3 L521.4 120.5 L520.4 121.7 L519.5 122.9 L518.5 124.1 L517.6 125.4 L516.7 126.7 L515.9 128 L515.1 129.3 L514.3 130.7 L513.5 132 L512.8 133.4 L512.1 134.8 L511.5 136.2 L510.9 137.7 L510.3 139.1 L509.7 140.6 L509.2 142 L508.7 143.5 L508.3 145 L507.9 146.5 L507.6 148 L507.2 149.6 L506.9 151.1 L506.7 152.6 L506.5 154.2 L506.3 155.7 L506.2 157.3 L506.1 158.8 L506 160.4 L506 161.9 L506 163.5 L506.1 165.1 L506.2 166.6 L506.3 168.2 L506.5 169.7 L506.7 171.3 L506.9 172.8 L507.2 174.3 L507.5 175.8 L507.9 177.4 L508.3 178.9 L508.7 180.4 L509.2 181.9 L509.7 183.3 L510.2 184.8 L510.8 186.2 L511.4 187.7 L512.1 189.1 L512.8 190.5 L513.5 191.9 L514.2 193.2 L515 194.6 L515.8 195.9 L516.7 197.2 L517.5 198.5 L518.5 199.8 L519.4 201 L520.4 202.2 L521.4 203.4 L522.4 204.6 L523.5 205.7 L524.5 206.8 L525.7 207.9 L526.8 209 L528 210 L529.2 211 L530.4 212 L531.6 212.9 L532.9 213.9 L534.2 214.7 L535.5 215.6 L536.8 216.4 L538.1 217.2 L539.6 218 L540.5 218.4 L541.4 218.9 L542.3 219.3 L543.2 219.6 L544.2 220 L545.1 220.3 L546 220.6 L547 220.9 L548 221.2 L548.9 221.4 L549.9 221.6 L550.9 221.8 L551.9 221.9 L552.9 222.1 L553.8 222.2 L554.8 222.3 L555.8 222.4 L556.8 222.4 L557.8 222.4 L558.8 222.4 L559.8 222.4 L560.8 222.3 L561.8 222.2 L562.8 222.1 L563.8 222 L564.7 221.8 L565.7 221.7 L566.7 221.5 L567.7 221.2 L568.6 221 L569.6 220.7 L570.5 220.4 L571.5 220.1 L572.4 219.8 L573.3 219.4 L574.3 219 L575.2 218.6 L576.1 218.2 L577 217.7 L577.8 217.2 L578.7 216.7 L579.5 216.2 L580.4 215.7 L581.2 215.1 L582 214.5 L582.8 213.9 L583.6 213.3 L584.3 212.7 L585.1 212 L585.8 211.4 L586.5 210.7 L587.2 210 L587.9 209.2 L588.6 208.5 L589.2 207.7 L589.9 207 L590.5 206.2 L591 205.4 L591.6 204.5 L592.2 203.7 L592.7 202.9 L593.2 202 L580.4 186 L580.1 186.5 L579.8 187 L579.5 187.5 L579.1 188 L578.8 188.5 L578.4 189 L578 189.4 L577.6 189.9 L577.2 190.3 L576.8 190.8 L576.4 191.2 L576 191.6 L575.5 192 L575.1 192.4 L574.6 192.8 L574.2 193.2 L573.7 193.5 L573.2 193.9 L572.7 194.2 L572.2 194.5 L571.7 194.8 L571.2 195.1 L570.7 195.4 L570.1 195.7 L569.6 196 L569 196.2 L568.5 196.4 L567.9 196.7 L567.4 196.9 L566.8 197.1 L566.2 197.2 L565.7 197.4 L565.1 197.5 L564.5 197.7 L563.9 197.8 L563.3 197.9 L562.7 198 L562.2 198.1 L561.6 198.1 L561 198.2 L560.4 198.2 L559.8 198.2 L559.2 198.2 L558.6 198.2 L558 198.2 L557.4 198.2 L556.8 198.1 L556.2 198.1 L555.6 198 L555 197.9 L554.4 197.8 L553.8 197.6 L553.3 197.5 L552.7 197.3 L552.1 197.2 L551.5 197 L551 196.8 L550.4 196.6 L549.9 196.4 L549.3 196.1 L548.8 195.9 L548.2 195.6 L547.4 195.2 L546.6 194.7 L545.8 194.2 L545 193.7 L544.3 193.2 L543.5 192.6 L542.8 192 L542 191.5 L541.3 190.9 L540.6 190.2 L539.9 189.6 L539.3 189 L538.6 188.3 L538 187.6 L537.3 186.9 L536.7 186.2 L536.2 185.5 L535.6 184.7 L535 184 L534.5 183.2 L534 182.4 L533.5 181.6 L533 180.8 L532.6 180 L532.2 179.2 L531.8 178.3 L531.4 177.5 L531 176.6 L530.6 175.7 L530.3 174.9 L530 174 L529.7 173.1 L529.5 172.2 L529.2 171.3 L529 170.4 L528.8 169.5 L528.6 168.5 L528.5 167.6 L528.4 166.7 L528.3 165.8 L528.2 164.8 L528.1 163.9 L528.1 163 L528.1 162 L528.1 161.1 L528.1 160.2 L528.2 159.2 L528.3 158.3 L528.4 157.4 L528.5 156.4 L528.6 155.5 L528.8 154.6 L529 153.7 L529.2 152.8 L529.5 151.9 L529.7 151 L530 150.1 L530.3 149.2 L530.6 148.3 L531 147.5 L531.3 146.6 L531.7 145.8 L532.1 144.9 L532.6 144.1 L533 143.3 L533.5 142.5 L534 141.7 L534.5 140.9 L535 140.1 L535.6 139.3 L536.1 138.6 L536.7 137.9 L537.3 137.2 L537.9 136.5 L538.6 135.8 L539.2 135.1 L539.9 134.4 L540.6 133.8 L541.3 133.2 L542 132.6 L542.7 132 L543.4 131.4 L544.2 130.9 L545 130.4 L545.8 129.8 L546.6 129.4 L547.4 128.9 L548.2 128.4 L548.8 128.1 L549.3 127.9 L549.9 127.6 L550.4 127.4 L551 127.2 L551.5 127 L552.1 126.8 L552.7 126.7 L553.3 126.5 L553.8 126.4 L554.4 126.2 L555 126.1 L555.6 126 L556.2 125.9 L556.8 125.9 L557.4 125.8 L558 125.8 L558.6 125.8 L559.2 125.8 L559.8 125.8 L560.4 125.8 L561 125.8 L561.6 125.9 L562.1 125.9 L562.7 126 L563.3 126.1 L563.9 126.2 L564.5 126.3 L565.1 126.5 L565.7 126.6 L566.2 126.8 L566.8 126.9 L567.4 127.1 L567.9 127.3 L568.5 127.6 L569 127.8 L569.6 128 L570.1 128.3 L570.7 128.6 L571.2 128.9 L571.7 129.2 L572.2 129.5 L572.7 129.8 L573.2 130.1 L573.7 130.5 L574.2 130.8 L574.6 131.2 L575.1 131.6 L575.5 132 L576 132.4 L576.4 132.8 L576.8 133.2 L577.2 133.7 L577.6 134.1 L578 134.6 L578.4 135 L578.8 135.5 L579.1 136 L579.4 136.5 L579.8 137 L580.1 137.5 L580.4 138 L593.2 122 M602 161.6 L682 161.6 L682 193.6 L624 260.4 L682 260.4 L682 282.4 L602 282.4 L602 250.4 L660 183.6 L602 183.6 L602 161.6 "/>
<path fill="rgb(254, 254, 254)" stroke="none" d="M593.2 122 L592.7 121.1 L592.2 120.3 L591.6 119.5 L591.1 118.6 L590.5 117.8 L589.9 117.1 L589.2 116.3 L588.6 115.5 L587.9 114.8 L587.3 114.1 L586.6 113.3 L585.8 112.6 L585.1 112 L584.4 111.3 L583.6 110.7 L582.8 110.1 L582 109.5 L581.2 108.9 L580.4 108.3 L579.5 107.8 L578.7 107.3 L577.8 106.8 L577 106.3 L576.1 105.8 L575.2 105.4 L574.3 105 L573.4 104.6 L572.4 104.2 L571.5 103.9 L570.6 103.6 L569.6 103.3 L568.6 103 L567.7 102.8 L566.7 102.5 L565.7 102.3 L564.8 102.2 L563.8 102 L562.8 101.9 L561.8 101.8 L560.8 101.7 L559.8 101.6 L558.8 101.6 L557.8 101.6 L556.8 101.6 L555.8 101.6 L554.8 101.7 L553.9 101.8 L552.9 101.9 L551.9 102.1 L550.9 102.2 L549.9 102.4 L548.9 102.6 L548 102.8 L547 103.1 L546.1 103.4 L545.1 103.7 L544.2 104 L543.2 104.4 L542.3 104.7 L541.4 105.1 L540.5 105.6 L539.6 106 L538.2 106.7 L536.9 107.5 L535.6 108.3 L534.3 109.2 L533 110.1 L531.7 111 L530.5 111.9 L529.2 112.9 L528.1 113.9 L526.9 114.9 L525.7 116 L524.6 117.1 L523.5 118.2 L522.5 119.3 L521.4 120.5 L520.4 121.7 L519.5 122.9 L518.5 124.1 L517.6 125.4 L516.7 126.7 L515.9 128 L515.1 129.3 L514.3 130.7 L513.5 132 L512.8 133.4 L512.1 134.8 L511.5 136.2 L510.9 137.7 L510.3 139.1 L509.7 140.6 L509.2 142 L508.7 143.5 L508.3 145 L507.9 146.5 L507.6 148 L507.2 149.6 L506.9 151.1 L506.7 152.6 L506.5 154.2 L506.3 155.7 L506.2 157.3 L506.1 158.8 L506 160.4 L506 161.9 L506 163.5 L506.1 165.1 L506.2 166.6 L506.3 168.2 L506.5 169.7 L506.7 171.3 L506.9 172.8 L507.2 174.3 L507.5 175.8 L507.9 177.4 L508.3 178.9 L508.7 180.4 L509.2 181.9 L509.7 183.3 L510.2 184.8 L510.8 186.2 L511.4 187.7 L512.1 189.1 L512.8 190.5 L513.5 191.9 L514.2 193.2 L515 194.6 L515.8 195.9 L516.7 197.2 L517.5 198.5 L518.5 199.8 L519.4 201 L520.4 202.2 L521.4 203.4 L522.4 204.6 L523.5 205.7 L524.5 206.8 L525.7 207.9 L526.8 209 L528 210 L529.2 211 L530.4 212 L531.6 212.9 L532.9 213.9 L534.2 214.7 L535.5 215.6 L536.8 216.4 L538.1 217.2 L539.6 218 L540.5 218.4 L541.4 218.9 L542.3 219.3 L543.2 219.6 L544.2 220 L545.1 220.3 L546 220.6 L547 220.9 L548 221.2 L548.9 221.4 L549.9 221.6 L550.9 221.8 L551.9 221.9 L552.9 222.1 L553.8 222.2 L554.8 222.3 L555.8 222.4 L556.8 222.4 L557.8 222.4 L558.8 222.4 L559.8 222.4 L560.8 222.3 L561.8 222.2 L562.8 222.1 L563.8 222 L564.7 221.8 L565.7 221.7 L566.7 221.5 L567.7 221.2 L568.6 221 L569.6 220.7 L570.5 220.4 L571.5 220.1 L572.4 219.8 L573.3 219.4 L574.3 219 L575.2 218.6 L576.1 218.2 L577 217.7 L577.8 217.2 L578.7 216.7 L579.5 216.2 L580.4 215.7 L581.2 215.1 L582 214.5 L582.8 213.9 L583.6 213.3 L584.3 212.7 L585.1 212 L585.8 211.4 L586.5 210.7 L587.2 210 L587.9 209.2 L588.6 208.5 L589.2 207.7 L589.9 207 L590.5 206.2 L591 205.4 L591.6 204.5 L592.2 203.7 L592.7 202.9 L593.2 202 L580.4 186 L580.1 186.5 L579.8 187 L579.5 187.5 L579.1 188 L578.8 188.5 L578.4 189 L578 189.4 L577.6 189.9 L577.2 190.3 L576.8 190.8 L576.4 191.2 L576 191.6 L575.5 192 L575.1 192.4 L574.6 192.8 L574.2 193.2 L573.7 193.5 L573.2 193.9 L572.7 194.2 L572.2 194.5 L571.7 194.8 L571.2 195.1 L570.7 195.4 L570.1 195.7 L569.6 196 L569 196.2 L568.5 196.4 L567.9 196.7 L567.4 196.9 L566.8 197.1 L566.2 197.2 L565.7 197.4 L565.1 197.5 L564.5 197.7 L563.9 197.8 L563.3 197.9 L562.7 198 L562.2 198.1 L561.6 198.1 L561 198.2 L560.4 198.2 L559.8 198.2 L559.2 198.2 L558.6 198.2 L558 198.2 L557.4 198.2 L556.8 198.1 L556.2 198.1 L555.6 198 L555 197.9 L554.4 197.8 L553.8 197.6 L553.3 197.5 L552.7 197.3 L552.1 197.2 L551.5 197 L551 196.8 L550.4 196.6 L549.9 196.4 L549.3 196.1 L548.8 195.9 L548.2 195.6 L547.4 195.2 L546.6 194.7 L545.8 194.2 L545 193.7 L544.3 193.2 L543.5 192.6 L542.8 192 L542 191.5 L541.3 190.9 L540.6 190.2 L539.9 189.6 L539.3 189 L538.6 188.3 L538 187.6 L537.3 186.9 L536.7 186.2 L536.2 185.5 L535.6 184.7 L535 184 L534.5 183.2 L534 182.4 L533.5 181.6 L533 180.8 L532.6 180 L532.2 179.2 L531.8 178.3 L531.4 177.5 L531 176.6 L530.6 175.7 L530.3 174.9 L530 174 L529.7 173.1 L529.5 172.2 L529.2 171.3 L529 170.4 L528.8 169.5 L528.6 168.5 L528.5 167.6 L528.4 166.7 L528.3 165.8 L528.2 164.8 L528.1 163.9 L528.1 163 L528.1 162 L528.1 161.1 L528.1 160.2 L528.2 159.2 L528.3 158.3 L528.4 157.4 L528.5 156.4 L528.6 155.5 L528.8 154.6 L529 153.7 L529.2 152.8 L529.5 151.9 L529.7 151 L530 150.1 L530.3 149.2 L530.6 148.3 L531 147.5 L531.3 146.6 L531.7 145.8 L532.1 144.9 L532.6 144.1 L533 143.3 L533.5 142.5 L534 141.7 L534.5 140.9 L535 140.1 L535.6 139.3 L536.1 138.6 L536.7 137.9 L537.3 137.2 L537.9 136.5 L538.6 135.8 L539.2 135.1 L539.9 134.4 L540.6 133.8 L541.3 133.2 L542 132.6 L542.7 132 L543.4 131.4 L544.2 130.9 L545 130.4 L545.8 129.8 L546.6 129.4 L547.4 128.9 L548.2 128.4 L548.8 128.1 L549.3 127.9 L549.9 127.6 L550.4 127.4 L551 127.2 L551.5 127 L552.1 126.8 L552.7 126.7 L553.3 126.5 L553.8 126.4 L554.4 126.2 L555 126.1 L555.6 126 L556.2 125.9 L556.8 125.9 L557.4 125.8 L558 125.8 L558.6 125.8 L559.2 125.8 L559.8 125.8 L560.4 125.8 L561 125.8 L561.6 125.9 L562.1 125.9 L562.7 126 L563.3 126.1 L563.9 126.2 L564.5 126.3 L565.1 126.5 L565.7 126.6 L566.2 126.8 L566.8 126.9 L567.4 127.1 L567.9 127.3 L568.5 127.6 L569 127.8 L569.6 128 L570.1 128.3 L570.7 128.6 L571.2 128.9 L571.7 129.2 L572.2 129.5 L572.7 129.8 L573.2 130.1 L573.7 130.5 L574.2 130.8 L574.6 131.2 L575.1 131.6 L575.5 132 L576 132.4 L576.4 132.8 L576.8 133.2 L577.2 133.7 L577.6 134.1 L578 134.6 L578.4 135 L578.8 135.5 L579.1 136 L579.4 136.5 L579.8 137 L580.1 137.5 L580.4 138 L593.2 122 "/>
<path fill="rgb(254, 254, 254)" stroke="none" d="M602 161.6 L682 161.6 L682 193.6 L624 260.4 L682 260.4 L682 282.4 L602 282.4 L602 250.4 L660 183.6 L602 183.6 L602 161.6 "/>
<path stroke-width="1.8" stroke="rgb(0, 0, 0)" fill="none" d="M800.7 347.7 L794 354.4 L780.7 354.4 L774 347.7 L774 321.1 L780.7 314.4 L794 314.4 L800.7 321.1 "/>
<path stroke-width="1.8" stroke="rgb(0, 0, 0)" fill="none" d="M827.3 354.4 L820.7 354.4 L814 347.7 L814 334.4 L820.7 327.7 L827.3 327.7 L834 334.4 L834 347.7 L827.3 354.4 M834 347.7 L840.7 354.4 "/>
<path stroke-width="1.8" stroke="rgb(0, 0, 0)" fill="none" d="M880.7 341.1 L867.3 354.4 L860.7 354.4 L854 347.7 L854 334.4 L860.7 327.7 L867.3 327.7 L880.7 341.1 M880.7 314.4 L880.7 354.4 "/>
<path stroke-width="1.8" stroke="rgb(0, 0, 0)" fill="none" d="M894 314.4 L920.7 314.4 L894 354.4 L920.7 354.4 "/>
<path stroke-width="1.8" stroke="rgb(0, 0, 0)" fill="none" d="M934 354.4 L934 327.7 M934 321.1 L934 314.4 "/>
<path stroke-width="1.8" stroke="rgb(0, 0, 0)" fill="none" d="M947.3 354.4 L947.3 327.7 M947.3 341.1 L960.7 327.7 L967.3 327.7 L974 334.4 L974 354.4 "/>
<path stroke-width="1.8" stroke="rgb(0, 0, 0)" fill="none" d="M987.3 354.4 L987.3 314.4 M987.3 341.1 L1001 327.7 L1007 327.7 L1014 334.4 L1014 354.4 "/>
<path stroke-width="1.8" stroke="rgb(0, 0, 0)" fill="none" d="M1047 354.4 L1034 354.4 L1027 347.7 L1027 334.4 L1034 327.7 L1047 327.7 L1054 334.4 L1054 347.7 L1047 354.4 "/>
<path stroke="rgb(0, 0, 0)" fill="none" d="M922 161.6 L1002 161.6 L1002 193.6 L944 260.4 L1002 260.4 L1002 282.4 L922 282.4 L922 250.4 L980 183.6 L922 183.6 L922 161.6 "/>
<path stroke="rgb(0, 0, 0)" fill="none" d="M913.2 122 L912.7 121.1 L912.2 120.3 L911.6 119.5 L911.1 118.6 L910.5 117.8 L909.9 117.1 L909.2 116.3 L908.6 115.5 L907.9 114.8 L907.3 114.1 L906.6 113.3 L905.8 112.6 L905.1 112 L904.4 111.3 L903.6 110.7 L902.8 110.1 L902 109.5 L901.2 108.9 L900.4 108.3 L899.5 107.8 L898.7 107.3 L897.8 106.8 L897 106.3 L896.1 105.8 L895.2 105.4 L894.3 105 L893.4 104.6 L892.4 104.2 L891.5 103.9 L890.6 103.6 L889.6 103.3 L888.6 103 L887.7 102.8 L886.7 102.5 L885.7 102.3 L884.8 102.2 L883.8 102 L882.8 101.9 L881.8 101.8 L880.8 101.7 L879.8 101.6 L878.8 101.6 L877.8 101.6 L876.8 101.6 L875.8 101.6 L874.8 101.7 L873.9 101.8 L872.9 101.9 L871.9 102.1 L870.9 102.2 L869.9 102.4 L868.9 102.6 L868 102.8 L867 103.1 L866.1 103.4 L865.1 103.7 L864.2 104 L863.2 104.4 L862.3 104.7 L861.4 105.1 L860.5 105.6 L859.6 106 L858.2 106.7 L856.9 107.5 L855.6 108.3 L854.3 109.2 L853 110.1 L851.7 111 L850.5 111.9 L849.2 112.9 L848.1 113.9 L846.9 114.9 L845.7 116 L844.6 117.1 L843.5 118.2 L842.5 119.3 L841.4 120.5 L840.4 121.7 L839.5 122.9 L838.5 124.1 L837.6 125.4 L836.7 126.7 L835.9 128 L835.1 129.3 L834.3 130.7 L833.5 132 L832.8 133.4 L832.1 134.8 L831.5 136.2 L830.9 137.7 L830.3 139.1 L829.7 140.6 L829.2 142 L828.7 143.5 L828.3 145 L827.9 146.5 L827.6 148 L827.2 149.6 L826.9 151.1 L826.7 152.6 L826.5 154.2 L826.3 155.7 L826.2 157.3 L826.1 158.8 L826 160.4 L826 161.9 L826 163.5 L826.1 165.1 L826.2 166.6 L826.3 168.2 L826.5 169.7 L826.7 171.3 L826.9 172.8 L827.2 174.3 L827.5 175.8 L827.9 177.4 L828.3 178.9 L828.7 180.4 L829.2 181.9 L829.7 183.3 L830.2 184.8 L830.8 186.2 L831.4 187.7 L832.1 189.1 L832.8 190.5 L833.5 191.9 L834.2 193.2 L835 194.6 L835.8 195.9 L836.7 197.2 L837.5 198.5 L838.5 199.8 L839.4 201 L840.4 202.2 L841.4 203.4 L842.4 204.6 L843.5 205.7 L844.5 206.8 L845.7 207.9 L846.8 209 L848 210 L849.2 211 L850.4 212 L851.6 212.9 L852.9 213.9 L854.2 214.7 L855.5 215.6 L856.8 216.4 L858.1 217.2 L859.6 218 L860.5 218.4 L861.4 218.9 L862.3 219.3 L863.2 219.6 L864.2 220 L865.1 220.3 L866 220.6 L867 220.9 L868 221.2 L868.9 221.4 L869.9 221.6 L870.9 221.8 L871.9 221.9 L872.9 222.1 L873.8 222.2 L874.8 222.3 L875.8 222.4 L876.8 222.4 L877.8 222.4 L878.8 222.4 L879.8 222.4 L880.8 222.3 L881.8 222.2 L882.8 222.1 L883.8 222 L884.7 221.8 L885.7 221.7 L886.7 221.5 L887.7 221.2 L888.6 221 L889.6 220.7 L890.5 220.4 L891.5 220.1 L892.4 219.8 L893.3 219.4 L894.3 219 L895.2 218.6 L896.1 218.2 L897 217.7 L897.8 217.2 L898.7 216.7 L899.5 216.2 L900.4 215.7 L901.2 215.1 L902 214.5 L902.8 213.9 L903.6 213.3 L904.3 212.7 L905.1 212 L905.8 211.4 L906.5 210.7 L907.2 210 L907.9 209.2 L908.6 208.5 L909.2 207.7 L909.9 207 L910.5 206.2 L911 205.4 L911.6 204.5 L912.2 203.7 L912.7 202.9 L913.2 202 L900.4 186 L900.1 186.5 L899.8 187 L899.5 187.5 L899.1 188 L898.8 188.5 L898.4 189 L898 189.4 L897.6 189.9 L897.2 190.3 L896.8 190.8 L896.4 191.2 L896 191.6 L895.5 192 L895.1 192.4 L894.6 192.8 L894.2 193.2 L893.7 193.5 L893.2 193.9 L892.7 194.2 L892.2 194.5 L891.7 194.8 L891.2 195.1 L890.7 195.4 L890.1 195.7 L889.6 196 L889 196.2 L888.5 196.4 L887.9 196.7 L887.4 196.9 L886.8 197.1 L886.2 197.2 L885.7 197.4 L885.1 197.5 L884.5 197.7 L883.9 197.8 L883.3 197.9 L882.7 198 L882.2 198.1 L881.6 198.1 L881 198.2 L880.4 198.2 L879.8 198.2 L879.2 198.2 L878.6 198.2 L878 198.2 L877.4 198.2 L876.8 198.1 L876.2 198.1 L875.6 198 L875 197.9 L874.4 197.8 L873.8 197.6 L873.3 197.5 L872.7 197.3 L872.1 197.2 L871.5 197 L871 196.8 L870.4 196.6 L869.9 196.4 L869.3 196.1 L868.8 195.9 L868.2 195.6 L867.4 195.2 L866.6 194.7 L865.8 194.2 L865 193.7 L864.3 193.2 L863.5 192.6 L862.8 192 L862 191.5 L861.3 190.9 L860.6 190.2 L859.9 189.6 L859.3 189 L858.6 188.3 L858 187.6 L857.3 186.9 L856.7 186.2 L856.2 185.5 L855.6 184.7 L855 184 L854.5 183.2 L854 182.4 L853.5 181.6 L853 180.8 L852.6 180 L852.2 179.2 L851.8 178.3 L851.4 177.5 L851 176.6 L850.6 175.7 L850.3 174.9 L850 174 L849.7 173.1 L849.5 172.2 L849.2 171.3 L849 170.4 L848.8 169.5 L848.6 168.5 L848.5 167.6 L848.4 166.7 L848.3 165.8 L848.2 164.8 L848.1 163.9 L848.1 163 L848.1 162 L848.1 161.1 L848.1 160.2 L848.2 159.2 L848.3 158.3 L848.4 157.4 L848.5 156.4 L848.6 155.5 L848.8 154.6 L849 153.7 L849.2 152.8 L849.5 151.9 L849.7 151 L850 150.1 L850.3 149.2 L850.6 148.3 L851 147.5 L851.3 146.6 L851.7 145.8 L852.1 144.9 L852.6 144.1 L853 143.3 L853.5 142.5 L854 141.7 L854.5 140.9 L855 140.1 L855.6 139.3 L856.1 138.6 L856.7 137.9 L857.3 137.2 L857.9 136.5 L858.6 135.8 L859.2 135.1 L859.9 134.4 L860.6 133.8 L861.3 133.2 L862 132.6 L862.7 132 L863.4 131.4 L864.2 130.9 L865 130.4 L865.8 129.8 L866.6 129.4 L867.4 128.9 L868.2 128.4 L868.8 128.1 L869.3 127.9 L869.9 127.6 L870.4 127.4 L871 127.2 L871.5 127 L872.1 126.8 L872.7 126.7 L873.3 126.5 L873.8 126.4 L874.4 126.2 L875 126.1 L875.6 126 L876.2 125.9 L876.8 125.9 L877.4 125.8 L878 125.8 L878.6 125.8 L879.2 125.8 L879.8 125.8 L880.4 125.8 L881 125.8 L881.6 125.9 L882.1 125.9 L882.7 126 L883.3 126.1 L883.9 126.2 L884.5 126.3 L885.1 126.5 L885.7 126.6 L886.2 126.8 L886.8 126.9 L887.4 127.1 L887.9 127.3 L888.5 127.6 L889 127.8 L889.6 128 L890.1 128.3 L890.7 128.6 L891.2 128.9 L891.7 129.2 L892.2 129.5 L892.7 129.8 L893.2 130.1 L893.7 130.5 L894.2 130.8 L894.6 131.2 L895.1 131.6 L895.5 132 L896 132.4 L896.4 132.8 L896.8 133.2 L897.2 133.7 L897.6 134.1 L898 134.6 L898.4 135 L898.8 135.5 L899.1 136 L899.4 136.5 L899.8 137 L900.1 137.5 L900.4 138 L913.2 122 "/>
<path stroke="rgb(0, 0, 0)" fill="none" d="M810 266.4 L810 267.2 L810 268 L810.1 268.8 L810.2 269.6 L810.2 270.3 L810.3 271.1 L810.5 271.9 L810.6 272.7 L810.8 273.4 L811 274.2 L811.2 274.9 L811.4 275.7 L811.6 276.5 L811.9 277.2 L812.1 277.9 L812.4 278.7 L812.7 279.4 L813.1 280.1 L813.4 280.8 L813.8 281.5 L814.2 282.2 L814.6 282.9 L815 283.5 L815.4 284.2 L815.8 284.8 L816.3 285.5 L816.8 286.1 L817.3 286.7 L817.8 287.3 L818.3 287.9 L818.8 288.5 L819.4 289 L819.9 289.6 L820.5 290.1 L821.1 290.6 L821.7 291.2 L822.3 291.6 L822.9 292.1 L823.6 292.6 L824.2 293 L824.9 293.4 L825.5 293.9 L826.2 294.3 L826.9 294.6 L827.6 295 L828.3 295.3 L829 295.7 L829.8 296 L830.5 296.3 L831.2 296.5 L832 296.8 L832.7 297 L833.5 297.3 L834.2 297.5 L835 297.6 L835.8 297.8 L836.5 297.9 L837.3 298.1 L838.1 298.2 L838.9 298.3 L839.6 298.3 L840.4 298.4 L841.2 298.4 L842 298.4 L986 298.4 L986.8 298.4 L987.6 298.4 L988.4 298.3 L989.1 298.3 L989.9 298.2 L990.7 298.1 L991.5 297.9 L992.2 297.8 L993 297.6 L993.8 297.5 L994.5 297.3 L995.3 297 L996 296.8 L996.8 296.5 L997.5 296.3 L998.2 296 L999 295.7 L999.7 295.3 L1000 295 L1001 294.6 L1002 294.3 L1002 293.9 L1003 293.4 L1004 293 L1004 292.6 L1005 292.1 L1006 291.6 L1006 291.2 L1007 290.6 L1007 290.1 L1008 289.6 L1009 289 L1009 288.5 L1010 287.9 L1010 287.3 L1011 286.7 L1011 286.1 L1012 285.5 L1012 284.8 L1013 284.2 L1013 283.5 L1013 282.9 L1014 282.2 L1014 281.5 L1015 280.8 L1015 280.1 L1015 279.4 L1016 278.7 L1016 277.9 L1016 277.2 L1016 276.5 L1017 275.7 L1017 274.9 L1017 274.2 L1017 273.4 L1017 272.7 L1018 271.9 L1018 271.1 L1018 270.3 L1018 269.6 L1018 268.8 L1018 268 L1018 267.2 L1018 266.4 L1018 117.6 L1018 116.8 L1018 116 L1018 115.2 L1018 114.4 L1018 113.7 L1018 112.9 L1018 112.1 L1017 111.3 L1017 110.6 L1017 109.8 L1017 109.1 L1017 108.3 L1016 107.5 L1016 106.8 L1016 106.1 L1016 105.3 L1015 104.6 L1015 103.9 L1015 103.2 L1014 102.5 L1014 101.8 L1013 101.1 L1013 100.5 L1013 99.81 L1012 99.16 L1012 98.52 L1011 97.9 L1011 97.29 L1010 96.68 L1010 96.1 L1009 95.52 L1009 94.96 L1008 94.41 L1007 93.88 L1007 93.35 L1006 92.85 L1006 92.36 L1005 91.88 L1004 91.42 L1004 90.98 L1003 90.55 L1002 90.14 L1002 89.74 L1001 89.36 L1000 89 L999.7 88.66 L999 88.33 L998.2 88.02 L997.5 87.73 L996.8 87.46 L996 87.2 L995.3 86.96 L994.5 86.74 L993.8 86.54 L993 86.36 L992.2 86.2 L991.5 86.06 L990.7 85.93 L989.9 85.83 L989.1 85.74 L988.4 85.67 L987.6 85.62 L986.8 85.6 L986 85.59 L842 85.59 L841.2 85.6 L840.4 85.62 L839.6 85.67 L838.9 85.74 L838.1 85.83 L837.3 85.93 L836.5 86.06 L835.8 86.2 L835 86.36 L834.2 86.54 L833.5 86.74 L832.7 86.96 L832 87.2 L831.2 87.46 L830.5 87.73 L829.8 88.02 L829 88.33 L828.3 88.66 L827.6 89 L826.9 89.36 L826.2 89.74 L825.5 90.14 L824.9 90.55 L824.2 90.98 L823.6 91.42 L822.9 91.88 L822.3 92.36 L821.7 92.85 L821.1 93.35 L820.5 93.88 L819.9 94.41 L819.4 94.96 L818.8 95.52 L818.3 96.1 L817.8 96.68 L817.3 97.28 L816.8 97.9 L816.3 98.52 L815.8 99.16 L815.4 99.81 L815 100.5 L814.6 101.1 L814.2 101.8 L813.8 102.5 L813.4 103.2 L813.1 103.9 L812.7 104.6 L812.4 105.3 L812.1 106.1 L811.9 106.8 L811.6 107.5 L811.4 108.3 L811.2 109.1 L811 109.8 L810.8 110.6 L810.6 111.3 L810.5 112.1 L810.3 112.9 L810.2 113.7 L810.2 114.4 L810.1 115.2 L810 116 L810 116.8 L810 117.6 L810 266.4 "/>
</svg>