999
CadZinho - Minimalist CAD by Zecruel
0
SECTION
2
HEADER
9
$ACADVER
1
AC1021
9
$HANDSEED
5
5F
9
$INSUNITS
70
4
9
$LWDISPLAY
290
1
0
ENDSEC
0
SECTION
2
CLASSES
0
ENDSEC
0
SECTION
2
TABLES
0
TABLE
2
VPORT
5
1
100
AcDbSymbolTable
70
1000
0
VPORT
5
25
100
AcDbSymbolTableRecord
100
AcDbViewportTableRecord
2
*ACTIVE
70
0
10
0.000000
20
0.000000
11
1.000000
21
1.000000
12
0.000000
22
25.000000
13
0.000000
23
0.000000
14
100.000000
24
100.000000
15
100.000000
25
100.000000
16
0.000000
26
0.000000
36
1.000000
17
0.000000
27
0.000000
37
0.000000
40
100.000000
41
1.800000
42
50.000000
43
0.000000
44
0.000000
50
0.000000
51
0.000000
0
ENDTAB
0
TABLE
2
LTYPE
5
4
100
AcDbSymbolTable
70
1000
0
LTYPE
5
5
100
AcDbSymbolTableRecord
100
AcDbLinetypeTableRecord
2
ByBlock
70
0
3

72
65
73
0
40
0.000000
0
LTYPE
5
6
100
AcDbSymbolTableRecord
100
AcDbLinetypeTableRecord
2
ByLayer
70
0
3

72
65
73
0
40
0.000000
0
LTYPE
5
7
100
AcDbSymbolTableRecord
100
AcDbLinetypeTableRecord
2
Continuous
70
0
3
___________________________________
72
65
73
0
40
0.000000
0
LTYPE
5
8
100
AcDbSymbolTableRecord
100
AcDbLinetypeTableRecord
2
Border
70
0
3
____ . ____ ____ . ____ ____ . ____
72
65
73
6
40
1.750000
49
0.500000
74
0
49
-0.250000
74
0
49
0.500000
74
0
49
-0.250000
74
0
49
0.000000
74
0
49
-0.250000
74
0
0
LTYPE
5
9
100
AcDbSymbolTableRecord
100
AcDbLinetypeTableRecord
2
Center
70
0
3
____ _ ____ _ ____ _ ____ _ ____ _
72
65
73
4
40
2.000000
49
1.250000
74
0
49
-0.250000
74
0
49
0.250000
74
0
49
-0.250000
74
0
0
LTYPE
5
A
100
AcDbSymbolTableRecord
100
AcDbLinetypeTableRecord
2
Dashdot
70
0
3
____ . ____ . ____ . ____ . ____ .
72
65
73
4
40
1.000000
49
0.500000
74
0
49
-0.250000
74
0
49
0.000000
74
0
49
-0.250000
74
0
0
LTYPE
5
B
100
AcDbSymbolTableRecord
100
AcDbLinetypeTableRecord
2
Dashed
70
0
3
____ ____ ____ ____ ____ ____ ____
72
65
73
2
40
0.750000
49
0.500000
74
0
49
-0.250000
74
0
0
LTYPE
5
C
100
AcDbSymbolTableRecord
100
AcDbLinetypeTableRecord
2
Divide
70
0
3
____ . . ____ . . ____ . . ____ . .
72
65
73
6
40
1.250000
49
0.500000
74
0
49
-0.250000
74
0
49
0.000000
74
0
49
-0.250000
74
0
49
0.000000
74
0
49
-0.250000
74
0
0
LTYPE
5
D
100
AcDbSymbolTableRecord
100
AcDbLinetypeTableRecord
2
Dot
70
0
3
. . . . . . . . . . . . . . . . . .
72
65
73
2
40
0.250000
49
0.000000
74
0
49
-0.250000
74
0
0
LTYPE
5
E
100
AcDbSymbolTableRecord
100
AcDbLinetypeTableRecord
2
Hidden
70
0
3
__ __ __ __ __ __ __ __ __ __ __ __
72
65
73
2
40
0.375000
49
0.250000
74
0
49
-0.125000
74
0
0
LTYPE
5
F
100
AcDbSymbolTableRecord
100
AcDbLinetypeTableRecord
2
Phantom
70
0
3
_____ _ _ _____ _ _ _____ _ _ _____
72
65
73
6
40
2.500000
49
1.250000
74
0
49
-0.250000
74
0
49
0.250000
74
0
49
-0.250000
74
0
49
0.250000
74
0
49
-0.250000
74
0
0
ENDTAB
0
TABLE
2
LAYER
5
10
100
AcDbSymbolTable
70
1000
0
LAYER
5
11
100
AcDbSymbolTableRecord
100
AcDbLayerTableRecord
2
0
70
0
62
7
6
Continuous
370
0
390
2B
0
LAYER
5
5E
100
AcDbSymbolTableRecord
100
AcDbLayerTableRecord
2
cz_logo
70
0
62
7
6
Continuous
370
0
390
2B
0
ENDTAB
0
TABLE
2
STYLE
5
12
100
AcDbSymbolTable
70
1000
0
STYLE
5
13
100
AcDbSymbolTableRecord
100
AcDbTextStyleTableRecord
2
Standard
70
0
40
0.000000
41
1.000000
50
0.000000
71
0
42
1.000000
3
TXT.SHX
4

0
STYLE
5
24
100
AcDbSymbolTableRecord
100
AcDbTextStyleTableRecord
2

70
1
40
0.000000
41
1.000000
50
0.000000
71
0
42
1.000000
3
LTYPESHP.SHX
4

0
ENDTAB
0
TABLE
2
VIEW
5
14
100
AcDbSymbolTable
70
0
0
ENDTAB
0
TABLE
2
UCS
5
15
100
AcDbSymbolTable
70
0
0
ENDTAB
0
TABLE
2
APPID
5
16
100
AcDbSymbolTable
70
10
0
APPID
5
17
100
AcDbSymbolTableRecord
100
AcDbRegAppTableRecord
2
ACAD
70
0
0
APPID
5
18
100
AcDbSymbolTableRecord
100
AcDbRegAppTableRecord
2
CADZINHO
70
0
0
ENDTAB
0
TABLE
2
DIMSTYLE
5
19
100
AcDbSymbolTable
70
1
100
AcDbDimStyleTable
71
1
0
DIMSTYLE
105
1A
100
AcDbSymbolTableRecord
100
AcDbDimStyleTableRecord
2
Standard
70
0
340
C
0
ENDTAB
0
TABLE
2
BLOCK_RECORD
5
1B
100
AcDbSymbolTable
70
9999
0
BLOCK_RECORD
5
1C
100
AcDbSymbolTableRecord
100
AcDbBlockTableRecord
2
*Model_Space
70
0
0
BLOCK_RECORD
5
1D
100
AcDbSymbolTableRecord
100
AcDbBlockTableRecord
2
*Paper_Space
70
0
0
BLOCK_RECORD
5
40
100
AcDbSymbolTableRecord
100
AcDbBlockTableRecord
2
logo_hatch
70
0
0
BLOCK_RECORD
5
4B
100
AcDbSymbolTableRecord
100
AcDbBlockTableRecord
2
logo_solid
70
0
0
BLOCK_RECORD
5
56
100
AcDbSymbolTableRecord
100
AcDbBlockTableRecord
2
logo_wire
70
0
0
ENDTAB
0
ENDSEC
0
SECTION
2
BLOCKS
0
BLOCK
5
1E
100
AcDbEntity
8
0
100
AcDbBlockBegin
2
*Model_Space
70
0
10
0.000000
20
0.000000
30
0.000000
3
*Model_Space
1

0
ENDBLK
5
1F
100
AcDbEntity
8
0
100
AcDbBlockEnd
0
BLOCK
5
20
100
AcDbEntity
8
0
100
AcDbBlockBegin
2
*Paper_Space
70
0
10
0.000000
20
0.000000
30
0.000000
3
*Paper_Space
1

0
ENDBLK
5
21
100
AcDbEntity
8
0
100
AcDbBlockEnd
0
BLOCK
5
41
330
40
100
AcDbEntity
8
0
100
AcDbBlockBegin
2
logo_hatch
70
0
10
0.000000
20
0.000000
30
0.000000
3
logo_hatch
1

4

0
TEXT
5
42
100
AcDbEntity
67
0
8
cz_logo
6
ByLayer
62
256
370
25
100
AcDbText
10
17.500000
20
5.000000
30
0.000000
40
5.000000
1
CadZinho
50
0.000000
7
Standard
72
1
11
17.500000
21
5.000000
31
0.000000
100
AcDbText
73
3
0
LWPOLYLINE
5
43
100
AcDbEntity
67
0
8
cz_logo
6
ByLayer
62
255
370
-1
100
AcDbPolyline
90
10
70
1
10
18.500000
20
24.103600
30
0.000000
42
0.000000
10
28.500000
20
24.103600
30
0.000000
42
0.000000
10
28.500000
20
20.103600
30
0.000000
42
0.000000
10
21.250000
20
11.750000
30
0.000000
42
0.000000
10
28.500000
20
11.750000
30
0.000000
42
0.000000
10
28.500000
20
9.000000
30
0.000000
42
0.000000
10
18.500000
20
9.000000
30
0.000000
42
0.000000
10
18.500000
20
13.000000
30
0.000000
42
0.000000
10
25.750000
20
21.353600
30
0.000000
42
0.000000
10
18.500000
20
21.353600
30
0.000000
0
LWPOLYLINE
5
44
100
AcDbEntity
67
0
8
cz_logo
6
ByLayer
62
255
370
-1
100
AcDbPolyline
90
8
70
1
10
17.400000
20
29.051800
30
0.000000
42
0.400000
10
10.700000
20
31.051800
30
0.000000
42
0.600000
10
10.700000
20
17.051800
30
0.000000
42
0.400000
10
17.400000
20
19.051800
30
0.000000
42
0.000000
10
15.800000
20
21.051800
30
0.000000
42
-0.400000
10
11.780000
20
19.851800
30
0.000000
42
-0.600000
10
11.780000
20
28.251800
30
0.000000
42
-0.400000
10
15.800000
20
27.051800
30
0.000000
0
LWPOLYLINE
5
45
100
AcDbEntity
67
0
8
cz_logo
6
ByLayer
62
108
370
-1
100
AcDbPolyline
90
8
70
1
10
4.500000
20
11.000000
30
0.000000
42
0.414214
10
8.500000
20
7.000000
30
0.000000
42
0.000000
10
26.500000
20
7.000000
30
0.000000
42
0.414214
10
30.500000
20
11.000000
30
0.000000
42
0.000000
10
30.500000
20
29.603600
30
0.000000
42
0.414214
10
26.500000
20
33.603600
30
0.000000
42
0.000000
10
8.500000
20
33.603600
30
0.000000
42
0.414214
10
4.500000
20
29.603600
30
0.000000
0
HATCH
5
46
100
AcDbEntity
67
0
8
cz_logo
6
ByLayer
62
108
370
0
100
AcDbHatch
10
0.000000
20
0.000000
30
0.000000
210
0.000000
220
0.000000
230
1.000000
2
USER_DEF
70
0
71
0
91
3
92
2
72
1
73
1
93
10
10
18.500000
20
24.103600
42
0.000000
10
28.500000
20
24.103600
42
0.000000
10
28.500000
20
20.103600
42
0.000000
10
21.250000
20
11.750000
42
0.000000
10
28.500000
20
11.750000
42
0.000000
10
28.500000
20
9.000000
42
0.000000
10
18.500000
20
9.000000
42
0.000000
10
18.500000
20
13.000000
42
0.000000
10
25.750000
20
21.353600
42
0.000000
10
18.500000
20
21.353600
42
0.000000
97
0
92
2
72
1
73
1
93
8
10
17.400000
20
29.051800
42
0.400000
10
10.700000
20
31.051800
42
0.600000
10
10.700000
20
17.051800
42
0.400000
10
17.400000
20
19.051800
42
0.000000
10
15.800000
20
21.051800
42
-0.400000
10
11.780000
20
19.851800
42
-0.600000
10
11.780000
20
28.251800
42
-0.400000
10
15.800000
20
27.051800
42
0.000000
97
0
92
2
72
1
73
1
93
8
10
4.500000
20
11.000000
42
0.414214
10
8.500000
20
7.000000
42
0.000000
10
26.500000
20
7.000000
42
0.414214
10
30.500000
20
11.000000
42
0.000000
10
30.500000
20
29.603600
42
0.414214
10
26.500000
20
33.603600
42
0.000000
10
8.500000
20
33.603600
42
0.414214
10
4.500000
20
29.603600
42
0.000000
97
0
75
0
76
0
52
0.000000
41
1.000000
77
0
78
1
53
135.000000
43
0.000000
44
0.000000
45
-0.707107
46
-0.707107
79
0
98
0
0
HATCH
5
47
100
AcDbEntity
67
0
8
cz_logo
6
ByLayer
62
255
370
0
100
AcDbHatch
10
0.000000
20
0.000000
30
0.000000
210
0.000000
220
0.000000
230
1.000000
2
USER_DEF
70
0
71
0
91
1
92
2
72
1
73
1
93
8
10
17.400000
20
29.051800
42
0.400000
10
10.700000
20
31.051800
42
0.600000
10
10.700000
20
17.051800
42
0.400000
10
17.400000
20
19.051800
42
0.000000
10
15.800000
20
21.051800
42
-0.400000
10
11.780000
20
19.851800
42
-0.600000
10
11.780000
20
28.251800
42
-0.400000
10
15.800000
20
27.051800
42
0.000000
97
0
75
0
76
0
52
0.000000
41
1.000000
77
0
78
1
53
0.000000
43
0.000000
44
0.000000
45
0.000000
46
1.000000
79
0
98
0
0
HATCH
5
48
100
AcDbEntity
67
0
8
cz_logo
6
ByLayer
62
255
370
0
100
AcDbHatch
10
0.000000
20
0.000000
30
0.000000
210
0.000000
220
0.000000
230
1.000000
2
USER_DEF
70
0
71
0
91
1
92
2
72
1
73
1
93
10
10
18.500000
20
24.103600
42
0.000000
10
28.500000
20
24.103600
42
0.000000
10
28.500000
20
20.103600
42
0.000000
10
21.250000
20
11.750000
42
0.000000
10
28.500000
20
11.750000
42
0.000000
10
28.500000
20
9.000000
42
0.000000
10
18.500000
20
9.000000
42
0.000000
10
18.500000
20
13.000000
42
0.000000
10
25.750000
20
21.353600
42
0.000000
10
18.500000
20
21.353600
42
0.000000
97
0
75
0
76
0
52
0.000000
41
1.000000
77
0
78
1
53
0.000000
43
0.000000
44
0.000000
45
0.000000
46
1.000000
79
0
98
0
0
ENDBLK
5
49
330
41
100
AcDbEntity
8
0
100
AcDbBlockEnd
0
BLOCK
5
4C
330
4B
100
AcDbEntity
8
0
100
AcDbBlockBegin
2
logo_solid
70
0
10
0.000000
20
0.000000
30
0.000000
3
logo_solid
1

4

0
TEXT
5
4D
100
AcDbEntity
67
0
8
cz_logo
6
ByLayer
62
256
370
25
100
AcDbText
10
17.500000
20
5.000000
30
0.000000
40
5.000000
1
CadZinho
50
0.000000
7
Standard
72
1
11
17.500000
21
5.000000
31
0.000000
100
AcDbText
73
3
0
LWPOLYLINE
5
4E
100
AcDbEntity
67
0
8
cz_logo
6
ByLayer
62
255
370
-1
100
AcDbPolyline
90
10
70
1
10
18.500000
20
24.103600
30
0.000000
42
0.000000
10
28.500000
20
24.103600
30
0.000000
42
0.000000
10
28.500000
20
20.103600
30
0.000000
42
0.000000
10
21.250000
20
11.750000
30
0.000000
42
0.000000
10
28.500000
20
11.750000
30
0.000000
42
0.000000
10
28.500000
20
9.000000
30
0.000000
42
0.000000
10
18.500000
20
9.000000
30
0.000000
42
0.000000
10
18.500000
20
13.000000
30
0.000000
42
0.000000
10
25.750000
20
21.353600
30
0.000000
42
0.000000
10
18.500000
20
21.353600
30
0.000000
0
LWPOLYLINE
5
4F
100
AcDbEntity
67
0
8
cz_logo
6
ByLayer
62
255
370
-1
100
AcDbPolyline
90
8
70
1
10
17.400000
20
29.051800
30
0.000000
42
0.400000
10
10.700000
20
31.051800
30
0.000000
42
0.600000
10
10.700000
20
17.051800
30
0.000000
42
0.400000
10
17.400000
20
19.051800
30
0.000000
42
0.000000
10
15.800000
20
21.051800
30
0.000000
42
-0.400000
10
11.780000
20
19.851800
30
0.000000
42
-0.600000
10
11.780000
20
28.251800
30
0.000000
42
-0.400000
10
15.800000
20
27.051800
30
0.000000
0
LWPOLYLINE
5
50
100
AcDbEntity
67
0
8
cz_logo
6
ByLayer
62
108
370
-1
100
AcDbPolyline
90
8
70
1
10
4.500000
20
11.000000
30
0.000000
42
0.414214
10
8.500000
20
7.000000
30
0.000000
42
0.000000
10
26.500000
20
7.000000
30
0.000000
42
0.414214
10
30.500000
20
11.000000
30
0.000000
42
0.000000
10
30.500000
20
29.603600
30
0.000000
42
0.414214
10
26.500000
20
33.603600
30
0.000000
42
0.000000
10
8.500000
20
33.603600
30
0.000000
42
0.414214
10
4.500000
20
29.603600
30
0.000000
0
HATCH
5
51
100
AcDbEntity
67
0
8
cz_logo
6
ByLayer
62
108
370
-1
100
AcDbHatch
10
0.000000
20
0.000000
30
0.000000
210
0.000000
220
0.000000
230
1.000000
2
SOLID
70
1
71
0
91
3
92
2
72
1
73
1
93
8
10
4.500000
20
11.000000
42
0.414214
10
8.500000
20
7.000000
42
0.000000
10
26.500000
20
7.000000
42
0.414214
10
30.500000
20
11.000000
42
0.000000
10
30.500000
20
29.603600
42
0.414214
10
26.500000
20
33.603600
42
0.000000
10
8.500000
20
33.603600
42
0.414214
10
4.500000
20
29.603600
42
0.000000
97
0
92
2
72
1
73
1
93
8
10
17.400000
20
29.051800
42
0.400000
10
10.700000
20
31.051800
42
0.600000
10
10.700000
20
17.051800
42
0.400000
10
17.400000
20
19.051800
42
0.000000
10
15.800000
20
21.051800
42
-0.400000
10
11.780000
20
19.851800
42
-0.600000
10
11.780000
20
28.251800
42
-0.400000
10
15.800000
20
27.051800
42
0.000000
97
0
92
2
72
1
73
1
93
10
10
18.500000
20
24.103600
42
0.000000
10
28.500000
20
24.103600
42
0.000000
10
28.500000
20
20.103600
42
0.000000
10
21.250000
20
11.750000
42
0.000000
10
28.500000
20
11.750000
42
0.000000
10
28.500000
20
9.000000
42
0.000000
10
18.500000
20
9.000000
42
0.000000
10
18.500000
20
13.000000
42
0.000000
10
25.750000
20
21.353600
42
0.000000
10
18.500000
20
21.353600
42
0.000000
97
0
75
0
76
0
98
0
0
HATCH
5
52
100
AcDbEntity
67
0
8
cz_logo
6
ByLayer
62
255
370
-1
100
AcDbHatch
10
0.000000
20
0.000000
30
0.000000
210
0.000000
220
0.000000
230
1.000000
2
SOLID
70
1
71
0
91
1
92
2
72
1
73
1
93
8
10
17.400000
20
29.051800
42
0.400000
10
10.700000
20
31.051800
42
0.600000
10
10.700000
20
17.051800
42
0.400000
10
17.400000
20
19.051800
42
0.000000
10
15.800000
20
21.051800
42
-0.400000
10
11.780000
20
19.851800
42
-0.600000
10
11.780000
20
28.251800
42
-0.400000
10
15.800000
20
27.051800
42
0.000000
97
0
75
0
76
0
98
0
0
HATCH
5
53
100
AcDbEntity
67
0
8
cz_logo
6
ByLayer
62
255
370
-1
100
AcDbHatch
10
0.000000
20
0.000000
30
0.000000
210
0.000000
220
0.000000
230
1.000000
2
SOLID
70
1
71
0
91
1
92
2
72
1
73
1
93
10
10
18.500000
20
24.103600
42
0.000000
10
28.500000
20
24.103600
42
0.000000
10
28.500000
20
20.103600
42
0.000000
10
21.250000
20
11.750000
42
0.000000
10
28.500000
20
11.750000
42
0.000000
10
28.500000
20
9.000000
42
0.000000
10
18.500000
20
9.000000
42
0.000000
10
18.500000
20
13.000000
42
0.000000
10
25.750000
20
21.353600
42
0.000000
10
18.500000
20
21.353600
42
0.000000
97
0
75
0
76
0
98
0
0
ENDBLK
5
54
330
4C
100
AcDbEntity
8
0
100
AcDbBlockEnd
0
BLOCK
5
57
330
56
100
AcDbEntity
8
0
100
AcDbBlockBegin
2
logo_wire
70
0
10
0.000000
20
0.000000
30
0.000000
3
logo_wire
1

4

0
TEXT
5
58
100
AcDbEntity
67
0
8
cz_logo
6
ByLayer
62
256
370
25
100
AcDbText
10
17.500000
20
5.000000
30
0.000000
40
5.000000
1
CadZinho
50
0.000000
7
Standard
72
1
11
17.500000
21
5.000000
31
0.000000
100
AcDbText
73
3
0
LWPOLYLINE
5
59
100
AcDbEntity
67
0
8
cz_logo
6
ByLayer
62
256
370
-1
100
AcDbPolyline
90
10
70
1
10
18.500000
20
24.103600
30
0.000000
42
0.000000
10
28.500000
20
24.103600
30
0.000000
42
0.000000
10
28.500000
20
20.103600
30
0.000000
42
0.000000
10
21.250000
20
11.750000
30
0.000000
42
0.000000
10
28.500000
20
11.750000
30
0.000000
42
0.000000
10
28.500000
20
9.000000
30
0.000000
42
0.000000
10
18.500000
20
9.000000
30
0.000000
42
0.000000
10
18.500000
20
13.000000
30
0.000000
42
0.000000
10
25.750000
20
21.353600
30
0.000000
42
0.000000
10
18.500000
20
21.353600
30
0.000000
0
LWPOLYLINE
5
5A
100
AcDbEntity
67
0
8
cz_logo
6
ByLayer
62
256
370
-1
100
AcDbPolyline
90
8
70
1
10
17.400000
20
29.051800
30
0.000000
42
0.400000
10
10.700000
20
31.051800
30
0.000000
42
0.600000
10
10.700000
20
17.051800
30
0.000000
42
0.400000
10
17.400000
20
19.051800
30
0.000000
42
0.000000
10
15.800000
20
21.051800
30
0.000000
42
-0.400000
10
11.780000
20
19.851800
30
0.000000
42
-0.600000
10
11.780000
20
28.251800
30
0.000000
42
-0.400000
10
15.800000
20
27.051800
30
0.000000
0
LWPOLYLINE
5
5B
100
AcDbEntity
67
0
8
cz_logo
6
ByLayer
62
256
370
-1
100
AcDbPolyline
90
8
70
1
10
4.500000
20
11.000000
30
0.000000
42
0.414214
10
8.500000
20
7.000000
30
0.000000
42
0.000000
10
26.500000
20
7.000000
30
0.000000
42
0.414214
10
30.500000
20
11.000000
30
0.000000
42
0.000000
10
30.500000
20
29.603600
30
0.000000
42
0.414214
10
26.500000
20
33.603600
30
0.000000
42
0.000000
10
8.500000
20
33.603600
30
0.000000
42
0.414214
10
4.500000
20
29.603600
30
0.000000
0
ENDBLK
5
5C
330
57
100
AcDbEntity
8
0
100
AcDbBlockEnd
0
ENDSEC
0
SECTION
2
ENTITIES
0
TEXT
5
2E
100
AcDbEntity
67
0
8
cz_logo
6
ByLayer
62
256
370
25
100
AcDbText
10
-39.999997
20
-11.801800
30
0.000000
40
5.000000
1
CadZinho
50
0.000000
7
Standard
72
1
11
-39.999997
21
-11.801800
31
0.000000
100
AcDbText
73
3
0
LWPOLYLINE
5
2F
100
AcDbEntity
67
0
8
cz_logo
6
ByLayer
62
255
370
-1
100
AcDbPolyline
90
10
70
1
10
-38.999997
20
7.301800
30
0.000000
42
0.000000
10
-28.999997
20
7.301800
30
0.000000
42
0.000000
10
-28.999997
20
3.301800
30
0.000000
42
0.000000
10
-36.249997
20
-5.051800
30
0.000000
42
0.000000
10
-28.999997
20
-5.051800
30
0.000000
42
0.000000
10
-28.999997
20
-7.801800
30
0.000000
42
0.000000
10
-38.999997
20
-7.801800
30
0.000000
42
0.000000
10
-38.999997
20
-3.801800
30
0.000000
42
0.000000
10
-31.749997
20
4.551800
30
0.000000
42
0.000000
10
-38.999997
20
4.551800
30
0.000000
0
LWPOLYLINE
5
30
100
AcDbEntity
67
0
8
cz_logo
6
ByLayer
62
255
370
-1
100
AcDbPolyline
90
8
70
1
10
-40.099997
20
12.250000
30
0.000000
42
0.400000
10
-46.799997
20
14.250000
30
0.000000
42
0.600000
10
-46.799997
20
0.250000
30
0.000000
42
0.400000
10
-40.099997
20
2.250000
30
0.000000
42
0.000000
10
-41.699997
20
4.250000
30
0.000000
42
-0.400000
10
-45.719997
20
3.050000
30
0.000000
42
-0.600000
10
-45.719997
20
11.450000
30
0.000000
42
-0.400000
10
-41.699997
20
10.250000
30
0.000000
0
LWPOLYLINE
5
31
100
AcDbEntity
67
0
8
cz_logo
6
ByLayer
62
108
370
-1
100
AcDbPolyline
90
8
70
1
10
-52.999997
20
-5.801800
30
0.000000
42
0.414214
10
-48.999997
20
-9.801800
30
0.000000
42
0.000000
10
-30.999997
20
-9.801800
30
0.000000
42
0.414214
10
-26.999997
20
-5.801800
30
0.000000
42
0.000000
10
-26.999997
20
12.801800
30
0.000000
42
0.414214
10
-30.999997
20
16.801800
30
0.000000
42
0.000000
10
-48.999997
20
16.801800
30
0.000000
42
0.414214
10
-52.999997
20
12.801800
30
0.000000
0
HATCH
5
32
100
AcDbEntity
67
0
8
cz_logo
6
ByLayer
62
108
370
0
100
AcDbHatch
10
0.000000
20
0.000000
30
0.000000
210
0.000000
220
0.000000
230
1.000000
2
USER_DEF
70
0
71
0
91
3
92
2
72
1
73
1
93
10
10
-38.999997
20
7.301800
42
0.000000
10
-28.999997
20
7.301800
42
0.000000
10
-28.999997
20
3.301800
42
0.000000
10
-36.249997
20
-5.051800
42
0.000000
10
-28.999997
20
-5.051800
42
0.000000
10
-28.999997
20
-7.801800
42
0.000000
10
-38.999997
20
-7.801800
42
0.000000
10
-38.999997
20
-3.801800
42
0.000000
10
-31.749997
20
4.551800
42
0.000000
10
-38.999997
20
4.551800
42
0.000000
97
0
92
2
72
1
73
1
93
8
10
-40.099997
20
12.250000
42
0.400000
10
-46.799997
20
14.250000
42
0.600000
10
-46.799997
20
0.250000
42
0.400000
10
-40.099997
20
2.250000
42
0.000000
10
-41.699997
20
4.250000
42
-0.400000
10
-45.719997
20
3.050000
42
-0.600000
10
-45.719997
20
11.450000
42
-0.400000
10
-41.699997
20
10.250000
42
0.000000
97
0
92
2
72
1
73
1
93
8
10
-52.999997
20
-5.801800
42
0.414214
10
-48.999997
20
-9.801800
42
0.000000
10
-30.999997
20
-9.801800
42
0.414214
10
-26.999997
20
-5.801800
42
0.000000
10
-26.999997
20
12.801800
42
0.414214
10
-30.999997
20
16.801800
42
0.000000
10
-48.999997
20
16.801800
42
0.414214
10
-52.999997
20
12.801800
42
0.000000
97
0
75
0
76
0
52
0.000000
41
1.000000
77
0
78
1
53
135.000000
43
0.000000
44
0.000000
45
-0.707107
46
-0.707107
79
0
98
0
0
HATCH
5
33
100
AcDbEntity
67
0
8
cz_logo
6
ByLayer
62
255
370
0
100
AcDbHatch
10
0.000000
20
0.000000
30
0.000000
210
0.000000
220
0.000000
230
1.000000
2
USER_DEF
70
0
71
0
91
1
92
2
72
1
73
1
93
8
10
-40.099997
20
12.250000
42
0.400000
10
-46.799997
20
14.250000
42
0.600000
10
-46.799997
20
0.250000
42
0.400000
10
-40.099997
20
2.250000
42
0.000000
10
-41.699997
20
4.250000
42
-0.400000
10
-45.719997
20
3.050000
42
-0.600000
10
-45.719997
20
11.450000
42
-0.400000
10
-41.699997
20
10.250000
42
0.000000
97
0
75
0
76
0
52
0.000000
41
1.000000
77
0
78
1
53
0.000000
43
0.000000
44
0.000000
45
0.000000
46
1.000000
79
0
98
0
0
HATCH
5
34
100
AcDbEntity
67
0
8
cz_logo
6
ByLayer
62
255
370
0
100
AcDbHatch
10
0.000000
20
0.000000
30
0.000000
210
0.000000
220
0.000000
230
1.000000
2
USER_DEF
70
0
71
0
91
1
92
2
72
1
73
1
93
10
10
-38.999997
20
7.301800
42
0.000000
10
-28.999997
20
7.301800
42
0.000000
10
-28.999997
20
3.301800
42
0.000000
10
-36.249997
20
-5.051800
42
0.000000
10
-28.999997
20
-5.051800
42
0.000000
10
-28.999997
20
-7.801800
42
0.000000
10
-38.999997
20
-7.801800
42
0.000000
10
-38.999997
20
-3.801800
42
0.000000
10
-31.749997
20
4.551800
42
0.000000
10
-38.999997
20
4.551800
42
0.000000
97
0
75
0
76
0
52
0.000000
41
1.000000
77
0
78
1
53
0.000000
43
0.000000
44
0.000000
45
0.000000
46
1.000000
79
0
98
0
0
TEXT
5
35
100
AcDbEntity
67
0
8
cz_logo
6
ByLayer
62
256
370
25
100
AcDbText
10
0.000000
20
-11.801800
30
0.000000
40
5.000000
1
CadZinho
50
0.000000
7
Standard
72
1
11
0.000000
21
-11.801800
31
0.000000
100
AcDbText
73
3
0
LWPOLYLINE
5
36
100
AcDbEntity
67
0
8
cz_logo
6
ByLayer
62
255
370
-1
100
AcDbPolyline
90
10
70
1
10
1.000000
20
7.301800
30
0.000000
42
0.000000
10
11.000000
20
7.301800
30
0.000000
42
0.000000
10
11.000000
20
3.301800
30
0.000000
42
0.000000
10
3.750000
20
-5.051800
30
0.000000
42
0.000000
10
11.000000
20
-5.051800
30
0.000000
42
0.000000
10
11.000000
20
-7.801800
30
0.000000
42
0.000000
10
1.000000
20
-7.801800
30
0.000000
42
0.000000
10
1.000000
20
-3.801800
30
0.000000
42
0.000000
10
8.250000
20
4.551800
30
0.000000
42
0.000000
10
1.000000
20
4.551800
30
0.000000
0
LWPOLYLINE
5
37
100
AcDbEntity
67
0
8
cz_logo
6
ByLayer
62
255
370
-1
100
AcDbPolyline
90
8
70
1
10
-0.100000
20
12.250000
30
0.000000
42
0.400000
10
-6.800000
20
14.250000
30
0.000000
42
0.600000
10
-6.800000
20
0.250000
30
0.000000
42
0.400000
10
-0.100000
20
2.250000
30
0.000000
42
0.000000
10
-1.700000
20
4.250000
30
0.000000
42
-0.400000
10
-5.720000
20
3.050000
30
0.000000
42
-0.600000
10
-5.720000
20
11.450000
30
0.000000
42
-0.400000
10
-1.700000
20
10.250000
30
0.000000
0
LWPOLYLINE
5
38
100
AcDbEntity
67
0
8
cz_logo
6
ByLayer
62
108
370
-1
100
AcDbPolyline
90
8
70
1
10
-13.000000
20
-5.801800
30
0.000000
42
0.414214
10
-9.000000
20
-9.801800
30
0.000000
42
0.000000
10
9.000000
20
-9.801800
30
0.000000
42
0.414214
10
13.000000
20
-5.801800
30
0.000000
42
0.000000
10
13.000000
20
12.801800
30
0.000000
42
0.414214
10
9.000000
20
16.801800
30
0.000000
42
0.000000
10
-9.000000
20
16.801800
30
0.000000
42
0.414214
10
-13.000000
20
12.801800
30
0.000000
0
TEXT
5
39
100
AcDbEntity
67
0
8
cz_logo
6
ByLayer
62
256
370
25
100
AcDbText
10
39.999997
20
-11.801800
30
0.000000
40
5.000000
1
CadZinho
50
0.000000
7
Standard
72
1
11
39.999997
21
-11.801800
31
0.000000
100
AcDbText
73
3
0
LWPOLYLINE
5
3A
100
AcDbEntity
67
0
8
cz_logo
6
ByLayer
62
256
370
-1
100
AcDbPolyline
90
10
70
1
10
40.999997
20
7.301800
30
0.000000
42
0.000000
10
50.999997
20
7.301800
30
0.000000
42
0.000000
10
50.999997
20
3.301800
30
0.000000
42
0.000000
10
43.749997
20
-5.051800
30
0.000000
42
0.000000
10
50.999997
20
-5.051800
30
0.000000
42
0.000000
10
50.999997
20
-7.801800
30
0.000000
42
0.000000
10
40.999997
20
-7.801800
30
0.000000
42
0.000000
10
40.999997
20
-3.801800
30
0.000000
42
0.000000
10
48.249997
20
4.551800
30
0.000000
42
0.000000
10
40.999997
20
4.551800
30
0.000000
0
LWPOLYLINE
5
3B
100
AcDbEntity
67
0
8
cz_logo
6
ByLayer
62
256
370
-1
100
AcDbPolyline
90
8
70
1
10
39.899997
20
12.250000
30
0.000000
42
0.400000
10
33.199997
20
14.250000
30
0.000000
42
0.600000
10
33.199997
20
0.250000
30
0.000000
42
0.400000
10
39.899997
20
2.250000
30
0.000000
42
0.000000
10
38.299997
20
4.250000
30
0.000000
42
-0.400000
10
34.279997
20
3.050000
30
0.000000
42
-0.600000
10
34.279997
20
11.450000
30
0.000000
42
-0.400000
10
38.299997
20
10.250000
30
0.000000
0
LWPOLYLINE
5
3C
100
AcDbEntity
67
0
8
cz_logo
6
ByLayer
62
256
370
-1
100
AcDbPolyline
90
8
70
1
10
26.999997
20
-5.801800
30
0.000000
42
0.414214
10
30.999997
20
-9.801800
30
0.000000
42
0.000000
10
48.999997
20
-9.801800
30
0.000000
42
0.414214
10
52.999997
20
-5.801800
30
0.000000
42
0.000000
10
52.999997
20
12.801800
30
0.000000
42
0.414214
10
48.999997
20
16.801800
30
0.000000
42
0.000000
10
30.999997
20
16.801800
30
0.000000
42
0.414214
10
26.999997
20
12.801800
30
0.000000
0
HATCH
5
3D
100
AcDbEntity
67
0
8
cz_logo
6
ByLayer
62
108
370
-1
100
AcDbHatch
10
0.000000
20
0.000000
30
0.000000
210
0.000000
220
0.000000
230
1.000000
2
SOLID
70
1
71
0
91
3
92
2
72
1
73
1
93
8
10
-13.000000
20
-5.801800
42
0.414214
10
-9.000000
20
-9.801800
42
0.000000
10
9.000000
20
-9.801800
42
0.414214
10
13.000000
20
-5.801800
42
0.000000
10
13.000000
20
12.801800
42
0.414214
10
9.000000
20
16.801800
42
0.000000
10
-9.000000
20
16.801800
42
0.414214
10
-13.000000
20
12.801800
42
0.000000
97
0
92
2
72
1
73
1
93
8
10
-0.100000
20
12.250000
42
0.400000
10
-6.800000
20
14.250000
42
0.600000
10
-6.800000
20
0.250000
42
0.400000
10
-0.100000
20
2.250000
42
0.000000
10
-1.700000
20
4.250000
42
-0.400000
10
-5.720000
20
3.050000
42
-0.600000
10
-5.720000
20
11.450000
42
-0.400000
10
-1.700000
20
10.250000
42
0.000000
97
0
92
2
72
1
73
1
93
10
10
1.000000
20
7.301800
42
0.000000
10
11.000000
20
7.301800
42
0.000000
10
11.000000
20
3.301800
42
0.000000
10
3.750000
20
-5.051800
42
0.000000
10
11.000000
20
-5.051800
42
0.000000
10
11.000000
20
-7.801800
42
0.000000
10
1.000000
20
-7.801800
42
0.000000
10
1.000000
20
-3.801800
42
0.000000
10
8.250000
20
4.551800
42
0.000000
10
1.000000
20
4.551800
42
0.000000
97
0
75
0
76
0
98
0
0
HATCH
5
3E
100
AcDbEntity
67
0
8
cz_logo
6
ByLayer
62
255
370
-1
100
AcDbHatch
10
0.000000
20
0.000000
30
0.000000
210
0.000000
220
0.000000
230
1.000000
2
SOLID
70
1
71
0
91
1
92
2
72
1
73
1
93
8
10
-0.100000
20
12.250000
42
0.400000
10
-6.800000
20
14.250000
42
0.600000
10
-6.800000
20
0.250000
42
0.400000
10
-0.100000
20
2.250000
42
0.000000
10
-1.700000
20
4.250000
42
-0.400000
10
-5.720000
20
3.050000
42
-0.600000
10
-5.720000
20
11.450000
42
-0.400000
10
-1.700000
20
10.250000
42
0.000000
97
0
75
0
76
0
98
0
0
HATCH
5
3F
100
AcDbEntity
67
0
8
cz_logo
6
ByLayer
62
255
370
-1
100
AcDbHatch
10
0.000000
20
0.000000
30
0.000000
210
0.000000
220
0.000000
230
1.000000
2
SOLID
70
1
71
0
91
1
92
2
72
1
73
1
93
10
10
1.000000
20
7.301800
42
0.000000
10
11.000000
20
7.301800
42
0.000000
10
11.000000
20
3.301800
42
0.000000
10
3.750000
20
-5.051800
42
0.000000
10
11.000000
20
-5.051800
42
0.000000
10
11.000000
20
-7.801800
42
0.000000
10
1.000000
20
-7.801800
42
0.000000
10
1.000000
20
-3.801800
42
0.000000
10
8.250000
20
4.551800
42
0.000000
10
1.000000
20
4.551800
42
0.000000
97
0
75
0
76
0
98
0
0
INSERT
5
4A
100
AcDbEntity
67
0
8
0
6
ByLayer
62
256
370
-1
100
AcDbBlockReference
66
0
2
logo_hatch
10
-57.499997
20
33.198200
30
0.000000
41
1.000000
42
1.000000
43
1.000000
50
0.000000
0
INSERT
5
55
100
AcDbEntity
67
0
8
0
6
ByLayer
62
256
370
-1
100
AcDbBlockReference
66
0
2
logo_solid
10
-17.500000
20
33.198200
30
0.000000
41
1.000000
42
1.000000
43
1.000000
50
0.000000
0
INSERT
5
5D
100
AcDbEntity
67
0
8
0
6
ByLayer
62
256
370
-1
100
AcDbBlockReference
66
0
2
logo_wire
10
22.499994
20
33.198200
30
0.000000
41
1.000000
42
1.000000
43
1.000000
50
0.000000
0
ENDSEC
0
SECTION
2
OBJECTS
0
DICTIONARY
5
22
100
AcDbDictionary
281
1
3
ACAD_COLOR
350
23
3
ACAD_GROUP
350
26
3
ACAD_LAYOUT
350
27
3
ACAD_MATERIAL
350
28
3
ACAD_MLINESTYLE
350
29
3
ACAD_PLOTSETTINGS
350
2A
3
ACAD_PLOTSTYLENAME
350
2B
3
ACAD_TABLESTYLE
350
2C
3
AcadDim
350
2D
0
DICTIONARY
5
23
100
AcDbDictionary
0
DICTIONARY
5
26
100
AcDbDictionary
0
DICTIONARY
5
27
100
AcDbDictionary
0
DICTIONARY
5
28
100
AcDbDictionary
0
DICTIONARY
5
29
100
AcDbDictionary
0
DICTIONARY
5
2A
100
AcDbDictionary
0
DICTIONARY
5
2B
100
AcDbDictionary
0
DICTIONARY
5
2C
100
AcDbDictionary
0
DICTIONARY
5
2D
100
AcDbDictionary
0
ENDSEC
0
EOF
