<svg width="1188.0000" height="840.0000" version="1.1" xmlns="http://www.w3.org/2000/svg" xmlns:xlink="http://www.w3.org/1999/xlink">
<path stroke="rgb(0, 0, 0)" fill="none" d="M220.8 520.5 L393.6 520.5 "/>
<path stroke="rgb(0, 0, 0)" fill="none" d="M393.6 520.5 L393.6 674.1 "/>
<path stroke="rgb(0, 0, 0)" fill="none" d="M393.6 674.1 L220.8 674.1 "/>
<path stroke="rgb(0, 0, 0)" fill="none" d="M393.6 554.1 L547.2 554.1 "/>
<path stroke="rgb(0, 0, 0)" fill="none" d="M547.2 554.1 L547.2 640.5 "/>
<path stroke="rgb(0, 0, 0)" fill="none" d="M547.2 640.5 L393.6 640.5 "/>
<path stroke="rgb(0, 0, 0)" fill="none" d="M393.6 402.6 L393.6 210.6 "/>
<path stroke="rgb(0, 0, 0)" fill="none" d="M393.6 263.4 L547.2 263.4 "/>
<path stroke="rgb(0, 0, 0)" fill="none" d="M547.2 263.4 L547.2 349.8 "/>
<path stroke="rgb(0, 0, 0)" fill="none" d="M547.2 349.8 L393.6 349.8 "/>
<path stroke="rgb(0, 0, 0)" fill="none" d="M838 299.4 L987.7 213 "/>
<path stroke="rgb(0, 0, 0)" fill="none" d="M987.7 213 L987.7 366.6 "/>
<path stroke="rgb(0, 0, 0)" fill="none" d="M987.7 366.6 L838 453 "/>
<path stroke="rgb(0, 0, 0)" fill="none" d="M838 299.4 L836.4 300.4 L834.8 301.4 L833.1 302.4 L831.5 303.5 L829.9 304.7 L828.3 305.9 L826.7 307.1 L825.1 308.4 L823.5 309.7 L821.9 311 L820.3 312.4 L818.7 313.9 L817.2 315.3 L815.6 316.8 L814.1 318.4 L812.6 319.9 L811.1 321.6 L809.6 323.2 L808.1 324.9 L806.7 326.6 L805.3 328.3 L803.8 330.1 L802.4 331.9 L801.1 333.7 L799.7 335.5 L798.4 337.4 L797.1 339.3 L795.8 341.2 L794.6 343.1 L793.4 345.1 L792.2 347.1 L791 349.1 L789.9 351.1 L788.8 353.1 L787.7 355.1 L786.6 357.2 L785.6 359.2 L784.6 361.3 L783.7 363.4 L782.7 365.5 L781.8 367.6 L781 369.7 L780.2 371.8 L779.4 373.9 L778.6 376 L777.9 378.1 L777.2 380.2 L776.6 382.3 L776 384.4 L775.4 386.5 L774.9 388.6 L774.4 390.7 L773.9 392.7 L773.5 394.8 L773.1 396.8 L772.8 398.9 L772.5 400.9 L772.2 402.9 L772 404.9 L771.8 406.9 L771.7 408.9 L771.6 410.8 L771.5 412.7 L771.5 414.6 L771.5 416.5 L771.6 418.3 L771.7 420.2 L771.8 421.9 L772 423.7 L772.2 425.5 L772.5 427.2 L772.8 428.9 L773.1 430.5 L773.5 432.1 L773.9 433.7 L774.4 435.2 L774.9 436.8 L775.4 438.2 L776 439.7 L776.6 441.1 L777.2 442.4 L777.9 443.8 L778.6 445 L779.4 446.3 L780.2 447.5 L781 448.6 L781.8 449.7 L782.7 450.8 L783.7 451.8 L784.6 452.8 L785.6 453.7 L786.6 454.6 L787.7 455.4 L788.8 456.2 L789.9 457 L791 457.7 L792.2 458.3 L793.4 458.9 L794.6 459.4 L795.8 459.9 L797.1 460.4 L798.4 460.8 L799.7 461.1 L801.1 461.4 L802.4 461.6 L803.8 461.8 L805.3 462 L806.7 462 L808.1 462.1 L809.6 462.1 L811.1 462 L812.6 461.9 L814.1 461.7 L815.6 461.5 L817.2 461.2 L818.7 460.8 L820.3 460.5 L821.9 460 L823.5 459.6 L825.1 459 L826.7 458.4 L828.3 457.8 L829.9 457.1 L831.5 456.4 L833.1 455.6 L834.8 454.8 L836.4 453.9 L838 453 "/>
<path stroke="rgb(0, 0, 0)" fill="none" d="M861.5 335.5 L861 335.2 L860.4 334.9 L859.8 334.6 L859.1 334.3 L858.5 334.1 L857.8 333.9 L857.2 333.8 L856.5 333.6 L855.8 333.5 L855.1 333.4 L854.4 333.3 L853.7 333.3 L853 333.3 L852.3 333.3 L851.5 333.3 L850.8 333.4 L850 333.5 L849.2 333.6 L848.5 333.7 L847.7 333.9 L846.9 334.1 L846.1 334.3 L845.3 334.5 L844.5 334.8 L843.7 335.1 L842.9 335.4 L842.1 335.7 L841.3 336.1 L840.5 336.5 L839.7 336.9 L838.8 337.3 L838 337.8 L837.2 338.3 L836.4 338.8 L835.6 339.3 L834.8 339.9 L834 340.4 L833.2 341 L832.3 341.7 L831.5 342.3 L830.7 342.9 L830 343.6 L829.2 344.3 L828.4 345 L827.6 345.8 L826.8 346.5 L826.1 347.3 L825.3 348.1 L824.6 348.9 L823.8 349.7 L823.1 350.5 L822.4 351.4 L821.6 352.3 L820.9 353.1 L820.2 354 L819.6 354.9 L818.9 355.9 L818.2 356.8 L817.6 357.7 L816.9 358.7 L816.3 359.7 L815.7 360.6 L815.1 361.6 L814.5 362.6 L813.9 363.6 L813.4 364.6 L812.9 365.7 L812.3 366.7 L811.8 367.7 L811.3 368.8 L810.8 369.8 L810.4 370.8 L809.9 371.9 L809.5 372.9 L809.1 374 L808.7 375 L808.3 376.1 L808 377.1 L807.6 378.2 L807.3 379.3 L807 380.3 L806.7 381.3 L806.5 382.4 L806.2 383.4 L806 384.5 L805.8 385.5 L805.6 386.5 L805.4 387.5 L805.3 388.6 L805.1 389.6 L805 390.6 L804.9 391.6 L804.9 392.5 L804.8 393.5 L804.8 394.5 L804.8 395.4 L804.8 396.3 L804.8 397.3 L804.9 398.2 L804.9 399.1 L805 400 L805.1 400.8 L805.3 401.7 L805.4 402.5 L805.6 403.4 L805.8 404.2 L806 405 L806.2 405.7 L806.5 406.5 L806.7 407.2 L807 407.9 L807.3 408.6 L807.6 409.3 L808 410 L808.3 410.6 L808.7 411.2 L809.1 411.8 L809.5 412.4 L809.9 413 L810.4 413.5 L810.8 414 L811.3 414.5 L811.8 415 L812.3 415.4 L812.9 415.8 L813.4 416.2 L813.9 416.6 L814.5 416.9 L815.1 417.3 L815.7 417.6 L816.3 417.8 L816.9 418.1 L817.6 418.3 L818.2 418.5 L818.9 418.7 L819.6 418.8 L820.2 418.9 L820.9 419 L821.6 419.1 L822.4 419.1 L823.1 419.1 L823.8 419.1 L824.6 419.1 L825.3 419 L826.1 418.9 L826.8 418.8 L827.6 418.7 L828.4 418.5 L829.2 418.3 L830 418.1 L830.7 417.9 L831.5 417.6 L832.3 417.3 L833.2 417 L834 416.7 L834.8 416.3 L835.6 415.9 L836.4 415.5 L837.2 415.1 L838 414.6 L838.8 414.1 L839.7 413.6 L840.5 413.1 L841.3 412.5 L842.1 412 L842.9 411.4 L843.7 410.8 L844.5 410.1 L845.3 409.5 L846.1 408.8 L846.9 408.1 L847.7 407.4 L848.5 406.6 L849.2 405.9 L850 405.1 L850.8 404.3 L851.5 403.5 L852.3 402.7 L853 401.9 L853.7 401 L854.4 400.2 L855.1 399.3 L855.8 398.4 L856.5 397.5 L857.2 396.5 L857.8 395.6 L858.5 394.7 L859.1 393.7 L859.8 392.7 L860.4 391.8 L861 390.8 L861.5 389.8 L862.1 388.8 L862.7 387.8 L863.2 386.8 L863.7 385.7 L864.2 384.7 L864.7 383.7 L865.2 382.6 L865.7 381.6 L866.1 380.5 L866.6 379.5 L867 378.4 L867.4 377.4 L867.7 376.3 L868.1 375.3 L868.4 374.2 L868.8 373.2 L869.1 372.1 L869.3 371.1 L869.6 370 L869.9 369 L870.1 367.9 L870.3 366.9 L870.5 365.9 L870.6 364.9 L870.8 363.9 L870.9 362.8 L871 361.9 L871.1 360.9 L871.2 359.9 L871.2 358.9 L871.3 358 L871.3 357 L871.3 356.1 L871.2 355.1 L871.2 354.2 L871.1 353.3 L871 352.5 L870.9 351.6 L870.8 350.7 L870.6 349.9 L870.5 349.1 L870.3 348.3 L870.1 347.5 L869.9 346.7 L869.6 345.9 L869.3 345.2 L869.1 344.5 L868.8 343.8 L868.4 343.1 L868.1 342.4 L867.7 341.8 L867.4 341.2 L867 340.6 L866.6 340 L866.1 339.4 L865.7 338.9 L865.2 338.4 L864.7 337.9 L864.2 337.4 L863.7 337 L863.2 336.6 L862.7 336.2 L861.5 335.5 "/>
<path stroke="rgb(0, 0, 0)" fill="none" d="M987.7 213 L821.4 117 "/>
<path stroke="rgb(0, 0, 0)" fill="none" d="M896.2 213 L792.3 273 "/>
<path stroke="rgb(0, 0, 0)" fill="none" d="M821.4 169.8 L896.2 213 "/>
<path stroke="rgb(0, 0, 0)" fill="none" d="M821.4 169.8 L717.5 229.8 "/>
<path stroke="rgb(0, 0, 0)" fill="none" d="M671.8 203.4 L821.4 117 "/>
<path stroke="rgb(0, 0, 0)" fill="none" d="M717.5 229.8 L715.9 230.8 L714.2 231.8 L712.6 232.8 L711 233.9 L709.3 235.1 L707.7 236.3 L706.1 237.5 L704.5 238.8 L702.9 240.1 L701.3 241.4 L699.7 242.8 L698.2 244.3 L696.6 245.7 L695.1 247.2 L693.5 248.8 L692 250.3 L690.5 252 L689 253.6 L687.6 255.3 L686.1 257 L684.7 258.7 L683.3 260.5 L681.9 262.3 L680.5 264.1 L679.2 265.9 L677.9 267.8 L676.6 269.7 L675.3 271.6 L674 273.5 L672.8 275.5 L671.6 277.5 L670.5 279.5 L669.3 281.5 L668.2 283.5 L667.1 285.5 L666.1 287.6 L665 289.6 L664.1 291.7 L663.1 293.8 L662.2 295.9 L661.3 298 L660.4 300.1 L659.6 302.2 L658.8 304.3 L658.1 306.4 L657.4 308.5 L656.7 310.6 L656 312.7 L655.4 314.8 L654.9 316.9 L654.3 319 L653.8 321.1 L653.4 323.1 L653 325.2 L652.6 327.2 L652.2 329.3 L652 331.3 L651.7 333.3 L651.5 335.3 L651.3 337.3 L651.2 339.3 L651.1 341.2 L651 343.1 L651 345 L651 346.9 L651.1 348.7 L651.2 350.6 L651.3 352.3 L651.5 354.1 L651.7 355.9 L652 357.6 L652.2 359.3 L652.6 360.9 L653 362.5 L653.4 364.1 L653.8 365.6 L654.3 367.2 L654.9 368.6 L655.4 370.1 L656 371.5 L656.7 372.8 L657.4 374.2 L658.1 375.4 L658.8 376.7 L659.6 377.9 L660.4 379 L661.3 380.1 L662.2 381.2 L663.1 382.2 L664.1 383.2 L665 384.1 L666.1 385 L667.1 385.8 L668.2 386.6 L669.3 387.4 L670.5 388.1 L671.6 388.7 L672.8 389.3 L674 389.8 L675.3 390.3 L676.6 390.8 L677.9 391.2 L679.2 391.5 L680.5 391.8 L681.9 392 L683.3 392.2 L684.7 392.4 L686.1 392.4 L687.6 392.5 L689 392.5 L690.5 392.4 L692 392.3 L693.5 392.1 L695.1 391.9 L696.6 391.6 L698.2 391.2 L699.7 390.9 L701.3 390.4 L702.9 390 L704.5 389.4 L706.1 388.8 L707.7 388.2 L709.3 387.5 L711 386.8 L712.6 386 L714.2 385.2 L715.9 384.3 L717.5 383.4 "/>
<path stroke="rgb(0, 0, 0)" fill="none" d="M741 265.9 L740.4 265.6 L739.8 265.3 L739.2 265 L738.6 264.7 L737.9 264.5 L737.3 264.3 L736.6 264.2 L736 264 L735.3 263.9 L734.6 263.8 L733.9 263.7 L733.2 263.7 L732.4 263.7 L731.7 263.7 L731 263.7 L730.2 263.8 L729.5 263.9 L728.7 264 L727.9 264.1 L727.1 264.3 L726.4 264.5 L725.6 264.7 L724.8 264.9 L724 265.2 L723.2 265.5 L722.4 265.8 L721.6 266.1 L720.7 266.5 L719.9 266.9 L719.1 267.3 L718.3 267.7 L717.5 268.2 L716.7 268.7 L715.9 269.2 L715 269.7 L714.2 270.3 L713.4 270.8 L712.6 271.4 L711.8 272.1 L711 272.7 L710.2 273.3 L709.4 274 L708.6 274.7 L707.8 275.4 L707.1 276.2 L706.3 276.9 L705.5 277.7 L704.8 278.5 L704 279.3 L703.3 280.1 L702.5 280.9 L701.8 281.8 L701.1 282.7 L700.4 283.5 L699.7 284.4 L699 285.3 L698.3 286.3 L697.7 287.2 L697 288.1 L696.4 289.1 L695.8 290.1 L695.1 291 L694.6 292 L694 293 L693.4 294 L692.8 295 L692.3 296.1 L691.8 297.1 L691.3 298.1 L690.8 299.2 L690.3 300.2 L689.8 301.2 L689.4 302.3 L689 303.3 L688.5 304.4 L688.2 305.4 L687.8 306.5 L687.4 307.5 L687.1 308.6 L686.8 309.7 L686.5 310.7 L686.2 311.7 L685.9 312.8 L685.7 313.8 L685.4 314.9 L685.2 315.9 L685 316.9 L684.9 317.9 L684.7 319 L684.6 320 L684.5 321 L684.4 322 L684.3 322.9 L684.3 323.9 L684.2 324.9 L684.2 325.8 L684.2 326.7 L684.3 327.7 L684.3 328.6 L684.4 329.5 L684.5 330.4 L684.6 331.2 L684.7 332.1 L684.9 332.9 L685 333.8 L685.2 334.6 L685.4 335.4 L685.7 336.1 L685.9 336.9 L686.2 337.6 L686.5 338.3 L686.8 339 L687.1 339.7 L687.4 340.4 L687.8 341 L688.2 341.6 L688.5 342.2 L689 342.8 L689.4 343.4 L689.8 343.9 L690.3 344.4 L690.8 344.9 L691.3 345.4 L691.8 345.8 L692.3 346.2 L692.8 346.6 L693.4 347 L694 347.3 L694.6 347.7 L695.1 348 L695.8 348.2 L696.4 348.5 L697 348.7 L697.7 348.9 L698.3 349.1 L699 349.2 L699.7 349.3 L700.4 349.4 L701.1 349.5 L701.8 349.5 L702.5 349.5 L703.3 349.5 L704 349.5 L704.8 349.4 L705.5 349.3 L706.3 349.2 L707.1 349.1 L707.8 348.9 L708.6 348.7 L709.4 348.5 L710.2 348.3 L711 348 L711.8 347.7 L712.6 347.4 L713.4 347.1 L714.2 346.7 L715 346.3 L715.9 345.9 L716.7 345.5 L717.5 345 L718.3 344.5 L719.1 344 L719.9 343.5 L720.7 342.9 L721.6 342.4 L722.4 341.8 L723.2 341.2 L724 340.5 L724.8 339.9 L725.6 339.2 L726.4 338.5 L727.1 337.8 L727.9 337 L728.7 336.3 L729.5 335.5 L730.2 334.7 L731 333.9 L731.7 333.1 L732.4 332.3 L733.2 331.4 L733.9 330.6 L734.6 329.7 L735.3 328.8 L736 327.9 L736.6 326.9 L737.3 326 L737.9 325.1 L738.6 324.1 L739.2 323.1 L739.8 322.2 L740.4 321.2 L741 320.2 L741.6 319.2 L742.1 318.2 L742.7 317.2 L743.2 316.1 L743.7 315.1 L744.2 314.1 L744.7 313 L745.1 312 L745.6 310.9 L746 309.9 L746.4 308.8 L746.8 307.8 L747.2 306.7 L747.5 305.7 L747.9 304.6 L748.2 303.6 L748.5 302.5 L748.8 301.5 L749.1 300.4 L749.3 299.4 L749.5 298.3 L749.7 297.3 L749.9 296.3 L750.1 295.3 L750.2 294.3 L750.4 293.2 L750.5 292.3 L750.6 291.3 L750.6 290.3 L750.7 289.3 L750.7 288.4 L750.7 287.4 L750.7 286.5 L750.7 285.5 L750.6 284.6 L750.6 283.7 L750.5 282.9 L750.4 282 L750.2 281.1 L750.1 280.3 L749.9 279.5 L749.7 278.7 L749.5 277.9 L749.3 277.1 L749.1 276.3 L748.8 275.6 L748.5 274.9 L748.2 274.2 L747.9 273.5 L747.5 272.8 L747.2 272.2 L746.8 271.6 L746.4 271 L746 270.4 L745.6 269.8 L745.1 269.3 L744.7 268.8 L744.2 268.3 L743.7 267.8 L743.2 267.4 L742.7 267 L742.1 266.6 L741 265.9 "/>
<path stroke="rgb(0, 0, 0)" fill="none" d="M791 457.7 L745.3 431.3 "/>
<path stroke="rgb(0, 0, 0)" fill="none" d="M792.3 273 L790.7 274 L789 275 L787.4 276 L785.8 277.1 L784.2 278.3 L782.5 279.5 L780.9 280.7 L779.3 282 L777.7 283.3 L776.1 284.6 L774.6 286 L773 287.5 L771.4 288.9 L769.9 290.4 L768.4 292 L766.9 293.5 L765.4 295.2 L763.9 296.8 L762.4 298.5 L761 300.2 L759.5 301.9 L758.1 303.7 L756.7 305.5 L755.4 307.3 L754 309.1 L752.7 311 L751.4 312.9 L750.1 314.8 L748.9 316.7 L747.6 318.7 L746.4 320.7 L745.3 322.7 L744.1 324.7 L743 326.7 L741.9 328.7 L740.9 330.8 L739.9 332.8 L738.9 334.9 L737.9 337 L737 339.1 L736.1 341.2 L735.3 343.3 L734.4 345.4 L733.6 347.5 L732.9 349.6 L732.2 351.7 L731.5 353.8 L730.9 355.9 L730.3 358 L729.7 360.1 L729.2 362.2 L728.7 364.3 L728.2 366.3 L727.8 368.4 L727.4 370.4 L727.1 372.5 L726.8 374.5 L726.5 376.5 L726.3 378.5 L726.1 380.5 L726 382.5 L725.9 384.4 L725.8 386.3 L725.8 388.2 L725.8 390.1 L725.9 391.9 L726 393.8 L726.1 395.5 L726.3 397.3 L726.5 399.1 L726.8 400.8 L727.1 402.5 L727.4 404.1 L727.8 405.7 L728.2 407.3 L728.7 408.8 L729.2 410.4 L729.7 411.8 L730.3 413.3 L730.9 414.7 L731.5 416 L732.2 417.4 L732.9 418.6 L733.6 419.9 L734.4 421.1 L735.3 422.2 L736.1 423.3 L737 424.4 L737.9 425.4 L738.9 426.4 L739.9 427.3 L740.9 428.2 L741.9 429 L743 429.8 L744.1 430.6 L745.3 431.3 "/>
<path stroke="rgb(0, 0, 0)" fill="none" d="M821.4 169.8 L821.4 256.2 "/>
<path stroke="rgb(0, 0, 0)" fill="none" d="M670.5 388.1 L624.7 361.7 "/>
<path stroke="rgb(0, 0, 0)" fill="none" d="M671.8 203.4 L670.1 204.4 L668.5 205.4 L666.9 206.4 L665.2 207.5 L663.6 208.7 L662 209.9 L660.4 211.1 L658.8 212.4 L657.2 213.7 L655.6 215 L654 216.4 L652.4 217.9 L650.9 219.3 L649.3 220.8 L647.8 222.4 L646.3 223.9 L644.8 225.6 L643.3 227.2 L641.9 228.9 L640.4 230.6 L639 232.3 L637.6 234.1 L636.2 235.9 L634.8 237.7 L633.5 239.5 L632.1 241.4 L630.8 243.3 L629.6 245.2 L628.3 247.1 L627.1 249.1 L625.9 251.1 L624.7 253.1 L623.6 255.1 L622.5 257.1 L621.4 259.1 L620.3 261.2 L619.3 263.2 L618.3 265.3 L617.4 267.4 L616.5 269.5 L615.6 271.6 L614.7 273.7 L613.9 275.8 L613.1 277.9 L612.3 280 L611.6 282.1 L611 284.2 L610.3 286.3 L609.7 288.4 L609.1 290.5 L608.6 292.6 L608.1 294.7 L607.7 296.7 L607.2 298.8 L606.9 300.8 L606.5 302.9 L606.2 304.9 L606 306.9 L605.7 308.9 L605.6 310.9 L605.4 312.9 L605.3 314.8 L605.3 316.7 L605.2 318.6 L605.3 320.5 L605.3 322.3 L605.4 324.2 L605.6 325.9 L605.7 327.7 L606 329.5 L606.2 331.2 L606.5 332.9 L606.9 334.5 L607.2 336.1 L607.7 337.7 L608.1 339.2 L608.6 340.8 L609.1 342.2 L609.7 343.7 L610.3 345.1 L611 346.4 L611.6 347.8 L612.3 349 L613.1 350.3 L613.9 351.5 L614.7 352.6 L615.6 353.7 L616.5 354.8 L617.4 355.8 L618.3 356.8 L619.3 357.7 L620.3 358.6 L621.4 359.4 L622.5 360.2 L623.6 361 L624.7 361.7 "/>
<path stroke="rgb(0, 0, 0)" fill="none" d="M1064 210.8 L1065 210.4 L1065 210 L1066 209.6 L1066 209.1 L1067 208.6 L1068 208.1 L1068 207.5 L1069 207 L1069 206.4 L1070 205.7 L1070 205.1 L1071 204.4 L1071 203.7 L1071 203 L1072 202.3 L1072 201.5 L1072 200.7 L1073 199.9 L1073 199.1 L1073 198.2 L1074 197.3 L1074 196.5 L1074 195.5 L1074 194.6 L1074 193.7 L1075 192.7 L1075 191.7 L1075 190.7 L1075 189.7 L1075 188.7 L1075 187.7 L1075 186.6 L1075 185.5 L1075 184.5 L1075 183.4 L1075 182.3 L1075 181.2 L1075 180 L1074 178.9 L1074 177.8 L1074 176.6 L1074 175.5 L1074 174.3 L1073 173.1 L1073 172 L1073 170.8 L1072 169.6 L1072 168.4 L1072 167.2 L1071 166.1 L1071 164.9 L1071 163.7 L1070 162.5 L1070 161.3 L1069 160.1 L1069 159 L1068 157.8 L1068 156.6 L1067 155.5 L1066 154.3 L1066 153.1 L1065 152 L1065 150.9 L1064 149.7 L1063 148.6 L1063 147.5 L1062 146.4 L1061 145.3 L1061 144.2 L1060 143.2 L1059 142.1 L1058 141.1 L1058 140.1 L1057 139.1 L1056 138.1 L1055 137.1 L1054 136.1 L1054 135.2 L1053 134.3 L1052 133.4 L1051 132.5 L1050 131.6 L1049 130.8 L1048 129.9 L1048 129.1 L1047 128.3 L1046 127.6 L1045 126.9 L1044 126.1 L1043 125.4 L1042 124.8 L1041 124.1 L1040 123.5 L1039 122.9 L1038 122.4 L1038 121.8 L1037 121.3 L1036 120.8 L1035 120.3 L1034 119.9 L1033 119.5 L1032 119.1 L1031 118.8 L1030 118.4 L1029 118.1 L1028 117.9 L1028 117.6 L1027 117.4 L1026 117.2 L1025 117.1 L1024 116.9 L1023 116.8 L1022 116.8 L1022 116.7 L1021 116.7 L1020 116.7 L1019 116.8 L1018 116.8 L1018 117 L1017 117.1 L1016 117.2 L1015 117.4 L1015 117.7 L1014 117.9 L1013 118.2 L1012 118.5 L1011 119.2 "/>
<path stroke="rgb(0, 0, 0)" fill="none" d="M1011 119.2 L918.1 172.9 "/>
<path stroke="rgb(0, 0, 0)" fill="none" d="M1064 210.8 L987.7 254.9 "/>
<path stroke="rgb(0, 0, 0)" fill="none" d="M340.8 349.8 L340.8 263.4 "/>
<path stroke-dasharray="12,6" stroke="rgb(0, 255, 0)" fill="none" d="M259.2 263.4 L259.2 210.6 "/>
<path stroke-dasharray="12,6" stroke="rgb(0, 255, 0)" fill="none" d="M259.2 349.8 L259.2 402.6 "/>
<path stroke-dasharray="12,6" stroke="rgb(0, 255, 0)" fill="none" d="M182.4 349.8 L182.4 402.6 "/>
<path stroke-dasharray="12,6" stroke="rgb(0, 255, 0)" fill="none" d="M182.4 263.4 L182.4 210.6 "/>
<path stroke="rgb(0, 0, 0)" fill="none" d="M144 402.6 L144 349.8 "/>
<path stroke="rgb(0, 0, 0)" fill="none" d="M144 349.8 L340.8 349.8 "/>
<path stroke="rgb(0, 0, 0)" fill="none" d="M340.8 263.4 L144 263.4 "/>
<path stroke="rgb(0, 0, 0)" fill="none" d="M144 263.4 L144 210.6 "/>
<path stroke="rgb(0, 0, 0)" fill="none" d="M144 210.6 L393.6 210.6 "/>
<path stroke="rgb(0, 0, 0)" fill="none" d="M144 402.6 L393.6 402.6 "/>
<path stroke="rgb(0, 0, 0)" fill="none" d="M220.8 520.5 L218.9 520.6 L217 520.6 L215.1 520.7 L213.2 520.9 L211.4 521.1 L209.5 521.4 L207.6 521.7 L205.8 522 L203.9 522.4 L202.1 522.8 L200.3 523.3 L198.5 523.8 L196.7 524.4 L194.9 525 L193.1 525.7 L191.4 526.4 L189.6 527.1 L187.9 527.9 L186.2 528.7 L184.6 529.6 L182.9 530.5 L181.3 531.5 L179.7 532.4 L178.1 533.5 L176.5 534.5 L175 535.6 L173.5 536.8 L172 538 L170.6 539.2 L169.2 540.4 L167.8 541.7 L166.4 543 L165.1 544.4 L163.8 545.8 L162.6 547.2 L161.4 548.6 L160.2 550.1 L159.1 551.6 L158 553.1 L156.9 554.7 L155.9 556.2 L154.9 557.8 L153.9 559.5 L153 561.1 L152.2 562.8 L151.3 564.5 L150.5 566.2 L149.8 567.9 L149.1 569.7 L148.4 571.5 L147.8 573.2 L147.3 575 L146.7 576.8 L146.3 578.7 L145.8 580.5 L145.4 582.3 L145.1 584.2 L144.8 586.1 L144.5 587.9 L144.3 589.8 L144.2 591.7 L144 593.6 L144 595.4 L144 597.3 L144 599.2 L144 601.1 L144.2 603 L144.3 604.9 L144.5 606.7 L144.8 608.6 L145.1 610.5 L145.4 612.3 L145.8 614.2 L146.3 616 L146.7 617.8 L147.3 619.6 L147.8 621.4 L148.4 623.2 L149.1 625 L149.8 626.7 L150.5 628.5 L151.3 630.2 L152.2 631.9 L153 633.5 L153.9 635.2 L154.9 636.8 L155.9 638.4 L156.9 640 L158 641.6 L159.1 643.1 L160.2 644.6 L161.4 646.1 L162.6 647.5 L163.8 648.9 L165.1 650.3 L166.4 651.6 L167.8 653 L169.2 654.2 L170.6 655.5 L172 656.7 L173.5 657.9 L175 659 L176.5 660.1 L178.1 661.2 L179.7 662.2 L181.3 663.2 L182.9 664.2 L184.6 665.1 L186.2 665.9 L187.9 666.8 L189.6 667.5 L191.4 668.3 L193.1 669 L194.9 669.6 L196.7 670.3 L198.5 670.8 L200.3 671.4 L202.1 671.8 L203.9 672.3 L205.8 672.7 L207.6 673 L209.5 673.3 L211.4 673.6 L213.2 673.8 L215.1 673.9 L217 674 L218.9 674.1 L220.8 674.1 "/>
<path stroke="rgb(0, 0, 0)" fill="none" d="M259.2 597.3 L259.1 596.4 L259.1 595.4 L259 594.5 L259 593.6 L258.9 592.6 L258.7 591.7 L258.6 590.8 L258.4 589.8 L258.2 588.9 L258 588 L257.8 587.1 L257.5 586.2 L257.2 585.3 L256.9 584.4 L256.6 583.5 L256.2 582.6 L255.9 581.8 L255.5 580.9 L255.1 580.1 L254.6 579.2 L254.2 578.4 L253.7 577.6 L253.2 576.8 L252.7 576 L252.1 575.2 L251.6 574.5 L251 573.7 L250.4 573 L249.8 572.3 L249.2 571.5 L248.6 570.9 L247.9 570.2 L247.2 569.5 L246.5 568.9 L245.8 568.3 L245.1 567.6 L244.4 567.1 L243.6 566.5 L242.9 565.9 L242.1 565.4 L241.3 564.9 L240.5 564.4 L239.7 563.9 L238.9 563.5 L238 563 L237.2 562.6 L236.3 562.2 L235.4 561.9 L234.6 561.5 L233.7 561.2 L232.8 560.9 L231.9 560.6 L231 560.3 L230.1 560.1 L229.2 559.9 L228.2 559.7 L227.3 559.5 L226.4 559.3 L225.5 559.2 L224.5 559.1 L223.6 559 L222.6 559 L221.7 558.9 L220.8 558.9 L219.8 558.9 L218.9 559 L217.9 559 L217 559.1 L216.1 559.2 L215.1 559.3 L214.2 559.5 L213.3 559.7 L212.3 559.9 L211.4 560.1 L210.5 560.3 L209.6 560.6 L208.7 560.9 L207.8 561.2 L206.9 561.5 L206.1 561.9 L205.2 562.2 L204.3 562.6 L203.5 563 L202.7 563.5 L201.8 563.9 L201 564.4 L200.2 564.9 L199.4 565.4 L198.6 565.9 L197.9 566.5 L197.1 567.1 L196.4 567.6 L195.7 568.3 L195 568.9 L194.3 569.5 L193.6 570.2 L192.9 570.9 L192.3 571.5 L191.7 572.3 L191.1 573 L190.5 573.7 L189.9 574.5 L189.4 575.2 L188.8 576 L188.3 576.8 L187.8 577.6 L187.3 578.4 L186.9 579.2 L186.5 580.1 L186 580.9 L185.6 581.8 L185.3 582.6 L184.9 583.5 L184.6 584.4 L184.3 585.3 L184 586.2 L183.7 587.1 L183.5 588 L183.3 588.9 L183.1 589.8 L182.9 590.8 L182.8 591.7 L182.6 592.6 L182.5 593.6 L182.5 594.5 L182.4 595.4 L182.4 596.4 L182.4 597.3 L182.4 598.3 L182.4 599.2 L182.5 600.2 L182.5 601.1 L182.6 602 L182.8 603 L182.9 603.9 L183.1 604.8 L183.3 605.7 L183.5 606.7 L183.7 607.6 L184 608.5 L184.3 609.4 L184.6 610.3 L184.9 611.2 L185.3 612 L185.6 612.9 L186 613.8 L186.5 614.6 L186.9 615.4 L187.3 616.3 L187.8 617.1 L188.3 617.9 L188.8 618.7 L189.4 619.4 L189.9 620.2 L190.5 621 L191.1 621.7 L191.7 622.4 L192.3 623.1 L192.9 623.8 L193.6 624.5 L194.3 625.1 L195 625.8 L195.7 626.4 L196.4 627 L197.1 627.6 L197.9 628.2 L198.6 628.7 L199.4 629.3 L200.2 629.8 L201 630.3 L201.8 630.7 L202.7 631.2 L203.5 631.6 L204.3 632 L205.2 632.4 L206.1 632.8 L206.9 633.2 L207.8 633.5 L208.7 633.8 L209.6 634.1 L210.5 634.3 L211.4 634.6 L212.3 634.8 L213.3 635 L214.2 635.2 L215.1 635.3 L216.1 635.4 L217 635.5 L217.9 635.6 L218.9 635.7 L219.8 635.7 L220.8 635.7 L221.7 635.7 L222.6 635.7 L223.6 635.6 L224.5 635.5 L225.5 635.4 L226.4 635.3 L227.3 635.2 L228.2 635 L229.2 634.8 L230.1 634.6 L231 634.3 L231.9 634.1 L232.8 633.8 L233.7 633.5 L234.6 633.2 L235.4 632.8 L236.3 632.4 L237.2 632 L238 631.6 L238.9 631.2 L239.7 630.7 L240.5 630.3 L241.3 629.8 L242.1 629.3 L242.9 628.7 L243.6 628.2 L244.4 627.6 L245.1 627 L245.8 626.4 L246.5 625.8 L247.2 625.1 L247.9 624.5 L248.6 623.8 L249.2 623.1 L249.8 622.4 L250.4 621.7 L251 621 L251.6 620.2 L252.1 619.4 L252.7 618.7 L253.2 617.9 L253.7 617.1 L254.2 616.3 L254.6 615.4 L255.1 614.6 L255.5 613.8 L255.9 612.9 L256.2 612 L256.6 611.2 L256.9 610.3 L257.2 609.4 L257.5 608.5 L257.8 607.6 L258 606.7 L258.2 605.7 L258.4 604.8 L258.6 603.9 L258.7 603 L258.9 602 L259 601.1 L259 600.2 L259.1 599.2 L259.1 598.3 L259.2 597.3 "/>
<path stroke-dasharray="12,6" stroke="rgb(0, 255, 0)" fill="none" d="M340.8 520.5 L340.8 674.1 "/>
<path stroke="rgb(0, 0, 0)" fill="none" d="M742 520.5 L742 674.1 "/>
<path stroke="rgb(0, 0, 0)" fill="none" d="M742 520.5 L934 520.5 "/>
<path stroke="rgb(0, 0, 0)" fill="none" d="M934 520.5 L934 674.1 "/>
<path stroke="rgb(0, 0, 0)" fill="none" d="M934 674.1 L742 674.1 "/>
<path stroke="rgb(0, 0, 0)" fill="none" d="M881.2 520.5 L881.2 674.1 "/>
<path stroke="rgb(0, 0, 0)" fill="none" d="M794.8 520.5 L794.8 674.1 "/>
<path stroke-dasharray="30,6,6,6" stroke="rgb(255, 0, 0)" fill="none" d="M689.2 597.3 L984.8 597.3 "/>
<path stroke-dasharray="30,6,6,6" stroke="rgb(255, 0, 0)" fill="none" d="M838 478.2 L838 723.3 "/>
<path stroke-dasharray="12,6" stroke="rgb(0, 255, 0)" fill="none" d="M881.2 597.3 L881.2 596.3 L881.2 595.2 L881.1 594.2 L881 593.1 L880.9 592 L880.8 591 L880.6 589.9 L880.4 588.9 L880.2 587.9 L879.9 586.8 L879.7 585.8 L879.4 584.8 L879.1 583.8 L878.7 582.8 L878.3 581.8 L877.9 580.8 L877.5 579.8 L877.1 578.9 L876.6 577.9 L876.1 577 L875.6 576 L875.1 575.1 L874.5 574.2 L874 573.3 L873.4 572.5 L872.7 571.6 L872.1 570.8 L871.4 569.9 L870.7 569.1 L870 568.3 L869.3 567.5 L868.6 566.8 L867.8 566 L867 565.3 L866.3 564.6 L865.4 563.9 L864.6 563.3 L863.8 562.6 L862.9 562 L862 561.4 L861.1 560.8 L860.2 560.3 L859.3 559.7 L858.4 559.2 L857.5 558.7 L856.5 558.3 L855.5 557.8 L854.6 557.4 L853.6 557 L852.6 556.7 L851.6 556.3 L850.6 556 L849.6 555.7 L848.5 555.4 L847.5 555.2 L846.5 555 L845.4 554.8 L844.4 554.6 L843.3 554.5 L842.3 554.3 L841.2 554.2 L840.2 554.2 L839.1 554.1 L838 554.1 L837 554.1 L835.9 554.2 L834.9 554.2 L833.8 554.3 L832.7 554.5 L831.7 554.6 L830.6 554.8 L829.6 555 L828.6 555.2 L827.5 555.4 L826.5 555.7 L825.5 556 L824.5 556.3 L823.5 556.7 L822.5 557 L821.5 557.4 L820.5 557.8 L819.6 558.3 L818.6 558.7 L817.7 559.2 L816.7 559.7 L815.8 560.3 L814.9 560.8 L814 561.4 L813.2 562 L812.3 562.6 L811.5 563.3 L810.6 563.9 L809.8 564.6 L809 565.3 L808.2 566 L807.5 566.8 L806.7 567.5 L806 568.3 L805.3 569.1 L804.6 569.9 L804 570.8 L803.3 571.6 L802.7 572.5 L802.1 573.3 L801.5 574.2 L801 575.1 L800.4 576 L799.9 577 L799.4 577.9 L799 578.9 L798.5 579.8 L798.1 580.8 L797.7 581.8 L797.4 582.8 L797 583.8 L796.7 584.8 L796.4 585.8 L796.1 586.8 L795.9 587.9 L795.7 588.9 L795.5 589.9 L795.3 591 L795.2 592 L795 593.1 L795 594.2 L794.9 595.2 L794.8 596.3 L794.8 597.3 L794.8 598.4 L794.9 599.5 L795 600.5 L795 601.6 L795.2 602.6 L795.3 603.7 L795.5 604.7 L795.7 605.8 L795.9 606.8 L796.1 607.8 L796.4 608.9 L796.7 609.9 L797 610.9 L797.4 611.9 L797.7 612.9 L798.1 613.9 L798.5 614.8 L799 615.8 L799.4 616.8 L799.9 617.7 L800.4 618.6 L801 619.5 L801.5 620.4 L802.1 621.3 L802.7 622.2 L803.3 623.1 L804 623.9 L804.6 624.7 L805.3 625.5 L806 626.3 L806.7 627.1 L807.5 627.9 L808.2 628.6 L809 629.3 L809.8 630 L810.6 630.7 L811.5 631.4 L812.3 632 L813.2 632.7 L814 633.3 L814.9 633.8 L815.8 634.4 L816.7 634.9 L817.7 635.4 L818.6 635.9 L819.6 636.4 L820.5 636.8 L821.5 637.2 L822.5 637.6 L823.5 638 L824.5 638.4 L825.5 638.7 L826.5 639 L827.5 639.2 L828.6 639.5 L829.6 639.7 L830.6 639.9 L831.7 640.1 L832.7 640.2 L833.8 640.3 L834.9 640.4 L835.9 640.5 L837 640.5 L838 640.5 L839.1 640.5 L840.2 640.5 L841.2 640.4 L842.3 640.3 L843.3 640.2 L844.4 640.1 L845.4 639.9 L846.5 639.7 L847.5 639.5 L848.5 639.2 L849.6 639 L850.6 638.7 L851.6 638.4 L852.6 638 L853.6 637.6 L854.6 637.2 L855.5 636.8 L856.5 636.4 L857.5 635.9 L858.4 635.4 L859.3 634.9 L860.2 634.4 L861.1 633.8 L862 633.3 L862.9 632.7 L863.8 632 L864.6 631.4 L865.4 630.7 L866.3 630 L867 629.3 L867.8 628.6 L868.6 627.9 L869.3 627.1 L870 626.3 L870.7 625.5 L871.4 624.7 L872.1 623.9 L872.7 623.1 L873.4 622.2 L874 621.3 L874.5 620.4 L875.1 619.5 L875.6 618.6 L876.1 617.7 L876.6 616.8 L877.1 615.8 L877.5 614.8 L877.9 613.9 L878.3 612.9 L878.7 611.9 L879.1 610.9 L879.4 609.9 L879.7 608.9 L879.9 607.8 L880.2 606.8 L880.4 605.8 L880.6 604.7 L880.8 603.7 L880.9 602.6 L881 601.6 L881.1 600.5 L881.2 599.5 L881.2 598.4 L881.2 597.3 "/>
<path stroke-dasharray="30,6,6,6" stroke="rgb(255, 0, 0)" fill="none" d="M113 597.3 L616.9 597.3 "/>
<path stroke-dasharray="30,6,6,6" stroke="rgb(255, 0, 0)" fill="none" d="M220.8 175.9 L220.8 706.1 "/>
<path stroke-dasharray="30,6,6,6" stroke="rgb(255, 0, 0)" fill="none" d="M313.5 306.6 L581.5 306.6 "/>
<path stroke="rgb(0, 0, 0)" fill="none" d="M717.5 383.4 L726.3 378.4 "/>
<path stroke-dasharray="12,6" stroke="rgb(0, 255, 0)" fill="none" d="M742 558.9 L794.8 558.9 "/>
<path stroke-dasharray="12,6" stroke="rgb(0, 255, 0)" fill="none" d="M742 635.7 L794.8 635.7 "/>
<path stroke-dasharray="12,6" stroke="rgb(0, 255, 0)" fill="none" d="M934 635.7 L881.2 635.7 "/>
<path stroke-dasharray="12,6" stroke="rgb(0, 255, 0)" fill="none" d="M934 558.9 L881.2 558.9 "/>
</svg>