999
CadZinho - Minimalist CAD by Zecruel
0
SECTION
2
HEADER
9
$ACADVER
1
AC1021
9
$HANDSEED
5
87
9
$INSUNITS
70
4
9
$LWDISPLAY
290
1
9
$LTSCALE
40
5.000000
0
ENDSEC
0
SECTION
2
CLASSES
0
ENDSEC
0
SECTION
2
TABLES
0
TABLE
2
VPORT
5
1
100
AcDbSymbolTable
70
1
0
ENDTAB
0
TABLE
2
LTYPE
5
4
100
AcDbSymbolTable
70
100
0
LTYPE
5
5
100
AcDbSymbolTableRecord
100
AcDbLinetypeTableRecord
2
ByBlock
70
0
3

72
65
73
0
40
0.000000
0
LTYPE
5
6
100
AcDbSymbolTableRecord
100
AcDbLinetypeTableRecord
2
ByLayer
70
0
3

72
65
73
0
40
0.000000
0
LTYPE
5
7
100
AcDbSymbolTableRecord
100
AcDbLinetypeTableRecord
2
Continuous
70
0
3
___________________________________
72
65
73
0
40
0.000000
0
LTYPE
5
8
100
AcDbSymbolTableRecord
100
AcDbLinetypeTableRecord
2
Border
70
0
3
____ . ____ ____ . ____ ____ . ____
72
65
73
6
40
1.750000
49
0.500000
74
0
49
-0.250000
74
0
49
0.500000
74
0
49
-0.250000
74
0
49
0.000000
74
0
49
-0.250000
74
0
0
LTYPE
5
9
100
AcDbSymbolTableRecord
100
AcDbLinetypeTableRecord
2
Center
70
0
3
____ _ ____ _ ____ _ ____ _ ____ _
72
65
73
4
40
2.000000
49
1.250000
74
0
49
-0.250000
74
0
49
0.250000
74
0
49
-0.250000
74
0
0
LTYPE
5
A
100
AcDbSymbolTableRecord
100
AcDbLinetypeTableRecord
2
Dashdot
70
0
3
____ . ____ . ____ . ____ . ____ .
72
65
73
4
40
1.000000
49
0.500000
74
0
49
-0.250000
74
0
49
0.000000
74
0
49
-0.250000
74
0
0
LTYPE
5
B
100
AcDbSymbolTableRecord
100
AcDbLinetypeTableRecord
2
Dashed
70
0
3
____ ____ ____ ____ ____ ____ ____
72
65
73
2
40
0.750000
49
0.500000
74
0
49
-0.250000
74
0
0
LTYPE
5
C
100
AcDbSymbolTableRecord
100
AcDbLinetypeTableRecord
2
Divide
70
0
3
____ . . ____ . . ____ . . ____ . .
72
65
73
6
40
1.250000
49
0.500000
74
0
49
-0.250000
74
0
49
0.000000
74
0
49
-0.250000
74
0
49
0.000000
74
0
49
-0.250000
74
0
0
LTYPE
5
D
100
AcDbSymbolTableRecord
100
AcDbLinetypeTableRecord
2
Dot
70
0
3
. . . . . . . . . . . . . . . . . .
72
65
73
2
40
0.250000
49
0.000000
74
0
49
-0.250000
74
0
0
LTYPE
5
E
100
AcDbSymbolTableRecord
100
AcDbLinetypeTableRecord
2
Hidden
70
0
3
__ __ __ __ __ __ __ __ __ __ __ __
72
65
73
2
40
0.375000
49
0.250000
74
0
49
-0.125000
74
0
0
LTYPE
5
F
100
AcDbSymbolTableRecord
100
AcDbLinetypeTableRecord
2
Phantom
70
0
3
_____ _ _ _____ _ _ _____ _ _ _____
72
65
73
6
40
2.500000
49
1.250000
74
0
49
-0.250000
74
0
49
0.250000
74
0
49
-0.250000
74
0
49
0.250000
74
0
49
-0.250000
74
0
0
ENDTAB
0
TABLE
2
LAYER
5
10
100
AcDbSymbolTable
70
1000
0
LAYER
5
11
100
AcDbSymbolTableRecord
100
AcDbLayerTableRecord
2
0
70
0
62
7
6
Continuous
370
0
390
0
0
LAYER
5
81
100
AcDbSymbolTableRecord
100
AcDbLayerTableRecord
2
hidden
70
0
62
3
6
Dashed
370
0
390
0
0
LAYER
5
82
100
AcDbSymbolTableRecord
100
AcDbLayerTableRecord
2
center
70
0
62
1
6
Center
370
0
390
0
0
ENDTAB
0
TABLE
2
STYLE
5
12
100
AcDbSymbolTable
70
3
0
STYLE
5
13
100
AcDbSymbolTableRecord
100
AcDbTextStyleTableRecord
2
Standard
70
0
40
0.000000
41
1.000000
50
0.000000
71
0
42
1.000000
3
TXT.SHX
4

0
ENDTAB
0
TABLE
2
VIEW
5
14
100
AcDbSymbolTable
70
0
0
ENDTAB
0
TABLE
2
UCS
5
15
100
AcDbSymbolTable
70
0
0
ENDTAB
0
TABLE
2
APPID
5
16
100
AcDbSymbolTable
70
10
0
APPID
5
17
100
AcDbSymbolTableRecord
100
AcDbRegAppTableRecord
2
ACAD
70
0
0
APPID
5
18
100
AcDbSymbolTableRecord
100
AcDbRegAppTableRecord
2
CADZINHO
70
0
0
ENDTAB
0
TABLE
2
DIMSTYLE
5
19
100
AcDbSymbolTable
70
1
100
AcDbDimStyleTable
71
1
0
DIMSTYLE
105
1A
100
AcDbSymbolTableRecord
100
AcDbDimStyleTableRecord
2
Standard
70
0
340
C
0
ENDTAB
0
TABLE
2
BLOCK_RECORD
5
1B
100
AcDbSymbolTable
70
9999
0
BLOCK_RECORD
5
1C
100
AcDbSymbolTableRecord
100
AcDbBlockTableRecord
2
*Model_Space
70
0
0
BLOCK_RECORD
5
1D
100
AcDbSymbolTableRecord
100
AcDbBlockTableRecord
2
*Paper_Space
70
0
0
ENDTAB
0
ENDSEC
0
SECTION
2
BLOCKS
0
BLOCK
5
1E
100
AcDbEntity
8
0
100
AcDbBlockBegin
2
*Model_Space
70
0
10
0.000000
20
0.000000
30
0.000000
3
*Model_Space
1

0
ENDBLK
5
1F
100
AcDbEntity
8
0
100
AcDbBlockEnd
0
BLOCK
5
20
100
AcDbEntity
8
0
100
AcDbBlockBegin
2
*Paper_Space
70
0
10
0.000000
20
0.000000
30
0.000000
3
*Paper_Space
1

0
ENDBLK
5
21
100
AcDbEntity
8
0
100
AcDbBlockEnd
0
ENDSEC
0
SECTION
2
ENTITIES
0
LINE
5
24
100
AcDbEntity
67
0
8
0
6
ByLayer
62
256
370
-1
100
AcDbLine
10
11.050000
20
317.371347
30
0.000000
11
47.050000
21
317.371347
31
0.000000
0
LINE
5
25
100
AcDbEntity
67
0
8
0
6
ByLayer
62
256
370
-1
100
AcDbLine
10
47.050000
20
317.371347
30
0.000000
11
47.050000
21
285.371347
31
0.000000
0
LINE
5
26
100
AcDbEntity
67
0
8
0
6
ByLayer
62
256
370
-1
100
AcDbLine
10
47.050000
20
285.371347
30
0.000000
11
11.050000
21
285.371347
31
0.000000
0
LINE
5
29
100
AcDbEntity
67
0
8
0
6
ByLayer
62
256
370
-1
100
AcDbLine
10
47.050000
20
310.371347
30
0.000000
11
79.050000
21
310.371347
31
0.000000
0
LINE
5
2A
100
AcDbEntity
67
0
8
0
6
ByLayer
62
256
370
-1
100
AcDbLine
10
79.050000
20
310.371347
30
0.000000
11
79.050000
21
292.371347
31
0.000000
0
LINE
5
2B
100
AcDbEntity
67
0
8
0
6
ByLayer
62
256
370
-1
100
AcDbLine
10
79.050000
20
292.371347
30
0.000000
11
47.050000
21
292.371347
31
0.000000
0
LINE
5
2C
100
AcDbEntity
67
0
8
0
6
ByLayer
62
256
370
-1
100
AcDbLine
10
47.050000
20
341.939267
30
0.000000
11
47.050000
21
381.939267
31
0.000000
0
LINE
5
33
100
AcDbEntity
67
0
8
0
6
ByLayer
62
256
370
-1
100
AcDbLine
10
47.050000
20
370.939267
30
0.000000
11
79.050000
21
370.939267
31
0.000000
0
LINE
5
34
100
AcDbEntity
67
0
8
0
6
ByLayer
62
256
370
-1
100
AcDbLine
10
79.050000
20
370.939267
30
0.000000
11
79.050000
21
352.939267
31
0.000000
0
LINE
5
35
100
AcDbEntity
67
0
8
0
6
ByLayer
62
256
370
-1
100
AcDbLine
10
79.050000
20
352.939267
30
0.000000
11
47.050000
21
352.939267
31
0.000000
0
LINE
5
38
100
AcDbEntity
67
0
8
0
6
ByLayer
62
256
370
-1
100
AcDbLine
10
139.649859
20
363.439267
30
0.000000
11
170.826774
21
381.439267
31
0.000000
0
LINE
5
39
100
AcDbEntity
67
0
8
0
6
ByLayer
62
256
370
-1
100
AcDbLine
10
170.826774
20
381.439267
30
0.000000
11
170.826774
21
349.439267
31
0.000000
0
LINE
5
3A
100
AcDbEntity
67
0
8
0
6
ByLayer
62
256
370
-1
100
AcDbLine
10
170.826774
20
349.439267
30
0.000000
11
139.649859
21
331.439267
31
0.000000
0
ELLIPSE
5
3F
100
AcDbEntity
67
0
8
0
6
ByLayer
62
256
370
-1
100
AcDbEllipse
10
139.649859
20
347.439267
30
0.000000
11
9.797959
21
16.970563
31
0.000000
40
0.577350
41
0.785398
42
3.926991
0
ELLIPSE
5
41
100
AcDbEntity
67
0
8
0
6
ByLayer
62
256
370
-1
100
AcDbEllipse
10
139.649859
20
347.439267
30
0.000000
11
4.898979
21
8.485281
31
0.000000
40
0.577350
41
0.000000
42
6.283185
0
LINE
5
42
100
AcDbEntity
67
0
8
0
6
ByLayer
62
256
370
-1
100
AcDbLine
10
170.826774
20
381.439267
30
0.000000
11
136.185758
21
401.439267
31
0.000000
0
LINE
5
45
100
AcDbEntity
67
0
8
0
6
ByLayer
62
256
370
-1
100
AcDbLine
10
151.774215
20
381.439267
30
0.000000
11
130.123580
21
368.939267
31
0.000000
0
LINE
5
46
100
AcDbEntity
67
0
8
0
6
ByLayer
62
256
370
-1
100
AcDbLine
10
136.185758
20
390.439267
30
0.000000
11
151.774215
21
381.439267
31
0.000000
0
LINE
5
47
100
AcDbEntity
67
0
8
0
6
ByLayer
62
256
370
-1
100
AcDbLine
10
136.185758
20
390.439267
30
0.000000
11
114.535122
21
377.939267
31
0.000000
0
LINE
5
48
100
AcDbEntity
67
0
8
0
6
ByLayer
62
256
370
-1
100
AcDbLine
10
105.008843
20
383.439267
30
0.000000
11
136.185758
21
401.439267
31
0.000000
0
ELLIPSE
5
49
100
AcDbEntity
67
0
8
0
6
ByLayer
62
256
370
-1
100
AcDbEllipse
10
114.535122
20
361.939267
30
0.000000
11
9.797959
21
16.970563
31
0.000000
40
0.577350
41
0.785398
42
3.926991
0
ELLIPSE
5
4A
100
AcDbEntity
67
0
8
0
6
ByLayer
62
256
370
-1
100
AcDbEllipse
10
114.535122
20
361.939267
30
0.000000
11
4.898979
21
8.485281
31
0.000000
40
0.577350
41
0.000000
42
6.283185
0
LINE
5
4C
100
AcDbEntity
67
0
8
0
6
ByLayer
62
256
370
-1
100
AcDbLine
10
129.851900
20
330.468705
30
0.000000
11
120.325621
21
335.968705
31
0.000000
0
ELLIPSE
5
4D
100
AcDbEntity
67
0
8
0
6
ByLayer
62
256
370
-1
100
AcDbEllipse
10
130.123580
20
352.939267
30
0.000000
11
9.797959
21
16.970563
31
0.000000
40
0.577350
41
0.785398
42
3.141593
0
LINE
5
4F
100
AcDbEntity
67
0
8
0
6
ByLayer
62
256
370
-1
100
AcDbLine
10
136.185758
20
390.439267
30
0.000000
11
136.185758
21
372.439267
31
0.000000
0
LINE
5
50
100
AcDbEntity
67
0
8
0
6
ByLayer
62
256
370
-1
100
AcDbLine
10
104.737161
20
344.968703
30
0.000000
11
95.210881
21
350.468703
31
0.000000
0
ELLIPSE
5
51
100
AcDbEntity
67
0
8
0
6
ByLayer
62
256
370
-1
100
AcDbEllipse
10
105.008840
20
367.439266
30
0.000000
11
9.797959
21
16.970563
31
0.000000
40
0.577350
41
0.785398
42
3.141593
0
ELLIPSE
5
5E
100
AcDbEntity
67
0
8
0
6
ByLayer
62
256
370
-1
100
AcDbEllipse
10
181.219076
20
391.439266
30
0.000000
11
-5.511355
21
9.545940
31
0.000000
40
0.577350
41
3.141593
42
6.283185
0
LINE
5
5F
100
AcDbEntity
67
0
8
0
6
ByLayer
62
256
370
-1
100
AcDbLine
10
175.707727
20
400.985209
30
0.000000
11
156.339968
21
389.803228
31
0.000000
0
LINE
5
60
100
AcDbEntity
67
0
8
0
6
ByLayer
62
256
370
-1
100
AcDbLine
10
186.730430
20
381.893326
30
0.000000
11
170.826774
21
372.711345
31
0.000000
0
LINE
5
62
100
AcDbEntity
67
0
8
0
6
ByLayer
62
256
370
-1
100
AcDbLine
10
36.050000
20
352.939267
30
0.000000
11
36.050000
21
370.939267
31
0.000000
0
LINE
5
64
100
AcDbEntity
67
0
8
hidden
6
ByLayer
62
256
370
-1
100
AcDbLine
10
19.050000
20
370.939267
30
0.000000
11
19.050000
21
381.939267
31
0.000000
0
LINE
5
65
100
AcDbEntity
67
0
8
hidden
6
ByLayer
62
256
370
-1
100
AcDbLine
10
19.050000
20
352.939267
30
0.000000
11
19.050000
21
341.939267
31
0.000000
0
LINE
5
66
100
AcDbEntity
67
0
8
hidden
6
ByLayer
62
256
370
-1
100
AcDbLine
10
3.050000
20
352.939267
30
0.000000
11
3.050000
21
341.939267
31
0.000000
0
LINE
5
67
100
AcDbEntity
67
0
8
hidden
6
ByLayer
62
256
370
-1
100
AcDbLine
10
3.050000
20
370.939267
30
0.000000
11
3.050000
21
381.939267
31
0.000000
0
LINE
5
69
100
AcDbEntity
67
0
8
0
6
ByLayer
62
256
370
-1
100
AcDbLine
10
-4.950000
20
341.939267
30
0.000000
11
-4.950000
21
352.939267
31
0.000000
0
LINE
5
6A
100
AcDbEntity
67
0
8
0
6
ByLayer
62
256
370
-1
100
AcDbLine
10
-4.950000
20
352.939267
30
0.000000
11
36.050000
21
352.939267
31
0.000000
0
LINE
5
6B
100
AcDbEntity
67
0
8
0
6
ByLayer
62
256
370
-1
100
AcDbLine
10
36.050000
20
370.939267
30
0.000000
11
-4.950000
21
370.939267
31
0.000000
0
LINE
5
6C
100
AcDbEntity
67
0
8
0
6
ByLayer
62
256
370
-1
100
AcDbLine
10
-4.950000
20
370.939267
30
0.000000
11
-4.950000
21
381.939267
31
0.000000
0
LINE
5
6D
100
AcDbEntity
67
0
8
0
6
ByLayer
62
256
370
-1
100
AcDbLine
10
-4.950000
20
381.939267
30
0.000000
11
47.050000
21
381.939267
31
0.000000
0
LINE
5
6F
100
AcDbEntity
67
0
8
0
6
ByLayer
62
256
370
-1
100
AcDbLine
10
-4.950000
20
341.939267
30
0.000000
11
47.050000
21
341.939267
31
0.000000
0
ARC
5
73
100
AcDbEntity
67
0
8
0
6
ByLayer
62
256
370
-1
100
AcDbCircle
10
11.050000
20
301.371347
30
0.000000
40
16.000000
100
AcDbArc
50
90.000000
51
-90.000000
0
CIRCLE
5
74
100
AcDbEntity
67
0
8
0
6
ByLayer
62
256
370
-1
100
AcDbCircle
10
11.050000
20
301.371347
30
0.000000
40
8.000000
0
LINE
5
75
100
AcDbEntity
67
0
8
hidden
6
ByLayer
62
256
370
-1
100
AcDbLine
10
36.050000
20
317.371347
30
0.000000
11
36.050000
21
285.371347
31
0.000000
0
LINE
5
76
100
AcDbEntity
67
0
8
0
6
ByLayer
62
256
370
-1
100
AcDbLine
10
119.649859
20
317.371347
30
0.000000
11
119.649859
21
285.371347
31
0.000000
0
LINE
5
77
100
AcDbEntity
67
0
8
0
6
ByLayer
62
256
370
-1
100
AcDbLine
10
119.649859
20
317.371347
30
0.000000
11
159.649859
21
317.371347
31
0.000000
0
LINE
5
78
100
AcDbEntity
67
0
8
0
6
ByLayer
62
256
370
-1
100
AcDbLine
10
159.649859
20
317.371347
30
0.000000
11
159.649859
21
285.371347
31
0.000000
0
LINE
5
79
100
AcDbEntity
67
0
8
0
6
ByLayer
62
256
370
-1
100
AcDbLine
10
159.649859
20
285.371347
30
0.000000
11
119.649859
21
285.371347
31
0.000000
0
LINE
5
7A
100
AcDbEntity
67
0
8
0
6
ByLayer
62
256
370
-1
100
AcDbLine
10
148.649859
20
317.371347
30
0.000000
11
148.649859
21
285.371347
31
0.000000
0
LINE
5
7B
100
AcDbEntity
67
0
8
0
6
ByLayer
62
256
370
-1
100
AcDbLine
10
130.649859
20
317.371347
30
0.000000
11
130.649859
21
285.371347
31
0.000000
0
LINE
5
7C
100
AcDbEntity
67
0
8
center
6
ByLayer
62
256
370
-1
100
AcDbLine
10
108.645957
20
301.371347
30
0.000000
11
170.221318
21
301.371347
31
0.000000
0
LINE
5
7D
100
AcDbEntity
67
0
8
center
6
ByLayer
62
256
370
-1
100
AcDbLine
10
139.649859
20
326.185884
30
0.000000
11
139.649859
21
275.129878
31
0.000000
0
CIRCLE
5
7E
100
AcDbEntity
67
0
8
hidden
6
ByLayer
62
256
370
-1
100
AcDbCircle
10
139.649859
20
301.371347
30
0.000000
40
9.000000
0
LINE
5
83
100
AcDbEntity
67
0
8
center
6
ByLayer
62
256
370
-1
100
AcDbLine
10
-11.394024
20
301.371347
30
0.000000
11
93.573096
21
301.371347
31
0.000000
0
LINE
5
84
100
AcDbEntity
67
0
8
center
6
ByLayer
62
256
370
-1
100
AcDbLine
10
11.050000
20
389.164719
30
0.000000
11
11.050000
21
278.710854
31
0.000000
0
LINE
5
85
100
AcDbEntity
67
0
8
center
6
ByLayer
62
256
370
-1
100
AcDbLine
10
30.381597
20
361.939267
30
0.000000
11
86.205805
21
361.939267
31
0.000000
0
LINE
5
86
100
AcDbEntity
67
0
8
0
6
ByLayer
62
256
370
-1
100
AcDbLine
10
114.535121
20
345.939270
30
0.000000
11
116.374597
21
346.989745
31
0.000000
0
ENDSEC
0
SECTION
2
OBJECTS
0
DICTIONARY
5
22
100
AcDbDictionary
3
ACAD_GROUP
350
23
0
DICTIONARY
5
23
100
AcDbDictionary
0
ENDSEC
0
EOF
