<svg width="1188.0000" height="840.0000" version="1.1" xmlns="http://www.w3.org/2000/svg" xmlns:xlink="http://www.w3.org/1999/xlink">
<path stroke="rgb(0, 0, 0)" fill="none" d="M244.2 530.5 L388.2 530.5 "/>
<path stroke="rgb(0, 0, 0)" fill="none" d="M388.2 530.5 L388.2 658.5 "/>
<path stroke="rgb(0, 0, 0)" fill="none" d="M388.2 658.5 L244.2 658.5 "/>
<path stroke="rgb(0, 0, 0)" fill="none" d="M388.2 558.5 L516.2 558.5 "/>
<path stroke="rgb(0, 0, 0)" fill="none" d="M516.2 558.5 L516.2 630.5 "/>
<path stroke="rgb(0, 0, 0)" fill="none" d="M516.2 630.5 L388.2 630.5 "/>
<path stroke="rgb(0, 0, 0)" fill="none" d="M388.2 432.2 L388.2 272.2 "/>
<path stroke="rgb(0, 0, 0)" fill="none" d="M388.2 316.2 L516.2 316.2 "/>
<path stroke="rgb(0, 0, 0)" fill="none" d="M516.2 316.2 L516.2 388.2 "/>
<path stroke="rgb(0, 0, 0)" fill="none" d="M516.2 388.2 L388.2 388.2 "/>
<path stroke="rgb(0, 0, 0)" fill="none" d="M758.6 346.2 L883.3 274.2 "/>
<path stroke="rgb(0, 0, 0)" fill="none" d="M883.3 274.2 L883.3 402.2 "/>
<path stroke="rgb(0, 0, 0)" fill="none" d="M883.3 402.2 L758.6 474.2 "/>
<path stroke="rgb(0, 0, 0)" fill="none" d="M758.6 346.2 L757.2 347 L755.9 347.9 L754.5 348.8 L753.2 349.7 L751.8 350.6 L750.5 351.6 L749.1 352.7 L747.8 353.7 L746.5 354.8 L745.1 355.9 L743.8 357.1 L742.5 358.3 L741.2 359.5 L739.9 360.8 L738.7 362 L737.4 363.4 L736.1 364.7 L734.9 366.1 L733.7 367.5 L732.5 368.9 L731.3 370.3 L730.1 371.8 L728.9 373.3 L727.8 374.8 L726.7 376.3 L725.6 377.9 L724.5 379.5 L723.4 381.1 L722.4 382.7 L721.4 384.3 L720.4 386 L719.4 387.6 L718.5 389.3 L717.5 391 L716.6 392.7 L715.8 394.4 L714.9 396.1 L714.1 397.8 L713.3 399.6 L712.5 401.3 L711.8 403 L711.1 404.8 L710.4 406.5 L709.7 408.3 L709.1 410.1 L708.5 411.8 L707.9 413.6 L707.4 415.3 L706.9 417.1 L706.4 418.8 L706 420.6 L705.6 422.3 L705.2 424 L704.8 425.7 L704.5 427.4 L704.2 429.1 L704 430.8 L703.8 432.5 L703.6 434.2 L703.4 435.8 L703.3 437.4 L703.2 439.1 L703.2 440.7 L703.2 442.2 L703.2 443.8 L703.2 445.3 L703.3 446.9 L703.4 448.4 L703.6 449.8 L703.8 451.3 L704 452.7 L704.2 454.1 L704.5 455.5 L704.8 456.8 L705.2 458.2 L705.6 459.4 L706 460.7 L706.4 461.9 L706.9 463.1 L707.4 464.3 L707.9 465.4 L708.5 466.5 L709.1 467.6 L709.7 468.6 L710.4 469.6 L711.1 470.6 L711.8 471.5 L712.5 472.4 L713.3 473.3 L714.1 474.1 L714.9 474.8 L715.8 475.6 L716.6 476.3 L717.5 476.9 L718.5 477.5 L719.4 478.1 L720.4 478.7 L721.4 479.2 L722.4 479.6 L723.4 480 L724.5 480.4 L725.6 480.7 L726.7 481 L727.8 481.2 L728.9 481.4 L730.1 481.6 L731.3 481.7 L732.5 481.8 L733.7 481.8 L734.9 481.8 L736.1 481.7 L737.4 481.6 L738.7 481.5 L739.9 481.3 L741.2 481.1 L742.5 480.8 L743.8 480.5 L745.1 480.1 L746.5 479.7 L747.8 479.3 L749.1 478.8 L750.5 478.2 L751.8 477.7 L753.2 477.1 L754.5 476.4 L755.9 475.7 L757.2 475 L758.6 474.2 "/>
<path stroke="rgb(0, 0, 0)" fill="none" d="M778.2 376.3 L777.7 376 L777.2 375.8 L776.7 375.6 L776.2 375.4 L775.6 375.2 L775.1 375 L774.6 374.9 L774 374.7 L773.4 374.6 L772.8 374.6 L772.3 374.5 L771.7 374.5 L771.1 374.5 L770.4 374.5 L769.8 374.5 L769.2 374.6 L768.6 374.6 L767.9 374.7 L767.3 374.8 L766.6 375 L766 375.1 L765.3 375.3 L764.7 375.5 L764 375.7 L763.3 376 L762.7 376.2 L762 376.5 L761.3 376.8 L760.6 377.2 L760 377.5 L759.3 377.9 L758.6 378.2 L757.9 378.6 L757.2 379.1 L756.6 379.5 L755.9 380 L755.2 380.4 L754.5 380.9 L753.9 381.4 L753.2 382 L752.5 382.5 L751.9 383.1 L751.2 383.7 L750.6 384.3 L749.9 384.9 L749.3 385.5 L748.6 386.1 L748 386.8 L747.4 387.5 L746.8 388.2 L746.1 388.9 L745.5 389.6 L744.9 390.3 L744.4 391 L743.8 391.8 L743.2 392.5 L742.6 393.3 L742.1 394.1 L741.5 394.9 L741 395.7 L740.5 396.5 L740 397.3 L739.5 398.1 L739 398.9 L738.5 399.8 L738.1 400.6 L737.6 401.5 L737.2 402.3 L736.8 403.2 L736.3 404 L735.9 404.9 L735.6 405.8 L735.2 406.6 L734.8 407.5 L734.5 408.4 L734.2 409.3 L733.8 410.1 L733.5 411 L733.3 411.9 L733 412.8 L732.7 413.7 L732.5 414.5 L732.3 415.4 L732.1 416.3 L731.9 417.1 L731.7 418 L731.6 418.8 L731.4 419.7 L731.3 420.5 L731.2 421.4 L731.1 422.2 L731 423 L731 423.8 L730.9 424.7 L730.9 425.5 L730.9 426.2 L730.9 427 L730.9 427.8 L731 428.6 L731 429.3 L731.1 430 L731.2 430.8 L731.3 431.5 L731.4 432.2 L731.6 432.9 L731.7 433.5 L731.9 434.2 L732.1 434.8 L732.3 435.5 L732.5 436.1 L732.7 436.7 L733 437.3 L733.3 437.8 L733.5 438.4 L733.8 438.9 L734.2 439.4 L734.5 439.9 L734.8 440.4 L735.2 440.9 L735.6 441.3 L735.9 441.8 L736.3 442.2 L736.8 442.5 L737.2 442.9 L737.6 443.3 L738.1 443.6 L738.5 443.9 L739 444.2 L739.5 444.5 L740 444.7 L740.5 444.9 L741 445.1 L741.5 445.3 L742.1 445.5 L742.6 445.6 L743.2 445.7 L743.8 445.8 L744.4 445.9 L744.9 446 L745.5 446 L746.1 446 L746.8 446 L747.4 446 L748 445.9 L748.6 445.9 L749.3 445.8 L749.9 445.6 L750.6 445.5 L751.2 445.4 L751.9 445.2 L752.5 445 L753.2 444.7 L753.9 444.5 L754.5 444.2 L755.2 444 L755.9 443.7 L756.6 443.3 L757.2 443 L757.9 442.6 L758.6 442.2 L759.3 441.8 L760 441.4 L760.6 441 L761.3 440.5 L762 440 L762.7 439.5 L763.3 439 L764 438.5 L764.7 438 L765.3 437.4 L766 436.8 L766.6 436.2 L767.3 435.6 L767.9 435 L768.6 434.3 L769.2 433.7 L769.8 433 L770.4 432.3 L771.1 431.6 L771.7 430.9 L772.3 430.2 L772.8 429.5 L773.4 428.7 L774 428 L774.6 427.2 L775.1 426.4 L775.6 425.6 L776.2 424.8 L776.7 424 L777.2 423.2 L777.7 422.4 L778.2 421.6 L778.7 420.7 L779.1 419.9 L779.6 419 L780 418.2 L780.4 417.3 L780.9 416.5 L781.3 415.6 L781.6 414.7 L782 413.8 L782.4 413 L782.7 412.1 L783 411.2 L783.4 410.3 L783.7 409.5 L783.9 408.6 L784.2 407.7 L784.5 406.8 L784.7 406 L784.9 405.1 L785.1 404.2 L785.3 403.4 L785.5 402.5 L785.6 401.6 L785.8 400.8 L785.9 399.9 L786 399.1 L786.1 398.3 L786.2 397.5 L786.2 396.6 L786.3 395.8 L786.3 395 L786.3 394.2 L786.3 393.5 L786.3 392.7 L786.2 391.9 L786.2 391.2 L786.1 390.4 L786 389.7 L785.9 389 L785.8 388.3 L785.6 387.6 L785.5 386.9 L785.3 386.3 L785.1 385.6 L784.9 385 L784.7 384.4 L784.5 383.8 L784.2 383.2 L783.9 382.6 L783.7 382.1 L783.4 381.6 L783 381 L782.7 380.5 L782.4 380.1 L782 379.6 L781.6 379.2 L781.3 378.7 L780.9 378.3 L780.4 377.9 L780 377.6 L779.6 377.2 L779.1 376.9 L778.2 376.3 "/>
<path stroke="rgb(0, 0, 0)" fill="none" d="M883.3 274.2 L744.7 194.2 "/>
<path stroke="rgb(0, 0, 0)" fill="none" d="M807.1 274.2 L720.5 324.2 "/>
<path stroke="rgb(0, 0, 0)" fill="none" d="M744.7 238.2 L807.1 274.2 "/>
<path stroke="rgb(0, 0, 0)" fill="none" d="M744.7 238.2 L658.1 288.2 "/>
<path stroke="rgb(0, 0, 0)" fill="none" d="M620 266.2 L744.7 194.2 "/>
<path stroke="rgb(0, 0, 0)" fill="none" d="M658.1 288.2 L656.8 289 L655.4 289.9 L654.1 290.8 L652.7 291.7 L651.4 292.6 L650 293.6 L648.7 294.7 L647.3 295.7 L646 296.8 L644.7 297.9 L643.4 299.1 L642.1 300.3 L640.8 301.5 L639.5 302.8 L638.2 304 L636.9 305.4 L635.7 306.7 L634.4 308.1 L633.2 309.5 L632 310.9 L630.8 312.3 L629.6 313.8 L628.5 315.3 L627.3 316.8 L626.2 318.3 L625.1 319.9 L624 321.5 L623 323.1 L621.9 324.7 L620.9 326.3 L619.9 328 L618.9 329.6 L618 331.3 L617.1 333 L616.2 334.7 L615.3 336.4 L614.4 338.1 L613.6 339.8 L612.8 341.6 L612.1 343.3 L611.3 345 L610.6 346.8 L609.9 348.5 L609.3 350.3 L608.6 352.1 L608 353.8 L607.5 355.6 L606.9 357.3 L606.4 359.1 L606 360.8 L605.5 362.6 L605.1 364.3 L604.7 366 L604.4 367.7 L604.1 369.4 L603.8 371.1 L603.5 372.8 L603.3 374.5 L603.1 376.2 L603 377.8 L602.9 379.4 L602.8 381.1 L602.7 382.7 L602.7 384.2 L602.7 385.8 L602.8 387.3 L602.9 388.9 L603 390.4 L603.1 391.8 L603.3 393.3 L603.5 394.7 L603.8 396.1 L604.1 397.5 L604.4 398.8 L604.7 400.2 L605.1 401.4 L605.5 402.7 L606 403.9 L606.4 405.1 L606.9 406.3 L607.5 407.4 L608 408.5 L608.6 409.6 L609.3 410.6 L609.9 411.6 L610.6 412.6 L611.3 413.5 L612.1 414.4 L612.8 415.3 L613.6 416.1 L614.4 416.8 L615.3 417.6 L616.2 418.3 L617.1 418.9 L618 419.5 L618.9 420.1 L619.9 420.7 L620.9 421.2 L621.9 421.6 L623 422 L624 422.4 L625.1 422.7 L626.2 423 L627.3 423.2 L628.5 423.4 L629.6 423.6 L630.8 423.7 L632 423.8 L633.2 423.8 L634.4 423.8 L635.7 423.7 L636.9 423.6 L638.2 423.5 L639.5 423.3 L640.8 423.1 L642.1 422.8 L643.4 422.5 L644.7 422.1 L646 421.7 L647.3 421.3 L648.7 420.8 L650 420.2 L651.4 419.7 L652.7 419.1 L654.1 418.4 L655.4 417.7 L656.8 417 L658.1 416.2 "/>
<path stroke="rgb(0, 0, 0)" fill="none" d="M677.7 318.3 L677.2 318 L676.8 317.8 L676.2 317.6 L675.7 317.4 L675.2 317.2 L674.6 317 L674.1 316.9 L673.5 316.7 L673 316.6 L672.4 316.6 L671.8 316.5 L671.2 316.5 L670.6 316.5 L670 316.5 L669.4 316.5 L668.7 316.6 L668.1 316.6 L667.5 316.7 L666.8 316.8 L666.2 317 L665.5 317.1 L664.9 317.3 L664.2 317.5 L663.5 317.7 L662.9 318 L662.2 318.2 L661.5 318.5 L660.9 318.8 L660.2 319.2 L659.5 319.5 L658.8 319.9 L658.1 320.2 L657.5 320.6 L656.8 321.1 L656.1 321.5 L655.4 322 L654.7 322.4 L654.1 322.9 L653.4 323.4 L652.7 324 L652.1 324.5 L651.4 325.1 L650.7 325.7 L650.1 326.3 L649.4 326.9 L648.8 327.5 L648.2 328.1 L647.5 328.8 L646.9 329.5 L646.3 330.2 L645.7 330.9 L645.1 331.6 L644.5 332.3 L643.9 333 L643.3 333.8 L642.7 334.5 L642.2 335.3 L641.6 336.1 L641.1 336.9 L640.6 337.7 L640 338.5 L639.5 339.3 L639 340.1 L638.5 340.9 L638.1 341.8 L637.6 342.6 L637.2 343.5 L636.7 344.3 L636.3 345.2 L635.9 346 L635.5 346.9 L635.1 347.8 L634.7 348.6 L634.4 349.5 L634 350.4 L633.7 351.3 L633.4 352.1 L633.1 353 L632.8 353.9 L632.5 354.8 L632.3 355.7 L632 356.5 L631.8 357.4 L631.6 358.3 L631.4 359.1 L631.3 360 L631.1 360.8 L631 361.7 L630.8 362.5 L630.7 363.4 L630.6 364.2 L630.6 365 L630.5 365.8 L630.5 366.7 L630.4 367.5 L630.4 368.2 L630.4 369 L630.5 369.8 L630.5 370.6 L630.6 371.3 L630.6 372 L630.7 372.8 L630.8 373.5 L631 374.2 L631.1 374.9 L631.3 375.5 L631.4 376.2 L631.6 376.8 L631.8 377.5 L632 378.1 L632.3 378.7 L632.5 379.3 L632.8 379.8 L633.1 380.4 L633.4 380.9 L633.7 381.4 L634 381.9 L634.4 382.4 L634.7 382.9 L635.1 383.3 L635.5 383.8 L635.9 384.2 L636.3 384.5 L636.7 384.9 L637.2 385.3 L637.6 385.6 L638.1 385.9 L638.5 386.2 L639 386.5 L639.5 386.7 L640 386.9 L640.6 387.1 L641.1 387.3 L641.6 387.5 L642.2 387.6 L642.7 387.7 L643.3 387.8 L643.9 387.9 L644.5 388 L645.1 388 L645.7 388 L646.3 388 L646.9 388 L647.5 387.9 L648.2 387.9 L648.8 387.8 L649.4 387.6 L650.1 387.5 L650.7 387.4 L651.4 387.2 L652.1 387 L652.7 386.7 L653.4 386.5 L654.1 386.2 L654.7 386 L655.4 385.7 L656.1 385.3 L656.8 385 L657.5 384.6 L658.1 384.2 L658.8 383.8 L659.5 383.4 L660.2 383 L660.9 382.5 L661.5 382 L662.2 381.5 L662.9 381 L663.5 380.5 L664.2 380 L664.9 379.4 L665.5 378.8 L666.2 378.2 L666.8 377.6 L667.5 377 L668.1 376.3 L668.7 375.7 L669.4 375 L670 374.3 L670.6 373.6 L671.2 372.9 L671.8 372.2 L672.4 371.5 L673 370.7 L673.5 370 L674.1 369.2 L674.6 368.4 L675.2 367.6 L675.7 366.8 L676.2 366 L676.8 365.2 L677.2 364.4 L677.7 363.6 L678.2 362.7 L678.7 361.9 L679.1 361 L679.6 360.2 L680 359.3 L680.4 358.5 L680.8 357.6 L681.2 356.7 L681.6 355.8 L681.9 355 L682.3 354.1 L682.6 353.2 L682.9 352.3 L683.2 351.5 L683.5 350.6 L683.7 349.7 L684 348.8 L684.2 348 L684.5 347.1 L684.7 346.2 L684.8 345.4 L685 344.5 L685.2 343.6 L685.3 342.8 L685.4 341.9 L685.6 341.1 L685.6 340.3 L685.7 339.5 L685.8 338.6 L685.8 337.8 L685.8 337 L685.9 336.2 L685.8 335.5 L685.8 334.7 L685.8 333.9 L685.7 333.2 L685.6 332.4 L685.6 331.7 L685.4 331 L685.3 330.3 L685.2 329.6 L685 328.9 L684.8 328.3 L684.7 327.6 L684.5 327 L684.2 326.4 L684 325.8 L683.7 325.2 L683.5 324.6 L683.2 324.1 L682.9 323.6 L682.6 323 L682.3 322.5 L681.9 322.1 L681.6 321.6 L681.2 321.2 L680.8 320.7 L680.4 320.3 L680 319.9 L679.6 319.6 L679.1 319.2 L678.7 318.9 L677.7 318.3 "/>
<path stroke="rgb(0, 0, 0)" fill="none" d="M719.4 478.1 L681.3 456.1 "/>
<path stroke="rgb(0, 0, 0)" fill="none" d="M720.5 324.2 L719.1 325 L717.8 325.9 L716.4 326.8 L715.1 327.7 L713.7 328.6 L712.4 329.6 L711 330.7 L709.7 331.7 L708.4 332.8 L707 333.9 L705.7 335.1 L704.4 336.3 L703.1 337.5 L701.8 338.8 L700.5 340 L699.3 341.4 L698 342.7 L696.8 344.1 L695.6 345.5 L694.4 346.9 L693.2 348.3 L692 349.8 L690.8 351.3 L689.7 352.8 L688.6 354.3 L687.5 355.9 L686.4 357.5 L685.3 359.1 L684.3 360.7 L683.3 362.3 L682.3 364 L681.3 365.6 L680.4 367.3 L679.4 369 L678.5 370.7 L677.6 372.4 L676.8 374.1 L676 375.8 L675.2 377.6 L674.4 379.3 L673.7 381 L673 382.8 L672.3 384.5 L671.6 386.3 L671 388.1 L670.4 389.8 L669.8 391.6 L669.3 393.3 L668.8 395.1 L668.3 396.8 L667.9 398.6 L667.5 400.3 L667.1 402 L666.7 403.7 L666.4 405.4 L666.1 407.1 L665.9 408.8 L665.7 410.5 L665.5 412.2 L665.3 413.8 L665.2 415.4 L665.1 417.1 L665.1 418.7 L665.1 420.2 L665.1 421.8 L665.1 423.3 L665.2 424.9 L665.3 426.4 L665.5 427.8 L665.7 429.3 L665.9 430.7 L666.1 432.1 L666.4 433.5 L666.7 434.8 L667.1 436.2 L667.5 437.4 L667.9 438.7 L668.3 439.9 L668.8 441.1 L669.3 442.3 L669.8 443.4 L670.4 444.5 L671 445.6 L671.6 446.6 L672.3 447.6 L673 448.6 L673.7 449.5 L674.4 450.4 L675.2 451.3 L676 452.1 L676.8 452.8 L677.6 453.6 L678.5 454.3 L679.4 454.9 L680.4 455.5 L681.3 456.1 "/>
<path stroke="rgb(0, 0, 0)" fill="none" d="M744.7 238.2 L744.7 310.2 "/>
<path stroke="rgb(0, 0, 0)" fill="none" d="M618.9 420.1 L580.8 398.1 "/>
<path stroke="rgb(0, 0, 0)" fill="none" d="M620 266.2 L618.7 267 L617.3 267.9 L616 268.8 L614.6 269.7 L613.3 270.6 L611.9 271.6 L610.6 272.7 L609.2 273.7 L607.9 274.8 L606.6 275.9 L605.3 277.1 L603.9 278.3 L602.6 279.5 L601.4 280.8 L600.1 282 L598.8 283.4 L597.6 284.7 L596.3 286.1 L595.1 287.5 L593.9 288.9 L592.7 290.3 L591.5 291.8 L590.4 293.3 L589.2 294.8 L588.1 296.3 L587 297.9 L585.9 299.5 L584.9 301.1 L583.8 302.7 L582.8 304.3 L581.8 306 L580.8 307.6 L579.9 309.3 L579 311 L578.1 312.7 L577.2 314.4 L576.3 316.1 L575.5 317.8 L574.7 319.6 L574 321.3 L573.2 323 L572.5 324.8 L571.8 326.5 L571.2 328.3 L570.5 330.1 L569.9 331.8 L569.4 333.6 L568.8 335.3 L568.3 337.1 L567.8 338.8 L567.4 340.6 L567 342.3 L566.6 344 L566.3 345.7 L566 347.4 L565.7 349.1 L565.4 350.8 L565.2 352.5 L565 354.2 L564.9 355.8 L564.8 357.4 L564.7 359.1 L564.6 360.7 L564.6 362.2 L564.6 363.8 L564.7 365.3 L564.8 366.9 L564.9 368.4 L565 369.8 L565.2 371.3 L565.4 372.7 L565.7 374.1 L566 375.5 L566.3 376.8 L566.6 378.2 L567 379.4 L567.4 380.7 L567.8 381.9 L568.3 383.1 L568.8 384.3 L569.4 385.4 L569.9 386.5 L570.5 387.6 L571.2 388.6 L571.8 389.6 L572.5 390.6 L573.2 391.5 L574 392.4 L574.7 393.3 L575.5 394.1 L576.3 394.8 L577.2 395.6 L578.1 396.3 L579 396.9 L579.9 397.5 L580.8 398.1 "/>
<path stroke="rgb(0, 0, 0)" fill="none" d="M946.9 272.4 L947.5 272.1 L948 271.8 L948.5 271.4 L949 271 L949.5 270.6 L949.9 270.1 L950.4 269.7 L950.8 269.2 L951.2 268.7 L951.6 268.2 L952 267.6 L952.4 267.1 L952.7 266.5 L953.1 265.9 L953.4 265.3 L953.7 264.6 L954 264 L954.2 263.3 L954.5 262.6 L954.7 261.9 L954.9 261.2 L955.1 260.5 L955.3 259.7 L955.5 258.9 L955.6 258.1 L955.7 257.3 L955.8 256.5 L955.9 255.7 L956 254.8 L956 254 L956 253.1 L956.1 252.2 L956 251.4 L956 250.5 L956 249.5 L955.9 248.6 L955.8 247.7 L955.7 246.8 L955.6 245.8 L955.5 244.9 L955.3 243.9 L955.1 243 L954.9 242 L954.7 241 L954.5 240 L954.2 239.1 L954 238.1 L953.7 237.1 L953.4 236.1 L953.1 235.1 L952.7 234.1 L952.4 233.1 L952 232.2 L951.6 231.2 L951.2 230.2 L950.8 229.2 L950.4 228.2 L949.9 227.3 L949.5 226.3 L949 225.3 L948.5 224.4 L948 223.4 L947.5 222.5 L946.9 221.5 L946.4 220.6 L945.8 219.7 L945.2 218.7 L944.7 217.8 L944.1 216.9 L943.4 216.1 L942.8 215.2 L942.2 214.3 L941.6 213.5 L940.9 212.6 L940.2 211.8 L939.6 211 L938.9 210.2 L938.2 209.4 L937.5 208.6 L936.8 207.9 L936.1 207.1 L935.4 206.4 L934.7 205.7 L933.9 205 L933.2 204.3 L932.5 203.7 L931.7 203.1 L931 202.4 L930.2 201.9 L929.5 201.3 L928.7 200.7 L927.9 200.2 L927.2 199.7 L926.4 199.2 L925.6 198.7 L924.9 198.2 L924.1 197.8 L923.3 197.4 L922.6 197 L921.8 196.7 L921.1 196.3 L920.3 196 L919.5 195.7 L918.8 195.4 L918 195.2 L917.3 194.9 L916.6 194.7 L915.8 194.6 L915.1 194.4 L914.4 194.3 L913.7 194.2 L912.9 194.1 L912.2 194 L911.5 194 L910.9 194 L910.2 194 L909.5 194 L908.8 194.1 L908.2 194.2 L907.6 194.3 L906.9 194.4 L906.3 194.6 L905.7 194.8 L905.1 195 L904.5 195.2 L903.9 195.5 L902.8 196.1 "/>
<path stroke="rgb(0, 0, 0)" fill="none" d="M902.8 196.1 L825.4 240.8 "/>
<path stroke="rgb(0, 0, 0)" fill="none" d="M946.9 272.4 L883.3 309.2 "/>
<path stroke="rgb(0, 0, 0)" fill="none" d="M344.2 388.2 L344.2 316.2 "/>
<path stroke-dasharray="2,1" stroke="rgb(0, 255, 0)" fill="none" d="M276.2 316.2 L276.2 272.2 "/>
<path stroke-dasharray="2,1" stroke="rgb(0, 255, 0)" fill="none" d="M276.2 388.2 L276.2 432.2 "/>
<path stroke-dasharray="2,1" stroke="rgb(0, 255, 0)" fill="none" d="M212.2 388.2 L212.2 432.2 "/>
<path stroke-dasharray="2,1" stroke="rgb(0, 255, 0)" fill="none" d="M212.2 316.2 L212.2 272.2 "/>
<path stroke="rgb(0, 0, 0)" fill="none" d="M180.2 432.2 L180.2 388.2 "/>
<path stroke="rgb(0, 0, 0)" fill="none" d="M180.2 388.2 L344.2 388.2 "/>
<path stroke="rgb(0, 0, 0)" fill="none" d="M344.2 316.2 L180.2 316.2 "/>
<path stroke="rgb(0, 0, 0)" fill="none" d="M180.2 316.2 L180.2 272.2 "/>
<path stroke="rgb(0, 0, 0)" fill="none" d="M180.2 272.2 L388.2 272.2 "/>
<path stroke="rgb(0, 0, 0)" fill="none" d="M180.2 432.2 L388.2 432.2 "/>
<path stroke="rgb(0, 0, 0)" fill="none" d="M244.2 530.5 L242.6 530.5 L241.1 530.6 L239.5 530.7 L237.9 530.8 L236.4 531 L234.8 531.2 L233.3 531.5 L231.7 531.7 L230.2 532.1 L228.6 532.4 L227.1 532.8 L225.6 533.3 L224.1 533.7 L222.6 534.3 L221.2 534.8 L219.7 535.4 L218.3 536 L216.8 536.7 L215.4 537.3 L214 538.1 L212.7 538.8 L211.3 539.6 L210 540.4 L208.6 541.3 L207.3 542.2 L206.1 543.1 L204.8 544.1 L203.6 545 L202.4 546.1 L201.2 547.1 L200.1 548.2 L198.9 549.3 L197.8 550.4 L196.8 551.5 L195.7 552.7 L194.7 553.9 L193.7 555.1 L192.8 556.4 L191.9 557.7 L191 559 L190.1 560.3 L189.3 561.6 L188.5 563 L187.8 564.3 L187 565.7 L186.3 567.2 L185.7 568.6 L185.1 570 L184.5 571.5 L183.9 573 L183.4 574.4 L183 575.9 L182.5 577.4 L182.1 579 L181.8 580.5 L181.4 582 L181.1 583.6 L180.9 585.1 L180.7 586.7 L180.5 588.2 L180.4 589.8 L180.3 591.4 L180.2 592.9 L180.2 594.5 L180.2 596.1 L180.3 597.7 L180.4 599.2 L180.5 600.8 L180.7 602.3 L180.9 603.9 L181.1 605.5 L181.4 607 L181.8 608.5 L182.1 610.1 L182.5 611.6 L183 613.1 L183.4 614.6 L183.9 616.1 L184.5 617.5 L185.1 619 L185.7 620.5 L186.3 621.9 L187 623.3 L187.8 624.7 L188.5 626.1 L189.3 627.4 L190.1 628.8 L191 630.1 L191.9 631.4 L192.8 632.6 L193.7 633.9 L194.7 635.1 L195.7 636.3 L196.8 637.5 L197.8 638.6 L198.9 639.8 L200.1 640.9 L201.2 641.9 L202.4 643 L203.6 644 L204.8 645 L206.1 645.9 L207.3 646.8 L208.6 647.7 L210 648.6 L211.3 649.4 L212.7 650.2 L214 651 L215.4 651.7 L216.8 652.4 L218.3 653 L219.7 653.6 L221.2 654.2 L222.6 654.8 L224.1 655.3 L225.6 655.8 L227.1 656.2 L228.6 656.6 L230.2 657 L231.7 657.3 L233.3 657.6 L234.8 657.8 L236.4 658 L237.9 658.2 L239.5 658.3 L241.1 658.4 L242.6 658.5 L244.2 658.5 "/>
<path stroke="rgb(0, 0, 0)" fill="none" d="M276.2 594.5 L276.2 593.7 L276.2 592.9 L276.1 592.2 L276 591.4 L276 590.6 L275.9 589.8 L275.7 589 L275.6 588.3 L275.4 587.5 L275.2 586.7 L275 586 L274.8 585.2 L274.6 584.5 L274.3 583.7 L274.1 583 L273.8 582.3 L273.5 581.5 L273.1 580.8 L272.8 580.1 L272.4 579.4 L272 578.7 L271.6 578.1 L271.2 577.4 L270.8 576.7 L270.4 576.1 L269.9 575.5 L269.4 574.8 L268.9 574.2 L268.4 573.6 L267.9 573 L267.4 572.4 L266.8 571.9 L266.3 571.3 L265.7 570.8 L265.1 570.3 L264.5 569.8 L263.9 569.3 L263.3 568.8 L262.6 568.4 L262 567.9 L261.3 567.5 L260.7 567.1 L260 566.7 L259.3 566.3 L258.6 565.9 L257.9 565.6 L257.2 565.3 L256.4 565 L255.7 564.7 L255 564.4 L254.2 564.1 L253.5 563.9 L252.7 563.7 L252 563.5 L251.2 563.3 L250.4 563.1 L249.7 563 L248.9 562.9 L248.1 562.8 L247.3 562.7 L246.6 562.6 L245.8 562.6 L245 562.5 L244.2 562.5 L243.4 562.5 L242.6 562.6 L241.8 562.6 L241.1 562.7 L240.3 562.8 L239.5 562.9 L238.7 563 L238 563.1 L237.2 563.3 L236.4 563.5 L235.7 563.7 L234.9 563.9 L234.2 564.1 L233.4 564.4 L232.7 564.7 L232 565 L231.2 565.3 L230.5 565.6 L229.8 565.9 L229.1 566.3 L228.4 566.7 L227.7 567.1 L227.1 567.5 L226.4 567.9 L225.8 568.4 L225.1 568.8 L224.5 569.3 L223.9 569.8 L223.3 570.3 L222.7 570.8 L222.1 571.3 L221.6 571.9 L221 572.4 L220.5 573 L220 573.6 L219.5 574.2 L219 574.8 L218.5 575.5 L218 576.1 L217.6 576.7 L217.2 577.4 L216.8 578.1 L216.4 578.7 L216 579.4 L215.6 580.1 L215.3 580.8 L214.9 581.5 L214.6 582.3 L214.3 583 L214.1 583.7 L213.8 584.5 L213.6 585.2 L213.4 586 L213.2 586.7 L213 587.5 L212.8 588.3 L212.7 589 L212.5 589.8 L212.4 590.6 L212.4 591.4 L212.3 592.2 L212.2 592.9 L212.2 593.7 L212.2 594.5 L212.2 595.3 L212.2 596.1 L212.3 596.9 L212.4 597.7 L212.4 598.4 L212.5 599.2 L212.7 600 L212.8 600.8 L213 601.5 L213.2 602.3 L213.4 603 L213.6 603.8 L213.8 604.6 L214.1 605.3 L214.3 606 L214.6 606.8 L214.9 607.5 L215.3 608.2 L215.6 608.9 L216 609.6 L216.4 610.3 L216.8 611 L217.2 611.6 L217.6 612.3 L218 612.9 L218.5 613.6 L219 614.2 L219.5 614.8 L220 615.4 L220.5 616 L221 616.6 L221.6 617.1 L222.1 617.7 L222.7 618.2 L223.3 618.7 L223.9 619.3 L224.5 619.7 L225.1 620.2 L225.8 620.7 L226.4 621.1 L227.1 621.5 L227.7 622 L228.4 622.4 L229.1 622.7 L229.8 623.1 L230.5 623.4 L231.2 623.8 L232 624.1 L232.7 624.4 L233.4 624.6 L234.2 624.9 L234.9 625.1 L235.7 625.4 L236.4 625.6 L237.2 625.7 L238 625.9 L238.7 626 L239.5 626.2 L240.3 626.3 L241.1 626.4 L241.8 626.4 L242.6 626.5 L243.4 626.5 L244.2 626.5 L245 626.5 L245.8 626.5 L246.6 626.4 L247.3 626.4 L248.1 626.3 L248.9 626.2 L249.7 626 L250.4 625.9 L251.2 625.7 L252 625.6 L252.7 625.4 L253.5 625.1 L254.2 624.9 L255 624.6 L255.7 624.4 L256.4 624.1 L257.2 623.8 L257.9 623.4 L258.6 623.1 L259.3 622.7 L260 622.4 L260.7 622 L261.3 621.5 L262 621.1 L262.6 620.7 L263.3 620.2 L263.9 619.7 L264.5 619.3 L265.1 618.7 L265.7 618.2 L266.3 617.7 L266.8 617.1 L267.4 616.6 L267.9 616 L268.4 615.4 L268.9 614.8 L269.4 614.2 L269.9 613.6 L270.4 612.9 L270.8 612.3 L271.2 611.6 L271.6 611 L272 610.3 L272.4 609.6 L272.8 608.9 L273.1 608.2 L273.5 607.5 L273.8 606.8 L274.1 606 L274.3 605.3 L274.6 604.6 L274.8 603.8 L275 603 L275.2 602.3 L275.4 601.5 L275.6 600.8 L275.7 600 L275.9 599.2 L276 598.4 L276 597.7 L276.1 596.9 L276.2 596.1 L276.2 595.3 L276.2 594.5 "/>
<path stroke-dasharray="2,1" stroke="rgb(0, 255, 0)" fill="none" d="M344.2 530.5 L344.2 658.5 "/>
<path stroke="rgb(0, 0, 0)" fill="none" d="M678.6 530.5 L678.6 658.5 "/>
<path stroke="rgb(0, 0, 0)" fill="none" d="M678.6 530.5 L838.6 530.5 "/>
<path stroke="rgb(0, 0, 0)" fill="none" d="M838.6 530.5 L838.6 658.5 "/>
<path stroke="rgb(0, 0, 0)" fill="none" d="M838.6 658.5 L678.6 658.5 "/>
<path stroke="rgb(0, 0, 0)" fill="none" d="M794.6 530.5 L794.6 658.5 "/>
<path stroke="rgb(0, 0, 0)" fill="none" d="M722.6 530.5 L722.6 658.5 "/>
<path stroke-dasharray="5,1,1,1" stroke="rgb(255, 0, 0)" fill="none" d="M634.6 594.5 L880.9 594.5 "/>
<path stroke-dasharray="5,1,1,1" stroke="rgb(255, 0, 0)" fill="none" d="M758.6 495.3 L758.6 699.5 "/>
<path stroke-dasharray="2,1" stroke="rgb(0, 255, 0)" fill="none" d="M794.6 594.5 L794.6 593.6 L794.6 592.7 L794.5 591.9 L794.4 591 L794.3 590.1 L794.2 589.2 L794.1 588.4 L793.9 587.5 L793.7 586.6 L793.5 585.8 L793.3 584.9 L793 584.1 L792.8 583.2 L792.5 582.4 L792.2 581.6 L791.9 580.7 L791.5 579.9 L791.1 579.1 L790.8 578.3 L790.3 577.5 L789.9 576.8 L789.5 576 L789 575.3 L788.5 574.5 L788 573.8 L787.5 573.1 L787 572.4 L786.4 571.7 L785.9 571 L785.3 570.3 L784.7 569.7 L784.1 569.1 L783.4 568.4 L782.8 567.8 L782.1 567.3 L781.4 566.7 L780.7 566.1 L780 565.6 L779.3 565.1 L778.6 564.6 L777.9 564.1 L777.1 563.6 L776.3 563.2 L775.6 562.8 L774.8 562.4 L774 562 L773.2 561.6 L772.4 561.3 L771.6 560.9 L770.7 560.6 L769.9 560.3 L769 560.1 L768.2 559.8 L767.3 559.6 L766.5 559.4 L765.6 559.2 L764.8 559 L763.9 558.9 L763 558.8 L762.1 558.7 L761.2 558.6 L760.4 558.6 L759.5 558.5 L758.6 558.5 L757.7 558.5 L756.8 558.6 L756 558.6 L755.1 558.7 L754.2 558.8 L753.3 558.9 L752.4 559 L751.6 559.2 L750.7 559.4 L749.9 559.6 L749 559.8 L748.1 560.1 L747.3 560.3 L746.5 560.6 L745.6 560.9 L744.8 561.3 L744 561.6 L743.2 562 L742.4 562.4 L741.6 562.8 L740.9 563.2 L740.1 563.6 L739.3 564.1 L738.6 564.6 L737.9 565.1 L737.2 565.6 L736.5 566.1 L735.8 566.7 L735.1 567.3 L734.4 567.8 L733.8 568.4 L733.1 569.1 L732.5 569.7 L731.9 570.3 L731.3 571 L730.8 571.7 L730.2 572.4 L729.7 573.1 L729.2 573.8 L728.7 574.5 L728.2 575.3 L727.7 576 L727.3 576.8 L726.9 577.5 L726.4 578.3 L726.1 579.1 L725.7 579.9 L725.3 580.7 L725 581.6 L724.7 582.4 L724.4 583.2 L724.1 584.1 L723.9 584.9 L723.7 585.8 L723.5 586.6 L723.3 587.5 L723.1 588.4 L723 589.2 L722.9 590.1 L722.8 591 L722.7 591.9 L722.6 592.7 L722.6 593.6 L722.6 594.5 L722.6 595.4 L722.6 596.3 L722.7 597.2 L722.8 598 L722.9 598.9 L723 599.8 L723.1 600.7 L723.3 601.5 L723.5 602.4 L723.7 603.3 L723.9 604.1 L724.1 605 L724.4 605.8 L724.7 606.6 L725 607.5 L725.3 608.3 L725.7 609.1 L726.1 609.9 L726.4 610.7 L726.9 611.5 L727.3 612.3 L727.7 613 L728.2 613.8 L728.7 614.5 L729.2 615.2 L729.7 616 L730.2 616.7 L730.8 617.4 L731.3 618 L731.9 618.7 L732.5 619.3 L733.1 620 L733.8 620.6 L734.4 621.2 L735.1 621.8 L735.8 622.3 L736.5 622.9 L737.2 623.4 L737.9 623.9 L738.6 624.4 L739.3 624.9 L740.1 625.4 L740.9 625.8 L741.6 626.3 L742.4 626.7 L743.2 627.1 L744 627.4 L744.8 627.8 L745.6 628.1 L746.5 628.4 L747.3 628.7 L748.1 629 L749 629.2 L749.9 629.4 L750.7 629.6 L751.6 629.8 L752.4 630 L753.3 630.1 L754.2 630.2 L755.1 630.3 L756 630.4 L756.8 630.5 L757.7 630.5 L758.6 630.5 L759.5 630.5 L760.4 630.5 L761.2 630.4 L762.1 630.3 L763 630.2 L763.9 630.1 L764.8 630 L765.6 629.8 L766.5 629.6 L767.3 629.4 L768.2 629.2 L769 629 L769.9 628.7 L770.7 628.4 L771.6 628.1 L772.4 627.8 L773.2 627.4 L774 627.1 L774.8 626.7 L775.6 626.3 L776.3 625.8 L777.1 625.4 L777.9 624.9 L778.6 624.4 L779.3 623.9 L780 623.4 L780.7 622.9 L781.4 622.3 L782.1 621.8 L782.8 621.2 L783.4 620.6 L784.1 620 L784.7 619.3 L785.3 618.7 L785.9 618 L786.4 617.4 L787 616.7 L787.5 616 L788 615.2 L788.5 614.5 L789 613.8 L789.5 613 L789.9 612.3 L790.3 611.5 L790.8 610.7 L791.1 609.9 L791.5 609.1 L791.9 608.3 L792.2 607.5 L792.5 606.6 L792.8 605.8 L793 605 L793.3 604.1 L793.5 603.3 L793.7 602.4 L793.9 601.5 L794.1 600.7 L794.2 599.8 L794.3 598.9 L794.4 598 L794.5 597.2 L794.6 596.3 L794.6 595.4 L794.6 594.5 "/>
<path stroke-dasharray="5,1,1,1" stroke="rgb(255, 0, 0)" fill="none" d="M154.4 594.5 L574.3 594.5 "/>
<path stroke-dasharray="5,1,1,1" stroke="rgb(255, 0, 0)" fill="none" d="M244.2 243.3 L244.2 685.2 "/>
<path stroke-dasharray="5,1,1,1" stroke="rgb(255, 0, 0)" fill="none" d="M321.5 352.2 L544.8 352.2 "/>
<path stroke="rgb(0, 0, 0)" fill="none" d="M658.1 416.2 L665.5 412 "/>
</svg>