<svg width="1188.0000" height="840.0000" version="1.1" xmlns="http://www.w3.org/2000/svg" xmlns:xlink="http://www.w3.org/1999/xlink">
<path stroke="rgb(0, 0, 0)" fill="none" d="M283 503.8 L427 503.8 "/>
<path stroke="rgb(0, 0, 0)" fill="none" d="M427 503.8 L427 631.8 "/>
<path stroke="rgb(0, 0, 0)" fill="none" d="M427 631.8 L283 631.8 "/>
<path stroke="rgb(0, 0, 0)" fill="none" d="M427 531.8 L555 531.8 "/>
<path stroke="rgb(0, 0, 0)" fill="none" d="M555 531.8 L555 603.8 "/>
<path stroke="rgb(0, 0, 0)" fill="none" d="M555 603.8 L427 603.8 "/>
<path stroke="rgb(0, 0, 0)" fill="none" d="M427 405.5 L427 245.5 "/>
<path stroke="rgb(0, 0, 0)" fill="none" d="M427 289.5 L555 289.5 "/>
<path stroke="rgb(0, 0, 0)" fill="none" d="M555 289.5 L555 361.5 "/>
<path stroke="rgb(0, 0, 0)" fill="none" d="M555 361.5 L427 361.5 "/>
<path stroke="rgb(0, 0, 0)" fill="none" d="M797.4 319.5 L922.1 247.5 "/>
<path stroke="rgb(0, 0, 0)" fill="none" d="M922.1 247.5 L922.1 375.5 "/>
<path stroke="rgb(0, 0, 0)" fill="none" d="M922.1 375.5 L797.4 447.5 "/>
<path stroke="rgb(0, 0, 0)" fill="none" d="M797.4 319.5 L796 320.3 L794.6 321.2 L793.3 322 L791.9 323 L790.6 323.9 L789.2 324.9 L787.9 325.9 L786.5 327 L785.2 328.1 L783.9 329.2 L782.6 330.4 L781.3 331.6 L780 332.8 L778.7 334 L777.4 335.3 L776.2 336.6 L774.9 338 L773.7 339.3 L772.4 340.7 L771.2 342.1 L770 343.6 L768.9 345.1 L767.7 346.6 L766.6 348.1 L765.4 349.6 L764.3 351.2 L763.3 352.7 L762.2 354.3 L761.2 355.9 L760.1 357.6 L759.1 359.2 L758.2 360.9 L757.2 362.6 L756.3 364.2 L755.4 365.9 L754.5 367.6 L753.7 369.4 L752.8 371.1 L752 372.8 L751.3 374.6 L750.5 376.3 L749.8 378.1 L749.1 379.8 L748.5 381.6 L747.9 383.3 L747.3 385.1 L746.7 386.8 L746.2 388.6 L745.6 390.3 L745.2 392.1 L744.7 393.8 L744.3 395.5 L743.9 397.3 L743.6 399 L743.3 400.7 L743 402.4 L742.8 404.1 L742.5 405.8 L742.4 407.4 L742.2 409.1 L742.1 410.7 L742 412.3 L742 413.9 L741.9 415.5 L742 417.1 L742 418.6 L742.1 420.1 L742.2 421.6 L742.4 423.1 L742.5 424.6 L742.8 426 L743 427.4 L743.3 428.8 L743.6 430.1 L743.9 431.4 L744.3 432.7 L744.7 434 L745.2 435.2 L745.6 436.4 L746.2 437.6 L746.7 438.7 L747.3 439.8 L747.9 440.9 L748.5 441.9 L749.1 442.9 L749.8 443.9 L750.5 444.8 L751.3 445.7 L752 446.5 L752.8 447.3 L753.7 448.1 L754.5 448.8 L755.4 449.5 L756.3 450.2 L757.2 450.8 L758.2 451.4 L759.1 451.9 L760.1 452.4 L761.2 452.9 L762.2 453.3 L763.3 453.6 L764.3 454 L765.4 454.3 L766.6 454.5 L767.7 454.7 L768.9 454.9 L770 455 L771.2 455 L772.4 455.1 L773.7 455 L774.9 455 L776.2 454.9 L777.4 454.7 L778.7 454.5 L780 454.3 L781.3 454 L782.6 453.7 L783.9 453.4 L785.2 453 L786.5 452.5 L787.9 452 L789.2 451.5 L790.6 450.9 L791.9 450.3 L793.3 449.7 L794.6 449 L796 448.3 L797.4 447.5 "/>
<path stroke="rgb(0, 0, 0)" fill="none" d="M817 349.6 L816.5 349.3 L816 349.1 L815.5 348.8 L814.9 348.6 L814.4 348.4 L813.9 348.3 L813.3 348.1 L812.8 348 L812.2 347.9 L811.6 347.8 L811 347.8 L810.4 347.7 L809.8 347.7 L809.2 347.7 L808.6 347.8 L808 347.8 L807.3 347.9 L806.7 348 L806.1 348.1 L805.4 348.2 L804.8 348.4 L804.1 348.6 L803.4 348.8 L802.8 349 L802.1 349.2 L801.4 349.5 L800.8 349.8 L800.1 350.1 L799.4 350.4 L798.7 350.8 L798 351.1 L797.4 351.5 L796.7 351.9 L796 352.3 L795.3 352.8 L794.6 353.2 L794 353.7 L793.3 354.2 L792.6 354.7 L792 355.2 L791.3 355.8 L790.6 356.4 L790 356.9 L789.3 357.5 L788.7 358.1 L788 358.8 L787.4 359.4 L786.8 360.1 L786.1 360.7 L785.5 361.4 L784.9 362.1 L784.3 362.8 L783.7 363.5 L783.1 364.3 L782.5 365 L782 365.8 L781.4 366.6 L780.9 367.3 L780.3 368.1 L779.8 368.9 L779.3 369.7 L778.8 370.5 L778.3 371.4 L777.8 372.2 L777.3 373 L776.8 373.9 L776.4 374.7 L775.9 375.6 L775.5 376.4 L775.1 377.3 L774.7 378.2 L774.3 379 L773.9 379.9 L773.6 380.8 L773.2 381.7 L772.9 382.5 L772.6 383.4 L772.3 384.3 L772 385.2 L771.8 386 L771.5 386.9 L771.3 387.8 L771 388.7 L770.8 389.5 L770.7 390.4 L770.5 391.3 L770.3 392.1 L770.2 393 L770.1 393.8 L769.9 394.6 L769.9 395.5 L769.8 396.3 L769.7 397.1 L769.7 397.9 L769.7 398.7 L769.6 399.5 L769.7 400.3 L769.7 401.1 L769.7 401.8 L769.8 402.6 L769.9 403.3 L769.9 404 L770.1 404.7 L770.2 405.4 L770.3 406.1 L770.5 406.8 L770.7 407.5 L770.8 408.1 L771 408.7 L771.3 409.4 L771.5 410 L771.8 410.5 L772 411.1 L772.3 411.7 L772.6 412.2 L772.9 412.7 L773.2 413.2 L773.6 413.7 L773.9 414.1 L774.3 414.6 L774.7 415 L775.1 415.4 L775.5 415.8 L775.9 416.2 L776.4 416.5 L776.8 416.9 L777.3 417.2 L777.8 417.4 L778.3 417.7 L778.8 418 L779.3 418.2 L779.8 418.4 L780.3 418.6 L780.9 418.7 L781.4 418.9 L782 419 L782.5 419.1 L783.1 419.2 L783.7 419.2 L784.3 419.3 L784.9 419.3 L785.5 419.3 L786.1 419.2 L786.8 419.2 L787.4 419.1 L788 419 L788.7 418.9 L789.3 418.8 L790 418.6 L790.6 418.4 L791.3 418.2 L792 418 L792.6 417.8 L793.3 417.5 L794 417.2 L794.6 416.9 L795.3 416.6 L796 416.3 L796.7 415.9 L797.4 415.5 L798 415.1 L798.7 414.7 L799.4 414.2 L800.1 413.8 L800.8 413.3 L801.4 412.8 L802.1 412.3 L802.8 411.8 L803.4 411.2 L804.1 410.7 L804.8 410.1 L805.4 409.5 L806.1 408.9 L806.7 408.2 L807.3 407.6 L808 406.9 L808.6 406.3 L809.2 405.6 L809.8 404.9 L810.4 404.2 L811 403.5 L811.6 402.7 L812.2 402 L812.8 401.2 L813.3 400.5 L813.9 399.7 L814.4 398.9 L814.9 398.1 L815.5 397.3 L816 396.5 L816.5 395.6 L817 394.8 L817.4 394 L817.9 393.1 L818.3 392.3 L818.8 391.4 L819.2 390.6 L819.6 389.7 L820 388.9 L820.4 388 L820.8 387.1 L821.1 386.2 L821.5 385.4 L821.8 384.5 L822.1 383.6 L822.4 382.7 L822.7 381.8 L823 381 L823.2 380.1 L823.5 379.2 L823.7 378.4 L823.9 377.5 L824.1 376.6 L824.2 375.8 L824.4 374.9 L824.5 374.1 L824.7 373.2 L824.8 372.4 L824.9 371.5 L824.9 370.7 L825 369.9 L825 369.1 L825.1 368.3 L825.1 367.5 L825.1 366.7 L825 366 L825 365.2 L824.9 364.4 L824.9 363.7 L824.8 363 L824.7 362.3 L824.5 361.6 L824.4 360.9 L824.2 360.2 L824.1 359.6 L823.9 358.9 L823.7 358.3 L823.5 357.7 L823.2 357.1 L823 356.5 L822.7 355.9 L822.4 355.4 L822.1 354.8 L821.8 354.3 L821.5 353.8 L821.1 353.3 L820.8 352.9 L820.4 352.4 L820 352 L819.6 351.6 L819.2 351.2 L818.8 350.8 L818.3 350.5 L817.9 350.2 L817 349.6 "/>
<path stroke="rgb(0, 0, 0)" fill="none" d="M922.1 247.5 L783.5 167.5 "/>
<path stroke="rgb(0, 0, 0)" fill="none" d="M845.9 247.5 L759.3 297.5 "/>
<path stroke="rgb(0, 0, 0)" fill="none" d="M783.5 211.5 L845.9 247.5 "/>
<path stroke="rgb(0, 0, 0)" fill="none" d="M783.5 211.5 L696.9 261.5 "/>
<path stroke="rgb(0, 0, 0)" fill="none" d="M658.8 239.5 L783.5 167.5 "/>
<path stroke="rgb(0, 0, 0)" fill="none" d="M696.9 261.5 L695.5 262.3 L694.2 263.2 L692.8 264 L691.5 265 L690.1 265.9 L688.8 266.9 L687.4 267.9 L686.1 269 L684.8 270.1 L683.4 271.2 L682.1 272.4 L680.8 273.6 L679.5 274.8 L678.2 276 L677 277.3 L675.7 278.6 L674.4 280 L673.2 281.3 L672 282.7 L670.8 284.1 L669.6 285.6 L668.4 287.1 L667.2 288.6 L666.1 290.1 L665 291.6 L663.9 293.2 L662.8 294.7 L661.7 296.3 L660.7 297.9 L659.7 299.6 L658.7 301.2 L657.7 302.9 L656.8 304.6 L655.8 306.2 L654.9 307.9 L654.1 309.6 L653.2 311.4 L652.4 313.1 L651.6 314.8 L650.8 316.6 L650.1 318.3 L649.4 320.1 L648.7 321.8 L648 323.6 L647.4 325.3 L646.8 327.1 L646.2 328.8 L645.7 330.6 L645.2 332.3 L644.7 334.1 L644.3 335.8 L643.9 337.5 L643.5 339.3 L643.1 341 L642.8 342.7 L642.5 344.4 L642.3 346.1 L642.1 347.8 L641.9 349.4 L641.7 351.1 L641.6 352.7 L641.5 354.3 L641.5 355.9 L641.5 357.5 L641.5 359.1 L641.5 360.6 L641.6 362.1 L641.7 363.6 L641.9 365.1 L642.1 366.6 L642.3 368 L642.5 369.4 L642.8 370.8 L643.1 372.1 L643.5 373.4 L643.9 374.7 L644.3 376 L644.7 377.2 L645.2 378.4 L645.7 379.6 L646.2 380.7 L646.8 381.8 L647.4 382.9 L648 383.9 L648.7 384.9 L649.4 385.9 L650.1 386.8 L650.8 387.7 L651.6 388.5 L652.4 389.3 L653.2 390.1 L654.1 390.8 L654.9 391.5 L655.8 392.2 L656.8 392.8 L657.7 393.4 L658.7 393.9 L659.7 394.4 L660.7 394.9 L661.7 395.3 L662.8 395.6 L663.9 396 L665 396.3 L666.1 396.5 L667.2 396.7 L668.4 396.9 L669.6 397 L670.8 397 L672 397.1 L673.2 397 L674.4 397 L675.7 396.9 L677 396.7 L678.2 396.5 L679.5 396.3 L680.8 396 L682.1 395.7 L683.4 395.4 L684.8 395 L686.1 394.5 L687.4 394 L688.8 393.5 L690.1 392.9 L691.5 392.3 L692.8 391.7 L694.2 391 L695.5 390.3 L696.9 389.5 "/>
<path stroke="rgb(0, 0, 0)" fill="none" d="M716.5 291.6 L716 291.3 L715.5 291.1 L715 290.8 L714.5 290.6 L714 290.4 L713.4 290.3 L712.9 290.1 L712.3 290 L711.7 289.9 L711.1 289.8 L710.6 289.8 L710 289.7 L709.4 289.7 L708.8 289.7 L708.1 289.8 L707.5 289.8 L706.9 289.9 L706.2 290 L705.6 290.1 L704.9 290.2 L704.3 290.4 L703.6 290.6 L703 290.8 L702.3 291 L701.6 291.2 L701 291.5 L700.3 291.8 L699.6 292.1 L698.9 292.4 L698.3 292.8 L697.6 293.1 L696.9 293.5 L696.2 293.9 L695.5 294.3 L694.9 294.8 L694.2 295.2 L693.5 295.7 L692.8 296.2 L692.2 296.7 L691.5 297.2 L690.8 297.8 L690.2 298.4 L689.5 298.9 L688.9 299.5 L688.2 300.1 L687.6 300.8 L686.9 301.4 L686.3 302.1 L685.7 302.7 L685.1 303.4 L684.4 304.1 L683.8 304.8 L683.2 305.5 L682.7 306.3 L682.1 307 L681.5 307.8 L680.9 308.6 L680.4 309.3 L679.9 310.1 L679.3 310.9 L678.8 311.7 L678.3 312.5 L677.8 313.4 L677.3 314.2 L676.8 315 L676.4 315.9 L675.9 316.7 L675.5 317.6 L675.1 318.4 L674.6 319.3 L674.2 320.2 L673.9 321 L673.5 321.9 L673.1 322.8 L672.8 323.7 L672.5 324.5 L672.1 325.4 L671.8 326.3 L671.6 327.2 L671.3 328 L671 328.9 L670.8 329.8 L670.6 330.7 L670.4 331.5 L670.2 332.4 L670 333.3 L669.9 334.1 L669.7 335 L669.6 335.8 L669.5 336.6 L669.4 337.5 L669.3 338.3 L669.3 339.1 L669.2 339.9 L669.2 340.7 L669.2 341.5 L669.2 342.3 L669.2 343.1 L669.3 343.8 L669.3 344.6 L669.4 345.3 L669.5 346 L669.6 346.7 L669.7 347.4 L669.9 348.1 L670 348.8 L670.2 349.5 L670.4 350.1 L670.6 350.7 L670.8 351.4 L671 352 L671.3 352.5 L671.6 353.1 L671.8 353.7 L672.1 354.2 L672.5 354.7 L672.8 355.2 L673.1 355.7 L673.5 356.1 L673.9 356.6 L674.2 357 L674.6 357.4 L675.1 357.8 L675.5 358.2 L675.9 358.5 L676.4 358.9 L676.8 359.2 L677.3 359.4 L677.8 359.7 L678.3 360 L678.8 360.2 L679.3 360.4 L679.9 360.6 L680.4 360.7 L680.9 360.9 L681.5 361 L682.1 361.1 L682.7 361.2 L683.2 361.2 L683.8 361.3 L684.4 361.3 L685.1 361.3 L685.7 361.2 L686.3 361.2 L686.9 361.1 L687.6 361 L688.2 360.9 L688.9 360.8 L689.5 360.6 L690.2 360.4 L690.8 360.2 L691.5 360 L692.2 359.8 L692.8 359.5 L693.5 359.2 L694.2 358.9 L694.9 358.6 L695.5 358.3 L696.2 357.9 L696.9 357.5 L697.6 357.1 L698.3 356.7 L698.9 356.2 L699.6 355.8 L700.3 355.3 L701 354.8 L701.6 354.3 L702.3 353.8 L703 353.2 L703.6 352.7 L704.3 352.1 L704.9 351.5 L705.6 350.9 L706.2 350.2 L706.9 349.6 L707.5 348.9 L708.1 348.3 L708.8 347.6 L709.4 346.9 L710 346.2 L710.6 345.5 L711.1 344.7 L711.7 344 L712.3 343.2 L712.9 342.5 L713.4 341.7 L714 340.9 L714.5 340.1 L715 339.3 L715.5 338.5 L716 337.6 L716.5 336.8 L717 336 L717.4 335.1 L717.9 334.3 L718.3 333.4 L718.7 332.6 L719.2 331.7 L719.6 330.9 L719.9 330 L720.3 329.1 L720.7 328.2 L721 327.4 L721.3 326.5 L721.7 325.6 L722 324.7 L722.2 323.8 L722.5 323 L722.8 322.1 L723 321.2 L723.2 320.4 L723.4 319.5 L723.6 318.6 L723.8 317.8 L723.9 316.9 L724.1 316.1 L724.2 315.2 L724.3 314.4 L724.4 313.5 L724.5 312.7 L724.5 311.9 L724.6 311.1 L724.6 310.3 L724.6 309.5 L724.6 308.7 L724.6 308 L724.5 307.2 L724.5 306.4 L724.4 305.7 L724.3 305 L724.2 304.3 L724.1 303.6 L723.9 302.9 L723.8 302.2 L723.6 301.6 L723.4 300.9 L723.2 300.3 L723 299.7 L722.8 299.1 L722.5 298.5 L722.2 297.9 L722 297.4 L721.7 296.8 L721.3 296.3 L721 295.8 L720.7 295.3 L720.3 294.9 L719.9 294.4 L719.6 294 L719.2 293.6 L718.7 293.2 L718.3 292.8 L717.9 292.5 L717.4 292.2 L716.5 291.6 "/>
<path stroke="rgb(0, 0, 0)" fill="none" d="M758.2 451.4 L720.1 429.4 "/>
<path stroke="rgb(0, 0, 0)" fill="none" d="M759.3 297.5 L757.9 298.3 L756.5 299.2 L755.2 300 L753.8 301 L752.5 301.9 L751.1 302.9 L749.8 303.9 L748.4 305 L747.1 306.1 L745.8 307.2 L744.5 308.4 L743.2 309.6 L741.9 310.8 L740.6 312 L739.3 313.3 L738 314.6 L736.8 316 L735.6 317.3 L734.3 318.7 L733.1 320.1 L731.9 321.6 L730.8 323.1 L729.6 324.6 L728.5 326.1 L727.3 327.6 L726.2 329.2 L725.2 330.7 L724.1 332.3 L723.1 333.9 L722 335.6 L721 337.2 L720.1 338.9 L719.1 340.6 L718.2 342.2 L717.3 343.9 L716.4 345.6 L715.6 347.4 L714.7 349.1 L713.9 350.8 L713.2 352.6 L712.4 354.3 L711.7 356.1 L711 357.8 L710.4 359.6 L709.7 361.3 L709.2 363.1 L708.6 364.8 L708 366.6 L707.5 368.3 L707.1 370.1 L706.6 371.8 L706.2 373.5 L705.8 375.3 L705.5 377 L705.2 378.7 L704.9 380.4 L704.6 382.1 L704.4 383.8 L704.2 385.4 L704.1 387.1 L704 388.7 L703.9 390.3 L703.8 391.9 L703.8 393.5 L703.8 395.1 L703.9 396.6 L704 398.1 L704.1 399.6 L704.2 401.1 L704.4 402.6 L704.6 404 L704.9 405.4 L705.2 406.8 L705.5 408.1 L705.8 409.4 L706.2 410.7 L706.6 412 L707.1 413.2 L707.5 414.4 L708 415.6 L708.6 416.7 L709.2 417.8 L709.7 418.9 L710.4 419.9 L711 420.9 L711.7 421.9 L712.4 422.8 L713.2 423.7 L713.9 424.5 L714.7 425.3 L715.6 426.1 L716.4 426.8 L717.3 427.5 L718.2 428.2 L719.1 428.8 L720.1 429.4 "/>
<path stroke="rgb(0, 0, 0)" fill="none" d="M783.5 211.5 L783.5 283.5 "/>
<path stroke="rgb(0, 0, 0)" fill="none" d="M657.7 393.4 L619.6 371.4 "/>
<path stroke="rgb(0, 0, 0)" fill="none" d="M658.8 239.5 L657.4 240.3 L656.1 241.2 L654.7 242 L653.4 243 L652 243.9 L650.7 244.9 L649.3 245.9 L648 247 L646.7 248.1 L645.3 249.2 L644 250.4 L642.7 251.6 L641.4 252.8 L640.1 254 L638.8 255.3 L637.6 256.6 L636.3 258 L635.1 259.3 L633.9 260.7 L632.7 262.1 L631.5 263.6 L630.3 265.1 L629.1 266.6 L628 268.1 L626.9 269.6 L625.8 271.2 L624.7 272.7 L623.6 274.3 L622.6 275.9 L621.6 277.6 L620.6 279.2 L619.6 280.9 L618.7 282.6 L617.7 284.2 L616.8 285.9 L616 287.6 L615.1 289.4 L614.3 291.1 L613.5 292.8 L612.7 294.6 L612 296.3 L611.3 298.1 L610.6 299.8 L609.9 301.6 L609.3 303.3 L608.7 305.1 L608.1 306.8 L607.6 308.6 L607.1 310.3 L606.6 312.1 L606.2 313.8 L605.8 315.5 L605.4 317.3 L605 319 L604.7 320.7 L604.4 322.4 L604.2 324.1 L604 325.8 L603.8 327.4 L603.6 329.1 L603.5 330.7 L603.4 332.3 L603.4 333.9 L603.4 335.5 L603.4 337.1 L603.4 338.6 L603.5 340.1 L603.6 341.6 L603.8 343.1 L604 344.6 L604.2 346 L604.4 347.4 L604.7 348.8 L605 350.1 L605.4 351.4 L605.8 352.7 L606.2 354 L606.6 355.2 L607.1 356.4 L607.6 357.6 L608.1 358.7 L608.7 359.8 L609.3 360.9 L609.9 361.9 L610.6 362.9 L611.3 363.9 L612 364.8 L612.7 365.7 L613.5 366.5 L614.3 367.3 L615.1 368.1 L616 368.8 L616.8 369.5 L617.7 370.2 L618.7 370.8 L619.6 371.4 "/>
<path stroke="rgb(0, 0, 0)" fill="none" d="M985.7 245.7 L986.2 245.4 L986.7 245 L987.2 244.6 L987.7 244.3 L988.2 243.8 L988.7 243.4 L989.1 243 L989.6 242.5 L990 242 L990.4 241.5 L990.8 240.9 L991.1 240.4 L991.5 239.8 L991.8 239.2 L992.1 238.6 L992.4 237.9 L992.7 237.3 L993 236.6 L993.2 235.9 L993.5 235.2 L993.7 234.5 L993.9 233.7 L994.1 233 L994.2 232.2 L994.4 231.4 L994.5 230.6 L994.6 229.8 L994.7 228.9 L994.7 228.1 L994.8 227.3 L994.8 226.4 L994.8 225.5 L994.8 224.6 L994.8 223.7 L994.7 222.8 L994.7 221.9 L994.6 221 L994.5 220 L994.4 219.1 L994.2 218.1 L994.1 217.2 L993.9 216.2 L993.7 215.3 L993.5 214.3 L993.2 213.3 L993 212.3 L992.7 211.3 L992.4 210.4 L992.1 209.4 L991.8 208.4 L991.5 207.4 L991.1 206.4 L990.8 205.4 L990.4 204.4 L990 203.5 L989.6 202.5 L989.1 201.5 L988.7 200.5 L988.2 199.5 L987.7 198.6 L987.2 197.6 L986.7 196.7 L986.2 195.7 L985.7 194.8 L985.1 193.8 L984.6 192.9 L984 192 L983.4 191.1 L982.8 190.2 L982.2 189.3 L981.6 188.4 L981 187.6 L980.3 186.7 L979.7 185.9 L979 185.1 L978.3 184.2 L977.7 183.4 L977 182.7 L976.3 181.9 L975.6 181.1 L974.9 180.4 L974.1 179.7 L973.4 179 L972.7 178.3 L972 177.6 L971.2 177 L970.5 176.3 L969.7 175.7 L969 175.1 L968.2 174.5 L967.5 174 L966.7 173.4 L965.9 172.9 L965.2 172.4 L964.4 172 L963.6 171.5 L962.9 171.1 L962.1 170.7 L961.3 170.3 L960.6 169.9 L959.8 169.6 L959.1 169.3 L958.3 169 L957.6 168.7 L956.8 168.4 L956.1 168.2 L955.3 168 L954.6 167.8 L953.9 167.7 L953.1 167.5 L952.4 167.4 L951.7 167.4 L951 167.3 L950.3 167.3 L949.6 167.3 L948.9 167.3 L948.3 167.3 L947.6 167.4 L947 167.5 L946.3 167.6 L945.7 167.7 L945.1 167.9 L944.5 168.1 L943.9 168.3 L943.3 168.5 L942.7 168.7 L941.6 169.3 "/>
<path stroke="rgb(0, 0, 0)" fill="none" d="M941.6 169.3 L864.1 214 "/>
<path stroke="rgb(0, 0, 0)" fill="none" d="M985.7 245.7 L922.1 282.4 "/>
<path stroke="rgb(0, 0, 0)" fill="none" d="M383 361.5 L383 289.5 "/>
<path stroke-dasharray="10,5" stroke="rgb(0, 255, 0)" fill="none" d="M315 289.5 L315 245.5 "/>
<path stroke-dasharray="10,5" stroke="rgb(0, 255, 0)" fill="none" d="M315 361.5 L315 405.5 "/>
<path stroke-dasharray="10,5" stroke="rgb(0, 255, 0)" fill="none" d="M251 361.5 L251 405.5 "/>
<path stroke-dasharray="10,5" stroke="rgb(0, 255, 0)" fill="none" d="M251 289.5 L251 245.5 "/>
<path stroke="rgb(0, 0, 0)" fill="none" d="M219 405.5 L219 361.5 "/>
<path stroke="rgb(0, 0, 0)" fill="none" d="M219 361.5 L383 361.5 "/>
<path stroke="rgb(0, 0, 0)" fill="none" d="M383 289.5 L219 289.5 "/>
<path stroke="rgb(0, 0, 0)" fill="none" d="M219 289.5 L219 245.5 "/>
<path stroke="rgb(0, 0, 0)" fill="none" d="M219 245.5 L427 245.5 "/>
<path stroke="rgb(0, 0, 0)" fill="none" d="M219 405.5 L427 405.5 "/>
<path stroke="rgb(0, 0, 0)" fill="none" d="M283 503.8 L281.4 503.8 L279.8 503.9 L278.3 504 L276.7 504.1 L275.1 504.3 L273.6 504.5 L272 504.7 L270.5 505 L268.9 505.3 L267.4 505.7 L265.9 506.1 L264.4 506.5 L262.9 507 L261.4 507.5 L259.9 508.1 L258.5 508.6 L257 509.3 L255.6 509.9 L254.2 510.6 L252.8 511.3 L251.4 512.1 L250.1 512.9 L248.7 513.7 L247.4 514.6 L246.1 515.5 L244.8 516.4 L243.6 517.3 L242.4 518.3 L241.2 519.3 L240 520.4 L238.8 521.4 L237.7 522.5 L236.6 523.6 L235.5 524.8 L234.5 526 L233.5 527.2 L232.5 528.4 L231.6 529.7 L230.6 530.9 L229.7 532.2 L228.9 533.5 L228.1 534.9 L227.3 536.2 L226.5 537.6 L225.8 539 L225.1 540.4 L224.5 541.8 L223.8 543.3 L223.2 544.7 L222.7 546.2 L222.2 547.7 L221.7 549.2 L221.3 550.7 L220.9 552.2 L220.5 553.8 L220.2 555.3 L219.9 556.8 L219.7 558.4 L219.4 559.9 L219.3 561.5 L219.1 563.1 L219 564.6 L219 566.2 L219 567.8 L219 569.3 L219 570.9 L219.1 572.5 L219.3 574.1 L219.4 575.6 L219.7 577.2 L219.9 578.7 L220.2 580.3 L220.5 581.8 L220.9 583.3 L221.3 584.8 L221.7 586.4 L222.2 587.9 L222.7 589.3 L223.2 590.8 L223.8 592.3 L224.5 593.7 L225.1 595.1 L225.8 596.6 L226.5 597.9 L227.3 599.3 L228.1 600.7 L228.9 602 L229.7 603.3 L230.6 604.6 L231.6 605.9 L232.5 607.2 L233.5 608.4 L234.5 609.6 L235.5 610.8 L236.6 611.9 L237.7 613 L238.8 614.1 L240 615.2 L241.2 616.2 L242.4 617.3 L243.6 618.2 L244.8 619.2 L246.1 620.1 L247.4 621 L248.7 621.8 L250.1 622.7 L251.4 623.5 L252.8 624.2 L254.2 624.9 L255.6 625.6 L257 626.3 L258.5 626.9 L259.9 627.5 L261.4 628 L262.9 628.5 L264.4 629 L265.9 629.5 L267.4 629.9 L268.9 630.2 L270.5 630.5 L272 630.8 L273.6 631.1 L275.1 631.3 L276.7 631.5 L278.3 631.6 L279.8 631.7 L281.4 631.8 L283 631.8 "/>
<path stroke="rgb(0, 0, 0)" fill="none" d="M315 567.8 L315 567 L314.9 566.2 L314.9 565.4 L314.8 564.6 L314.7 563.9 L314.6 563.1 L314.5 562.3 L314.3 561.5 L314.2 560.8 L314 560 L313.8 559.2 L313.6 558.5 L313.3 557.7 L313.1 557 L312.8 556.3 L312.5 555.5 L312.2 554.8 L311.9 554.1 L311.5 553.4 L311.2 552.7 L310.8 552 L310.4 551.3 L310 550.7 L309.6 550 L309.1 549.4 L308.7 548.7 L308.2 548.1 L307.7 547.5 L307.2 546.9 L306.7 546.3 L306.1 545.7 L305.6 545.2 L305 544.6 L304.5 544.1 L303.9 543.5 L303.3 543 L302.6 542.6 L302 542.1 L301.4 541.6 L300.7 541.2 L300.1 540.7 L299.4 540.3 L298.7 539.9 L298 539.6 L297.3 539.2 L296.6 538.8 L295.9 538.5 L295.2 538.2 L294.5 537.9 L293.7 537.6 L293 537.4 L292.3 537.2 L291.5 536.9 L290.7 536.7 L290 536.6 L289.2 536.4 L288.4 536.2 L287.7 536.1 L286.9 536 L286.1 535.9 L285.3 535.9 L284.5 535.8 L283.7 535.8 L283 535.8 L282.2 535.8 L281.4 535.8 L280.6 535.9 L279.8 535.9 L279 536 L278.3 536.1 L277.5 536.2 L276.7 536.4 L276 536.6 L275.2 536.7 L274.4 536.9 L273.7 537.2 L272.9 537.4 L272.2 537.6 L271.4 537.9 L270.7 538.2 L270 538.5 L269.3 538.8 L268.6 539.2 L267.9 539.6 L267.2 539.9 L266.5 540.3 L265.8 540.7 L265.2 541.2 L264.5 541.6 L263.9 542.1 L263.3 542.6 L262.7 543 L262.1 543.5 L261.5 544.1 L260.9 544.6 L260.3 545.2 L259.8 545.7 L259.3 546.3 L258.7 546.9 L258.2 547.5 L257.7 548.1 L257.3 548.7 L256.8 549.4 L256.4 550 L255.9 550.7 L255.5 551.3 L255.1 552 L254.7 552.7 L254.4 553.4 L254 554.1 L253.7 554.8 L253.4 555.5 L253.1 556.3 L252.8 557 L252.6 557.7 L252.3 558.5 L252.1 559.2 L251.9 560 L251.7 560.8 L251.6 561.5 L251.4 562.3 L251.3 563.1 L251.2 563.9 L251.1 564.6 L251 565.4 L251 566.2 L251 567 L251 567.8 L251 568.6 L251 569.3 L251 570.1 L251.1 570.9 L251.2 571.7 L251.3 572.5 L251.4 573.2 L251.6 574 L251.7 574.8 L251.9 575.6 L252.1 576.3 L252.3 577.1 L252.6 577.8 L252.8 578.6 L253.1 579.3 L253.4 580 L253.7 580.7 L254 581.5 L254.4 582.2 L254.7 582.9 L255.1 583.6 L255.5 584.2 L255.9 584.9 L256.4 585.6 L256.8 586.2 L257.3 586.8 L257.7 587.5 L258.2 588.1 L258.7 588.7 L259.3 589.3 L259.8 589.8 L260.3 590.4 L260.9 591 L261.5 591.5 L262.1 592 L262.7 592.5 L263.3 593 L263.9 593.5 L264.5 593.9 L265.2 594.4 L265.8 594.8 L266.5 595.2 L267.2 595.6 L267.9 596 L268.6 596.4 L269.3 596.7 L270 597 L270.7 597.3 L271.4 597.6 L272.2 597.9 L272.9 598.2 L273.7 598.4 L274.4 598.6 L275.2 598.8 L276 599 L276.7 599.2 L277.5 599.3 L278.3 599.4 L279 599.5 L279.8 599.6 L280.6 599.7 L281.4 599.7 L282.2 599.8 L283 599.8 L283.7 599.8 L284.5 599.7 L285.3 599.7 L286.1 599.6 L286.9 599.5 L287.7 599.4 L288.4 599.3 L289.2 599.2 L290 599 L290.7 598.8 L291.5 598.6 L292.3 598.4 L293 598.2 L293.7 597.9 L294.5 597.6 L295.2 597.3 L295.9 597 L296.6 596.7 L297.3 596.4 L298 596 L298.7 595.6 L299.4 595.2 L300.1 594.8 L300.7 594.4 L301.4 593.9 L302 593.5 L302.6 593 L303.3 592.5 L303.9 592 L304.5 591.5 L305 591 L305.6 590.4 L306.1 589.8 L306.7 589.3 L307.2 588.7 L307.7 588.1 L308.2 587.5 L308.7 586.8 L309.1 586.2 L309.6 585.6 L310 584.9 L310.4 584.2 L310.8 583.6 L311.2 582.9 L311.5 582.2 L311.9 581.5 L312.2 580.7 L312.5 580 L312.8 579.3 L313.1 578.6 L313.3 577.8 L313.6 577.1 L313.8 576.3 L314 575.6 L314.2 574.8 L314.3 574 L314.5 573.2 L314.6 572.5 L314.7 571.7 L314.8 570.9 L314.9 570.1 L314.9 569.3 L315 568.6 L315 567.8 "/>
<path stroke-dasharray="10,5" stroke="rgb(0, 255, 0)" fill="none" d="M383 503.8 L383 631.8 "/>
<path stroke="rgb(0, 0, 0)" fill="none" d="M717.4 503.8 L717.4 631.8 "/>
<path stroke="rgb(0, 0, 0)" fill="none" d="M717.4 503.8 L877.4 503.8 "/>
<path stroke="rgb(0, 0, 0)" fill="none" d="M877.4 503.8 L877.4 631.8 "/>
<path stroke="rgb(0, 0, 0)" fill="none" d="M877.4 631.8 L717.4 631.8 "/>
<path stroke="rgb(0, 0, 0)" fill="none" d="M833.4 503.8 L833.4 631.8 "/>
<path stroke="rgb(0, 0, 0)" fill="none" d="M761.4 503.8 L761.4 631.8 "/>
<path stroke-dasharray="25,5,5,5" stroke="rgb(255, 0, 0)" fill="none" d="M673.3 567.8 L919.6 567.8 "/>
<path stroke-dasharray="25,5,5,5" stroke="rgb(255, 0, 0)" fill="none" d="M797.4 468.5 L797.4 672.7 "/>
<path stroke-dasharray="10,5" stroke="rgb(0, 255, 0)" fill="none" d="M833.4 567.8 L833.4 566.9 L833.3 566 L833.3 565.1 L833.2 564.2 L833.1 563.4 L833 562.5 L832.8 561.6 L832.7 560.8 L832.5 559.9 L832.3 559 L832.1 558.2 L831.8 557.3 L831.5 556.5 L831.3 555.6 L830.9 554.8 L830.6 554 L830.3 553.2 L829.9 552.4 L829.5 551.6 L829.1 550.8 L828.7 550 L828.2 549.3 L827.8 548.5 L827.3 547.8 L826.8 547 L826.3 546.3 L825.7 545.6 L825.2 544.9 L824.6 544.3 L824 543.6 L823.4 543 L822.8 542.3 L822.2 541.7 L821.5 541.1 L820.9 540.5 L820.2 539.9 L819.5 539.4 L818.8 538.9 L818.1 538.3 L817.4 537.8 L816.6 537.4 L815.9 536.9 L815.1 536.5 L814.3 536 L813.5 535.6 L812.8 535.2 L811.9 534.9 L811.1 534.5 L810.3 534.2 L809.5 533.9 L808.7 533.6 L807.8 533.3 L807 533.1 L806.1 532.9 L805.2 532.7 L804.4 532.5 L803.5 532.3 L802.6 532.2 L801.8 532 L800.9 532 L800 531.9 L799.1 531.8 L798.2 531.8 L797.4 531.8 L796.5 531.8 L795.6 531.8 L794.7 531.9 L793.8 532 L793 532 L792.1 532.2 L791.2 532.3 L790.3 532.5 L789.5 532.7 L788.6 532.9 L787.8 533.1 L786.9 533.3 L786.1 533.6 L785.2 533.9 L784.4 534.2 L783.6 534.5 L782.8 534.9 L782 535.2 L781.2 535.6 L780.4 536 L779.6 536.5 L778.9 536.9 L778.1 537.4 L777.4 537.8 L776.6 538.3 L775.9 538.9 L775.2 539.4 L774.5 539.9 L773.8 540.5 L773.2 541.1 L772.5 541.7 L771.9 542.3 L771.3 543 L770.7 543.6 L770.1 544.3 L769.5 544.9 L769 545.6 L768.4 546.3 L767.9 547 L767.4 547.8 L766.9 548.5 L766.5 549.3 L766 550 L765.6 550.8 L765.2 551.6 L764.8 552.4 L764.4 553.2 L764.1 554 L763.8 554.8 L763.5 555.6 L763.2 556.5 L762.9 557.3 L762.7 558.2 L762.4 559 L762.2 559.9 L762.1 560.8 L761.9 561.6 L761.8 562.5 L761.6 563.4 L761.5 564.2 L761.5 565.1 L761.4 566 L761.4 566.9 L761.4 567.8 L761.4 568.7 L761.4 569.5 L761.5 570.4 L761.5 571.3 L761.6 572.2 L761.8 573.1 L761.9 573.9 L762.1 574.8 L762.2 575.7 L762.4 576.5 L762.7 577.4 L762.9 578.2 L763.2 579.1 L763.5 579.9 L763.8 580.7 L764.1 581.6 L764.4 582.4 L764.8 583.2 L765.2 584 L765.6 584.7 L766 585.5 L766.5 586.3 L766.9 587 L767.4 587.8 L767.9 588.5 L768.4 589.2 L769 589.9 L769.5 590.6 L770.1 591.3 L770.7 592 L771.3 592.6 L771.9 593.2 L772.5 593.9 L773.2 594.5 L773.8 595 L774.5 595.6 L775.2 596.2 L775.9 596.7 L776.6 597.2 L777.4 597.7 L778.1 598.2 L778.9 598.7 L779.6 599.1 L780.4 599.5 L781.2 599.9 L782 600.3 L782.8 600.7 L783.6 601 L784.4 601.4 L785.2 601.7 L786.1 602 L786.9 602.2 L787.8 602.5 L788.6 602.7 L789.5 602.9 L790.3 603.1 L791.2 603.2 L792.1 603.4 L793 603.5 L793.8 603.6 L794.7 603.7 L795.6 603.7 L796.5 603.8 L797.4 603.8 L798.2 603.8 L799.1 603.7 L800 603.7 L800.9 603.6 L801.8 603.5 L802.6 603.4 L803.5 603.2 L804.4 603.1 L805.2 602.9 L806.1 602.7 L807 602.5 L807.8 602.2 L808.7 602 L809.5 601.7 L810.3 601.4 L811.1 601 L811.9 600.7 L812.8 600.3 L813.5 599.9 L814.3 599.5 L815.1 599.1 L815.9 598.7 L816.6 598.2 L817.4 597.7 L818.1 597.2 L818.8 596.7 L819.5 596.2 L820.2 595.6 L820.9 595 L821.5 594.5 L822.2 593.9 L822.8 593.2 L823.4 592.6 L824 592 L824.6 591.3 L825.2 590.6 L825.7 589.9 L826.3 589.2 L826.8 588.5 L827.3 587.8 L827.8 587 L828.2 586.3 L828.7 585.5 L829.1 584.7 L829.5 584 L829.9 583.2 L830.3 582.4 L830.6 581.6 L830.9 580.7 L831.3 579.9 L831.5 579.1 L831.8 578.2 L832.1 577.4 L832.3 576.5 L832.5 575.7 L832.7 574.8 L832.8 573.9 L833 573.1 L833.1 572.2 L833.2 571.3 L833.3 570.4 L833.3 569.5 L833.4 568.7 L833.4 567.8 "/>
<path stroke-dasharray="25,5,5,5" stroke="rgb(255, 0, 0)" fill="none" d="M193.2 567.8 L613.1 567.8 "/>
<path stroke-dasharray="25,5,5,5" stroke="rgb(255, 0, 0)" fill="none" d="M283 216.6 L283 658.4 "/>
<path stroke-dasharray="25,5,5,5" stroke="rgb(255, 0, 0)" fill="none" d="M360.3 325.5 L583.6 325.5 "/>
<path stroke="rgb(0, 0, 0)" fill="none" d="M696.9 389.5 L704.3 385.3 "/>
</svg>