999
CadZinho - Minimalist CAD by Zecruel
0
SECTION
2
HEADER
9
$ACADVER
1
AC1021
9
$HANDSEED
5
A2
9
$INSUNITS
70
4
9
$LWDISPLAY
290
1
0
ENDSEC
0
SECTION
2
CLASSES
0
ENDSEC
0
SECTION
2
TABLES
0
TABLE
2
VPORT
5
1
100
AcDbSymbolTable
70
1000
0
VPORT
5
25
100
AcDbSymbolTableRecord
100
AcDbViewportTableRecord
2
*ACTIVE
70
0
10
0.000000
20
0.000000
11
1.000000
21
1.000000
12
20.000000
22
320.000000
13
0.000000
23
0.000000
14
100.000000
24
100.000000
15
100.000000
25
100.000000
16
0.000000
26
0.000000
36
1.000000
17
0.000000
27
0.000000
37
0.000000
40
25.000000
41
1.800000
42
50.000000
43
0.000000
44
0.000000
50
0.000000
51
0.000000
0
ENDTAB
0
TABLE
2
LTYPE
5
4
100
AcDbSymbolTable
70
1000
0
LTYPE
5
5
100
AcDbSymbolTableRecord
100
AcDbLinetypeTableRecord
2
ByBlock
70
0
3

72
65
73
0
40
0.000000
0
LTYPE
5
6
100
AcDbSymbolTableRecord
100
AcDbLinetypeTableRecord
2
ByLayer
70
0
3

72
65
73
0
40
0.000000
0
LTYPE
5
7
100
AcDbSymbolTableRecord
100
AcDbLinetypeTableRecord
2
Continuous
70
0
3
___________________________________
72
65
73
0
40
0.000000
0
LTYPE
5
8
100
AcDbSymbolTableRecord
100
AcDbLinetypeTableRecord
2
Border
70
0
3
____ . ____ ____ . ____ ____ . ____
72
65
73
6
40
1.750000
49
0.500000
74
0
49
-0.250000
74
0
49
0.500000
74
0
49
-0.250000
74
0
49
0.000000
74
0
49
-0.250000
74
0
0
LTYPE
5
9
100
AcDbSymbolTableRecord
100
AcDbLinetypeTableRecord
2
Center
70
0
3
____ _ ____ _ ____ _ ____ _ ____ _
72
65
73
4
40
2.000000
49
1.250000
74
0
49
-0.250000
74
0
49
0.250000
74
0
49
-0.250000
74
0
0
LTYPE
5
A
100
AcDbSymbolTableRecord
100
AcDbLinetypeTableRecord
2
Dashdot
70
0
3
____ . ____ . ____ . ____ . ____ .
72
65
73
4
40
1.000000
49
0.500000
74
0
49
-0.250000
74
0
49
0.000000
74
0
49
-0.250000
74
0
0
LTYPE
5
B
100
AcDbSymbolTableRecord
100
AcDbLinetypeTableRecord
2
Dashed
70
0
3
____ ____ ____ ____ ____ ____ ____
72
65
73
2
40
0.750000
49
0.500000
74
0
49
-0.250000
74
0
0
LTYPE
5
C
100
AcDbSymbolTableRecord
100
AcDbLinetypeTableRecord
2
Divide
70
0
3
____ . . ____ . . ____ . . ____ . .
72
65
73
6
40
1.250000
49
0.500000
74
0
49
-0.250000
74
0
49
0.000000
74
0
49
-0.250000
74
0
49
0.000000
74
0
49
-0.250000
74
0
0
LTYPE
5
D
100
AcDbSymbolTableRecord
100
AcDbLinetypeTableRecord
2
Dot
70
0
3
. . . . . . . . . . . . . . . . . .
72
65
73
2
40
0.250000
49
0.000000
74
0
49
-0.250000
74
0
0
LTYPE
5
E
100
AcDbSymbolTableRecord
100
AcDbLinetypeTableRecord
2
Hidden
70
0
3
__ __ __ __ __ __ __ __ __ __ __ __
72
65
73
2
40
0.375000
49
0.250000
74
0
49
-0.125000
74
0
0
LTYPE
5
F
100
AcDbSymbolTableRecord
100
AcDbLinetypeTableRecord
2
Phantom
70
0
3
_____ _ _ _____ _ _ _____ _ _ _____
72
65
73
6
40
2.500000
49
1.250000
74
0
49
-0.250000
74
0
49
0.250000
74
0
49
-0.250000
74
0
49
0.250000
74
0
49
-0.250000
74
0
0
ENDTAB
0
TABLE
2
LAYER
5
10
100
AcDbSymbolTable
70
1000
0
LAYER
5
11
100
AcDbSymbolTableRecord
100
AcDbLayerTableRecord
2
0
70
0
62
7
6
Continuous
370
0
390
2B
0
ENDTAB
0
TABLE
2
STYLE
5
12
100
AcDbSymbolTable
70
1000
0
STYLE
5
13
100
AcDbSymbolTableRecord
100
AcDbTextStyleTableRecord
2
Standard
70
0
40
0.000000
41
1.000000
50
0.000000
71
0
42
1.000000
3
TXT.SHX
4

0
STYLE
5
24
100
AcDbSymbolTableRecord
100
AcDbTextStyleTableRecord
2

70
1
40
0.000000
41
1.000000
50
0.000000
71
0
42
1.000000
3
LTYPESHP.SHX
4

0
STYLE
5
2E
100
AcDbSymbolTableRecord
100
AcDbTextStyleTableRecord
2
Arial
70
0
40
0.000000
41
1.000000
50
0.000000
71
0
42
1.000000
3
ARIALUNI.TTF
4

0
STYLE
5
46
100
AcDbSymbolTableRecord
100
AcDbTextStyleTableRecord
2
Arial-Back
70
0
40
0.000000
41
1.000000
50
0.000000
71
2
42
1.000000
3
ARIALUNI.TTF
4

0
STYLE
5
4B
100
AcDbSymbolTableRecord
100
AcDbTextStyleTableRecord
2
java
70
0
40
0.000000
41
1.000000
50
0.000000
71
0
42
1.000000
3
NotoSansJavanese-Regular.ttf
4

0
ENDTAB
0
TABLE
2
VIEW
5
14
100
AcDbSymbolTable
70
0
0
ENDTAB
0
TABLE
2
UCS
5
15
100
AcDbSymbolTable
70
0
0
ENDTAB
0
TABLE
2
APPID
5
16
100
AcDbSymbolTable
70
10
0
APPID
5
17
100
AcDbSymbolTableRecord
100
AcDbRegAppTableRecord
2
ACAD
70
0
0
APPID
5
18
100
AcDbSymbolTableRecord
100
AcDbRegAppTableRecord
2
CADZINHO
70
0
0
ENDTAB
0
TABLE
2
DIMSTYLE
5
19
100
AcDbSymbolTable
70
1
100
AcDbDimStyleTable
71
1
0
DIMSTYLE
105
1A
100
AcDbSymbolTableRecord
100
AcDbDimStyleTableRecord
2
Standard
70
0
340
C
0
ENDTAB
0
TABLE
2
BLOCK_RECORD
5
1B
100
AcDbSymbolTable
70
9999
0
BLOCK_RECORD
5
1C
100
AcDbSymbolTableRecord
100
AcDbBlockTableRecord
2
*Model_Space
70
0
0
BLOCK_RECORD
5
1D
100
AcDbSymbolTableRecord
100
AcDbBlockTableRecord
2
*Paper_Space
70
0
0
ENDTAB
0
ENDSEC
0
SECTION
2
BLOCKS
0
BLOCK
5
1E
100
AcDbEntity
8
0
100
AcDbBlockBegin
2
*Model_Space
70
0
10
0.000000
20
0.000000
30
0.000000
3
*Model_Space
1

0
ENDBLK
5
1F
100
AcDbEntity
8
0
100
AcDbBlockEnd
0
BLOCK
5
20
100
AcDbEntity
8
0
100
AcDbBlockBegin
2
*Paper_Space
70
0
10
0.000000
20
0.000000
30
0.000000
3
*Paper_Space
1

0
ENDBLK
5
21
100
AcDbEntity
8
0
100
AcDbBlockEnd
0
ENDSEC
0
SECTION
2
ENTITIES
0
TEXT
5
2F
100
AcDbEntity
67
0
8
0
6
ByLayer
62
256
370
18
100
AcDbText
10
25.269133
20
18.694406
30
0.000000
40
1.000000
1
World most used writing systems
50
0.000000
7
Standard
72
1
11
25.269133
21
18.694406
31
0.000000
100
AcDbText
73
2
0
TEXT
5
31
100
AcDbEntity
67
0
8
0
6
ByLayer
62
256
370
-1
100
AcDbText
10
11.229323
20
12.814395
30
0.000000
40
1.000000
1
计算机辅助设计
50
0.000000
7
Arial
72
0
11
11.229323
21
12.814395
31
0.000000
100
AcDbText
73
2
0
TEXT
5
32
100
AcDbEntity
67
0
8
0
6
ByLayer
62
256
370
-1
100
AcDbText
10
39.229323
20
10.814395
30
0.000000
40
1.000000
1
التصميم بمساعدة الحاسوب
50
0.000000
7
Arial-Back
72
0
11
39.229323
21
10.814395
31
0.000000
100
AcDbText
73
2
0
TEXT
5
33
100
AcDbEntity
67
0
8
0
6
ByLayer
62
256
370
-1
100
AcDbText
10
11.229323
20
4.814395
30
0.000000
40
1.000000
1
системы автоматизированного проектирования
50
0.000000
7
Arial
72
0
11
11.229323
21
4.814395
31
0.000000
100
AcDbText
73
2
0
TEXT
5
34
100
AcDbEntity
67
0
8
0
6
ByLayer
62
256
370
-1
100
AcDbText
10
11.229323
20
2.814395
30
0.000000
40
1.000000
1
コンピューター支援設計
50
0.000000
7
Arial
72
0
11
11.229323
21
2.814395
31
0.000000
100
AcDbText
73
2
0
TEXT
5
36
100
AcDbEntity
67
0
8
0
6
ByLayer
62
256
370
-1
100
AcDbText
10
11.229323
20
-1.185605
30
0.000000
40
1.000000
1
컴퓨터 지원 설계
50
0.000000
7
Arial
72
0
11
11.229323
21
-1.185605
31
0.000000
100
AcDbText
73
2
0
TEXT
5
37
100
AcDbEntity
67
0
8
0
6
ByLayer
62
256
370
-1
100
AcDbText
10
11.229323
20
8.814395
30
0.000000
40
1.000000
1
कंप्यूटर एडेड डिजाइन
50
0.000000
7
Arial
72
0
11
11.229323
21
8.814395
31
0.000000
100
AcDbText
73
2
0
TEXT
5
38
100
AcDbEntity
67
0
8
0
6
ByLayer
62
256
370
-1
100
AcDbText
10
11.229323
20
-13.185605
30
0.000000
40
1.000000
1
σχεδιασμός με υπολογιστή
50
0.000000
7
Arial
72
0
11
11.229323
21
-13.185605
31
0.000000
100
AcDbText
73
2
0
TEXT
5
39
100
AcDbEntity
67
0
8
0
6
ByLayer
62
256
370
-1
100
AcDbText
10
11.229323
20
-11.185605
30
0.000000
40
1.000000
1
máy tính hỗ trợ thiết kế
50
0.000000
7
Arial
72
0
11
11.229323
21
-11.185605
31
0.000000
100
AcDbText
73
2
0
TEXT
5
3A
100
AcDbEntity
67
0
8
0
6
ByLayer
62
256
370
-1
100
AcDbText
10
11.229323
20
6.814395
30
0.000000
40
1.000000
1
কম্পিউটার এর সাহায্যে নকশা
50
0.000000
7
Arial
72
0
11
11.229323
21
6.814395
31
0.000000
100
AcDbText
73
2
0
TEXT
5
3B
100
AcDbEntity
67
0
8
0
6
ByLayer
62
256
370
-1
100
AcDbText
10
11.229323
20
-3.185605
30
0.000000
40
1.000000
1
కంప్యూటర్ సహాయక రూపకల్పన
50
0.000000
7
Arial
72
0
11
11.229323
21
-3.185605
31
0.000000
100
AcDbText
73
2
0
TEXT
5
3C
100
AcDbEntity
67
0
8
0
6
ByLayer
62
256
370
-1
100
AcDbText
10
9.729323
20
12.814395
30
0.000000
40
1.000000
1
Chinese
50
0.000000
7
Standard
72
2
11
9.729323
21
12.814395
31
0.000000
100
AcDbText
73
2
0
TEXT
5
3D
100
AcDbEntity
67
0
8
0
6
ByLayer
62
256
370
-1
100
AcDbText
10
9.729323
20
14.814395
30
0.000000
40
1.000000
1
Latin
50
0.000000
7
Standard
72
2
11
9.729323
21
14.814395
31
0.000000
100
AcDbText
73
2
0
TEXT
5
3E
100
AcDbEntity
67
0
8
0
6
ByLayer
62
256
370
-1
100
AcDbText
10
9.729323
20
10.814395
30
0.000000
40
1.000000
1
Arabic
50
0.000000
7
Standard
72
2
11
9.729323
21
10.814395
31
0.000000
100
AcDbText
73
2
0
TEXT
5
3F
100
AcDbEntity
67
0
8
0
6
ByLayer
62
256
370
-1
100
AcDbText
10
9.729323
20
8.814395
30
0.000000
40
1.000000
1
Devanagari
50
0.000000
7
Standard
72
2
11
9.729323
21
8.814395
31
0.000000
100
AcDbText
73
2
0
TEXT
5
40
100
AcDbEntity
67
0
8
0
6
ByLayer
62
256
370
-1
100
AcDbText
10
9.729323
20
6.814395
30
0.000000
40
1.000000
1
Bengali-Assamese
50
0.000000
7
Standard
72
2
11
9.729323
21
6.814395
31
0.000000
100
AcDbText
73
2
0
TEXT
5
41
100
AcDbEntity
67
0
8
0
6
ByLayer
62
256
370
-1
100
AcDbText
10
9.729323
20
4.814395
30
0.000000
40
1.000000
1
Cyrillic
50
0.000000
7
Standard
72
2
11
9.729323
21
4.814395
31
0.000000
100
AcDbText
73
2
0
TEXT
5
42
100
AcDbEntity
67
0
8
0
6
ByLayer
62
256
370
-1
100
AcDbText
10
9.729323
20
2.814395
30
0.000000
40
1.000000
1
Kana
50
0.000000
7
Standard
72
2
11
9.729323
21
2.814395
31
0.000000
100
AcDbText
73
2
0
TEXT
5
43
100
AcDbEntity
67
0
8
0
6
ByLayer
62
256
370
-1
100
AcDbText
10
9.729323
20
0.814395
30
0.000000
40
1.000000
1
Javanese
50
0.000000
7
Standard
72
2
11
9.729323
21
0.814395
31
0.000000
100
AcDbText
73
2
0
TEXT
5
44
100
AcDbEntity
67
0
8
0
6
ByLayer
62
256
370
-1
100
AcDbText
10
9.729323
20
-1.185605
30
0.000000
40
1.000000
1
Hangul
50
0.000000
7
Standard
72
2
11
9.729323
21
-1.185605
31
0.000000
100
AcDbText
73
2
0
TEXT
5
45
100
AcDbEntity
67
0
8
0
6
ByLayer
62
256
370
-1
100
AcDbText
10
9.729323
20
-3.185605
30
0.000000
40
1.000000
1
Telugu
50
0.000000
7
Standard
72
2
11
9.729323
21
-3.185605
31
0.000000
100
AcDbText
73
2
0
TEXT
5
47
100
AcDbEntity
67
0
8
0
6
ByLayer
62
256
370
-1
100
AcDbText
10
39.229323
20
-15.185605
30
0.000000
40
1.000000
1
תכנון בעזרת מחשב
50
0.000000
7
Arial-Back
72
0
11
39.229323
21
-15.185605
31
0.000000
100
AcDbText
73
2
0
TEXT
5
48
100
AcDbEntity
67
0
8
0
6
ByLayer
62
256
370
-1
100
AcDbText
10
9.729323
20
-13.185605
30
0.000000
40
1.000000
1
Greek
50
0.000000
7
Standard
72
2
11
9.729323
21
-13.185605
31
0.000000
100
AcDbText
73
2
0
TEXT
5
49
100
AcDbEntity
67
0
8
0
6
ByLayer
62
256
370
-1
100
AcDbText
10
9.729323
20
-15.185605
30
0.000000
40
1.000000
1
Hebrew
50
0.000000
7
Standard
72
2
11
9.729323
21
-15.185605
31
0.000000
100
AcDbText
73
2
0
TEXT
5
4C
100
AcDbEntity
67
0
8
0
6
ByLayer
62
256
370
-1
100
AcDbText
10
11.229323
20
0.814395
30
0.000000
40
0.296794
1
ꦢꦼꦱꦄꦶꦤ ꦢꦶꦧꦄꦤꦠꦸ ꦏꦺꦴꦩꦥꦸꦠꦼꦫ
50
0.000000
7
java
72
0
11
11.229323
21
0.814395
31
0.000000
100
AcDbText
73
2
0
TEXT
5
4D
100
AcDbEntity
67
0
8
0
6
ByLayer
62
256
370
-1
100
AcDbText
10
11.229323
20
-5.185605
30
0.000000
40
1.000000
1
கணினி உதவி வடிவமைப்பு
50
0.000000
7
Arial
72
0
11
11.229323
21
-5.185605
31
0.000000
100
AcDbText
73
2
0
TEXT
5
4E
100
AcDbEntity
67
0
8
0
6
ByLayer
62
256
370
-1
100
AcDbText
10
9.729323
20
-5.185605
30
0.000000
40
1.000000
1
Tamil
50
0.000000
7
Standard
72
2
11
9.729323
21
-5.185605
31
0.000000
100
AcDbText
73
2
0
TEXT
5
4F
100
AcDbEntity
67
0
8
0
6
ByLayer
62
256
370
-1
100
AcDbText
10
11.229323
20
14.814395
30
0.000000
40
1.000000
1
diseño asistido por ordenador
50
0.000000
7
Arial
72
0
11
11.229323
21
14.814395
31
0.000000
100
AcDbText
73
2
0
LWPOLYLINE
5
52
100
AcDbEntity
67
0
8
0
6
ByLayer
62
256
370
-1
100
AcDbPolyline
90
4
70
1
10
-5.770677
20
13.814395
30
0.000000
42
0.000000
10
10.229323
20
13.814395
30
0.000000
42
0.000000
10
10.229323
20
15.814395
30
0.000000
42
0.000000
10
-5.770677
20
15.814395
30
0.000000
0
LWPOLYLINE
5
53
100
AcDbEntity
67
0
8
0
6
ByLayer
62
256
370
-1
100
AcDbPolyline
90
4
70
1
10
10.229323
20
3.814395
30
0.000000
42
0.000000
10
40.229323
20
3.814395
30
0.000000
42
0.000000
10
40.229323
20
5.814395
30
0.000000
42
0.000000
10
10.229323
20
5.814395
30
0.000000
0
TEXT
5
54
100
AcDbEntity
67
0
8
0
6
ByLayer
62
256
370
-1
100
AcDbText
10
41.229323
20
14.814395
30
0.000000
40
1.000000
1
Spanish
50
0.000000
7
Standard
72
0
11
41.229323
21
14.814395
31
0.000000
100
AcDbText
73
2
0
TEXT
5
55
100
AcDbEntity
67
0
8
0
6
ByLayer
62
256
370
-1
100
AcDbText
10
41.229323
20
12.814395
30
0.000000
40
1.000000
1
Chinese
50
0.000000
7
Standard
72
0
11
41.229323
21
12.814395
31
0.000000
100
AcDbText
73
2
0
TEXT
5
56
100
AcDbEntity
67
0
8
0
6
ByLayer
62
256
370
-1
100
AcDbText
10
41.229323
20
10.814395
30
0.000000
40
1.000000
1
Arabic
50
0.000000
7
Standard
72
0
11
41.229323
21
10.814395
31
0.000000
100
AcDbText
73
2
0
TEXT
5
57
100
AcDbEntity
67
0
8
0
6
ByLayer
62
256
370
-1
100
AcDbText
10
41.229323
20
8.814395
30
0.000000
40
1.000000
1
Hindi
50
0.000000
7
Standard
72
0
11
41.229323
21
8.814395
31
0.000000
100
AcDbText
73
2
0
TEXT
5
58
100
AcDbEntity
67
0
8
0
6
ByLayer
62
256
370
-1
100
AcDbText
10
41.229323
20
6.814395
30
0.000000
40
1.000000
1
Bengali
50
0.000000
7
Standard
72
0
11
41.229323
21
6.814395
31
0.000000
100
AcDbText
73
2
0
TEXT
5
59
100
AcDbEntity
67
0
8
0
6
ByLayer
62
256
370
-1
100
AcDbText
10
41.229323
20
4.814395
30
0.000000
40
1.000000
1
Russian
50
0.000000
7
Standard
72
0
11
41.229323
21
4.814395
31
0.000000
100
AcDbText
73
2
0
TEXT
5
5A
100
AcDbEntity
67
0
8
0
6
ByLayer
62
256
370
-1
100
AcDbText
10
41.229323
20
2.814395
30
0.000000
40
1.000000
1
Japanese
50
0.000000
7
Standard
72
0
11
41.229323
21
2.814395
31
0.000000
100
AcDbText
73
2
0
TEXT
5
5B
100
AcDbEntity
67
0
8
0
6
ByLayer
62
256
370
-1
100
AcDbText
10
41.229323
20
0.814395
30
0.000000
40
1.000000
1
Javanese
50
0.000000
7
Standard
72
0
11
41.229323
21
0.814395
31
0.000000
100
AcDbText
73
2
0
TEXT
5
5C
100
AcDbEntity
67
0
8
0
6
ByLayer
62
256
370
-1
100
AcDbText
10
41.229323
20
-1.185605
30
0.000000
40
1.000000
1
Korean
50
0.000000
7
Standard
72
0
11
41.229323
21
-1.185605
31
0.000000
100
AcDbText
73
2
0
TEXT
5
5D
100
AcDbEntity
67
0
8
0
6
ByLayer
62
256
370
-1
100
AcDbText
10
41.229323
20
-3.185605
30
0.000000
40
1.000000
1
Telugu
50
0.000000
7
Standard
72
0
11
41.229323
21
-3.185605
31
0.000000
100
AcDbText
73
2
0
TEXT
5
5E
100
AcDbEntity
67
0
8
0
6
ByLayer
62
256
370
-1
100
AcDbText
10
41.229323
20
-5.185605
30
0.000000
40
1.000000
1
Tamil
50
0.000000
7
Standard
72
0
11
41.229323
21
-5.185605
31
0.000000
100
AcDbText
73
2
0
TEXT
5
5F
100
AcDbEntity
67
0
8
0
6
ByLayer
62
256
370
-1
100
AcDbText
10
41.229323
20
-11.185605
30
0.000000
40
1.000000
1
Vietnamese
50
0.000000
7
Standard
72
0
11
41.229323
21
-11.185605
31
0.000000
100
AcDbText
73
2
0
TEXT
5
60
100
AcDbEntity
67
0
8
0
6
ByLayer
62
256
370
-1
100
AcDbText
10
41.229323
20
-13.185605
30
0.000000
40
1.000000
1
Greek
50
0.000000
7
Standard
72
0
11
41.229323
21
-13.185605
31
0.000000
100
AcDbText
73
2
0
TEXT
5
61
100
AcDbEntity
67
0
8
0
6
ByLayer
62
256
370
-1
100
AcDbText
10
41.229323
20
-15.185605
30
0.000000
40
1.000000
1
Hebrew
50
0.000000
7
Standard
72
0
11
41.229323
21
-15.185605
31
0.000000
100
AcDbText
73
2
0
TEXT
5
62
100
AcDbEntity
67
0
8
0
6
ByLayer
62
256
370
-1
100
AcDbText
10
41.229323
20
-17.185605
30
0.000000
40
1.000000
1
Georgian
50
0.000000
7
Standard
72
0
11
41.229323
21
-17.185605
31
0.000000
100
AcDbText
73
2
0
TEXT
5
63
100
AcDbEntity
67
0
8
0
6
ByLayer
62
256
370
-1
100
AcDbText
10
9.729323
20
-17.185605
30
0.000000
40
1.000000
1
Georgian
50
0.000000
7
Standard
72
2
11
9.729323
21
-17.185605
31
0.000000
100
AcDbText
73
2
0
TEXT
5
64
100
AcDbEntity
67
0
8
0
6
ByLayer
62
256
370
-1
100
AcDbText
10
11.229323
20
-17.185605
30
0.000000
40
1.000000
1
კომპიუტერიზებული დიზაინი
50
0.000000
7
Arial
72
0
11
11.229323
21
-17.185605
31
0.000000
100
AcDbText
73
2
0
LWPOLYLINE
5
65
100
AcDbEntity
67
0
8
0
6
ByLayer
62
256
370
-1
100
AcDbPolyline
90
4
70
1
10
10.229323
20
5.814395
30
0.000000
42
0.000000
10
40.229323
20
5.814395
30
0.000000
42
0.000000
10
40.229323
20
7.814395
30
0.000000
42
0.000000
10
10.229323
20
7.814395
30
0.000000
0
LWPOLYLINE
5
66
100
AcDbEntity
67
0
8
0
6
ByLayer
62
256
370
-1
100
AcDbPolyline
90
4
70
1
10
10.229323
20
7.814395
30
0.000000
42
0.000000
10
40.229323
20
7.814395
30
0.000000
42
0.000000
10
40.229323
20
9.814395
30
0.000000
42
0.000000
10
10.229323
20
9.814395
30
0.000000
0
LWPOLYLINE
5
67
100
AcDbEntity
67
0
8
0
6
ByLayer
62
256
370
-1
100
AcDbPolyline
90
4
70
1
10
10.229323
20
9.814395
30
0.000000
42
0.000000
10
40.229323
20
9.814395
30
0.000000
42
0.000000
10
40.229323
20
11.814395
30
0.000000
42
0.000000
10
10.229323
20
11.814395
30
0.000000
0
LWPOLYLINE
5
68
100
AcDbEntity
67
0
8
0
6
ByLayer
62
256
370
-1
100
AcDbPolyline
90
4
70
1
10
10.229323
20
11.814395
30
0.000000
42
0.000000
10
40.229323
20
11.814395
30
0.000000
42
0.000000
10
40.229323
20
13.814395
30
0.000000
42
0.000000
10
10.229323
20
13.814395
30
0.000000
0
LWPOLYLINE
5
69
100
AcDbEntity
67
0
8
0
6
ByLayer
62
256
370
-1
100
AcDbPolyline
90
4
70
1
10
10.229323
20
13.814395
30
0.000000
42
0.000000
10
40.229323
20
13.814395
30
0.000000
42
0.000000
10
40.229323
20
15.814395
30
0.000000
42
0.000000
10
10.229323
20
15.814395
30
0.000000
0
LWPOLYLINE
5
6A
100
AcDbEntity
67
0
8
0
6
ByLayer
62
256
370
-1
100
AcDbPolyline
90
4
70
1
10
10.229323
20
1.814395
30
0.000000
42
0.000000
10
40.229323
20
1.814395
30
0.000000
42
0.000000
10
40.229323
20
3.814395
30
0.000000
42
0.000000
10
10.229323
20
3.814395
30
0.000000
0
LWPOLYLINE
5
6B
100
AcDbEntity
67
0
8
0
6
ByLayer
62
256
370
-1
100
AcDbPolyline
90
4
70
1
10
10.229323
20
-0.185605
30
0.000000
42
0.000000
10
40.229323
20
-0.185605
30
0.000000
42
0.000000
10
40.229323
20
1.814395
30
0.000000
42
0.000000
10
10.229323
20
1.814395
30
0.000000
0
LWPOLYLINE
5
6C
100
AcDbEntity
67
0
8
0
6
ByLayer
62
256
370
-1
100
AcDbPolyline
90
4
70
1
10
10.229323
20
-2.185605
30
0.000000
42
0.000000
10
40.229323
20
-2.185605
30
0.000000
42
0.000000
10
40.229323
20
-0.185605
30
0.000000
42
0.000000
10
10.229323
20
-0.185605
30
0.000000
0
LWPOLYLINE
5
6D
100
AcDbEntity
67
0
8
0
6
ByLayer
62
256
370
-1
100
AcDbPolyline
90
4
70
1
10
10.229323
20
-4.185605
30
0.000000
42
0.000000
10
40.229323
20
-4.185605
30
0.000000
42
0.000000
10
40.229323
20
-2.185605
30
0.000000
42
0.000000
10
10.229323
20
-2.185605
30
0.000000
0
LWPOLYLINE
5
6E
100
AcDbEntity
67
0
8
0
6
ByLayer
62
256
370
-1
100
AcDbPolyline
90
4
70
1
10
10.229323
20
-6.185605
30
0.000000
42
0.000000
10
40.229323
20
-6.185605
30
0.000000
42
0.000000
10
40.229323
20
-4.185605
30
0.000000
42
0.000000
10
10.229323
20
-4.185605
30
0.000000
0
LWPOLYLINE
5
6F
100
AcDbEntity
67
0
8
0
6
ByLayer
62
256
370
-1
100
AcDbPolyline
90
4
70
1
10
-5.770677
20
11.814395
30
0.000000
42
0.000000
10
10.229323
20
11.814395
30
0.000000
42
0.000000
10
10.229323
20
13.814395
30
0.000000
42
0.000000
10
-5.770677
20
13.814395
30
0.000000
0
LWPOLYLINE
5
70
100
AcDbEntity
67
0
8
0
6
ByLayer
62
256
370
-1
100
AcDbPolyline
90
4
70
1
10
-5.770677
20
9.814395
30
0.000000
42
0.000000
10
10.229323
20
9.814395
30
0.000000
42
0.000000
10
10.229323
20
11.814395
30
0.000000
42
0.000000
10
-5.770677
20
11.814395
30
0.000000
0
LWPOLYLINE
5
71
100
AcDbEntity
67
0
8
0
6
ByLayer
62
256
370
-1
100
AcDbPolyline
90
4
70
1
10
-5.770677
20
7.814395
30
0.000000
42
0.000000
10
10.229323
20
7.814395
30
0.000000
42
0.000000
10
10.229323
20
9.814395
30
0.000000
42
0.000000
10
-5.770677
20
9.814395
30
0.000000
0
LWPOLYLINE
5
72
100
AcDbEntity
67
0
8
0
6
ByLayer
62
256
370
-1
100
AcDbPolyline
90
4
70
1
10
-5.770677
20
5.814395
30
0.000000
42
0.000000
10
10.229323
20
5.814395
30
0.000000
42
0.000000
10
10.229323
20
7.814395
30
0.000000
42
0.000000
10
-5.770677
20
7.814395
30
0.000000
0
LWPOLYLINE
5
73
100
AcDbEntity
67
0
8
0
6
ByLayer
62
256
370
-1
100
AcDbPolyline
90
4
70
1
10
-5.770677
20
3.814395
30
0.000000
42
0.000000
10
10.229323
20
3.814395
30
0.000000
42
0.000000
10
10.229323
20
5.814395
30
0.000000
42
0.000000
10
-5.770677
20
5.814395
30
0.000000
0
LWPOLYLINE
5
74
100
AcDbEntity
67
0
8
0
6
ByLayer
62
256
370
-1
100
AcDbPolyline
90
4
70
1
10
-5.770677
20
1.814395
30
0.000000
42
0.000000
10
10.229323
20
1.814395
30
0.000000
42
0.000000
10
10.229323
20
3.814395
30
0.000000
42
0.000000
10
-5.770677
20
3.814395
30
0.000000
0
LWPOLYLINE
5
75
100
AcDbEntity
67
0
8
0
6
ByLayer
62
256
370
-1
100
AcDbPolyline
90
4
70
1
10
-5.770677
20
-0.185605
30
0.000000
42
0.000000
10
10.229323
20
-0.185605
30
0.000000
42
0.000000
10
10.229323
20
1.814395
30
0.000000
42
0.000000
10
-5.770677
20
1.814395
30
0.000000
0
LWPOLYLINE
5
76
100
AcDbEntity
67
0
8
0
6
ByLayer
62
256
370
-1
100
AcDbPolyline
90
4
70
1
10
-5.770677
20
-2.185605
30
0.000000
42
0.000000
10
10.229323
20
-2.185605
30
0.000000
42
0.000000
10
10.229323
20
-0.185605
30
0.000000
42
0.000000
10
-5.770677
20
-0.185605
30
0.000000
0
LWPOLYLINE
5
77
100
AcDbEntity
67
0
8
0
6
ByLayer
62
256
370
-1
100
AcDbPolyline
90
4
70
1
10
-5.770677
20
-4.185605
30
0.000000
42
0.000000
10
10.229323
20
-4.185605
30
0.000000
42
0.000000
10
10.229323
20
-2.185605
30
0.000000
42
0.000000
10
-5.770677
20
-2.185605
30
0.000000
0
LWPOLYLINE
5
78
100
AcDbEntity
67
0
8
0
6
ByLayer
62
256
370
-1
100
AcDbPolyline
90
4
70
1
10
-5.770677
20
-6.185605
30
0.000000
42
0.000000
10
10.229323
20
-6.185605
30
0.000000
42
0.000000
10
10.229323
20
-4.185605
30
0.000000
42
0.000000
10
-5.770677
20
-4.185605
30
0.000000
0
LWPOLYLINE
5
79
100
AcDbEntity
67
0
8
0
6
ByLayer
62
256
370
-1
100
AcDbPolyline
90
4
70
1
10
40.229323
20
-6.185605
30
0.000000
42
0.000000
10
56.229323
20
-6.185605
30
0.000000
42
0.000000
10
56.229323
20
-4.185605
30
0.000000
42
0.000000
10
40.229323
20
-4.185605
30
0.000000
0
LWPOLYLINE
5
7A
100
AcDbEntity
67
0
8
0
6
ByLayer
62
256
370
-1
100
AcDbPolyline
90
4
70
1
10
40.229323
20
-4.185605
30
0.000000
42
0.000000
10
56.229323
20
-4.185605
30
0.000000
42
0.000000
10
56.229323
20
-2.185605
30
0.000000
42
0.000000
10
40.229323
20
-2.185605
30
0.000000
0
LWPOLYLINE
5
7B
100
AcDbEntity
67
0
8
0
6
ByLayer
62
256
370
-1
100
AcDbPolyline
90
4
70
1
10
40.229323
20
-2.185605
30
0.000000
42
0.000000
10
56.229323
20
-2.185605
30
0.000000
42
0.000000
10
56.229323
20
-0.185605
30
0.000000
42
0.000000
10
40.229323
20
-0.185605
30
0.000000
0
LWPOLYLINE
5
7C
100
AcDbEntity
67
0
8
0
6
ByLayer
62
256
370
-1
100
AcDbPolyline
90
4
70
1
10
40.229323
20
-0.185605
30
0.000000
42
0.000000
10
56.229323
20
-0.185605
30
0.000000
42
0.000000
10
56.229323
20
1.814395
30
0.000000
42
0.000000
10
40.229323
20
1.814395
30
0.000000
0
LWPOLYLINE
5
7D
100
AcDbEntity
67
0
8
0
6
ByLayer
62
256
370
-1
100
AcDbPolyline
90
4
70
1
10
40.229323
20
1.814395
30
0.000000
42
0.000000
10
56.229323
20
1.814395
30
0.000000
42
0.000000
10
56.229323
20
3.814395
30
0.000000
42
0.000000
10
40.229323
20
3.814395
30
0.000000
0
LWPOLYLINE
5
7F
100
AcDbEntity
67
0
8
0
6
ByLayer
62
256
370
-1
100
AcDbPolyline
90
4
70
1
10
40.229323
20
3.814395
30
0.000000
42
0.000000
10
56.229323
20
3.814395
30
0.000000
42
0.000000
10
56.229323
20
5.814395
30
0.000000
42
0.000000
10
40.229323
20
5.814395
30
0.000000
0
LWPOLYLINE
5
80
100
AcDbEntity
67
0
8
0
6
ByLayer
62
256
370
-1
100
AcDbPolyline
90
4
70
1
10
40.229323
20
5.814395
30
0.000000
42
0.000000
10
56.229323
20
5.814395
30
0.000000
42
0.000000
10
56.229323
20
7.814395
30
0.000000
42
0.000000
10
40.229323
20
7.814395
30
0.000000
0
LWPOLYLINE
5
81
100
AcDbEntity
67
0
8
0
6
ByLayer
62
256
370
-1
100
AcDbPolyline
90
4
70
1
10
40.229323
20
7.814395
30
0.000000
42
0.000000
10
56.229323
20
7.814395
30
0.000000
42
0.000000
10
56.229323
20
9.814395
30
0.000000
42
0.000000
10
40.229323
20
9.814395
30
0.000000
0
LWPOLYLINE
5
83
100
AcDbEntity
67
0
8
0
6
ByLayer
62
256
370
-1
100
AcDbPolyline
90
4
70
1
10
40.229323
20
9.814395
30
0.000000
42
0.000000
10
56.229323
20
9.814395
30
0.000000
42
0.000000
10
56.229323
20
11.814395
30
0.000000
42
0.000000
10
40.229323
20
11.814395
30
0.000000
0
LWPOLYLINE
5
84
100
AcDbEntity
67
0
8
0
6
ByLayer
62
256
370
-1
100
AcDbPolyline
90
4
70
1
10
40.229323
20
11.814395
30
0.000000
42
0.000000
10
56.229323
20
11.814395
30
0.000000
42
0.000000
10
56.229323
20
13.814395
30
0.000000
42
0.000000
10
40.229323
20
13.814395
30
0.000000
0
LWPOLYLINE
5
85
100
AcDbEntity
67
0
8
0
6
ByLayer
62
256
370
-1
100
AcDbPolyline
90
4
70
1
10
40.229323
20
13.814395
30
0.000000
42
0.000000
10
56.229323
20
13.814395
30
0.000000
42
0.000000
10
56.229323
20
15.814395
30
0.000000
42
0.000000
10
40.229323
20
15.814395
30
0.000000
0
LWPOLYLINE
5
91
100
AcDbEntity
67
0
8
0
6
ByLayer
62
256
370
-1
100
AcDbPolyline
90
4
70
1
10
-5.770677
20
-18.185605
30
0.000000
42
0.000000
10
10.229323
20
-18.185605
30
0.000000
42
0.000000
10
10.229323
20
-16.185605
30
0.000000
42
0.000000
10
-5.770677
20
-16.185605
30
0.000000
0
LWPOLYLINE
5
92
100
AcDbEntity
67
0
8
0
6
ByLayer
62
256
370
-1
100
AcDbPolyline
90
4
70
1
10
10.229323
20
-18.185605
30
0.000000
42
0.000000
10
40.229323
20
-18.185605
30
0.000000
42
0.000000
10
40.229323
20
-16.185605
30
0.000000
42
0.000000
10
10.229323
20
-16.185605
30
0.000000
0
LWPOLYLINE
5
93
100
AcDbEntity
67
0
8
0
6
ByLayer
62
256
370
-1
100
AcDbPolyline
90
4
70
1
10
40.229323
20
-18.185605
30
0.000000
42
0.000000
10
56.229323
20
-18.185605
30
0.000000
42
0.000000
10
56.229323
20
-16.185605
30
0.000000
42
0.000000
10
40.229323
20
-16.185605
30
0.000000
0
LWPOLYLINE
5
94
100
AcDbEntity
67
0
8
0
6
ByLayer
62
256
370
-1
100
AcDbPolyline
90
4
70
1
10
-5.770677
20
-12.185605
30
0.000000
42
0.000000
10
10.229323
20
-12.185605
30
0.000000
42
0.000000
10
10.229323
20
-10.185605
30
0.000000
42
0.000000
10
-5.770677
20
-10.185605
30
0.000000
0
LWPOLYLINE
5
95
100
AcDbEntity
67
0
8
0
6
ByLayer
62
256
370
-1
100
AcDbPolyline
90
4
70
1
10
10.229323
20
-12.185605
30
0.000000
42
0.000000
10
40.229323
20
-12.185605
30
0.000000
42
0.000000
10
40.229323
20
-10.185605
30
0.000000
42
0.000000
10
10.229323
20
-10.185605
30
0.000000
0
LWPOLYLINE
5
96
100
AcDbEntity
67
0
8
0
6
ByLayer
62
256
370
-1
100
AcDbPolyline
90
4
70
1
10
40.229323
20
-12.185605
30
0.000000
42
0.000000
10
56.229323
20
-12.185605
30
0.000000
42
0.000000
10
56.229323
20
-10.185605
30
0.000000
42
0.000000
10
40.229323
20
-10.185605
30
0.000000
0
LWPOLYLINE
5
97
100
AcDbEntity
67
0
8
0
6
ByLayer
62
256
370
-1
100
AcDbPolyline
90
4
70
1
10
-5.770677
20
-14.185605
30
0.000000
42
0.000000
10
10.229323
20
-14.185605
30
0.000000
42
0.000000
10
10.229323
20
-12.185605
30
0.000000
42
0.000000
10
-5.770677
20
-12.185605
30
0.000000
0
LWPOLYLINE
5
98
100
AcDbEntity
67
0
8
0
6
ByLayer
62
256
370
-1
100
AcDbPolyline
90
4
70
1
10
10.229323
20
-14.185605
30
0.000000
42
0.000000
10
40.229323
20
-14.185605
30
0.000000
42
0.000000
10
40.229323
20
-12.185605
30
0.000000
42
0.000000
10
10.229323
20
-12.185605
30
0.000000
0
LWPOLYLINE
5
99
100
AcDbEntity
67
0
8
0
6
ByLayer
62
256
370
-1
100
AcDbPolyline
90
4
70
1
10
40.229323
20
-14.185605
30
0.000000
42
0.000000
10
56.229323
20
-14.185605
30
0.000000
42
0.000000
10
56.229323
20
-12.185605
30
0.000000
42
0.000000
10
40.229323
20
-12.185605
30
0.000000
0
LWPOLYLINE
5
9A
100
AcDbEntity
67
0
8
0
6
ByLayer
62
256
370
-1
100
AcDbPolyline
90
4
70
1
10
-5.770677
20
-16.185605
30
0.000000
42
0.000000
10
10.229323
20
-16.185605
30
0.000000
42
0.000000
10
10.229323
20
-14.185605
30
0.000000
42
0.000000
10
-5.770677
20
-14.185605
30
0.000000
0
LWPOLYLINE
5
9B
100
AcDbEntity
67
0
8
0
6
ByLayer
62
256
370
-1
100
AcDbPolyline
90
4
70
1
10
10.229323
20
-16.185605
30
0.000000
42
0.000000
10
40.229323
20
-16.185605
30
0.000000
42
0.000000
10
40.229323
20
-14.185605
30
0.000000
42
0.000000
10
10.229323
20
-14.185605
30
0.000000
0
LWPOLYLINE
5
9C
100
AcDbEntity
67
0
8
0
6
ByLayer
62
256
370
-1
100
AcDbPolyline
90
4
70
1
10
40.229323
20
-16.185605
30
0.000000
42
0.000000
10
56.229323
20
-16.185605
30
0.000000
42
0.000000
10
56.229323
20
-14.185605
30
0.000000
42
0.000000
10
40.229323
20
-14.185605
30
0.000000
0
TEXT
5
9D
100
AcDbEntity
67
0
8
0
6
ByLayer
62
256
370
-1
100
AcDbText
10
9.729323
20
-11.185605
30
0.000000
40
1.000000
1
Latin
50
0.000000
7
Standard
72
2
11
9.729323
21
-11.185605
31
0.000000
100
AcDbText
73
2
0
TEXT
5
9E
100
AcDbEntity
67
0
8
0
6
ByLayer
62
256
370
-1
100
AcDbText
10
9.729323
20
16.814395
30
0.000000
40
1.000000
1
Script
50
0.000000
7
Standard
72
2
11
9.729323
21
16.814395
31
0.000000
100
AcDbText
73
2
0
TEXT
5
9F
100
AcDbEntity
67
0
8
0
6
ByLayer
62
256
370
-1
100
AcDbText
10
41.229323
20
16.814395
30
0.000000
40
1.000000
1
Language
50
0.000000
7
Standard
72
0
11
41.229323
21
16.814395
31
0.000000
100
AcDbText
73
2
0
TEXT
5
A0
100
AcDbEntity
67
0
8
0
6
ByLayer
62
256
370
-1
100
AcDbText
10
25.837411
20
22.217726
30
0.000000
40
1.000000
1
Expression to translate = computer aided design
50
0.000000
7
Standard
72
1
11
25.837411
21
22.217726
31
0.000000
100
AcDbText
73
2
0
TEXT
5
A1
100
AcDbEntity
67
0
8
0
6
ByLayer
62
256
370
18
100
AcDbText
10
25.269133
20
-9.093648
30
0.000000
40
1.000000
1
Other writing systems and languages
50
0.000000
7
Standard
72
1
11
25.269133
21
-9.093648
31
0.000000
100
AcDbText
73
2
0
ENDSEC
0
SECTION
2
OBJECTS
0
DICTIONARY
5
22
100
AcDbDictionary
281
1
3
ACAD_COLOR
350
23
3
ACAD_GROUP
350
26
3
ACAD_LAYOUT
350
27
3
ACAD_MATERIAL
350
28
3
ACAD_MLINESTYLE
350
29
3
ACAD_PLOTSETTINGS
350
2A
3
ACAD_PLOTSTYLENAME
350
2B
3
ACAD_TABLESTYLE
350
2C
3
AcadDim
350
2D
0
DICTIONARY
5
23
100
AcDbDictionary
0
DICTIONARY
5
26
100
AcDbDictionary
0
DICTIONARY
5
27
100
AcDbDictionary
0
DICTIONARY
5
28
100
AcDbDictionary
0
DICTIONARY
5
29
100
AcDbDictionary
0
DICTIONARY
5
2A
100
AcDbDictionary
0
DICTIONARY
5
2B
100
AcDbDictionary
0
DICTIONARY
5
2C
100
AcDbDictionary
0
DICTIONARY
5
2D
100
AcDbDictionary
0
ENDSEC
0
EOF
