999
CadZinho - Minimalist CAD by Zecruel
0
SECTION
2
HEADER
9
$ACADVER
1
AC1021
9
$HANDSEED
5
A1
9
$INSUNITS
70
4
9
$LWDISPLAY
290
1
0
ENDSEC
0
SECTION
2
CLASSES
0
ENDSEC
0
SECTION
2
TABLES
0
TABLE
2
VPORT
5
1
100
AcDbSymbolTable
70
1000
0
VPORT
5
25
100
AcDbSymbolTableRecord
100
AcDbViewportTableRecord
2
*ACTIVE
70
0
10
0.000000
20
0.000000
11
1.000000
21
1.000000
12
20.000000
22
320.000000
13
0.000000
23
0.000000
14
100.000000
24
100.000000
15
100.000000
25
100.000000
16
0.000000
26
0.000000
36
1.000000
17
0.000000
27
0.000000
37
0.000000
40
25.000000
41
1.800000
42
50.000000
43
0.000000
44
0.000000
50
0.000000
51
0.000000
0
ENDTAB
0
TABLE
2
LTYPE
5
4
100
AcDbSymbolTable
70
1000
0
LTYPE
5
5
100
AcDbSymbolTableRecord
100
AcDbLinetypeTableRecord
2
ByBlock
70
0
3

72
65
73
0
40
0.000000
0
LTYPE
5
6
100
AcDbSymbolTableRecord
100
AcDbLinetypeTableRecord
2
ByLayer
70
0
3

72
65
73
0
40
0.000000
0
LTYPE
5
7
100
AcDbSymbolTableRecord
100
AcDbLinetypeTableRecord
2
Continuous
70
0
3
___________________________________
72
65
73
0
40
0.000000
0
LTYPE
5
8
100
AcDbSymbolTableRecord
100
AcDbLinetypeTableRecord
2
Border
70
0
3
____ . ____ ____ . ____ ____ . ____
72
65
73
6
40
1.750000
49
0.500000
74
0
49
-0.250000
74
0
49
0.500000
74
0
49
-0.250000
74
0
49
0.000000
74
0
49
-0.250000
74
0
0
LTYPE
5
9
100
AcDbSymbolTableRecord
100
AcDbLinetypeTableRecord
2
Center
70
0
3
____ _ ____ _ ____ _ ____ _ ____ _
72
65
73
4
40
2.000000
49
1.250000
74
0
49
-0.250000
74
0
49
0.250000
74
0
49
-0.250000
74
0
0
LTYPE
5
A
100
AcDbSymbolTableRecord
100
AcDbLinetypeTableRecord
2
Dashdot
70
0
3
____ . ____ . ____ . ____ . ____ .
72
65
73
4
40
1.000000
49
0.500000
74
0
49
-0.250000
74
0
49
0.000000
74
0
49
-0.250000
74
0
0
LTYPE
5
B
100
AcDbSymbolTableRecord
100
AcDbLinetypeTableRecord
2
Dashed
70
0
3
____ ____ ____ ____ ____ ____ ____
72
65
73
2
40
0.750000
49
0.500000
74
0
49
-0.250000
74
0
0
LTYPE
5
C
100
AcDbSymbolTableRecord
100
AcDbLinetypeTableRecord
2
Divide
70
0
3
____ . . ____ . . ____ . . ____ . .
72
65
73
6
40
1.250000
49
0.500000
74
0
49
-0.250000
74
0
49
0.000000
74
0
49
-0.250000
74
0
49
0.000000
74
0
49
-0.250000
74
0
0
LTYPE
5
D
100
AcDbSymbolTableRecord
100
AcDbLinetypeTableRecord
2
Dot
70
0
3
. . . . . . . . . . . . . . . . . .
72
65
73
2
40
0.250000
49
0.000000
74
0
49
-0.250000
74
0
0
LTYPE
5
E
100
AcDbSymbolTableRecord
100
AcDbLinetypeTableRecord
2
Hidden
70
0
3
__ __ __ __ __ __ __ __ __ __ __ __
72
65
73
2
40
0.375000
49
0.250000
74
0
49
-0.125000
74
0
0
LTYPE
5
F
100
AcDbSymbolTableRecord
100
AcDbLinetypeTableRecord
2
Phantom
70
0
3
_____ _ _ _____ _ _ _____ _ _ _____
72
65
73
6
40
2.500000
49
1.250000
74
0
49
-0.250000
74
0
49
0.250000
74
0
49
-0.250000
74
0
49
0.250000
74
0
49
-0.250000
74
0
0
ENDTAB
0
TABLE
2
LAYER
5
10
100
AcDbSymbolTable
70
1000
0
LAYER
5
11
100
AcDbSymbolTableRecord
100
AcDbLayerTableRecord
2
0
70
0
62
7
6
Continuous
370
0
390
2B
0
ENDTAB
0
TABLE
2
STYLE
5
12
100
AcDbSymbolTable
70
1000
0
STYLE
5
13
100
AcDbSymbolTableRecord
100
AcDbTextStyleTableRecord
2
Standard
70
0
40
0.000000
41
1.000000
50
0.000000
71
0
42
1.000000
3
TXT.SHX
4

0
STYLE
5
24
100
AcDbSymbolTableRecord
100
AcDbTextStyleTableRecord
2

70
1
40
0.000000
41
1.000000
50
0.000000
71
0
42
1.000000
3
LTYPESHP.SHX
4

0
STYLE
5
2E
100
AcDbSymbolTableRecord
100
AcDbTextStyleTableRecord
2
complex
70
0
40
0.000000
41
1.000000
50
0.000000
71
0
42
1.000000
3
COMPLEX.SHX
4

0
STYLE
5
2F
100
AcDbSymbolTableRecord
100
AcDbTextStyleTableRecord
2
gothice
70
0
40
0.000000
41
1.000000
50
0.000000
71
0
42
1.000000
3
GOTHICE.SHX
4

0
STYLE
5
30
100
AcDbSymbolTableRecord
100
AcDbTextStyleTableRecord
2
gothicg
70
0
40
0.000000
41
1.000000
50
0.000000
71
0
42
1.000000
3
GOTHICG.SHX
4

0
STYLE
5
31
100
AcDbSymbolTableRecord
100
AcDbTextStyleTableRecord
2
gothici
70
0
40
0.000000
41
1.000000
50
0.000000
71
0
42
1.000000
3
GOTHICI.SHX
4

0
STYLE
5
32
100
AcDbSymbolTableRecord
100
AcDbTextStyleTableRecord
2
isocp
70
0
40
0.000000
41
1.000000
50
0.000000
71
0
42
1.000000
3
ISOCP.SHX
4

0
STYLE
5
33
100
AcDbSymbolTableRecord
100
AcDbTextStyleTableRecord
2
italic
70
0
40
0.000000
41
1.000000
50
0.000000
71
0
42
1.000000
3
ITALIC.SHX
4

0
STYLE
5
34
100
AcDbSymbolTableRecord
100
AcDbTextStyleTableRecord
2
romanc
70
0
40
0.000000
41
1.000000
50
0.000000
71
0
42
1.000000
3
ROMANC.SHX
4

0
STYLE
5
35
100
AcDbSymbolTableRecord
100
AcDbTextStyleTableRecord
2
romand
70
0
40
0.000000
41
1.000000
50
0.000000
71
0
42
1.000000
3
ROMAND.SHX
4

0
STYLE
5
36
100
AcDbSymbolTableRecord
100
AcDbTextStyleTableRecord
2
romans
70
0
40
0.000000
41
1.000000
50
0.000000
71
0
42
1.000000
3
ROMANS.SHX
4

0
STYLE
5
37
100
AcDbSymbolTableRecord
100
AcDbTextStyleTableRecord
2
romant
70
0
40
0.000000
41
1.000000
50
0.000000
71
0
42
1.000000
3
ROMANT.SHX
4

0
STYLE
5
38
100
AcDbSymbolTableRecord
100
AcDbTextStyleTableRecord
2
scriptc
70
0
40
0.000000
41
1.000000
50
0.000000
71
0
42
1.000000
3
SCRIPTC.SHX
4

0
STYLE
5
39
100
AcDbSymbolTableRecord
100
AcDbTextStyleTableRecord
2
scripts
70
0
40
0.000000
41
1.000000
50
0.000000
71
0
42
1.000000
3
SCRIPTS.SHX
4

0
STYLE
5
3A
100
AcDbSymbolTableRecord
100
AcDbTextStyleTableRecord
2
simplex
70
0
40
0.000000
41
1.000000
50
0.000000
71
0
42
1.000000
3
SIMPLEX.SHX
4

0
STYLE
5
3B
100
AcDbSymbolTableRecord
100
AcDbTextStyleTableRecord
2
txt
70
0
40
0.000000
41
1.000000
50
0.000000
71
0
42
1.000000
3
TXT.SHX
4

0
ENDTAB
0
TABLE
2
VIEW
5
14
100
AcDbSymbolTable
70
0
0
ENDTAB
0
TABLE
2
UCS
5
15
100
AcDbSymbolTable
70
0
0
ENDTAB
0
TABLE
2
APPID
5
16
100
AcDbSymbolTable
70
10
0
APPID
5
17
100
AcDbSymbolTableRecord
100
AcDbRegAppTableRecord
2
ACAD
70
0
0
APPID
5
18
100
AcDbSymbolTableRecord
100
AcDbRegAppTableRecord
2
CADZINHO
70
0
0
ENDTAB
0
TABLE
2
DIMSTYLE
5
19
100
AcDbSymbolTable
70
1
100
AcDbDimStyleTable
71
1
0
DIMSTYLE
105
1A
100
AcDbSymbolTableRecord
100
AcDbDimStyleTableRecord
2
Standard
70
0
340
C
0
ENDTAB
0
TABLE
2
BLOCK_RECORD
5
1B
100
AcDbSymbolTable
70
9999
0
BLOCK_RECORD
5
1C
100
AcDbSymbolTableRecord
100
AcDbBlockTableRecord
2
*Model_Space
70
0
0
BLOCK_RECORD
5
1D
100
AcDbSymbolTableRecord
100
AcDbBlockTableRecord
2
*Paper_Space
70
0
0
ENDTAB
0
ENDSEC
0
SECTION
2
BLOCKS
0
BLOCK
5
1E
100
AcDbEntity
8
0
100
AcDbBlockBegin
2
*Model_Space
70
0
10
0.000000
20
0.000000
30
0.000000
3
*Model_Space
1

0
ENDBLK
5
1F
100
AcDbEntity
8
0
100
AcDbBlockEnd
0
BLOCK
5
20
100
AcDbEntity
8
0
100
AcDbBlockBegin
2
*Paper_Space
70
0
10
0.000000
20
0.000000
30
0.000000
3
*Paper_Space
1

0
ENDBLK
5
21
100
AcDbEntity
8
0
100
AcDbBlockEnd
0
ENDSEC
0
SECTION
2
ENTITIES
0
TEXT
5
3E
100
AcDbEntity
67
0
8
0
6
ByLayer
62
256
370
-1
100
AcDbText
10
6.800000
20
14.700000
30
0.000000
40
1.000000
1
%%UFont
50
0.000000
7
Standard
72
0
11
6.800000
21
14.700000
31
0.000000
100
AcDbText
73
0
0
TEXT
5
76
100
AcDbEntity
67
0
8
0
6
ByLayer
62
256
370
-1
100
AcDbText
10
6.800000
20
12.695391
30
0.000000
40
1.000000
1
complex
50
0.000000
7
Standard
72
0
11
6.800000
21
12.695391
31
0.000000
100
AcDbText
73
0
0
TEXT
5
77
100
AcDbEntity
67
0
8
0
6
ByLayer
62
256
370
-1
100
AcDbText
10
6.800000
20
10.690781
30
0.000000
40
1.000000
1
gothice
50
0.000000
7
Standard
72
0
11
6.800000
21
10.690781
31
0.000000
100
AcDbText
73
0
0
TEXT
5
78
100
AcDbEntity
67
0
8
0
6
ByLayer
62
256
370
-1
100
AcDbText
10
6.800000
20
8.686172
30
0.000000
40
1.000000
1
gothicg
50
0.000000
7
Standard
72
0
11
6.800000
21
8.686172
31
0.000000
100
AcDbText
73
0
0
TEXT
5
79
100
AcDbEntity
67
0
8
0
6
ByLayer
62
256
370
-1
100
AcDbText
10
6.800000
20
6.681562
30
0.000000
40
1.000000
1
gothici
50
0.000000
7
Standard
72
0
11
6.800000
21
6.681562
31
0.000000
100
AcDbText
73
0
0
TEXT
5
7A
100
AcDbEntity
67
0
8
0
6
ByLayer
62
256
370
-1
100
AcDbText
10
6.800000
20
4.676953
30
0.000000
40
1.000000
1
isocp
50
0.000000
7
Standard
72
0
11
6.800000
21
4.676953
31
0.000000
100
AcDbText
73
0
0
TEXT
5
7B
100
AcDbEntity
67
0
8
0
6
ByLayer
62
256
370
-1
100
AcDbText
10
6.800000
20
2.672344
30
0.000000
40
1.000000
1
italic
50
0.000000
7
Standard
72
0
11
6.800000
21
2.672344
31
0.000000
100
AcDbText
73
0
0
TEXT
5
7C
100
AcDbEntity
67
0
8
0
6
ByLayer
62
256
370
-1
100
AcDbText
10
6.800000
20
0.667734
30
0.000000
40
1.000000
1
romanc
50
0.000000
7
Standard
72
0
11
6.800000
21
0.667734
31
0.000000
100
AcDbText
73
0
0
TEXT
5
7D
100
AcDbEntity
67
0
8
0
6
ByLayer
62
256
370
-1
100
AcDbText
10
6.800000
20
-1.336875
30
0.000000
40
1.000000
1
romand
50
0.000000
7
Standard
72
0
11
6.800000
21
-1.336875
31
0.000000
100
AcDbText
73
0
0
TEXT
5
7E
100
AcDbEntity
67
0
8
0
6
ByLayer
62
256
370
-1
100
AcDbText
10
6.800000
20
-3.341485
30
0.000000
40
1.000000
1
romans
50
0.000000
7
Standard
72
0
11
6.800000
21
-3.341485
31
0.000000
100
AcDbText
73
0
0
TEXT
5
7F
100
AcDbEntity
67
0
8
0
6
ByLayer
62
256
370
-1
100
AcDbText
10
6.800000
20
-5.346094
30
0.000000
40
1.000000
1
romant
50
0.000000
7
Standard
72
0
11
6.800000
21
-5.346094
31
0.000000
100
AcDbText
73
0
0
TEXT
5
80
100
AcDbEntity
67
0
8
0
6
ByLayer
62
256
370
-1
100
AcDbText
10
6.800000
20
-7.350703
30
0.000000
40
1.000000
1
scriptc
50
0.000000
7
Standard
72
0
11
6.800000
21
-7.350703
31
0.000000
100
AcDbText
73
0
0
TEXT
5
81
100
AcDbEntity
67
0
8
0
6
ByLayer
62
256
370
-1
100
AcDbText
10
6.800000
20
-9.355313
30
0.000000
40
1.000000
1
scripts
50
0.000000
7
Standard
72
0
11
6.800000
21
-9.355313
31
0.000000
100
AcDbText
73
0
0
TEXT
5
82
100
AcDbEntity
67
0
8
0
6
ByLayer
62
256
370
-1
100
AcDbText
10
6.800000
20
-11.359922
30
0.000000
40
1.000000
1
simplex
50
0.000000
7
Standard
72
0
11
6.800000
21
-11.359922
31
0.000000
100
AcDbText
73
0
0
TEXT
5
83
100
AcDbEntity
67
0
8
0
6
ByLayer
62
256
370
-1
100
AcDbText
10
6.800000
20
-13.364532
30
0.000000
40
1.000000
1
txt
50
0.000000
7
Standard
72
0
11
6.800000
21
-13.364532
31
0.000000
100
AcDbText
73
0
0
TEXT
5
84
100
AcDbEntity
67
0
8
0
6
ByLayer
62
256
370
-1
100
AcDbText
10
15.660836
20
-13.364532
30
0.000000
40
1.000000
1
ginjal GINJAL 12345 !@#$%
50
0.000000
7
txt
72
0
11
15.660836
21
-13.364532
31
0.000000
100
AcDbText
73
0
0
TEXT
5
85
100
AcDbEntity
67
0
8
0
6
ByLayer
62
256
370
-1
100
AcDbText
10
15.660836
20
12.695391
30
0.000000
40
1.000000
1
ginjal GINJAL 12345 !@#$%
50
0.000000
7
complex
72
0
11
15.660836
21
12.695391
31
0.000000
100
AcDbText
73
0
0
TEXT
5
86
100
AcDbEntity
67
0
8
0
6
ByLayer
62
256
370
-1
100
AcDbText
10
15.660836
20
10.690781
30
0.000000
40
1.000000
1
ginjal GINJAL 12345 !@#$%
50
0.000000
7
gothice
72
0
11
15.660836
21
10.690781
31
0.000000
100
AcDbText
73
0
0
TEXT
5
87
100
AcDbEntity
67
0
8
0
6
ByLayer
62
256
370
-1
100
AcDbText
10
15.660836
20
8.686172
30
0.000000
40
1.000000
1
ginjal GINJAL 12345 !@#$%
50
0.000000
7
gothicg
72
0
11
15.660836
21
8.686172
31
0.000000
100
AcDbText
73
0
0
TEXT
5
88
100
AcDbEntity
67
0
8
0
6
ByLayer
62
256
370
-1
100
AcDbText
10
15.660836
20
6.681562
30
0.000000
40
1.000000
1
ginjal GINJAL 12345 !@#$%
50
0.000000
7
gothici
72
0
11
15.660836
21
6.681562
31
0.000000
100
AcDbText
73
0
0
TEXT
5
89
100
AcDbEntity
67
0
8
0
6
ByLayer
62
256
370
-1
100
AcDbText
10
15.660836
20
4.676953
30
0.000000
40
1.000000
1
ginjal GINJAL 12345 !@#$%
50
0.000000
7
isocp
72
0
11
15.660836
21
4.676953
31
0.000000
100
AcDbText
73
0
0
TEXT
5
8A
100
AcDbEntity
67
0
8
0
6
ByLayer
62
256
370
-1
100
AcDbText
10
15.660836
20
2.672344
30
0.000000
40
1.000000
1
ginjal GINJAL 12345 !@#$%
50
0.000000
7
italic
72
0
11
15.660836
21
2.672344
31
0.000000
100
AcDbText
73
0
0
TEXT
5
8B
100
AcDbEntity
67
0
8
0
6
ByLayer
62
256
370
-1
100
AcDbText
10
15.660836
20
0.667734
30
0.000000
40
1.000000
1
ginjal GINJAL 12345 !@#$%
50
0.000000
7
romanc
72
0
11
15.660836
21
0.667734
31
0.000000
100
AcDbText
73
0
0
TEXT
5
8C
100
AcDbEntity
67
0
8
0
6
ByLayer
62
256
370
-1
100
AcDbText
10
15.660836
20
-1.336875
30
0.000000
40
1.000000
1
ginjal GINJAL 12345 !@#$%
50
0.000000
7
romand
72
0
11
15.660836
21
-1.336875
31
0.000000
100
AcDbText
73
0
0
TEXT
5
8D
100
AcDbEntity
67
0
8
0
6
ByLayer
62
256
370
-1
100
AcDbText
10
15.660836
20
-3.341485
30
0.000000
40
1.000000
1
ginjal GINJAL 12345 !@#$%
50
0.000000
7
romans
72
0
11
15.660836
21
-3.341485
31
0.000000
100
AcDbText
73
0
0
TEXT
5
8E
100
AcDbEntity
67
0
8
0
6
ByLayer
62
256
370
-1
100
AcDbText
10
15.660836
20
-5.346094
30
0.000000
40
1.000000
1
ginjal GINJAL 12345 !@#$%
50
0.000000
7
romant
72
0
11
15.660836
21
-5.346094
31
0.000000
100
AcDbText
73
0
0
TEXT
5
8F
100
AcDbEntity
67
0
8
0
6
ByLayer
62
256
370
-1
100
AcDbText
10
15.660836
20
-7.350703
30
0.000000
40
1.000000
1
ginjal GINJAL 12345 !@#$%
50
0.000000
7
scriptc
72
0
11
15.660836
21
-7.350703
31
0.000000
100
AcDbText
73
0
0
TEXT
5
90
100
AcDbEntity
67
0
8
0
6
ByLayer
62
256
370
-1
100
AcDbText
10
15.660836
20
-9.355313
30
0.000000
40
1.000000
1
ginjal GINJAL 12345 !@#$%
50
0.000000
7
scripts
72
0
11
15.660836
21
-9.355313
31
0.000000
100
AcDbText
73
0
0
TEXT
5
91
100
AcDbEntity
67
0
8
0
6
ByLayer
62
256
370
-1
100
AcDbText
10
15.660836
20
-11.359922
30
0.000000
40
1.000000
1
ginjal GINJAL 12345 !@#$%
50
0.000000
7
simplex
72
0
11
15.660836
21
-11.359922
31
0.000000
100
AcDbText
73
0
0
TEXT
5
92
100
AcDbEntity
67
0
8
0
6
ByLayer
62
256
370
-1
100
AcDbText
10
42.182091
20
-11.359922
30
0.000000
40
1.000000
1
O símbolo € foi escolhido pela Comissão Europeia e é baseado na letra E
50
0.000000
7
simplex
72
0
11
42.182091
21
-11.359922
31
0.000000
100
AcDbText
73
0
0
TEXT
5
93
100
AcDbEntity
67
0
8
0
6
ByLayer
62
256
370
-1
100
AcDbText
10
42.182091
20
-13.364532
30
0.000000
40
1.000000
1
O símbolo € foi escolhido pela Comissão Europeia e é baseado na letra E
50
0.000000
7
txt
72
0
11
42.182091
21
-13.364532
31
0.000000
100
AcDbText
73
0
0
TEXT
5
94
100
AcDbEntity
67
0
8
0
6
ByLayer
62
256
370
-1
100
AcDbText
10
42.182091
20
12.695391
30
0.000000
40
1.000000
1
O símbolo € foi escolhido pela Comissão Europeia e é baseado na letra E
50
0.000000
7
complex
72
0
11
42.182091
21
12.695391
31
0.000000
100
AcDbText
73
0
0
TEXT
5
95
100
AcDbEntity
67
0
8
0
6
ByLayer
62
256
370
-1
100
AcDbText
10
42.182091
20
10.690781
30
0.000000
40
1.000000
1
O símbolo € foi escolhido pela Comissão Europeia e é baseado na letra E
50
0.000000
7
gothice
72
0
11
42.182091
21
10.690781
31
0.000000
100
AcDbText
73
0
0
TEXT
5
96
100
AcDbEntity
67
0
8
0
6
ByLayer
62
256
370
-1
100
AcDbText
10
42.182091
20
8.686172
30
0.000000
40
1.000000
1
O símbolo € foi escolhido pela Comissão Europeia e é baseado na letra E
50
0.000000
7
gothicg
72
0
11
42.182091
21
8.686172
31
0.000000
100
AcDbText
73
0
0
TEXT
5
97
100
AcDbEntity
67
0
8
0
6
ByLayer
62
256
370
-1
100
AcDbText
10
42.182091
20
6.681562
30
0.000000
40
1.000000
1
O símbolo € foi escolhido pela Comissão Europeia e é baseado na letra E
50
0.000000
7
gothici
72
0
11
42.182091
21
6.681562
31
0.000000
100
AcDbText
73
0
0
TEXT
5
98
100
AcDbEntity
67
0
8
0
6
ByLayer
62
256
370
-1
100
AcDbText
10
42.182091
20
4.676953
30
0.000000
40
1.000000
1
O símbolo € foi escolhido pela Comissão Europeia e é baseado na letra E
50
0.000000
7
isocp
72
0
11
42.182091
21
4.676953
31
0.000000
100
AcDbText
73
0
0
TEXT
5
99
100
AcDbEntity
67
0
8
0
6
ByLayer
62
256
370
-1
100
AcDbText
10
42.182091
20
2.672344
30
0.000000
40
1.000000
1
O símbolo € foi escolhido pela Comissão Europeia e é baseado na letra E
50
0.000000
7
italic
72
0
11
42.182091
21
2.672344
31
0.000000
100
AcDbText
73
0
0
TEXT
5
9A
100
AcDbEntity
67
0
8
0
6
ByLayer
62
256
370
-1
100
AcDbText
10
42.182091
20
0.667734
30
0.000000
40
1.000000
1
O símbolo € foi escolhido pela Comissão Europeia e é baseado na letra E
50
0.000000
7
romanc
72
0
11
42.182091
21
0.667734
31
0.000000
100
AcDbText
73
0
0
TEXT
5
9C
100
AcDbEntity
67
0
8
0
6
ByLayer
62
256
370
-1
100
AcDbText
10
42.182091
20
-1.336875
30
0.000000
40
1.000000
1
O símbolo € foi escolhido pela Comissão Europeia e é baseado na letra E
50
0.000000
7
romand
72
0
11
42.182091
21
-1.336875
31
0.000000
100
AcDbText
73
0
0
TEXT
5
9D
100
AcDbEntity
67
0
8
0
6
ByLayer
62
256
370
-1
100
AcDbText
10
42.182091
20
-3.341485
30
0.000000
40
1.000000
1
O símbolo € foi escolhido pela Comissão Europeia e é baseado na letra E
50
0.000000
7
romans
72
0
11
42.182091
21
-3.341485
31
0.000000
100
AcDbText
73
0
0
TEXT
5
9E
100
AcDbEntity
67
0
8
0
6
ByLayer
62
256
370
-1
100
AcDbText
10
42.182091
20
-5.346094
30
0.000000
40
1.000000
1
O símbolo € foi escolhido pela Comissão Europeia e é baseado na letra E
50
0.000000
7
romant
72
0
11
42.182091
21
-5.346094
31
0.000000
100
AcDbText
73
0
0
TEXT
5
9F
100
AcDbEntity
67
0
8
0
6
ByLayer
62
256
370
-1
100
AcDbText
10
42.182091
20
-7.350703
30
0.000000
40
1.000000
1
O símbolo € foi escolhido pela Comissão Europeia e é baseado na letra E
50
0.000000
7
scriptc
72
0
11
42.182091
21
-7.350703
31
0.000000
100
AcDbText
73
0
0
TEXT
5
A0
100
AcDbEntity
67
0
8
0
6
ByLayer
62
256
370
-1
100
AcDbText
10
42.182091
20
-9.355313
30
0.000000
40
1.000000
1
O símbolo € foi escolhido pela Comissão Europeia e é baseado na letra E
50
0.000000
7
scripts
72
0
11
42.182091
21
-9.355313
31
0.000000
100
AcDbText
73
0
0
ENDSEC
0
SECTION
2
OBJECTS
0
DICTIONARY
5
22
100
AcDbDictionary
281
1
3
ACAD_COLOR
350
23
3
ACAD_GROUP
350
26
3
ACAD_LAYOUT
350
27
3
ACAD_MATERIAL
350
28
3
ACAD_MLINESTYLE
350
29
3
ACAD_PLOTSETTINGS
350
2A
3
ACAD_PLOTSTYLENAME
350
2B
3
ACAD_TABLESTYLE
350
2C
3
AcadDim
350
2D
0
DICTIONARY
5
23
100
AcDbDictionary
0
DICTIONARY
5
26
100
AcDbDictionary
0
DICTIONARY
5
27
100
AcDbDictionary
0
DICTIONARY
5
28
100
AcDbDictionary
0
DICTIONARY
5
29
100
AcDbDictionary
0
DICTIONARY
5
2A
100
AcDbDictionary
0
DICTIONARY
5
2B
100
AcDbDictionary
0
DICTIONARY
5
2C
100
AcDbDictionary
0
DICTIONARY
5
2D
100
AcDbDictionary
0
ENDSEC
0
EOF
