999
CadZinho - Minimalist CAD by Zecruel
0
SECTION
2
HEADER
9
$ACADVER
1
AC1021
9
$HANDSEED
5
54
9
$INSUNITS
70
4
9
$LWDISPLAY
290
1
0
ENDSEC
0
SECTION
2
CLASSES
0
ENDSEC
0
SECTION
2
TABLES
0
TABLE
2
VPORT
5
1
100
AcDbSymbolTable
70
1000
0
VPORT
5
25
100
AcDbSymbolTableRecord
100
AcDbViewportTableRecord
2
*ACTIVE
70
0
10
0.000000
20
0.000000
11
1.000000
21
1.000000
12
420.000000
22
300.000000
13
0.000000
23
0.000000
14
100.000000
24
100.000000
15
100.000000
25
100.000000
16
0.000000
26
0.000000
36
1.000000
17
0.000000
27
0.000000
37
0.000000
40
680.000000
41
1.800000
42
50.000000
43
0.000000
44
0.000000
50
0.000000
51
0.000000
0
ENDTAB
0
TABLE
2
LTYPE
5
4
100
AcDbSymbolTable
70
1000
0
LTYPE
5
5
100
AcDbSymbolTableRecord
100
AcDbLinetypeTableRecord
2
ByBlock
70
0
3

72
65
73
0
40
0.000000
0
LTYPE
5
6
100
AcDbSymbolTableRecord
100
AcDbLinetypeTableRecord
2
ByLayer
70
0
3

72
65
73
0
40
0.000000
0
LTYPE
5
7
100
AcDbSymbolTableRecord
100
AcDbLinetypeTableRecord
2
Continuous
70
0
3
___________________________________
72
65
73
0
40
0.000000
0
LTYPE
5
8
100
AcDbSymbolTableRecord
100
AcDbLinetypeTableRecord
2
Border
70
0
3
____ . ____ ____ . ____ ____ . ____
72
65
73
6
40
1.750000
49
0.500000
74
0
49
-0.250000
74
0
49
0.500000
74
0
49
-0.250000
74
0
49
0.000000
74
0
49
-0.250000
74
0
0
LTYPE
5
9
100
AcDbSymbolTableRecord
100
AcDbLinetypeTableRecord
2
Center
70
0
3
____ _ ____ _ ____ _ ____ _ ____ _
72
65
73
4
40
2.000000
49
1.250000
74
0
49
-0.250000
74
0
49
0.250000
74
0
49
-0.250000
74
0
0
LTYPE
5
A
100
AcDbSymbolTableRecord
100
AcDbLinetypeTableRecord
2
Dashdot
70
0
3
____ . ____ . ____ . ____ . ____ .
72
65
73
4
40
1.000000
49
0.500000
74
0
49
-0.250000
74
0
49
0.000000
74
0
49
-0.250000
74
0
0
LTYPE
5
B
100
AcDbSymbolTableRecord
100
AcDbLinetypeTableRecord
2
Dashed
70
0
3
____ ____ ____ ____ ____ ____ ____
72
65
73
2
40
0.750000
49
0.500000
74
0
49
-0.250000
74
0
0
LTYPE
5
C
100
AcDbSymbolTableRecord
100
AcDbLinetypeTableRecord
2
Divide
70
0
3
____ . . ____ . . ____ . . ____ . .
72
65
73
6
40
1.250000
49
0.500000
74
0
49
-0.250000
74
0
49
0.000000
74
0
49
-0.250000
74
0
49
0.000000
74
0
49
-0.250000
74
0
0
LTYPE
5
D
100
AcDbSymbolTableRecord
100
AcDbLinetypeTableRecord
2
Dot
70
0
3
. . . . . . . . . . . . . . . . . .
72
65
73
2
40
0.250000
49
0.000000
74
0
49
-0.250000
74
0
0
LTYPE
5
E
100
AcDbSymbolTableRecord
100
AcDbLinetypeTableRecord
2
Hidden
70
0
3
__ __ __ __ __ __ __ __ __ __ __ __
72
65
73
2
40
0.375000
49
0.250000
74
0
49
-0.125000
74
0
0
LTYPE
5
F
100
AcDbSymbolTableRecord
100
AcDbLinetypeTableRecord
2
Phantom
70
0
3
_____ _ _ _____ _ _ _____ _ _ _____
72
65
73
6
40
2.500000
49
1.250000
74
0
49
-0.250000
74
0
49
0.250000
74
0
49
-0.250000
74
0
49
0.250000
74
0
49
-0.250000
74
0
0
ENDTAB
0
TABLE
2
LAYER
5
10
100
AcDbSymbolTable
70
1000
0
LAYER
5
11
100
AcDbSymbolTableRecord
100
AcDbLayerTableRecord
2
0
70
0
62
7
6
Continuous
370
0
390
2B
0
ENDTAB
0
TABLE
2
STYLE
5
12
100
AcDbSymbolTable
70
1000
0
STYLE
5
13
100
AcDbSymbolTableRecord
100
AcDbTextStyleTableRecord
2
Standard
70
0
40
0.000000
41
1.000000
50
0.000000
71
0
42
1.000000
3
TXT.SHX
4

0
STYLE
5
24
100
AcDbSymbolTableRecord
100
AcDbTextStyleTableRecord
2

70
1
40
0.000000
41
1.000000
50
0.000000
71
0
42
1.000000
3
LTYPESHP.SHX
4

0
ENDTAB
0
TABLE
2
VIEW
5
14
100
AcDbSymbolTable
70
0
0
ENDTAB
0
TABLE
2
UCS
5
15
100
AcDbSymbolTable
70
0
0
ENDTAB
0
TABLE
2
APPID
5
16
100
AcDbSymbolTable
70
10
0
APPID
5
17
100
AcDbSymbolTableRecord
100
AcDbRegAppTableRecord
2
ACAD
70
0
0
APPID
5
18
100
AcDbSymbolTableRecord
100
AcDbRegAppTableRecord
2
CADZINHO
70
0
0
ENDTAB
0
TABLE
2
DIMSTYLE
5
19
100
AcDbSymbolTable
70
1
100
AcDbDimStyleTable
71
1
0
DIMSTYLE
105
1A
100
AcDbSymbolTableRecord
100
AcDbDimStyleTableRecord
2
Standard
70
0
340
C
0
ENDTAB
0
TABLE
2
BLOCK_RECORD
5
1B
100
AcDbSymbolTable
70
9999
0
BLOCK_RECORD
5
1C
100
AcDbSymbolTableRecord
100
AcDbBlockTableRecord
2
*Model_Space
70
0
0
BLOCK_RECORD
5
1D
100
AcDbSymbolTableRecord
100
AcDbBlockTableRecord
2
*Paper_Space
70
0
0
ENDTAB
0
ENDSEC
0
SECTION
2
BLOCKS
0
BLOCK
5
1E
100
AcDbEntity
8
0
100
AcDbBlockBegin
2
*Model_Space
70
0
10
0.000000
20
0.000000
30
0.000000
3
*Model_Space
1

0
ENDBLK
5
1F
100
AcDbEntity
8
0
100
AcDbBlockEnd
0
BLOCK
5
20
100
AcDbEntity
8
0
100
AcDbBlockBegin
2
*Paper_Space
70
0
10
0.000000
20
0.000000
30
0.000000
3
*Paper_Space
1

0
ENDBLK
5
21
100
AcDbEntity
8
0
100
AcDbBlockEnd
0
ENDSEC
0
SECTION
2
ENTITIES
0
LWPOLYLINE
5
2E
100
AcDbEntity
67
0
8
0
6
ByLayer
62
256
370
-1
100
AcDbPolyline
90
4
70
1
10
0.000000
20
0.000000
30
0.000000
42
0.000000
10
841.000000
20
0.000000
30
0.000000
42
0.000000
10
841.000000
20
594.000000
30
0.000000
42
0.000000
10
0.000000
20
594.000000
30
0.000000
0
LWPOLYLINE
5
2F
100
AcDbEntity
67
0
8
0
6
ByLayer
62
256
370
-1
100
AcDbPolyline
90
8
70
1
10
30.000000
20
25.000000
30
0.000000
42
0.414214
10
40.000000
20
15.000000
30
0.000000
42
0.000000
10
145.000000
20
15.000000
30
0.000000
42
0.414214
10
155.000000
20
25.000000
30
0.000000
42
0.000000
10
155.000000
20
50.000000
30
0.000000
42
0.414214
10
145.000000
20
60.000000
30
0.000000
42
0.000000
10
40.000000
20
60.000000
30
0.000000
42
0.414214
10
30.000000
20
50.000000
30
0.000000
0
LWPOLYLINE
5
30
100
AcDbEntity
67
0
8
0
6
ByLayer
62
256
370
-1
100
AcDbPolyline
90
8
70
1
10
766.000000
20
25.000000
30
0.000000
42
0.414214
10
776.000000
20
15.000000
30
0.000000
42
0.000000
10
816.000000
20
15.000000
30
0.000000
42
0.414214
10
826.000000
20
25.000000
30
0.000000
42
0.000000
10
826.000000
20
50.000000
30
0.000000
42
0.414214
10
816.000000
20
60.000000
30
0.000000
42
0.000000
10
776.000000
20
60.000000
30
0.000000
42
0.414214
10
766.000000
20
50.000000
30
0.000000
0
LWPOLYLINE
5
31
100
AcDbEntity
67
0
8
0
6
ByLayer
62
256
370
-1
100
AcDbPolyline
90
8
70
1
10
661.000000
20
25.000000
30
0.000000
42
0.414214
10
671.000000
20
15.000000
30
0.000000
42
0.000000
10
751.000000
20
15.000000
30
0.000000
42
0.414214
10
761.000000
20
25.000000
30
0.000000
42
0.000000
10
761.000000
20
50.000000
30
0.000000
42
0.414214
10
751.000000
20
60.000000
30
0.000000
42
0.000000
10
671.000000
20
60.000000
30
0.000000
42
0.414214
10
661.000000
20
50.000000
30
0.000000
0
LWPOLYLINE
5
32
100
AcDbEntity
67
0
8
0
6
ByLayer
62
256
370
-1
100
AcDbPolyline
90
8
70
1
10
30.000000
20
75.000000
30
0.000000
42
0.414214
10
40.000000
20
65.000000
30
0.000000
42
0.000000
10
816.000000
20
65.000000
30
0.000000
42
0.414214
10
826.000000
20
75.000000
30
0.000000
42
0.000000
10
826.000000
20
569.000000
30
0.000000
42
0.414214
10
816.000000
20
579.000000
30
0.000000
42
0.000000
10
40.000000
20
579.000000
30
0.000000
42
0.414214
10
30.000000
20
569.000000
30
0.000000
0
LWPOLYLINE
5
33
100
AcDbEntity
67
0
8
0
6
ByLayer
62
256
370
-1
100
AcDbPolyline
90
8
70
1
10
25.000000
20
25.000000
30
0.000000
42
0.414214
10
40.000000
20
10.000000
30
0.000000
42
0.000000
10
816.000000
20
10.000000
30
0.000000
42
0.414214
10
831.000000
20
25.000000
30
0.000000
42
0.000000
10
831.000000
20
569.000000
30
0.000000
42
0.414214
10
816.000000
20
584.000000
30
0.000000
42
0.000000
10
40.000000
20
584.000000
30
0.000000
42
0.414214
10
25.000000
20
569.000000
30
0.000000
0
LINE
5
34
100
AcDbEntity
67
0
8
0
6
ByLayer
62
256
370
-1
100
AcDbLine
10
656.000000
20
0.000000
30
0.000000
11
656.000000
21
10.000000
31
0.000000
0
LINE
5
35
100
AcDbEntity
67
0
8
0
6
ByLayer
62
256
370
-1
100
AcDbLine
10
471.000000
20
0.000000
30
0.000000
11
471.000000
21
10.000000
31
0.000000
0
LINE
5
36
100
AcDbEntity
67
0
8
0
6
ByLayer
62
256
370
-1
100
AcDbLine
10
341.000000
20
0.000000
30
0.000000
11
341.000000
21
10.000000
31
0.000000
0
LINE
5
37
100
AcDbEntity
67
0
8
0
6
ByLayer
62
256
370
-1
100
AcDbLine
10
201.000000
20
0.000000
30
0.000000
11
201.000000
21
10.000000
31
0.000000
0
LWPOLYLINE
5
38
100
AcDbEntity
67
0
8
0
6
ByLayer
62
256
370
-1
100
AcDbPolyline
90
8
70
1
10
556.000000
20
25.000000
30
0.000000
42
0.414214
10
566.000000
20
15.000000
30
0.000000
42
0.000000
10
646.000000
20
15.000000
30
0.000000
42
0.414214
10
656.000000
20
25.000000
30
0.000000
42
0.000000
10
656.000000
20
50.000000
30
0.000000
42
0.414214
10
646.000000
20
60.000000
30
0.000000
42
0.000000
10
566.000000
20
60.000000
30
0.000000
42
0.414214
10
556.000000
20
50.000000
30
0.000000
0
LWPOLYLINE
5
39
100
AcDbEntity
67
0
8
0
6
ByLayer
62
256
370
-1
100
AcDbPolyline
90
8
70
1
10
451.000000
20
25.000000
30
0.000000
42
0.414214
10
461.000000
20
15.000000
30
0.000000
42
0.000000
10
541.000000
20
15.000000
30
0.000000
42
0.414214
10
551.000000
20
25.000000
30
0.000000
42
0.000000
10
551.000000
20
50.000000
30
0.000000
42
0.414214
10
541.000000
20
60.000000
30
0.000000
42
0.000000
10
461.000000
20
60.000000
30
0.000000
42
0.414214
10
451.000000
20
50.000000
30
0.000000
0
LWPOLYLINE
5
3A
100
AcDbEntity
67
0
8
0
6
ByLayer
62
256
370
-1
100
AcDbPolyline
90
8
70
1
10
160.000000
20
25.000000
30
0.000000
42
0.414214
10
170.000000
20
15.000000
30
0.000000
42
0.000000
10
436.000000
20
15.000000
30
0.000000
42
0.414214
10
446.000000
20
25.000000
30
0.000000
42
0.000000
10
446.000000
20
50.000000
30
0.000000
42
0.414214
10
436.000000
20
60.000000
30
0.000000
42
0.000000
10
170.000000
20
60.000000
30
0.000000
42
0.414214
10
160.000000
20
50.000000
30
0.000000
0
LINE
5
3B
100
AcDbEntity
67
0
8
0
6
ByLayer
62
256
370
-1
100
AcDbLine
10
826.000000
20
30.000000
30
0.000000
11
766.000000
21
30.000000
31
0.000000
0
LINE
5
3C
100
AcDbEntity
67
0
8
0
6
ByLayer
62
256
370
-1
100
AcDbLine
10
761.000000
20
45.000000
30
0.000000
11
661.000000
21
45.000000
31
0.000000
0
LINE
5
3D
100
AcDbEntity
67
0
8
0
6
ByLayer
62
256
370
-1
100
AcDbLine
10
556.078434
20
26.250000
30
0.000000
11
655.921566
21
26.250000
31
0.000000
0
LINE
5
3E
100
AcDbEntity
67
0
8
0
6
ByLayer
62
256
370
-1
100
AcDbLine
10
606.000000
20
60.000000
30
0.000000
11
606.000000
21
15.000000
31
0.000000
0
LINE
5
3F
100
AcDbEntity
67
0
8
0
6
ByLayer
62
256
370
-1
100
AcDbLine
10
550.921566
20
26.250000
30
0.000000
11
451.000000
21
26.250000
31
0.000000
0
LINE
5
40
100
AcDbEntity
67
0
8
0
6
ByLayer
62
256
370
-1
100
AcDbLine
10
501.000000
20
15.000000
30
0.000000
11
501.000000
21
60.000000
31
0.000000
0
LINE
5
41
100
AcDbEntity
67
0
8
0
6
ByLayer
62
256
370
-1
100
AcDbLine
10
501.000000
20
37.500000
30
0.000000
11
551.000000
21
37.500000
31
0.000000
0
LINE
5
42
100
AcDbEntity
67
0
8
0
6
ByLayer
62
256
370
-1
100
AcDbLine
10
501.000000
20
48.750000
30
0.000000
11
550.921566
21
48.750000
31
0.000000
0
LINE
5
43
100
AcDbEntity
67
0
8
0
6
ByLayer
62
256
370
-1
100
AcDbLine
10
30.078434
20
26.250000
30
0.000000
11
154.921566
21
26.250000
31
0.000000
0
LINE
5
44
100
AcDbEntity
67
0
8
0
6
ByLayer
62
256
370
-1
100
AcDbLine
10
30.000000
20
37.500000
30
0.000000
11
155.000000
21
37.500000
31
0.000000
0
LINE
5
45
100
AcDbEntity
67
0
8
0
6
ByLayer
62
256
370
-1
100
AcDbLine
10
30.078434
20
48.750000
30
0.000000
11
155.000000
21
48.750000
31
0.000000
0
LINE
5
46
100
AcDbEntity
67
0
8
0
6
ByLayer
62
256
370
-1
100
AcDbLine
10
606.000000
20
37.500000
30
0.000000
11
656.000000
21
37.500000
31
0.000000
0
LINE
5
47
100
AcDbEntity
67
0
8
0
6
ByLayer
62
256
370
-1
100
AcDbLine
10
606.000000
20
48.750000
30
0.000000
11
655.921566
21
48.750000
31
0.000000
0
LINE
5
48
100
AcDbEntity
67
0
8
0
6
ByLayer
62
256
370
-1
100
AcDbLine
10
40.000000
20
15.000000
30
0.000000
11
40.000000
21
60.000000
31
0.000000
0
LINE
5
49
100
AcDbEntity
67
0
8
0
6
ByLayer
62
256
370
-1
100
AcDbLine
10
100.000000
20
15.000000
30
0.000000
11
100.000000
21
60.000000
31
0.000000
0
LINE
5
4A
100
AcDbEntity
67
0
8
0
6
ByLayer
62
256
370
-1
100
AcDbLine
10
125.000000
20
15.000000
30
0.000000
11
125.000000
21
60.000000
31
0.000000
0
LINE
5
4B
100
AcDbEntity
67
0
8
0
6
ByLayer
62
256
370
-1
100
AcDbLine
10
656.000000
20
594.000000
30
0.000000
11
656.000000
21
584.000000
31
0.000000
0
LINE
5
4C
100
AcDbEntity
67
0
8
0
6
ByLayer
62
256
370
-1
100
AcDbLine
10
471.000000
20
594.000000
30
0.000000
11
471.000000
21
584.000000
31
0.000000
0
LINE
5
4D
100
AcDbEntity
67
0
8
0
6
ByLayer
62
256
370
-1
100
AcDbLine
10
341.000000
20
594.000000
30
0.000000
11
341.000000
21
584.000000
31
0.000000
0
LINE
5
4E
100
AcDbEntity
67
0
8
0
6
ByLayer
62
256
370
-1
100
AcDbLine
10
201.000000
20
594.000000
30
0.000000
11
201.000000
21
584.000000
31
0.000000
0
TEXT
5
4F
100
AcDbEntity
67
0
8
0
6
ByLayer
62
256
370
-1
100
AcDbText
10
711.000000
20
40.000000
30
0.000000
40
5.000000
1
TITLE1
50
0.000000
7
Standard
72
1
11
711.000000
21
40.000000
31
0.000000
100
AcDbText
73
2
0
TEXT
5
50
100
AcDbEntity
67
0
8
0
6
ByLayer
62
256
370
-1
100
AcDbText
10
711.000000
20
31.000000
30
0.000000
40
5.000000
1
TITLE1
50
0.000000
7
Standard
72
1
11
711.000000
21
31.000000
31
0.000000
100
AcDbText
73
2
0
TEXT
5
51
100
AcDbEntity
67
0
8
0
6
ByLayer
62
256
370
-1
100
AcDbText
10
711.000000
20
22.000000
30
0.000000
40
5.000000
1
TITLE1
50
0.000000
7
Standard
72
1
11
711.000000
21
22.000000
31
0.000000
100
AcDbText
73
2
0
LINE
5
52
100
AcDbEntity
67
0
8
0
6
ByLayer
62
256
370
-1
100
AcDbLine
10
0.000000
20
297.000000
30
0.000000
11
25.000000
21
297.000000
31
0.000000
0
LINE
5
53
100
AcDbEntity
67
0
8
0
6
ByLayer
62
256
370
-1
100
AcDbLine
10
841.000000
20
297.000000
30
0.000000
11
831.000000
21
297.000000
31
0.000000
0
ENDSEC
0
SECTION
2
OBJECTS
0
DICTIONARY
5
22
100
AcDbDictionary
281
1
3
ACAD_COLOR
350
23
3
ACAD_GROUP
350
26
3
ACAD_LAYOUT
350
27
3
ACAD_MATERIAL
350
28
3
ACAD_MLINESTYLE
350
29
3
ACAD_PLOTSETTINGS
350
2A
3
ACAD_PLOTSTYLENAME
350
2B
3
ACAD_TABLESTYLE
350
2C
3
AcadDim
350
2D
0
DICTIONARY
5
23
100
AcDbDictionary
0
DICTIONARY
5
26
100
AcDbDictionary
0
DICTIONARY
5
27
100
AcDbDictionary
0
DICTIONARY
5
28
100
AcDbDictionary
0
DICTIONARY
5
29
100
AcDbDictionary
0
DICTIONARY
5
2A
100
AcDbDictionary
0
DICTIONARY
5
2B
100
AcDbDictionary
0
DICTIONARY
5
2C
100
AcDbDictionary
0
DICTIONARY
5
2D
100
AcDbDictionary
0
ENDSEC
0
EOF
