999
CadZinho - Minimalist CAD by Zecruel
0
SECTION
2
HEADER
9
$ACADVER
1
AC1021
9
$HANDSEED
5
9C
9
$INSUNITS
70
4
9
$LWDISPLAY
290
1
0
ENDSEC
0
SECTION
2
CLASSES
0
ENDSEC
0
SECTION
2
TABLES
0
TABLE
2
VPORT
5
1
100
AcDbSymbolTable
70
1
0
ENDTAB
0
TABLE
2
LTYPE
5
4
100
AcDbSymbolTable
70
100
0
LTYPE
5
5
100
AcDbSymbolTableRecord
100
AcDbLinetypeTableRecord
2
ByBlock
70
0
3

72
65
73
0
40
0
0
LTYPE
5
6
100
AcDbSymbolTableRecord
100
AcDbLinetypeTableRecord
2
ByLayer
70
0
3

72
65
73
0
40
0
0
LTYPE
5
7
100
AcDbSymbolTableRecord
100
AcDbLinetypeTableRecord
2
Continuous
70
0
3
___________________________________
72
65
73
0
40
0
0
LTYPE
5
8
100
AcDbSymbolTableRecord
100
AcDbLinetypeTableRecord
2
Border
70
0
3
____ . ____ ____ . ____ ____ . ____
72
65
73
6
40
1.75
49
0.5
74
0
49
-0.25
74
0
49
0.5
74
0
49
-0.25
74
0
49
0
74
0
49
-0.25
74
0
0
LTYPE
5
9
100
AcDbSymbolTableRecord
100
AcDbLinetypeTableRecord
2
Center
70
0
3
____ _ ____ _ ____ _ ____ _ ____ _
72
65
73
4
40
2
49
1.25
74
0
49
-0.25
74
0
49
0.25
74
0
49
-0.25
74
0
0
LTYPE
5
A
100
AcDbSymbolTableRecord
100
AcDbLinetypeTableRecord
2
Dashdot
70
0
3
____ . ____ . ____ . ____ . ____ .
72
65
73
4
40
1
49
0.5
74
0
49
-0.25
74
0
49
0
74
0
49
-0.25
74
0
0
LTYPE
5
B
100
AcDbSymbolTableRecord
100
AcDbLinetypeTableRecord
2
Dashed
70
0
3
____ ____ ____ ____ ____ ____ ____
72
65
73
2
40
0.75
49
0.5
74
0
49
-0.25
74
0
0
LTYPE
5
C
100
AcDbSymbolTableRecord
100
AcDbLinetypeTableRecord
2
Divide
70
0
3
____ . . ____ . . ____ . . ____ . .
72
65
73
6
40
1.25
49
0.5
74
0
49
-0.25
74
0
49
0
74
0
49
-0.25
74
0
49
0
74
0
49
-0.25
74
0
0
LTYPE
5
D
100
AcDbSymbolTableRecord
100
AcDbLinetypeTableRecord
2
Dot
70
0
3
. . . . . . . . . . . . . . . . . .
72
65
73
2
40
0.25
49
0
74
0
49
-0.25
74
0
0
LTYPE
5
E
100
AcDbSymbolTableRecord
100
AcDbLinetypeTableRecord
2
Hidden
70
0
3
__ __ __ __ __ __ __ __ __ __ __ __
72
65
73
2
40
0.375
49
0.25
74
0
49
-0.125
74
0
0
LTYPE
5
F
100
AcDbSymbolTableRecord
100
AcDbLinetypeTableRecord
2
Phantom
70
0
3
_____ _ _ _____ _ _ _____ _ _ _____
72
65
73
6
40
2.5
49
1.25
74
0
49
-0.25
74
0
49
0.25
74
0
49
-0.25
74
0
49
0.25
74
0
49
-0.25
74
0
0
ENDTAB
0
TABLE
2
LAYER
5
10
100
AcDbSymbolTable
70
1000
0
LAYER
5
11
100
AcDbSymbolTableRecord
100
AcDbLayerTableRecord
2
0
70
0
62
7
6
Continuous
370
0
390
0
0
LAYER
5
7D
100
AcDbSymbolTableRecord
100
AcDbLayerTableRecord
2
cz_logo
70
0
62
7
6
Continuous
370
0
390
2B
0
ENDTAB
0
TABLE
2
STYLE
5
12
100
AcDbSymbolTable
70
3
0
STYLE
5
13
100
AcDbSymbolTableRecord
100
AcDbTextStyleTableRecord
2
Standard
70
0
40
0
41
1
50
0
71
0
42
1
3
TXT.SHX
4

0
ENDTAB
0
TABLE
2
VIEW
5
14
100
AcDbSymbolTable
70
0
0
ENDTAB
0
TABLE
2
UCS
5
15
100
AcDbSymbolTable
70
0
0
ENDTAB
0
TABLE
2
APPID
5
16
100
AcDbSymbolTable
70
10
0
APPID
5
17
100
AcDbSymbolTableRecord
100
AcDbRegAppTableRecord
2
ACAD
70
0
0
APPID
5
18
100
AcDbSymbolTableRecord
100
AcDbRegAppTableRecord
2
CADZINHO
70
0
0
ENDTAB
0
TABLE
2
DIMSTYLE
5
19
100
AcDbSymbolTable
70
1
100
AcDbDimStyleTable
71
1
0
DIMSTYLE
105
1A
100
AcDbSymbolTableRecord
100
AcDbDimStyleTableRecord
2
Standard
70
0
340
C
0
ENDTAB
0
TABLE
2
BLOCK_RECORD
5
1B
100
AcDbSymbolTable
70
9999
0
BLOCK_RECORD
5
1C
100
AcDbSymbolTableRecord
100
AcDbBlockTableRecord
2
*Model_Space
70
0
0
BLOCK_RECORD
5
1D
100
AcDbSymbolTableRecord
100
AcDbBlockTableRecord
2
*Paper_Space
70
0
0
BLOCK_RECORD
5
72
100
AcDbSymbolTableRecord
100
AcDbBlockTableRecord
2
logo1
70
0
0
ENDTAB
0
ENDSEC
0
SECTION
2
BLOCKS
0
BLOCK
5
1E
100
AcDbEntity
8
0
100
AcDbBlockBegin
2
*Model_Space
70
0
10
0
20
0
30
0
3
*Model_Space
1

0
ENDBLK
5
1F
100
AcDbEntity
8
0
100
AcDbBlockEnd
0
BLOCK
5
20
100
AcDbEntity
8
0
100
AcDbBlockBegin
2
*Paper_Space
70
0
10
0
20
0
30
0
3
*Paper_Space
1

0
ENDBLK
5
21
100
AcDbEntity
8
0
100
AcDbBlockEnd
0
BLOCK
5
73
330
72
100
AcDbEntity
8
0
100
AcDbBlockBegin
2
logo1
70
0
10
0
20
0
30
0
3
logo1
1

4

0
TEXT
5
74
100
AcDbEntity
67
0
8
cz_logo
6
ByLayer
62
256
370
25
100
AcDbText
10
16.0714
20
5
30
0
40
5
1
CadZinho
50
0
7
Standard
72
1
11
16.0714
21
5
31
0
100
AcDbText
73
3
0
LWPOLYLINE
5
75
100
AcDbEntity
67
0
8
cz_logo
6
ByLayer
62
254
370
-1
100
AcDbPolyline
90
10
70
1
10
17.0714
20
24.1036
30
0
42
0
10
27.0714
20
24.1036
30
0
42
0
10
27.0714
20
20.1036
30
0
42
0
10
19.8214
20
11.75
30
0
42
0
10
27.0714
20
11.75
30
0
42
0
10
27.0714
20
9
30
0
42
0
10
17.0714
20
9
30
0
42
0
10
17.0714
20
13
30
0
42
0
10
24.3214
20
21.3536
30
0
42
0
10
17.0714
20
21.3536
30
0
0
LWPOLYLINE
5
76
100
AcDbEntity
67
0
8
cz_logo
6
ByLayer
62
254
370
-1
100
AcDbPolyline
90
8
70
1
10
15.9714
20
29.0518
30
0
42
0.4
10
9.27143
20
31.0518
30
0
42
0.6
10
9.27143
20
17.0518
30
0
42
0.4
10
15.9714
20
19.0518
30
0
42
0
10
14.3714
20
21.0518
30
0
42
-0.4
10
10.3514
20
19.8518
30
0
42
-0.6
10
10.3514
20
28.2518
30
0
42
-0.4
10
14.3714
20
27.0518
30
0
0
LWPOLYLINE
5
77
100
AcDbEntity
67
0
8
cz_logo
6
ByLayer
62
108
370
-1
100
AcDbPolyline
90
8
70
1
10
3.07143
20
11
30
0
42
0.414214
10
7.07143
20
7
30
0
42
0
10
25.0714
20
7
30
0
42
0.414214
10
29.0714
20
11
30
0
42
0
10
29.0714
20
29.6036
30
0
42
0.414214
10
25.0714
20
33.6036
30
0
42
0
10
7.07143
20
33.6036
30
0
42
0.414214
10
3.07143
20
29.6036
30
0
0
HATCH
5
78
100
AcDbEntity
67
0
8
cz_logo
6
ByLayer
62
108
370
-1
100
AcDbHatch
10
0
20
0
30
0
210
0
220
0
230
1
2
SOLID
70
1
71
0
91
3
92
2
72
1
73
1
93
8
10
3.07143
20
11
42
0.414214
10
7.07143
20
7
42
0
10
25.0714
20
7
42
0.414214
10
29.0714
20
11
42
0
10
29.0714
20
29.6036
42
0.414214
10
25.0714
20
33.6036
42
0
10
7.07143
20
33.6036
42
0.414214
10
3.07143
20
29.6036
42
0
97
0
92
2
72
1
73
1
93
8
10
15.9714
20
29.0518
42
0.4
10
9.27143
20
31.0518
42
0.6
10
9.27143
20
17.0518
42
0.4
10
15.9714
20
19.0518
42
0
10
14.3714
20
21.0518
42
-0.4
10
10.3514
20
19.8518
42
-0.6
10
10.3514
20
28.2518
42
-0.4
10
14.3714
20
27.0518
42
0
97
0
92
2
72
1
73
1
93
10
10
17.0714
20
24.1036
42
0
10
27.0714
20
24.1036
42
0
10
27.0714
20
20.1036
42
0
10
19.8214
20
11.75
42
0
10
27.0714
20
11.75
42
0
10
27.0714
20
9
42
0
10
17.0714
20
9
42
0
10
17.0714
20
13
42
0
10
24.3214
20
21.3536
42
0
10
17.0714
20
21.3536
42
0
97
0
75
0
76
0
98
0
0
HATCH
5
79
100
AcDbEntity
67
0
8
cz_logo
6
ByLayer
62
254
370
-1
100
AcDbHatch
10
0
20
0
30
0
210
0
220
0
230
1
2
SOLID
70
1
71
0
91
1
92
2
72
1
73
1
93
8
10
15.9714
20
29.0518
42
0.4
10
9.27143
20
31.0518
42
0.6
10
9.27143
20
17.0518
42
0.4
10
15.9714
20
19.0518
42
0
10
14.3714
20
21.0518
42
-0.4
10
10.3514
20
19.8518
42
-0.6
10
10.3514
20
28.2518
42
-0.4
10
14.3714
20
27.0518
42
0
97
0
75
0
76
0
98
0
0
HATCH
5
7A
100
AcDbEntity
67
0
8
cz_logo
6
ByLayer
62
254
370
-1
100
AcDbHatch
10
0
20
0
30
0
210
0
220
0
230
1
2
SOLID
70
1
71
0
91
1
92
2
72
1
73
1
93
10
10
17.0714
20
24.1036
42
0
10
27.0714
20
24.1036
42
0
10
27.0714
20
20.1036
42
0
10
19.8214
20
11.75
42
0
10
27.0714
20
11.75
42
0
10
27.0714
20
9
42
0
10
17.0714
20
9
42
0
10
17.0714
20
13
42
0
10
24.3214
20
21.3536
42
0
10
17.0714
20
21.3536
42
0
97
0
75
0
76
0
98
0
0
ENDBLK
5
7B
330
73
100
AcDbEntity
8
0
100
AcDbBlockEnd
0
ENDSEC
0
SECTION
2
ENTITIES
0
LWPOLYLINE
5
24
100
AcDbEntity
67
0
8
0
6
ByLayer
62
0
370
-1
100
AcDbPolyline
90
4
70
1
10
0
20
0
30
0
42
0
10
841
20
0
30
0
42
0
10
841
20
594
30
0
42
0
10
0
20
594
30
0
0
LWPOLYLINE
5
36
100
AcDbEntity
67
0
8
0
6
ByLayer
62
0
370
-1
100
AcDbPolyline
90
8
70
1
10
30
20
25
30
0
42
0.414214
10
40
20
15
30
0
42
0
10
145
20
15
30
0
42
0.414214
10
155
20
25
30
0
42
0
10
155
20
50
30
0
42
0.414214
10
145
20
60
30
0
42
0
10
40
20
60
30
0
42
0.414214
10
30
20
50
30
0
0
LWPOLYLINE
5
37
100
AcDbEntity
67
0
8
0
6
ByLayer
62
0
370
-1
100
AcDbPolyline
90
8
70
1
10
766
20
25
30
0
42
0.414214
10
776
20
15
30
0
42
0
10
816
20
15
30
0
42
0.414214
10
826
20
25
30
0
42
0
10
826
20
50
30
0
42
0.414214
10
816
20
60
30
0
42
0
10
776
20
60
30
0
42
0.414214
10
766
20
50
30
0
0
LWPOLYLINE
5
38
100
AcDbEntity
67
0
8
0
6
ByLayer
62
0
370
-1
100
AcDbPolyline
90
8
70
1
10
661
20
25
30
0
42
0.414214
10
671
20
15
30
0
42
0
10
751
20
15
30
0
42
0.414214
10
761
20
25
30
0
42
0
10
761
20
50
30
0
42
0.414214
10
751
20
60
30
0
42
0
10
671
20
60
30
0
42
0.414214
10
661
20
50
30
0
0
LWPOLYLINE
5
3F
100
AcDbEntity
67
0
8
0
6
ByLayer
62
0
370
-1
100
AcDbPolyline
90
8
70
1
10
30
20
75
30
0
42
0.414214
10
40
20
65
30
0
42
0
10
816
20
65
30
0
42
0.414214
10
826
20
75
30
0
42
0
10
826
20
569
30
0
42
0.414214
10
816
20
579
30
0
42
0
10
40
20
579
30
0
42
0.414214
10
30
20
569
30
0
0
LWPOLYLINE
5
40
100
AcDbEntity
67
0
8
0
6
ByLayer
62
0
370
-1
100
AcDbPolyline
90
8
70
1
10
25
20
25
30
0
42
0.414214
10
40
20
10
30
0
42
0
10
816
20
10
30
0
42
0.414214
10
831
20
25
30
0
42
0
10
831
20
569
30
0
42
0.414214
10
816
20
584
30
0
42
0
10
40
20
584
30
0
42
0.414214
10
25
20
569
30
0
0
LINE
5
42
100
AcDbEntity
67
0
8
0
6
ByLayer
62
0
370
-1
100
AcDbLine
10
656
20
0
30
0
11
656
21
10
31
0
0
LINE
5
43
100
AcDbEntity
67
0
8
0
6
ByLayer
62
0
370
-1
100
AcDbLine
10
471
20
0
30
0
11
471
21
10
31
0
0
LINE
5
44
100
AcDbEntity
67
0
8
0
6
ByLayer
62
0
370
-1
100
AcDbLine
10
341
20
0
30
0
11
341
21
10
31
0
0
LINE
5
45
100
AcDbEntity
67
0
8
0
6
ByLayer
62
0
370
-1
100
AcDbLine
10
201
20
0
30
0
11
201
21
10
31
0
0
LWPOLYLINE
5
46
100
AcDbEntity
67
0
8
0
6
ByLayer
62
0
370
-1
100
AcDbPolyline
90
8
70
1
10
556
20
25
30
0
42
0.414214
10
566
20
15
30
0
42
0
10
646
20
15
30
0
42
0.414214
10
656
20
25
30
0
42
0
10
656
20
50
30
0
42
0.414214
10
646
20
60
30
0
42
0
10
566
20
60
30
0
42
0.414214
10
556
20
50
30
0
0
LWPOLYLINE
5
48
100
AcDbEntity
67
0
8
0
6
ByLayer
62
0
370
-1
100
AcDbPolyline
90
8
70
1
10
451
20
25
30
0
42
0.414214
10
461
20
15
30
0
42
0
10
541
20
15
30
0
42
0.414214
10
551
20
25
30
0
42
0
10
551
20
50
30
0
42
0.414214
10
541
20
60
30
0
42
0
10
461
20
60
30
0
42
0.414214
10
451
20
50
30
0
0
LWPOLYLINE
5
4B
100
AcDbEntity
67
0
8
0
6
ByLayer
62
0
370
-1
100
AcDbPolyline
90
8
70
1
10
160
20
25
30
0
42
0.414214
10
170
20
15
30
0
42
0
10
436
20
15
30
0
42
0.414214
10
446
20
25
30
0
42
0
10
446
20
50
30
0
42
0.414214
10
436
20
60
30
0
42
0
10
170
20
60
30
0
42
0.414214
10
160
20
50
30
0
0
LINE
5
4E
100
AcDbEntity
67
0
8
0
6
ByLayer
62
0
370
-1
100
AcDbLine
10
826
20
30
30
0
11
766
21
30
31
0
0
LINE
5
4F
100
AcDbEntity
67
0
8
0
6
ByLayer
62
0
370
-1
100
AcDbLine
10
761
20
45
30
0
11
661
21
45
31
0
0
LINE
5
58
100
AcDbEntity
67
0
8
0
6
ByLayer
62
0
370
-1
100
AcDbLine
10
556.078
20
26.25
30
0
11
655.922
21
26.25
31
0
0
LINE
5
59
100
AcDbEntity
67
0
8
0
6
ByLayer
62
0
370
-1
100
AcDbLine
10
606
20
60
30
0
11
606
21
15
31
0
0
LINE
5
5A
100
AcDbEntity
67
0
8
0
6
ByLayer
62
0
370
-1
100
AcDbLine
10
550.922
20
26.25
30
0
11
451
21
26.25
31
0
0
LINE
5
5B
100
AcDbEntity
67
0
8
0
6
ByLayer
62
0
370
-1
100
AcDbLine
10
501
20
15
30
0
11
501
21
60
31
0
0
LINE
5
5C
100
AcDbEntity
67
0
8
0
6
ByLayer
62
0
370
-1
100
AcDbLine
10
501
20
37.5
30
0
11
551
21
37.5
31
0
0
LINE
5
5D
100
AcDbEntity
67
0
8
0
6
ByLayer
62
0
370
-1
100
AcDbLine
10
501
20
48.75
30
0
11
550.922
21
48.75
31
0
0
LINE
5
5E
100
AcDbEntity
67
0
8
0
6
ByLayer
62
0
370
-1
100
AcDbLine
10
30.0784
20
26.25
30
0
11
154.922
21
26.25
31
0
0
LINE
5
5F
100
AcDbEntity
67
0
8
0
6
ByLayer
62
0
370
-1
100
AcDbLine
10
30
20
37.5
30
0
11
155
21
37.5
31
0
0
LINE
5
60
100
AcDbEntity
67
0
8
0
6
ByLayer
62
0
370
-1
100
AcDbLine
10
30.0784
20
48.75
30
0
11
155
21
48.75
31
0
0
LINE
5
61
100
AcDbEntity
67
0
8
0
6
ByLayer
62
0
370
-1
100
AcDbLine
10
606
20
37.5
30
0
11
656
21
37.5
31
0
0
LINE
5
62
100
AcDbEntity
67
0
8
0
6
ByLayer
62
0
370
-1
100
AcDbLine
10
606
20
48.75
30
0
11
655.922
21
48.75
31
0
0
LINE
5
63
100
AcDbEntity
67
0
8
0
6
ByLayer
62
0
370
-1
100
AcDbLine
10
40
20
15
30
0
11
40
21
60
31
0
0
LINE
5
64
100
AcDbEntity
67
0
8
0
6
ByLayer
62
0
370
-1
100
AcDbLine
10
100
20
15
30
0
11
100
21
60
31
0
0
LINE
5
65
100
AcDbEntity
67
0
8
0
6
ByLayer
62
0
370
-1
100
AcDbLine
10
125
20
15
30
0
11
125
21
60
31
0
0
LINE
5
66
100
AcDbEntity
67
0
8
0
6
ByLayer
62
0
370
-1
100
AcDbLine
10
656
20
594
30
0
11
656
21
584
31
0
0
LINE
5
67
100
AcDbEntity
67
0
8
0
6
ByLayer
62
0
370
-1
100
AcDbLine
10
471
20
594
30
0
11
471
21
584
31
0
0
LINE
5
68
100
AcDbEntity
67
0
8
0
6
ByLayer
62
0
370
-1
100
AcDbLine
10
341
20
594
30
0
11
341
21
584
31
0
0
LINE
5
69
100
AcDbEntity
67
0
8
0
6
ByLayer
62
0
370
-1
100
AcDbLine
10
201
20
594
30
0
11
201
21
584
31
0
0
TEXT
5
6A
100
AcDbEntity
67
0
8
0
6
ByLayer
62
0
370
-1
100
AcDbText
10
711
20
40
30
0
40
3
1
#discipline$
50
0
7
Standard
72
1
11
711
21
40
31
0
100
AcDbText
73
2
0
TEXT
5
6E
100
AcDbEntity
67
0
8
0
6
ByLayer
62
0
370
-1
100
AcDbText
10
711
20
31
30
0
40
5
1
#title$-
50
0
7
Standard
72
1
11
711
21
31
31
0
100
AcDbText
73
2
0
TEXT
5
6F
100
AcDbEntity
67
0
8
0
6
ByLayer
62
0
370
-1
100
AcDbText
10
711
20
22
30
0
40
3
1
#type$
50
0
7
Standard
72
1
11
711
21
22
31
0
100
AcDbText
73
2
0
LINE
5
70
100
AcDbEntity
67
0
8
0
6
ByLayer
62
0
370
-1
100
AcDbLine
10
0
20
297
30
0
11
25
21
297
31
0
0
LINE
5
71
100
AcDbEntity
67
0
8
0
6
ByLayer
62
0
370
-1
100
AcDbLine
10
841
20
297
30
0
11
831
21
297
31
0
0
INSERT
5
7C
100
AcDbEntity
67
0
8
cz_logo
6
ByLayer
62
0
370
-1
100
AcDbBlockReference
66
0
2
logo1
10
460.796
20
20.1013
30
0
41
1
42
1
43
1
50
0
0
TEXT
5
85
100
AcDbEntity
67
0
8
0
6
ByLayer
62
0
370
-1
100
AcDbText
10
711
20
52
30
0
40
3
1
#project$-
50
0
7
Standard
72
1
11
711
21
52
31
0
100
AcDbText
73
2
0
TEXT
5
86
100
AcDbEntity
67
0
8
0
6
ByLayer
62
0
370
-1
100
AcDbText
10
796
20
48
30
0
40
5
1
#id
50
0
7
Standard
72
1
11
796
21
48
31
0
100
AcDbText
73
2
0
TEXT
5
87
100
AcDbEntity
67
0
8
0
6
ByLayer
62
0
370
-1
100
AcDbText
10
788
20
37
30
0
40
3
1
#rev$0
50
0
7
Standard
72
0
11
788
21
37
31
0
100
AcDbText
73
2
0
TEXT
5
88
100
AcDbEntity
67
0
8
0
6
ByLayer
62
0
370
-1
100
AcDbText
10
786
20
37
30
0
40
3
1
Rev.
50
0
7
Standard
72
2
11
786
21
37
31
0
100
AcDbText
73
2
0
TEXT
5
89
100
AcDbEntity
67
0
8
0
6
ByLayer
62
0
370
-1
100
AcDbText
10
776
20
22
30
0
40
3
1
Sheet
50
0
7
Standard
72
1
11
776
21
22
31
0
100
AcDbText
73
2
0
TEXT
5
8A
100
AcDbEntity
67
0
8
0
6
ByLayer
62
0
370
-1
100
AcDbText
10
796
20
22
30
0
40
3
1
#sheet$1
50
0
7
Standard
72
1
11
796
21
22
31
0
100
AcDbText
73
2
0
TEXT
5
8B
100
AcDbEntity
67
0
8
0
6
ByLayer
62
0
370
-1
100
AcDbText
10
806
20
22
30
0
40
3
1
of
50
0
7
Standard
72
1
11
806
21
22
31
0
100
AcDbText
73
2
0
TEXT
5
8C
100
AcDbEntity
67
0
8
0
6
ByLayer
62
0
370
-1
100
AcDbText
10
816
20
22
30
0
40
3
1
#sheets$1
50
0
7
Standard
72
1
11
816
21
22
31
0
100
AcDbText
73
2
0
TEXT
5
8D
100
AcDbEntity
67
0
8
0
6
ByLayer
62
0
370
-1
100
AcDbText
10
631
20
20.25
30
0
40
3
1
#aprov_date$-
50
0
7
Standard
72
1
11
631
21
20.25
31
0
100
AcDbText
73
2
0
TEXT
5
8E
100
AcDbEntity
67
0
8
0
6
ByLayer
62
0
370
-1
100
AcDbText
10
629
20
31.5
30
0
40
3
1
#aprov$
50
0
7
Standard
72
0
11
629
21
31.5
31
0
100
AcDbText
73
2
0
TEXT
5
8F
100
AcDbEntity
67
0
8
0
6
ByLayer
62
0
370
-1
100
AcDbText
10
610
20
31.5
30
0
40
3
1
Aprov:
50
0
7
Standard
72
0
11
610
21
31.5
31
0
100
AcDbText
73
2
0
TEXT
5
90
100
AcDbEntity
67
0
8
0
6
ByLayer
62
0
370
-1
100
AcDbText
10
610
20
42.75
30
0
40
3
1
Check:
50
0
7
Standard
72
0
11
610
21
42.75
31
0
100
AcDbText
73
2
0
TEXT
5
91
100
AcDbEntity
67
0
8
0
6
ByLayer
62
0
370
-1
100
AcDbText
10
629
20
42.75
30
0
40
3
1
#check$
50
0
7
Standard
72
0
11
629
21
42.75
31
0
100
AcDbText
73
2
0
TEXT
5
92
100
AcDbEntity
67
0
8
0
6
ByLayer
62
0
370
-1
100
AcDbText
10
610
20
54
30
0
40
3
1
View:
50
0
7
Standard
72
0
11
610
21
54
31
0
100
AcDbText
73
2
0
TEXT
5
93
100
AcDbEntity
67
0
8
0
6
ByLayer
62
0
370
-1
100
AcDbText
10
629
20
54
30
0
40
3
1
#view$
50
0
7
Standard
72
0
11
629
21
54
31
0
100
AcDbText
73
2
0
TEXT
5
94
100
AcDbEntity
67
0
8
0
6
ByLayer
62
0
370
-1
100
AcDbText
10
581
20
20.25
30
0
40
3
1
#client$-
50
0
7
Standard
72
1
11
581
21
20.25
31
0
100
AcDbText
73
2
0
TEXT
5
95
100
AcDbEntity
67
0
8
0
6
ByLayer
62
0
370
-1
100
AcDbText
10
526
20
20.25
30
0
40
3
1
#design_date$-
50
0
7
Standard
72
1
11
526
21
20.25
31
0
100
AcDbText
73
2
0
TEXT
5
96
100
AcDbEntity
67
0
8
0
6
ByLayer
62
0
370
-1
100
AcDbText
10
524
20
31.5
30
0
40
3
1
#quality$
50
0
7
Standard
72
0
11
524
21
31.5
31
0
100
AcDbText
73
2
0
TEXT
5
97
100
AcDbEntity
67
0
8
0
6
ByLayer
62
0
370
-1
100
AcDbText
10
505
20
31.5
30
0
40
3
1
Quality:
50
0
7
Standard
72
0
11
505
21
31.5
31
0
100
AcDbText
73
2
0
TEXT
5
98
100
AcDbEntity
67
0
8
0
6
ByLayer
62
0
370
-1
100
AcDbText
10
505
20
42.75
30
0
40
3
1
Drawn:
50
0
7
Standard
72
0
11
505
21
42.75
31
0
100
AcDbText
73
2
0
TEXT
5
99
100
AcDbEntity
67
0
8
0
6
ByLayer
62
0
370
-1
100
AcDbText
10
524
20
42.75
30
0
40
3
1
#drawn$
50
0
7
Standard
72
0
11
524
21
42.75
31
0
100
AcDbText
73
2
0
TEXT
5
9A
100
AcDbEntity
67
0
8
0
6
ByLayer
62
0
370
-1
100
AcDbText
10
505
20
54
30
0
40
3
1
Design:
50
0
7
Standard
72
0
11
505
21
54
31
0
100
AcDbText
73
2
0
TEXT
5
9B
100
AcDbEntity
67
0
8
0
6
ByLayer
62
0
370
-1
100
AcDbText
10
524
20
54
30
0
40
3
1
#design$-
50
0
7
Standard
72
0
11
524
21
54
31
0
100
AcDbText
73
2
0
ENDSEC
0
SECTION
2
OBJECTS
0
DICTIONARY
5
22
100
AcDbDictionary
3
ACAD_GROUP
350
23
0
DICTIONARY
5
23
100
AcDbDictionary
0
ENDSEC
0
EOF
